<?xml version="1.0" encoding="utf-8"?>
<!-- Generator: Adobe Illustrator 21.0.0, SVG Export Plug-In . SVG Version: 6.00 Build 0)  -->
<svg version="1.1" id="图层_2" xmlns="http://www.w3.org/2000/svg" xmlns:xlink="http://www.w3.org/1999/xlink" x="0px" y="0px"
	 viewBox="0 0 3186.3 2724.3" enable-background="new 0 0 3186.3 2724.3" xml:space="preserve">
<g id="eye">
	<g id="图层_5">
		<circle fill="#F9F8F7" cx="1381.4" cy="945.4" r="90.4"/>
		<circle fill="#53291D" cx="1389.7" cy="955.8" r="74.1"/>
		<circle fill="#220B05" stroke="#000000" stroke-width="6.6937" cx="1396.6" cy="956.5" r="46.8"/>
		<circle fill="#040000" cx="1392.6" cy="956.5" r="28.2"/>
		<circle fill="#B39E85" cx="1420.8" cy="989.5" r="18.5"/>
		<circle fill="#FFFFFF" cx="1339" cy="938.4" r="32.5"/>
		<path fill="#251F18" d="M1480.5,700.4c-29.5-14.6-67.9,4.6-80.7,28.7c-2.4,4.5-4,7.6-2.7,10.6c7.3,17.5,101,6.1,104.6-16.5
			C1503.5,712.1,1482.6,701.5,1480.5,700.4z"/>
		<circle fill="#F9F8F7" cx="1846.1" cy="945.4" r="90.4"/>
		<circle fill="#53291D" cx="1837.8" cy="955.8" r="74.1"/>
		<circle fill="#220B05" stroke="#000000" stroke-width="6.6937" cx="1830.9" cy="956.5" r="46.8"/>
		<circle fill="#040000" cx="1834.9" cy="956.5" r="28.2"/>
		<circle fill="#B39E85" cx="1806.7" cy="989.5" r="18.5"/>
		<circle fill="#FFFFFF" cx="1888.5" cy="938.4" r="32.5"/>
		<path fill="#251F18" d="M1747,700.4c29.5-14.6,67.9,4.6,80.7,28.7c2.4,4.5,4,7.6,2.7,10.6c-7.3,17.5-101,6.1-104.6-16.5
			C1724,712.1,1745,701.5,1747,700.4z"/>
	</g>
	<g>
		<path d="M1303.5,873.1c3.4-5.5,7.7-10.5,12.2-15.2c4.6-4.7,9.5-9,14.9-12.9c5.3-3.9,11.1-7.2,17.2-9.9c1.5-0.6,3.1-1.3,4.6-1.9
			l4.8-1.6c1.6-0.5,3.2-0.9,4.9-1.3c0.8-0.2,1.6-0.4,2.5-0.5l2.5-0.5c1.6-0.3,3.3-0.4,5-0.6l2.5-0.2l2.5,0c3.4-0.1,6.7,0.2,10.1,0.5
			l5,0.8c0.8,0.1,1.6,0.3,2.5,0.6l2.4,0.7l2.4,0.7l2.4,0.9c1.6,0.6,3.1,1.1,4.7,1.8c12.2,5.4,22.8,13.6,31.3,23.4
			c-10.4-7.7-21.4-14.3-33.2-18.5c-5.9-1.9-12-3.4-18.1-3.9c-6.1-0.5-12.3-0.3-18.4,0.7c-12.2,1.9-23.8,7-34.6,13.5
			c-2.7,1.6-5.3,3.4-7.9,5.2c-1.3,0.9-2.6,1.9-3.9,2.8l-3.8,2.9C1312.9,864.2,1308.1,868.5,1303.5,873.1z"/>
	</g>
	<path fill="none" stroke="#000000" stroke-width="10.0405" d="M1474.3,947.4c0,51.5-41.8,93.3-93.3,93.3
		c-40.5,0-74.9-25.8-87.9-61.8c-3.5-9.8-5.4-20.4-5.4-31.5c0-51.5,41.8-93.3,93.3-93.3c32.1,0,60.3,16.2,77.1,40.8
		C1468.4,909.8,1474.3,927.9,1474.3,947.4z"/>
	<g>
		<path d="M1455.4,891c-8.7-7.4-18.1-13.6-28.1-18.5c-9.9-4.8-20.4-8.2-31-9.3c-5.3-0.6-10.6-0.6-15.8-0.2c-5.2,0.5-10.4,1.5-15.4,3
			c-2.5,0.8-5,1.6-7.4,2.6c-2.4,1-4.9,2.1-7.2,3.3c-1.2,0.6-2.3,1.2-3.5,1.8c-1.2,0.7-2.3,1.3-3.5,2c-2.3,1.4-4.6,2.8-6.8,4.4
			c-4.4,3-8.7,6.3-12.6,9.9c-4,3.6-7.6,7.4-10.9,11.6c-6.5,8.3-11.5,17.7-14.6,28c-3.1,10.2-4.2,21.1-3.8,32.2
			c0.5,11,2.3,22.2,5.8,33c-3.2-4.8-5.6-10.1-7.6-15.5c-2.1-5.4-3.6-11.1-4.7-16.8c-2.2-11.5-2.3-23.6,0.1-35.5
			c2.4-11.8,7.5-23.2,14.6-33c3.5-4.9,7.6-9.4,12-13.6c4.4-4.2,9.1-7.9,14-11.3c2.5-1.7,5-3.3,7.5-4.8c1.3-0.8,2.6-1.5,3.9-2.2
			c1.3-0.7,2.7-1.4,4-2.1c5.5-2.6,11.2-4.8,17.1-6.3c11.8-3,24.4-3.4,36.3-1c11.9,2.4,22.9,7.5,32.6,14.1c4.8,3.3,9.4,7,13.5,11
			c2.1,2,4.1,4.1,6,6.3C1452,886.4,1453.8,888.6,1455.4,891z"/>
	</g>
	<g>
		<path d="M1292.7,971.6c-0.4-0.1-0.6-0.1-0.8-0.2c-0.2-0.1-0.4-0.1-0.6-0.2c-0.4-0.1-0.8-0.3-1.2-0.4c-0.8-0.3-1.5-0.6-2.3-1
			c-0.8-0.3-1.5-0.7-2.2-1.1l-2.1-1.2c-2.8-1.6-5.4-3.5-7.7-5.5c-1.2-1-2.3-2.2-3.3-3.3c-0.5-0.6-1-1.2-1.5-1.8
			c-0.2-0.3-0.5-0.6-0.7-0.9l-0.7-0.9c-1.8-2.4-3.1-5.2-4.2-7.8c2.1,2.1,4.1,4,6.5,5.4l0.9,0.6c0.3,0.2,0.6,0.3,0.9,0.5
			c0.6,0.3,1.2,0.7,1.8,1c1.3,0.5,2.5,1.1,3.7,1.5c2.5,0.9,5.1,1.5,7.6,1.8l1.9,0.2c0.6,0,1.3,0.1,1.9,0.1c0.6,0,1.3,0,1.9,0
			c0.3,0,0.6,0,0.9,0c0.2,0,0.3,0,0.4,0c0.1,0,0.3,0,0.3-0.1L1292.7,971.6z"/>
	</g>
	<g>
		<path d="M1924,873.1c-4.6-4.6-9.4-8.8-14.4-12.8l-3.8-2.9c-1.3-0.9-2.5-1.9-3.9-2.8c-2.6-1.8-5.2-3.6-7.9-5.2
			c-10.8-6.5-22.4-11.5-34.6-13.5c-6.1-1-12.2-1.2-18.4-0.7c-6.1,0.6-12.2,2-18.1,3.9c-11.8,4.2-22.8,10.8-33.2,18.5
			c8.5-9.8,19.1-18,31.3-23.4c1.5-0.7,3.1-1.2,4.7-1.8l2.4-0.9l2.4-0.7l2.4-0.7c0.8-0.2,1.6-0.4,2.5-0.6l5-0.8
			c3.4-0.3,6.7-0.6,10.1-0.5l2.5,0l2.5,0.2c1.7,0.2,3.4,0.3,5,0.6l2.5,0.5c0.8,0.2,1.7,0.3,2.5,0.5c1.6,0.4,3.3,0.8,4.9,1.3l4.8,1.6
			c1.6,0.6,3.1,1.3,4.6,1.9c6.1,2.7,11.9,6.1,17.2,9.9c5.4,3.8,10.3,8.2,14.9,12.9C1916.3,862.6,1920.6,867.6,1924,873.1z"/>
	</g>
	<path fill="none" stroke="#000000" stroke-width="10.0405" d="M1753.2,947.4c0,51.5,41.8,93.3,93.3,93.3
		c40.5,0,74.9-25.8,87.9-61.8c3.5-9.8,5.4-20.4,5.4-31.5c0-51.5-41.8-93.3-93.3-93.3c-32.1,0-60.3,16.2-77.1,40.8
		C1759.2,909.8,1753.2,927.9,1753.2,947.4z"/>
	<g>
		<path d="M1772.2,891c1.6-2.4,3.4-4.6,5.3-6.8c1.9-2.2,3.9-4.2,6-6.3c4.1-4,8.7-7.7,13.5-11c9.7-6.6,20.7-11.6,32.6-14.1
			c11.8-2.5,24.4-2.1,36.3,1c5.9,1.5,11.6,3.7,17.1,6.3c1.4,0.6,2.7,1.4,4,2.1c1.3,0.7,2.6,1.5,3.9,2.2c2.6,1.5,5.1,3.1,7.5,4.8
			c4.9,3.4,9.6,7.1,14,11.3c4.4,4.2,8.4,8.7,12,13.6c7.1,9.8,12.3,21.2,14.6,33c2.4,11.8,2.3,23.9,0.1,35.5
			c-1.1,5.8-2.6,11.4-4.7,16.8c-2,5.4-4.5,10.7-7.6,15.5c3.5-10.9,5.3-22,5.8-33c0.4-11-0.7-22-3.8-32.2c-3-10.2-8-19.7-14.6-28
			c-3.3-4.1-6.9-8-10.9-11.6c-3.9-3.6-8.2-6.9-12.6-9.9c-2.2-1.5-4.5-3-6.8-4.4c-1.2-0.7-2.3-1.3-3.5-2c-1.2-0.6-2.3-1.3-3.5-1.8
			c-2.4-1.2-4.8-2.3-7.2-3.3c-2.5-1-4.9-1.9-7.4-2.6c-5-1.5-10.2-2.5-15.4-3c-5.2-0.5-10.5-0.4-15.8,0.2c-10.6,1.2-21,4.5-31,9.3
			C1790.3,877.4,1780.8,883.6,1772.2,891z"/>
	</g>
	<g>
		<path d="M1933.4,958.3c0,0,0.1,0,0.3,0.1c0.1,0,0.3,0,0.4,0c0.3,0,0.6,0,0.9,0c0.6,0,1.2,0,1.9,0c0.6,0,1.3-0.1,1.9-0.1l1.9-0.2
			c2.6-0.3,5.1-0.9,7.6-1.8c1.3-0.4,2.5-1,3.7-1.5c0.6-0.3,1.2-0.6,1.8-1c0.3-0.2,0.6-0.3,0.9-0.5l0.9-0.6c2.4-1.4,4.5-3.4,6.5-5.4
			c-1.1,2.7-2.4,5.4-4.2,7.8l-0.7,0.9c-0.2,0.3-0.5,0.6-0.7,0.9c-0.5,0.6-1,1.2-1.5,1.8c-1.1,1.1-2.1,2.3-3.3,3.3
			c-2.3,2.1-4.9,3.9-7.7,5.5l-2.1,1.2c-0.7,0.4-1.4,0.7-2.2,1.1c-0.7,0.3-1.5,0.7-2.3,1c-0.4,0.2-0.8,0.3-1.2,0.4
			c-0.2,0.1-0.4,0.1-0.6,0.2c-0.2,0.1-0.4,0.1-0.8,0.2L1933.4,958.3z"/>
	</g>
</g>
</svg>
