<?xml version="1.0" encoding="utf-8"?>
<!-- Generator: Adobe Illustrator 21.0.0, SVG Export Plug-In . SVG Version: 6.00 Build 0)  -->
<svg version="1.1" id="图层_2" xmlns="http://www.w3.org/2000/svg" xmlns:xlink="http://www.w3.org/1999/xlink" x="0px" y="0px"
	 viewBox="0 0 3186.3 2724.3" enable-background="new 0 0 3186.3 2724.3" xml:space="preserve">
<g id="eye_x5F_04">
	<g id="图层_5_x5F_复制_2">
		<path fill="#F9F8F7" d="M1416.5,908.6c-1.7,0-2.9-0.7-3.7-1.6c-1.4-0.1-2.9-0.1-4.3-0.2c-16.2,5-33.3,3.8-50,5.1
			c-2.3,0.2-3.9-1.4-4.6-3.3c-6.7,1.5-13.3,2.8-20.1,4c0.6,2.7-1,5.8-4.7,6c-11.5,0.6-23,1.6-34.6,1.5c-2.3,8-3.6,16.5-3.6,25.3
			c0,49.9,40.5,90.4,90.4,90.4c49.9,0,90.4-40.5,90.4-90.4c0-13-2.8-25.4-7.7-36.5C1448.2,908.9,1432.4,909,1416.5,908.6z"/>
		<path fill="#6A652A" d="M1433.8,905.3c-18.3,0.2-36.7,0.1-55,0.9c-13.1,0.5-26.2,2.1-39.3,3c-7.4,10.1-11.8,22.5-11.8,36
			c0,33.4,27.1,60.5,60.5,60.5s60.5-27.1,60.5-60.5C1448.8,929.9,1443.1,916,1433.8,905.3z"/>
		<circle fill="#342C12" stroke="#0C0C0C" stroke-width="5.4703" cx="1393.9" cy="945.7" r="38.2"/>
		<circle fill="#201F0A" cx="1390.6" cy="945.7" r="23"/>
		<circle fill="#B39E85" cx="1345.1" cy="954.8" r="18.5"/>
		<circle fill="#FFFFFF" cx="1426.6" cy="947.8" r="25.5"/>
		<path fill="#F9F8F7" d="M1817.8,908.6c1.7,0,2.9-0.7,3.7-1.6c1.4-0.1,2.9-0.1,4.3-0.2c16.2,5,33.3,3.8,50,5.1
			c2.3,0.2,3.9-1.4,4.6-3.3c6.7,1.5,13.3,2.8,20.1,4c-0.6,2.7,1,5.8,4.7,6c11.5,0.6,23,1.6,34.6,1.5c2.3,8,3.6,16.5,3.6,25.3
			c0,49.9-40.5,90.4-90.4,90.4c-49.9,0-90.4-40.5-90.4-90.4c0-13,2.8-25.4,7.7-36.5C1786,908.9,1801.9,909,1817.8,908.6z"/>
		<path fill="#6A652A" d="M1800.4,905.3c18.3,0.2,36.7,0.1,55,0.9c13.1,0.5,26.2,2.1,39.3,3c7.4,10.1,11.8,22.5,11.8,36
			c0,33.4-27.1,60.5-60.5,60.5s-60.5-27.1-60.5-60.5C1785.5,929.9,1791.1,916,1800.4,905.3z"/>
		<circle fill="#342C12" stroke="#0C0C0C" stroke-width="5.4703" cx="1840.4" cy="945.7" r="38.2"/>
		<circle fill="#201F0A" cx="1843.7" cy="945.7" r="23"/>
		<circle fill="#B39E85" cx="1889.2" cy="954.8" r="18.5"/>
		<circle fill="#FFFFFF" cx="1807.6" cy="947.8" r="25.5"/>
	</g>
	<path fill="none" stroke="#000000" stroke-width="10.0405" d="M1474.3,947.4c0,51.5-41.8,93.3-93.3,93.3
		c-40.5,0-74.9-25.8-87.9-61.8c-3.5-9.8-5.4-20.4-5.4-31.5c0-9.7,4.2-27.7,4.2-27.7l182.4-6.8
		C1474.3,912.8,1474.3,927.9,1474.3,947.4z"/>
	<g>
		<path d="M1479.5,907.3c-3.9,2.2-7.8,4.2-11.7,6c-1.9,0.9-3.9,1.8-5.8,2.6c-1.9,0.8-3.9,1.7-5.8,2.4c-1,0.4-2,0.2-3,0.1
			c-1-0.1-2,0-3,0l-5.9,0.2l-11.9,0.5l-47.5,1.9l-47.5,1.9l-23.7,0.9l-6-2c-2-0.7-4-1.4-6-2.1c-4-1.5-8-3.1-12.1-4.9
			c3.9-2.2,7.8-4.1,11.7-5.8c1.9-0.9,3.9-1.7,5.8-2.6l5.8-2.5l23.7-0.9l47.5-1.9l47.5-1.9l11.9-0.5l5.9-0.2c1-0.1,2,0,3-0.2
			c1-0.2,2-0.4,3-0.2c2,0.6,4,1.3,6,2c2,0.7,4,1.4,6,2.2C1471.4,903.8,1475.4,905.4,1479.5,907.3z"/>
	</g>
	<g display="none">
		<path display="inline" d="M1292.7,971.6c-0.4-0.1-0.6-0.1-0.8-0.2c-0.2-0.1-0.4-0.1-0.6-0.2c-0.4-0.1-0.8-0.3-1.2-0.4
			c-0.8-0.3-1.5-0.6-2.3-1c-0.8-0.3-1.5-0.7-2.2-1.1l-2.1-1.2c-2.8-1.6-5.4-3.5-7.7-5.5c-1.2-1-2.3-2.2-3.3-3.3
			c-0.5-0.6-1-1.2-1.5-1.8c-0.2-0.3-0.5-0.6-0.7-0.9l-0.7-0.9c-1.8-2.4-3.1-5.2-4.2-7.8c2.1,2.1,4.1,4,6.5,5.4l0.9,0.6
			c0.3,0.2,0.6,0.3,0.9,0.5c0.6,0.3,1.2,0.7,1.8,1c1.3,0.5,2.5,1.1,3.7,1.5c2.5,0.9,5.1,1.5,7.6,1.8l1.9,0.2c0.6,0,1.3,0.1,1.9,0.1
			c0.6,0,1.3,0,1.9,0c0.3,0,0.6,0,0.9,0c0.2,0,0.3,0,0.4,0c0.1,0,0.3,0,0.3-0.1L1292.7,971.6z"/>
	</g>
	<path fill="none" stroke="#000000" stroke-width="10.0405" d="M1759.9,947.4c0,51.5,41.8,93.3,93.3,93.3
		c40.5,0,74.9-25.8,87.9-61.8c3.5-9.8,5.4-20.4,5.4-31.5c0-9.7-4.2-27.7-4.2-27.7l-182.4-6.8
		C1759.9,912.8,1759.9,927.9,1759.9,947.4z"/>
	<g>
		<path d="M1754.8,907.3c4-1.9,8.1-3.5,12.1-5c2-0.8,4-1.4,6-2.2c2-0.7,4-1.3,6-2c1-0.3,2,0,3,0.2c1,0.2,2,0.1,3,0.2l5.9,0.2
			l11.9,0.5l47.5,1.9l47.5,1.9l23.7,0.9l5.8,2.5c1.9,0.9,3.9,1.7,5.8,2.6c3.9,1.8,7.8,3.7,11.7,5.8c-4,1.8-8.1,3.4-12.1,4.9
			c-2,0.8-4,1.4-6,2.1l-6,2l-23.7-0.9l-47.5-1.9l-47.5-1.9l-11.9-0.5l-5.9-0.2c-1,0-2-0.1-3,0c-1,0.1-2,0.3-3-0.1
			c-2-0.8-3.9-1.6-5.8-2.4c-1.9-0.9-3.9-1.7-5.8-2.6C1762.6,911.5,1758.7,909.5,1754.8,907.3z"/>
	</g>
	<g display="none">
		<path display="inline" d="M1940.2,958.3c0,0,0.1,0,0.3,0.1c0.1,0,0.3,0,0.4,0c0.3,0,0.6,0,0.9,0c0.6,0,1.2,0,1.9,0
			c0.6,0,1.3-0.1,1.9-0.1l1.9-0.2c2.6-0.3,5.1-0.9,7.6-1.8c1.3-0.4,2.5-1,3.7-1.5c0.6-0.3,1.2-0.6,1.8-1c0.3-0.2,0.6-0.3,0.9-0.5
			l0.9-0.6c2.4-1.4,4.5-3.4,6.5-5.4c-1.1,2.7-2.4,5.4-4.2,7.8l-0.7,0.9c-0.2,0.3-0.5,0.6-0.7,0.9c-0.5,0.6-1,1.2-1.5,1.8
			c-1.1,1.1-2.1,2.3-3.3,3.3c-2.3,2.1-4.9,3.9-7.7,5.5l-2.1,1.2c-0.7,0.4-1.4,0.7-2.2,1.1c-0.7,0.3-1.5,0.7-2.3,1
			c-0.4,0.2-0.8,0.3-1.2,0.4c-0.2,0.1-0.4,0.1-0.6,0.2c-0.2,0.1-0.4,0.1-0.8,0.2L1940.2,958.3z"/>
	</g>
	<g id="图层_22">
		<path fill="#131312" d="M1379.4,796.4c15.6,1.1,46.1,3.5,78.5,12.4c7.6,2.1,17.4,5,19.3,10.2c2,5.3-5.4,10.1-6,10.5
			c-9.2,5.8-22.8,3.2-76.4-4.7c-34-5-49.5-7.1-61.8-16.5c-2.7-2.1-9.3-7.2-7.3-10.7C1327.4,794.4,1335.2,793.2,1379.4,796.4z"/>
		<path fill="#131312" d="M1854.8,796.4c-15.6,1.1-46.1,3.5-78.5,12.4c-7.6,2.1-17.4,5-19.3,10.2c-2,5.3,5.4,10.1,6,10.5
			c9.2,5.8,22.8,3.2,76.4-4.7c34-5,49.5-7.1,61.8-16.5c2.7-2.1,9.3-7.2,7.3-10.7C1906.9,794.4,1899.1,793.2,1854.8,796.4z"/>
	</g>
</g>
</svg>
