<?xml version="1.0" encoding="utf-8"?>
<!-- Generator: Adobe Illustrator 21.0.0, SVG Export Plug-In . SVG Version: 6.00 Build 0)  -->
<svg version="1.1" id="图层_2" xmlns="http://www.w3.org/2000/svg" xmlns:xlink="http://www.w3.org/1999/xlink" x="0px" y="0px"
	 viewBox="0 0 3186.3 2724.3" enable-background="new 0 0 3186.3 2724.3" xml:space="preserve">
<g id="eye_x5F_05">
	<ellipse fill="#F9F8F7" cx="1365.8" cy="952.7" rx="42" ry="36.8"/>
	<ellipse fill="#53291D" cx="1370" cy="954.8" rx="31.3" ry="30.9"/>
	<ellipse fill="#220B05" stroke="#000000" stroke-width="2.8062" cx="1372.9" cy="955.1" rx="19.7" ry="19.5"/>
	<ellipse fill="#040000" cx="1371.2" cy="955.1" rx="11.9" ry="11.7"/>
	<ellipse fill="#B39E85" cx="1388.7" cy="970.1" rx="7.8" ry="7.7"/>
	<ellipse fill="#FFFFFF" cx="1346.3" cy="949.1" rx="15.1" ry="13.2"/>
	<g>
		<path d="M1329.8,922.5c3.5-4.7,8.1-8.6,13.1-11.8c5-3.1,10.8-5.4,16.7-6.2c3-0.4,6-0.4,9-0.1c3,0.4,5.9,1.1,8.7,2.1
			c5.6,2.2,10.6,5.5,14.8,9.6c-4.9-3.2-10.1-5.8-15.5-7.5c-2.7-0.7-5.5-1.3-8.3-1.5c-2.8-0.2-5.6-0.1-8.4,0.2
			c-2.8,0.3-5.5,1-8.2,1.9c-2.7,0.9-5.3,2.1-7.8,3.3C1338.9,915.4,1334.2,918.7,1329.8,922.5z"/>
	</g>
	<path fill="none" stroke="#000000" stroke-width="4.3647" d="M1409.1,952.7c0,21-19.4,37.9-43.3,37.9c-18.8,0-34.8-10.5-40.8-25.1
		c-1.6-4-2.5-8.3-2.5-12.8c0-21,19.4-37.9,43.3-37.9c14.9,0,28,6.6,35.8,16.6C1406.4,937.5,1409.1,944.8,1409.1,952.7z"/>
	<g>
		<path d="M1400.3,929.8c-4-3-8.3-5.4-12.7-7.3c-4.5-1.9-9.1-3.2-13.8-3.7c-9.4-1.1-18.7,1.1-26.9,5.8c-4.1,2.3-8.1,4.9-11.3,8.2
			c-1.7,1.6-3.1,3.4-4.4,5.2c-1.3,1.9-2.4,3.9-3.3,6c-1.7,4.3-2.5,9-2.3,13.7c0,2.4,0.3,4.8,0.8,7.2c0.2,1.2,0.5,2.4,0.9,3.6
			c0.3,1.2,0.7,2.4,1.2,3.5c-1.5-2-2.6-4.3-3.6-6.6c-1-2.4-1.7-4.8-2.1-7.4c-0.9-5.1-0.7-10.5,0.8-15.6c0.8-2.6,1.9-5,3.3-7.3
			c1.4-2.3,3-4.4,4.8-6.3c3.6-3.9,8-6.9,12.5-9.4c4.5-2.5,9.5-4.4,14.7-5.3c1.3-0.3,2.6-0.4,3.9-0.5c1.3-0.1,2.6-0.2,3.9-0.1
			c2.6,0,5.2,0.3,7.8,0.8c5.1,1.1,10,3,14.3,5.7c2.2,1.3,4.2,2.8,6.2,4.4C1397,926.1,1398.8,927.9,1400.3,929.8z"/>
	</g>
	<g>
		<path d="M1324.8,962.8c-0.5-0.1-0.8-0.2-1.1-0.3c-0.3-0.1-0.7-0.3-1-0.4c-0.7-0.3-1.3-0.6-1.9-0.9c-1.3-0.6-2.4-1.4-3.5-2.2
			c-1.1-0.8-2.1-1.8-3-2.8c-0.9-1-1.6-2.2-2.1-3.3c1,0.9,1.9,1.7,3.1,2.2c1.1,0.6,2.2,1.1,3.4,1.4c1.2,0.3,2.3,0.5,3.5,0.7
			c0.6,0.1,1.2,0.1,1.7,0.1c0.5,0,1.2,0,1.6-0.1L1324.8,962.8z"/>
	</g>
	<path fill="#040000" d="M1323.5,770.9c-2.9-3.9,43.3-55.6,68.7-44.8c7.1,3,13.1,11.2,11.5,16.3c-2.1,6.5-15.7,4.8-35.6,9.5
		C1338.5,758.9,1325,772.9,1323.5,770.9z"/>
	<ellipse fill="#F9F8F7" cx="1861.7" cy="952.7" rx="42" ry="36.8"/>
	<ellipse fill="#53291D" cx="1857.5" cy="954.8" rx="31.3" ry="30.9"/>
	<ellipse fill="#220B05" stroke="#000000" stroke-width="2.8062" cx="1854.6" cy="955.1" rx="19.7" ry="19.5"/>
	<ellipse fill="#040000" cx="1856.3" cy="955.1" rx="11.9" ry="11.7"/>
	<ellipse fill="#B39E85" cx="1838.8" cy="970.1" rx="7.8" ry="7.7"/>
	<ellipse fill="#FFFFFF" cx="1881.3" cy="949.1" rx="15.1" ry="13.2"/>
	<g>
		<path d="M1897.8,922.5c-4.4-3.9-9.2-7.1-14.2-9.8c-2.5-1.3-5.1-2.5-7.8-3.3c-2.7-0.9-5.4-1.6-8.2-1.9c-2.8-0.4-5.6-0.5-8.4-0.2
			c-2.8,0.2-5.6,0.8-8.3,1.5c-5.4,1.7-10.6,4.3-15.5,7.5c4.1-4.1,9.2-7.5,14.8-9.6c2.8-1,5.8-1.8,8.7-2.1c3-0.3,6-0.3,9,0.1
			c6,0.8,11.7,3.1,16.7,6.2C1889.7,913.9,1894.2,917.8,1897.8,922.5z"/>
	</g>
	<path fill="none" stroke="#000000" stroke-width="4.3647" d="M1818.4,952.7c0,21,19.4,37.9,43.3,37.9c18.8,0,34.8-10.5,40.8-25.1
		c1.6-4,2.5-8.3,2.5-12.8c0-21-19.4-37.9-43.3-37.9c-14.9,0-28,6.6-35.8,16.6C1821.1,937.5,1818.4,944.8,1818.4,952.7z"/>
	<g>
		<path d="M1827.2,929.8c1.6-2,3.4-3.7,5.3-5.3c1.9-1.6,4-3.1,6.2-4.4c4.3-2.7,9.2-4.6,14.3-5.7c2.6-0.5,5.2-0.8,7.8-0.8
			c1.3-0.1,2.6,0.1,3.9,0.1c1.3,0.2,2.6,0.3,3.9,0.5c5.2,0.9,10.2,2.8,14.7,5.3c4.5,2.5,8.9,5.5,12.5,9.4c1.8,1.9,3.5,4.1,4.8,6.3
			c1.4,2.3,2.5,4.7,3.3,7.3c1.6,5.1,1.8,10.5,0.8,15.6c-0.5,2.5-1.2,5-2.1,7.4c-1,2.3-2.1,4.6-3.6,6.6c0.5-1.2,0.8-2.3,1.2-3.5
			c0.3-1.2,0.6-2.4,0.9-3.6c0.5-2.4,0.8-4.8,0.8-7.2c0.1-4.8-0.6-9.5-2.3-13.7c-0.9-2.1-1.9-4.2-3.3-6c-1.3-1.9-2.8-3.7-4.4-5.2
			c-3.3-3.3-7.2-5.9-11.3-8.2c-8.2-4.7-17.5-6.9-26.9-5.8c-4.7,0.5-9.3,1.8-13.8,3.7C1835.4,924.4,1831.2,926.8,1827.2,929.8z"/>
	</g>
	<g>
		<path d="M1902.2,957c0.4,0.1,1,0.1,1.6,0.1c0.6,0,1.2,0,1.7-0.1c1.2-0.1,2.3-0.3,3.5-0.7c1.2-0.3,2.3-0.8,3.4-1.4
			c1.1-0.6,2.1-1.4,3.1-2.2c-0.6,1.1-1.2,2.3-2.1,3.3c-0.9,1-1.9,2-3,2.8c-1.1,0.8-2.3,1.6-3.5,2.2c-0.6,0.3-1.3,0.6-1.9,0.9
			c-0.3,0.1-0.7,0.3-1,0.4c-0.4,0.1-0.7,0.2-1.1,0.3L1902.2,957z"/>
	</g>
	<path fill="#040000" d="M1904,770.9c2.9-3.9-43.3-55.6-68.7-44.8c-7.1,3-13.1,11.2-11.5,16.3c2.1,6.5,15.7,4.8,35.6,9.5
		C1889,758.9,1902.5,772.9,1904,770.9z"/>
</g>
</svg>
