<?xml version="1.0" encoding="utf-8"?>
<!-- Generator: Adobe Illustrator 21.0.0, SVG Export Plug-In . SVG Version: 6.00 Build 0)  -->
<svg version="1.1" id="图层_2" xmlns="http://www.w3.org/2000/svg" xmlns:xlink="http://www.w3.org/1999/xlink" x="0px" y="0px"
	 viewBox="0 0 3186.3 2724.3" enable-background="new 0 0 3186.3 2724.3" xml:space="preserve">
<g id="eye_x5F_03" display="block">
	<ellipse display="inline" fill="#F9F8F7" cx="1374.4" cy="952.6" rx="65.6" ry="57.6"/>
	<ellipse display="inline" fill="#4F130D" cx="1382.6" cy="959.2" rx="47.9" ry="47.2"/>
	<ellipse display="inline" fill="#2F0807" stroke="#0C0C0C" stroke-width="4.2973" cx="1387" cy="959.7" rx="30.2" ry="29.8"/>
	<ellipse display="inline" fill="#180705" cx="1384.4" cy="959.7" rx="18.2" ry="18"/>
	<ellipse display="inline" fill="#AA7C6A" cx="1402.7" cy="980.7" rx="12" ry="11.8"/>
	<ellipse display="inline" fill="#FFFFFF" cx="1343.6" cy="948.2" rx="23.6" ry="20.7"/>
	<g display="inline">
		<path d="M1317.9,906.5c5.5-7.3,12.6-13.5,20.4-18.4c7.9-4.9,16.8-8.5,26.2-9.7c4.7-0.6,9.4-0.7,14.1-0.2l3.5,0.5
			c1.2,0.2,2.3,0.5,3.4,0.7l1.7,0.4c0.6,0.2,1.1,0.3,1.7,0.5c1.1,0.4,2.2,0.7,3.3,1.1c8.7,3.4,16.6,8.6,23,15.1
			c-7.7-5-15.7-9.1-24.2-11.7c-4.3-1.1-8.6-2.1-13-2.4c-4.4-0.3-8.8-0.2-13.1,0.4c-8.7,1.2-17.1,4.2-25,8.3
			C1332.2,895.3,1324.7,900.5,1317.9,906.5z"/>
	</g>
	<path display="inline" fill="none" stroke="#000000" stroke-width="6.8269" d="M1441.8,953.9c0,32.8-30.3,59.4-67.7,59.4
		c-29.4,0-54.4-16.4-63.7-39.4c-2.6-6.3-3.9-13-3.9-20.1c0-32.8,30.3-59.4,67.7-59.4c23.3,0,43.8,10.3,56,26
		C1437.5,929.9,1441.8,941.5,1441.8,953.9z"/>
	<g display="inline">
		<path d="M1428.1,918c-6.2-4.7-12.9-8.5-19.9-11.5c-7-3-14.2-5-21.5-5.8c-7.3-0.9-14.7-0.5-21.7,1.1c-3.5,0.8-7,1.9-10.4,3.2
			c-3.4,1.4-6.7,2.9-9.9,4.7c-6.5,3.6-12.5,7.8-17.7,12.9c-5.1,5-9.3,11-12,17.7c-2.7,6.7-3.8,14-3.6,21.5c0.1,3.7,0.5,7.5,1.3,11.3
			c0.4,1.9,0.8,3.7,1.3,5.6c0.5,1.9,1.1,3.7,1.8,5.5c-2.3-3.1-4.1-6.7-5.6-10.4c-1.5-3.7-2.6-7.5-3.4-11.5
			c-1.5-7.9-1.2-16.4,1.3-24.4c2.4-8,6.9-15.3,12.6-21.4c5.7-6,12.4-10.9,19.5-14.8c7.1-3.9,14.9-6.9,23-8.3
			c8.1-1.5,16.5-1.3,24.5,0.3c8,1.7,15.6,4.8,22.4,8.9c3.4,2.1,6.6,4.4,9.6,7C1422.8,912.2,1425.6,914.9,1428.1,918z"/>
	</g>
	<g display="inline">
		<path d="M1310.1,969.6c-0.8-0.2-1.2-0.4-1.8-0.5c-0.5-0.2-1.1-0.4-1.6-0.6c-1-0.4-2-0.9-3-1.4c-2-1-3.8-2.2-5.5-3.5
			c-1.7-1.3-3.3-2.8-4.6-4.4c-1.4-1.6-2.4-3.4-3.3-5.2c1.5,1.4,3,2.6,4.8,3.5c1.7,0.9,3.5,1.7,5.3,2.1c1.8,0.5,3.6,0.9,5.5,1
			c0.9,0.1,1.8,0.1,2.7,0.1c0.5,0,0.9,0,1.3,0c0.4,0,0.9,0,1.2-0.1L1310.1,969.6z"/>
	</g>
	<g id="图层_19" display="inline">
		<path fill="#201C18" d="M1379.7,764.5c17.3-5.6,74.4-10.2,90.9,19.8c1,1.9,7.4,13.4,2.5,21.5c-3.6,6-12,7.9-18,7.6
			c-13.4-0.5-14-11.6-36-25.1c-13.3-8.3-24-14.9-38.4-16.4c-3-0.3-9.9-0.8-10.1-2.6C1370.5,767.5,1377.5,765.2,1379.7,764.5z"/>
		<path fill="#201C18" d="M1848.8,764.5c-17.3-5.6-74.4-10.2-90.9,19.8c-1,1.9-7.4,13.4-2.5,21.5c3.6,6,12,7.9,18,7.6
			c13.4-0.5,14-11.6,36-25.1c13.3-8.3,24-14.9,38.4-16.4c3-0.3,9.9-0.8,10.1-2.6C1858.1,767.5,1851.1,765.2,1848.8,764.5z"/>
	</g>
	<ellipse display="inline" fill="#F9F8F7" cx="1854.2" cy="952.6" rx="65.6" ry="57.6"/>
	<ellipse display="inline" fill="#4F130D" cx="1846" cy="959.2" rx="47.9" ry="47.2"/>
	<ellipse display="inline" fill="#2F0807" stroke="#0C0C0C" stroke-width="4.2973" cx="1841.5" cy="959.7" rx="30.2" ry="29.8"/>
	<ellipse display="inline" fill="#180705" cx="1844.1" cy="959.7" rx="18.2" ry="18"/>
	<ellipse display="inline" fill="#AA7C6A" cx="1825.9" cy="980.7" rx="12" ry="11.8"/>
	<ellipse display="inline" fill="#FFFFFF" cx="1885" cy="948.2" rx="23.6" ry="20.7"/>
	<g display="inline">
		<path d="M1910.7,906.5c-6.9-6-14.3-11.2-22.2-15.3c-7.9-4.1-16.3-7.1-25-8.3c-4.3-0.6-8.7-0.7-13.1-0.4c-4.4,0.3-8.7,1.3-13,2.4
			c-8.5,2.6-16.5,6.8-24.2,11.7c6.5-6.5,14.3-11.7,23-15.1c1.1-0.4,2.2-0.8,3.3-1.1c0.6-0.2,1.1-0.4,1.7-0.5l1.7-0.4
			c1.1-0.2,2.3-0.6,3.4-0.7l3.5-0.5c4.7-0.5,9.4-0.4,14.1,0.2c9.4,1.2,18.3,4.8,26.2,9.7C1898.2,893,1905.2,899.2,1910.7,906.5z"/>
	</g>
	<path display="inline" fill="none" stroke="#000000" stroke-width="6.8269" d="M1786.8,953.9c0,32.8,30.3,59.4,67.7,59.4
		c29.4,0,54.4-16.4,63.7-39.4c2.6-6.3,3.9-13,3.9-20.1c0-32.8-30.3-59.4-67.7-59.4c-23.3,0-43.8,10.3-56,26
		C1791.1,929.9,1786.8,941.5,1786.8,953.9z"/>
	<g display="inline">
		<path d="M1800.5,918c2.4-3.1,5.3-5.8,8.3-8.4c3-2.6,6.3-4.9,9.6-7c6.8-4.2,14.4-7.3,22.4-8.9c8-1.6,16.4-1.8,24.5-0.3
			c8.1,1.4,16,4.4,23,8.3c7.1,3.9,13.8,8.7,19.5,14.8c5.7,6,10.2,13.4,12.6,21.4c2.4,8,2.7,16.5,1.3,24.4c-0.8,4-1.9,7.8-3.4,11.5
			c-1.5,3.7-3.3,7.2-5.6,10.4c0.7-1.8,1.3-3.7,1.8-5.5c0.5-1.8,1-3.7,1.3-5.6c0.7-3.7,1.2-7.5,1.3-11.3c0.2-7.5-0.9-14.8-3.6-21.5
			c-2.7-6.7-6.8-12.6-12-17.7c-5.1-5.1-11.2-9.3-17.7-12.9c-3.3-1.8-6.5-3.4-9.9-4.7c-3.4-1.4-6.9-2.4-10.4-3.2
			c-7.1-1.6-14.4-2-21.7-1.1c-7.3,0.8-14.6,2.9-21.5,5.8C1813.4,909.4,1806.7,913.3,1800.5,918z"/>
	</g>
	<g display="inline">
		<path d="M1917.6,960.6c0.2,0.1,0.7,0.1,1.2,0.1c0.4,0,0.9,0,1.3,0c0.9,0,1.8-0.1,2.7-0.1c1.8-0.2,3.7-0.5,5.5-1
			c1.8-0.5,3.6-1.2,5.3-2.1c1.7-0.9,3.3-2.1,4.8-3.5c-0.9,1.8-1.9,3.6-3.3,5.2c-1.4,1.6-2.9,3.1-4.6,4.4c-1.7,1.3-3.6,2.5-5.5,3.5
			c-1,0.5-2,1-3,1.4c-0.5,0.2-1,0.4-1.6,0.6c-0.6,0.2-1,0.4-1.8,0.5L1917.6,960.6z"/>
	</g>
</g>
</svg>
