<?xml version="1.0" encoding="utf-8"?>
<!-- Generator: Adobe Illustrator 21.0.0, SVG Export Plug-In . SVG Version: 6.00 Build 0)  -->
<svg version="1.1" id="图层_2" xmlns="http://www.w3.org/2000/svg" xmlns:xlink="http://www.w3.org/1999/xlink" x="0px" y="0px"
	 viewBox="0 0 3186.3 2724.3" enable-background="new 0 0 3186.3 2724.3" xml:space="preserve">
<g id="color_x5F_04">
	<g>
		<path fill="#DD963A" d="M1541.6,589.3c-52.5,2.3-122.3,16.8-188,73.3c-2.4,2-4,3.5-5.7,5c-81.6,73.6-127,181.5-134.5,205.8
			c-7.2,23.3-4.7,117.4-46.2,175.8c-11.3,16-42.5,105.7,17.3,196.2c16,24.1,85.6,109.4,156.7,146.2c53.3,27.6,131.7,64.8,262.3,65.2
			c109.3,0.3,203.3-17.3,331-92.1c39.6-23.2,80.6-71.5,114.8-119.4c35-49.2,45.3-153.9,10.9-199.1c-22.2-29.2-41.7-154.7-54-189.9
			c-30.7-88-60.5-140.3-118.8-188.5c-80.7-66.8-174.7-76.9-219-81.7C1616,580.6,1571.8,584.6,1541.6,589.3z"/>
		<path fill="#DD963A" d="M1380.9,1414.8c0,0-71.7,120.8-82.8,169.9c-17.1,75.1-25.1,114.6-42.1,135.6
			c-66.8,82.8-88.6,106-95.2,160.1c-7.8,64.9,51.3,89.9,51.3,89.9s-59.7,5.9-77.3,76.1c-7.4,29.7-7.4,85,43.1,81.2
			c5.4-0.4,28.9,36.8,74,18c11.6-4.8,9.6,30.5,96.6,1.6c8.7-2.9,33.1,26.1,109.8-0.4c6-2.1,36.5,31,105.7-7.5
			c3.3-1.8,28.1,3.3,54.1-14.2c6.4-4.3,20.2,25.5,59.1,12.6c8.2-2.7,24,36.3,101.2,8.4c11.8-4.3,18.7,31.2,109.1-0.6
			c13.4-4.7,24.5,33.5,90.4,2.5c9.1-4.3,55.8,22.6,76.4-17c5-9.6,53.8,1.7,55.5-51.3c1.3-42.7-10.6-98.5-80.3-107.7
			c-11.9-1.6,57.7-17.8,48.8-97.3c-3-26.8-47.4-92.8-94-146.7c-12.5-14.4-39.9-126.6-46.3-145.3c-6.4-18.7-77.5-138.9-81.4-173.5"/>
		<path fill="#DD963A" d="M1310.3,1650.8c0,0,5,191.9,70.8,296.8c0,0-138.9,97.6-26.2,199.7c32.3,29.3,103.5-0.3,103.5-0.3"/>
		<path fill="#DD963A" d="M1922.5,1640.8c0,0-5,191.9-70.8,296.8c0,0,138.7,112.1,23.2,205.8c-39.2,31.8-96.2,2.8-96.2,2.8"/>
		<path fill="#DD963A" d="M1510.6,1650.8c0,0-5.8,131-1.7,166.8c3.6,31.8,10,101,14.5,106.5c4.5,5.6,119.9,31.2,99.8,188.5
			c-3.8,29.8-58.6,30.1-61.9,25.1"/>
		<path fill="#DD963A" d="M1730.6,1637.8c0,0-14.6,66-9.8,120.1c3.9,44.1-6.8,173.1-16.7,172.9c-29.8-0.6-92.2,61.6-83.4,93.6
			l6.6,37.2l-1.7,61.5"/>
		<path fill="#DD963A" d="M1556.9,2141.4c9.6-7.6,4.4-135.3-36.3-154.8"/>
		<path fill="#DD963A" d="M1455.3,2148c3.1-4.4-8.7-105.8-44.6-122.4"/>
		<path fill="#DD963A" d="M1984.3,2148c2.9-4.6-8.1-112.6-41.6-130.2"/>
		<path fill="#DD963A" d="M2050,2135.5c2.9-4.3,19-88.1-35.9-115.5"/>
		<path fill="#DD963A" d="M1781.7,2143.9c0,0-8.9-84.2,44.1-120.5"/>
		<path fill="#DD963A" d="M1680.1,2135.5c0,0-12.6-122.7,40.7-148.9"/>
		<path fill="#DD963A" d="M1255.2,2143.9c0,0-11.2-102.3,42.1-128.5"/>
		<path fill="#DD963A" d="M1184,2131.1c0,0-19.1-83.1,34.2-109.3"/>
		<path fill="#DD963A" d="M1208.5,1968.6c0,0,65.3,31,135.6,14"/>
		<path fill="#DD963A" d="M2032.1,1969.6c0,0-74.7,39-135.9,18.2"/>
		<path fill="#DD963A" d="M1370.6,649.2c0,0-221.5-201.9-351.5-197.9s11.5,461,175.7,528"/>
		<path fill="#DD963A" d="M1869.7,649.2c0,0,221.5-201.9,351.5-197.9s-11.5,461-175.7,528"/>
		<path fill="#DD963A" d="M1266.2,752.6c0,0-104.1-181.4-219.4-250.6"/>
		<path fill="#DD963A" d="M1963.1,752.6c0,0,104.1-181.4,219.4-250.6"/>
		<path fill="#DD963A" d="M1177.1,1939c-25.9,5.6-134,25.8-216.4-38.7c-64.6-50.6-85.1-128.9-96.6-174
			c-21.7-84.5-11.2-154.2-23-155.3c-10.2-1-24.6,50.5-29,68.3c-4.3,17.6-6.3,32.8-7.3,44c-3.6-1.7-8.2-4.5-12.7-9
			c-9.6-9.7-12.2-21.1-13-26c-7.9,13.7-30.4,56.8-23,114c6.2,48.1,30.3,80.2,41,93c11,12.6,12.1,16.7,11,18c-0.5,0.6-3,2.5-37-15
			c-24.2-12.4-26.4-15.2-28-14c-11.5,8.6,22.6,139.6,130,199c80.9,44.7,183.7,37.9,267.5-14.5c4.3-9.9,17-35.8,45.7-50.1
			c9.4-4.7,18.4-7.1,25.8-8.3c-4.9-1.3-15.7-4.9-24.9-14.9C1181.7,1949.5,1178.7,1943.2,1177.1,1939z"/>
	</g>
	<g>
		<g>
			<path fill="#AF6A21" d="M1291.1,1625.7c2.9,11.3,4.2,23.2,4.2,35.1c0,12-1.6,24.1-4.6,36l-2.2,8.5l-2.2,8.4
				c-0.7,2.9-1.5,5.7-2.4,8.6c-0.9,2.9-1.9,5.9-3,8.8c-2.2,5.9-4.9,11.8-8,17.4c-0.8,1.4-1.6,2.8-2.4,4.1c-0.8,1.3-1.7,2.8-2.5,4
				c-1.6,2.5-3.3,5-5,7.5c-3.4,5-7.1,10-11,14.8c-3.9,4.8-7.8,9.2-11.2,13.3c-3.4,4.1-6.5,8.2-9.6,12.5c-1.5,2.2-3,4.4-4.5,6.6
				l-2.3,3.4l-2.4,3.6c-6.3,9.4-12.2,18.4-16.2,26.8c-2,4.2-3.6,8.4-4.9,12.9c-0.3,1.1-0.6,2.2-0.9,3.3l-0.4,1.7l-0.4,2
				c-0.6,2.6-1,5-1.4,7.3c-0.8,4.7-1.2,9.3-1.2,13.8c0,4.5,0.4,8.8,1.2,13c0.8,4.2,2.1,8.2,3.8,12.1c1.7,3.9,3.8,7.5,6.3,10.9
				c1.3,1.7,2.7,3.3,4.2,4.9c1.5,1.6,3.1,3.2,4.8,4.7c3.5,3,7.3,5.9,11.6,8.6c4.2,2.7,8.8,5.3,13.7,7.8c2.4,1.3,4.9,2.6,7.5,3.9
				c2.3,1.1,4.6,2.4,6.9,3.4c2.3,1.1,4.7,2,7,3c2.4,0.9,4.8,1.8,7.2,2.5c4.9,1.6,9.9,2.8,15.1,3.8c5.2,1,10.5,1.7,16,2.3
				c5.5,0.6,11.1,1,16.8,1.4l17,1.2c5.4,0.3,10.7,0.3,15.8-0.5c5-0.8,9.9-2.5,14.4-5.5c4.5-3,8.4-7.1,11.6-12
				c-1.1,5.8-3.5,11.4-7.4,16.4c-1.9,2.5-4.2,4.7-6.8,6.7c-2.5,2-5.4,3.6-8.3,5c-5.9,2.8-12.1,4.3-18.1,5.5c-1.5,0.3-3,0.6-4.5,0.8
				l-4.3,0.7l-8.6,1.3c-5.8,0.8-11.7,1.5-17.7,2.1c-3,0.3-6,0.5-9.1,0.6c-1.5,0.1-3.1,0.1-4.6,0.1c-1.6,0-3.1,0-4.7,0
				c-6.2-0.1-12.6-0.6-19-1.6c-3.2-0.5-6.3-1.2-9.5-1.8c-3.1-0.8-6.3-1.5-9.3-2.5c-3.1-0.9-6.1-2-9.1-3.1c-2.8-1-5.5-2-8.3-3.1
				c-5.6-2.2-11.4-4.7-17.1-7.6c-5.8-3-11.5-6.4-17.1-10.5c-5.6-4.1-10.9-8.9-15.6-14.4c-4.7-5.5-8.8-11.7-12-18.2
				c-3.3-6.5-5.7-13.4-7.3-20.4c-1.6-7-2.4-14.2-2.5-21.2c-0.1-7,0.5-13.9,1.6-20.5c0.5-3.3,1.2-6.6,1.9-9.6l0.5-2.2l0.6-2.5
				c0.4-1.7,0.9-3.3,1.4-5c2-6.6,4.6-13.1,7.7-19.2c3.1-6,6.5-11.6,10.1-16.7c3.5-5.1,7-10,10.6-14.6l2.6-3.5l2.7-3.5
				c1.8-2.4,3.8-4.8,5.8-7.2c4-4.8,8.3-9.5,12.6-13.8c4.3-4.4,8.5-8.1,12.2-11.9c3.8-3.7,7.4-7.6,11.1-11.7c1.8-2,3.6-4.1,5.4-6.2
				l2.5-3c0.8-1,1.6-2,2.4-3c3.2-4,6-8.2,8.7-12.7c1.3-2.3,2.6-4.6,3.9-7c1.3-2.4,2.5-4.9,3.8-7.4l7.7-15.4
				c4.9-9.7,8.8-20.1,11.9-30.8C1287.5,1648.5,1289.7,1637.3,1291.1,1625.7z"/>
		</g>
		<g>
			<path fill="#AF6A21" d="M1948.9,1625.7c1.5,11.4,3.7,22.4,6.6,33c3,10.6,6.7,20.8,11.3,30.5l3.6,7.5l3.7,7.7l3.6,7.4
				c1.2,2.4,2.4,4.8,3.7,7c2.5,4.5,5.2,8.7,8.1,12.8c1.5,2,3,4,4.6,6l0.6,0.7l0.6,0.8l1.3,1.6c0.9,1,1.7,2.1,2.6,3.1
				c3.5,4.1,7,8,10.6,11.8c1.8,1.9,3.7,3.8,5.6,5.7c1.9,2,4,3.9,6,6.1c4.1,4.3,8.4,8.9,12.2,13.7c1,1.2,1.9,2.4,2.8,3.6
				c0.9,1.2,1.9,2.4,2.8,3.6l2.7,3.6l2.5,3.4c3.4,4.6,6.7,9.3,10.1,14.4c3.4,5,6.7,10.4,9.7,16.3c3,5.9,5.6,12.2,7.7,18.6
				c1,3.2,1.9,6.5,2.6,9.7c0.2,0.9,0.3,1.5,0.5,2.2l0.5,2.2c0.3,1.5,0.6,3.1,0.9,4.7c1.1,6.4,1.8,13,2,19.8
				c0.1,6.8-0.4,13.7-1.6,20.6c-2.5,13.8-8,27.3-16.5,38.8c-4.3,5.7-9.2,10.9-14.4,15.4c-5.2,4.5-10.9,8.2-16.5,11.4
				c-5.6,3.2-11.3,5.9-16.8,8.2c-5.6,2.4-10.6,4.3-16.8,6.5c-6,2-12.2,3.7-18.4,4.9c-6.3,1.1-12.6,1.8-18.8,2
				c-6.2,0.2-12.3,0-18.2-0.5c-5.9-0.5-11.7-1.2-17.4-2.1l-8.5-1.3l-4.2-0.7c-1.4-0.2-2.9-0.5-4.4-0.8c-5.9-1.2-12.1-2.7-17.8-5.5
				c-2.9-1.4-5.7-3.1-8.1-5.1c-2.5-2-4.7-4.3-6.5-6.8c-3.6-5-5.9-10.6-6.8-16.3c3.1,4.9,6.8,9,11.2,12c4.3,3,9,4.8,13.9,5.6
				c4.9,0.8,10,0.8,15.4,0.4l8.3-0.6l8.4-0.6c11.1-0.9,21.9-1.8,31.9-4c5-1.1,9.8-2.4,14.5-4c4.7-1.6,9.2-3.6,13.7-5.8l6.8-3.6
				l3.6-2c1.2-0.7,2.3-1.3,3.5-2c4.6-2.6,8.9-5.2,12.8-8c3.9-2.8,7.5-5.7,10.6-8.8c3.1-3.1,5.7-6.4,8-9.9c2.3-3.4,4-7.2,5.5-11.1
				c1.4-3.9,2.5-8,3.1-12.3c1.3-8.5,0.9-17.5-0.8-26.9c-0.2-1.2-0.4-2.4-0.7-3.6l-0.4-1.9c-0.1-0.6-0.3-1.4-0.4-1.9
				c-0.5-2.3-1.1-4.5-1.7-6.6c-1.3-4.3-2.9-8.5-4.9-12.7c-4-8.5-9.7-17.4-15.7-26.9l-2.3-3.5l-2.2-3.3c-0.7-1.1-1.4-2.2-2.2-3.3
				c-0.7-1.1-1.4-2.2-2.2-3.2c-3-4.3-5.9-8.3-9.3-12.4l-5.3-6.5c-1.8-2.3-3.7-4.6-5.5-7c-3.6-4.8-7.1-9.8-10.3-14.8
				c-1.6-2.5-3.1-4.9-4.7-7.6c-1.6-2.7-3.1-5.4-4.6-8.2c-2.9-5.6-5.4-11.4-7.3-17.3c-2-5.8-3.6-11.6-5-17.1l-2-8.3l-1-4.1
				c-0.3-1.4-0.7-2.9-1-4.4c-1.3-5.9-2.3-11.8-2.9-17.7c-0.6-5.9-0.9-11.8-0.8-17.7C1944.6,1648.4,1946,1636.8,1948.9,1625.7z"/>
		</g>
		<path fill="#AF6A21" d="M1506.5,1739c-2.2,0.2,0.3,24.9,0.7,58.2c0,0,1.2,112.2,16.7,127.6c1.7,1.7,3.6,3,3.6,3
			c3.8,2.4,7.5,2.6,21.3,11c15.2,9.3,35.3,21.7,48.3,43.2c10.7,17.7,9.3,29.7,15.4,30.4c8.9,0.9,8.6-25.4,32.8-47.5
			c9.8-8.9,27.9-25.5,47.9-30.9c2.6-0.7,9.3-2.3,13.8-8.1c5-6.6,4.2-15,4-17.9c-2.2-28.3,13-46.9,11.8-119.6c0-3-0.6-39.6-3.8-39.7
			c-5.1-0.2,5.9,94.7-47.9,145.4c-6.3,5.9-28.3,26.7-57.2,25c-8.3-0.5-23.9-3.2-43-19.8C1510,1846.6,1511,1738.5,1506.5,1739z"/>
		<path fill="#AF6A21" d="M1311.1,1667.2c-4.7-0.1-5.2,98.7,0.3,182.4c0,0,4.4,66.1,39.7,110.9c1.6,2,5.2,6.1,10.5,6.7
			c10.3,1.1,22.4-12.1,20.9-21.8c-1-6.4-7.8-10.1-9-10.8c-12.5-7.6-30.6-57-57.2-204.2C1314.7,1678.6,1312.7,1667.2,1311.1,1667.2z"
			/>
		<path fill="#AF6A21" d="M1923.3,1658.6c4.7-0.1,5.2,98.7-0.3,182.4c0,0-4.4,66.1-39.7,110.9c-1.6,2-5.2,6.1-10.5,6.7
			c-10.3,1.1-22.4-12.1-20.9-21.8c1-6.4,7.8-10.1,9-10.8c12.5-7.6,30.6-57,57.2-204.2C1919.7,1670,1921.7,1658.6,1923.3,1658.6z"/>
		<path fill="#AF6A21" d="M1823,2023.8c-2.1-1.7-31.3,21.2-49.2,57.9c0,0-15,30.7-7.5,55.8c0.7,2.4,2.5,8.4,7.5,10.3
			c3.3,1.2,6.9,0.4,8.6-0.5c9.3-4.8,0.3-29.7,1.2-51.5C1785.3,2052.9,1825.3,2025.7,1823,2023.8z"/>
		<path fill="#AF6A21" d="M1212.1,2025.2c-1.6-1.4-24.4,17.2-38.3,46.8c0,0-11.7,24.8-5.9,45.2c0.6,2,2,6.8,5.9,8.4
			c2.5,1,5.4,0.3,6.7-0.4c7.3-3.9,0.2-24.1,0.9-41.7C1182.8,2048.8,1214,2026.8,1212.1,2025.2z"/>
		<path fill="#AF6A21" d="M1290.3,2015.7c-1.9-1.8-28.2,21.9-44.3,59.6c0,0-13.5,31.6-6.8,57.5c0.7,2.5,2.3,8.7,6.8,10.7
			c2.9,1.3,6.2,0.4,7.7-0.5c8.4-5,0.3-30.6,1.1-53.1C1256.4,2045.8,1292.4,2017.7,1290.3,2015.7z"/>
		<path fill="#AF6A21" d="M1414.6,2027.8c1.9-1.7,28.8,20.9,45.3,57.1c0,0,13.8,30.2,6.9,55c-0.7,2.4-2.3,8.3-6.9,10.2
			c-3,1.2-6.3,0.4-7.9-0.5c-8.6-4.8-0.3-29.3-1.1-50.8C1449.2,2056.6,1412.4,2029.8,1414.6,2027.8z"/>
		<path fill="#AF6A21" d="M1531.5,1992.4c1.6-2.1,24.1,25.4,37.9,69.2c0,0,11.5,36.7,5.8,66.8c-0.6,2.9-1.9,10.1-5.8,12.4
			c-2.5,1.5-5.3,0.5-6.6-0.6c-7.2-5.8-0.2-35.6-0.9-61.6C1560.5,2027.2,1529.7,1994.7,1531.5,1992.4z"/>
		<path fill="#AF6A21" d="M1709.4,1989.5c-1.6-2.1-24.4,25.4-38.4,69.2c0,0-11.7,36.7-5.9,66.8c0.6,2.9,2,10.1,5.9,12.4
			c2.5,1.5,5.4,0.5,6.7-0.6c7.3-5.8,0.2-35.6,0.9-61.6C1680,2024.4,1711.2,1991.8,1709.4,1989.5z"/>
		<path fill="#AF6A21" d="M1946.4,2020.2c1.8-1.8,27.3,22,43,59.8c0,0,13.1,31.7,6.6,57.7c-0.6,2.5-2.2,8.7-6.6,10.7
			c-2.8,1.3-6,0.4-7.5-0.5c-8.1-5-0.3-30.8-1-53.3C1979.2,2050.3,1944.3,2022.2,1946.4,2020.2z"/>
		<path fill="#AF6A21" d="M2019.2,2020.1c1.8-1.5,27.3,18.9,43,51.6c0,0,13.1,27.4,6.6,49.8c-0.6,2.2-2.2,7.5-6.6,9.2
			c-2.8,1.1-6,0.3-7.5-0.5c-8.1-4.3-0.3-26.5-1-46C2052.1,2046.1,2017.1,2021.9,2019.2,2020.1z"/>
		<g>
			<path fill="#AF6A21" d="M1173.8,1025.4c-3.5,14-5.8,28.1-6.6,42.2c-0.4,7-0.5,14-0.2,20.9l0.1,2.6l0.2,2.6
				c0.1,1.7,0.2,3.4,0.4,5.1c0.3,3.4,0.8,6.7,1.3,10.1c1.1,6.7,2.7,13.4,4.4,20c0.9,3.3,1.8,6.6,2.9,9.8c1,3.3,2.2,6.5,3.3,9.7
				c4.6,12.8,10.4,25.2,16.8,37.2l2.5,4.5c0.8,1.5,1.7,3,2.6,4.4l5.3,8.7l1.3,2.2l1.4,2.1l2.8,4.2l2.8,4.2l1.4,2.1
				c0.5,0.7,1,1.3,1.5,2l6.1,8.1l1.5,2l1.6,1.9l3.2,3.9c4.2,5.2,8.8,10.1,13.3,15.1c9.3,9.7,19,18.9,29.3,27.5
				c10.3,8.6,21.1,16.6,32.3,24.2c11.2,7.6,22.7,14.7,34.9,21.9c3,1.8,5.7,3.4,8.7,5c1.4,0.8,2.9,1.6,4.4,2.4
				c1.5,0.8,2.9,1.6,4.4,2.4c5.9,3.2,12,6.1,18,9c24.4,11.5,49.7,21.3,75.6,29l4.8,1.5l4.9,1.3l4.9,1.3c1.6,0.5,3.2,0.9,4.9,1.3
				c6.5,1.6,13,3.3,19.6,4.6c3.3,0.7,6.6,1.5,9.9,2.1l9.9,1.9l2.5,0.5l2.5,0.4l5,0.8c3.3,0.5,6.6,1.1,10,1.5
				c13.3,1.9,26.6,3.1,40,3.9c13.4,0.8,26.8,1.1,40.3,0.8c13.5-0.2,27.1-0.9,41-1.9c13.5-0.9,27-2.3,40.4-4.1
				c26.9-3.6,53.5-9.1,79.6-16.2c3.3-0.9,6.5-1.8,9.8-2.8l4.9-1.4l4.9-1.5c3.2-1,6.5-2,9.7-3.1l4.8-1.6c1.6-0.5,3.2-1.1,4.9-1.7
				c6.7-2.3,13.3-4.6,19.8-6.9c6.4-2.4,12.9-4.7,19.1-7.2c3.2-1.2,6.2-2.6,9.3-3.8c3.1-1.3,6.1-2.7,9.2-4c6.1-2.8,12.1-5.6,17.9-8.7
				c11.8-6.1,23.3-12.8,34.4-20.1c22.2-14.8,43.3-31.9,62.3-51.1c9.5-9.6,18.6-19.7,26.9-30.3c2.1-2.6,4.1-5.3,6.1-8
				c1-1.3,2-2.7,2.9-4.1c1-1.4,1.9-2.7,2.9-4.2c4-5.9,7.8-11.6,11.3-17.3c7.1-11.5,13.2-23.4,18.1-35.9c4.9-12.6,8.4-25.8,10.9-39.3
				c4.8-27.1,4.5-55.7-0.4-84.2c12,26.3,18.7,55.6,19,85.7c0,3.7,0,7.5-0.2,11.3c-0.1,1.9-0.2,3.8-0.3,5.7l-0.5,5.6
				c-0.7,7.5-1.8,15.1-3.4,22.6c-3.1,15-8,29.7-14,43.7c-3,7-6.3,13.8-9.5,20.3c-0.8,1.6-1.6,3.4-2.5,5.1c-0.9,1.7-1.8,3.4-2.7,5.1
				c-1.8,3.4-3.7,6.7-5.7,10c-3.9,6.6-8,13-12.3,19.2c-2.1,3.2-4.4,6.2-6.6,9.3c-2.2,3.1-4.6,6-6.9,9.1c-9.4,12-19.5,23.3-30.2,34.1
				c-10.8,10.7-22.1,21-34.2,30.5c-12,9.6-24.7,18.4-37.8,26.5c-13.1,8.1-26.7,15.3-40.5,21.8c-6.9,3.3-13.8,6.3-20.6,9.3
				c-6.8,2.9-13.7,5.7-20.4,8.4c-1.6,0.7-3.4,1.4-5.2,2l-5.3,2.1c-3.5,1.4-7.1,2.7-10.6,4l-5.3,1.9l-5.4,1.8
				c-3.6,1.2-7.1,2.4-10.8,3.5c-28.8,9.2-58.3,16.1-88.2,20.8c-14.9,2.3-30,4-45.1,5.3c-14.7,1.1-29.7,2-44.9,2.2
				c-30.3,0.4-60.9-1.6-91.1-6.3c-15-2.5-30-5.3-44.8-9.1c-7.4-1.7-14.7-3.9-22-6c-3.7-1-7.3-2.2-10.9-3.4l-5.4-1.7l-5.4-1.9
				c-7.2-2.4-14.3-5.1-21.4-7.8l-10.5-4.3c-3.5-1.5-7-3-10.4-4.5c-13.9-6.1-27.4-12.9-40.7-20.2c-6.6-3.7-13.2-7.5-19.7-11.6
				c-1.6-1-3.2-2-4.9-3.1c-1.6-1-3.2-2.1-4.8-3.1c-3.2-2.1-6.5-4.3-9.5-6.5c-3-2.1-6-4.2-9-6.4l-4.5-3.3l-4.5-3.3l-4.5-3.4l-4.5-3.5
				l-4.5-3.5l-4.4-3.6c-11.8-9.6-23.1-19.9-33.8-30.8c-10.6-11-20.6-22.6-29.9-34.8c-4.5-6.2-9-12.4-13-18.9l-3.1-4.8l-1.5-2.4
				l-1.4-2.5l-5.7-10c-0.5-0.8-1-1.6-1.4-2.5l-1.3-2.6l-2.6-5.1l-2.5-5.1l-1.3-2.6l-1.1-2.6c-3-7-6.1-13.9-8.6-21.1
				c-5.2-14.2-9.3-28.8-12.1-43.7c-1.4-7.4-2.4-14.9-3.1-22.4c-0.7-7.5-0.9-15.1-0.8-22.6c0.1-3.8,0.3-7.6,0.6-11.4
				c0.2-1.9,0.4-3.8,0.6-5.6l0.4-2.8l0.4-2.8c1.2-7.4,2.8-14.6,4.7-21.7C1161.3,1051.7,1166.8,1038,1173.8,1025.4z"/>
		</g>
		<path fill="none" stroke="#AF6A21" stroke-width="66.937" stroke-miterlimit="10" d="M1375.2,1414.8
			c52.4,21.7,151.7,54.4,278,45.7c90-6.1,161.2-31.1,207.2-51.5"/>
		<path fill="#AF6A21" d="M1046.8,502c1.6-1.8,46.4,31.6,90.7,76.6c53.9,54.8,133.7,180.3,133.7,180.3l-33.4,58.3
			c0,0-32.6-127.6-127.3-239.5C1075.9,536.8,1045.3,503.6,1046.8,502z"/>
		<path fill="#AF6A21" d="M2183.5,502c-1.6-1.8-46.4,31.6-90.7,76.6c-53.9,54.8-133.7,180.3-133.7,180.3l33.4,58.3
			c0,0,32.6-127.6,127.3-239.5C2154.4,536.8,2185,503.6,2183.5,502z"/>
		<path fill="#AF6A21" d="M970,511.6c-7.8,1.8-0.3,74,13.7,135.1c20.4,89,53.7,149.6,76.5,190.4c6,10.7,27.8,39.6,71.4,97.3
			c5.7,7.5,57.5,42.4,57.5,42.4l9.1-2.9l7.2-40.8c3.6,4.7-80.8-75.5-144.4-170.1C990.4,657.6,980.5,509.2,970,511.6z"/>
		<path fill="#AF6A21" d="M2268.3,511.6c7.8,1.8,0.3,74-13.7,135.1c-20.4,89-53.7,149.6-76.5,190.4c-6,10.7-27.8,39.6-71.4,97.3
			c-5.7,7.5-57.5,42.4-57.5,42.4l-9.1-2.9l-7.2-40.8c-3.6,4.7,80.8-75.5,144.4-170.1C2247.9,657.6,2257.8,509.2,2268.3,511.6z"/>
		<path fill="#AF6A21" d="M1140.6,2028.8c0,0-33.6,24.9-72.2,32.6c-45.5,9.1-68.9,13.9-103.5,10.2c-38.2-4-65.7-15.7-74.1-19.5
			c-7.9-3.5-38.8-17.8-70.4-48.2c-20.6-19.9-32.5-37.9-42.1-52.6c-18.3-28.1-30.4-55.7-36.1-86.3c-2-10.7-2.9-16-0.9-17.3
			c13.3-8.5,72.8,140.8,187.7,176.7c99.9,31.2,220.4-12.5,220.4-12.5L1140.6,2028.8z"/>
		<path fill="#AF6A21" d="M775.1,1655.6c-15.1,37.3-22.7,56-24,78c-1.9,32.3,6.9,56.1,14,75.3c6.3,17,16.3,37.6,36,54
			c8.2,6.8,10,6.2,10.5,5.8c5.8-3.8-26.1-43-36.6-102.4c-2.3-12.9-7.1-39.9-2.7-74c2.6-20.1,8.6-43.6,6.7-44.1
			C778.2,1648.1,776.1,1653.4,775.1,1655.6z"/>
	</g>
</g>
</svg>
