<?xml version="1.0" encoding="utf-8"?>
<!-- Generator: Adobe Illustrator 21.0.0, SVG Export Plug-In . SVG Version: 6.00 Build 0)  -->
<svg version="1.1" id="图层_2" xmlns="http://www.w3.org/2000/svg" xmlns:xlink="http://www.w3.org/1999/xlink" x="0px" y="0px"
	 viewBox="0 0 3186.3 2724.3" enable-background="new 0 0 3186.3 2724.3" xml:space="preserve">
<g id="stripe_x5F_02_x5F_04">
	<path fill="#6F6052" d="M1614.1,947.4c0.3-0.2-119.5,17.4-162.3,104.9c-36,73.5-22.6,106.3-12.2,120.4
		c16.8,22.7,42.2,30.6,71.8,37.3c24.2,5.5,103.7-1.2,102.6-8.1C1613.3,1196.6,1614.1,947.4,1614.1,947.4z"/>
	<path fill="#6F6052" d="M1614.1,947.4c-0.3-0.2,119.5,17.4,162.3,104.9c36,73.5,22.6,106.3,12.2,120.4
		c-16.8,22.7-42.2,30.6-71.8,37.3c-24.2,5.5-103.7-1.2-102.6-8.1C1614.9,1196.6,1614.1,947.4,1614.1,947.4z"/>
	<path fill="#6F6052" d="M1200.9,1971.5c10-2.5,13.8,1.6,41.3,8.5c16.1,4,24.1,6.1,34.4,6.4c13,0.4,14.1-2,33.2-2.6
		c22.9-0.8,23.7,3.3,30.9-0.2c10.8-5.3,15.3-17.3,26.5-23.8c4.5-2.6,9.4-5,9.4-5s3.8-1.8,7.8-3.5c56.8-23.3,89.5-24.8,89.5-24.8
		c20.4-0.9,41.2-1.9,62.3,9.2c10.9,5.7,12.6,9.8,41,27.2c11.5,7.1,14.3,8.2,18.3,12.9c14,16,10.5,35.4,17.5,36.7
		c2.7,0.5,5.6-2.1,14.8-14.9c15.7-21.8,13.8-26.7,23.7-35.3c9.1-7.9,11.8-4.7,24.4-15.3c4.8-4,8.2-7.7,15-10.3
		c4.2-1.6,7.2-1.8,15.1-2.5c17.4-1.5,18.3-2,23.5-2.3c55.8-3.3,105.9-6.2,133.3,21.7c12.4,12.7,15.3,26.7,33.9,34.1
		c1.9,0.8,7.6,2.4,26.4,3.6c13.9,0.9,37.1,2.2,64.5-4.9c24.3-6.2,27.9-12.9,45.7-12.3c14.9,0.5,25.8,5.5,29.3,7.2
		c19.7,9.7,28.9,26.1,34.1,35.5c8.2,14.5,10.2,26.5,13.3,44.3c3.8,21.7,5.7,33.9-1.6,43.5c-4.2,5.6-11,9.6-18.2,13.9
		c-4.7,2.8-9.5,5.7-16.6,7.8c-10.9,3.3-13,0.4-18.6,3.9c-7.1,4.3-5.7,10-13.1,15.9c-6.1,4.9-13,5.8-16.6,6.3
		c-12.7,1.7-16.8-4.3-35.6-4.1c-4.4,0-7.6,0.4-8.3,0.4c-14.2,1.6-18.9,6.2-30.4,9.2c-10.5,2.7-19,2.1-27.1,1.5
		c-11.3-0.8-18.6-1.4-26-6.3c-5.2-3.5-5.6-6-10-7.1c-6.4-1.6-11,2.3-20.2,5.9c-7.4,2.9-12.9,3.7-22.5,5.1
		c-8.1,1.2-21.4,3.1-36.3-0.5c-16.2-3.9-16-9.8-27.6-10.5c-13.3-0.7-14.8,7-31.8,10c-3.4,0.6-22.8,4-41.4-5
		c-10.1-4.9-15.1-11.1-26.8-11.7c-1.2-0.1-1,0-13.1,0.8c-13.7,0.8-20.6,1.3-22.2,0.7c-1-0.3-7.3-4.2-20-12c-1.5-0.9-2.7-1.7-4.6-2.1
		c-6-1.3-10.3,2.6-16.5,5.7c-10,5-19.9,5.4-26.5,5.6c-9.7,0.3-10.4-1.8-16.6-0.4c-9.1,1.9-12.3,7.3-19.6,12.3
		c-16.3,11.1-36.6,8.5-39.6,8.1c-12.1-1.5-16.7-6.4-37.8-9.4c-4.8-0.7-7.1-0.8-9.2-0.8c-12.4,0.1-18.9,5-28.6,8.5
		c-2.5,0.9-16.8,5.9-33.7,3.6c-9.3-1.3-18.8-4.7-30.9-9c-8.2-3-8-3.3-10.9-3.9c-11.6-2.3-18.1,2.7-32.7,7.1
		c-17,5.1-31.3,9.3-41.9,2.7c-5.2-3.3-7.6-8-16.3-10.9c-5.1-1.7-9.7-2-12.1-2c-7.3,0-10.1,2.1-17.2,3.6c-5.6,1.2-13.5,2.8-21.4,0.2
		c-8.3-2.7-8.9-7.5-22.2-13.3c-3.3-1.4-5.8-2.3-7.4-2.8c-14.9-4.9-20.8-2.5-27.9-5.7c-6.9-3.2-9.9-9.4-14.7-19.6
		c-2.8-5.8-10-21.5-8.8-42.9c1.6-29.1,17.7-48.5,22.3-53.9c5.5-6.4,12.1-11.7,25.4-22.3C1188.9,1977.8,1195.2,1972.9,1200.9,1971.5z
		"/>
	<path fill="#6F6052" d="M1531.3,596.3c64.2,27.4,70.6,361.9-93.9,443c-62.2,30.6-138.7,20.1-161,17c-18.7-2.6-77.1-10.6-84.3-38.9
		c-1-3.8,0.8-14.1,4.3-34.6c4.1-23.5,6.2-30.8,8.9-46.2c4.7-26.9,2.8-30.6,6.1-50.9c4.3-26.5,11.7-45.9,17-59.4
		c18.7-48.2,44.5-80.2,60-99c12.3-14.9,29.2-35.3,56.5-56.6c8.5-6.6,29.1-18.7,70.3-43c35.9-21.1,45-25.9,59.3-29.5
		C1489.6,594.5,1517.3,590.3,1531.3,596.3z"/>
	<path fill="#6F6052" d="M1170.6,1940.3c-19.1-9.7-42,4-75.4,5.8c-20.9,1.1-36.7-3-54.7-7.6c-14.1-3.7-35-10.4-57.9-23.4
		c-11.4-6.5-27.7-15.8-44.4-32.3c-20.3-20-29.9-39.5-41.7-63.4c-14.7-29.9-21.8-54.4-27.6-74.9c-7.2-25.6-13-45.9-15.4-74.3
		c-3.9-45.4-5.8-68.1-5.7-72.7c0.3-8.4,1.1-22.6-3.9-24.4c-4.4-1.5-11.2,7.3-13.3,10c-27.1,35.3-12.9,94-25.5,97.3
		c-5.7,1.5-15.1-8.7-17.4-11.2c-6.4-7-6.7-11.9-9.2-12.1c-6.3-0.5-17.2,29-20.4,61.3c-2.7,26.6-7,70.2,18,106
		c13.9,19.9,36.6,36.9,31.6,45.5c-1.1,1.9-3.2,2.6-4.6,3.1c-10.8,3.7-19.7-9.9-44.6-21.2c-13.4-6.1-16.2-4.6-17-4.1
		c-7.9,5.3,0.8,31.4,4.7,42.7c9.2,26.7,25.1,73.2,71,115c30.6,27.8,60.9,41.3,73.7,46.8c7.6,3.3,17.7,7.6,31.8,11.4
		c28.8,7.7,51.3,6.8,82,5.3c23.7-1.1,43.3-2.1,69-9c4.6-1.2,27.3-7.5,52.5-21.7c9.4-5.3,14.3-8.9,18.5-12.8
		c12.1-11.2,8.7-18.2,21.5-32.9c6.6-7.6,12-13.8,21.5-18.6c7.5-3.8,12.7-4.2,13.3-7.7c0.8-4.1-5.3-8.7-15.8-16.3
		C1184,1949,1175.7,1942.9,1170.6,1940.3z"/>
	<path fill="#5A4C41" d="M1140.6,2028.8c0,0-33.6,24.9-72.2,32.6c-45.5,9.1-68.9,13.9-103.5,10.2c-38.2-4-65.7-15.7-74.1-19.5
		c-7.9-3.5-38.8-17.8-70.4-48.2c-20.6-19.9-32.5-37.9-42.1-52.6c-18.3-28.1-30.4-55.7-36.1-86.3c-2-10.7-2.9-16-0.9-17.3
		c13.3-8.5,72.8,140.8,187.7,176.7c99.9,31.2,220.4-12.5,220.4-12.5L1140.6,2028.8z"/>
	<path fill="#5A4C41" d="M775.1,1655.6c-15.1,37.3-22.7,56-24,78c-1.9,32.3,6.9,56.1,14,75.3c6.3,17,16.3,37.6,36,54
		c8.2,6.8,10,6.2,10.5,5.8c5.8-3.8-26.1-43-36.6-102.4c-2.3-12.9-7.1-39.9-2.7-74c2.6-20.1,8.6-43.6,6.7-44.1
		C778.2,1648.1,776.1,1653.4,775.1,1655.6z"/>
</g>
</svg>
