<?xml version="1.0" encoding="utf-8"?>
<!-- Generator: Adobe Illustrator 21.0.0, SVG Export Plug-In . SVG Version: 6.00 Build 0)  -->
<svg version="1.1" id="图层_2" xmlns="http://www.w3.org/2000/svg" xmlns:xlink="http://www.w3.org/1999/xlink" x="0px" y="0px"
	 viewBox="0 0 3186.3 2724.3" enable-background="new 0 0 3186.3 2724.3" xml:space="preserve">
<g id="stripe_x5F_03_x5F_05">
	<path fill="#DD963A" d="M1614.1,947.4c0.3-0.2-119.5,17.4-162.3,104.9c-36,73.5-22.6,106.3-12.2,120.4
		c16.8,22.7,42.2,30.6,71.8,37.3c24.2,5.5,103.7-1.2,102.6-8.1C1613.3,1196.6,1614.1,947.4,1614.1,947.4z"/>
	<path fill="#DD963A" d="M1614.1,947.4c-0.3-0.2,119.5,17.4,162.3,104.9c36,73.5,22.6,106.3,12.2,120.4
		c-16.8,22.7-42.2,30.6-71.8,37.3c-24.2,5.5-103.7-1.2-102.6-8.1C1614.9,1196.6,1614.1,947.4,1614.1,947.4z"/>
	<path fill="#DD963A" d="M1329.9,667.2c-86.3-0.6-97.3,0.7-97.3,0.7c-76.8,9.6-64.5,6.7-86.1,10.4c-17.7,3-49.9,8.6-88.8,20.1
		c-32,9.4-82.5,24.6-140.9,59.2c-56.8,33.7-92.5,68.8-101.3,77.7c-23.6,23.7-50,50.7-71.7,94.5c-21.8,44-27.3,82-28.8,93.9
		c-6.8,53.8,3.6,95.2,11.4,124.9c13.9,52.9,34.9,87.2,41.6,97.8c13.9,21.8,25.8,40.1,48.9,55.3c21.8,14.4,44.3,19.9,61.2,24.1
		c14.2,3.5,27.9,6.9,46.5,6.8c36.7-0.1,63.4-13.4,70.5-17.2c24.6-13,39.1-29.5,47-38.8c5.2-6.1,19.3-23.4,31.1-52.3
		c15.1-36.8,10.7-54.1,19.5-100.7c6-31.8,13.7-53.4,25.2-86c12.8-36.4,26-73.6,52.8-116.2c18.7-29.7,19.7-23.3,39.4-55.3
		c12-19.5,15.3-27.4,49.8-91.2c12.9-23.9,17-30.8,24-40c10.6-13.9,21.6-28.4,39.9-43.4c11.6-9.5,21.9-15.9,20.4-20.4
		C1342.8,667.3,1333.7,667.2,1329.9,667.2z"/>
	<path fill="#DD963A" d="M1010.4,1861.3c21.7-1.4,43.4-0.5,65.1,0.9c0,0,0.1,0,0.1,0c24.1,0.7,48.1,2.5,72.1,2.9
		c0-6.3,0.7-13,2.5-20c3.7-14.6,9.2-18.6,8.8-32.4c-0.3-9.5-3.1-17-6.5-25.8c-4.9-12.9-7.8-20.7-14.3-27.5
		c-16.2-17.1-42.4-15.5-50.8-15c-7.1,0.4-24.7,2.4-41.9,14.8c-14.7,10.6-21.8,23.4-25.3,30c-13.7,25.5-12.9,50.9-11,71.9
		C1009.7,1861.3,1010.1,1861.3,1010.4,1861.3z"/>
	<path fill="#DD963A" d="M1353.4,1463.3c15.7-7.5,39.9,5.3,52.4,21c11.5,14.4,12.4,30.3,12.7,36c0.2,4.5,1.3,30.8-16,45.3
		c-7.1,5.9-15.5,8.5-29.3,12.7c-12.5,3.8-14.2,2.5-22,6c-9.5,4.3-15.1,9.9-24.7,19.3c-5.2,5.2-12.9,12.9-20.7,24.7
		c-10,15.2-12,24.9-15.1,24.4c-3.7-0.5-5.1-15-4.9-27.1c0.2-12.7,2.3-35.2,21.3-76c12-25.9,13.2-21,24.7-46.7
		C1343.7,1476.4,1344.1,1467.8,1353.4,1463.3z"/>
	<path fill="#DD963A" d="M1316.7,1728.6c0,0,28.8-12.8,41.8-7c13.5,6,17.9,18.7,25.3,40c4.8,13.9,11.3,32.3,2.7,40.7
		c-4.1,4-10.8,5-16,4c-13.2-2.6-14.3-18.4-26.7-20.7c-8.5-1.5-17.7,3.6-17.7,3.6L1316.7,1728.6z"/>
	<path fill="#DD963A" d="M1369.1,1919.6c2.6-8.5,21.9-13,36.7-7.3c14.9,5.7,20.2,19.9,20.7,21.3c6.6,18.8-6,35.2-6.7,36
		c-8.9,11.2-16.1,6.2-34.7,20c-7,5.2-6.1,6-26,23.3c-12.7,11-17.2,14.3-22.7,13.3c-6.6-1.2-12.5-8.3-12.2-14.4
		c0.3-4.8,4.3-7.5,8.8-11.6c14-12.5,10.2-17.2,23.3-30.7c14.8-15.1,23.9-13.5,25.3-22C1383.8,1935.7,1366.4,1928.6,1369.1,1919.6z"
		/>
	<path fill="#DD963A" d="M1872,1467.4c-11.4-1.5-36.5-4.7-51.8,10.9c-17,17.4-15.3,51.1-2,61c8.1,6,17.8,1.2,34,11
		c6.4,3.9,5,4.7,12,9c7,4.3,23.3,5.7,30,14c4.3,5.3,0.3,7.9,4.3,14.8c7,12.2,21.6,7.2,29.6,17c10.9,13.4-5.8,35.4,4.1,44.3
		c5.9,5.2,18.8,3.8,24-2.5c5.9-7.3-0.3-19.6-15.3-55.2c-13.2-31.3-19.8-46.9-22.7-55.2c-12.6-36.8-12.9-56.2-30-65
		C1883.3,1468.8,1879.3,1468.3,1872,1467.4z"/>
	<path fill="#DD963A" d="M1918.7,1694.9c-8.5-11.7-37.9-10.4-56.5,3.4c-26.8,19.9-29.8,64.8-14.5,78c8.2,7.1,17.2,1,29,10
		c15.3,11.6,14.1,32.2,19,32c2.2-0.1,4.6-4.2,11-39c3.8-20.6,3.6-22.5,6.5-39C1919.3,1705.3,1922.7,1700.5,1918.7,1694.9z"/>
	<path fill="#DD963A" d="M1857,1928.6c-1.9-10.4-40.7-21.9-68.5-6.3c-27.2,15.3-40,54.3-28.7,68c10.7,13,34.8-7,68,8
		c18.5,8.4,17.9,17.7,42,28.7c16.3,7.5,42.1,14.8,47.6,6.8c3.1-4.6-1.7-12.9-11.5-29.5c-12.7-21.6-19-32.4-30.8-42.6
		c-10.2-8.8-21-14.6-20.7-24C1854.7,1932.9,1857.5,1931.6,1857,1928.6z"/>
	<path fill="#DD963A" d="M1161.8,2001c-0.2,7.6,5.9,16.5,14,19.3c13.8,4.8,21.5-12.2,43.3-15.3c26.5-3.8,41.5,17.5,52,9.3
		c8.1-6.3,7.3-25.4-0.7-31.3c-4.6-3.4-8.1,0.1-18.6-0.5c-20.3-1.2-26-15.4-43.4-13.8c-4,0.4-7.1,1.6-13.3,4.2
		C1185.5,1976.8,1162.2,1986.4,1161.8,2001z"/>
	<path fill="#DD963A" d="M1962.1,1994.8c-1.5,6.1,7.9,14.8,17,18.5c10.3,4.1,15.5-0.1,38-2.5c18.8-2,21.5,0.2,42-2.5
		c14.4-1.9,27.5-3.7,28.1-8c0.5-4-10.3-5.4-30.6-18c-13.4-8.3-16.6-12.5-24.5-12.7c-8.1-0.2-11.7,4-21.5,9.2
		C1984.2,1992.9,1964.2,1986.6,1962.1,1994.8z"/>
	<path fill="#DD963A" d="M1589.4,1971.3c-6.7-0.3-13.3,6.9-15.8,13.5c-1.1,3-2.3,8.6,13,39c9.3,18.4,12.8,22.6,18.5,25
		c5.3,2.3,14.5,3.8,18.5-0.6c2.2-2.4,3.7-7.3-9.7-38.4C1597.9,1972.7,1592,1971.4,1589.4,1971.3z"/>
	<path fill="#DD963A" d="M1439.2,616.9c5.2,0.1,27.8,0.5,33.9,13.4c2.6,5.5,1.3,11.3,0,17c-0.5,2.4-6,24.6-21,29
		c-12.1,3.5-16.4-8.5-33-8c-8.3,0.3-17.3,5.9-35,17c-19.1,12-19.2,14.6-30,20c-14.4,7.3-38.2,14.8-42.3,8.8
		c-6.9-10.3,46.7-55.5,50.3-58.4C1407.7,617.6,1431.8,616.8,1439.2,616.9z"/>
	<path fill="#DD963A" d="M1894.1,669.5c-1.6,5.3,9.6,10.6,23.6,23.8c22.2,20.8,31.6,42.8,46,76.6c17.9,41.9,15.4,57.2,35.4,80.4
		c3.9,4.6,8,8.6,17.4,19.6c1.4,1.7,18.5,21.9,31.4,40.3c19.3,27.4,31.2,53.4,40.4,73.8c6.3,13.9,21.4,48.8,34.6,96.8
		c6.2,22.5,10.9,44.7,20.2,89c7.3,34.4,9.3,46.7,17.2,67.2c9,23.4,16.6,42.5,35.4,58.7c14.1,12.1,28.7,17.8,45,24.1
		c11.7,4.5,26.1,10.1,45.5,11.9c23.8,2.2,41.7-2.4,58.2-6.7c15.7-4.1,39.2-10.4,64.6-27.8c24.2-16.6,38-35,46.1-46
		c18.7-25.3,26.4-46.9,37.9-79c12.6-35.1,21.3-59.4,22.7-94c1.2-29.3-3.3-54.3-6-69c-2.2-12.3-5.1-28-11.8-47.5
		c-3.2-9.3-15.6-43.9-44.9-82.2c-14.9-19.5-27.7-31.5-46.3-49c-15.2-14.3-37-34.8-68.2-55.8c-39.8-26.7-73.8-40-111.3-54.8
		c-37.4-14.7-67.2-23-80.3-26.5c-8.1-2.2-46.3-12.2-98.4-19.4c-22.5-3.1-40.4-4.3-76.1-6.9C1905.1,662.6,1895.5,665.1,1894.1,669.5z
		"/>
	<path fill="#DD963A" d="M1508.5,1834.3c0,0,0.4-50.5,0.5-85.2c0.1-46-0.8-42.8-0.1-48.8c5.1-47.3,45.9-115.9,103-117.3
		c60.7-1.5,106.2,73.6,109.1,124.7c0.5,9.7-1.1,9-2,41c-0.3,9.9-1.1,40.9,0.6,90.3c1.4,42.6,3.6,68.9-9.4,80.7
		c-2.2,2-16.9,14.4-16.9,14.4l0,0c-14.1,8.6-20.5,5.3-31.5,13c-3.1,2.2-5.8,4.7-19.1,24.5c-11.7,17.5-15.1,16.9-18.4,28.5
		c-1.8,6.4-1.7,11.1-3.6,11.4c-2.8,0.4-4.9-10.5-12-23.2c-8.1-14.5-18.1-23.3-22-26.7c-13.2-11.4-28-17.6-32-19.3
		c-10.9-4.4-19.4-5.9-26.9-14.5c-2.9-3.3-4.8-6.8-6.3-10.3C1508.1,1887,1508.5,1834.3,1508.5,1834.3z"/>
	<path fill="#DD963A" d="M3716.7,1638.6"/>
	<path fill="#DD963A" d="M1579.8,590.3c2.9,7.3-2,10.4,0,17.3c3.9,13.4,27.7,20.8,47.3,20.7c25.6-0.2,27.9-13.1,59.3-17.3
		c25.3-3.4,41.9,2.5,44-3.3c1.7-4.7-7.4-13.8-16.8-18c-13.4-5.9-19.3,1.6-30.5-4.5c-7.5-4-5.9-8-20.1-19.3
		c-9.8-7.9-13.4-8.2-15.5-7.3c-4.6,2-3.5,10.2-7.1,11c-3.2,0.7-5.6-5.5-12-11.3c-9.4-8.5-23.2-12.4-25.9-9.1
		c-2.3,2.8,3.3,10.8,3.9,11.7c5.9,8.5,14.3,11.3,14,12c-0.5,1.2-29-5.9-48.5-12.6c-1.7-0.6-6-2.1-10.1-0.3c-3.2,1.4-7,5-6.9,8.8
		C1555.2,577.4,1574.7,577.3,1579.8,590.3z"/>
	<path fill="#DD963A" d="M1167.4,1049.3c14.8-11.8,35.4-7.5,42.8-6c26,5.4,40.7,24.3,45,30c2.1,2.8,14.5,19.7,16,44
		c0.6,9.6,1.2,20.6-6,27c-7.8,6.9-20.2,4.2-26,3c-15.6-3.3-15.6-10.6-29-15c-24.3-8-54.5,6.1-54.5,6.1l0,0c0,0-10.5-16.6-11.5-33.1
		c-0.7-10.7,2.8-18.8,8-31C1157.5,1061.7,1160.4,1054.8,1167.4,1049.3z"/>
	<path fill="#DD963A" d="M2069.8,1062.4c-6.2-2.9-14.8-0.8-19.7,3.9c-8,7.6-0.8,17.5-6,34c-6.8,21.6-28.1,33-30,34
		c-13.8,7.2-20.8,3.4-25,10c-6.7,10.6,4,31.7,18,43c3.2,2.5,17.8,14.4,37,11c21.8-3.9,31.8-24.5,34-29c2.6-5.3,4.9-12.2,3.3-49.1
		C2079.4,1070.6,2074.6,1064.7,2069.8,1062.4z"/>
</g>
</svg>
