<?xml version="1.0" encoding="utf-8"?>
<!-- Generator: Adobe Illustrator 21.0.0, SVG Export Plug-In . SVG Version: 6.00 Build 0)  -->
<svg version="1.1" id="图层_2" xmlns="http://www.w3.org/2000/svg" xmlns:xlink="http://www.w3.org/1999/xlink" x="0px" y="0px"
	 viewBox="0 0 3186.3 2724.3" enable-background="new 0 0 3186.3 2724.3" xml:space="preserve">
<g id="stripe_x5F_03_x5F_04">
	<path fill="#53291D" d="M1614.1,947.4c0.3-0.2-119.5,17.4-162.3,104.9c-36,73.5-22.6,106.3-12.2,120.4
		c16.8,22.7,42.2,30.6,71.8,37.3c24.2,5.5,103.7-1.2,102.6-8.1C1613.3,1196.6,1614.1,947.4,1614.1,947.4z"/>
	<path fill="#53291D" d="M1614.1,947.4c-0.3-0.2,119.5,17.4,162.3,104.9c36,73.5,22.6,106.3,12.2,120.4
		c-16.8,22.7-42.2,30.6-71.8,37.3c-24.2,5.5-103.7-1.2-102.6-8.1C1614.9,1196.6,1614.1,947.4,1614.1,947.4z"/>
	<path fill="#53291D" d="M1353.4,1463.3c15.7-7.5,39.9,5.3,52.4,21c11.5,14.4,12.4,30.3,12.7,36c0.2,4.5,1.3,30.8-16,45.3
		c-7.1,5.9-15.5,8.5-29.3,12.7c-12.5,3.8-14.2,2.5-22,6c-9.5,4.3-15.1,9.9-24.7,19.3c-5.2,5.2-12.9,12.9-20.7,24.7
		c-10,15.2-12,24.9-15.1,24.4c-3.7-0.5-5.1-15-4.9-27.1c0.2-12.7,2.3-35.2,21.3-76c12-25.9,13.2-21,24.7-46.7
		C1343.7,1476.4,1344.1,1467.8,1353.4,1463.3z"/>
	<path fill="#53291D" d="M1316.7,1728.6c0,0,28.8-12.8,41.8-7c13.5,6,17.9,18.7,25.3,40c4.8,13.9,11.3,32.3,2.7,40.7
		c-4.1,4-10.8,5-16,4c-13.2-2.6-14.3-18.4-26.7-20.7c-8.5-1.5-17.7,3.6-17.7,3.6L1316.7,1728.6z"/>
	<path fill="#53291D" d="M1369.1,1919.6c2.6-8.5,21.9-13,36.7-7.3c14.9,5.7,20.2,19.9,20.7,21.3c6.6,18.8-6,35.2-6.7,36
		c-8.9,11.2-16.1,6.2-34.7,20c-7,5.2-6.1,6-26,23.3c-12.7,11-17.2,14.3-22.7,13.3c-6.6-1.2-12.5-8.3-12.2-14.4
		c0.3-4.8,4.3-7.5,8.8-11.6c14-12.5,10.2-17.2,23.3-30.7c14.8-15.1,23.9-13.5,25.3-22C1383.8,1935.7,1366.4,1928.6,1369.1,1919.6z"
		/>
	<path fill="#53291D" d="M1865.2,1470.2c-11.4-1.5-36.5-4.7-51.8,10.9c-17,17.4-15.3,51.1-2,61c8.1,6,17.8,1.2,34,11
		c6.4,3.9,5,4.7,12,9c7,4.3,23.3,5.7,30,14c4.3,5.3,0.3,7.9,4.3,14.8c7,12.2,21.6,7.2,29.6,17c10.9,13.4-5.8,35.4,4.1,44.3
		c5.7,5.1,18.2,3.7,24-2.5c9.2-9.9,0.8-31.1-10-57.3c-12.7-31.1-16.4-27.5-26.8-53.3c-14.1-34.9-13.1-55.6-31.2-64.9
		C1876.5,1471.7,1872.5,1471.2,1865.2,1470.2z"/>
	<path fill="#53291D" d="M1918.7,1694.9c-8.5-11.7-37.9-10.4-56.5,3.4c-26.8,19.9-29.8,64.8-14.5,78c8.2,7.1,17.2,1,29,10
		c15.3,11.6,14.1,32.2,19,32c2.2-0.1,4.6-4.2,11-39c3.8-20.6,3.6-22.5,6.5-39C1919.3,1705.3,1922.7,1700.5,1918.7,1694.9z"/>
	<path fill="#53291D" d="M1857,1928.6c-1.9-10.4-40.7-21.9-68.5-6.3c-27.2,15.3-40,54.3-28.7,68c10.7,13,34.8-7,68,8
		c18.5,8.4,17.9,17.7,42,28.7c16.3,7.5,42.1,14.8,47.6,6.8c3.1-4.6-1.7-12.9-11.5-29.5c-12.7-21.6-19-32.4-30.8-42.6
		c-10.2-8.8-21-14.6-20.7-24C1854.7,1932.9,1857.5,1931.6,1857,1928.6z"/>
	<path fill="#53291D" d="M1161.8,2001c-0.2,7.6,5.9,16.5,14,19.3c13.8,4.8,21.5-12.2,43.3-15.3c26.5-3.8,41.5,17.5,52,9.3
		c8.1-6.3,7.3-25.4-0.7-31.3c-4.6-3.4-8.1,0.1-18.6-0.5c-20.3-1.2-26-15.4-43.4-13.8c-4,0.4-7.1,1.6-13.3,4.2
		C1185.5,1976.8,1162.2,1986.4,1161.8,2001z"/>
	<path fill="#53291D" d="M1962.1,1994.8c-1.5,6.1,7.9,14.8,17,18.5c10.3,4.1,15.5-0.1,38-2.5c18.8-2,21.5,0.2,42-2.5
		c14.4-1.9,27.5-3.7,28.1-8c0.5-4-10.3-5.4-30.6-18c-13.4-8.3-16.6-12.5-24.5-12.7c-8.1-0.2-11.7,4-21.5,9.2
		C1984.2,1992.9,1964.2,1986.6,1962.1,1994.8z"/>
	<path fill="#53291D" d="M1589.4,1971.3c-6.7-0.3-13.3,6.9-15.8,13.5c-1.1,3-2.3,8.6,13,39c9.3,18.4,12.8,22.6,18.5,25
		c5.3,2.3,14.5,3.8,18.5-0.6c2.2-2.4,3.7-7.3-9.7-38.4C1597.9,1972.7,1592,1971.4,1589.4,1971.3z"/>
	<path fill="#53291D" d="M1439.2,616.9c5.2,0.1,27.8,0.5,33.9,13.4c2.6,5.5,1.3,11.3,0,17c-0.5,2.4-6,24.6-21,29
		c-12.1,3.5-16.4-8.5-33-8c-8.3,0.3-17.3,5.9-35,17c-19.1,12-19.2,14.6-30,20c-14.4,7.3-38.2,14.8-42.3,8.8
		c-6.9-10.3,46.7-55.5,50.3-58.4C1407.7,617.6,1431.8,616.8,1439.2,616.9z"/>
	<path fill="#53291D" d="M1508.5,1834.3c0,0,0.4-50.5,0.5-85.2c0.1-46-0.8-42.8-0.1-48.8c5.1-47.3,45.9-115.9,103-117.3
		c60.7-1.5,106.2,73.6,109.1,124.7c0.5,9.7-1.1,9-2,41c-0.3,9.9-1.1,40.9,0.6,90.3c1.4,42.6,3.6,68.9-9.4,80.7
		c-2.2,2-16.9,14.4-16.9,14.4l0,0c-14.1,8.6-20.5,5.3-31.5,13c-3.1,2.2-5.8,4.7-19.1,24.5c-11.7,17.5-15.1,16.9-18.4,28.5
		c-1.8,6.4-1.7,11.1-3.6,11.4c-2.8,0.4-4.9-10.5-12-23.2c-8.1-14.5-18.1-23.3-22-26.7c-13.2-11.4-28-17.6-32-19.3
		c-10.9-4.4-19.4-5.9-26.9-14.5c-2.9-3.3-4.8-6.8-6.3-10.3C1508.1,1887,1508.5,1834.3,1508.5,1834.3z"/>
	<path fill="#53291D" d="M1167.4,1049.3c11.8-12.8,36.2-7.4,42.8-6c26,5.4,40.7,24.3,45,30c2.1,2.8,14.5,19.7,16,44
		c0.6,9.6,1.2,20.6-6,27c-7.8,6.9-20.2,4.2-26,3c-15.6-3.3-15.6-10.6-29-15c-24.3-8-54.5,6.1-54.5,6.1c0,0,0,0,0,0
		c-5.6-8.8-5.2-19-3.2-32.8c0.8-5.4,2.1-13,6-28.7C1162.6,1060.5,1164.7,1052.2,1167.4,1049.3z"/>
	<path fill="#53291D" d="M2058.5,1065.6c-2.6-1-5.9-0.8-8.3,0.7c-7.6,4.5-0.9,18-6,34c-6.8,21.6-28.1,33-30,34
		c-13.8,7.2-20.8,3.4-25,10c-6.7,10.6,4,31.7,18,43c4.2,3.4,19,15.5,37,11c18.4-4.6,25.8-23,27-26c4.8-12,1.2-17.4-2-47.3
		C2065.3,1088.3,2068,1069.3,2058.5,1065.6z"/>
	<path fill="#53291D" d="M1304,706.1c-1.6-7.9-8.7-10.2-19.6-18.1c-25.8-18.8-20.3-31.4-46.3-51.5c-10.7-8.2-21.8-16.6-37-17
		c-14.8-0.4-25.1,7-37.4,15.1c0,0-31.3,20.5-88.5,49.9c-34.6,17.7-42.3,17.3-54.3,31.1c-15.1,17.3-19.2,36.8-22.3,52.2
		c-7.5,37.4,4.3,47.2-2.1,91.5c-1.8,12.8-4.2,28.5-12.3,46.9c-12.5,28.6-27,37.3-46.3,62.2c-21.7,28.1-31.5,53.6-42.2,81.7
		c-17,44.7-21.7,80.8-24.3,102.5c-2.4,19.9-5.3,53.7,2.5,90.7c2.7,12.7,6.7,26,17.4,37.8c11.1,12.2,24,17,29.8,19.1
		c20.3,7.3,37.8,4.4,53.1,1.9c26.8-4.4,45.5-14.8,54.8-20.1c21.3-12.1,35.5-26,43.3-34.4c3.4-3.7,16.5-18.3,28.5-41.5
		c12.2-23.7,16.4-43.2,22.3-71.8c4-19.2,7.6-41.6,10-70c0.7-8.6,2.5-31.1,2-99c-0.5-62.7-2.2-71.1,0-104c1.7-26.5,3-44.7,9-69
		c9.9-40.5,17.6-36.2,22-67c1.4-9.9,2.7-25.1,14-37c2.6-2.7,8.9-9.2,17-9c7.6,0.2,12.3,6.2,18.7,12.8c0,0,24.1,24.6,57.1,38.3
		c3.2,1.3,18.2,7.4,18.2,7.4l0,0C1291.3,737.6,1306.6,719.4,1304,706.1z"/>
	<path fill="#53291D" d="M1925.4,703.3c1.8-11,14.9-11,35.6-25.8c25.7-18.3,22.5-30.1,49.6-48.3c11.2-7.5,22.8-15.1,38-14.5
		c14.8,0.6,24.6,8.6,36.3,17.5c0,0,29.9,22.5,85,55.6c33.3,20,41.1,20,52.2,34.6c14.2,18.7,17.5,39.8,18.9,53.6
		c4.4,46.1-4.6,54.4,0.1,95.3c1.6,14,3.2,28.4,10,46c11,28.6,21.6,29.7,43.6,64c6.6,10.3,25.9,41.9,37.5,85
		c3.4,12.5,5.3,22.9,7.3,33.9c5.5,30.5,7.4,55,8.1,68c2.7,47.4,4,71.1-7.4,94c-9.6,19.4-23.1,30.7-25.8,32.9c-6,5-16.2,13.2-31,17.1
		c-17.9,4.7-32.5,0.3-53.2-6c-7.2-2.2-27.6-8.8-51-24c-11-7.2-24.6-16-38-32c-12.7-15.1-18.5-28.7-25-44c-12-28-16.1-51.5-19-69
		c-0.9-5.6-4.2-26-5-53c-0.3-10.7-0.1-18.8,0-24c1.5-59.7,3-65.5,3.2-93.2c0.2-45.8-4-57.7,2.9-86.2c2.1-8.6,3.5-11.6,4.9-20.6
		c1.2-7.9,5.3-35.6-4-67c-3.1-10.4-5.6-14.3-7-25c-1.4-11,0.1-15.1-2-25c-1.7-7.7-3.2-7.9-9-22c-9-21.8-8-27.6-16-36.6
		c-3.8-4.2-8.8-9.8-16.4-10.1c-7.6-0.3-12.7,5.4-19.5,11.5c0,0-25.7,23-59.5,34.5c-3.2,1.1-18.7,6.2-18.7,6.2c-2,1.6-4.4,2.8-7,2.8
		C1934.1,729.8,1923.6,714.3,1925.4,703.3z"/>
	<path fill="#53291D" d="M939.1,1578.8c-13,6.6-15.7,24.7-17.5,36.5c-1.7,11.5-4.7,31.2,6.5,44c12.8,14.7,27.3,0.8,61,16.5
		c5.5,2.5,16.5,8.3,31,7.5c4.7-0.3,9.8-0.6,14-4c11.2-9,5.8-30.5,5.4-32c-3.1-12-10.8-19.6-26.1-34.3c-9.9-9.5-16.3-15.6-26.7-21.8
		C972.4,1582.7,953.6,1571.5,939.1,1578.8z"/>
	<path fill="#53291D" d="M1064.6,1787.8c-4.5-1.4-11,7.6-13.5,12c-7.6,13.3-4.3,29.8,3.5,39.5c3.2,4.1,9.3,9.6,12.5,8
		c2.7-1.4,2.1-7.5,1.6-13.6C1066.1,1800.7,1069.4,1789.3,1064.6,1787.8z"/>
	<path fill="#53291D" d="M1505,590.5c0,0,15.5-1.6,36.9-9.8c18.4-7,29.5-20.1,37.8-29.9c5.9-6.9,19-24.1,25.4-49.5
		c4.4-17.6,3.8-32.5,3.5-38.5c-0.4-9.4-1.5-10.4-4.2-36.8c-3-28.5-1.3-22.5-2-25.6c-0.4-1.8-1-3.8-0.2-4.3
		c2.3-1.6,13.9,10.3,21.6,20.9c9.3,12.9,13.5,24.6,16.9,34.6c3.3,9.5,8.1,23.8,8.7,43.2c0.2,6.9,0.5,17.7-2.7,31.1
		c-5,21-12.7,38.7-12.7,38.7c-3.2,7.4-6.4,13.5-3.9,16.3c2.6,3,9.9,0.6,12.1-0.2c8.5-2.8,13.7-8.3,22.5-18.4
		c10.6-12.3,16-18.5,19.6-23.7c11.1-15.7,14.9-25.9,18.3-25c2.2,0.6,2.7,5.7,3,9.8c1.1,12.9-3.2,23.1-4.3,25.7
		c-7.6,17.3-17.7,18.1-17.6,29c0.1,5.8,3,11.2,0,14c-1.9,1.8-5,1.3-6,1.2c-20.8-3-42-0.6-62.8-3.4c-9.6-1.3-34.3-4.3-63.8-0.5
		c-25.7,3.3-37.8,5.7-37.8,5.7c-15.3,2.9-28.1,6.2-29,3.8c-0.4-1.1,2.2-3.1,3.9-4.4C1495,589.6,1502.8,590.3,1505,590.5z"/>
	<path fill="#3E1C17" d="M1133.1,829.3c1.8,0.1,1.9,11.4,2.8,146c0.2,36,0.3,70-4.6,114.9c-3.6,32.6-7.7,51-12.4,67.2
		c-6.7,22.6-13.5,45.8-31.8,71.5c-23,32.3-50,48.6-58,53.1c-10.8,6.2-25,12.8-42.4,17.3c-15.9,4.1-32.3,8.4-52.8,4.2
		c-7.7-1.6-25-5.1-39.6-19.2c-14.1-13.8-18-30.1-21.9-47.7c-3.5-15.6-5-32.4-3-61c3.4-48.9,13.9-85.7,16.5-94.7
		c5.5-18.6,15.2-50.9,37-88.4c26.1-44.8,59.6-80.6,63.3-78c4.6,3.2-43.7,62.9-70.2,160.3c-5.7,20.9-10.6,44.2-9.8,73.1
		c0.7,26.8,2.1,81.3,30.6,96.5c33.8,18.1,94.4-24.9,124.9-63.7c0,0,44.7-56.8,52.5-167.2c0.5-6.9,0.8-13.6,0.8-13.6
		c0.6-15.7-0.1-23.6,2.2-55.4C1120.8,893.2,1128.8,829,1133.1,829.3z"/>
	<path fill="#3E1C17" d="M2103.1,822.6c-1.8,0-2.5,11.3-10.6,145.6c-2.2,35.9-4.1,69.9-1.5,115c1.9,32.8,4.9,51.4,8.8,67.7
		c5.5,23,11,46.5,27.9,73.1c21.2,33.5,47.3,51.2,55,56.2c10.4,6.7,24.3,14.1,41.4,19.5c15.7,5,31.8,10.1,52.5,7
		c7.8-1.2,25.3-3.7,40.6-17.1c14.8-13,19.6-29.1,24.5-46.5c4.3-15.3,6.7-32.1,6.3-60.8c-0.8-49.1-9.2-86.3-11.4-95.4
		c-4.5-18.9-12.4-51.6-32.2-90.3c-23.6-46.2-55.2-83.7-59-81.3c-4.8,3,40.3,65.2,61.5,163.8c4.5,21.2,8.2,44.8,5.9,73.5
		c-2.1,26.7-6.4,81-35.8,94.8c-34.8,16.2-92.9-30-121.3-70.3c0,0-41.6-59.1-43.4-169.8c-0.1-6.9-0.1-13.6-0.1-13.6
		c0.2-15.7,1.4-23.5,0.8-55.4C2111.9,887.1,2107.4,822.6,2103.1,822.6z"/>
</g>
</svg>
