<?xml version="1.0" encoding="utf-8"?>
<!-- Generator: Adobe Illustrator 21.0.0, SVG Export Plug-In . SVG Version: 6.00 Build 0)  -->
<svg version="1.1" id="图层_2" xmlns="http://www.w3.org/2000/svg" xmlns:xlink="http://www.w3.org/1999/xlink" x="0px" y="0px"
	 viewBox="0 0 3186.3 2724.3" enable-background="new 0 0 3186.3 2724.3" xml:space="preserve">
<g id="mouth">
	<g id="图层_9">
		<path fill="#AF1E24" d="M1532.7,1217l10.4,19.5c0,0,10.9,31.8,13.3,36.3c2.4,4.4,21,26.9,24.6,29.2c3.6,2.3,17.6,8.1,18.2,8.2
			s18.8,0.9,18.8,0.9l15.9-2.5l20.8-11.2l15.8-23.6l13.8-34.1l10.3-16.7l-18.2-3.7l-41.1-5.6l-21.6-4.4l-9.3,2.4l-73.9,7.5l1.1,2.8"
			/>
	</g>
	<g id="图层_11">
		<path fill="#7B1C1D" d="M1533.4,1219.9c-1.9,4.2,7.2,10.4,14,13.5c17.2,8,30.7,1.9,66.1,1.5c39.9-0.4,55,7.1,69.5-1.8
			c8.1-4.9,13.2-13.1,9.9-16.5c-3.7-3.8-14.1,2.2-33.9,0.3c-17.2-1.7-22.6-7.5-41.1-7.1c-5.4,0.1-8.9,0.7-13.7,1.4
			C1560.9,1217.6,1536.3,1213.6,1533.4,1219.9z"/>
	</g>
	<path fill="#22170E" d="M1605.9,964.8l-51.1,17.2l-34,30.8l-1.5,31.6l12.3,26.6l29.4,28.1c0,0,30.2,16.4,41.4,16.4
		s51.6-3.2,70-20.7s32.9-37.4,35.1-49c2.2-11.6,1.7-27.1,0-30.6c-1.7-3.5-28.2-29.5-35.1-33.2c-6.9-3.7-39.8-17.9-44.9-17.2
		C1622.6,965.5,1605.9,964.8,1605.9,964.8z"/>
	<polygon fill="#181111" points="1481.8,1214.4 1491.8,1225.6 1532.5,1236 1539.7,1238.7 1539.7,1232.1 1531.1,1220.4 
		1487.3,1216.8 	"/>
	<polygon fill="#181111" points="1745.7,1214.4 1735.7,1225.6 1695,1236 1687.8,1238.7 1687.8,1232.1 1696.4,1220.4 1740.2,1216.8 	
		"/>
	<path fill="none" stroke="#000000" stroke-width="6.6937" d="M1468.2,1209.1c0,0,13.6,19.2,75,30.5"/>
	<g>
		<path fill="#050101" d="M1375.2,1098c0.3,2,0.2,4-0.2,6c-0.3,2-0.8,3.9-1.6,5.8c-1.4,3.8-3.6,7.4-6.1,10.6
			c-5.2,6.4-12.4,11.1-20,14c-3.8,1.4-7.7,2.5-11.6,3.1c-3.9,0.7-7.9,0.8-11.8,0.7c-1,0-1.9-0.1-2.9-0.2c-1-0.1-1.9-0.1-2.9-0.3
			c-1.9-0.3-3.8-0.6-5.7-1c-1.9-0.5-3.8-0.9-5.6-1.5c-1.8-0.6-3.7-1.3-5.5-2.2c7.5-2.3,14.7-3.7,21.6-5.4c6.9-1.7,13.4-3.5,19.6-5.8
			c6.2-2.3,12-5.3,17.5-9c2.7-1.9,5.4-4,7.9-6.5C1370.5,1103.9,1372.9,1101.2,1375.2,1098z"/>
	</g>
	<g id="图层_7">
	</g>
	<path fill="none" stroke="#000000" stroke-width="6.6937" d="M1531.8,1221.8c0,0,13.6,17.2,18.4,34.6c9.2,33.4,37.9,58.9,63.6,53.9
		"/>
	<circle fill="#020202" cx="1535.8" cy="1154.1" r="4.8"/>
	<circle fill="#020202" cx="1550.1" cy="1172.6" r="4.8"/>
	<circle fill="#020202" cx="1576.2" cy="1165.1" r="4.8"/>
	<circle fill="#020202" cx="1563" cy="1147.6" r="4.8"/>
	<circle fill="#020202" cx="1506.3" cy="1159.4" r="4.8"/>
	<circle fill="#020202" cx="1586.7" cy="1140.9" r="4.8"/>
	<path fill="none" stroke="#000000" stroke-width="6.6937" d="M1695.8,1221.8c0,0-13.6,17.2-18.4,34.6
		c-9.2,33.4-37.9,58.9-63.6,53.9"/>
	<path fill="none" stroke="#000000" stroke-width="6.6937" d="M1613.8,964.8c0,0-54.2,0.2-89.8,43.2
		c-21.3,25.7,9.2,102.2,89.8,107.5"/>
	<path fill="none" stroke="#000000" stroke-width="6.6937" d="M1613.8,964.8c0,0,54.2,0.2,89.8,43.2c21.3,25.7-9.2,102.2-89.8,107.5
		"/>
	<path fill="none" stroke="#000000" stroke-width="6.6937" d="M1759.3,1209.1c0,0-13.6,19.2-75,30.5"/>
	<path fill="none" stroke="#050101" stroke-width="10.0405" d="M1877.7,1124.9c0,0-84.1,131.8-263.9,83.5v-89.8"/>
	<path fill="none" stroke="#040000" stroke-width="10.0405" d="M1349.9,1124.9c0,0,84.1,131.8,263.9,83.5v-89.8"/>
	<g>
		<path fill="#050101" d="M1852.3,1098c2.3,3.2,4.7,5.9,7.3,8.3c2.5,2.4,5.1,4.6,7.9,6.5c5.4,3.8,11.2,6.7,17.5,9
			c6.2,2.3,12.8,4.1,19.6,5.8c6.9,1.7,14,3.1,21.6,5.4c-1.8,0.8-3.6,1.5-5.5,2.2c-1.8,0.6-3.7,1.1-5.6,1.5c-1.9,0.4-3.8,0.7-5.7,1
			c-1,0.1-1.9,0.2-2.9,0.3c-1,0.1-1.9,0.2-2.9,0.2c-3.9,0.1-7.8-0.1-11.8-0.7c-3.9-0.6-7.8-1.7-11.6-3.1c-7.6-2.9-14.7-7.6-20-14
			c-2.6-3.2-4.8-6.7-6.1-10.6c-0.7-1.9-1.2-3.9-1.6-5.8C1852.2,1102,1852,1100,1852.3,1098z"/>
	</g>
	<g id="图层_8">
	</g>
	<circle fill="#020202" cx="1691.7" cy="1154.1" r="4.8"/>
	<circle fill="#020202" cx="1677.4" cy="1172.6" r="4.8"/>
	<circle fill="#020202" cx="1651.3" cy="1165.1" r="4.8"/>
	<circle fill="#020202" cx="1664.5" cy="1147.6" r="4.8"/>
	<circle fill="#020202" cx="1721.2" cy="1159.4" r="4.8"/>
	<circle fill="#020202" cx="1640.8" cy="1140.9" r="4.8"/>
	<g id="图层_10">
		<ellipse fill="#FFFFFF" cx="1613.1" cy="985.2" rx="32" ry="20.4"/>
		<path fill="#060404" d="M1553,1055.6c11.8-5,35.9,19,32.1,28.4c-3.2,7.9-28.9,12.7-37.5-1.2
			C1541.8,1073.5,1545.6,1058.7,1553,1055.6z"/>
		<path fill="#060404" d="M1674.6,1055.6c-11.8-5-35.9,19-32.1,28.4c3.2,7.9,28.9,12.7,37.5-1.2
			C1685.7,1073.5,1681.9,1058.7,1674.6,1055.6z"/>
	</g>
</g>
</svg>
