<?xml version="1.0" encoding="utf-8"?>
<!-- Generator: Adobe Illustrator 21.0.0, SVG Export Plug-In . SVG Version: 6.00 Build 0)  -->
<svg version="1.1" id="图层_2" xmlns="http://www.w3.org/2000/svg" xmlns:xlink="http://www.w3.org/1999/xlink" x="0px" y="0px"
	 viewBox="0 0 3186.3 2724.3" enable-background="new 0 0 3186.3 2724.3" xml:space="preserve">
<g id="mouth_x5F_02">
	<g>
		<path fill="#050101" d="M1402.3,1171.7c0,3.2-0.7,6.4-1.8,9.4c-1.1,3-2.6,5.9-4.4,8.6c-3.6,5.4-8.9,10-15.1,12.9
			c-6.2,2.9-13.3,3.8-19.9,2.7c-6.5-1.1-12.5-3.8-17.2-8.2c6.4-0.2,12.1-0.2,17.5-1c5.3-0.7,10.2-2.1,14.8-4.2
			c4.6-2.1,8.9-5,13.2-8.4C1393.6,1180.2,1397.7,1176.2,1402.3,1171.7z"/>
	</g>
	<path fill="none" stroke="#040000" stroke-width="10.0405" d="M1613.4,1118.6v84.3c-150.5,30-230.9-8.1-230.9-8"/>
	<path fill="none" stroke="#050101" stroke-width="2" d="M1586.3,1142.2c0,0-52.6-57.3-186.6-47.7"/>
	<path fill="none" stroke="#050101" stroke-width="2" d="M1573.7,1148.2c0,0-82.3-48.7-184.4-14.8"/>
	<path fill="none" stroke="#050101" stroke-width="2" d="M1563.1,1158.4c0,0-93.5-41.6-182.2,15.7"/>
	<g>
		<path fill="#050101" d="M1825.3,1171.7c4.5,4.5,8.7,8.4,12.9,11.9c4.3,3.4,8.6,6.3,13.2,8.4c4.6,2.1,9.4,3.4,14.8,4.2
			c5.3,0.7,11.1,0.7,17.5,1c-4.7,4.4-10.7,7.1-17.2,8.2c-6.5,1.1-13.6,0.1-19.9-2.7c-6.2-2.9-11.4-7.5-15.1-12.9
			c-1.8-2.7-3.3-5.6-4.4-8.6C1826,1178.1,1825.2,1175,1825.3,1171.7z"/>
	</g>
	<path fill="none" stroke="#040000" stroke-width="10.0405" d="M1614.1,1118.6v84.3c150.5,30,230.9-8.1,230.9-8"/>
	<path fill="none" stroke="#050101" stroke-width="2" d="M1641.2,1142.2c0,0,52.6-57.3,186.6-47.7"/>
	<path fill="none" stroke="#050101" stroke-width="2" d="M1653.8,1148.2c0,0,82.3-48.7,184.4-14.8"/>
	<path fill="none" stroke="#050101" stroke-width="2" d="M1664.4,1158.4c0,0,93.5-41.6,182.2,15.7"/>
	<g>
		<path fill="none" stroke="#000000" stroke-width="6.6937" d="M1613.4,964.8c0,0-54.2,0.2-89.8,43.2
			c-21.3,25.7,9.2,102.2,89.8,107.5"/>
		<path fill="none" stroke="#000000" stroke-width="6.6937" d="M1613.4,964.8c0,0,54.2,0.2,89.8,43.2
			c21.3,25.7-9.2,102.2-89.8,107.5"/>
		<path fill="#22170E" d="M1605.6,964.8l-51.1,17.2l-34,30.8l-1.5,31.6l12.3,26.6l29.4,28.1c0,0,30.2,16.4,41.4,16.4
			s51.6-3.2,70-20.7s32.9-37.4,35.1-49c2.2-11.6,1.7-27.1,0-30.6c-1.7-3.5-28.2-29.5-35.1-33.2c-6.9-3.7-39.8-17.9-44.9-17.2
			C1622.2,965.5,1605.6,964.8,1605.6,964.8z"/>
		<path fill="#060404" d="M1552.6,1055.6c11.8-5,35.9,19,32.1,28.4c-3.2,7.9-28.9,12.7-37.5-1.2
			C1541.5,1073.5,1545.3,1058.7,1552.6,1055.6z"/>
		<path fill="#060404" d="M1674.2,1055.6c-11.8-5-35.9,19-32.1,28.4c3.2,7.9,28.9,12.7,37.5-1.2
			C1685.3,1073.5,1681.5,1058.7,1674.2,1055.6z"/>
		<ellipse fill="#FFFFFF" cx="1612.7" cy="985.2" rx="32" ry="20.4"/>
	</g>
</g>
</svg>
