<?xml version="1.0" encoding="utf-8"?>
<!-- Generator: Adobe Illustrator 21.0.0, SVG Export Plug-In . SVG Version: 6.00 Build 0)  -->
<svg version="1.1" id="图层_2" xmlns="http://www.w3.org/2000/svg" xmlns:xlink="http://www.w3.org/1999/xlink" x="0px" y="0px"
	 viewBox="0 0 3186.3 2724.3" enable-background="new 0 0 3186.3 2724.3" xml:space="preserve">
<g id="mouth_x5F_04">
	<path fill="none" stroke="#050101" stroke-width="2" d="M1579.2,1147.3c0,0-70.1-33.8-191,24.8"/>
	<path fill="none" stroke="#050101" stroke-width="2" d="M1569.7,1157.5c0,0-94.5-14.8-176.7,54.6"/>
	<path fill="none" stroke="#050101" stroke-width="2" d="M1563.7,1170.9c0,0-102.3-4-163.5,82"/>
	<path fill="none" stroke="#050101" stroke-width="2" d="M1646.1,1147.3c0,0,70.1-33.8,191,24.8"/>
	<path fill="none" stroke="#050101" stroke-width="2" d="M1655.6,1157.5c0,0,94.5-14.8,176.7,54.6"/>
	<path fill="none" stroke="#050101" stroke-width="2" d="M1661.6,1170.9c0,0,102.3-4,163.5,82"/>
	
		<line fill="none" stroke="#060404" stroke-width="18.6862" stroke-miterlimit="10" x1="1619.7" y1="1113.4" x2="1617.7" y2="1218.9"/>
	<g>
		<path fill="#22170E" d="M1605.6,964.8l-51.1,17.2l-34,30.8l-1.5,31.6l12.3,26.6l29.4,28.1c0,0,30.2,16.4,41.4,16.4
			s51.6-3.2,70-20.7s32.9-37.4,35.1-49c2.2-11.6,1.7-27.1,0-30.6c-1.7-3.5-28.2-29.5-35.1-33.2c-6.9-3.7-39.8-17.9-44.9-17.2
			C1622.2,965.5,1605.6,964.8,1605.6,964.8z"/>
		<path fill="#060404" d="M1552.6,1055.6c11.8-5,35.9,19,32.1,28.4c-3.2,7.9-28.9,12.7-37.5-1.2
			C1541.5,1073.5,1545.3,1058.7,1552.6,1055.6z"/>
		<path fill="#060404" d="M1674.2,1055.6c-11.8-5-35.9,19-32.1,28.4c3.2,7.9,28.9,12.7,37.5-1.2
			C1685.3,1073.5,1681.5,1058.7,1674.2,1055.6z"/>
		<ellipse fill="#FFFFFF" cx="1612.7" cy="985.2" rx="32" ry="20.4"/>
		<path fill="none" stroke="#000000" stroke-width="6.6937" d="M1613.4,964.8c0,0-54.2,0.2-89.8,43.2
			c-21.3,25.7,9.2,102.2,89.8,107.5"/>
		<path fill="none" stroke="#000000" stroke-width="6.6937" d="M1613.4,964.8c0,0,54.2,0.2,89.8,43.2
			c21.3,25.7-9.2,102.2-89.8,107.5"/>
	</g>
	<g id="图层_30">
		<path fill="#221B1C" d="M1409.6,1192.3c-2.2,2.8,5.7,13.8,14.5,21.3c8,6.7,16.4,10.3,40.5,16.3c18.3,4.6,28.9,7.2,45.3,9.5
			c23.5,3.3,41.9,3.4,54.8,3.5c14,0.1,9.6-0.6,37.3-1c9.3-0.2,21.8-0.9,36.4-2c24.7-1.8,56.7-4.2,56.8-8c0.1-2.9-19.4-5.6-25.8-6.5
			c-30.6-4.2-52.5-2-70.3-1.5c-14.5,0.4-43.4,1.1-77.8-2.5c-34-3.5-52.6-5.4-76.5-15.3C1426.2,1198.4,1412.2,1189.1,1409.6,1192.3z"
			/>
	</g>
	<g id="图层_29">
		<path fill="none" stroke="#040000" stroke-width="12" stroke-miterlimit="10" d="M1372.4,1170.9c0,0,49,53.8,121.9,66.7"/>
		<path fill="none" stroke="#040000" stroke-width="12" stroke-miterlimit="10" d="M1577.2,1241.5c0,0,82.7,12.4,149.3-15.5"/>
	</g>
	<g id="图层_9_x5F_复制">
		<path fill="#AF1E24" d="M1542.9,1217.2c-10.8-0.5-21.6-0.9-32.3-1.9c-8.7-0.8-17.4-2.6-26.1-3.4l0.3,1c0,0,4.7,26.2,6.1,30
			c1.4,3.8,13.2,23.6,15.8,25.8c2.5,2.3,12.8,8.5,13.3,8.7c0.5,0.2,14.7,2.9,14.7,2.9l12.8-0.1l17.6-6.3l15.2-16.6l14.9-25.1
			l10-11.8C1584.3,1220.4,1563.7,1218.2,1542.9,1217.2z"/>
	</g>
	<g id="图层_31">
		<path fill="#721A2D" d="M1485.9,1219.1c-0.9,2.4,2.2,5.7,3.5,7.1c8.9,9.2,24.2,12.8,51,14.5c29.9,1.9,45.3-0.4,55.7-8.7
			c1.9-1.5,3.6-3.2,3.3-4.8c-1-4.8-18.6-2.6-48.3-5.6c-16.1-1.6-25.1-2.5-43.2-4.2C1497.4,1216.3,1487.4,1215.4,1485.9,1219.1z"/>
	</g>
	<path fill="none" stroke="#000000" stroke-width="5.3071" d="M1486.2,1215c4.5,17.6,5.5,37.6,19.5,51.6c7,7,16,14,27.5,12.7"/>
	<path fill="none" stroke="#000000" stroke-width="5.3071" d="M1606.9,1219.8c0,0-12.7,11.8-18.6,24.9c-11.2,25-36.8,41.6-56.3,34.6
		"/>
	<path fill="none" stroke="#000000" stroke-width="14" d="M1361.1,1162.8c-16.9-5.3,51.6,35.7,109,49.1
		c61.8,14.4,128.4,11,148.6,9.4c38-3.1,69.6,6.2,95.4,5.3c91.9-3.4,110.9-20.3,110.9-20.3l5.3-4.4"/>
	<path d="M1369.6,1144.3c-37.9,12.4-55.3,13-55.3,17.8c0,4,12.4,7.8,21.8,8.3c14,0.7,24.3-5.6,34.3-11.8
		c11.1-6.9,23.8-17.6,22.3-20.3C1391.5,1136.5,1384.1,1139.6,1369.6,1144.3z"/>
	<path d="M1831.1,1190.7c21.2,12.4,31,13,31,17.8c0,4-7,7.8-12.2,8.3c-7.9,0.7-13.6-5.6-19.2-11.8c-6.2-6.9-13.3-17.6-12.5-20.3
		C1818.8,1182.8,1823,1186,1831.1,1190.7z"/>
</g>
</svg>
