<?xml version="1.0" encoding="utf-8"?>
<!-- Generator: Adobe Illustrator 21.0.0, SVG Export Plug-In . SVG Version: 6.00 Build 0)  -->
<svg version="1.1" id="图层_2" xmlns="http://www.w3.org/2000/svg" xmlns:xlink="http://www.w3.org/1999/xlink" x="0px" y="0px"
	 viewBox="0 0 3186.3 2724.3" enable-background="new 0 0 3186.3 2724.3" xml:space="preserve">
<g id="form_1_">
	<path fill="none" stroke="#000000" stroke-width="12" stroke-linecap="round" stroke-linejoin="round" d="M1534.6,584.6
		c-21.9,3.8-65,12.5-107.9,31.2c-37.6,16.4-56.8,32.7-58.6,34.1c-7.3,5.8-13,11.1-17,14.9c0,0,0,0,0,0c0,0-14.7,13.1-28,28.5
		c-9.3,10.8-45.5,73.7-75,168c-32.4,89.6-47,86.8-80.8,187.9c-12.3,36.9-23.2,73.9-14.6,118.6c4.7,24.6,14.4,51,32,77.6
		c16,24.1,85.6,109.4,156.7,146.2c53.3,27.6,131.7,64.8,262.3,65.2c109.3,0.3,203.3-17.3,331-92.1c49.1-28.7,88.9-61.6,114.8-119.4
		c26.6-59.5,24.2-122.9,13.1-165c-4.1-15.6-5.1-11.3-27.5-72.6c-8.4-23.1-12.3-34.7-20.5-57.9c-34.6-98.3-32.5-83.5-37.5-103.5
		c0,0-26.9-107-37-122.9c-2.9-4.5-5.9-9-5.9-9c0,0,0,0,0,0c-4.1-6.3-9-12.1-14.7-17.5c-12.9-13.4-24.3-23.1-31.8-29.1
		c-67.9-54.5-159.8-86.2-194.9-78.9c-1.9,0.4-10.5,2.1-12.6-1.4c-3-4.9,10.4-14.5,18.6-31.8c8.9-19,8.3-40.7,4-42
		c-5.6-1.8-15.3,31.8-50,59.5c-6.9,5.5-16.9,13.3-21.1,10.5c-6.9-4.7,10.7-32.6,16.1-62.5c11.6-64.4-35.7-128.1-45.5-125
		c-9.8,3.1,25.2,74.1-8.3,134.7C1577.6,560.3,1551.2,576.4,1534.6,584.6z"/>
	<path fill="none" stroke="#000000" stroke-width="12" stroke-linecap="round" stroke-linejoin="round" d="M1380.9,1414.8
		c0,0-71.7,120.8-82.8,169.9c-17.1,75.1-25.1,114.6-42.1,135.6c-66.8,82.8-88.6,106-95.2,160.1c-7.8,64.9,51.3,89.9,51.3,89.9
		s-59.7,5.9-77.3,76.1c-7.4,29.7-7.4,85,43.1,81.2c5.4-0.4,28.9,36.8,74,18c11.6-4.8,9.6,30.5,96.6,1.6c8.7-2.9,33.1,26.1,109.8-0.4
		c6-2.1,36.5,31,105.7-7.5c3.3-1.8,28.1,3.3,54.1-14.2c6.4-4.3,20.2,25.5,59.1,12.6c8.2-2.7,24,36.3,101.2,8.4
		c11.8-4.3,18.7,31.2,109.1-0.6c13.4-4.7,24.5,33.5,90.4,2.5c9.1-4.3,55.8,22.6,76.4-17c5-9.6,53.8,1.7,55.5-51.3
		c1.3-42.7-10.6-98.5-80.3-107.7c-11.9-1.6,57.7-17.8,48.8-97.3c-3-26.8-47.4-92.8-94-146.7c-12.5-14.4-39.9-126.6-46.3-145.3
		c-6.4-18.7-77.5-138.9-81.4-173.5"/>
	<g>
		<path d="M1310.3,1650.8c2.3,25.6,5.3,51.1,9.2,76.4c1.9,12.7,4,25.3,6.3,37.8c1.2,6.3,2.4,12.6,3.7,18.8c1.3,6.3,2.6,12.5,4,18.7
			c5.8,24.8,12.3,49.5,20.8,73.4c4.3,11.9,8.9,23.7,14.2,35.2c5.2,11.5,11.1,22.6,17.7,33.2c1.7,2.7,1,6.2-1.6,8l-0.1,0.1
			c-1.3,0.9-2.7,2-4.1,3.1c-1.4,1.1-2.7,2.2-4.1,3.3c-2.7,2.2-5.3,4.5-7.9,6.9c-5.2,4.7-10.1,9.7-14.8,14.9
			c-9.4,10.4-17.8,21.7-24.3,33.9c-3.3,6.1-6.1,12.4-8.3,18.9c-2.1,6.5-3.7,13.2-4.5,20c-1.6,13.5,0.3,27.3,4.9,40.2
			c4.7,12.9,12.3,24.9,21.3,35.6c4.5,5.4,9.4,10.5,14.5,15.4c4.8,4.5,10.8,7.8,17.3,9.8c6.5,2,13.5,3,20.5,3.3
			c7,0.3,14.2-0.2,21.2-1c7.1-0.9,14.1-2.1,21.1-3.8c7-1.6,13.9-3.6,20.8-5.9c-13.2,5.9-27,10.4-41.3,13.3
			c-7.2,1.4-14.4,2.3-21.8,2.5c-7.4,0.2-14.9-0.3-22.2-2.3c-7.3-1.9-14.5-5.3-20.5-10.4c-5.5-4.8-10.8-9.9-15.8-15.4
			c-9.9-11-18.4-23.5-24.1-37.5c-2.8-7-4.9-14.4-6-21.9c-1.1-7.5-1.3-15.2-0.6-22.8c0.7-7.6,2.3-15,4.5-22.3
			c2.3-7.2,5.2-14.2,8.7-20.8c6.9-13.3,15.8-25.4,25.6-36.5c4.9-5.5,10.2-10.8,15.6-15.8c2.7-2.5,5.5-4.9,8.3-7.3
			c1.4-1.2,2.9-2.4,4.3-3.5c1.5-1.2,2.9-2.3,4.6-3.4l-1.6,8.1c-13.9-22.4-24.2-46.5-32.4-71.1c-4.1-12.3-7.7-24.8-10.9-37.3
			c-3.2-12.5-6-25.2-8.4-37.9c-2.4-12.7-4.6-25.4-6.3-38.2c-1.7-12.8-3.2-25.6-4.4-38.4c-1.1-12.8-2.1-25.7-2.7-38.5
			C1310.4,1676.5,1310.1,1663.6,1310.3,1650.8z"/>
	</g>
	<g>
		<path d="M1922.5,1640.8c0.2,12.9-0.1,25.7-0.7,38.6c-0.6,12.9-1.5,25.7-2.7,38.5c-1.2,12.8-2.7,25.6-4.4,38.4
			c-1.7,12.8-3.9,25.5-6.3,38.2c-2.4,12.7-5.1,25.3-8.4,37.9c-3.2,12.5-6.8,25-10.9,37.3c-8.2,24.6-18.5,48.8-32.4,71.1l-1.3-7.9
			c1.6,1.3,2.9,2.4,4.3,3.7c1.4,1.2,2.7,2.5,4.1,3.7c2.7,2.5,5.3,5.1,7.9,7.7c5.1,5.3,10,10.7,14.7,16.4
			c9.3,11.4,17.7,23.6,24.5,36.8c6.7,13.2,11.9,27.5,14,42.5c2.1,14.9,1.1,30.5-3.9,44.9c-4.9,14.4-13.1,27.3-22.9,38.3
			c-4.9,5.5-10.3,10.6-15.9,15.3c-1.4,1.2-2.8,2.3-4.3,3.5c-1.4,1.1-3,2.3-4.6,3.3c-3.2,2.1-6.5,3.9-9.9,5.5
			c-3.4,1.6-7,2.8-10.6,3.7c-3.6,0.9-7.3,1.6-11,1.9c-7.4,0.8-14.8,0.5-22-0.5c-14.5-2.1-28.4-6.7-41.1-13.5
			c6.6,2.8,13.5,4.9,20.4,6.5c6.9,1.7,14,2.8,21,3.2c7,0.5,14.1,0.2,20.9-1c3.4-0.6,6.8-1.4,10.1-2.5c3.3-1.1,6.5-2.3,9.5-3.9
			c3-1.6,5.9-3.3,8.7-5.4c1.4-1,2.6-2.1,4-3.2c1.3-1.1,2.7-2.3,4-3.5c5.2-4.7,10.1-9.8,14.6-15.1c8.9-10.6,16.1-22.7,20-35.7
			c2-6.5,3.2-13.2,3.6-20c0.4-6.8,0.1-13.6-1-20.3c-2.2-13.5-7.1-26.5-13.6-38.7c-6.5-12.3-14.5-23.8-23.5-34.5
			c-4.5-5.4-9.2-10.6-14.1-15.6c-2.5-2.5-5-5-7.5-7.3c-1.3-1.2-2.6-2.4-3.9-3.5c-1.3-1.1-2.7-2.3-3.9-3.3l0,0
			c-2.4-1.9-2.8-5.3-1.3-7.8c6.6-10.6,12.5-21.8,17.7-33.2c5.3-11.4,9.9-23.3,14.2-35.2c8.5-23.9,15.1-48.6,20.8-73.4
			c1.4-6.2,2.8-12.5,4-18.7c1.3-6.3,2.5-12.5,3.7-18.8c2.4-12.6,4.4-25.2,6.3-37.8C1917.1,1691.8,1920.2,1666.4,1922.5,1640.8z"/>
	</g>
	<g>
		<path d="M1510.6,1650.8c0.3,24.3,0.3,48.5,0.5,72.8c0,12.1,0.1,24.2,0.4,36.3c0.2,12.1,0.4,24.2,0.9,36.2c0.3,6,0.6,12,1.2,17.8
			c0.3,2.8,0.7,5.9,1.1,8.9l1.1,9l4.3,36.1c1.5,12,2.9,24,4.7,35.8c0.5,3,0.9,5.9,1.5,8.8c0.3,1.4,0.6,2.9,0.9,4.2
			c0.3,1.3,0.7,2.7,1,3.6c0.1,0.2,0.2,0.4,0.2,0.4c0,0,0,0,0,0c0,0-0.1-0.2-0.2-0.2l-0.1-0.1c-0.1-0.1-0.2-0.2-0.3-0.4l-0.2-0.2
			l-0.1-0.1c-0.2-0.2,0,0,0.2,0.1c0.2,0.1,0.5,0.2,0.8,0.4c1.2,0.6,2.6,1.2,3.9,1.8c2.8,1.2,5.6,2.4,8.5,3.8
			c11.3,5.3,22.2,11.7,32.2,19.5c9.9,7.8,18.9,16.8,26.5,26.9c7.6,10.1,13.8,21.2,18.4,32.9c4.7,11.7,7.8,23.9,9.6,36.1
			c0.9,6.1,1.6,12.3,1.9,18.5c0.4,6.2,0.5,12.4,0.3,18.5c-0.2,6.2-0.6,12.3-1.2,18.4c-0.3,3.1-0.7,6.1-1,9.1l-0.6,4.5l-0.3,2.3
			c-0.1,0.7-0.3,1.6-0.5,2.4c-0.8,3.3-2.2,6.5-4.2,9.2c-2,2.7-4.4,5-7,6.9c-5.3,3.8-11.2,6.1-17.3,7.6c-6,1.5-12.2,2.2-18.3,2.3
			c-3.1,0-6.1-0.1-9.2-0.4c-1.5-0.2-3-0.4-4.5-0.8c-0.7-0.2-1.5-0.4-2.2-0.7c-0.7-0.3-1.4-0.6-1.9-1.3c0.5,0.6,1.3,0.8,2,1
			c0.7,0.2,1.5,0.3,2.2,0.4c1.5,0.2,3,0.3,4.5,0.3c3,0.1,6-0.1,9-0.4c6-0.6,11.9-1.8,17.5-3.7c5.6-1.9,11-4.4,15.4-8
			c2.2-1.8,4.1-3.9,5.5-6.2c1.4-2.3,2.4-4.8,2.8-7.5c0.1-0.7,0.2-1.3,0.2-2l0.2-2.2l0.4-4.5c0.2-3,0.4-6,0.5-9
			c0.3-6,0.3-12,0.2-17.9c-0.3-11.9-1.3-23.8-3.6-35.4c-2.2-11.6-5.6-22.9-10.2-33.7c-4.6-10.7-10.5-20.9-17.6-30.1
			c-7.1-9.2-15.4-17.4-24.7-24.4c-9.2-7.1-19.3-13-30-18c-2.7-1.2-5.4-2.4-8.1-3.7c-1.4-0.6-2.8-1.2-4.4-2c-0.4-0.2-0.8-0.4-1.3-0.6
			c-0.5-0.3-1-0.5-1.8-1.1c-0.1-0.1-0.2-0.2-0.4-0.3c-0.1-0.1-0.2-0.2-0.4-0.4c-0.2-0.2-0.3-0.4-0.5-0.6c-0.1-0.2-0.2-0.2-0.3-0.4
			c-0.2-0.2-0.4-0.5-0.5-0.7l-0.3-0.5c-0.4-0.7-0.6-1.2-0.7-1.7c-0.7-1.9-1.1-3.5-1.4-5.1c-0.4-1.6-0.7-3.1-0.9-4.7
			c-0.6-3.1-1-6.1-1.5-9.2c-1.7-12.2-3.1-24.2-4.4-36.3c-1.2-12.1-2.4-24.2-3.5-36.2l-0.9-9c-0.3-3-0.6-6-0.9-9.2
			c-0.4-6.2-0.5-12.4-0.6-18.5c0-12.2,0.1-24.4,0.6-36.5c0.4-12.1,1-24.3,1.6-36.4C1506.6,1699.2,1508.2,1675,1510.6,1650.8z"/>
	</g>
	<g>
		<path d="M1730.6,1637.8c-2.7,17.8-4.6,35.6-5.8,53.5c-1.1,17.8-1.8,35.7-0.6,53.4c0.2,4.4,0.6,8.8,1.1,13.2
			c0.5,4.6,0.8,9.2,1,13.7c0.4,9.1,0.5,18.1,0.4,27.2c-0.1,9-0.4,18.1-0.8,27.1c-0.4,9-0.9,18-1.6,27c-1.4,18-3.1,36-6.1,54
			c-0.8,4.5-1.6,9-2.7,13.6c-0.6,2.3-1.2,4.6-2,7.1c-0.4,1.2-0.9,2.5-1.7,3.9c-0.4,0.7-0.9,1.5-1.7,2.5c-0.3,0.3-0.5,0.5-0.8,0.8
			c-0.2,0.1-0.3,0.3-0.5,0.4c-0.2,0.2-0.4,0.3-0.7,0.4c-0.2,0.1-0.5,0.3-0.8,0.4l-0.5,0.2c-0.2,0.1-0.4,0.1-0.5,0.2
			c-0.4,0.1-0.7,0.2-1.2,0.2c-0.2,0-0.4,0-0.6,0l-0.4,0c-3.3,0-7.1,0.9-10.9,2.3c-3.8,1.4-7.5,3.4-11.2,5.5
			c-7.3,4.4-14.2,9.6-20.7,15.4c-6.5,5.8-12.6,12-18.1,18.8c-5.5,6.7-10.5,13.9-14.2,21.5c-1.8,3.8-3.4,7.7-4.3,11.7
			c-0.9,3.9-1.1,7.9-0.3,11.5l0.1,0.3l0,0l2.8,18.7c0.9,6.2,1.9,12.5,2.8,18.7l0,0.2c0,0.1,0,0.2,0,0.4c-0.7,10.2-1.3,20.5-2.1,30.7
			l-1.2,15.4c-0.4,5.1-0.8,10.2-1.3,15.4c-0.2-5.1-0.3-10.3-0.4-15.4l-0.3-15.4c-0.2-10.3-0.3-20.5-0.4-30.8l0,0.6
			c-1.3-6.2-2.6-12.3-3.8-18.5l-3.8-18.5l0.1,0.3c-1.5-5.1-1.4-10.4-0.5-15.2c0.9-4.9,2.4-9.4,4.3-13.8c3.8-8.7,8.9-16.6,14.5-24
			c5.7-7.4,11.9-14.2,18.7-20.5c6.8-6.3,14.1-12.2,22.1-17.1c4-2.5,8.3-4.7,12.9-6.6c4.6-1.8,9.6-3.3,15.3-3.3c0.1,0,0,0-0.2,0
			c-0.1,0-0.3,0-0.4,0c-0.3,0-0.5,0.1-0.8,0.2c-0.1,0-0.2,0.1-0.3,0.1c-0.1,0-0.2,0.1-0.3,0.1c-0.2,0.1-0.4,0.2-0.4,0.2
			c-0.1,0.1-0.2,0.1-0.3,0.2c-0.1,0.1-0.1,0.1-0.2,0.2c-0.1,0.1-0.2,0.1-0.2,0.2c-0.1,0.2,0,0,0.1-0.3c0.3-0.5,0.6-1.4,0.9-2.3
			c0.6-1.8,1.2-3.8,1.7-5.9c1-4.1,1.8-8.5,2.5-12.8c1.4-8.7,2.6-17.5,3.6-26.4c1-8.8,1.9-17.7,2.7-26.6c1.6-17.8,2.8-35.6,3.6-53.4
			c0.4-8.9,0.7-17.8,0.6-26.7c0-4.4-0.1-8.8-0.4-13.2c-0.3-4.5-0.5-9.1-0.5-13.7c-0.1-9.1,0.3-18.2,1-27.2c0.6-9,1.7-18,3-26.9
			c0.6-4.5,1.3-8.9,2.1-13.4c0.8-4.4,1.6-8.9,2.5-13.3C1726.3,1655.3,1728.3,1646.5,1730.6,1637.8z"/>
	</g>
	<g>
		<path d="M1553.2,2136.7c-0.2,0.1-0.4,0.3-0.5,0.5c0,0-0.1,0.1-0.1,0.1c0,0,0-0.1,0.1-0.1c0,0,0,0,0.1-0.1l0.1-0.2l0.2-0.3l0.2-0.4
			c0.1-0.3,0.2-0.6,0.3-0.9c0.4-1.3,0.7-2.9,1-4.4c0.5-3.2,0.9-6.5,1.2-9.8c0.5-6.7,0.7-13.5,0.6-20.4c-0.2-13.7-1.2-27.4-3.1-41
			c-1.9-13.6-4.7-27.1-9.3-40.1c-2.3-6.5-5.1-12.8-8.7-18.6c-3.7-5.8-8.3-11.1-14.5-14.4c6.4,2.8,11.6,8,15.7,13.6
			c4.2,5.7,7.5,11.9,10.3,18.3c5.6,12.9,9.5,26.4,12.4,40.1c2.9,13.7,5,27.6,6.2,41.7c0.6,7,0.9,14.1,0.9,21.2
			c0,3.6-0.2,7.2-0.5,10.9c-0.2,1.9-0.4,3.8-0.9,5.8c-0.1,0.5-0.2,1-0.4,1.6l-0.2,0.8l-0.3,0.9l-0.2,0.4c-0.1,0.2-0.2,0.3-0.2,0.5
			c-0.2,0.4-0.3,0.7-0.5,1c-0.3,0.4-0.5,0.8-0.8,1.2c-0.4,0.5-0.9,1-1.4,1.4c-2.6,2-6.4,1.6-8.4-1
			C1550.1,2142.5,1550.5,2138.8,1553.2,2136.7z"/>
	</g>
	<g>
		<path d="M1450.4,2144.6c-0.2,0.3-0.4,0.6-0.5,1l-0.1,0.2l0,0.1c0,0.1,0,0.2,0,0.2l0,0c0,0,0,0,0,0l0-0.1c0-0.1,0-0.2,0.1-0.3
			c0.1-0.5,0.1-1.1,0.1-1.7c0.1-1.2,0.1-2.6,0.1-3.9c0-2.7-0.2-5.4-0.3-8.1c-0.4-5.5-0.9-11-1.6-16.5c-1.4-11-3.3-22-6-32.8
			c-2.7-10.8-5.9-21.5-10.6-31.5c-2.3-5-5.1-9.9-8.4-14.3c-3.3-4.4-7.4-8.4-12.4-11.1c5.2,2.2,9.7,5.9,13.5,10.1
			c3.8,4.2,7.1,9,9.9,13.9c5.7,9.9,10,20.5,13.7,31.2c3.7,10.8,6.6,21.8,9.1,32.9c1.2,5.6,2.3,11.2,3.2,16.9
			c0.4,2.8,0.8,5.7,1.1,8.6c0.1,1.5,0.3,3,0.3,4.5c0,0.8,0,1.6,0,2.5c0,0.2,0,0.5,0,0.7l0,0.4l-0.1,0.5l-0.1,0.5
			c0,0.1-0.1,0.5-0.2,0.7l-0.1,0.4c0,0.1,0,0.2-0.2,0.5c-0.2,0.5-0.5,1-0.8,1.5c-1.9,2.7-5.7,3.4-8.4,1.4
			C1449.1,2151,1448.5,2147.3,1450.4,2144.6z"/>
	</g>
	<g>
		<path d="M1979.2,2144.9c-0.2,0.3-0.3,0.6-0.4,0.9l-0.1,0.2l0,0.1c0,0,0,0.2,0,0.1l0-0.1l0-0.1l0-0.2c0-0.1,0-0.2,0.1-0.4
			c0.1-0.6,0.1-1.2,0.1-1.8c0.1-1.3,0.1-2.7,0.1-4.1c0-2.8-0.1-5.7-0.3-8.6c-0.3-5.7-0.8-11.5-1.4-17.3c-1.2-11.5-2.9-23-5.3-34.4
			c-2.4-11.4-5.3-22.7-9.6-33.5c-2.1-5.4-4.6-10.7-7.7-15.6c-3.1-4.9-6.9-9.4-12-12.4c5.3,2.6,9.6,6.9,13.2,11.6
			c3.6,4.7,6.6,9.9,9.3,15.2c5.3,10.6,9.2,21.9,12.6,33.2c3.4,11.4,6.1,22.9,8.4,34.6c1.1,5.8,2.1,11.7,2.9,17.6
			c0.4,3,0.8,5.9,1.1,9c0.1,1.5,0.3,3.1,0.3,4.7c0,0.8,0,1.6,0,2.6c0,0.2,0,0.5,0,0.7l0,0.4l-0.1,0.5l-0.1,0.5
			c0,0.1-0.1,0.4-0.1,0.7l-0.1,0.3c0,0.1,0,0.2-0.1,0.5c-0.2,0.5-0.4,1-0.7,1.4c-1.7,2.8-5.4,3.7-8.3,1.9
			C1978.3,2151.4,1977.5,2147.7,1979.2,2144.9z"/>
	</g>
	<g>
		<path d="M2045,2132.2c-0.1,0.1-0.2,0.2-0.2,0.4l0,0.1l0,0l0,0l0.1-0.1c0.1-0.2,0.2-0.3,0.2-0.6c0.2-0.5,0.4-1,0.5-1.6
			c0.4-1.2,0.7-2.4,1-3.6c0.6-2.5,1.1-5.1,1.5-7.7c0.9-5.2,1.5-10.4,1.8-15.7c0.7-10.5,0.2-21.2-1.6-31.6
			c-0.9-5.2-2.3-10.3-4.1-15.3c-1.8-5-4-9.8-6.9-14.3c-2.9-4.5-6.2-8.7-10.1-12.4c-3.9-3.7-8.3-6.8-13.1-9.6c4.9,2.3,9.7,5.1,14,8.4
			c4.3,3.5,8.2,7.4,11.6,11.8c3.4,4.4,6.2,9.3,8.6,14.3c2.4,5,4.3,10.3,5.8,15.7c3,10.8,4.5,21.9,4.8,33.1
			c0.2,5.6,0.1,11.2-0.4,16.8c-0.2,2.8-0.5,5.6-0.9,8.5c-0.2,1.4-0.4,2.8-0.7,4.3c-0.1,0.7-0.3,1.5-0.5,2.3
			c-0.1,0.4-0.3,0.9-0.4,1.3l-0.1,0.3l0,0.1l-0.1,0.2l-0.1,0.3c-0.2,0.4-0.4,0.9-0.7,1.3c-1.9,2.7-5.6,3.5-8.3,1.6
			S2043.1,2134.9,2045,2132.2z"/>
	</g>
	<g>
		<path d="M1775.7,2144.5c-0.1-1.6-0.1-3-0.1-4.5c0-1.5,0-2.9,0-4.3c0-2.9,0.2-5.8,0.3-8.6c0.3-5.7,0.9-11.4,1.7-17.1
			c1.6-11.3,4.2-22.5,8-33.3c1.9-5.4,4.2-10.6,6.7-15.7c2.6-5.1,5.6-9.9,8.9-14.5c3.3-4.6,7.1-8.8,11.2-12.7
			c4.1-3.9,8.6-7.2,13.3-10.3c-4.4,3.5-8.6,7.2-12.2,11.3c-3.6,4.2-7,8.6-9.8,13.4c-2.8,4.7-5.3,9.7-7.3,14.8
			c-2,5.1-3.7,10.3-5.1,15.6c-2.7,10.6-4.2,21.5-4.8,32.4c-0.3,5.5-0.3,10.9-0.2,16.4c0.1,2.7,0.2,5.4,0.4,8.1
			c0.1,1.3,0.2,2.7,0.4,4c0.1,1.3,0.3,2.7,0.5,3.9c0.5,3.3-1.7,6.3-5,6.8c-3.3,0.5-6.3-1.7-6.8-5
			C1775.7,2144.9,1775.7,2144.7,1775.7,2144.5L1775.7,2144.5z"/>
	</g>
	<g>
		<path d="M1674.2,2136.1c-0.2-3.6-0.3-6.9-0.4-10.4c-0.1-3.4-0.1-6.9,0-10.3c0.1-6.8,0.3-13.7,0.7-20.5c0.9-13.6,2.5-27.3,5.3-40.7
			c2.8-13.4,6.8-26.7,13.1-38.8c3.2-6.1,7-11.9,11.7-16.9c4.7-5,10.2-9.2,16.4-12c-6,3.2-11.1,7.7-15.2,12.9
			c-4.2,5.2-7.4,11.1-10.1,17.2c-5.2,12.2-8.1,25.4-9.9,38.6c-1.7,13.2-2.3,26.6-2.2,39.9c0.1,6.7,0.3,13.3,0.8,20
			c0.2,3.3,0.5,6.6,0.8,10c0.3,3.3,0.7,6.7,1.1,9.8l0,0.1c0.4,3.3-1.9,6.3-5.1,6.8c-3.3,0.4-6.3-1.9-6.8-5.1
			C1674.2,2136.4,1674.2,2136.3,1674.2,2136.1z"/>
	</g>
	<g>
		<path d="M1249.2,2144.6c-0.2-3.2-0.3-6.2-0.3-9.3c0-3,0-6.1,0.1-9.1c0.2-6.1,0.5-12.1,1.1-18.1c1.1-12.1,3.1-24.1,6.2-35.8
			c3.3-11.7,7.7-23.1,14.3-33.3c6.5-10.2,15.8-18.7,26.7-23.6c-10.4,5.8-18.7,14.8-24.1,25.1c-5.6,10.3-8.9,21.6-11.1,33.1
			c-2.1,11.5-3,23.2-3.1,34.9c0,5.8,0.1,11.7,0.5,17.5c0.2,2.9,0.4,5.8,0.7,8.7c0.3,2.9,0.6,5.8,1,8.5l0,0.1
			c0.5,3.3-1.8,6.3-5.1,6.8c-3.3,0.5-6.3-1.8-6.8-5.1C1249.3,2144.9,1249.2,2144.7,1249.2,2144.6z"/>
	</g>
	<g>
		<path d="M1178.2,2132.4c-0.3-1.5-0.4-2.7-0.6-4.1c-0.2-1.3-0.3-2.7-0.5-4c-0.3-2.6-0.5-5.3-0.6-7.9c-0.3-5.3-0.4-10.6-0.2-15.8
			c0.4-10.5,1.6-21.1,4.4-31.3c1.4-5.1,3.1-10.1,5.3-14.9c2.2-4.8,4.9-9.4,8-13.6c3.2-4.2,6.9-7.9,11-11.2c4.1-3.2,8.6-5.8,13.3-7.9
			c-4.4,2.6-8.6,5.5-12.3,9c-3.6,3.5-6.8,7.5-9.5,11.7c-5.2,8.6-8.4,18.2-10,28.1c-1.7,9.8-1.9,19.9-1.2,29.9c0.3,5,0.9,10,1.7,14.9
			c0.4,2.5,0.8,4.9,1.3,7.3c0.3,1.2,0.5,2.4,0.8,3.6c0.3,1.2,0.6,2.4,0.9,3.5c0.9,3.2-0.9,6.5-4.1,7.4s-6.5-0.9-7.4-4.1
			C1178.3,2132.8,1178.2,2132.7,1178.2,2132.4L1178.2,2132.4z"/>
	</g>
	<path fill="none" stroke="#000000" stroke-width="12" stroke-linecap="round" stroke-linejoin="round" d="M1208.5,1968.6
		c0,0,65.3,31,135.6,14"/>
	<path fill="none" stroke="#000000" stroke-width="12" stroke-linecap="round" stroke-linejoin="round" d="M2032.1,1969.6
		c0,0-74.7,39-135.9,18.2"/>
	<path fill="#1B110F" stroke="#000000" stroke-width="6.6937" stroke-linecap="round" stroke-linejoin="round" d="M1718.6,2096.7
		c-3.3,13.2,6.1,28.4,12.4,28.8c10.7,0.8,21.9-40,12.8-45.9C1738.2,2076,1722,2082.9,1718.6,2096.7z"/>
	<path fill="#1B110F" stroke="#000000" stroke-width="6.6937" stroke-linecap="round" stroke-linejoin="round" d="M1639.5,2084.7
		c-2.1,8.6,4.4,18.6,8.6,18.9c7.1,0.6,14.2-25.8,8-29.8C1652.4,2071.4,1641.6,2075.7,1639.5,2084.7z"/>
	<path fill="#1B110F" stroke="#000000" stroke-width="6.6937" stroke-linecap="round" stroke-linejoin="round" d="M1517.2,2098.8
		c1.7,12.5-8.5,25.4-14.3,25.2c-9.9-0.4-16.1-39-7-43.5C1501.3,2077.8,1515.5,2085.7,1517.2,2098.8z"/>
	<path fill="#1B110F" stroke="#000000" stroke-width="6.6937" stroke-linecap="round" stroke-linejoin="round" d="M1603.2,2082.4
		c2.6,11.9-7.2,26-13.3,26.7c-10.4,1.1-19.4-35.5-10.2-41.2C1585.2,2064.4,1600.5,2070,1603.2,2082.4z"/>
	<path fill="#1B110F" stroke="#000000" stroke-width="6.6937" stroke-linecap="round" stroke-linejoin="round" d="M1412.3,2109.2
		c1.4,10.7-7.8,22-12.9,21.8c-8.7-0.2-13.8-33.4-5.7-37.4C1398.4,2091.3,1410.8,2098,1412.3,2109.2z"/>
	<path fill="#1B110F" stroke="#000000" stroke-width="6.6937" stroke-linecap="round" stroke-linejoin="round" d="M1270.3,2100.1
		c0.3-10.2,10.3-19.3,14.9-18.3c7.9,1.6,7.7,33.4-0.2,35.8C1280.4,2119,1270,2110.8,1270.3,2100.1z"/>
	<path fill="#1B110F" stroke="#000000" stroke-width="6.6937" stroke-linecap="round" stroke-linejoin="round" d="M1199.8,2087.1
		c0.3-10.1,9.9-19,14.5-18.1c7.7,1.6,7.6,33-0.1,35.4C1209.6,2105.8,1199.5,2097.7,1199.8,2087.1z"/>
	<path fill="#1B110F" stroke="#000000" stroke-width="6.6937" stroke-linecap="round" stroke-linejoin="round" d="M1148.6,2074
		c0.5-9.4,10.5-17.8,15.2-17c7.8,1.3,7,30.4-0.8,32.8C1158.2,2091.2,1148,2083.9,1148.6,2074z"/>
	<path fill="#1B110F" stroke="#000000" stroke-width="6.6937" stroke-linecap="round" stroke-linejoin="round" d="M1820.1,2101.8
		c-2.7,13,8.7,28.8,15.6,29.7c11.8,1.6,21.2-38.5,10.7-45.1C1840.1,2082.5,1822.9,2088.1,1820.1,2101.8z"/>
	<path fill="#1B110F" stroke="#000000" stroke-width="6.6937" stroke-linecap="round" stroke-linejoin="round" d="M1954.3,2107.3
		c-2.2-8.9-13.8-15.1-18.2-13.6c-7.6,2.6-1.4,30.2,6.9,31.1C1947.8,2125.2,1956.6,2116.5,1954.3,2107.3z"/>
	<path fill="#1B110F" stroke="#000000" stroke-width="6.6937" stroke-linecap="round" stroke-linejoin="round" d="M2029.8,2097.2
		c-2.2-10.1-13.7-17.1-18.2-15.4c-7.6,3-1.6,34.3,6.7,35.3C2023.3,2117.7,2032,2107.7,2029.8,2097.2z"/>
	<path fill="#1B110F" stroke="#000000" stroke-width="6.6937" stroke-linecap="round" stroke-linejoin="round" d="M2090.6,2077.1
		c-2.1-8-13.1-13.7-17.3-12.3c-7.2,2.3-1.3,27.2,6.6,28C2084.6,2093.3,2092.8,2085.5,2090.6,2077.1z"/>
	<path fill="none" stroke="#000000" stroke-width="12" stroke-linecap="round" stroke-linejoin="round" d="M1309.8,711
		c-15.8-13-27.6-24.9-35.6-33.6c-27.2-29.5-38.7-51.3-65.4-56.9c-24.5-5.2-34.6,11.4-112.6,53.1c-43.5,23.3-56.3,26.7-67.1,34.7
		c-4.1,3.1-7,6.1-8.2,7.3c-32,31.1-24.6,107.6-24.3,135c0.8,83.9-62.5,87.8-102.8,204.5c-25.2,73.1-44.7,199.8,10,237.2
		c35.8,24.5,102,9.7,146.2-24c157-120,31.4-476.5,122.5-510.4c18-6.7,47.1-1.8,96.5,44.3c5.4-13.6,11.2-27.5,17.5-41.7
		C1294.2,743.2,1302,726.7,1309.8,711z"/>
	<g>
		<path d="M1134.5,812c5.1-22.4,10.7-44.8,17.6-66.9c3.5-11,7.2-22,11.8-32.7c2.3-5.4,4.8-10.7,7.6-15.8c2.9-5.1,6.1-10.2,10.5-14.6
			c2.2-2.2,4.7-4.2,7.8-5.6c3.1-1.4,6.9-1.8,10.3-0.7c1.7,0.5,3.2,1.4,4.5,2.3c1.3,0.9,2.5,2,3.6,3c2.2,2.1,4.1,4.2,6,6.3
			c7.7,8.3,16.2,15.8,25.4,22.6c4.6,3.3,9.3,6.5,14.2,9.5c4.9,2.9,9.9,5.7,15,8.3c10.2,5.1,20.8,9.6,31.6,13.3
			c-11-3.3-21.8-7.2-32.3-11.9c-5.3-2.3-10.4-4.9-15.5-7.7c-5-2.8-10-5.8-14.8-9c-9.6-6.4-18.7-13.7-26.9-21.9c-2.1-2-4.1-4-6.1-5.8
			c-1-0.9-2.1-1.7-3.1-2.4c-1.1-0.7-2.1-1.2-3.2-1.5c-2.1-0.6-4.4-0.3-6.5,0.8c-2.1,1.1-4.1,2.7-5.8,4.7c-3.5,3.9-6.4,8.7-8.9,13.7
			c-2.5,5-4.7,10.2-6.6,15.4c-3.9,10.6-7.2,21.4-10.1,32.4c-5.8,22-10.4,44.3-14.5,66.8l0,0c-0.6,3.3-3.7,5.4-7,4.8s-5.4-3.7-4.8-7
			C1134.5,812.2,1134.5,812.1,1134.5,812z"/>
	</g>
	<path fill="none" stroke="#000000" stroke-width="12" stroke-linecap="round" stroke-linejoin="round" d="M1925.4,703.3
		c22.9-12.9,38.5-26.3,48.4-35.7c26-24.9,39.6-48.7,68.5-53.1c24.7-3.8,33.9,13.4,109.4,59.4c42.1,25.7,54.7,29.8,65.1,38.5
		c3.9,3.3,6.6,6.5,7.8,7.7c30.2,32.8,18.4,108.8,16.6,136.1c-5.5,83.7,57.4,91.2,91.1,210c21.1,74.4,33.3,202-23.4,236.3
		c-37.2,22.5-102.4,4-144.6-32.3c-150.1-128.9-4.3-477.1-93.3-516.5c-18.5-8.2-49.8-4.3-106.4,44.4c-2.1-13-5.9-29-12.8-46.6
		C1943.6,731.2,1933.8,715.1,1925.4,703.3z"/>
	<g>
		<path d="M2093.7,811.7c-2.8-22.6-6.1-45.2-10.7-67.5c-2.3-11.1-4.9-22.2-8.2-32.9c-1.7-5.4-3.5-10.7-5.7-15.8
			c-2.2-5.1-4.8-10-8.1-14.1c-1.6-2-3.5-3.8-5.5-5c-2-1.2-4.3-1.6-6.4-1.1c-1.1,0.2-2.2,0.7-3.2,1.3c-1.1,0.6-2.2,1.4-3.2,2.2
			c-2.2,1.7-4.3,3.6-6.4,5.5c-8.7,7.7-18.2,14.4-28.1,20.3c-5,2.9-10.1,5.6-15.3,8.1c-5.2,2.4-10.5,4.8-15.9,6.8
			c-10.7,4.1-21.7,7.5-32.9,10.1c11-3.1,21.8-6.9,32.3-11.5c5.3-2.2,10.4-4.8,15.4-7.4c5-2.7,9.9-5.6,14.7-8.7
			c9.5-6.2,18.5-13.2,26.6-21.1c2.1-2,4.1-4,6.4-5.9c1.2-1,2.4-1.9,3.7-2.8c1.4-0.8,2.9-1.6,4.6-2c3.5-0.9,7.2-0.3,10.2,1.3
			c3,1.6,5.4,3.7,7.5,6.1c4.1,4.7,7,9.9,9.6,15.2c2.6,5.3,4.8,10.7,6.7,16.2c3.9,11,7.1,22.1,9.9,33.3c5.6,22.4,9.9,45.1,13.8,67.7
			c0.6,3.3-1.6,6.4-4.9,6.9c-3.3,0.6-6.4-1.6-6.9-4.9C2093.7,811.9,2093.7,811.8,2093.7,811.7L2093.7,811.7z"/>
	</g>
	<path fill="none" stroke="#000000" stroke-width="12" stroke-linecap="round" stroke-linejoin="round" d="M1205.7,1967.9
		c-66.9-17.3-97.7-47.5-113.4-70.2c-54.7-78.8,6.7-164-58.7-259.8c-33.7-49.4-68.4-57.6-78.8-59.6c-6.2-1.2-54.3-9.3-80,23.1
		c-25.7,32.4-13.4,87.8,14.5,105.9c31.8,20.6,64.5-22.4,98.4-6.5c51.6,24.2,16.3,141.2,76,219.4c31.2,40.8,73,65.3,73,65.3
		c9.5,5.6,17.8,9.6,23.8,12.2"/>
</g>
</svg>
