<?xml version="1.0" encoding="utf-8"?>
<!-- Generator: Adobe Illustrator 21.0.0, SVG Export Plug-In . SVG Version: 6.00 Build 0)  -->
<svg version="1.1" id="图层_2" xmlns="http://www.w3.org/2000/svg" xmlns:xlink="http://www.w3.org/1999/xlink" x="0px" y="0px"
	 viewBox="0 0 3186.3 2724.3" enable-background="new 0 0 3186.3 2724.3" xml:space="preserve">
<g id="color_x5F_01">
	<path fill="#9D7344" d="M1534.6,584.6c-21.9,3.8-65,12.5-107.9,31.2c-37.6,16.4-56.8,32.7-58.6,34.1c-7.3,5.8-13,11.1-17,14.9
		c0,0,0,0,0,0c0,0-14.7,13.1-28,28.5c-9.3,10.8-45.5,73.7-75,168c-32.4,89.6-47,86.8-80.8,187.9c-12.3,36.9-23.2,73.9-14.6,118.6
		c4.7,24.6,14.4,51,32,77.6c16,24.1,85.6,109.4,156.7,146.2c53.3,27.6,131.7,64.8,262.3,65.2c109.3,0.3,203.3-17.3,331-92.1
		c49.1-28.7,88.9-61.6,114.8-119.4c26.6-59.5,24.2-122.9,13.1-165c-4.1-15.6-5.1-11.3-27.5-72.6c-8.4-23.1-12.3-34.7-20.5-57.9
		c-34.6-98.3-32.5-83.5-37.5-103.5c0,0-26.9-107-37-122.9c-2.9-4.5-5.9-9-5.9-9c0,0,0,0,0,0c-4.1-6.3-9-12.1-14.7-17.5
		c-12.9-13.4-24.3-23.1-31.8-29.1c-67.9-54.5-159.8-86.2-194.9-78.9c-1.9,0.4-10.5,2.1-12.6-1.4c-3-4.9,10.4-14.5,18.6-31.8
		c8.9-19,8.3-40.7,4-42c-5.6-1.8-15.3,31.8-50,59.5c-6.9,5.5-16.9,13.3-21.1,10.5c-6.9-4.7,10.7-32.6,16.1-62.5
		c11.6-64.4-35.7-128.1-45.5-125c-9.8,3.1,25.2,74.1-8.3,134.7C1577.6,560.3,1551.2,576.4,1534.6,584.6z"/>
	<path fill="#9D7344" d="M1380.9,1414.8c0,0-71.7,120.8-82.8,169.9c-17.1,75.1-25.1,114.6-42.1,135.6
		c-66.8,82.8-88.6,106-95.2,160.1c-7.8,64.9,51.3,89.9,51.3,89.9s-59.7,5.9-77.3,76.1c-7.4,29.7-7.4,85,43.1,81.2
		c5.4-0.4,28.9,36.8,74,18c11.6-4.8,9.6,30.5,96.6,1.6c8.7-2.9,33.1,26.1,109.8-0.4c6-2.1,36.5,31,105.7-7.5
		c3.3-1.8,28.1,3.3,54.1-14.2c6.4-4.3,20.2,25.5,59.1,12.6c8.2-2.7,24,36.3,101.2,8.4c11.8-4.3,18.7,31.2,109.1-0.6
		c13.4-4.7,24.5,33.5,90.4,2.5c9.1-4.3,55.8,22.6,76.4-17c5-9.6,53.8,1.7,55.5-51.3c1.3-42.7-10.6-98.5-80.3-107.7
		c-11.9-1.6,57.7-17.8,48.8-97.3c-3-26.8-47.4-92.8-94-146.7c-12.5-14.4-39.9-126.6-46.3-145.3c-6.4-18.7-77.5-138.9-81.4-173.5"/>
	<path fill="#9D7344" d="M1310.3,1650.8c0,0,5,191.9,70.8,296.8c0,0-138.9,97.6-26.2,199.7c32.3,29.3,103.5-0.3,103.5-0.3"/>
	<path fill="#9D7344" d="M1922.5,1640.8c0,0-5,191.9-70.8,296.8c0,0,138.7,112.1,23.2,205.8c-39.2,31.8-96.2,2.8-96.2,2.8"/>
	<path fill="#9D7344" d="M1510.6,1650.8c0,0-5.8,131-1.7,166.8c3.6,31.8,10,101,14.5,106.5c4.5,5.6,119.9,31.2,99.8,188.5
		c-3.8,29.8-58.6,30.1-61.9,25.1"/>
	<path fill="#9D7344" d="M1730.6,1637.8c0,0-14.6,66-9.8,120.1c3.9,44.1-6.8,173.1-16.7,172.9c-29.8-0.6-92.2,61.6-83.4,93.6
		l6.6,37.2l-1.7,61.5"/>
	<path fill="#9D7344" d="M1556.9,2141.4c9.6-7.6,4.4-135.3-36.3-154.8"/>
	<path fill="#9D7344" d="M1455.3,2148c3.1-4.4-8.7-105.8-44.6-122.4"/>
	<path fill="#9D7344" d="M1984.3,2148c2.9-4.6-8.1-112.6-41.6-130.2"/>
	<path fill="#9D7344" d="M2050,2135.5c2.9-4.3,19-88.1-35.9-115.5"/>
	<path fill="#9D7344" d="M1781.7,2143.9c0,0-8.9-84.2,44.1-120.5"/>
	<path fill="#9D7344" d="M1680.1,2135.5c0,0-12.6-122.7,40.7-148.9"/>
	<path fill="#9D7344" d="M1255.2,2143.9c0,0-11.2-102.3,42.1-128.5"/>
	<path fill="#9D7344" d="M1184,2131.1c0,0-19.1-83.1,34.2-109.3"/>
	<path fill="#9D7344" d="M1208.5,1968.6c0,0,65.3,31,135.6,14"/>
	<path fill="#9D7344" d="M2032.1,1969.6c0,0-74.7,39-135.9,18.2"/>
	<path fill="#9D7344" d="M1314,714.3c-18.2-14.3-31.3-27.6-39.8-36.9c-26-28.6-38-51.1-65.4-56.9c-24.5-5.2-34.6,11.4-112.6,53.1
		c-43.5,23.3-56.3,26.7-67.1,34.7c-4.1,3.1-7,6.1-8.2,7.3c-32,31.1-24.6,107.6-24.3,135c0.8,83.9-62.5,87.8-102.8,204.5
		c-25.2,73.1-44.7,199.8,10,237.2c35.8,24.5,102,9.7,146.2-24c157-120,31.4-476.5,122.5-510.4c18-6.7,47.1-1.8,96.5,44.3
		c6.9-13.7,13.9-27.3,20.9-40.9C1297.9,745.6,1305.9,730,1314,714.3z"/>
	<path fill="#9D7344" d="M1925.4,703.3c22.9-12.9,38.5-26.3,48.4-35.7c26-24.9,39.6-48.7,68.5-53.1c24.7-3.8,33.9,13.4,109.4,59.4
		c42.1,25.7,54.7,29.8,65.1,38.5c3.9,3.3,6.6,6.5,7.8,7.7c30.2,32.8,18.4,108.8,16.6,136.1c-5.5,83.7,57.4,91.2,91.1,210
		c21.1,74.4,33.3,202-23.4,236.3c-37.2,22.5-102.4,4-144.6-32.3c-150.1-128.9-4.3-477.1-93.3-516.5c-18.5-8.2-49.8-4.3-106.4,44.4
		c-2.1-13-5.9-29-12.8-46.6C1943.6,731.2,1933.8,715.1,1925.4,703.3z"/>
	<path fill="#9D7344" d="M1205.7,1967.9c-66.9-17.3-97.7-47.5-113.4-70.2c-54.7-78.8,6.7-164-58.7-259.8
		c-33.7-49.4-68.4-57.6-78.8-59.6c-6.2-1.2-54.3-9.3-80,23.1c-25.7,32.4-13.4,87.8,14.5,105.9c31.8,20.6,64.5-22.4,98.4-6.5
		c51.6,24.2,16.3,141.2,76,219.4c31.2,40.8,73,65.3,73,65.3c9.5,5.6,17.8,9.6,23.8,12.2"/>
	<g>
		<g>
			<path fill="#8B5F35" d="M1291.1,1625.7c2.9,11.3,4.2,23.2,4.2,35.1c0,12-1.6,24.1-4.6,36l-2.2,8.5l-2.2,8.4
				c-0.7,2.9-1.5,5.7-2.4,8.6c-0.9,2.9-1.9,5.9-3,8.8c-2.2,5.9-4.9,11.8-8,17.4c-0.8,1.4-1.6,2.8-2.4,4.1c-0.8,1.3-1.7,2.8-2.5,4
				c-1.6,2.5-3.3,5-5,7.5c-3.4,5-7.1,10-11,14.8c-3.9,4.8-7.8,9.2-11.2,13.3c-3.4,4.1-6.5,8.2-9.6,12.5c-1.5,2.2-3,4.4-4.5,6.6
				l-2.3,3.4l-2.4,3.6c-6.3,9.4-12.2,18.4-16.2,26.8c-2,4.2-3.6,8.4-4.9,12.9c-0.3,1.1-0.6,2.2-0.9,3.3l-0.4,1.7l-0.4,2
				c-0.6,2.6-1,5-1.4,7.3c-0.8,4.7-1.2,9.3-1.2,13.8c0,4.5,0.4,8.8,1.2,13c0.8,4.2,2.1,8.2,3.8,12.1c1.7,3.9,3.8,7.5,6.3,10.9
				c1.3,1.7,2.7,3.3,4.2,4.9c1.5,1.6,3.1,3.2,4.8,4.7c3.5,3,7.3,5.9,11.6,8.6c4.2,2.7,8.8,5.3,13.7,7.8c2.4,1.3,4.9,2.6,7.5,3.9
				c2.3,1.1,4.6,2.4,6.9,3.4c2.3,1.1,4.7,2,7,3c2.4,0.9,4.8,1.8,7.2,2.5c4.9,1.6,9.9,2.8,15.1,3.8c5.2,1,10.5,1.7,16,2.3
				c5.5,0.6,11.1,1,16.8,1.4l17,1.2c5.4,0.3,10.7,0.3,15.8-0.5c5-0.8,9.9-2.5,14.4-5.5c4.5-3,8.4-7.1,11.6-12
				c-1.1,5.8-3.5,11.4-7.4,16.4c-1.9,2.5-4.2,4.7-6.8,6.7c-2.5,2-5.4,3.6-8.3,5c-5.9,2.8-12.1,4.3-18.1,5.5c-1.5,0.3-3,0.6-4.5,0.8
				l-4.3,0.7l-8.6,1.3c-5.8,0.8-11.7,1.5-17.7,2.1c-3,0.3-6,0.5-9.1,0.6c-1.5,0.1-3.1,0.1-4.6,0.1c-1.6,0-3.1,0-4.7,0
				c-6.2-0.1-12.6-0.6-19-1.6c-3.2-0.5-6.3-1.2-9.5-1.8c-3.1-0.8-6.3-1.5-9.3-2.5c-3.1-0.9-6.1-2-9.1-3.1c-2.8-1-5.5-2-8.3-3.1
				c-5.6-2.2-11.4-4.7-17.1-7.6c-5.8-3-11.5-6.4-17.1-10.5c-5.6-4.1-10.9-8.9-15.6-14.4c-4.7-5.5-8.8-11.7-12-18.2
				c-3.3-6.5-5.7-13.4-7.3-20.4c-1.6-7-2.4-14.2-2.5-21.2c-0.1-7,0.5-13.9,1.6-20.5c0.5-3.3,1.2-6.6,1.9-9.6l0.5-2.2l0.6-2.5
				c0.4-1.7,0.9-3.3,1.4-5c2-6.6,4.6-13.1,7.7-19.2c3.1-6,6.5-11.6,10.1-16.7c3.5-5.1,7-10,10.6-14.6l2.6-3.5l2.7-3.5
				c1.8-2.4,3.8-4.8,5.8-7.2c4-4.8,8.3-9.5,12.6-13.8c4.3-4.4,8.5-8.1,12.2-11.9c3.8-3.7,7.4-7.6,11.1-11.7c1.8-2,3.6-4.1,5.4-6.2
				l2.5-3c0.8-1,1.6-2,2.4-3c3.2-4,6-8.2,8.7-12.7c1.3-2.3,2.6-4.6,3.9-7c1.3-2.4,2.5-4.9,3.8-7.4l7.7-15.4
				c4.9-9.7,8.8-20.1,11.9-30.8C1287.5,1648.5,1289.7,1637.3,1291.1,1625.7z"/>
		</g>
		<g>
			<path fill="#8B5F35" d="M1948.9,1625.7c1.4,11.4,3.5,22.4,6.5,33.1c0.7,2.7,1.6,5.3,2.4,7.9l1.3,3.9l1.4,3.8
				c1.9,5.1,3.9,10.1,6.2,14.9l3.7,7.5l3.7,7.7l3.6,7.4c1.2,2.4,2.5,4.7,3.7,7c2.5,4.5,5.2,8.7,8.2,12.7c1.5,2,3,4,4.6,6l2.5,3.1
				c0.9,1,1.7,2.1,2.6,3.1c3.5,4.1,7,8,10.6,11.8c1.8,1.9,3.7,3.8,5.6,5.7c1.9,2,4,3.9,6,6.1c4.1,4.3,8.4,8.9,12.2,13.7
				c1,1.2,1.9,2.4,2.8,3.6c0.9,1.2,1.9,2.4,2.8,3.6l2.7,3.6l2.5,3.4c3.4,4.6,6.7,9.3,10.1,14.4c3.4,5,6.7,10.4,9.7,16.3
				c3,5.9,5.6,12.2,7.7,18.6c1,3.2,1.9,6.5,2.6,9.7c0.2,0.9,0.3,1.5,0.5,2.2l0.5,2.2c0.3,1.5,0.6,3.1,0.9,4.7c1.1,6.4,1.8,13,2,19.8
				c0.1,6.8-0.4,13.7-1.6,20.6c-1.2,6.9-3.2,13.7-6,20.3c-2.8,6.5-6.3,12.8-10.6,18.5c-4.2,5.8-9.2,10.9-14.4,15.4
				c-5.2,4.5-10.9,8.2-16.5,11.4c-5.6,3.2-11.3,5.9-16.8,8.2c-5.6,2.4-10.6,4.3-16.8,6.5c-6,2-12.2,3.7-18.4,4.9
				c-6.3,1.1-12.6,1.8-18.8,2c-6.2,0.2-12.3,0-18.2-0.5c-5.9-0.5-11.7-1.2-17.4-2.1l-8.5-1.3l-4.2-0.7c-1.4-0.2-2.9-0.5-4.4-0.8
				c-5.9-1.2-12.1-2.7-17.8-5.5c-2.9-1.4-5.7-3.1-8.1-5.1c-2.5-2-4.7-4.3-6.5-6.8c-3.6-5-5.9-10.6-6.9-16.3c3.1,4.9,6.8,9,11.2,12
				c4.3,3,9,4.8,13.9,5.6c4.9,0.8,10,0.8,15.4,0.4l16.7-1.2c11.1-0.9,21.9-1.8,31.9-4c5-1.1,9.8-2.4,14.5-4
				c4.7-1.6,9.2-3.6,13.7-5.8c4.2-2.2,9.4-5,14-7.6c4.6-2.6,8.9-5.2,12.8-8c3.9-2.8,7.5-5.7,10.6-8.8c3.1-3.1,5.8-6.4,8-9.9
				c4.5-6.9,7.4-14.9,8.6-23.4c0.6-4.2,0.9-8.6,0.7-13.1c-0.1-4.5-0.6-9.1-1.5-13.8c-0.2-1.2-0.4-2.4-0.7-3.6l-0.4-1.9
				c-0.1-0.6-0.3-1.4-0.4-1.9c-0.5-2.3-1.1-4.5-1.7-6.6c-1.3-4.3-2.9-8.5-4.9-12.7c-4-8.5-9.7-17.4-15.7-26.9l-2.3-3.5l-2.2-3.3
				c-0.7-1.1-1.4-2.2-2.2-3.3c-0.7-1.1-1.4-2.2-2.2-3.2c-3-4.3-5.9-8.3-9.3-12.4l-5.3-6.5c-1.8-2.3-3.7-4.6-5.5-7
				c-3.6-4.8-7.1-9.8-10.3-14.8c-0.8-1.2-1.6-2.5-2.4-3.8l-1.2-1.9l-0.6-0.9l-0.6-1c-1.6-2.7-3.1-5.4-4.5-8.2
				c-2.8-5.6-5.3-11.5-7.3-17.3c-2-5.8-3.5-11.6-4.9-17.1c-0.7-2.8-1.3-5.5-2-8.3l-2-8.5c-2.6-11.7-4-23.6-3.9-35.3
				C1944.7,1648.4,1946,1636.8,1948.9,1625.7z"/>
		</g>
		<g>
			<path fill="#8B5F35" d="M1173.8,1025.4c-3.5,14-5.8,28-6.6,42c-0.4,7-0.5,14-0.2,20.9l0.1,2.6l0.2,2.6c0.1,1.7,0.2,3.4,0.4,5.1
				c0.3,3.4,0.8,6.7,1.3,10.1c1.1,6.7,2.6,13.4,4.4,20c0.9,3.3,1.8,6.6,2.9,9.8c0.5,1.6,1,3.2,1.6,4.9l1.7,4.8
				c4.6,12.8,10.3,25.2,16.7,37.1l2.4,4.4l1.2,2.2l1.3,2.2l5.2,8.7c1.7,2.9,3.7,5.6,5.5,8.5l2.8,4.2c0.9,1.4,1.8,2.8,2.9,4.1
				c4.1,5.3,7.9,10.8,12.3,15.9l3.2,3.9l1.6,1.9l1.7,1.9l6.7,7.4c9.2,9.7,18.9,18.9,29.1,27.5c10.2,8.6,21,16.6,32.1,24.2
				c11.1,7.6,22.6,14.7,34.7,21.9l4.4,2.6l4.3,2.5c2.9,1.6,5.8,3.2,8.7,4.8c5.9,3.1,11.9,6.1,18,9c12.1,5.8,24.5,11.1,37.1,16
				l9.4,3.6l9.5,3.3c3.2,1.1,6.4,2.1,9.6,3.2c3.2,1.1,6.4,2,9.6,3c6.4,2,12.9,3.7,19.4,5.5l9.8,2.4l4.9,1.2l4.9,1l9.8,2.1l9.9,1.9
				c3.3,0.7,6.6,1.2,9.9,1.7l5,0.8c1.6,0.3,3.3,0.5,5,0.7c13.2,1.9,26.6,3.2,39.9,4c13.4,0.8,26.7,1.2,40.2,1
				c13.5-0.2,26.9-0.8,40.9-1.8c13.5-0.9,26.9-2.2,40.3-4c26.8-3.5,53.3-8.9,79.4-15.9l4.9-1.3c1.6-0.4,3.2-0.9,4.9-1.4
				c3.2-1,6.5-1.9,9.7-2.9c3.2-1,6.5-2,9.7-3l9.6-3.2c13.4-4.7,26.4-9.1,38.9-14.1c12.5-4.9,24.7-10.2,36.5-16.2
				c11.8-6,23.3-12.6,34.4-19.9c2.8-1.8,5.6-3.6,8.3-5.6l4.1-2.9l2.1-1.4l2.2-1.6c5.8-4.2,11.3-8.2,16.7-12.3
				c5.4-4.1,10.7-8.2,15.7-12.5c5.1-4.3,9.9-8.7,14.7-13.3l3.5-3.5l1.7-1.7l1.7-1.8l3.4-3.6c1.1-1.2,2.2-2.5,3.3-3.7
				c1.1-1.2,2.2-2.5,3.2-3.7l3.1-3.8c2.1-2.5,4-5.2,6.1-7.8l1.5-2l1.4-2l2.8-4.1c1-1.3,1.8-2.8,2.7-4.2l2.7-4.2
				c3.7-5.9,7-11.6,10.2-17.5c6.3-11.8,11.4-24.1,15.5-36.9c4-12.9,6.7-26.2,8.4-39.9c3.1-27.3,1-55.7-5.7-83.7
				c13.7,25.3,22.2,54.2,24.4,84l0.4,5.6c0.1,1.9,0.1,3.7,0.2,5.6c0,1.9,0.1,3.8,0.1,5.6l-0.1,5.6c-0.2,7.5-0.8,15.1-1.9,22.6
				c-2.1,15.1-5.8,30-10.9,44.5c-2.6,7.2-5.5,14.3-8.5,21.1l-2.4,5.2c-0.8,1.7-1.6,3.5-2.5,5.2l-2.6,5.1l-1.3,2.6l-1.4,2.5
				c-7.5,13.5-16.3,26.4-26.1,38.4c-9.8,12-20.6,23.1-31.6,33.3c-5.5,5.1-11.1,10-16.5,14.8l-2,1.8l-2.2,1.8l-4.4,3.7
				c-2.9,2.5-5.9,4.8-8.9,7.2c-12,9.5-24.7,18.2-37.8,26.2c-3.3,2-6.6,3.9-9.9,5.8c-3.4,1.8-6.7,3.7-10.1,5.5
				c-3.4,1.8-6.8,3.6-10.2,5.2c-1.7,0.8-3.4,1.7-5.1,2.5l-5.1,2.4c-13.7,6.4-27.4,12.1-40.8,17.5c-13.9,5.6-28.1,10.6-42.5,15.2
				c-28.7,9.1-58.2,15.8-88,20.4c-14.9,2.3-29.9,3.9-44.9,5.1c-14.6,1.1-29.6,1.9-44.8,2.1c-15.1,0.2-30.3-0.3-45.5-1.4
				c-1.9-0.1-3.8-0.2-5.7-0.4l-5.7-0.5c-3.8-0.4-7.6-0.7-11.3-1.2c-3.8-0.5-7.6-0.9-11.3-1.4l-11.3-1.7c-1.9-0.3-3.8-0.6-5.6-0.9
				l-5.6-1c-3.7-0.7-7.5-1.3-11.2-2.2l-11.1-2.4l-11.1-2.7l-5.5-1.4l-5.5-1.5l-11-3.1c-7.2-2.2-14.5-4.5-21.6-7.1
				c-3.6-1.2-7.2-2.5-10.7-3.8c-3.5-1.4-7.1-2.6-10.6-4l-10.5-4.3l-10.4-4.5c-13.8-6.2-27.3-13-40.6-20.3
				c-6.6-3.7-13.1-7.6-19.6-11.6c-3.2-2-6.5-4.1-9.7-6.2c-1.6-1-3.2-2.1-4.8-3.2l-4.6-3.2c-3-2.1-6-4.2-9-6.4l-4.5-3.3l-4.5-3.3
				c-3-2.2-6-4.5-8.9-6.8c-3-2.3-5.9-4.7-8.8-7.1c-11.7-9.6-22.9-19.9-33.6-30.8c-10.6-11-20.5-22.6-29.7-34.8l-6.7-9.3l-1.7-2.3
				l-1.6-2.4l-3.1-4.8c-4.2-6.3-7.9-13-11.6-19.6c-1-1.6-1.8-3.4-2.6-5.1l-2.5-5.1c-1.7-3.4-3.5-6.7-4.9-10.3l-4.5-10.4l-1.1-2.6
				l-1-2.7l-2-5.3c-5.1-14.2-9.3-28.8-11.9-43.6c-1.4-7.4-2.4-14.9-3.1-22.4c-0.7-7.5-0.9-15-0.7-22.6c0.1-3.8,0.3-7.6,0.6-11.3
				c0.2-1.9,0.4-3.8,0.6-5.6l0.4-2.8l0.4-2.8c1.2-7.3,2.8-14.6,4.7-21.7C1161.3,1051.6,1166.8,1038,1173.8,1025.4z"/>
		</g>
		<path fill="none" stroke="#8B5F35" stroke-width="53.5494" stroke-miterlimit="10" d="M1375.2,1414.8
			c52.4,21.7,151.7,54.4,278,45.7c90-6.1,161.2-31.1,207.2-51.5"/>
		<path fill="#8B5F35" d="M916.2,1578.3c-22.8,0-38.8,19.8-41.4,23.3c-10.2,13.6-12.5,27.4-13.4,33.1c-2.5,16.6,1.1,29.5,2.9,35.5
			c2,6.7,5.2,17.5,14.4,27.8c3.7,4.2,8.7,9.7,17.2,12.9c7.6,2.8,14.2,2.3,18.7,1.9c5-0.4,11.4-2.7,23.9-7.1
			c16.6-5.8,20.1-7.1,26.4-7.9c11-1.3,16.3,0.6,17.9,1.3c5.9,2.4,9.6,6.4,13,10.6c14.5,18.1,20.1,35.9,20.1,35.9
			c4.4,13.7,5,23.3,6.6,43.2c2.9,36.5,4.4,54.7,5.3,58.9c6.2,30.2,20.8,51.1,31.6,66.5c17.6,25.3,35.9,40.4,47.2,49.7
			c24.9,20.6,34.3,20.4,42.6,28.4c0.6,0.6,2.8,2.8,5.9,2.9c4.3,0.2,9.5-4,10.1-7.6c1.5-8.6-22.5-14.7-51.5-36.3
			c-19.2-14.3-30.9-28.2-34-32c-5.3-6.5-20.2-25.5-30.5-54.3c-6.1-16.9-8.1-35.8-12-72.7c-5.6-52.2-3-58.4-10.7-76
			c-5.7-13.1-18.1-41.1-42.7-48c-28.8-8.1-50.3,19.4-74.7,6c-10.7-5.9-15.3-16.1-16.5-19c-8.5-20.9,5.6-42.5,7-44.5
			c12.3-18.3,32.2-22.8,30.5-28.5C929,1578.3,918.3,1578.3,916.2,1578.3z"/>
		<path fill="#8B5F35" d="M1133.1,829.3c1.8,0.1,1.9,11.4,2.8,146c0.2,36,0.3,70-4.6,114.9c-3.6,32.6-7.7,51-12.4,67.2
			c-6.7,22.6-13.5,45.8-31.8,71.5c-23,32.3-50,48.6-58,53.1c-10.8,6.2-25,12.8-42.4,17.3c-15.9,4.1-32.3,8.4-52.8,4.2
			c-7.7-1.6-25-5.1-39.6-19.2c-14.1-13.8-18-30.1-21.9-47.7c-3.5-15.6-5-32.4-3-61c3.4-48.9,13.9-85.7,16.5-94.7
			c5.5-18.6,15.2-50.9,37-88.4c26.1-44.8,59.6-80.6,63.3-78c4.6,3.2-43.7,62.9-70.2,160.3c-5.7,20.9-10.6,44.2-9.8,73.1
			c0.7,26.8,2.1,81.3,30.6,96.5c33.8,18.1,94.4-24.9,124.9-63.7c0,0,44.7-56.8,52.5-167.2c0.5-6.9,0.8-13.6,0.8-13.6
			c0.6-15.7-0.1-23.6,2.2-55.4C1120.8,893.2,1128.8,829,1133.1,829.3z"/>
		<path fill="#8B5F35" d="M2103.1,822.6c-1.8,0-2.5,11.3-10.6,145.6c-2.2,35.9-4.1,69.9-1.5,115c1.9,32.8,4.9,51.4,8.8,67.7
			c5.5,23,11,46.5,27.9,73.1c21.2,33.5,47.3,51.2,55,56.2c10.4,6.7,24.3,14.1,41.4,19.5c15.7,5,31.8,10.1,52.5,7
			c7.8-1.2,25.3-3.7,40.6-17.1c14.8-13,19.6-29.1,24.5-46.5c4.3-15.3,6.7-32.1,6.3-60.8c-0.8-49.1-9.2-86.3-11.4-95.4
			c-4.5-18.9-12.4-51.6-32.2-90.3c-23.6-46.2-55.2-83.7-59-81.3c-4.8,3,40.3,65.2,61.5,163.8c4.5,21.2,8.2,44.8,5.9,73.5
			c-2.1,26.7-6.4,81-35.8,94.8c-34.8,16.2-92.9-30-121.3-70.3c0,0-41.6-59.1-43.4-169.8c-0.1-6.9-0.1-13.6-0.1-13.6
			c0.2-15.7,1.4-23.5,0.8-55.4C2111.9,887.1,2107.4,822.6,2103.1,822.6z"/>
		<path fill="#8B5F35" d="M1153.5,756.9c12.3-48.5,19-60,27.4-69c8.9-9.5,13.9-10.1,15.4-10.2c10.2-0.7,13.5,10.3,30,23.8
			c5.1,4.2,18.9,12.4,46.6,28.8c5.7,3.4,10.4,6.1,13.5,7.9c3.9-0.8,8.1-1,10,1.3c4.1,4.9-2.1,21.9-12,25.4
			c-14.5,5-25.5-23.2-64.3-36.7c-11.5-4-28.3-9.9-38-2c-7.8,6.3-4.2,16.1-15.1,34.1c-5.4,9-13.7,18.9-16.4,17.6
			C1148.8,777.1,1150,770.9,1153.5,756.9z"/>
		<path fill="#8B5F35" d="M2088.6,758.8c-7.2-49.5-12.7-61.7-20.1-71.5c-7.8-10.4-12.8-11.5-14.2-11.7c-10.1-1.7-14.5,8.8-32.3,20.6
			c-5.5,3.6-20.1,10.4-49.4,23.8c-6,2.8-11,5-14.2,6.5c-3.8-1.2-8-1.8-10.1,0.3c-4.6,4.5-0.2,22,9.3,26.5
			c13.9,6.5,27.8-20.4,67.8-29.8c11.9-2.8,29.2-6.9,38,2c7.1,7.1,2.6,16.4,11.5,35.5c4.4,9.5,11.6,20.3,14.5,19.2
			C2091.3,779.3,2090.7,773,2088.6,758.8z"/>
		<path fill="#8B5F35" d="M1506.5,1739c-2.2,0.2,0.3,24.9,0.7,58.2c0,0,1.2,112.2,16.7,127.6c1.7,1.7,3.6,3,3.6,3
			c3.8,2.4,7.5,2.6,21.3,11c15.2,9.3,35.3,21.7,48.3,43.2c10.7,17.7,9.3,29.7,15.4,30.4c8.9,0.9,8.6-25.4,32.8-47.5
			c9.8-8.9,27.9-25.5,47.9-30.9c2.6-0.7,9.3-2.3,13.8-8.1c5-6.6,4.2-15,4-17.9c-2.2-28.3,13-46.9,11.8-119.6c0-3-0.6-39.6-3.8-39.7
			c-5.1-0.2,5.9,94.7-47.9,145.4c-6.3,5.9-28.3,26.7-57.2,25c-8.3-0.5-23.9-3.2-43-19.8C1510,1846.6,1511,1738.5,1506.5,1739z"/>
		<path fill="#8B5F35" d="M1311.1,1667.2c-4.7-0.1-5.2,98.7,0.3,182.4c0,0,4.4,66.1,39.7,110.9c1.6,2,5.2,6.1,10.5,6.7
			c10.3,1.1,22.4-12.1,20.9-21.8c-1-6.4-7.8-10.1-9-10.8c-12.5-7.6-30.6-57-57.2-204.2C1314.7,1678.6,1312.7,1667.2,1311.1,1667.2z"
			/>
		<path fill="#8B5F35" d="M1923.3,1658.6c4.7-0.1,5.2,98.7-0.3,182.4c0,0-4.4,66.1-39.7,110.9c-1.6,2-5.2,6.1-10.5,6.7
			c-10.3,1.1-22.4-12.1-20.9-21.8c1-6.4,7.8-10.1,9-10.8c12.5-7.6,30.6-57,57.2-204.2C1919.7,1670,1921.7,1658.6,1923.3,1658.6z"/>
		<path fill="#8B5F35" d="M1823,2023.8c-2.1-1.7-31.3,21.2-49.2,57.9c0,0-15,30.7-7.5,55.8c0.7,2.4,2.5,8.4,7.5,10.3
			c3.3,1.2,6.9,0.4,8.6-0.5c9.3-4.8,0.3-29.7,1.2-51.5C1785.3,2052.9,1825.3,2025.7,1823,2023.8z"/>
		<path fill="#8B5F35" d="M1212.1,2025.2c-1.6-1.4-24.4,17.2-38.3,46.8c0,0-11.7,24.8-5.9,45.2c0.6,2,2,6.8,5.9,8.4
			c2.5,1,5.4,0.3,6.7-0.4c7.3-3.9,0.2-24.1,0.9-41.7C1182.8,2048.8,1214,2026.8,1212.1,2025.2z"/>
		<path fill="#8B5F35" d="M1290.3,2015.7c-1.9-1.8-28.2,21.9-44.3,59.6c0,0-13.5,31.6-6.8,57.5c0.7,2.5,2.3,8.7,6.8,10.7
			c2.9,1.3,6.2,0.4,7.7-0.5c8.4-5,0.3-30.6,1.1-53.1C1256.4,2045.8,1292.4,2017.7,1290.3,2015.7z"/>
		<path fill="#8B5F35" d="M1414.6,2027.8c1.9-1.7,28.8,20.9,45.3,57.1c0,0,13.8,30.2,6.9,55c-0.7,2.4-2.3,8.3-6.9,10.2
			c-3,1.2-6.3,0.4-7.9-0.5c-8.6-4.8-0.3-29.3-1.1-50.8C1449.2,2056.6,1412.4,2029.8,1414.6,2027.8z"/>
		<path fill="#8B5F35" d="M1531.5,1992.4c1.6-2.1,24.1,25.4,37.9,69.2c0,0,11.5,36.7,5.8,66.8c-0.6,2.9-1.9,10.1-5.8,12.4
			c-2.5,1.5-5.3,0.5-6.6-0.6c-7.2-5.8-0.2-35.6-0.9-61.6C1560.5,2027.2,1529.7,1994.7,1531.5,1992.4z"/>
		<path fill="#8B5F35" d="M1709.4,1989.5c-1.6-2.1-24.4,25.4-38.4,69.2c0,0-11.7,36.7-5.9,66.8c0.6,2.9,2,10.1,5.9,12.4
			c2.5,1.5,5.4,0.5,6.7-0.6c7.3-5.8,0.2-35.6,0.9-61.6C1680,2024.4,1711.2,1991.8,1709.4,1989.5z"/>
		<path fill="#8B5F35" d="M1946.4,2020.2c1.8-1.8,27.3,22,43,59.8c0,0,13.1,31.7,6.6,57.7c-0.6,2.5-2.2,8.7-6.6,10.7
			c-2.8,1.3-6,0.4-7.5-0.5c-8.1-5-0.3-30.8-1-53.3C1979.2,2050.3,1944.3,2022.2,1946.4,2020.2z"/>
		<path fill="#8B5F35" d="M2019.2,2020.1c1.8-1.5,27.3,18.9,43,51.6c0,0,13.1,27.4,6.6,49.8c-0.6,2.2-2.2,7.5-6.6,9.2
			c-2.8,1.1-6,0.3-7.5-0.5c-8.1-4.3-0.3-26.5-1-46C2052.1,2046.1,2017.1,2021.9,2019.2,2020.1z"/>
	</g>
</g>
</svg>
