<?xml version="1.0" encoding="utf-8"?>
<!-- Generator: Adobe Illustrator 21.0.0, SVG Export Plug-In . SVG Version: 6.00 Build 0)  -->

		<svg id="sppoty-total" xmlns="http://www.w3.org/2000/svg" xmlns:xlink="http://www.w3.org/1999/xlink" x="0px" y="0px" viewBox="0 0 3186.3 2724.3" enable-background="new 0 0 3186.3 2724.3" xml:space="preserve"><g id="color_x5F_03_1_">
	<g>
		<path fill="#53291D" d="M1541.6,589.3c-52.5,2.3-122.3,16.8-188,73.3c-2.4,2-4,3.5-5.7,5c-81.6,73.6-127,181.5-134.5,205.8
			c-7.2,23.3-4.7,117.4-46.2,175.8c-11.3,16-42.5,105.7,17.3,196.2c16,24.1,85.6,109.4,156.7,146.2c53.3,27.6,131.7,64.8,262.3,65.2
			c109.3,0.3,203.3-17.3,331-92.1c39.6-23.2,80.6-71.5,114.8-119.4c35-49.2,45.3-153.9,10.9-199.1c-22.2-29.2-41.7-154.7-54-189.9
			c-30.7-88-60.5-140.3-118.8-188.5c-80.7-66.8-174.7-76.9-219-81.7C1616,580.6,1571.8,584.6,1541.6,589.3z"></path>
		<path fill="#53291D" d="M1380.9,1414.8c0,0-71.7,120.8-82.8,169.9c-17.1,75.1-25.1,114.6-42.1,135.6
			c-66.8,82.8-88.6,106-95.2,160.1c-7.8,64.9,51.3,89.9,51.3,89.9s-59.7,5.9-77.3,76.1c-7.4,29.7-7.4,85,43.1,81.2
			c5.4-0.4,28.9,36.8,74,18c11.6-4.8,9.6,30.5,96.6,1.6c8.7-2.9,33.1,26.1,109.8-0.4c6-2.1,36.5,31,105.7-7.5
			c3.3-1.8,28.1,3.3,54.1-14.2c6.4-4.3,20.2,25.5,59.1,12.6c8.2-2.7,24,36.3,101.2,8.4c11.8-4.3,18.7,31.2,109.1-0.6
			c13.4-4.7,24.5,33.5,90.4,2.5c9.1-4.3,55.8,22.6,76.4-17c5-9.6,53.8,1.7,55.5-51.3c1.3-42.7-10.6-98.5-80.3-107.7
			c-11.9-1.6,57.7-17.8,48.8-97.3c-3-26.8-47.4-92.8-94-146.7c-12.5-14.4-39.9-126.6-46.3-145.3c-6.4-18.7-77.5-138.9-81.4-173.5"></path>
		<path fill="#53291D" d="M1310.3,1650.8c0,0,5,191.9,70.8,296.8c0,0-138.9,97.6-26.2,199.7c32.3,29.3,103.5-0.3,103.5-0.3"></path>
		<path fill="#53291D" d="M1922.5,1640.8c0,0-5,191.9-70.8,296.8c0,0,138.7,112.1,23.2,205.8c-39.2,31.8-96.2,2.8-96.2,2.8"></path>
		<path fill="#53291D" d="M1510.6,1650.8c0,0-5.8,131-1.7,166.8c3.6,31.8,10,101,14.5,106.5c4.5,5.6,119.9,31.2,99.8,188.5
			c-3.8,29.8-58.6,30.1-61.9,25.1"></path>
		<path fill="#53291D" d="M1730.6,1637.8c0,0-14.6,66-9.8,120.1c3.9,44.1-6.8,173.1-16.7,172.9c-29.8-0.6-92.2,61.6-83.4,93.6
			l6.6,37.2l-1.7,61.5"></path>
		<path fill="#53291D" d="M1556.9,2141.4c9.6-7.6,4.4-135.3-36.3-154.8"></path>
		<path fill="#53291D" d="M1455.3,2148c3.1-4.4-8.7-105.8-44.6-122.4"></path>
		<path fill="#53291D" d="M1984.3,2148c2.9-4.6-8.1-112.6-41.6-130.2"></path>
		<path fill="#53291D" d="M2050,2135.5c2.9-4.3,19-88.1-35.9-115.5"></path>
		<path fill="#53291D" d="M1781.7,2143.9c0,0-8.9-84.2,44.1-120.5"></path>
		<path fill="#53291D" d="M1680.1,2135.5c0,0-12.6-122.7,40.7-148.9"></path>
		<path fill="#53291D" d="M1255.2,2143.9c0,0-11.2-102.3,42.1-128.5"></path>
		<path fill="#53291D" d="M1184,2131.1c0,0-19.1-83.1,34.2-109.3"></path>
		<path fill="#53291D" d="M1208.5,1968.6c0,0,65.3,31,135.6,14"></path>
		<path fill="#53291D" d="M2032.1,1969.6c0,0-74.7,39-135.9,18.2"></path>
		<path fill="#53291D" d="M1370.6,649.2c0,0-221.5-201.9-351.5-197.9s11.5,461,175.7,528"></path>
		<path fill="#53291D" d="M1869.7,649.2c0,0,221.5-201.9,351.5-197.9s-11.5,461-175.7,528"></path>
		<path fill="#53291D" d="M1266.2,752.6c0,0-104.1-181.4-219.4-250.6"></path>
		<path fill="#53291D" d="M1963.1,752.6c0,0,104.1-181.4,219.4-250.6"></path>
		<path fill="#53291D" d="M1177.1,1939c-25.9,5.6-134,25.8-216.4-38.7c-64.6-50.6-85.1-128.9-96.6-174
			c-21.7-84.5-11.2-154.2-23-155.3c-10.2-1-24.6,50.5-29,68.3c-4.3,17.6-6.3,32.8-7.3,44c-3.6-1.7-8.2-4.5-12.7-9
			c-9.6-9.7-12.2-21.1-13-26c-7.9,13.7-30.4,56.8-23,114c6.2,48.1,30.3,80.2,41,93c11,12.6,12.1,16.7,11,18c-0.5,0.6-3,2.5-37-15
			c-24.2-12.4-26.4-15.2-28-14c-11.5,8.6,22.6,139.6,130,199c80.9,44.7,183.7,37.9,267.5-14.5c4.3-9.9,17-35.8,45.7-50.1
			c9.4-4.7,18.4-7.1,25.8-8.3c-4.9-1.3-15.7-4.9-24.9-14.9C1181.7,1949.5,1178.7,1943.2,1177.1,1939z"></path>
	</g>
	<g>
		<g>
			<path fill="#431A1A" d="M1291.1,1625.7c2.9,11.3,4.2,23.2,4.2,35.1c0,12-1.6,24.1-4.6,36l-2.2,8.5l-2.2,8.4
				c-0.7,2.9-1.5,5.7-2.4,8.6c-0.9,2.9-1.9,5.9-3,8.8c-2.2,5.9-4.9,11.8-8,17.4c-0.8,1.4-1.6,2.8-2.4,4.1c-0.8,1.3-1.7,2.8-2.5,4
				c-1.6,2.5-3.3,5-5,7.5c-3.4,5-7.1,10-11,14.8c-3.9,4.8-7.8,9.2-11.2,13.3c-3.4,4.1-6.5,8.2-9.6,12.5c-1.5,2.2-3,4.4-4.5,6.6
				l-2.3,3.4l-2.4,3.6c-6.3,9.4-12.2,18.4-16.2,26.8c-2,4.2-3.6,8.4-4.9,12.9c-0.3,1.1-0.6,2.2-0.9,3.3l-0.4,1.7l-0.4,2
				c-0.6,2.6-1,5-1.4,7.3c-0.8,4.7-1.2,9.3-1.2,13.8c0,4.5,0.4,8.8,1.2,13c0.8,4.2,2.1,8.2,3.8,12.1c1.7,3.9,3.8,7.5,6.3,10.9
				c1.3,1.7,2.7,3.3,4.2,4.9c1.5,1.6,3.1,3.2,4.8,4.7c3.5,3,7.3,5.9,11.6,8.6c4.2,2.7,8.8,5.3,13.7,7.8c2.4,1.3,4.9,2.6,7.5,3.9
				c2.3,1.1,4.6,2.4,6.9,3.4c2.3,1.1,4.7,2,7,3c2.4,0.9,4.8,1.8,7.2,2.5c4.9,1.6,9.9,2.8,15.1,3.8c5.2,1,10.5,1.7,16,2.3
				c5.5,0.6,11.1,1,16.8,1.4l17,1.2c5.4,0.3,10.7,0.3,15.8-0.5c5-0.8,9.9-2.5,14.4-5.5c4.5-3,8.4-7.1,11.6-12
				c-1.1,5.8-3.5,11.4-7.4,16.4c-1.9,2.5-4.2,4.7-6.8,6.7c-2.5,2-5.4,3.6-8.3,5c-5.9,2.8-12.1,4.3-18.1,5.5c-1.5,0.3-3,0.6-4.5,0.8
				l-4.3,0.7l-8.6,1.3c-5.8,0.8-11.7,1.5-17.7,2.1c-3,0.3-6,0.5-9.1,0.6c-1.5,0.1-3.1,0.1-4.6,0.1c-1.6,0-3.1,0-4.7,0
				c-6.2-0.1-12.6-0.6-19-1.6c-3.2-0.5-6.3-1.2-9.5-1.8c-3.1-0.8-6.3-1.5-9.3-2.5c-3.1-0.9-6.1-2-9.1-3.1c-2.8-1-5.5-2-8.3-3.1
				c-5.6-2.2-11.4-4.7-17.1-7.6c-5.8-3-11.5-6.4-17.1-10.5c-5.6-4.1-10.9-8.9-15.6-14.4c-4.7-5.5-8.8-11.7-12-18.2
				c-3.3-6.5-5.7-13.4-7.3-20.4c-1.6-7-2.4-14.2-2.5-21.2c-0.1-7,0.5-13.9,1.6-20.5c0.5-3.3,1.2-6.6,1.9-9.6l0.5-2.2l0.6-2.5
				c0.4-1.7,0.9-3.3,1.4-5c2-6.6,4.6-13.1,7.7-19.2c3.1-6,6.5-11.6,10.1-16.7c3.5-5.1,7-10,10.6-14.6l2.6-3.5l2.7-3.5
				c1.8-2.4,3.8-4.8,5.8-7.2c4-4.8,8.3-9.5,12.6-13.8c4.3-4.4,8.5-8.1,12.2-11.9c3.8-3.7,7.4-7.6,11.1-11.7c1.8-2,3.6-4.1,5.4-6.2
				l2.5-3c0.8-1,1.6-2,2.4-3c3.2-4,6-8.2,8.7-12.7c1.3-2.3,2.6-4.6,3.9-7c1.3-2.4,2.5-4.9,3.8-7.4l7.7-15.4
				c4.9-9.7,8.8-20.1,11.9-30.8C1287.5,1648.5,1289.7,1637.3,1291.1,1625.7z"></path>
		</g>
		<g>
			<path fill="#431A1A" d="M1948.9,1625.7c1.5,11.4,3.7,22.4,6.6,33c3,10.6,6.7,20.8,11.3,30.5l3.6,7.5l3.7,7.7l3.6,7.4
				c1.2,2.4,2.4,4.8,3.7,7c2.5,4.5,5.2,8.7,8.1,12.8c1.5,2,3,4,4.6,6l0.6,0.7l0.6,0.8l1.3,1.6c0.9,1,1.7,2.1,2.6,3.1
				c3.5,4.1,7,8,10.6,11.8c1.8,1.9,3.7,3.8,5.6,5.7c1.9,2,4,3.9,6,6.1c4.1,4.3,8.4,8.9,12.2,13.7c1,1.2,1.9,2.4,2.8,3.6
				c0.9,1.2,1.9,2.4,2.8,3.6l2.7,3.6l2.5,3.4c3.4,4.6,6.7,9.3,10.1,14.4c3.4,5,6.7,10.4,9.7,16.3c3,5.9,5.6,12.2,7.7,18.6
				c1,3.2,1.9,6.5,2.6,9.7c0.2,0.9,0.3,1.5,0.5,2.2l0.5,2.2c0.3,1.5,0.6,3.1,0.9,4.7c1.1,6.4,1.8,13,2,19.8
				c0.1,6.8-0.4,13.7-1.6,20.6c-2.5,13.8-8,27.3-16.5,38.8c-4.3,5.7-9.2,10.9-14.4,15.4c-5.2,4.5-10.9,8.2-16.5,11.4
				c-5.6,3.2-11.3,5.9-16.8,8.2c-5.6,2.4-10.6,4.3-16.8,6.5c-6,2-12.2,3.7-18.4,4.9c-6.3,1.1-12.6,1.8-18.8,2
				c-6.2,0.2-12.3,0-18.2-0.5c-5.9-0.5-11.7-1.2-17.4-2.1l-8.5-1.3l-4.2-0.7c-1.4-0.2-2.9-0.5-4.4-0.8c-5.9-1.2-12.1-2.7-17.8-5.5
				c-2.9-1.4-5.7-3.1-8.1-5.1c-2.5-2-4.7-4.3-6.5-6.8c-3.6-5-5.9-10.6-6.8-16.3c3.1,4.9,6.8,9,11.2,12c4.3,3,9,4.8,13.9,5.6
				c4.9,0.8,10,0.8,15.4,0.4l8.3-0.6l8.4-0.6c11.1-0.9,21.9-1.8,31.9-4c5-1.1,9.8-2.4,14.5-4c4.7-1.6,9.2-3.6,13.7-5.8l6.8-3.6
				l3.6-2c1.2-0.7,2.3-1.3,3.5-2c4.6-2.6,8.9-5.2,12.8-8c3.9-2.8,7.5-5.7,10.6-8.8c3.1-3.1,5.7-6.4,8-9.9c2.3-3.4,4-7.2,5.5-11.1
				c1.4-3.9,2.5-8,3.1-12.3c1.3-8.5,0.9-17.5-0.8-26.9c-0.2-1.2-0.4-2.4-0.7-3.6l-0.4-1.9c-0.1-0.6-0.3-1.4-0.4-1.9
				c-0.5-2.3-1.1-4.5-1.7-6.6c-1.3-4.3-2.9-8.5-4.9-12.7c-4-8.5-9.7-17.4-15.7-26.9l-2.3-3.5l-2.2-3.3c-0.7-1.1-1.4-2.2-2.2-3.3
				c-0.7-1.1-1.4-2.2-2.2-3.2c-3-4.3-5.9-8.3-9.3-12.4l-5.3-6.5c-1.8-2.3-3.7-4.6-5.5-7c-3.6-4.8-7.1-9.8-10.3-14.8
				c-1.6-2.5-3.1-4.9-4.7-7.6c-1.6-2.7-3.1-5.4-4.6-8.2c-2.9-5.6-5.4-11.4-7.3-17.3c-2-5.8-3.6-11.6-5-17.1l-2-8.3l-1-4.1
				c-0.3-1.4-0.7-2.9-1-4.4c-1.3-5.9-2.3-11.8-2.9-17.7c-0.6-5.9-0.9-11.8-0.8-17.7C1944.6,1648.4,1946,1636.8,1948.9,1625.7z"></path>
		</g>
		<path fill="#431A1A" d="M1506.5,1739c-2.2,0.2,0.3,24.9,0.7,58.2c0,0,1.2,112.2,16.7,127.6c1.7,1.7,3.6,3,3.6,3
			c3.8,2.4,7.5,2.6,21.3,11c15.2,9.3,35.3,21.7,48.3,43.2c10.7,17.7,9.3,29.7,15.4,30.4c8.9,0.9,8.6-25.4,32.8-47.5
			c9.8-8.9,27.9-25.5,47.9-30.9c2.6-0.7,9.3-2.3,13.8-8.1c5-6.6,4.2-15,4-17.9c-2.2-28.3,13-46.9,11.8-119.6c0-3-0.6-39.6-3.8-39.7
			c-5.1-0.2,5.9,94.7-47.9,145.4c-6.3,5.9-28.3,26.7-57.2,25c-8.3-0.5-23.9-3.2-43-19.8C1510,1846.6,1511,1738.5,1506.5,1739z"></path>
		<path fill="#431A1A" d="M1311.1,1667.2c-4.7-0.1-5.2,98.7,0.3,182.4c0,0,4.4,66.1,39.7,110.9c1.6,2,5.2,6.1,10.5,6.7
			c10.3,1.1,22.4-12.1,20.9-21.8c-1-6.4-7.8-10.1-9-10.8c-12.5-7.6-30.6-57-57.2-204.2C1314.7,1678.6,1312.7,1667.2,1311.1,1667.2z"></path>
		<path fill="#431A1A" d="M1923.3,1658.6c4.7-0.1,5.2,98.7-0.3,182.4c0,0-4.4,66.1-39.7,110.9c-1.6,2-5.2,6.1-10.5,6.7
			c-10.3,1.1-22.4-12.1-20.9-21.8c1-6.4,7.8-10.1,9-10.8c12.5-7.6,30.6-57,57.2-204.2C1919.7,1670,1921.7,1658.6,1923.3,1658.6z"></path>
		<path fill="#431A1A" d="M1823,2023.8c-2.1-1.7-31.3,21.2-49.2,57.9c0,0-15,30.7-7.5,55.8c0.7,2.4,2.5,8.4,7.5,10.3
			c3.3,1.2,6.9,0.4,8.6-0.5c9.3-4.8,0.3-29.7,1.2-51.5C1785.3,2052.9,1825.3,2025.7,1823,2023.8z"></path>
		<path fill="#431A1A" d="M1212.1,2025.2c-1.6-1.4-24.4,17.2-38.3,46.8c0,0-11.7,24.8-5.9,45.2c0.6,2,2,6.8,5.9,8.4
			c2.5,1,5.4,0.3,6.7-0.4c7.3-3.9,0.2-24.1,0.9-41.7C1182.8,2048.8,1214,2026.8,1212.1,2025.2z"></path>
		<path fill="#431A1A" d="M1290.3,2015.7c-1.9-1.8-28.2,21.9-44.3,59.6c0,0-13.5,31.6-6.8,57.5c0.7,2.5,2.3,8.7,6.8,10.7
			c2.9,1.3,6.2,0.4,7.7-0.5c8.4-5,0.3-30.6,1.1-53.1C1256.4,2045.8,1292.4,2017.7,1290.3,2015.7z"></path>
		<path fill="#431A1A" d="M1414.6,2027.8c1.9-1.7,28.8,20.9,45.3,57.1c0,0,13.8,30.2,6.9,55c-0.7,2.4-2.3,8.3-6.9,10.2
			c-3,1.2-6.3,0.4-7.9-0.5c-8.6-4.8-0.3-29.3-1.1-50.8C1449.2,2056.6,1412.4,2029.8,1414.6,2027.8z"></path>
		<path fill="#431A1A" d="M1531.5,1992.4c1.6-2.1,24.1,25.4,37.9,69.2c0,0,11.5,36.7,5.8,66.8c-0.6,2.9-1.9,10.1-5.8,12.4
			c-2.5,1.5-5.3,0.5-6.6-0.6c-7.2-5.8-0.2-35.6-0.9-61.6C1560.5,2027.2,1529.7,1994.7,1531.5,1992.4z"></path>
		<path fill="#431A1A" d="M1709.4,1989.5c-1.6-2.1-24.4,25.4-38.4,69.2c0,0-11.7,36.7-5.9,66.8c0.6,2.9,2,10.1,5.9,12.4
			c2.5,1.5,5.4,0.5,6.7-0.6c7.3-5.8,0.2-35.6,0.9-61.6C1680,2024.4,1711.2,1991.8,1709.4,1989.5z"></path>
		<path fill="#431A1A" d="M1946.4,2020.2c1.8-1.8,27.3,22,43,59.8c0,0,13.1,31.7,6.6,57.7c-0.6,2.5-2.2,8.7-6.6,10.7
			c-2.8,1.3-6,0.4-7.5-0.5c-8.1-5-0.3-30.8-1-53.3C1979.2,2050.3,1944.3,2022.2,1946.4,2020.2z"></path>
		<path fill="#431A1A" d="M2019.2,2020.1c1.8-1.5,27.3,18.9,43,51.6c0,0,13.1,27.4,6.6,49.8c-0.6,2.2-2.2,7.5-6.6,9.2
			c-2.8,1.1-6,0.3-7.5-0.5c-8.1-4.3-0.3-26.5-1-46C2052.1,2046.1,2017.1,2021.9,2019.2,2020.1z"></path>
		<g>
			<path fill="#431A1A" d="M1173.8,1025.4c-3.5,14-5.8,28.1-6.6,42.2c-0.4,7-0.5,14-0.2,20.9l0.1,2.6l0.2,2.6
				c0.1,1.7,0.2,3.4,0.4,5.1c0.3,3.4,0.8,6.7,1.3,10.1c1.1,6.7,2.7,13.4,4.4,20c0.9,3.3,1.8,6.6,2.9,9.8c1,3.3,2.2,6.5,3.3,9.7
				c4.6,12.8,10.4,25.2,16.8,37.2l2.5,4.5c0.8,1.5,1.7,3,2.6,4.4l5.3,8.7l1.3,2.2l1.4,2.1l2.8,4.2l2.8,4.2l1.4,2.1
				c0.5,0.7,1,1.3,1.5,2l6.1,8.1l1.5,2l1.6,1.9l3.2,3.9c4.2,5.2,8.8,10.1,13.3,15.1c9.3,9.7,19,18.9,29.3,27.5
				c10.3,8.6,21.1,16.6,32.3,24.2c11.2,7.6,22.7,14.7,34.9,21.9c3,1.8,5.7,3.4,8.7,5c1.4,0.8,2.9,1.6,4.4,2.4
				c1.5,0.8,2.9,1.6,4.4,2.4c5.9,3.2,12,6.1,18,9c24.4,11.5,49.7,21.3,75.6,29l4.8,1.5l4.9,1.3l4.9,1.3c1.6,0.5,3.2,0.9,4.9,1.3
				c6.5,1.6,13,3.3,19.6,4.6c3.3,0.7,6.6,1.5,9.9,2.1l9.9,1.9l2.5,0.5l2.5,0.4l5,0.8c3.3,0.5,6.6,1.1,10,1.5
				c13.3,1.9,26.6,3.1,40,3.9c13.4,0.8,26.8,1.1,40.3,0.8c13.5-0.2,27.1-0.9,41-1.9c13.5-0.9,27-2.3,40.4-4.1
				c26.9-3.6,53.5-9.1,79.6-16.2c3.3-0.9,6.5-1.8,9.8-2.8l4.9-1.4l4.9-1.5c3.2-1,6.5-2,9.7-3.1l4.8-1.6c1.6-0.5,3.2-1.1,4.9-1.7
				c6.7-2.3,13.3-4.6,19.8-6.9c6.4-2.4,12.9-4.7,19.1-7.2c3.2-1.2,6.2-2.6,9.3-3.8c3.1-1.3,6.1-2.7,9.2-4c6.1-2.8,12.1-5.6,17.9-8.7
				c11.8-6.1,23.3-12.8,34.4-20.1c22.2-14.8,43.3-31.9,62.3-51.1c9.5-9.6,18.6-19.7,26.9-30.3c2.1-2.6,4.1-5.3,6.1-8
				c1-1.3,2-2.7,2.9-4.1c1-1.4,1.9-2.7,2.9-4.2c4-5.9,7.8-11.6,11.3-17.3c7.1-11.5,13.2-23.4,18.1-35.9c4.9-12.6,8.4-25.8,10.9-39.3
				c4.8-27.1,4.5-55.7-0.4-84.2c12,26.3,18.7,55.6,19,85.7c0,3.7,0,7.5-0.2,11.3c-0.1,1.9-0.2,3.8-0.3,5.7l-0.5,5.6
				c-0.7,7.5-1.8,15.1-3.4,22.6c-3.1,15-8,29.7-14,43.7c-3,7-6.3,13.8-9.5,20.3c-0.8,1.6-1.6,3.4-2.5,5.1c-0.9,1.7-1.8,3.4-2.7,5.1
				c-1.8,3.4-3.7,6.7-5.7,10c-3.9,6.6-8,13-12.3,19.2c-2.1,3.2-4.4,6.2-6.6,9.3c-2.2,3.1-4.6,6-6.9,9.1c-9.4,12-19.5,23.3-30.2,34.1
				c-10.8,10.7-22.1,21-34.2,30.5c-12,9.6-24.7,18.4-37.8,26.5c-13.1,8.1-26.7,15.3-40.5,21.8c-6.9,3.3-13.8,6.3-20.6,9.3
				c-6.8,2.9-13.7,5.7-20.4,8.4c-1.6,0.7-3.4,1.4-5.2,2l-5.3,2.1c-3.5,1.4-7.1,2.7-10.6,4l-5.3,1.9l-5.4,1.8
				c-3.6,1.2-7.1,2.4-10.8,3.5c-28.8,9.2-58.3,16.1-88.2,20.8c-14.9,2.3-30,4-45.1,5.3c-14.7,1.1-29.7,2-44.9,2.2
				c-30.3,0.4-60.9-1.6-91.1-6.3c-15-2.5-30-5.3-44.8-9.1c-7.4-1.7-14.7-3.9-22-6c-3.7-1-7.3-2.2-10.9-3.4l-5.4-1.7l-5.4-1.9
				c-7.2-2.4-14.3-5.1-21.4-7.8l-10.5-4.3c-3.5-1.5-7-3-10.4-4.5c-13.9-6.1-27.4-12.9-40.7-20.2c-6.6-3.7-13.2-7.5-19.7-11.6
				c-1.6-1-3.2-2-4.9-3.1c-1.6-1-3.2-2.1-4.8-3.1c-3.2-2.1-6.5-4.3-9.5-6.5c-3-2.1-6-4.2-9-6.4l-4.5-3.3l-4.5-3.3l-4.5-3.4l-4.5-3.5
				l-4.5-3.5l-4.4-3.6c-11.8-9.6-23.1-19.9-33.8-30.8c-10.6-11-20.6-22.6-29.9-34.8c-4.5-6.2-9-12.4-13-18.9l-3.1-4.8l-1.5-2.4
				l-1.4-2.5l-5.7-10c-0.5-0.8-1-1.6-1.4-2.5l-1.3-2.6l-2.6-5.1l-2.5-5.1l-1.3-2.6l-1.1-2.6c-3-7-6.1-13.9-8.6-21.1
				c-5.2-14.2-9.3-28.8-12.1-43.7c-1.4-7.4-2.4-14.9-3.1-22.4c-0.7-7.5-0.9-15.1-0.8-22.6c0.1-3.8,0.3-7.6,0.6-11.4
				c0.2-1.9,0.4-3.8,0.6-5.6l0.4-2.8l0.4-2.8c1.2-7.4,2.8-14.6,4.7-21.7C1161.3,1051.7,1166.8,1038,1173.8,1025.4z"></path>
		</g>
		<path fill="none" stroke="#431A1A" stroke-width="66.937" stroke-miterlimit="10" d="M1375.2,1414.8
			c52.4,21.7,151.7,54.4,278,45.7c90-6.1,161.2-31.1,207.2-51.5"></path>
		<path fill="#431A1A" d="M1046.8,502c1.6-1.8,46.4,31.6,90.7,76.6c53.9,54.8,133.7,180.3,133.7,180.3l-33.4,58.3
			c0,0-32.6-127.6-127.3-239.5C1075.9,536.8,1045.3,503.6,1046.8,502z"></path>
		<path fill="#431A1A" d="M2183.5,502c-1.6-1.8-46.4,31.6-90.7,76.6c-53.9,54.8-133.7,180.3-133.7,180.3l33.4,58.3
			c0,0,32.6-127.6,127.3-239.5C2154.4,536.8,2185,503.6,2183.5,502z"></path>
		<path fill="#431A1A" d="M970,511.6c-7.8,1.8-0.3,74,13.7,135.1c20.4,89,53.7,149.6,76.5,190.4c6,10.7,27.8,39.6,71.4,97.3
			c5.7,7.5,57.5,42.4,57.5,42.4l9.1-2.9l7.2-40.8c3.6,4.7-80.8-75.5-144.4-170.1C990.4,657.6,980.5,509.2,970,511.6z"></path>
		<path fill="#431A1A" d="M2268.3,511.6c7.8,1.8,0.3,74-13.7,135.1c-20.4,89-53.7,149.6-76.5,190.4c-6,10.7-27.8,39.6-71.4,97.3
			c-5.7,7.5-57.5,42.4-57.5,42.4l-9.1-2.9l-7.2-40.8c-3.6,4.7,80.8-75.5,144.4-170.1C2247.9,657.6,2257.8,509.2,2268.3,511.6z"></path>
		<path fill="#431A1A" d="M1140.6,2028.8c0,0-33.6,24.9-72.2,32.6c-45.5,9.1-68.9,13.9-103.5,10.2c-38.2-4-65.7-15.7-74.1-19.5
			c-7.9-3.5-38.8-17.8-70.4-48.2c-20.6-19.9-32.5-37.9-42.1-52.6c-18.3-28.1-30.4-55.7-36.1-86.3c-2-10.7-2.9-16-0.9-17.3
			c13.3-8.5,72.8,140.8,187.7,176.7c99.9,31.2,220.4-12.5,220.4-12.5L1140.6,2028.8z"></path>
		<path fill="#431A1A" d="M775.1,1655.6c-15.1,37.3-22.7,56-24,78c-1.9,32.3,6.9,56.1,14,75.3c6.3,17,16.3,37.6,36,54
			c8.2,6.8,10,6.2,10.5,5.8c5.8-3.8-26.1-43-36.6-102.4c-2.3-12.9-7.1-39.9-2.7-74c2.6-20.1,8.6-43.6,6.7-44.1
			C778.2,1648.1,776.1,1653.4,775.1,1655.6z"></path>
	</g>
</g><g id="stripe_x5F_01_x5F_04_1_">
	<path fill="#DD963A" d="M1613.8,947.4c0.3-0.2-119.5,17.4-162.3,104.9c-36,73.5-22.6,106.3-12.2,120.4
		c16.8,22.7,42.2,30.6,71.8,37.3c24.2,5.5,103.7-1.2,102.6-8.1C1613,1196.6,1613.8,947.4,1613.8,947.4z"></path>
	<path fill="#DD963A" d="M1613.8,947.4c-0.3-0.2,119.5,17.4,162.3,104.9c36,73.5,22.6,106.3,12.2,120.4
		c-16.8,22.7-42.2,30.6-71.8,37.3c-24.2,5.5-103.7-1.2-102.6-8.1C1614.6,1196.6,1613.8,947.4,1613.8,947.4z"></path>
	<circle fill="#DD963A" cx="1169.8" cy="818.8" r="37.7"></circle>
	<path fill="#DD963A" d="M1200.5,1971.5c10-2.5,13.8,1.6,41.3,8.5c16.1,4,24.1,6.1,34.4,6.4c13,0.4,14.1-2,33.2-2.6
		c22.9-0.8,23.7,3.3,30.9-0.2c10.8-5.3,15.3-17.3,26.5-23.8c4.5-2.6,9.4-5,9.4-5c0,0,3.8-1.8,7.8-3.5c56.8-23.3,89.5-24.8,89.5-24.8
		c20.4-0.9,41.2-1.9,62.3,9.2c10.9,5.7,12.6,9.8,41,27.2c11.5,7.1,14.3,8.2,18.3,12.9c14,16,10.5,35.4,17.5,36.7
		c2.7,0.5,5.6-2.1,14.8-14.9c15.7-21.8,13.8-26.7,23.7-35.3c9.1-7.9,11.8-4.7,24.4-15.3c4.8-4,8.2-7.7,15-10.3
		c4.2-1.6,7.2-1.8,15.1-2.5c17.4-1.5,18.3-2,23.5-2.3c55.8-3.3,105.9-6.2,133.3,21.7c12.4,12.7,15.3,26.7,33.9,34.1
		c1.9,0.8,7.6,2.4,26.4,3.6c13.9,0.9,37.1,2.2,64.5-4.9c24.3-6.2,27.9-12.9,45.7-12.3c14.9,0.5,25.8,5.5,29.3,7.2
		c19.7,9.7,28.9,26.1,34.1,35.5c8.2,14.5,10.2,26.5,13.3,44.3c3.8,21.7,5.7,33.9-1.6,43.5c-4.2,5.6-11,9.6-18.2,13.9
		c-4.7,2.8-9.5,5.7-16.6,7.8c-10.9,3.3-13,0.4-18.6,3.9c-7.1,4.3-5.7,10-13.1,15.9c-6.1,4.9-13,5.8-16.6,6.3
		c-12.7,1.7-16.8-4.3-35.6-4.1c-4.4,0-7.6,0.4-8.3,0.4c-14.2,1.6-18.9,6.2-30.4,9.2c-10.5,2.7-19,2.1-27.1,1.5
		c-11.3-0.8-18.6-1.4-26-6.3c-5.2-3.5-5.6-6-10-7.1c-6.4-1.6-11,2.3-20.2,5.9c-7.4,2.9-12.9,3.7-22.5,5.1
		c-8.1,1.2-21.4,3.1-36.3-0.5c-16.2-3.9-16-9.8-27.6-10.5c-13.3-0.7-14.8,7.1-31.8,10c-3.4,0.6-22.8,4-41.4-5
		c-10.1-4.9-15.1-11.1-26.8-11.7c-1.2-0.1-1,0-13.1,0.8c-13.7,0.8-20.6,1.3-22.2,0.7c-1-0.3-7.3-4.2-20-12c-1.5-0.9-2.7-1.7-4.6-2.1
		c-6-1.3-10.3,2.6-16.5,5.7c-10,5-19.9,5.4-26.5,5.6c-9.7,0.3-10.4-1.8-16.6-0.4c-9.1,1.9-12.3,7.3-19.6,12.3
		c-16.3,11.1-36.6,8.5-39.6,8.1c-12.1-1.5-16.7-6.4-37.8-9.4c-4.8-0.7-7.1-0.8-9.2-0.8c-12.4,0.1-18.9,5-28.6,8.5
		c-2.5,0.9-16.8,5.9-33.7,3.6c-9.3-1.3-18.8-4.7-30.9-9c-8.2-3-8-3.3-10.9-3.9c-11.6-2.3-18.1,2.7-32.7,7.1
		c-17,5.1-31.3,9.3-41.9,2.7c-5.2-3.3-7.6-8-16.3-10.9c-5.1-1.7-9.7-2-12.1-2c-7.3,0-10.1,2.1-17.2,3.6c-5.6,1.2-13.5,2.8-21.4,0.2
		c-8.3-2.7-8.9-7.5-22.2-13.3c-3.3-1.4-5.8-2.3-7.4-2.8c-14.9-4.9-20.8-2.5-27.9-5.7c-6.9-3.2-9.9-9.4-14.7-19.6
		c-2.8-5.8-10-21.5-8.8-42.9c1.6-29.1,17.7-48.5,22.3-53.9c5.5-6.4,12.1-11.7,25.4-22.3C1188.6,1977.8,1194.8,1972.9,1200.5,1971.5z
		"></path>
	<path fill="#DD963A" d="M1178.8,483.9c0,0-0.1-0.1-0.1-0.1C1177.1,482.5,1172.5,479.7,1178.8,483.9z"></path>
	<path fill="#DD963A" d="M1183.2,505.9c-17.2-9.7-35.6-17.7-53.8-25.4c-12.1-5.1-24.3-9.9-36.6-14.5c-11.6-4.3-23-8.3-35.3-10.1
		c-10.8-1.4-21.2-3-31.5-7c-1.5-0.6-2.9-1.1-4.4-1.6c-15.8,7.2-30,17.2-42.2,29.2c-0.7,2.6-1.7,5.1-2.9,7.6
		c-0.2,0.4-0.3,0.7-0.5,1.1c-1.4,3.8-2.7,7.6-3.8,11.5c0.2,5.2,0.3,10.4,0.3,15.7c0,16.7-1.8,32.9-4,49.3l0-0.2
		c-1,7.6-1.7,15.2-1.1,22.9c3.2,18.1,9.6,35.6,15.2,53.1c3.6,11.3,5.9,23,7.1,34.8c0.6,5.9,0.6,11.9,0.9,17.9c1.1,2.7,2.1,5.5,3,8.3
		c24.8,19,55.8,30.3,89.5,30.3c81.4,0,147.5-66,147.5-147.5c0-17.6-3.1-34.4-8.7-50.1C1209.2,522.6,1196.6,513.5,1183.2,505.9z"></path>
</g><g id="form_1_">
	<path fill="none" stroke="#000000" stroke-width="13.3874" stroke-linecap="round" stroke-linejoin="round" d="M1541.6,589.3
		c-52.5,2.3-122.3,16.8-188,73.3c-2.4,2-4,3.5-5.7,5c-81.6,73.6-127,181.5-134.5,205.8c-7.2,23.3-4.7,117.4-46.2,175.8
		c-11.3,16-42.5,105.7,17.3,196.2c16,24.1,85.6,109.4,156.7,146.2c53.3,27.6,131.7,64.8,262.3,65.2c109.3,0.3,203.3-17.3,331-92.1
		c39.6-23.2,80.6-71.5,114.8-119.4c35-49.2,45.3-153.9,10.9-199.1c-22.2-29.2-41.7-154.7-54-189.9c-30.7-88-60.5-140.3-118.8-188.5
		c-80.7-66.8-174.7-76.9-219-81.7C1616,580.6,1571.8,584.6,1541.6,589.3z"></path>
	<path fill="none" stroke="#000000" stroke-width="13.3874" stroke-linecap="round" stroke-linejoin="round" d="M1380.9,1414.8
		c0,0-71.7,120.8-82.8,169.9c-17.1,75.1-25.1,114.6-42.1,135.6c-66.8,82.8-88.6,106-95.2,160.1c-7.8,64.9,51.3,89.9,51.3,89.9
		s-59.7,5.9-77.3,76.1c-7.4,29.7-7.4,85,43.1,81.2c5.4-0.4,28.9,36.8,74,18c11.6-4.8,9.6,30.5,96.6,1.6c8.7-2.9,33.1,26.1,109.8-0.4
		c6-2.1,36.5,31,105.7-7.5c3.3-1.8,28.1,3.3,54.1-14.2c6.4-4.3,20.2,25.5,59.1,12.6c8.2-2.7,24,36.3,101.2,8.4
		c11.8-4.3,18.7,31.2,109.1-0.6c13.4-4.7,24.5,33.5,90.4,2.5c9.1-4.3,55.8,22.6,76.4-17c5-9.6,53.8,1.7,55.5-51.3
		c1.3-42.7-10.6-98.5-80.3-107.7c-11.9-1.6,57.7-17.8,48.8-97.3c-3-26.8-47.4-92.8-94-146.7c-12.5-14.4-39.9-126.6-46.3-145.3
		c-6.4-18.7-77.5-138.9-81.4-173.5"></path>
	<g>
		<path d="M1310.3,1650.8c2.4,25.6,5.6,51,9.5,76.3c1.9,12.7,4.1,25.3,6.4,37.8c1.2,6.3,2.4,12.5,3.7,18.8
			c1.3,6.3,2.6,12.5,4.1,18.7c5.8,24.8,12.5,49.4,20.9,73.3c4.2,11.9,8.9,23.7,14.1,35.1c5.2,11.5,11.1,22.6,17.7,33.1
			c1.9,3,1.1,6.9-1.7,8.9l-0.2,0.1l-2,1.5l-2.1,1.6c-1.4,1.1-2.7,2.2-4.1,3.3c-2.7,2.2-5.3,4.5-7.9,6.9c-5.2,4.7-10.1,9.7-14.8,14.9
			c-9.4,10.4-17.7,21.6-24.2,33.7c-3.3,6.1-6,12.3-8.2,18.8c-2.1,6.5-3.7,13.1-4.4,19.8c-1.6,13.4,0.2,27.1,4.8,39.9
			c4.7,12.8,12.1,24.8,21.2,35.4c4.5,5.4,9.3,10.5,14.4,15.4c4.7,4.5,10.6,7.8,17.1,9.8c6.5,2,13.4,3.1,20.4,3.4
			c7,0.3,14.1-0.1,21.2-1c7.1-0.8,14.1-2.1,21.1-3.7c7-1.6,14-3.5,20.8-5.8c-13.1,6-27,10.5-41.3,13.5c-7.2,1.4-14.5,2.3-21.9,2.6
			c-7.4,0.2-14.9-0.3-22.3-2.2c-7.4-1.9-14.6-5.3-20.7-10.5c-5.5-4.8-10.9-9.9-15.9-15.4c-10-11-18.5-23.6-24.2-37.7
			c-2.8-7.1-4.9-14.5-6-22c-1.2-7.6-1.3-15.3-0.6-23c0.6-7.6,2.3-15.2,4.5-22.4c2.3-7.3,5.2-14.3,8.7-20.9
			c7-13.4,15.8-25.5,25.7-36.6c5-5.5,10.2-10.8,15.6-15.8c2.7-2.5,5.5-5,8.4-7.3c1.4-1.2,2.9-2.4,4.3-3.5l2.2-1.7
			c0.8-0.6,1.5-1.1,2.4-1.7l-1.8,9c-14-22.4-24.2-46.6-32.5-71.3c-4.1-12.3-7.7-24.8-10.9-37.4c-3.2-12.6-5.9-25.2-8.3-37.9
			c-2.4-12.7-4.5-25.4-6.2-38.2c-1.7-12.8-3.2-25.6-4.3-38.4c-1.1-12.8-2-25.7-2.5-38.5c-0.3-6.4-0.5-12.9-0.6-19.3
			C1310.2,1663.7,1310.1,1657.2,1310.3,1650.8z"></path>
	</g>
	<g>
		<path d="M1922.5,1640.8c0.2,6.4,0.1,12.9,0.1,19.3c-0.1,6.4-0.3,12.9-0.6,19.3c-0.5,12.9-1.4,25.7-2.5,38.5
			c-1.2,12.8-2.6,25.6-4.3,38.4c-1.7,12.8-3.8,25.5-6.2,38.2c-2.4,12.7-5.1,25.4-8.3,37.9c-3.1,12.6-6.8,25-10.9,37.4
			c-8.2,24.6-18.5,48.8-32.5,71.3l-1.5-8.8c1.6,1.3,2.9,2.5,4.3,3.7c1.4,1.2,2.7,2.5,4.1,3.8c2.7,2.5,5.3,5.1,7.9,7.7
			c5.1,5.3,10.1,10.8,14.8,16.4c9.3,11.4,17.8,23.7,24.6,36.9c6.8,13.3,12,27.6,14.1,42.7c2.1,15,1,30.7-4,45.1
			c-4.9,14.4-13.2,27.4-23.1,38.4c-4.9,5.6-10.4,10.6-16,15.3c-1.4,1.2-2.8,2.3-4.3,3.5c-1.4,1.1-3,2.3-4.6,3.3
			c-3.2,2.1-6.5,3.9-10,5.5c-3.5,1.5-7.1,2.8-10.7,3.7c-3.6,0.9-7.4,1.5-11.1,1.9c-7.4,0.7-14.8,0.5-22.1-0.5
			c-14.5-2.2-28.4-6.8-41.1-13.7c6.7,2.7,13.5,4.8,20.5,6.4c6.9,1.6,14,2.7,21,3.1c7,0.4,14.1,0.1,20.9-1.1c3.4-0.6,6.8-1.4,10-2.5
			c3.2-1.1,6.4-2.3,9.4-3.9c3-1.6,5.9-3.3,8.6-5.4c1.4-1,2.6-2.1,3.9-3.2c1.3-1.1,2.6-2.3,3.9-3.5c5.2-4.7,10-9.8,14.5-15.1
			c8.9-10.6,16-22.6,19.9-35.6c1.9-6.5,3.1-13.1,3.5-19.8c0.4-6.7,0-13.5-1.1-20.2c-2.2-13.4-7.1-26.4-13.5-38.5
			c-6.5-12.2-14.5-23.7-23.4-34.4c-4.5-5.4-9.2-10.6-14.1-15.6c-2.5-2.5-5-4.9-7.5-7.3c-1.3-1.2-2.6-2.4-3.9-3.5
			c-1.3-1.1-2.6-2.3-3.8-3.3l-0.1,0c-2.6-2.2-3.2-5.9-1.4-8.7c6.6-10.6,12.5-21.7,17.7-33.1c5.3-11.4,9.9-23.2,14.1-35.1
			c8.5-23.9,15.2-48.5,20.9-73.3c1.4-6.2,2.8-12.4,4.1-18.7c1.3-6.3,2.5-12.5,3.7-18.8c2.4-12.6,4.5-25.2,6.4-37.8
			C1916.9,1691.8,1920,1666.4,1922.5,1640.8z"></path>
	</g>
	<g>
		<path d="M1510.6,1650.8c0.5,24.3,0.5,48.5,0.9,72.8c0.1,12.1,0.2,24.2,0.5,36.3c0.2,12.1,0.5,24.2,1.1,36.2c0.3,6,0.6,12,1.2,17.8
			c0.3,2.8,0.7,5.9,1.1,8.9l1.1,9l4.3,36.1c1.5,12,2.9,24,4.8,35.8c0.5,2.9,0.9,5.9,1.5,8.7c0.3,1.4,0.6,2.8,0.9,4.2
			c0.3,1.3,0.7,2.7,1,3.5c0.1,0.2,0.1,0.4,0.1,0.3c0,0,0-0.1,0-0.1c0,0-0.1-0.2-0.2-0.3l-0.1-0.2c-0.1-0.1-0.2-0.3-0.4-0.4l-0.2-0.2
			l-0.2-0.1c-0.3-0.2-0.1-0.1,0.1,0c0.2,0.1,0.4,0.2,0.7,0.4c1.1,0.5,2.5,1.1,3.9,1.7c2.8,1.2,5.6,2.4,8.5,3.8
			c11.3,5.3,22.3,11.8,32.3,19.6c10,7.8,19,16.9,26.6,27.1c7.6,10.2,13.8,21.3,18.4,33.1c4.7,11.7,7.8,24,9.6,36.3
			c0.9,6.2,1.5,12.4,1.9,18.6c0.3,6.2,0.4,12.4,0.2,18.6c-0.2,6.2-0.6,12.3-1.3,18.4c-0.3,3.1-0.7,6.1-1.1,9.1l-0.6,4.6l-0.3,2.3
			l-0.2,1.2c-0.1,0.4-0.2,0.8-0.3,1.3c-0.8,3.4-2.3,6.6-4.2,9.3c-2,2.8-4.4,5.1-7.1,7c-5.3,3.8-11.3,6.1-17.4,7.5
			c-6.1,1.4-12.2,2.2-18.3,2.2c-3.1,0-6.1-0.1-9.2-0.5c-1.5-0.2-3-0.4-4.5-0.8c-0.7-0.2-1.5-0.4-2.2-0.7c-0.7-0.3-1.4-0.6-1.9-1.3
			c0.5,0.6,1.3,0.8,2,1c0.7,0.2,1.5,0.3,2.2,0.4c1.5,0.2,3,0.3,4.5,0.3c3,0,6-0.1,9-0.5c6-0.6,11.8-1.9,17.4-3.8
			c5.6-1.9,10.9-4.5,15.3-8.1c2.2-1.8,4-3.9,5.4-6.1c1.4-2.3,2.3-4.8,2.7-7.4c0.1-0.3,0.1-0.6,0.1-1l0.1-1l0.2-2.2l0.4-4.5
			c0.2-3,0.4-6,0.5-9c0.3-6,0.3-11.9,0.2-17.9c-0.3-11.9-1.4-23.7-3.7-35.3c-2.2-11.6-5.6-22.9-10.2-33.6
			c-4.6-10.7-10.5-20.8-17.6-29.9c-7.1-9.1-15.4-17.3-24.6-24.3c-9.2-7.1-19.2-13-29.9-17.9c-2.7-1.2-5.3-2.4-8.1-3.7
			c-1.4-0.6-2.8-1.2-4.4-2c-0.4-0.2-0.8-0.4-1.3-0.7c-0.5-0.3-1-0.5-1.9-1.2c-0.1-0.1-0.3-0.2-0.4-0.3c-0.2-0.1-0.2-0.2-0.4-0.4
			c-0.2-0.2-0.4-0.4-0.6-0.6c-0.1-0.2-0.2-0.3-0.3-0.4c-0.2-0.2-0.4-0.6-0.5-0.8l-0.3-0.6c-0.4-0.7-0.6-1.3-0.8-1.8
			c-0.7-2-1.1-3.6-1.4-5.2c-0.4-1.6-0.7-3.2-0.9-4.7c-0.6-3.1-1-6.1-1.5-9.2c-1.7-12.2-3.1-24.3-4.3-36.4
			c-1.2-12.1-2.4-24.2-3.5-36.2l-0.8-9c-0.3-3-0.6-6-0.8-9.2c-0.4-6.3-0.5-12.4-0.6-18.5c-0.1-24.4,1.1-48.7,2.4-72.9
			C1506.3,1699.2,1508,1675,1510.6,1650.8z"></path>
	</g>
	<g>
		<path d="M1730.6,1637.8c-1.3,8.9-2.3,17.8-3.3,26.7c-0.9,8.9-1.7,17.8-2.3,26.8c-1.1,17.8-1.5,35.7-0.4,53.3
			c0.2,4.4,0.7,8.8,1.1,13.2c0.5,4.6,0.8,9.2,1,13.7c0.4,9.1,0.5,18.2,0.4,27.2c-0.1,9-0.3,18.1-0.7,27.1c-0.4,9-0.9,18-1.6,27
			c-1.4,18-3.1,36-6.1,54.1c-0.8,4.5-1.6,9-2.7,13.7c-0.6,2.3-1.2,4.6-2.1,7.1c-0.4,1.2-0.9,2.5-1.7,4c-0.4,0.8-0.9,1.6-1.8,2.6
			c-0.3,0.3-0.5,0.5-0.9,0.9c-0.2,0.2-0.3,0.3-0.6,0.5c-0.2,0.2-0.5,0.3-0.7,0.5c-0.2,0.1-0.6,0.3-0.9,0.5c-0.2,0.1-0.3,0.1-0.5,0.2
			c-0.2,0.1-0.4,0.1-0.6,0.2c-0.4,0.1-0.8,0.2-1.3,0.3c-0.2,0-0.5,0-0.7,0.1l-0.4,0c-3.1-0.1-6.9,0.8-10.6,2.3
			c-3.7,1.4-7.4,3.3-11.1,5.5c-7.2,4.3-14.2,9.5-20.6,15.3c-6.5,5.7-12.6,12-18,18.6c-5.5,6.7-10.5,13.8-14.2,21.3
			c-1.8,3.8-3.4,7.6-4.3,11.5c-0.9,3.9-1.1,7.8-0.3,11.3l0.1,0.4l0,0l2.8,18.7c0.9,6.2,1.8,12.5,2.7,18.7l0,0.3c0,0.1,0,0.3,0,0.4
			l-1.1,15.4c-0.4,5.1-0.7,10.2-1.1,15.4l-1.2,15.4c-0.5,5.1-0.9,10.2-1.4,15.3c-0.2-5.1-0.4-10.3-0.5-15.4l-0.4-15.4
			c-0.1-5.1-0.2-10.3-0.3-15.4l-0.2-15.4l0,0.6c-1.4-6.2-2.6-12.3-3.9-18.5l-3.9-18.5l0.1,0.4c-1.6-5.2-1.4-10.5-0.6-15.4
			c0.9-4.9,2.4-9.5,4.3-13.9c3.8-8.8,8.9-16.7,14.5-24.1c5.7-7.4,11.9-14.3,18.7-20.6c6.8-6.3,14.1-12.2,22.2-17.2
			c4.1-2.5,8.3-4.8,13-6.6c2.3-0.9,4.7-1.7,7.3-2.3c2.6-0.6,5.3-1,8.3-1c0.1,0,0,0-0.2,0c-0.2,0-0.3,0-0.5,0c-0.3,0-0.6,0.1-0.9,0.2
			c-0.1,0-0.3,0.1-0.4,0.1c-0.1,0-0.2,0.1-0.3,0.1c-0.2,0.1-0.4,0.2-0.5,0.3c-0.1,0.1-0.3,0.2-0.4,0.3c-0.1,0.1-0.2,0.1-0.2,0.2
			c-0.2,0.2-0.2,0.2-0.3,0.3c-0.2,0.2-0.1,0.1,0.1-0.1c0.3-0.5,0.6-1.3,0.9-2.2c0.6-1.8,1.2-3.8,1.6-5.8c1-4.1,1.8-8.4,2.5-12.7
			c1.4-8.7,2.6-17.5,3.6-26.3c1-8.8,1.9-17.7,2.7-26.6c1.6-17.8,2.9-35.6,3.7-53.4c0.4-8.9,0.7-17.8,0.7-26.6
			c0-4.4-0.1-8.8-0.3-13.2c-0.3-4.5-0.5-9.1-0.5-13.7c-0.1-18.3,1.5-36.3,4.2-54.2c0.7-4.5,1.4-8.9,2.1-13.4
			c0.8-4.4,1.7-8.9,2.6-13.3C1726.1,1655.3,1728.2,1646.5,1730.6,1637.8z"></path>
	</g>
	<g>
		<path d="M1552.7,2136.2c-0.2,0.2-0.5,0.4-0.6,0.6c-0.1,0.1-0.1,0.1-0.1,0.2c0,0,0,0,0.1-0.1c0,0,0,0,0-0.1l0.1-0.1l0.1-0.3
			l0.2-0.4c0.1-0.2,0.2-0.6,0.3-0.9c0.4-1.3,0.7-2.8,1-4.3c0.6-3.1,0.9-6.4,1.2-9.8c0.5-6.7,0.7-13.5,0.7-20.3
			c-0.1-13.7-1.1-27.4-2.9-41c-1.9-13.6-4.6-27.1-9.1-40.1c-2.3-6.5-5-12.8-8.6-18.6c-3.6-5.8-8.3-11.1-14.4-14.5
			c6.4,2.8,11.6,7.9,15.8,13.5c4.2,5.7,7.5,11.9,10.4,18.3c5.7,12.9,9.6,26.4,12.6,40.1c3,13.7,5.1,27.6,6.3,41.7
			c0.6,7,1,14.1,1,21.3c0,3.6-0.1,7.2-0.5,11c-0.2,1.9-0.4,3.8-0.9,5.9c-0.1,0.5-0.2,1-0.4,1.6l-0.2,0.8l-0.3,0.9l-0.2,0.5
			c-0.1,0.2-0.2,0.4-0.2,0.5c-0.2,0.4-0.3,0.7-0.6,1.1c-0.3,0.4-0.6,0.9-0.9,1.3c-0.4,0.5-1,1.1-1.5,1.5c-2.9,2.3-7.1,1.8-9.4-1.1
			C1549.3,2142.7,1549.8,2138.5,1552.7,2136.2z"></path>
	</g>
	<g>
		<path d="M1449.8,2144.2c-0.3,0.3-0.5,0.7-0.6,1.2l-0.1,0.3l0,0.1l0,0.1c0,0.1,0,0.1,0,0.1c0,0,0,0,0,0c0,0,0,0,0,0l0-0.1
			c0-0.1,0-0.1,0.1-0.3c0.1-0.5,0.1-1,0.1-1.6c0.1-1.2,0.1-2.5,0.1-3.9c0-2.7-0.1-5.4-0.3-8.1c-0.3-5.5-0.8-11-1.5-16.5
			c-1.3-11-3.2-22-5.8-32.8c-2.6-10.8-5.8-21.5-10.4-31.6c-2.3-5-5-9.9-8.3-14.4c-3.3-4.4-7.3-8.5-12.3-11.1
			c5.2,2.1,9.8,5.9,13.6,10c3.8,4.2,7.1,9,10,13.9c5.8,9.9,10.1,20.5,13.9,31.2c3.7,10.8,6.8,21.8,9.3,32.9
			c1.2,5.6,2.3,11.2,3.3,16.9c0.5,2.9,0.9,5.7,1.2,8.7c0.2,1.5,0.3,3,0.4,4.6c0,0.8,0.1,1.6,0,2.6c0,0.2,0,0.5,0,0.8l0,0.4l-0.1,0.5
			l-0.1,0.5c0,0.1,0,0.2-0.1,0.3l-0.1,0.4l-0.1,0.4c0,0.2,0,0.2-0.2,0.5c-0.2,0.6-0.5,1.1-0.9,1.6c-2.1,3-6.3,3.7-9.3,1.6
			C1448.4,2151.4,1447.7,2147.2,1449.8,2144.2z"></path>
	</g>
	<g>
		<path d="M1978.6,2144.5c-0.2,0.3-0.4,0.7-0.5,1.1l-0.1,0.2l0,0.1c0,0,0,0.2,0,0.2l0-0.1c0,0,0,0,0-0.1l0-0.2c0-0.1,0-0.2,0.1-0.3
			c0.1-0.5,0.1-1.1,0.1-1.8c0.1-1.3,0.1-2.7,0.1-4.1c0-2.8-0.1-5.7-0.2-8.5c-0.3-5.7-0.7-11.5-1.3-17.3c-1.2-11.5-2.8-23-5.1-34.4
			c-2.3-11.4-5.2-22.7-9.4-33.5c-2.1-5.4-4.6-10.7-7.7-15.6c-3.1-4.9-6.9-9.4-11.9-12.5c5.3,2.6,9.7,6.9,13.3,11.5
			c3.6,4.7,6.6,9.9,9.3,15.2c5.3,10.6,9.4,21.9,12.8,33.2c3.4,11.4,6.2,22.9,8.6,34.6c1.2,5.8,2.2,11.7,3,17.6c0.4,3,0.8,6,1.1,9
			c0.1,1.5,0.3,3.1,0.3,4.7c0,0.8,0.1,1.7,0,2.6c0,0.2,0,0.5,0,0.8l0,0.4l-0.1,0.5l-0.1,0.5c0,0.1-0.1,0.5-0.1,0.7l-0.1,0.4
			c0,0.1,0,0.2-0.2,0.5c-0.2,0.5-0.4,1.1-0.7,1.6c-1.9,3.1-6.1,4.1-9.2,2.2S1976.7,2147.6,1978.6,2144.5z"></path>
	</g>
	<g>
		<path d="M2044.4,2131.8c-0.1,0.1-0.2,0.3-0.3,0.5l0,0.1l0,0.1l0,0l0.1-0.1C2044.2,2132.1,2044.3,2132,2044.4,2131.8
			c0.1-0.6,0.3-1.1,0.5-1.7c0.4-1.1,0.7-2.4,1-3.6c0.6-2.5,1.1-5,1.6-7.6c0.9-5.2,1.5-10.4,1.9-15.6c0.7-10.5,0.4-21.1-1.5-31.5
			c-0.9-5.2-2.2-10.3-4-15.3c-1.8-5-4-9.8-6.8-14.3c-2.8-4.5-6.2-8.7-10-12.4c-3.9-3.7-8.3-6.9-13-9.6c4.9,2.3,9.7,5,14.1,8.4
			c4.3,3.4,8.2,7.4,11.7,11.8c3.5,4.4,6.3,9.2,8.7,14.3c2.4,5,4.4,10.3,5.9,15.7c3.1,10.8,4.6,22,5,33.2c0.2,5.6,0.1,11.2-0.3,16.9
			c-0.2,2.8-0.5,5.6-0.9,8.5c-0.2,1.4-0.4,2.9-0.7,4.4c-0.1,0.7-0.3,1.5-0.5,2.3c-0.1,0.4-0.3,0.9-0.4,1.4l-0.1,0.4l0,0.1l-0.1,0.2
			l-0.2,0.4c-0.2,0.5-0.5,0.9-0.7,1.4c-2.1,3.1-6.2,3.9-9.3,1.8S2042.3,2134.9,2044.4,2131.8z"></path>
	</g>
	<g>
		<path d="M1775,2144.6c-0.1-1.7-0.1-3-0.1-4.5c0-1.5,0-2.9,0-4.4c0.1-2.9,0.2-5.8,0.4-8.6c0.4-5.7,1-11.5,1.8-17.1
			c1.7-11.3,4.4-22.5,8.2-33.3c2-5.4,4.2-10.6,6.8-15.7c2.6-5.1,5.7-9.9,9-14.5c3.3-4.6,7.2-8.8,11.3-12.7
			c4.1-3.9,8.7-7.2,13.4-10.2c-4.4,3.5-8.5,7.2-12.2,11.4c-3.6,4.2-6.9,8.6-9.7,13.4c-2.8,4.8-5.2,9.7-7.2,14.8
			c-2,5.1-3.6,10.3-5,15.6c-2.6,10.6-4.1,21.5-4.6,32.4c-0.3,5.4-0.3,10.9-0.1,16.3c0.1,2.7,0.3,5.4,0.5,8.1c0.1,1.3,0.2,2.7,0.4,4
			c0.1,1.3,0.3,2.7,0.5,3.8c0.6,3.7-1.9,7.1-5.6,7.7s-7.1-1.9-7.7-5.6C1775,2145.1,1775,2144.9,1775,2144.6L1775,2144.6z"></path>
	</g>
	<g>
		<path d="M1673.5,2136.2c-0.2-3.6-0.3-7-0.3-10.4c0-3.4-0.1-6.9,0-10.3c0.1-6.9,0.4-13.7,0.8-20.5c0.9-13.7,2.6-27.3,5.4-40.7
			c2.9-13.4,6.9-26.7,13.3-38.9c3.2-6.1,7-11.9,11.8-16.8c4.7-5,10.2-9.2,16.4-11.9c-5.9,3.2-11,7.8-15.2,13
			c-4.2,5.2-7.4,11.1-10,17.2c-5.2,12.2-8,25.4-9.7,38.5c-1.7,13.2-2.2,26.6-2,39.9c0.1,6.7,0.4,13.3,0.9,20
			c0.2,3.3,0.5,6.6,0.8,9.9c0.3,3.3,0.7,6.6,1.1,9.8l0,0.1c0.5,3.7-2,7.1-5.7,7.6s-7.1-2-7.6-5.7
			C1673.5,2136.6,1673.5,2136.4,1673.5,2136.2z"></path>
	</g>
	<g>
		<path d="M1248.5,2144.6c-0.1-1.7-0.1-3.2-0.2-4.7c0-1.5-0.1-3.1-0.1-4.6c0-3.1,0-6.1,0.1-9.1c0.2-6.1,0.6-12.1,1.1-18.2
			c1.2-12.1,3.2-24.1,6.4-35.8c3.3-11.7,7.8-23.2,14.5-33.3c6.6-10.2,15.9-18.7,26.8-23.5c-10.4,5.9-18.6,14.9-23.9,25.2
			c-5.5,10.3-8.8,21.6-10.9,33.1c-2,11.5-2.9,23.2-2.9,34.8c0,5.8,0.2,11.7,0.5,17.5c0.2,2.9,0.4,5.8,0.7,8.7
			c0.1,1.4,0.3,2.9,0.5,4.3c0.2,1.4,0.4,2.9,0.6,4.2c0.6,3.7-1.9,7.1-5.6,7.7c-3.7,0.6-7.1-1.9-7.7-5.6
			C1248.6,2145.1,1248.5,2144.9,1248.5,2144.6L1248.5,2144.6z"></path>
	</g>
	<g>
		<path d="M1177.5,2132.6c-0.1-0.8-0.2-1.4-0.3-2.1l-0.3-2c-0.2-1.3-0.3-2.7-0.4-4c-0.2-2.7-0.5-5.3-0.6-8
			c-0.3-5.3-0.3-10.6-0.1-15.9c0.4-10.6,1.7-21.2,4.6-31.4c1.4-5.1,3.1-10.1,5.4-14.9c2.3-4.8,5-9.4,8.1-13.6c3.2-4.2,7-7.9,11-11.1
			c4.1-3.2,8.7-5.7,13.3-7.8c-4.4,2.6-8.6,5.6-12.3,9.1c-3.6,3.6-6.7,7.5-9.4,11.8c-5.1,8.6-8.3,18.2-9.8,28
			c-1.6,9.8-1.7,19.9-1.1,29.8c0.4,5,0.9,9.9,1.7,14.8c0.4,2.5,0.9,4.9,1.4,7.3c0.3,1.2,0.5,2.4,0.8,3.6l0.4,1.8
			c0.1,0.6,0.3,1.2,0.4,1.6c1.1,3.5-0.9,7.3-4.5,8.4c-3.5,1.1-7.3-0.9-8.4-4.5c-0.1-0.2-0.1-0.5-0.2-0.7L1177.5,2132.6z"></path>
	</g>
	<path fill="none" stroke="#000000" stroke-width="13.3874" stroke-linecap="round" stroke-linejoin="round" d="M1208.5,1968.6
		c0,0,65.3,31,135.6,14"></path>
	<path fill="none" stroke="#000000" stroke-width="13.3874" stroke-linecap="round" stroke-linejoin="round" d="M2032.1,1969.6
		c0,0-74.7,39-135.9,18.2"></path>
	<path fill="#1B110F" stroke="#000000" stroke-width="6.6937" stroke-linecap="round" stroke-linejoin="round" d="M1718.6,2096.7
		c-3.3,13.2,6.1,28.4,12.4,28.8c10.7,0.8,21.9-40,12.8-45.9C1738.2,2076,1722,2082.9,1718.6,2096.7z"></path>
	<path fill="#1B110F" stroke="#000000" stroke-width="6.6937" stroke-linecap="round" stroke-linejoin="round" d="M1639.5,2084.7
		c-2.1,8.6,4.4,18.6,8.6,18.9c7.1,0.6,14.2-25.8,8-29.8C1652.4,2071.4,1641.6,2075.7,1639.5,2084.7z"></path>
	<path fill="#1B110F" stroke="#000000" stroke-width="6.6937" stroke-linecap="round" stroke-linejoin="round" d="M1517.2,2098.8
		c1.7,12.5-8.5,25.4-14.3,25.2c-9.9-0.4-16.1-39-7-43.5C1501.3,2077.8,1515.5,2085.7,1517.2,2098.8z"></path>
	<path fill="#1B110F" stroke="#000000" stroke-width="6.6937" stroke-linecap="round" stroke-linejoin="round" d="M1603.2,2082.4
		c2.6,11.9-7.2,26-13.3,26.7c-10.4,1.1-19.4-35.5-10.2-41.2C1585.2,2064.4,1600.5,2070,1603.2,2082.4z"></path>
	<path fill="#1B110F" stroke="#000000" stroke-width="6.6937" stroke-linecap="round" stroke-linejoin="round" d="M1412.3,2109.2
		c1.4,10.7-7.8,22-12.9,21.8c-8.7-0.2-13.8-33.4-5.7-37.4C1398.4,2091.3,1410.8,2098,1412.3,2109.2z"></path>
	<path fill="#1B110F" stroke="#000000" stroke-width="6.6937" stroke-linecap="round" stroke-linejoin="round" d="M1270.3,2100.1
		c0.3-10.2,10.3-19.3,14.9-18.3c7.9,1.6,7.7,33.4-0.2,35.8C1280.4,2119,1270,2110.8,1270.3,2100.1z"></path>
	<path fill="#1B110F" stroke="#000000" stroke-width="6.6937" stroke-linecap="round" stroke-linejoin="round" d="M1199.8,2087.1
		c0.3-10.1,9.9-19,14.5-18.1c7.7,1.6,7.6,33-0.1,35.4C1209.6,2105.8,1199.5,2097.7,1199.8,2087.1z"></path>
	<path fill="#1B110F" stroke="#000000" stroke-width="6.6937" stroke-linecap="round" stroke-linejoin="round" d="M1148.6,2074
		c0.5-9.4,10.5-17.8,15.2-17c7.8,1.3,7,30.4-0.8,32.8C1158.2,2091.2,1148,2083.9,1148.6,2074z"></path>
	<path fill="#1B110F" stroke="#000000" stroke-width="6.6937" stroke-linecap="round" stroke-linejoin="round" d="M1820.1,2101.8
		c-2.7,13,8.7,28.8,15.6,29.7c11.8,1.6,21.2-38.5,10.7-45.1C1840.1,2082.5,1822.9,2088.1,1820.1,2101.8z"></path>
	<path fill="#1B110F" stroke="#000000" stroke-width="6.6937" stroke-linecap="round" stroke-linejoin="round" d="M1954.3,2107.3
		c-2.2-8.9-13.8-15.1-18.2-13.6c-7.6,2.6-1.4,30.2,6.9,31.1C1947.8,2125.2,1956.6,2116.5,1954.3,2107.3z"></path>
	<path fill="#1B110F" stroke="#000000" stroke-width="6.6937" stroke-linecap="round" stroke-linejoin="round" d="M2029.8,2097.2
		c-2.2-10.1-13.7-17.1-18.2-15.4c-7.6,3-1.6,34.3,6.7,35.3C2023.3,2117.7,2032,2107.7,2029.8,2097.2z"></path>
	<path fill="#1B110F" stroke="#000000" stroke-width="6.6937" stroke-linecap="round" stroke-linejoin="round" d="M2090.6,2077.1
		c-2.1-8-13.1-13.7-17.3-12.3c-7.2,2.3-1.3,27.2,6.6,28C2084.6,2093.3,2092.8,2085.5,2090.6,2077.1z"></path>
	<path fill="none" stroke="#000000" stroke-width="12" stroke-linecap="round" stroke-linejoin="round" d="M1370.6,649.2
		c0,0-221.5-201.9-351.5-197.9s11.5,461,175.7,528"></path>
	<path fill="none" stroke="#000000" stroke-width="12" stroke-linecap="round" stroke-linejoin="round" d="M1869.7,649.2
		c0,0,221.5-201.9,351.5-197.9s-11.5,461-175.7,528"></path>
	<g>
		<path d="M1260.1,756.1c-3.3-6-6.8-12-10.4-18c-3.5-6-7.2-11.9-10.8-17.8c-7.3-11.8-14.9-23.5-22.6-35.1
			c-7.8-11.6-15.7-23-23.9-34.3c-8.2-11.3-16.6-22.4-25.3-33.3c-8.7-10.9-17.6-21.7-26.8-32.1c-9.3-10.4-18.7-20.7-28.7-30.5
			c-2.4-2.5-5-4.9-7.5-7.3c-2.5-2.4-5-4.9-7.6-7.1l-7.8-7l-8-6.8c-10.8-8.9-22-17.2-33.8-24.8c12.1,7,23.7,14.9,34.9,23.4l8.3,6.4
			l8.1,6.7c2.7,2.2,5.3,4.6,8,6.9c2.6,2.3,5.3,4.6,7.9,7c10.4,9.4,20.4,19.3,30.1,29.4c9.8,10.1,19.1,20.6,28.4,31.2
			c9.2,10.6,18.1,21.5,26.9,32.5c8.7,11,17.2,22.2,25.6,33.6c8.3,11.4,16.4,22.8,24.3,34.5c7.9,11.7,15.6,23.4,23,35.5
			c2,3.3,1,7.6-2.3,9.6c-3.3,2-7.6,1-9.6-2.3C1260.2,756.4,1260.2,756.3,1260.1,756.1L1260.1,756.1z"></path>
	</g>
	<g>
		<path d="M1959.1,749.2c7.4-12.2,15.1-23.9,23-35.5c7.9-11.6,16-23.1,24.3-34.5c8.3-11.3,16.8-22.5,25.6-33.6
			c8.7-11,17.6-21.9,26.9-32.5c9.2-10.6,18.6-21.1,28.4-31.2c9.8-10.1,19.7-20,30.1-29.4c2.6-2.4,5.2-4.7,7.9-7
			c2.7-2.3,5.2-4.7,8-6.9l8.1-6.7l8.3-6.4c11.2-8.4,22.8-16.4,34.9-23.4c-11.8,7.5-23,15.9-33.8,24.8l-8,6.8l-7.8,7
			c-2.6,2.3-5.1,4.8-7.6,7.1c-2.5,2.4-5.1,4.8-7.5,7.3c-10,9.8-19.4,20-28.7,30.5c-9.3,10.4-18.1,21.2-26.8,32.1
			c-8.7,10.9-17.1,22-25.3,33.3c-8.2,11.3-16.2,22.7-23.9,34.3c-7.8,11.6-15.3,23.3-22.6,35.1c-3.7,5.9-7.3,11.9-10.8,17.8
			c-3.5,6-7.1,12-10.4,18l0,0.1c-1.9,3.4-6.1,4.6-9.5,2.7c-3.4-1.9-4.6-6.1-2.7-9.5C1958.9,749.3,1959,749.2,1959.1,749.2z"></path>
	</g>
	<path fill="none" stroke="#000000" stroke-width="12" stroke-linecap="round" stroke-linejoin="round" d="M1177.1,1939
		c-25.9,5.6-134,25.8-216.4-38.7c-64.6-50.6-85.1-128.9-96.6-174c-21.7-84.5-11.2-154.2-23-155.3c-10.2-1-24.6,50.5-29,68.3
		c-4.3,17.6-6.3,32.8-7.3,44c-3.6-1.7-8.2-4.5-12.7-9c-9.6-9.7-12.2-21.1-13-26c-7.9,13.7-30.4,56.8-23,114
		c6.2,48.1,30.3,80.2,41,93c11,12.6,12.1,16.7,11,18c-0.5,0.6-3,2.5-37-15c-24.2-12.4-26.4-15.2-28-14c-11.5,8.6,22.6,139.6,130,199
		c80.9,44.7,183.7,37.9,267.5-14.5c4.3-9.9,17-35.8,45.7-50.1c9.4-4.7,18.4-7.1,25.8-8.3c-4.9-1.3-15.7-4.9-24.9-14.9
		C1181.7,1949.5,1178.7,1943.2,1177.1,1939z"></path>
</g><g id="eye_x5F_02">
	<g id="图层_5_x5F_复制">
		<circle fill="#F9F8F7" cx="1381.4" cy="945.4" r="90.4"></circle>
		<circle fill="#6A652A" cx="1389.7" cy="955.8" r="74.1"></circle>
		<circle fill="#342C12" stroke="#0C0C0C" stroke-width="6.6937" cx="1396.6" cy="956.5" r="46.8"></circle>
		<circle fill="#201F0A" cx="1392.6" cy="956.5" r="28.2"></circle>
		<circle fill="#B39E85" cx="1420.8" cy="989.5" r="18.5"></circle>
		<circle fill="#FFFFFF" cx="1339" cy="938.4" r="32.5"></circle>
		<circle fill="#F9F8F7" cx="1847.5" cy="945.4" r="90.4"></circle>
		<circle fill="#6A652A" cx="1839.2" cy="955.8" r="74.1"></circle>
		<circle fill="#342C12" stroke="#0C0C0C" stroke-width="6.6937" cx="1832.2" cy="956.5" r="46.8"></circle>
		<circle fill="#201F0A" cx="1836.3" cy="956.5" r="28.2"></circle>
		<circle fill="#B39E85" cx="1808.1" cy="989.5" r="18.5"></circle>
		<circle fill="#FFFFFF" cx="1889.9" cy="938.4" r="32.5"></circle>
	</g>
	<g>
		<path d="M1303.5,873.1c3.4-5.5,7.7-10.5,12.2-15.2c4.6-4.7,9.5-9,14.9-12.9c5.3-3.9,11.1-7.2,17.2-9.9c1.5-0.6,3.1-1.3,4.6-1.9
			l4.8-1.6c1.6-0.5,3.2-0.9,4.9-1.3c0.8-0.2,1.6-0.4,2.5-0.5l2.5-0.5c1.6-0.3,3.3-0.4,5-0.6l2.5-0.2l2.5,0c3.4-0.1,6.7,0.2,10.1,0.5
			l5,0.8c0.8,0.1,1.6,0.3,2.5,0.6l2.4,0.7l2.4,0.7l2.4,0.9c1.6,0.6,3.1,1.1,4.7,1.8c12.2,5.4,22.8,13.6,31.3,23.4
			c-10.4-7.7-21.4-14.3-33.2-18.5c-5.9-1.9-12-3.4-18.1-3.9c-6.1-0.5-12.3-0.3-18.4,0.7c-12.2,1.9-23.8,7-34.6,13.5
			c-2.7,1.6-5.3,3.4-7.9,5.2c-1.3,0.9-2.6,1.9-3.9,2.8l-3.8,2.9C1312.9,864.2,1308.1,868.5,1303.5,873.1z"></path>
	</g>
	<path fill="none" stroke="#000000" stroke-width="10.0405" d="M1474.3,947.4c0,51.5-41.8,93.3-93.3,93.3
		c-40.5,0-74.9-25.8-87.9-61.8c-3.5-9.8-5.4-20.4-5.4-31.5c0-51.5,41.8-93.3,93.3-93.3c32.1,0,60.3,16.2,77.1,40.8
		C1468.4,909.8,1474.3,927.9,1474.3,947.4z"></path>
	<g>
		<path d="M1455.4,891c-8.7-7.4-18.1-13.6-28.1-18.5c-9.9-4.8-20.4-8.2-31-9.3c-5.3-0.6-10.6-0.6-15.8-0.2c-5.2,0.5-10.4,1.5-15.4,3
			c-2.5,0.8-5,1.6-7.4,2.6c-2.4,1-4.9,2.1-7.2,3.3c-1.2,0.6-2.3,1.2-3.5,1.8c-1.2,0.7-2.3,1.3-3.5,2c-2.3,1.4-4.6,2.8-6.8,4.4
			c-4.4,3-8.7,6.3-12.6,9.9c-4,3.6-7.6,7.4-10.9,11.6c-6.5,8.3-11.5,17.7-14.6,28c-3.1,10.2-4.2,21.1-3.8,32.2
			c0.5,11,2.3,22.2,5.8,33c-3.2-4.8-5.6-10.1-7.6-15.5c-2.1-5.4-3.6-11.1-4.7-16.8c-2.2-11.5-2.3-23.6,0.1-35.5
			c2.4-11.8,7.5-23.2,14.6-33c3.5-4.9,7.6-9.4,12-13.6c4.4-4.2,9.1-7.9,14-11.3c2.5-1.7,5-3.3,7.5-4.8c1.3-0.8,2.6-1.5,3.9-2.2
			c1.3-0.7,2.7-1.4,4-2.1c5.5-2.6,11.2-4.8,17.1-6.3c11.8-3,24.4-3.4,36.3-1c11.9,2.4,22.9,7.5,32.6,14.1c4.8,3.3,9.4,7,13.5,11
			c2.1,2,4.1,4.1,6,6.3C1452,886.4,1453.8,888.6,1455.4,891z"></path>
	</g>
	<g>
		<path d="M1292.7,971.6c-0.4-0.1-0.6-0.1-0.8-0.2c-0.2-0.1-0.4-0.1-0.6-0.2c-0.4-0.1-0.8-0.3-1.2-0.4c-0.8-0.3-1.5-0.6-2.3-1
			c-0.8-0.3-1.5-0.7-2.2-1.1l-2.1-1.2c-2.8-1.6-5.4-3.5-7.7-5.5c-1.2-1-2.3-2.2-3.3-3.3c-0.5-0.6-1-1.2-1.5-1.8
			c-0.2-0.3-0.5-0.6-0.7-0.9l-0.7-0.9c-1.8-2.4-3.1-5.2-4.2-7.8c2.1,2.1,4.1,4,6.5,5.4l0.9,0.6c0.3,0.2,0.6,0.3,0.9,0.5
			c0.6,0.3,1.2,0.7,1.8,1c1.3,0.5,2.5,1.1,3.7,1.5c2.5,0.9,5.1,1.5,7.6,1.8l1.9,0.2c0.6,0,1.3,0.1,1.9,0.1c0.6,0,1.3,0,1.9,0
			c0.3,0,0.6,0,0.9,0c0.2,0,0.3,0,0.4,0c0.1,0,0.3,0,0.3-0.1L1292.7,971.6z"></path>
	</g>
	<g id="图层_17">
		<path fill="#151211" d="M1392.8,715.8c32.2-20.2,66-14,66-14c7.6,1.4,19.9,3.8,31.3,13.3c3.8,3.2,18.5,15.4,15.3,27.3
			c-1.1,4-4.3,8.8-9.3,10.7c-13.2,4.8-21.6-17.3-49.3-26c-4.9-1.5-31.3-9.8-54,1.3c-4.9,2.4-12.5,7.1-14,5.3
			c-1.3-1.6,2.9-7.6,5.6-10.7C1385.4,722,1388.4,718.5,1392.8,715.8z"></path>
		<path fill="#151211" d="M1499.2,712.9c10.6,2.5,16.2,10.7,16.2,10.7c1.3,1.8,3.3,4.8,3.6,9.1c0.1,1.4,0.6,6.8-2.4,8.6
			c-1,0.6-2.7,0.9-4,0.2c-3.7-1.7-0.9-7.9-4.7-15.3c-0.7-1.3-4.4-8.3-11.2-10.7c-1.5-0.5-4-1.1-3.9-1.8c0-0.6,2.1-0.9,3.3-1
			C1496.5,712.6,1497.8,712.5,1499.2,712.9z"></path>
		<path fill="#151211" d="M1836,715.8c-32.2-20.2-66-14-66-14c-7.6,1.4-19.9,3.8-31.3,13.3c-3.8,3.2-18.5,15.4-15.3,27.3
			c1.1,4,4.3,8.8,9.3,10.7c13.2,4.8,21.6-17.3,49.3-26c4.9-1.5,31.3-9.8,54,1.3c4.9,2.4,12.5,7.1,14,5.3c1.3-1.6-2.9-7.6-5.6-10.7
			C1843.5,722,1840.4,718.5,1836,715.8z"></path>
		<path fill="#151211" d="M1729.6,712.9c-10.6,2.5-16.2,10.7-16.2,10.7c-1.3,1.8-3.3,4.8-3.6,9.1c-0.1,1.4-0.6,6.8,2.4,8.6
			c1,0.6,2.7,0.9,4,0.2c3.7-1.7,0.9-7.9,4.7-15.3c0.7-1.3,4.4-8.3,11.2-10.7c1.5-0.5,4-1.1,3.9-1.8c0-0.6-2.1-0.9-3.3-1
			C1732.4,712.6,1731.1,712.5,1729.6,712.9z"></path>
	</g>
	<g>
		<path d="M1925.4,873.1c-4.6-4.6-9.4-8.8-14.4-12.8l-3.8-2.9c-1.3-0.9-2.5-1.9-3.9-2.8c-2.6-1.8-5.2-3.6-7.9-5.2
			c-10.8-6.5-22.4-11.5-34.6-13.5c-6.1-1-12.2-1.2-18.4-0.7c-6.1,0.6-12.2,2-18.1,3.9c-11.8,4.2-22.8,10.8-33.2,18.5
			c8.5-9.8,19.1-18,31.3-23.4c1.5-0.7,3.1-1.2,4.7-1.8l2.4-0.9l2.4-0.7l2.4-0.7c0.8-0.2,1.6-0.4,2.5-0.6l5-0.8
			c3.4-0.3,6.7-0.6,10.1-0.5l2.5,0l2.5,0.2c1.7,0.2,3.4,0.3,5,0.6l2.5,0.5c0.8,0.2,1.7,0.3,2.5,0.5c1.6,0.4,3.3,0.8,4.9,1.3l4.8,1.6
			c1.6,0.6,3.1,1.3,4.6,1.9c6.1,2.7,11.9,6.1,17.2,9.9c5.4,3.8,10.3,8.2,14.9,12.9C1917.7,862.6,1921.9,867.6,1925.4,873.1z"></path>
	</g>
	<path fill="none" stroke="#000000" stroke-width="10.0405" d="M1754.5,947.4c0,51.5,41.8,93.3,93.3,93.3
		c40.5,0,74.9-25.8,87.9-61.8c3.5-9.8,5.4-20.4,5.4-31.5c0-51.5-41.8-93.3-93.3-93.3c-32.1,0-60.3,16.2-77.1,40.8
		C1760.5,909.8,1754.5,927.9,1754.5,947.4z"></path>
	<g>
		<path d="M1773.5,891c1.6-2.4,3.4-4.6,5.3-6.8c1.9-2.2,3.9-4.2,6-6.3c4.1-4,8.7-7.7,13.5-11c9.7-6.6,20.7-11.6,32.6-14.1
			c11.8-2.5,24.4-2.1,36.3,1c5.9,1.5,11.6,3.7,17.1,6.3c1.4,0.6,2.7,1.4,4,2.1c1.3,0.7,2.6,1.5,3.9,2.2c2.6,1.5,5.1,3.1,7.5,4.8
			c4.9,3.4,9.6,7.1,14,11.3c4.4,4.2,8.4,8.7,12,13.6c7.1,9.8,12.3,21.2,14.6,33c2.4,11.8,2.3,23.9,0.1,35.5
			c-1.1,5.8-2.6,11.4-4.7,16.8c-2,5.4-4.5,10.7-7.6,15.5c3.5-10.9,5.3-22,5.8-33c0.4-11-0.7-22-3.8-32.2c-3-10.2-8-19.7-14.6-28
			c-3.3-4.1-6.9-8-10.9-11.6c-3.9-3.6-8.2-6.9-12.6-9.9c-2.2-1.5-4.5-3-6.8-4.4c-1.2-0.7-2.3-1.3-3.5-2c-1.2-0.6-2.3-1.3-3.5-1.8
			c-2.4-1.2-4.8-2.3-7.2-3.3c-2.5-1-4.9-1.9-7.4-2.6c-5-1.5-10.2-2.5-15.4-3c-5.2-0.5-10.5-0.4-15.8,0.2c-10.6,1.2-21,4.5-30.9,9.3
			C1791.6,877.4,1782.2,883.6,1773.5,891z"></path>
	</g>
	<g>
		<path d="M1934.7,958.3c0,0,0.1,0,0.3,0.1c0.1,0,0.3,0,0.4,0c0.3,0,0.6,0,0.9,0c0.6,0,1.2,0,1.9,0c0.6,0,1.3-0.1,1.9-0.1l1.9-0.2
			c2.6-0.3,5.1-0.9,7.6-1.8c1.3-0.4,2.5-1,3.7-1.5c0.6-0.3,1.2-0.6,1.8-1c0.3-0.2,0.6-0.3,0.9-0.5l0.9-0.6c2.4-1.4,4.5-3.4,6.5-5.4
			c-1.1,2.7-2.4,5.4-4.2,7.8l-0.7,0.9c-0.2,0.3-0.5,0.6-0.7,0.9c-0.5,0.6-1,1.2-1.5,1.8c-1.1,1.1-2.1,2.3-3.3,3.3
			c-2.3,2.1-4.9,3.9-7.7,5.5l-2.1,1.2c-0.7,0.4-1.4,0.7-2.2,1.1c-0.7,0.3-1.5,0.7-2.3,1c-0.4,0.2-0.8,0.3-1.2,0.4
			c-0.2,0.1-0.4,0.1-0.6,0.2c-0.2,0.1-0.4,0.1-0.8,0.2L1934.7,958.3z"></path>
	</g>
</g><g id="mouth_x5F_05">
	<path fill="none" stroke="#050101" stroke-width="2" d="M1579.2,1147.3c0,0-70.1-33.8-191,24.8"></path>
	<path fill="none" stroke="#050101" stroke-width="2" d="M1569.7,1157.5c0,0-94.5-14.8-176.7,54.6"></path>
	<path fill="none" stroke="#050101" stroke-width="2" d="M1563.7,1170.9c0,0-102.3-4-163.5,82"></path>
	<path fill="none" stroke="#050101" stroke-width="2" d="M1646.1,1147.3c0,0,70.1-33.8,191,24.8"></path>
	<path fill="none" stroke="#050101" stroke-width="2" d="M1655.6,1157.5c0,0,94.5-14.8,176.7,54.6"></path>
	<path fill="none" stroke="#050101" stroke-width="2" d="M1661.6,1170.9c0,0,102.3-4,163.5,82"></path>
	<g id="图层_33">
		<path fill="none" stroke="#070606" stroke-width="12" stroke-miterlimit="10" d="M1615.3,1216.3c0,0-17.9,31-75.4,38.3"></path>
		<path fill="none" stroke="#070606" stroke-width="12" stroke-miterlimit="10" d="M1617.2,1216.3c0,0,17.9,31,75.4,38.3"></path>
	</g>
	
		<line fill="none" stroke="#060404" stroke-width="18.6862" stroke-miterlimit="10" x1="1619.7" y1="1113.4" x2="1617.7" y2="1218.9"></line>
	<g>
		<path fill="#22170E" d="M1605.6,964.8l-51.1,17.2l-34,30.8l-1.5,31.6l12.3,26.6l29.4,28.1c0,0,30.2,16.4,41.4,16.4
			s51.6-3.2,70-20.7s32.9-37.4,35.1-49c2.2-11.6,1.7-27.1,0-30.6c-1.7-3.5-28.2-29.5-35.1-33.2c-6.9-3.7-39.8-17.9-44.9-17.2
			C1622.2,965.5,1605.6,964.8,1605.6,964.8z"></path>
		<path fill="#060404" d="M1552.6,1055.6c11.8-5,35.9,19,32.1,28.4c-3.2,7.9-28.9,12.7-37.5-1.2
			C1541.5,1073.5,1545.3,1058.7,1552.6,1055.6z"></path>
		<path fill="#060404" d="M1674.2,1055.6c-11.8-5-35.9,19-32.1,28.4c3.2,7.9,28.9,12.7,37.5-1.2
			C1685.3,1073.5,1681.5,1058.7,1674.2,1055.6z"></path>
		<ellipse fill="#FFFFFF" cx="1612.7" cy="985.2" rx="32" ry="20.4"></ellipse>
		<path fill="none" stroke="#000000" stroke-width="6.6937" d="M1613.4,964.8c0,0-54.2,0.2-89.8,43.2
			c-21.3,25.7,9.2,102.2,89.8,107.5"></path>
		<path fill="none" stroke="#000000" stroke-width="6.6937" d="M1613.4,964.8c0,0,54.2,0.2,89.8,43.2
			c21.3,25.7-9.2,102.2-89.8,107.5"></path>
	</g>
</g></svg>
	