<?xml version="1.0" encoding="utf-8"?>
<!-- Generator: Adobe Illustrator 21.0.0, SVG Export Plug-In . SVG Version: 6.00 Build 0)  -->

		<svg id="sppoty-total" xmlns="http://www.w3.org/2000/svg" xmlns:xlink="http://www.w3.org/1999/xlink" x="0px" y="0px" viewBox="0 0 3186.3 2724.3" enable-background="new 0 0 3186.3 2724.3" xml:space="preserve"><g id="color_x5F_02">
	<path fill="#E8E4E2" d="M1534.6,584.6c-21.9,3.8-65,12.5-107.9,31.2c-37.6,16.4-56.8,32.7-58.6,34.1c-7.3,5.8-13,11.1-17,14.9
		c0,0,0,0,0,0c0,0-14.7,13.1-28,28.5c-9.3,10.8-45.5,73.7-75,168c-32.4,89.6-47,86.8-80.8,187.9c-12.3,36.9-23.2,73.9-14.6,118.6
		c4.7,24.6,14.4,51,32,77.6c16,24.1,85.6,109.4,156.7,146.2c53.3,27.6,131.7,64.8,262.3,65.2c109.3,0.3,203.3-17.3,331-92.1
		c49.1-28.7,88.9-61.6,114.8-119.4c26.6-59.5,24.2-122.9,13.1-165c-4.1-15.6-5.1-11.3-27.5-72.6c-8.4-23.1-12.3-34.7-20.5-57.9
		c-34.6-98.3-32.5-83.5-37.5-103.5c0,0-26.9-107-37-122.9c-2.9-4.5-5.9-9-5.9-9c0,0,0,0,0,0c-4.1-6.3-9-12.1-14.7-17.5
		c-12.9-13.4-24.3-23.1-31.8-29.1c-67.9-54.5-159.8-86.2-194.9-78.9c-1.9,0.4-10.5,2.1-12.6-1.4c-3-4.9,10.4-14.5,18.6-31.8
		c8.9-19,8.3-40.7,4-42c-5.6-1.8-15.3,31.8-50,59.5c-6.9,5.5-16.9,13.3-21.1,10.5c-6.9-4.7,10.7-32.6,16.1-62.5
		c11.6-64.4-35.7-128.1-45.5-125c-9.8,3.1,25.2,74.1-8.3,134.7C1577.6,560.3,1551.2,576.4,1534.6,584.6z"></path>
	<path fill="#E8E4E2" d="M1380.9,1414.8c0,0-71.7,120.8-82.8,169.9c-17.1,75.1-25.1,114.6-42.1,135.6
		c-66.8,82.8-88.6,106-95.2,160.1c-7.8,64.9,51.3,89.9,51.3,89.9s-59.7,5.9-77.3,76.1c-7.4,29.7-7.4,85,43.1,81.2
		c5.4-0.4,28.9,36.8,74,18c11.6-4.8,9.6,30.5,96.6,1.6c8.7-2.9,33.1,26.1,109.8-0.4c6-2.1,36.5,31,105.7-7.5
		c3.3-1.8,28.1,3.3,54.1-14.2c6.4-4.3,20.2,25.5,59.1,12.6c8.2-2.7,24,36.3,101.2,8.4c11.8-4.3,18.7,31.2,109.1-0.6
		c13.4-4.7,24.5,33.5,90.4,2.5c9.1-4.3,55.8,22.6,76.4-17c5-9.6,53.8,1.7,55.5-51.3c1.3-42.7-10.6-98.5-80.3-107.7
		c-11.9-1.6,57.7-17.8,48.8-97.3c-3-26.8-47.4-92.8-94-146.7c-12.5-14.4-39.9-126.6-46.3-145.3c-6.4-18.7-77.5-138.9-81.4-173.5"></path>
	<path fill="#E8E4E2" d="M1310.3,1650.8c0,0,5,191.9,70.8,296.8c0,0-138.9,97.6-26.2,199.7c32.3,29.3,103.5-0.3,103.5-0.3"></path>
	<path fill="#E8E4E2" d="M1922.5,1640.8c0,0-5,191.9-70.8,296.8c0,0,138.7,112.1,23.2,205.8c-39.2,31.8-96.2,2.8-96.2,2.8"></path>
	<path fill="#E8E4E2" d="M1510.6,1650.8c0,0-5.8,131-1.7,166.8c3.6,31.8,10,101,14.5,106.5c4.5,5.6,119.9,31.2,99.8,188.5
		c-3.8,29.8-58.6,30.1-61.9,25.1"></path>
	<path fill="#E8E4E2" d="M1730.6,1637.8c0,0-14.6,66-9.8,120.1c3.9,44.1-6.8,173.1-16.7,172.9c-29.8-0.6-92.2,61.6-83.4,93.6
		l6.6,37.2l-1.7,61.5"></path>
	<path fill="#E8E4E2" d="M1556.9,2141.4c9.6-7.6,4.4-135.3-36.3-154.8"></path>
	<path fill="#E8E4E2" d="M1455.3,2148c3.1-4.4-8.7-105.8-44.6-122.4"></path>
	<path fill="#E8E4E2" d="M1984.3,2148c2.9-4.6-8.1-112.6-41.6-130.2"></path>
	<path fill="#E8E4E2" d="M2050,2135.5c2.9-4.3,19-88.1-35.9-115.5"></path>
	<path fill="#E8E4E2" d="M1781.7,2143.9c0,0-8.9-84.2,44.1-120.5"></path>
	<path fill="#E8E4E2" d="M1680.1,2135.5c0,0-12.6-122.7,40.7-148.9"></path>
	<path fill="#E8E4E2" d="M1255.2,2143.9c0,0-11.2-102.3,42.1-128.5"></path>
	<path fill="#E8E4E2" d="M1184,2131.1c0,0-19.1-83.1,34.2-109.3"></path>
	<path fill="#E8E4E2" d="M1208.5,1968.6c0,0,65.3,31,135.6,14"></path>
	<path fill="#E8E4E2" d="M2032.1,1969.6c0,0-74.7,39-135.9,18.2"></path>
	<path fill="#E8E4E2" d="M1314,714.3c-18.2-14.3-31.3-27.6-39.8-36.9c-26-28.6-38-51.1-65.4-56.9c-24.5-5.2-34.6,11.4-112.6,53.1
		c-43.5,23.3-56.3,26.7-67.1,34.7c-4.1,3.1-7,6.1-8.2,7.3c-32,31.1-24.6,107.6-24.3,135c0.8,83.9-62.5,87.8-102.8,204.5
		c-25.2,73.1-44.7,199.8,10,237.2c35.8,24.5,102,9.7,146.2-24c157-120,31.4-476.5,122.5-510.4c18-6.7,47.1-1.8,96.5,44.3
		c6.9-13.7,13.9-27.3,20.9-40.9C1297.9,745.6,1305.9,730,1314,714.3z"></path>
	<path fill="#E8E4E2" d="M1925.4,703.3c22.9-12.9,38.5-26.3,48.4-35.7c26-24.9,39.6-48.7,68.5-53.1c24.7-3.8,33.9,13.4,109.4,59.4
		c42.1,25.7,54.7,29.8,65.1,38.5c3.9,3.3,6.6,6.5,7.8,7.7c30.2,32.8,18.4,108.8,16.6,136.1c-5.5,83.7,57.4,91.2,91.1,210
		c21.1,74.4,33.3,202-23.4,236.3c-37.2,22.5-102.4,4-144.6-32.3c-150.1-128.9-4.3-477.1-93.3-516.5c-18.5-8.2-49.8-4.3-106.4,44.4
		c-2.1-13-5.9-29-12.8-46.6C1943.6,731.2,1933.8,715.1,1925.4,703.3z"></path>
	<path fill="#E8E4E2" d="M1205.7,1967.9c-66.9-17.3-97.7-47.5-113.4-70.2c-54.7-78.8,6.7-164-58.7-259.8
		c-33.7-49.4-68.4-57.6-78.8-59.6c-6.2-1.2-54.3-9.3-80,23.1c-25.7,32.4-13.4,87.8,14.5,105.9c31.8,20.6,64.5-22.4,98.4-6.5
		c51.6,24.2,16.3,141.2,76,219.4c31.2,40.8,73,65.3,73,65.3c9.5,5.6,17.8,9.6,23.8,12.2"></path>
	<g>
		<g>
			<path fill="#C6C0BD" d="M1291.1,1625.7c2.9,11.3,4.2,23.2,4.2,35.1c0,12-1.6,24.1-4.6,36l-2.2,8.5l-2.2,8.4
				c-0.7,2.9-1.5,5.7-2.4,8.6c-0.9,2.9-1.9,5.9-3,8.8c-2.2,5.9-4.9,11.8-8,17.4c-0.8,1.4-1.6,2.8-2.4,4.1c-0.8,1.3-1.7,2.8-2.5,4
				c-1.6,2.5-3.3,5-5,7.5c-3.4,5-7.1,10-11,14.8c-3.9,4.8-7.8,9.2-11.2,13.3c-3.4,4.1-6.5,8.2-9.6,12.5c-1.5,2.2-3,4.4-4.5,6.6
				l-2.3,3.4l-2.4,3.6c-6.3,9.4-12.2,18.4-16.2,26.8c-2,4.2-3.6,8.4-4.9,12.9c-0.3,1.1-0.6,2.2-0.9,3.3l-0.4,1.7l-0.4,2
				c-0.6,2.6-1,5-1.4,7.3c-0.8,4.7-1.2,9.3-1.2,13.8c0,4.5,0.4,8.8,1.2,13c0.8,4.2,2.1,8.2,3.8,12.1c1.7,3.9,3.8,7.5,6.3,10.9
				c1.3,1.7,2.7,3.3,4.2,4.9c1.5,1.6,3.1,3.2,4.8,4.7c3.5,3,7.3,5.9,11.6,8.6c4.2,2.7,8.8,5.3,13.7,7.8c2.4,1.3,4.9,2.6,7.5,3.9
				c2.3,1.1,4.6,2.4,6.9,3.4c2.3,1.1,4.7,2,7,3c2.4,0.9,4.8,1.8,7.2,2.5c4.9,1.6,9.9,2.8,15.1,3.8c5.2,1,10.5,1.7,16,2.3
				c5.5,0.6,11.1,1,16.8,1.4l17,1.2c5.4,0.3,10.7,0.3,15.8-0.5c5-0.8,9.9-2.5,14.4-5.5c4.5-3,8.4-7.1,11.6-12
				c-1.1,5.8-3.5,11.4-7.4,16.4c-1.9,2.5-4.2,4.7-6.8,6.7c-2.5,2-5.4,3.6-8.3,5c-5.9,2.8-12.1,4.3-18.1,5.5c-1.5,0.3-3,0.6-4.5,0.8
				l-4.3,0.7l-8.6,1.3c-5.8,0.8-11.7,1.5-17.7,2.1c-3,0.3-6,0.5-9.1,0.6c-1.5,0.1-3.1,0.1-4.6,0.1c-1.6,0-3.1,0-4.7,0
				c-6.2-0.1-12.6-0.6-19-1.6c-3.2-0.5-6.3-1.2-9.5-1.8c-3.1-0.8-6.3-1.5-9.3-2.5c-3.1-0.9-6.1-2-9.1-3.1c-2.8-1-5.5-2-8.3-3.1
				c-5.6-2.2-11.4-4.7-17.1-7.6c-5.8-3-11.5-6.4-17.1-10.5c-5.6-4.1-10.9-8.9-15.6-14.4c-4.7-5.5-8.8-11.7-12-18.2
				c-3.3-6.5-5.7-13.4-7.3-20.4c-1.6-7-2.4-14.2-2.5-21.2c-0.1-7,0.5-13.9,1.6-20.5c0.5-3.3,1.2-6.6,1.9-9.6l0.5-2.2l0.6-2.5
				c0.4-1.7,0.9-3.3,1.4-5c2-6.6,4.6-13.1,7.7-19.2c3.1-6,6.5-11.6,10.1-16.7c3.5-5.1,7-10,10.6-14.6l2.6-3.5l2.7-3.5
				c1.8-2.4,3.8-4.8,5.8-7.2c4-4.8,8.3-9.5,12.6-13.8c4.3-4.4,8.5-8.1,12.2-11.9c3.8-3.7,7.4-7.6,11.1-11.7c1.8-2,3.6-4.1,5.4-6.2
				l2.5-3c0.8-1,1.6-2,2.4-3c3.2-4,6-8.2,8.7-12.7c1.3-2.3,2.6-4.6,3.9-7c1.3-2.4,2.5-4.9,3.8-7.4l7.7-15.4
				c4.9-9.7,8.8-20.1,11.9-30.8C1287.5,1648.5,1289.7,1637.3,1291.1,1625.7z"></path>
		</g>
		<g>
			<path fill="#C6C0BD" d="M1948.9,1625.7c1.5,11.4,3.7,22.4,6.6,33c3,10.6,6.7,20.8,11.3,30.5l3.6,7.5l3.7,7.7l3.6,7.4
				c1.2,2.4,2.4,4.8,3.7,7c2.5,4.5,5.2,8.7,8.1,12.8c1.5,2,3,4,4.6,6l0.6,0.7l0.6,0.8l1.3,1.6c0.9,1,1.7,2.1,2.6,3.1
				c3.5,4.1,7,8,10.6,11.8c1.8,1.9,3.7,3.8,5.6,5.7c1.9,2,4,3.9,6,6.1c4.1,4.3,8.4,8.9,12.2,13.7c1,1.2,1.9,2.4,2.8,3.6
				c0.9,1.2,1.9,2.4,2.8,3.6l2.7,3.6l2.5,3.4c3.4,4.6,6.7,9.3,10.1,14.4c3.4,5,6.7,10.4,9.7,16.3c3,5.9,5.6,12.2,7.7,18.6
				c1,3.2,1.9,6.5,2.6,9.7c0.2,0.9,0.3,1.5,0.5,2.2l0.5,2.2c0.3,1.5,0.6,3.1,0.9,4.7c1.1,6.4,1.8,13,2,19.8
				c0.1,6.8-0.4,13.7-1.6,20.6c-2.5,13.8-8,27.3-16.5,38.8c-4.3,5.7-9.2,10.9-14.4,15.4c-5.2,4.5-10.9,8.2-16.5,11.4
				c-5.6,3.2-11.3,5.9-16.8,8.2c-5.6,2.4-10.6,4.3-16.8,6.5c-6,2-12.2,3.7-18.4,4.9c-6.3,1.1-12.6,1.8-18.8,2
				c-6.2,0.2-12.3,0-18.2-0.5c-5.9-0.5-11.7-1.2-17.4-2.1l-8.5-1.3l-4.2-0.7c-1.4-0.2-2.9-0.5-4.4-0.8c-5.9-1.2-12.1-2.7-17.8-5.5
				c-2.9-1.4-5.7-3.1-8.1-5.1c-2.5-2-4.7-4.3-6.5-6.8c-3.6-5-5.9-10.6-6.8-16.3c3.1,4.9,6.8,9,11.2,12c4.3,3,9,4.8,13.9,5.6
				c4.9,0.8,10,0.8,15.4,0.4l8.3-0.6l8.4-0.6c11.1-0.9,21.9-1.8,31.9-4c5-1.1,9.8-2.4,14.5-4c4.7-1.6,9.2-3.6,13.7-5.8l6.8-3.6
				l3.6-2c1.2-0.7,2.3-1.3,3.5-2c4.6-2.6,8.9-5.2,12.8-8c3.9-2.8,7.5-5.7,10.6-8.8c3.1-3.1,5.7-6.4,8-9.9c2.3-3.4,4-7.2,5.5-11.1
				c1.4-3.9,2.5-8,3.1-12.3c1.3-8.5,0.9-17.5-0.8-26.9c-0.2-1.2-0.4-2.4-0.7-3.6l-0.4-1.9c-0.1-0.6-0.3-1.4-0.4-1.9
				c-0.5-2.3-1.1-4.5-1.7-6.6c-1.3-4.3-2.9-8.5-4.9-12.7c-4-8.5-9.7-17.4-15.7-26.9l-2.3-3.5l-2.2-3.3c-0.7-1.1-1.4-2.2-2.2-3.3
				c-0.7-1.1-1.4-2.2-2.2-3.2c-3-4.3-5.9-8.3-9.3-12.4l-5.3-6.5c-1.8-2.3-3.7-4.6-5.5-7c-3.6-4.8-7.1-9.8-10.3-14.8
				c-1.6-2.5-3.1-4.9-4.7-7.6c-1.6-2.7-3.1-5.4-4.6-8.2c-2.9-5.6-5.4-11.4-7.3-17.3c-2-5.8-3.6-11.6-5-17.1l-2-8.3l-1-4.1
				c-0.3-1.4-0.7-2.9-1-4.4c-1.3-5.9-2.3-11.8-2.9-17.7c-0.6-5.9-0.9-11.8-0.8-17.7C1944.6,1648.4,1946,1636.8,1948.9,1625.7z"></path>
		</g>
		<g>
			<path fill="#C6C0BD" d="M1173.8,1025.4c-3.5,14-5.8,28-6.6,42c-0.4,7-0.5,14-0.2,20.9l0.1,2.6l0.2,2.6c0.1,1.7,0.2,3.4,0.4,5.1
				c0.3,3.4,0.8,6.7,1.3,10.1c1.1,6.7,2.6,13.4,4.4,20c0.9,3.3,1.8,6.6,2.9,9.8c0.5,1.6,1,3.2,1.6,4.9l1.7,4.8
				c4.6,12.8,10.3,25.2,16.7,37.1l2.4,4.4l1.2,2.2l1.3,2.2l5.2,8.7c1.7,2.9,3.7,5.6,5.5,8.5l2.8,4.2c0.9,1.4,1.8,2.8,2.9,4.1
				c4.1,5.3,7.9,10.8,12.3,15.9l3.2,3.9l1.6,1.9l1.7,1.9l6.7,7.4c9.2,9.7,18.9,18.9,29.1,27.5c10.2,8.6,21,16.6,32.1,24.2
				c11.1,7.6,22.6,14.7,34.7,21.9l4.4,2.6l4.3,2.5c2.9,1.6,5.8,3.2,8.7,4.8c5.9,3.1,11.9,6.1,18,9c12.1,5.8,24.5,11.1,37.1,16
				l9.4,3.6l9.5,3.3c3.2,1.1,6.4,2.1,9.6,3.2c3.2,1.1,6.4,2,9.6,3c6.4,2,12.9,3.7,19.4,5.5l9.8,2.4l4.9,1.2l4.9,1l9.8,2.1l9.9,1.9
				c3.3,0.7,6.6,1.2,9.9,1.7l5,0.8c1.6,0.3,3.3,0.5,5,0.7c13.2,1.9,26.6,3.2,39.9,4c13.4,0.8,26.7,1.2,40.2,1
				c13.5-0.2,26.9-0.8,40.9-1.8c13.5-0.9,26.9-2.2,40.3-4c26.8-3.5,53.3-8.9,79.4-15.9l4.9-1.3c1.6-0.4,3.2-0.9,4.9-1.4
				c3.2-1,6.5-1.9,9.7-2.9c3.2-1,6.5-2,9.7-3l9.6-3.2c13.4-4.7,26.4-9.1,38.9-14.1c12.5-4.9,24.7-10.2,36.5-16.2
				c11.8-6,23.3-12.6,34.4-19.9c2.8-1.8,5.6-3.6,8.3-5.6l4.1-2.9l2.1-1.4l2.2-1.6c5.8-4.2,11.3-8.2,16.7-12.3
				c5.4-4.1,10.7-8.2,15.7-12.5c5.1-4.3,9.9-8.7,14.7-13.3l3.5-3.5l1.7-1.7l1.7-1.8l3.4-3.6c1.1-1.2,2.2-2.5,3.3-3.7
				c1.1-1.2,2.2-2.5,3.2-3.7l3.1-3.8c2.1-2.5,4-5.2,6.1-7.8l1.5-2l1.4-2l2.8-4.1c1-1.3,1.8-2.8,2.7-4.2l2.7-4.2
				c3.7-5.9,7-11.6,10.2-17.5c6.3-11.8,11.4-24.1,15.5-36.9c4-12.9,6.7-26.2,8.4-39.9c3.1-27.3,1-55.7-5.7-83.7
				c13.7,25.3,22.2,54.2,24.4,84l0.4,5.6c0.1,1.9,0.1,3.7,0.2,5.6c0,1.9,0.1,3.8,0.1,5.6l-0.1,5.6c-0.2,7.5-0.8,15.1-1.9,22.6
				c-2.1,15.1-5.8,30-10.9,44.5c-2.6,7.2-5.5,14.3-8.5,21.1l-2.4,5.2c-0.8,1.7-1.6,3.5-2.5,5.2l-2.6,5.1l-1.3,2.6l-1.4,2.5
				c-7.5,13.5-16.3,26.4-26.1,38.4c-9.8,12-20.6,23.1-31.6,33.3c-5.5,5.1-11.1,10-16.5,14.8l-2,1.8l-2.2,1.8l-4.4,3.7
				c-2.9,2.5-5.9,4.8-8.9,7.2c-12,9.5-24.7,18.2-37.8,26.2c-3.3,2-6.6,3.9-9.9,5.8c-3.4,1.8-6.7,3.7-10.1,5.5
				c-3.4,1.8-6.8,3.6-10.2,5.2c-1.7,0.8-3.4,1.7-5.1,2.5l-5.1,2.4c-13.7,6.4-27.4,12.1-40.8,17.5c-13.9,5.6-28.1,10.6-42.5,15.2
				c-28.7,9.1-58.2,15.8-88,20.4c-14.9,2.3-29.9,3.9-44.9,5.1c-14.6,1.1-29.6,1.9-44.8,2.1c-15.1,0.2-30.3-0.3-45.5-1.4
				c-1.9-0.1-3.8-0.2-5.7-0.4l-5.7-0.5c-3.8-0.4-7.6-0.7-11.3-1.2c-3.8-0.5-7.6-0.9-11.3-1.4l-11.3-1.7c-1.9-0.3-3.8-0.6-5.6-0.9
				l-5.6-1c-3.7-0.7-7.5-1.3-11.2-2.2l-11.1-2.4l-11.1-2.7l-5.5-1.4l-5.5-1.5l-11-3.1c-7.2-2.2-14.5-4.5-21.6-7.1
				c-3.6-1.2-7.2-2.5-10.7-3.8c-3.5-1.4-7.1-2.6-10.6-4l-10.5-4.3l-10.4-4.5c-13.8-6.2-27.3-13-40.6-20.3
				c-6.6-3.7-13.1-7.6-19.6-11.6c-3.2-2-6.5-4.1-9.7-6.2c-1.6-1-3.2-2.1-4.8-3.2l-4.6-3.2c-3-2.1-6-4.2-9-6.4l-4.5-3.3l-4.5-3.3
				c-3-2.2-6-4.5-8.9-6.8c-3-2.3-5.9-4.7-8.8-7.1c-11.7-9.6-22.9-19.9-33.6-30.8c-10.6-11-20.5-22.6-29.7-34.8l-6.7-9.3l-1.7-2.3
				l-1.6-2.4l-3.1-4.8c-4.2-6.3-7.9-13-11.6-19.6c-1-1.6-1.8-3.4-2.6-5.1l-2.5-5.1c-1.7-3.4-3.5-6.7-4.9-10.3l-4.5-10.4l-1.1-2.6
				l-1-2.7l-2-5.3c-5.1-14.2-9.3-28.8-11.9-43.6c-1.4-7.4-2.4-14.9-3.1-22.4c-0.7-7.5-0.9-15-0.7-22.6c0.1-3.8,0.3-7.6,0.6-11.3
				c0.2-1.9,0.4-3.8,0.6-5.6l0.4-2.8l0.4-2.8c1.2-7.3,2.8-14.6,4.7-21.7C1161.3,1051.6,1166.8,1038,1173.8,1025.4z"></path>
		</g>
		<path fill="none" stroke="#C6C0BD" stroke-width="66.905" stroke-miterlimit="10" d="M1375.2,1414.8
			c52.4,21.7,151.7,54.4,278,45.7c90-6.1,161.2-31.1,207.2-51.5"></path>
		<path fill="#C6C0BD" d="M916.2,1578.3c-22.8,0-38.8,19.8-41.4,23.3c-10.2,13.6-12.5,27.4-13.4,33.1c-2.5,16.6,1.1,29.5,2.9,35.5
			c2,6.7,5.2,17.5,14.4,27.8c3.7,4.2,8.7,9.7,17.2,12.9c7.6,2.8,14.2,2.3,18.7,1.9c5-0.4,11.4-2.7,23.9-7.1
			c16.6-5.8,20.1-7.1,26.4-7.9c11-1.3,16.3,0.6,17.9,1.3c5.9,2.4,9.6,6.4,13,10.6c14.5,18.1,20.1,35.9,20.1,35.9
			c4.4,13.7,5,23.3,6.6,43.2c2.9,36.5,4.4,54.7,5.3,58.9c6.2,30.2,20.8,51.1,31.6,66.5c17.6,25.3,35.9,40.4,47.2,49.7
			c24.9,20.6,34.3,20.4,42.6,28.4c0.6,0.6,2.8,2.8,5.9,2.9c4.3,0.2,9.5-4,10.1-7.6c1.5-8.6-22.5-14.7-51.5-36.3
			c-19.2-14.3-30.9-28.2-34-32c-5.3-6.5-20.2-25.5-30.5-54.3c-6.1-16.9-8.1-35.8-12-72.7c-5.6-52.2-3-58.4-10.7-76
			c-5.7-13.1-18.1-41.1-42.7-48c-28.8-8.1-50.3,19.4-74.7,6c-10.7-5.9-15.3-16.1-16.5-19c-8.5-20.9,5.6-42.5,7-44.5
			c12.3-18.3,32.2-22.8,30.5-28.5C929,1578.3,918.3,1578.3,916.2,1578.3z"></path>
		<path fill="#C6C0BD" d="M1133.1,829.3c1.8,0.1,1.9,11.4,2.8,146c0.2,36,0.3,70-4.6,114.9c-3.6,32.6-7.7,51-12.4,67.2
			c-6.7,22.6-13.5,45.8-31.8,71.5c-23,32.3-50,48.6-58,53.1c-10.8,6.2-25,12.8-42.4,17.3c-15.9,4.1-32.3,8.4-52.8,4.2
			c-7.7-1.6-25-5.1-39.6-19.2c-14.1-13.8-18-30.1-21.9-47.7c-3.5-15.6-5-32.4-3-61c3.4-48.9,13.9-85.7,16.5-94.7
			c5.5-18.6,15.2-50.9,37-88.4c26.1-44.8,59.6-80.6,63.3-78c4.6,3.2-43.7,62.9-70.2,160.3c-5.7,20.9-10.6,44.2-9.8,73.1
			c0.7,26.8,2.1,81.3,30.6,96.5c33.8,18.1,94.4-24.9,124.9-63.7c0,0,44.7-56.8,52.5-167.2c0.5-6.9,0.8-13.6,0.8-13.6
			c0.6-15.7-0.1-23.6,2.2-55.4C1120.8,893.2,1128.8,829,1133.1,829.3z"></path>
		<path fill="#C6C0BD" d="M2103.1,822.6c-1.8,0-2.5,11.3-10.6,145.6c-2.2,35.9-4.1,69.9-1.5,115c1.9,32.8,4.9,51.4,8.8,67.7
			c5.5,23,11,46.5,27.9,73.1c21.2,33.5,47.3,51.2,55,56.2c10.4,6.7,24.3,14.1,41.4,19.5c15.7,5,31.8,10.1,52.5,7
			c7.8-1.2,25.3-3.7,40.6-17.1c14.8-13,19.6-29.1,24.5-46.5c4.3-15.3,6.7-32.1,6.3-60.8c-0.8-49.1-9.2-86.3-11.4-95.4
			c-4.5-18.9-12.4-51.6-32.2-90.3c-23.6-46.2-55.2-83.7-59-81.3c-4.8,3,40.3,65.2,61.5,163.8c4.5,21.2,8.2,44.8,5.9,73.5
			c-2.1,26.7-6.4,81-35.8,94.8c-34.8,16.2-92.9-30-121.3-70.3c0,0-41.6-59.1-43.4-169.8c-0.1-6.9-0.1-13.6-0.1-13.6
			c0.2-15.7,1.4-23.5,0.8-55.4C2111.9,887.1,2107.4,822.6,2103.1,822.6z"></path>
		<path fill="#C6C0BD" d="M1153.5,756.9c12.3-48.5,19-60,27.4-69c8.9-9.5,13.9-10.1,15.4-10.2c10.2-0.7,13.5,10.3,30,23.8
			c5.1,4.2,18.9,12.4,46.6,28.8c5.7,3.4,10.4,6.1,13.5,7.9c3.9-0.8,8.1-1,10,1.3c4.1,4.9-2.1,21.9-12,25.4
			c-14.5,5-25.5-23.2-64.3-36.7c-11.5-4-28.3-9.9-38-2c-7.8,6.3-4.2,16.1-15.1,34.1c-5.4,9-13.7,18.9-16.4,17.6
			C1148.8,777.1,1150,770.9,1153.5,756.9z"></path>
		<path fill="#C6C0BD" d="M2088.6,758.8c-7.2-49.5-12.7-61.7-20.1-71.5c-7.8-10.4-12.8-11.5-14.2-11.7c-10.1-1.7-14.5,8.8-32.3,20.6
			c-5.5,3.6-20.1,10.4-49.4,23.8c-6,2.8-11,5-14.2,6.5c-3.8-1.2-8-1.8-10.1,0.3c-4.6,4.5-0.2,22,9.3,26.5
			c13.9,6.5,27.8-20.4,67.8-29.8c11.9-2.8,29.2-6.9,38,2c7.1,7.1,2.6,16.4,11.5,35.5c4.4,9.5,11.6,20.3,14.5,19.2
			C2091.3,779.3,2090.7,773,2088.6,758.8z"></path>
		<path fill="#C6C0BD" d="M1506.5,1739c-2.2,0.2,0.3,24.9,0.7,58.2c0,0,1.2,112.2,16.7,127.6c1.7,1.7,3.6,3,3.6,3
			c3.8,2.4,7.5,2.6,21.3,11c15.2,9.3,35.3,21.7,48.3,43.2c10.7,17.7,9.3,29.7,15.4,30.4c8.9,0.9,8.6-25.4,32.8-47.5
			c9.8-8.9,27.9-25.5,47.9-30.9c2.6-0.7,9.3-2.3,13.8-8.1c5-6.6,4.2-15,4-17.9c-2.2-28.3,13-46.9,11.8-119.6c0-3-0.6-39.6-3.8-39.7
			c-5.1-0.2,5.9,94.7-47.9,145.4c-6.3,5.9-28.3,26.7-57.2,25c-8.3-0.5-23.9-3.2-43-19.8C1510,1846.6,1511,1738.5,1506.5,1739z"></path>
		<path fill="#C6C0BD" d="M1311.1,1667.2c-4.7-0.1-5.2,98.7,0.3,182.4c0,0,4.4,66.1,39.7,110.9c1.6,2,5.2,6.1,10.5,6.7
			c10.3,1.1,22.4-12.1,20.9-21.8c-1-6.4-7.8-10.1-9-10.8c-12.5-7.6-30.6-57-57.2-204.2C1314.7,1678.6,1312.7,1667.2,1311.1,1667.2z"></path>
		<path fill="#C6C0BD" d="M1923.3,1658.6c4.7-0.1,5.2,98.7-0.3,182.4c0,0-4.4,66.1-39.7,110.9c-1.6,2-5.2,6.1-10.5,6.7
			c-10.3,1.1-22.4-12.1-20.9-21.8c1-6.4,7.8-10.1,9-10.8c12.5-7.6,30.6-57,57.2-204.2C1919.7,1670,1921.7,1658.6,1923.3,1658.6z"></path>
		<path fill="#C6C0BD" d="M1823,2023.8c-2.1-1.7-31.3,21.2-49.2,57.9c0,0-15,30.7-7.5,55.8c0.7,2.4,2.5,8.4,7.5,10.3
			c3.3,1.2,6.9,0.4,8.6-0.5c9.3-4.8,0.3-29.7,1.2-51.5C1785.3,2052.9,1825.3,2025.7,1823,2023.8z"></path>
		<path fill="#C6C0BD" d="M1212.1,2025.2c-1.6-1.4-24.4,17.2-38.3,46.8c0,0-11.7,24.8-5.9,45.2c0.6,2,2,6.8,5.9,8.4
			c2.5,1,5.4,0.3,6.7-0.4c7.3-3.9,0.2-24.1,0.9-41.7C1182.8,2048.8,1214,2026.8,1212.1,2025.2z"></path>
		<path fill="#C6C0BD" d="M1290.3,2015.7c-1.9-1.8-28.2,21.9-44.3,59.6c0,0-13.5,31.6-6.8,57.5c0.7,2.5,2.3,8.7,6.8,10.7
			c2.9,1.3,6.2,0.4,7.7-0.5c8.4-5,0.3-30.6,1.1-53.1C1256.4,2045.8,1292.4,2017.7,1290.3,2015.7z"></path>
		<path fill="#C6C0BD" d="M1414.6,2027.8c1.9-1.7,28.8,20.9,45.3,57.1c0,0,13.8,30.2,6.9,55c-0.7,2.4-2.3,8.3-6.9,10.2
			c-3,1.2-6.3,0.4-7.9-0.5c-8.6-4.8-0.3-29.3-1.1-50.8C1449.2,2056.6,1412.4,2029.8,1414.6,2027.8z"></path>
		<path fill="#C6C0BD" d="M1531.5,1992.4c1.6-2.1,24.1,25.4,37.9,69.2c0,0,11.5,36.7,5.8,66.8c-0.6,2.9-1.9,10.1-5.8,12.4
			c-2.5,1.5-5.3,0.5-6.6-0.6c-7.2-5.8-0.2-35.6-0.9-61.6C1560.5,2027.2,1529.7,1994.7,1531.5,1992.4z"></path>
		<path fill="#C6C0BD" d="M1709.4,1989.5c-1.6-2.1-24.4,25.4-38.4,69.2c0,0-11.7,36.7-5.9,66.8c0.6,2.9,2,10.1,5.9,12.4
			c2.5,1.5,5.4,0.5,6.7-0.6c7.3-5.8,0.2-35.6,0.9-61.6C1680,2024.4,1711.2,1991.8,1709.4,1989.5z"></path>
		<path fill="#C6C0BD" d="M1946.4,2020.2c1.8-1.8,27.3,22,43,59.8c0,0,13.1,31.7,6.6,57.7c-0.6,2.5-2.2,8.7-6.6,10.7
			c-2.8,1.3-6,0.4-7.5-0.5c-8.1-5-0.3-30.8-1-53.3C1979.2,2050.3,1944.3,2022.2,1946.4,2020.2z"></path>
		<path fill="#C6C0BD" d="M2019.2,2020.1c1.8-1.5,27.3,18.9,43,51.6c0,0,13.1,27.4,6.6,49.8c-0.6,2.2-2.2,7.5-6.6,9.2
			c-2.8,1.1-6,0.3-7.5-0.5c-8.1-4.3-0.3-26.5-1-46C2052.1,2046.1,2017.1,2021.9,2019.2,2020.1z"></path>
	</g>
</g><g id="stripe_x5F_03_x5F_01">
	<path fill="#373634" d="M1614.1,947.4c0.3-0.2-119.5,17.4-162.3,104.9c-36,73.5-22.6,106.3-12.2,120.4
		c16.8,22.7,42.2,30.6,71.8,37.3c24.2,5.5,103.7-1.2,102.6-8.1C1613.3,1196.6,1614.1,947.4,1614.1,947.4z"></path>
	<path fill="#373634" d="M1614.1,947.4c-0.3-0.2,119.5,17.4,162.3,104.9c36,73.5,22.6,106.3,12.2,120.4
		c-16.8,22.7-42.2,30.6-71.8,37.3c-24.2,5.5-103.7-1.2-102.6-8.1C1614.9,1196.6,1614.1,947.4,1614.1,947.4z"></path>
	<path fill="#373634" d="M1353.4,1463.3c15.7-7.5,39.9,5.3,52.4,21c11.5,14.4,12.4,30.3,12.7,36c0.2,4.5,1.3,30.8-16,45.3
		c-7.1,5.9-15.5,8.5-29.3,12.7c-12.5,3.8-14.2,2.5-22,6c-9.5,4.3-15.1,9.9-24.7,19.3c-5.2,5.2-12.9,12.9-20.7,24.7
		c-10,15.2-12,24.9-15.1,24.4c-3.7-0.5-5.1-15-4.9-27.1c0.2-12.7,2.3-35.2,21.3-76c12-25.9,13.2-21,24.7-46.7
		C1343.7,1476.4,1344.1,1467.8,1353.4,1463.3z"></path>
	<path fill="#373634" d="M1316.7,1728.6c0,0,28.8-12.8,41.8-7c13.5,6,17.9,18.7,25.3,40c4.8,13.9,11.3,32.3,2.7,40.7
		c-4.1,4-10.8,5-16,4c-13.2-2.6-14.3-18.4-26.7-20.7c-8.5-1.5-17.7,3.6-17.7,3.6L1316.7,1728.6z"></path>
	<path fill="#373634" d="M1369.1,1919.6c2.6-8.5,21.9-13,36.7-7.3c14.9,5.7,20.2,19.9,20.7,21.3c6.6,18.8-6,35.2-6.7,36
		c-8.9,11.2-16.1,6.2-34.7,20c-7,5.2-6.1,6-26,23.3c-12.7,11-17.2,14.3-22.7,13.3c-6.6-1.2-12.5-8.3-12.2-14.4
		c0.3-4.8,4.3-7.5,8.8-11.6c14-12.5,10.2-17.2,23.3-30.7c14.8-15.1,23.9-13.5,25.3-22C1383.8,1935.7,1366.4,1928.6,1369.1,1919.6z"></path>
	<path fill="#373634" d="M1865.2,1470.2c-11.4-1.5-36.5-4.7-51.8,10.9c-17,17.4-15.3,51.1-2,61c8.1,6,17.8,1.2,34,11
		c6.4,3.9,5,4.7,12,9c7,4.3,23.3,5.7,30,14c4.3,5.3,0.3,7.9,4.3,14.8c7,12.2,21.6,7.2,29.6,17c10.9,13.4-5.8,35.4,4.1,44.3
		c5.7,5.1,18.2,3.7,24-2.5c9.2-9.9,0.8-31.1-10-57.3c-12.7-31.1-16.4-27.5-26.8-53.3c-14.1-34.9-13.1-55.6-31.2-64.9
		C1876.5,1471.7,1872.5,1471.2,1865.2,1470.2z"></path>
	<path fill="#373634" d="M1918.7,1694.9c-8.5-11.7-37.9-10.4-56.5,3.4c-26.8,19.9-29.8,64.8-14.5,78c8.2,7.1,17.2,1,29,10
		c15.3,11.6,14.1,32.2,19,32c2.2-0.1,4.6-4.2,11-39c3.8-20.6,3.6-22.5,6.5-39C1919.3,1705.3,1922.7,1700.5,1918.7,1694.9z"></path>
	<path fill="#373634" d="M1857,1928.6c-1.9-10.4-40.7-21.9-68.5-6.3c-27.2,15.3-40,54.3-28.7,68c10.7,13,34.8-7,68,8
		c18.5,8.4,17.9,17.7,42,28.7c16.3,7.5,42.1,14.8,47.6,6.8c3.1-4.6-1.7-12.9-11.5-29.5c-12.7-21.6-19-32.4-30.8-42.6
		c-10.2-8.8-21-14.6-20.7-24C1854.7,1932.9,1857.5,1931.6,1857,1928.6z"></path>
	<path fill="#373634" d="M1161.8,2001c-0.2,7.6,5.9,16.5,14,19.3c13.8,4.8,21.5-12.2,43.3-15.3c26.5-3.8,41.5,17.5,52,9.3
		c8.1-6.3,7.3-25.4-0.7-31.3c-4.6-3.4-8.1,0.1-18.6-0.5c-20.3-1.2-26-15.4-43.4-13.8c-4,0.4-7.1,1.6-13.3,4.2
		C1185.5,1976.8,1162.2,1986.4,1161.8,2001z"></path>
	<path fill="#373634" d="M1962.1,1994.8c-1.5,6.1,7.9,14.8,17,18.5c10.3,4.1,15.5-0.1,38-2.5c18.8-2,21.5,0.2,42-2.5
		c14.4-1.9,27.5-3.7,28.1-8c0.5-4-10.3-5.4-30.6-18c-13.4-8.3-16.6-12.5-24.5-12.7c-8.1-0.2-11.7,4-21.5,9.2
		C1984.2,1992.9,1964.2,1986.6,1962.1,1994.8z"></path>
	<path fill="#373634" d="M1589.4,1971.3c-6.7-0.3-13.3,6.9-15.8,13.5c-1.1,3-2.3,8.6,13,39c9.3,18.4,12.8,22.6,18.5,25
		c5.3,2.3,14.5,3.8,18.5-0.6c2.2-2.4,3.7-7.3-9.7-38.4C1597.9,1972.7,1592,1971.4,1589.4,1971.3z"></path>
	<path fill="#373634" d="M1439.2,616.9c5.2,0.1,27.8,0.5,33.9,13.4c2.6,5.5,1.3,11.3,0,17c-0.5,2.4-6,24.6-21,29
		c-12.1,3.5-16.4-8.5-33-8c-8.3,0.3-17.3,5.9-35,17c-19.1,12-19.2,14.6-30,20c-14.4,7.3-38.2,14.8-42.3,8.8
		c-6.9-10.3,46.7-55.5,50.3-58.4C1407.7,617.6,1431.8,616.8,1439.2,616.9z"></path>
	<path fill="#373634" d="M1508.5,1834.3c0,0,0.4-50.5,0.5-85.2c0.1-46-0.8-42.8-0.1-48.8c5.1-47.3,45.9-115.9,103-117.3
		c60.7-1.5,106.2,73.6,109.1,124.7c0.5,9.7-1.1,9-2,41c-0.3,9.9-1.1,40.9,0.6,90.3c1.4,42.6,3.6,68.9-9.4,80.7
		c-2.2,2-16.9,14.4-16.9,14.4l0,0c-14.1,8.6-20.5,5.3-31.5,13c-3.1,2.2-5.8,4.7-19.1,24.5c-11.7,17.5-15.1,16.9-18.4,28.5
		c-1.8,6.4-1.7,11.1-3.6,11.4c-2.8,0.4-4.9-10.5-12-23.2c-8.1-14.5-18.1-23.3-22-26.7c-13.2-11.4-28-17.6-32-19.3
		c-10.9-4.4-19.4-5.9-26.9-14.5c-2.9-3.3-4.8-6.8-6.3-10.3C1508.1,1887,1508.5,1834.3,1508.5,1834.3z"></path>
	<path fill="#373634" d="M1167.4,1049.3c11.8-12.8,36.2-7.4,42.8-6c26,5.4,40.7,24.3,45,30c2.1,2.8,14.5,19.7,16,44
		c0.6,9.6,1.2,20.6-6,27c-7.8,6.9-20.2,4.2-26,3c-15.6-3.3-15.6-10.6-29-15c-24.3-8-54.5,6.1-54.5,6.1c0,0,0,0,0,0
		c-5.6-8.8-5.2-19-3.2-32.8c0.8-5.4,2.1-13,6-28.7C1162.6,1060.5,1164.7,1052.2,1167.4,1049.3z"></path>
	<path fill="#373634" d="M2058.5,1065.6c-2.6-1-5.9-0.8-8.3,0.7c-7.6,4.5-0.9,18-6,34c-6.8,21.6-28.1,33-30,34
		c-13.8,7.2-20.8,3.4-25,10c-6.7,10.6,4,31.7,18,43c4.2,3.4,19,15.5,37,11c18.4-4.6,25.8-23,27-26c4.8-12,1.2-17.4-2-47.3
		C2065.3,1088.3,2068,1069.3,2058.5,1065.6z"></path>
	<path fill="#373634" d="M1304,706.1c-1.6-7.9-8.7-10.2-19.6-18.1c-25.8-18.8-20.3-31.4-46.3-51.5c-10.7-8.2-21.8-16.6-37-17
		c-14.8-0.4-25.1,7-37.4,15.1c0,0-31.3,20.5-88.5,49.9c-34.6,17.7-42.3,17.3-54.3,31.1c-15.1,17.3-19.2,36.8-22.3,52.2
		c-7.5,37.4,4.3,47.2-2.1,91.5c-1.8,12.8-4.2,28.5-12.3,46.9c-12.5,28.6-27,37.3-46.3,62.2c-21.7,28.1-31.5,53.6-42.2,81.7
		c-17,44.7-21.7,80.8-24.3,102.5c-2.4,19.9-5.3,53.7,2.5,90.7c2.7,12.7,6.7,26,17.4,37.8c11.1,12.2,24,17,29.8,19.1
		c20.3,7.3,37.8,4.4,53.1,1.9c26.8-4.4,45.5-14.8,54.8-20.1c21.3-12.1,35.5-26,43.3-34.4c3.4-3.7,16.5-18.3,28.5-41.5
		c12.2-23.7,16.4-43.2,22.3-71.8c4-19.2,7.6-41.6,10-70c0.7-8.6,2.5-31.1,2-99c-0.5-62.7-2.2-71.1,0-104c1.7-26.5,3-44.7,9-69
		c9.9-40.5,17.6-36.2,22-67c1.4-9.9,2.7-25.1,14-37c2.6-2.7,8.9-9.2,17-9c7.6,0.2,12.3,6.2,18.7,12.8c0,0,24.1,24.6,57.1,38.3
		c3.2,1.3,18.2,7.4,18.2,7.4l0,0C1291.3,737.6,1306.6,719.4,1304,706.1z"></path>
	<path fill="#373634" d="M1925.4,703.3c1.8-11,14.9-11,35.6-25.8c25.7-18.3,22.5-30.1,49.6-48.3c11.2-7.5,22.8-15.1,38-14.5
		c14.8,0.6,24.6,8.6,36.3,17.5c0,0,29.9,22.5,85,55.6c33.3,20,41.1,20,52.2,34.6c14.2,18.7,17.5,39.8,18.9,53.6
		c4.4,46.1-4.6,54.4,0.1,95.3c1.6,14,3.2,28.4,10,46c11,28.6,21.6,29.7,43.6,64c6.6,10.3,25.9,41.9,37.5,85
		c3.4,12.5,5.3,22.9,7.3,33.9c5.5,30.5,7.4,55,8.1,68c2.7,47.4,4,71.1-7.4,94c-9.6,19.4-23.1,30.7-25.8,32.9c-6,5-16.2,13.2-31,17.1
		c-17.9,4.7-32.5,0.3-53.2-6c-7.2-2.2-27.6-8.8-51-24c-11-7.2-24.6-16-38-32c-12.7-15.1-18.5-28.7-25-44c-12-28-16.1-51.5-19-69
		c-0.9-5.6-4.2-26-5-53c-0.3-10.7-0.1-18.8,0-24c1.5-59.7,3-65.5,3.2-93.2c0.2-45.8-4-57.7,2.9-86.2c2.1-8.6,3.5-11.6,4.9-20.6
		c1.2-7.9,5.3-35.6-4-67c-3.1-10.4-5.6-14.3-7-25c-1.4-11,0.1-15.1-2-25c-1.7-7.7-3.2-7.9-9-22c-9-21.8-8-27.6-16-36.6
		c-3.8-4.2-8.8-9.8-16.4-10.1c-7.6-0.3-12.7,5.4-19.5,11.5c0,0-25.7,23-59.5,34.5c-3.2,1.1-18.7,6.2-18.7,6.2c-2,1.6-4.4,2.8-7,2.8
		C1934.1,729.8,1923.6,714.3,1925.4,703.3z"></path>
	<path fill="#373634" d="M939.1,1578.8c-13,6.6-15.7,24.7-17.5,36.5c-1.7,11.5-4.7,31.2,6.5,44c12.8,14.7,27.3,0.8,61,16.5
		c5.5,2.5,16.5,8.3,31,7.5c4.7-0.3,9.8-0.6,14-4c11.2-9,5.8-30.5,5.4-32c-3.1-12-10.8-19.6-26.1-34.3c-9.9-9.5-16.3-15.6-26.7-21.8
		C972.4,1582.7,953.6,1571.5,939.1,1578.8z"></path>
	<path fill="#373634" d="M1064.6,1787.8c-4.5-1.4-11,7.6-13.5,12c-7.6,13.3-4.3,29.8,3.5,39.5c3.2,4.1,9.3,9.6,12.5,8
		c2.7-1.4,2.1-7.5,1.6-13.6C1066.1,1800.7,1069.4,1789.3,1064.6,1787.8z"></path>
	<path fill="#373634" d="M1505,590.5c0,0,15.5-1.6,36.9-9.8c18.4-7,29.5-20.1,37.8-29.9c5.9-6.9,19-24.1,25.4-49.5
		c4.4-17.6,3.8-32.5,3.5-38.5c-0.4-9.4-1.5-10.4-4.2-36.8c-3-28.5-1.3-22.5-2-25.6c-0.4-1.8-1-3.8-0.2-4.3
		c2.3-1.6,13.9,10.3,21.6,20.9c9.3,12.9,13.5,24.6,16.9,34.6c3.3,9.5,8.1,23.8,8.7,43.2c0.2,6.9,0.5,17.7-2.7,31.1
		c-5,21-12.7,38.7-12.7,38.7c-3.2,7.4-6.4,13.5-3.9,16.3c2.6,3,9.9,0.6,12.1-0.2c8.5-2.8,13.7-8.3,22.5-18.4
		c10.6-12.3,16-18.5,19.6-23.7c11.1-15.7,14.9-25.9,18.3-25c2.2,0.6,2.7,5.7,3,9.8c1.1,12.9-3.2,23.1-4.3,25.7
		c-7.6,17.3-17.7,18.1-17.6,29c0.1,5.8,3,11.2,0,14c-1.9,1.8-5,1.3-6,1.2c-20.8-3-42-0.6-62.8-3.4c-9.6-1.3-34.3-4.3-63.8-0.5
		c-25.7,3.3-37.8,5.7-37.8,5.7c-15.3,2.9-28.1,6.2-29,3.8c-0.4-1.1,2.2-3.1,3.9-4.4C1495,589.6,1502.8,590.3,1505,590.5z"></path>
	<path fill="#2C2A28" d="M1133.1,829.3c1.8,0.1,1.9,11.4,2.8,146c0.2,36,0.3,70-4.6,114.9c-3.6,32.6-7.7,51-12.4,67.2
		c-6.7,22.6-13.5,45.8-31.8,71.5c-23,32.3-50,48.6-58,53.1c-10.8,6.2-25,12.8-42.4,17.3c-15.9,4.1-32.3,8.4-52.8,4.2
		c-7.7-1.6-25-5.1-39.6-19.2c-14.1-13.8-18-30.1-21.9-47.7c-3.5-15.6-5-32.4-3-61c3.4-48.9,13.9-85.7,16.5-94.7
		c5.5-18.6,15.2-50.9,37-88.4c26.1-44.8,59.6-80.6,63.3-78c4.6,3.2-43.7,62.9-70.2,160.3c-5.7,20.9-10.6,44.2-9.8,73.1
		c0.7,26.8,2.1,81.3,30.6,96.5c33.8,18.1,94.4-24.9,124.9-63.7c0,0,44.7-56.8,52.5-167.2c0.5-6.9,0.8-13.6,0.8-13.6
		c0.6-15.7-0.1-23.6,2.2-55.4C1120.8,893.2,1128.8,829,1133.1,829.3z"></path>
	<path fill="#2C2A28" d="M2103.1,822.6c-1.8,0-2.5,11.3-10.6,145.6c-2.2,35.9-4.1,69.9-1.5,115c1.9,32.8,4.9,51.4,8.8,67.7
		c5.5,23,11,46.5,27.9,73.1c21.2,33.5,47.3,51.2,55,56.2c10.4,6.7,24.3,14.1,41.4,19.5c15.7,5,31.8,10.1,52.5,7
		c7.8-1.2,25.3-3.7,40.6-17.1c14.8-13,19.6-29.1,24.5-46.5c4.3-15.3,6.7-32.1,6.3-60.8c-0.8-49.1-9.2-86.3-11.4-95.4
		c-4.5-18.9-12.4-51.6-32.2-90.3c-23.6-46.2-55.2-83.7-59-81.3c-4.8,3,40.3,65.2,61.5,163.8c4.5,21.2,8.2,44.8,5.9,73.5
		c-2.1,26.7-6.4,81-35.8,94.8c-34.8,16.2-92.9-30-121.3-70.3c0,0-41.6-59.1-43.4-169.8c-0.1-6.9-0.1-13.6-0.1-13.6
		c0.2-15.7,1.4-23.5,0.8-55.4C2111.9,887.1,2107.4,822.6,2103.1,822.6z"></path>
</g><g id="form_1_">
	<path fill="none" stroke="#000000" stroke-width="12" stroke-linecap="round" stroke-linejoin="round" d="M1534.6,584.6
		c-21.9,3.8-65,12.5-107.9,31.2c-37.6,16.4-56.8,32.7-58.6,34.1c-7.3,5.8-13,11.1-17,14.9c0,0,0,0,0,0c0,0-14.7,13.1-28,28.5
		c-9.3,10.8-45.5,73.7-75,168c-32.4,89.6-47,86.8-80.8,187.9c-12.3,36.9-23.2,73.9-14.6,118.6c4.7,24.6,14.4,51,32,77.6
		c16,24.1,85.6,109.4,156.7,146.2c53.3,27.6,131.7,64.8,262.3,65.2c109.3,0.3,203.3-17.3,331-92.1c49.1-28.7,88.9-61.6,114.8-119.4
		c26.6-59.5,24.2-122.9,13.1-165c-4.1-15.6-5.1-11.3-27.5-72.6c-8.4-23.1-12.3-34.7-20.5-57.9c-34.6-98.3-32.5-83.5-37.5-103.5
		c0,0-26.9-107-37-122.9c-2.9-4.5-5.9-9-5.9-9c0,0,0,0,0,0c-4.1-6.3-9-12.1-14.7-17.5c-12.9-13.4-24.3-23.1-31.8-29.1
		c-67.9-54.5-159.8-86.2-194.9-78.9c-1.9,0.4-10.5,2.1-12.6-1.4c-3-4.9,10.4-14.5,18.6-31.8c8.9-19,8.3-40.7,4-42
		c-5.6-1.8-15.3,31.8-50,59.5c-6.9,5.5-16.9,13.3-21.1,10.5c-6.9-4.7,10.7-32.6,16.1-62.5c11.6-64.4-35.7-128.1-45.5-125
		c-9.8,3.1,25.2,74.1-8.3,134.7C1577.6,560.3,1551.2,576.4,1534.6,584.6z"></path>
	<path fill="none" stroke="#000000" stroke-width="12" stroke-linecap="round" stroke-linejoin="round" d="M1380.9,1414.8
		c0,0-71.7,120.8-82.8,169.9c-17.1,75.1-25.1,114.6-42.1,135.6c-66.8,82.8-88.6,106-95.2,160.1c-7.8,64.9,51.3,89.9,51.3,89.9
		s-59.7,5.9-77.3,76.1c-7.4,29.7-7.4,85,43.1,81.2c5.4-0.4,28.9,36.8,74,18c11.6-4.8,9.6,30.5,96.6,1.6c8.7-2.9,33.1,26.1,109.8-0.4
		c6-2.1,36.5,31,105.7-7.5c3.3-1.8,28.1,3.3,54.1-14.2c6.4-4.3,20.2,25.5,59.1,12.6c8.2-2.7,24,36.3,101.2,8.4
		c11.8-4.3,18.7,31.2,109.1-0.6c13.4-4.7,24.5,33.5,90.4,2.5c9.1-4.3,55.8,22.6,76.4-17c5-9.6,53.8,1.7,55.5-51.3
		c1.3-42.7-10.6-98.5-80.3-107.7c-11.9-1.6,57.7-17.8,48.8-97.3c-3-26.8-47.4-92.8-94-146.7c-12.5-14.4-39.9-126.6-46.3-145.3
		c-6.4-18.7-77.5-138.9-81.4-173.5"></path>
	<g>
		<path d="M1310.3,1650.8c2.3,25.6,5.3,51.1,9.2,76.4c1.9,12.7,4,25.3,6.3,37.8c1.2,6.3,2.4,12.6,3.7,18.8c1.3,6.3,2.6,12.5,4,18.7
			c5.8,24.8,12.3,49.5,20.8,73.4c4.3,11.9,8.9,23.7,14.2,35.2c5.2,11.5,11.1,22.6,17.7,33.2c1.7,2.7,1,6.2-1.6,8l-0.1,0.1
			c-1.3,0.9-2.7,2-4.1,3.1c-1.4,1.1-2.7,2.2-4.1,3.3c-2.7,2.2-5.3,4.5-7.9,6.9c-5.2,4.7-10.1,9.7-14.8,14.9
			c-9.4,10.4-17.8,21.7-24.3,33.9c-3.3,6.1-6.1,12.4-8.3,18.9c-2.1,6.5-3.7,13.2-4.5,20c-1.6,13.5,0.3,27.3,4.9,40.2
			c4.7,12.9,12.3,24.9,21.3,35.6c4.5,5.4,9.4,10.5,14.5,15.4c4.8,4.5,10.8,7.8,17.3,9.8c6.5,2,13.5,3,20.5,3.3
			c7,0.3,14.2-0.2,21.2-1c7.1-0.9,14.1-2.1,21.1-3.8c7-1.6,13.9-3.6,20.8-5.9c-13.2,5.9-27,10.4-41.3,13.3
			c-7.2,1.4-14.4,2.3-21.8,2.5c-7.4,0.2-14.9-0.3-22.2-2.3c-7.3-1.9-14.5-5.3-20.5-10.4c-5.5-4.8-10.8-9.9-15.8-15.4
			c-9.9-11-18.4-23.5-24.1-37.5c-2.8-7-4.9-14.4-6-21.9c-1.1-7.5-1.3-15.2-0.6-22.8c0.7-7.6,2.3-15,4.5-22.3
			c2.3-7.2,5.2-14.2,8.7-20.8c6.9-13.3,15.8-25.4,25.6-36.5c4.9-5.5,10.2-10.8,15.6-15.8c2.7-2.5,5.5-4.9,8.3-7.3
			c1.4-1.2,2.9-2.4,4.3-3.5c1.5-1.2,2.9-2.3,4.6-3.4l-1.6,8.1c-13.9-22.4-24.2-46.5-32.4-71.1c-4.1-12.3-7.7-24.8-10.9-37.3
			c-3.2-12.5-6-25.2-8.4-37.9c-2.4-12.7-4.6-25.4-6.3-38.2c-1.7-12.8-3.2-25.6-4.4-38.4c-1.1-12.8-2.1-25.7-2.7-38.5
			C1310.4,1676.5,1310.1,1663.6,1310.3,1650.8z"></path>
	</g>
	<g>
		<path d="M1922.5,1640.8c0.2,12.9-0.1,25.7-0.7,38.6c-0.6,12.9-1.5,25.7-2.7,38.5c-1.2,12.8-2.7,25.6-4.4,38.4
			c-1.7,12.8-3.9,25.5-6.3,38.2c-2.4,12.7-5.1,25.3-8.4,37.9c-3.2,12.5-6.8,25-10.9,37.3c-8.2,24.6-18.5,48.8-32.4,71.1l-1.3-7.9
			c1.6,1.3,2.9,2.4,4.3,3.7c1.4,1.2,2.7,2.5,4.1,3.7c2.7,2.5,5.3,5.1,7.9,7.7c5.1,5.3,10,10.7,14.7,16.4
			c9.3,11.4,17.7,23.6,24.5,36.8c6.7,13.2,11.9,27.5,14,42.5c2.1,14.9,1.1,30.5-3.9,44.9c-4.9,14.4-13.1,27.3-22.9,38.3
			c-4.9,5.5-10.3,10.6-15.9,15.3c-1.4,1.2-2.8,2.3-4.3,3.5c-1.4,1.1-3,2.3-4.6,3.3c-3.2,2.1-6.5,3.9-9.9,5.5
			c-3.4,1.6-7,2.8-10.6,3.7c-3.6,0.9-7.3,1.6-11,1.9c-7.4,0.8-14.8,0.5-22-0.5c-14.5-2.1-28.4-6.7-41.1-13.5
			c6.6,2.8,13.5,4.9,20.4,6.5c6.9,1.7,14,2.8,21,3.2c7,0.5,14.1,0.2,20.9-1c3.4-0.6,6.8-1.4,10.1-2.5c3.3-1.1,6.5-2.3,9.5-3.9
			c3-1.6,5.9-3.3,8.7-5.4c1.4-1,2.6-2.1,4-3.2c1.3-1.1,2.7-2.3,4-3.5c5.2-4.7,10.1-9.8,14.6-15.1c8.9-10.6,16.1-22.7,20-35.7
			c2-6.5,3.2-13.2,3.6-20c0.4-6.8,0.1-13.6-1-20.3c-2.2-13.5-7.1-26.5-13.6-38.7c-6.5-12.3-14.5-23.8-23.5-34.5
			c-4.5-5.4-9.2-10.6-14.1-15.6c-2.5-2.5-5-5-7.5-7.3c-1.3-1.2-2.6-2.4-3.9-3.5c-1.3-1.1-2.7-2.3-3.9-3.3l0,0
			c-2.4-1.9-2.8-5.3-1.3-7.8c6.6-10.6,12.5-21.8,17.7-33.2c5.3-11.4,9.9-23.3,14.2-35.2c8.5-23.9,15.1-48.6,20.8-73.4
			c1.4-6.2,2.8-12.5,4-18.7c1.3-6.3,2.5-12.5,3.7-18.8c2.4-12.6,4.4-25.2,6.3-37.8C1917.1,1691.8,1920.2,1666.4,1922.5,1640.8z"></path>
	</g>
	<g>
		<path d="M1510.6,1650.8c0.3,24.3,0.3,48.5,0.5,72.8c0,12.1,0.1,24.2,0.4,36.3c0.2,12.1,0.4,24.2,0.9,36.2c0.3,6,0.6,12,1.2,17.8
			c0.3,2.8,0.7,5.9,1.1,8.9l1.1,9l4.3,36.1c1.5,12,2.9,24,4.7,35.8c0.5,3,0.9,5.9,1.5,8.8c0.3,1.4,0.6,2.9,0.9,4.2
			c0.3,1.3,0.7,2.7,1,3.6c0.1,0.2,0.2,0.4,0.2,0.4c0,0,0,0,0,0c0,0-0.1-0.2-0.2-0.2l-0.1-0.1c-0.1-0.1-0.2-0.2-0.3-0.4l-0.2-0.2
			l-0.1-0.1c-0.2-0.2,0,0,0.2,0.1c0.2,0.1,0.5,0.2,0.8,0.4c1.2,0.6,2.6,1.2,3.9,1.8c2.8,1.2,5.6,2.4,8.5,3.8
			c11.3,5.3,22.2,11.7,32.2,19.5c9.9,7.8,18.9,16.8,26.5,26.9c7.6,10.1,13.8,21.2,18.4,32.9c4.7,11.7,7.8,23.9,9.6,36.1
			c0.9,6.1,1.6,12.3,1.9,18.5c0.4,6.2,0.5,12.4,0.3,18.5c-0.2,6.2-0.6,12.3-1.2,18.4c-0.3,3.1-0.7,6.1-1,9.1l-0.6,4.5l-0.3,2.3
			c-0.1,0.7-0.3,1.6-0.5,2.4c-0.8,3.3-2.2,6.5-4.2,9.2c-2,2.7-4.4,5-7,6.9c-5.3,3.8-11.2,6.1-17.3,7.6c-6,1.5-12.2,2.2-18.3,2.3
			c-3.1,0-6.1-0.1-9.2-0.4c-1.5-0.2-3-0.4-4.5-0.8c-0.7-0.2-1.5-0.4-2.2-0.7c-0.7-0.3-1.4-0.6-1.9-1.3c0.5,0.6,1.3,0.8,2,1
			c0.7,0.2,1.5,0.3,2.2,0.4c1.5,0.2,3,0.3,4.5,0.3c3,0.1,6-0.1,9-0.4c6-0.6,11.9-1.8,17.5-3.7c5.6-1.9,11-4.4,15.4-8
			c2.2-1.8,4.1-3.9,5.5-6.2c1.4-2.3,2.4-4.8,2.8-7.5c0.1-0.7,0.2-1.3,0.2-2l0.2-2.2l0.4-4.5c0.2-3,0.4-6,0.5-9
			c0.3-6,0.3-12,0.2-17.9c-0.3-11.9-1.3-23.8-3.6-35.4c-2.2-11.6-5.6-22.9-10.2-33.7c-4.6-10.7-10.5-20.9-17.6-30.1
			c-7.1-9.2-15.4-17.4-24.7-24.4c-9.2-7.1-19.3-13-30-18c-2.7-1.2-5.4-2.4-8.1-3.7c-1.4-0.6-2.8-1.2-4.4-2c-0.4-0.2-0.8-0.4-1.3-0.6
			c-0.5-0.3-1-0.5-1.8-1.1c-0.1-0.1-0.2-0.2-0.4-0.3c-0.1-0.1-0.2-0.2-0.4-0.4c-0.2-0.2-0.3-0.4-0.5-0.6c-0.1-0.2-0.2-0.2-0.3-0.4
			c-0.2-0.2-0.4-0.5-0.5-0.7l-0.3-0.5c-0.4-0.7-0.6-1.2-0.7-1.7c-0.7-1.9-1.1-3.5-1.4-5.1c-0.4-1.6-0.7-3.1-0.9-4.7
			c-0.6-3.1-1-6.1-1.5-9.2c-1.7-12.2-3.1-24.2-4.4-36.3c-1.2-12.1-2.4-24.2-3.5-36.2l-0.9-9c-0.3-3-0.6-6-0.9-9.2
			c-0.4-6.2-0.5-12.4-0.6-18.5c0-12.2,0.1-24.4,0.6-36.5c0.4-12.1,1-24.3,1.6-36.4C1506.6,1699.2,1508.2,1675,1510.6,1650.8z"></path>
	</g>
	<g>
		<path d="M1730.6,1637.8c-2.7,17.8-4.6,35.6-5.8,53.5c-1.1,17.8-1.8,35.7-0.6,53.4c0.2,4.4,0.6,8.8,1.1,13.2
			c0.5,4.6,0.8,9.2,1,13.7c0.4,9.1,0.5,18.1,0.4,27.2c-0.1,9-0.4,18.1-0.8,27.1c-0.4,9-0.9,18-1.6,27c-1.4,18-3.1,36-6.1,54
			c-0.8,4.5-1.6,9-2.7,13.6c-0.6,2.3-1.2,4.6-2,7.1c-0.4,1.2-0.9,2.5-1.7,3.9c-0.4,0.7-0.9,1.5-1.7,2.5c-0.3,0.3-0.5,0.5-0.8,0.8
			c-0.2,0.1-0.3,0.3-0.5,0.4c-0.2,0.2-0.4,0.3-0.7,0.4c-0.2,0.1-0.5,0.3-0.8,0.4l-0.5,0.2c-0.2,0.1-0.4,0.1-0.5,0.2
			c-0.4,0.1-0.7,0.2-1.2,0.2c-0.2,0-0.4,0-0.6,0l-0.4,0c-3.3,0-7.1,0.9-10.9,2.3c-3.8,1.4-7.5,3.4-11.2,5.5
			c-7.3,4.4-14.2,9.6-20.7,15.4c-6.5,5.8-12.6,12-18.1,18.8c-5.5,6.7-10.5,13.9-14.2,21.5c-1.8,3.8-3.4,7.7-4.3,11.7
			c-0.9,3.9-1.1,7.9-0.3,11.5l0.1,0.3l0,0l2.8,18.7c0.9,6.2,1.9,12.5,2.8,18.7l0,0.2c0,0.1,0,0.2,0,0.4c-0.7,10.2-1.3,20.5-2.1,30.7
			l-1.2,15.4c-0.4,5.1-0.8,10.2-1.3,15.4c-0.2-5.1-0.3-10.3-0.4-15.4l-0.3-15.4c-0.2-10.3-0.3-20.5-0.4-30.8l0,0.6
			c-1.3-6.2-2.6-12.3-3.8-18.5l-3.8-18.5l0.1,0.3c-1.5-5.1-1.4-10.4-0.5-15.2c0.9-4.9,2.4-9.4,4.3-13.8c3.8-8.7,8.9-16.6,14.5-24
			c5.7-7.4,11.9-14.2,18.7-20.5c6.8-6.3,14.1-12.2,22.1-17.1c4-2.5,8.3-4.7,12.9-6.6c4.6-1.8,9.6-3.3,15.3-3.3c0.1,0,0,0-0.2,0
			c-0.1,0-0.3,0-0.4,0c-0.3,0-0.5,0.1-0.8,0.2c-0.1,0-0.2,0.1-0.3,0.1c-0.1,0-0.2,0.1-0.3,0.1c-0.2,0.1-0.4,0.2-0.4,0.2
			c-0.1,0.1-0.2,0.1-0.3,0.2c-0.1,0.1-0.1,0.1-0.2,0.2c-0.1,0.1-0.2,0.1-0.2,0.2c-0.1,0.2,0,0,0.1-0.3c0.3-0.5,0.6-1.4,0.9-2.3
			c0.6-1.8,1.2-3.8,1.7-5.9c1-4.1,1.8-8.5,2.5-12.8c1.4-8.7,2.6-17.5,3.6-26.4c1-8.8,1.9-17.7,2.7-26.6c1.6-17.8,2.8-35.6,3.6-53.4
			c0.4-8.9,0.7-17.8,0.6-26.7c0-4.4-0.1-8.8-0.4-13.2c-0.3-4.5-0.5-9.1-0.5-13.7c-0.1-9.1,0.3-18.2,1-27.2c0.6-9,1.7-18,3-26.9
			c0.6-4.5,1.3-8.9,2.1-13.4c0.8-4.4,1.6-8.9,2.5-13.3C1726.3,1655.3,1728.3,1646.5,1730.6,1637.8z"></path>
	</g>
	<g>
		<path d="M1553.2,2136.7c-0.2,0.1-0.4,0.3-0.5,0.5c0,0-0.1,0.1-0.1,0.1c0,0,0-0.1,0.1-0.1c0,0,0,0,0.1-0.1l0.1-0.2l0.2-0.3l0.2-0.4
			c0.1-0.3,0.2-0.6,0.3-0.9c0.4-1.3,0.7-2.9,1-4.4c0.5-3.2,0.9-6.5,1.2-9.8c0.5-6.7,0.7-13.5,0.6-20.4c-0.2-13.7-1.2-27.4-3.1-41
			c-1.9-13.6-4.7-27.1-9.3-40.1c-2.3-6.5-5.1-12.8-8.7-18.6c-3.7-5.8-8.3-11.1-14.5-14.4c6.4,2.8,11.6,8,15.7,13.6
			c4.2,5.7,7.5,11.9,10.3,18.3c5.6,12.9,9.5,26.4,12.4,40.1c2.9,13.7,5,27.6,6.2,41.7c0.6,7,0.9,14.1,0.9,21.2
			c0,3.6-0.2,7.2-0.5,10.9c-0.2,1.9-0.4,3.8-0.9,5.8c-0.1,0.5-0.2,1-0.4,1.6l-0.2,0.8l-0.3,0.9l-0.2,0.4c-0.1,0.2-0.2,0.3-0.2,0.5
			c-0.2,0.4-0.3,0.7-0.5,1c-0.3,0.4-0.5,0.8-0.8,1.2c-0.4,0.5-0.9,1-1.4,1.4c-2.6,2-6.4,1.6-8.4-1
			C1550.1,2142.5,1550.5,2138.8,1553.2,2136.7z"></path>
	</g>
	<g>
		<path d="M1450.4,2144.6c-0.2,0.3-0.4,0.6-0.5,1l-0.1,0.2l0,0.1c0,0.1,0,0.2,0,0.2l0,0c0,0,0,0,0,0l0-0.1c0-0.1,0-0.2,0.1-0.3
			c0.1-0.5,0.1-1.1,0.1-1.7c0.1-1.2,0.1-2.6,0.1-3.9c0-2.7-0.2-5.4-0.3-8.1c-0.4-5.5-0.9-11-1.6-16.5c-1.4-11-3.3-22-6-32.8
			c-2.7-10.8-5.9-21.5-10.6-31.5c-2.3-5-5.1-9.9-8.4-14.3c-3.3-4.4-7.4-8.4-12.4-11.1c5.2,2.2,9.7,5.9,13.5,10.1
			c3.8,4.2,7.1,9,9.9,13.9c5.7,9.9,10,20.5,13.7,31.2c3.7,10.8,6.6,21.8,9.1,32.9c1.2,5.6,2.3,11.2,3.2,16.9
			c0.4,2.8,0.8,5.7,1.1,8.6c0.1,1.5,0.3,3,0.3,4.5c0,0.8,0,1.6,0,2.5c0,0.2,0,0.5,0,0.7l0,0.4l-0.1,0.5l-0.1,0.5
			c0,0.1-0.1,0.5-0.2,0.7l-0.1,0.4c0,0.1,0,0.2-0.2,0.5c-0.2,0.5-0.5,1-0.8,1.5c-1.9,2.7-5.7,3.4-8.4,1.4
			C1449.1,2151,1448.5,2147.3,1450.4,2144.6z"></path>
	</g>
	<g>
		<path d="M1979.2,2144.9c-0.2,0.3-0.3,0.6-0.4,0.9l-0.1,0.2l0,0.1c0,0,0,0.2,0,0.1l0-0.1l0-0.1l0-0.2c0-0.1,0-0.2,0.1-0.4
			c0.1-0.6,0.1-1.2,0.1-1.8c0.1-1.3,0.1-2.7,0.1-4.1c0-2.8-0.1-5.7-0.3-8.6c-0.3-5.7-0.8-11.5-1.4-17.3c-1.2-11.5-2.9-23-5.3-34.4
			c-2.4-11.4-5.3-22.7-9.6-33.5c-2.1-5.4-4.6-10.7-7.7-15.6c-3.1-4.9-6.9-9.4-12-12.4c5.3,2.6,9.6,6.9,13.2,11.6
			c3.6,4.7,6.6,9.9,9.3,15.2c5.3,10.6,9.2,21.9,12.6,33.2c3.4,11.4,6.1,22.9,8.4,34.6c1.1,5.8,2.1,11.7,2.9,17.6
			c0.4,3,0.8,5.9,1.1,9c0.1,1.5,0.3,3.1,0.3,4.7c0,0.8,0,1.6,0,2.6c0,0.2,0,0.5,0,0.7l0,0.4l-0.1,0.5l-0.1,0.5
			c0,0.1-0.1,0.4-0.1,0.7l-0.1,0.3c0,0.1,0,0.2-0.1,0.5c-0.2,0.5-0.4,1-0.7,1.4c-1.7,2.8-5.4,3.7-8.3,1.9
			C1978.3,2151.4,1977.5,2147.7,1979.2,2144.9z"></path>
	</g>
	<g>
		<path d="M2045,2132.2c-0.1,0.1-0.2,0.2-0.2,0.4l0,0.1l0,0l0,0l0.1-0.1c0.1-0.2,0.2-0.3,0.2-0.6c0.2-0.5,0.4-1,0.5-1.6
			c0.4-1.2,0.7-2.4,1-3.6c0.6-2.5,1.1-5.1,1.5-7.7c0.9-5.2,1.5-10.4,1.8-15.7c0.7-10.5,0.2-21.2-1.6-31.6
			c-0.9-5.2-2.3-10.3-4.1-15.3c-1.8-5-4-9.8-6.9-14.3c-2.9-4.5-6.2-8.7-10.1-12.4c-3.9-3.7-8.3-6.8-13.1-9.6c4.9,2.3,9.7,5.1,14,8.4
			c4.3,3.5,8.2,7.4,11.6,11.8c3.4,4.4,6.2,9.3,8.6,14.3c2.4,5,4.3,10.3,5.8,15.7c3,10.8,4.5,21.9,4.8,33.1
			c0.2,5.6,0.1,11.2-0.4,16.8c-0.2,2.8-0.5,5.6-0.9,8.5c-0.2,1.4-0.4,2.8-0.7,4.3c-0.1,0.7-0.3,1.5-0.5,2.3
			c-0.1,0.4-0.3,0.9-0.4,1.3l-0.1,0.3l0,0.1l-0.1,0.2l-0.1,0.3c-0.2,0.4-0.4,0.9-0.7,1.3c-1.9,2.7-5.6,3.5-8.3,1.6
			S2043.1,2134.9,2045,2132.2z"></path>
	</g>
	<g>
		<path d="M1775.7,2144.5c-0.1-1.6-0.1-3-0.1-4.5c0-1.5,0-2.9,0-4.3c0-2.9,0.2-5.8,0.3-8.6c0.3-5.7,0.9-11.4,1.7-17.1
			c1.6-11.3,4.2-22.5,8-33.3c1.9-5.4,4.2-10.6,6.7-15.7c2.6-5.1,5.6-9.9,8.9-14.5c3.3-4.6,7.1-8.8,11.2-12.7
			c4.1-3.9,8.6-7.2,13.3-10.3c-4.4,3.5-8.6,7.2-12.2,11.3c-3.6,4.2-7,8.6-9.8,13.4c-2.8,4.7-5.3,9.7-7.3,14.8
			c-2,5.1-3.7,10.3-5.1,15.6c-2.7,10.6-4.2,21.5-4.8,32.4c-0.3,5.5-0.3,10.9-0.2,16.4c0.1,2.7,0.2,5.4,0.4,8.1
			c0.1,1.3,0.2,2.7,0.4,4c0.1,1.3,0.3,2.7,0.5,3.9c0.5,3.3-1.7,6.3-5,6.8c-3.3,0.5-6.3-1.7-6.8-5
			C1775.7,2144.9,1775.7,2144.7,1775.7,2144.5L1775.7,2144.5z"></path>
	</g>
	<g>
		<path d="M1674.2,2136.1c-0.2-3.6-0.3-6.9-0.4-10.4c-0.1-3.4-0.1-6.9,0-10.3c0.1-6.8,0.3-13.7,0.7-20.5c0.9-13.6,2.5-27.3,5.3-40.7
			c2.8-13.4,6.8-26.7,13.1-38.8c3.2-6.1,7-11.9,11.7-16.9c4.7-5,10.2-9.2,16.4-12c-6,3.2-11.1,7.7-15.2,12.9
			c-4.2,5.2-7.4,11.1-10.1,17.2c-5.2,12.2-8.1,25.4-9.9,38.6c-1.7,13.2-2.3,26.6-2.2,39.9c0.1,6.7,0.3,13.3,0.8,20
			c0.2,3.3,0.5,6.6,0.8,10c0.3,3.3,0.7,6.7,1.1,9.8l0,0.1c0.4,3.3-1.9,6.3-5.1,6.8c-3.3,0.4-6.3-1.9-6.8-5.1
			C1674.2,2136.4,1674.2,2136.3,1674.2,2136.1z"></path>
	</g>
	<g>
		<path d="M1249.2,2144.6c-0.2-3.2-0.3-6.2-0.3-9.3c0-3,0-6.1,0.1-9.1c0.2-6.1,0.5-12.1,1.1-18.1c1.1-12.1,3.1-24.1,6.2-35.8
			c3.3-11.7,7.7-23.1,14.3-33.3c6.5-10.2,15.8-18.7,26.7-23.6c-10.4,5.8-18.7,14.8-24.1,25.1c-5.6,10.3-8.9,21.6-11.1,33.1
			c-2.1,11.5-3,23.2-3.1,34.9c0,5.8,0.1,11.7,0.5,17.5c0.2,2.9,0.4,5.8,0.7,8.7c0.3,2.9,0.6,5.8,1,8.5l0,0.1
			c0.5,3.3-1.8,6.3-5.1,6.8c-3.3,0.5-6.3-1.8-6.8-5.1C1249.3,2144.9,1249.2,2144.7,1249.2,2144.6z"></path>
	</g>
	<g>
		<path d="M1178.2,2132.4c-0.3-1.5-0.4-2.7-0.6-4.1c-0.2-1.3-0.3-2.7-0.5-4c-0.3-2.6-0.5-5.3-0.6-7.9c-0.3-5.3-0.4-10.6-0.2-15.8
			c0.4-10.5,1.6-21.1,4.4-31.3c1.4-5.1,3.1-10.1,5.3-14.9c2.2-4.8,4.9-9.4,8-13.6c3.2-4.2,6.9-7.9,11-11.2c4.1-3.2,8.6-5.8,13.3-7.9
			c-4.4,2.6-8.6,5.5-12.3,9c-3.6,3.5-6.8,7.5-9.5,11.7c-5.2,8.6-8.4,18.2-10,28.1c-1.7,9.8-1.9,19.9-1.2,29.9c0.3,5,0.9,10,1.7,14.9
			c0.4,2.5,0.8,4.9,1.3,7.3c0.3,1.2,0.5,2.4,0.8,3.6c0.3,1.2,0.6,2.4,0.9,3.5c0.9,3.2-0.9,6.5-4.1,7.4s-6.5-0.9-7.4-4.1
			C1178.3,2132.8,1178.2,2132.7,1178.2,2132.4L1178.2,2132.4z"></path>
	</g>
	<path fill="none" stroke="#000000" stroke-width="12" stroke-linecap="round" stroke-linejoin="round" d="M1208.5,1968.6
		c0,0,65.3,31,135.6,14"></path>
	<path fill="none" stroke="#000000" stroke-width="12" stroke-linecap="round" stroke-linejoin="round" d="M2032.1,1969.6
		c0,0-74.7,39-135.9,18.2"></path>
	<path fill="#1B110F" stroke="#000000" stroke-width="6.6937" stroke-linecap="round" stroke-linejoin="round" d="M1718.6,2096.7
		c-3.3,13.2,6.1,28.4,12.4,28.8c10.7,0.8,21.9-40,12.8-45.9C1738.2,2076,1722,2082.9,1718.6,2096.7z"></path>
	<path fill="#1B110F" stroke="#000000" stroke-width="6.6937" stroke-linecap="round" stroke-linejoin="round" d="M1639.5,2084.7
		c-2.1,8.6,4.4,18.6,8.6,18.9c7.1,0.6,14.2-25.8,8-29.8C1652.4,2071.4,1641.6,2075.7,1639.5,2084.7z"></path>
	<path fill="#1B110F" stroke="#000000" stroke-width="6.6937" stroke-linecap="round" stroke-linejoin="round" d="M1517.2,2098.8
		c1.7,12.5-8.5,25.4-14.3,25.2c-9.9-0.4-16.1-39-7-43.5C1501.3,2077.8,1515.5,2085.7,1517.2,2098.8z"></path>
	<path fill="#1B110F" stroke="#000000" stroke-width="6.6937" stroke-linecap="round" stroke-linejoin="round" d="M1603.2,2082.4
		c2.6,11.9-7.2,26-13.3,26.7c-10.4,1.1-19.4-35.5-10.2-41.2C1585.2,2064.4,1600.5,2070,1603.2,2082.4z"></path>
	<path fill="#1B110F" stroke="#000000" stroke-width="6.6937" stroke-linecap="round" stroke-linejoin="round" d="M1412.3,2109.2
		c1.4,10.7-7.8,22-12.9,21.8c-8.7-0.2-13.8-33.4-5.7-37.4C1398.4,2091.3,1410.8,2098,1412.3,2109.2z"></path>
	<path fill="#1B110F" stroke="#000000" stroke-width="6.6937" stroke-linecap="round" stroke-linejoin="round" d="M1270.3,2100.1
		c0.3-10.2,10.3-19.3,14.9-18.3c7.9,1.6,7.7,33.4-0.2,35.8C1280.4,2119,1270,2110.8,1270.3,2100.1z"></path>
	<path fill="#1B110F" stroke="#000000" stroke-width="6.6937" stroke-linecap="round" stroke-linejoin="round" d="M1199.8,2087.1
		c0.3-10.1,9.9-19,14.5-18.1c7.7,1.6,7.6,33-0.1,35.4C1209.6,2105.8,1199.5,2097.7,1199.8,2087.1z"></path>
	<path fill="#1B110F" stroke="#000000" stroke-width="6.6937" stroke-linecap="round" stroke-linejoin="round" d="M1148.6,2074
		c0.5-9.4,10.5-17.8,15.2-17c7.8,1.3,7,30.4-0.8,32.8C1158.2,2091.2,1148,2083.9,1148.6,2074z"></path>
	<path fill="#1B110F" stroke="#000000" stroke-width="6.6937" stroke-linecap="round" stroke-linejoin="round" d="M1820.1,2101.8
		c-2.7,13,8.7,28.8,15.6,29.7c11.8,1.6,21.2-38.5,10.7-45.1C1840.1,2082.5,1822.9,2088.1,1820.1,2101.8z"></path>
	<path fill="#1B110F" stroke="#000000" stroke-width="6.6937" stroke-linecap="round" stroke-linejoin="round" d="M1954.3,2107.3
		c-2.2-8.9-13.8-15.1-18.2-13.6c-7.6,2.6-1.4,30.2,6.9,31.1C1947.8,2125.2,1956.6,2116.5,1954.3,2107.3z"></path>
	<path fill="#1B110F" stroke="#000000" stroke-width="6.6937" stroke-linecap="round" stroke-linejoin="round" d="M2029.8,2097.2
		c-2.2-10.1-13.7-17.1-18.2-15.4c-7.6,3-1.6,34.3,6.7,35.3C2023.3,2117.7,2032,2107.7,2029.8,2097.2z"></path>
	<path fill="#1B110F" stroke="#000000" stroke-width="6.6937" stroke-linecap="round" stroke-linejoin="round" d="M2090.6,2077.1
		c-2.1-8-13.1-13.7-17.3-12.3c-7.2,2.3-1.3,27.2,6.6,28C2084.6,2093.3,2092.8,2085.5,2090.6,2077.1z"></path>
	<path fill="none" stroke="#000000" stroke-width="12" stroke-linecap="round" stroke-linejoin="round" d="M1309.8,711
		c-15.8-13-27.6-24.9-35.6-33.6c-27.2-29.5-38.7-51.3-65.4-56.9c-24.5-5.2-34.6,11.4-112.6,53.1c-43.5,23.3-56.3,26.7-67.1,34.7
		c-4.1,3.1-7,6.1-8.2,7.3c-32,31.1-24.6,107.6-24.3,135c0.8,83.9-62.5,87.8-102.8,204.5c-25.2,73.1-44.7,199.8,10,237.2
		c35.8,24.5,102,9.7,146.2-24c157-120,31.4-476.5,122.5-510.4c18-6.7,47.1-1.8,96.5,44.3c5.4-13.6,11.2-27.5,17.5-41.7
		C1294.2,743.2,1302,726.7,1309.8,711z"></path>
	<g>
		<path d="M1134.5,812c5.1-22.4,10.7-44.8,17.6-66.9c3.5-11,7.2-22,11.8-32.7c2.3-5.4,4.8-10.7,7.6-15.8c2.9-5.1,6.1-10.2,10.5-14.6
			c2.2-2.2,4.7-4.2,7.8-5.6c3.1-1.4,6.9-1.8,10.3-0.7c1.7,0.5,3.2,1.4,4.5,2.3c1.3,0.9,2.5,2,3.6,3c2.2,2.1,4.1,4.2,6,6.3
			c7.7,8.3,16.2,15.8,25.4,22.6c4.6,3.3,9.3,6.5,14.2,9.5c4.9,2.9,9.9,5.7,15,8.3c10.2,5.1,20.8,9.6,31.6,13.3
			c-11-3.3-21.8-7.2-32.3-11.9c-5.3-2.3-10.4-4.9-15.5-7.7c-5-2.8-10-5.8-14.8-9c-9.6-6.4-18.7-13.7-26.9-21.9c-2.1-2-4.1-4-6.1-5.8
			c-1-0.9-2.1-1.7-3.1-2.4c-1.1-0.7-2.1-1.2-3.2-1.5c-2.1-0.6-4.4-0.3-6.5,0.8c-2.1,1.1-4.1,2.7-5.8,4.7c-3.5,3.9-6.4,8.7-8.9,13.7
			c-2.5,5-4.7,10.2-6.6,15.4c-3.9,10.6-7.2,21.4-10.1,32.4c-5.8,22-10.4,44.3-14.5,66.8l0,0c-0.6,3.3-3.7,5.4-7,4.8s-5.4-3.7-4.8-7
			C1134.5,812.2,1134.5,812.1,1134.5,812z"></path>
	</g>
	<path fill="none" stroke="#000000" stroke-width="12" stroke-linecap="round" stroke-linejoin="round" d="M1925.4,703.3
		c22.9-12.9,38.5-26.3,48.4-35.7c26-24.9,39.6-48.7,68.5-53.1c24.7-3.8,33.9,13.4,109.4,59.4c42.1,25.7,54.7,29.8,65.1,38.5
		c3.9,3.3,6.6,6.5,7.8,7.7c30.2,32.8,18.4,108.8,16.6,136.1c-5.5,83.7,57.4,91.2,91.1,210c21.1,74.4,33.3,202-23.4,236.3
		c-37.2,22.5-102.4,4-144.6-32.3c-150.1-128.9-4.3-477.1-93.3-516.5c-18.5-8.2-49.8-4.3-106.4,44.4c-2.1-13-5.9-29-12.8-46.6
		C1943.6,731.2,1933.8,715.1,1925.4,703.3z"></path>
	<g>
		<path d="M2093.7,811.7c-2.8-22.6-6.1-45.2-10.7-67.5c-2.3-11.1-4.9-22.2-8.2-32.9c-1.7-5.4-3.5-10.7-5.7-15.8
			c-2.2-5.1-4.8-10-8.1-14.1c-1.6-2-3.5-3.8-5.5-5c-2-1.2-4.3-1.6-6.4-1.1c-1.1,0.2-2.2,0.7-3.2,1.3c-1.1,0.6-2.2,1.4-3.2,2.2
			c-2.2,1.7-4.3,3.6-6.4,5.5c-8.7,7.7-18.2,14.4-28.1,20.3c-5,2.9-10.1,5.6-15.3,8.1c-5.2,2.4-10.5,4.8-15.9,6.8
			c-10.7,4.1-21.7,7.5-32.9,10.1c11-3.1,21.8-6.9,32.3-11.5c5.3-2.2,10.4-4.8,15.4-7.4c5-2.7,9.9-5.6,14.7-8.7
			c9.5-6.2,18.5-13.2,26.6-21.1c2.1-2,4.1-4,6.4-5.9c1.2-1,2.4-1.9,3.7-2.8c1.4-0.8,2.9-1.6,4.6-2c3.5-0.9,7.2-0.3,10.2,1.3
			c3,1.6,5.4,3.7,7.5,6.1c4.1,4.7,7,9.9,9.6,15.2c2.6,5.3,4.8,10.7,6.7,16.2c3.9,11,7.1,22.1,9.9,33.3c5.6,22.4,9.9,45.1,13.8,67.7
			c0.6,3.3-1.6,6.4-4.9,6.9c-3.3,0.6-6.4-1.6-6.9-4.9C2093.7,811.9,2093.7,811.8,2093.7,811.7L2093.7,811.7z"></path>
	</g>
	<path fill="none" stroke="#000000" stroke-width="12" stroke-linecap="round" stroke-linejoin="round" d="M1205.7,1967.9
		c-66.9-17.3-97.7-47.5-113.4-70.2c-54.7-78.8,6.7-164-58.7-259.8c-33.7-49.4-68.4-57.6-78.8-59.6c-6.2-1.2-54.3-9.3-80,23.1
		c-25.7,32.4-13.4,87.8,14.5,105.9c31.8,20.6,64.5-22.4,98.4-6.5c51.6,24.2,16.3,141.2,76,219.4c31.2,40.8,73,65.3,73,65.3
		c9.5,5.6,17.8,9.6,23.8,12.2"></path>
</g><g id="eye_x5F_04">
	<g id="图层_5_x5F_复制_2">
		<path fill="#F9F8F7" d="M1416.5,908.6c-1.7,0-2.9-0.7-3.7-1.6c-1.4-0.1-2.9-0.1-4.3-0.2c-16.2,5-33.3,3.8-50,5.1
			c-2.3,0.2-3.9-1.4-4.6-3.3c-6.7,1.5-13.3,2.8-20.1,4c0.6,2.7-1,5.8-4.7,6c-11.5,0.6-23,1.6-34.6,1.5c-2.3,8-3.6,16.5-3.6,25.3
			c0,49.9,40.5,90.4,90.4,90.4c49.9,0,90.4-40.5,90.4-90.4c0-13-2.8-25.4-7.7-36.5C1448.2,908.9,1432.4,909,1416.5,908.6z"></path>
		<path fill="#6A652A" d="M1433.8,905.3c-18.3,0.2-36.7,0.1-55,0.9c-13.1,0.5-26.2,2.1-39.3,3c-7.4,10.1-11.8,22.5-11.8,36
			c0,33.4,27.1,60.5,60.5,60.5s60.5-27.1,60.5-60.5C1448.8,929.9,1443.1,916,1433.8,905.3z"></path>
		<circle fill="#342C12" stroke="#0C0C0C" stroke-width="5.4703" cx="1393.9" cy="945.7" r="38.2"></circle>
		<circle fill="#201F0A" cx="1390.6" cy="945.7" r="23"></circle>
		<circle fill="#B39E85" cx="1345.1" cy="954.8" r="18.5"></circle>
		<circle fill="#FFFFFF" cx="1426.6" cy="947.8" r="25.5"></circle>
		<path fill="#F9F8F7" d="M1817.8,908.6c1.7,0,2.9-0.7,3.7-1.6c1.4-0.1,2.9-0.1,4.3-0.2c16.2,5,33.3,3.8,50,5.1
			c2.3,0.2,3.9-1.4,4.6-3.3c6.7,1.5,13.3,2.8,20.1,4c-0.6,2.7,1,5.8,4.7,6c11.5,0.6,23,1.6,34.6,1.5c2.3,8,3.6,16.5,3.6,25.3
			c0,49.9-40.5,90.4-90.4,90.4c-49.9,0-90.4-40.5-90.4-90.4c0-13,2.8-25.4,7.7-36.5C1786,908.9,1801.9,909,1817.8,908.6z"></path>
		<path fill="#6A652A" d="M1800.4,905.3c18.3,0.2,36.7,0.1,55,0.9c13.1,0.5,26.2,2.1,39.3,3c7.4,10.1,11.8,22.5,11.8,36
			c0,33.4-27.1,60.5-60.5,60.5s-60.5-27.1-60.5-60.5C1785.5,929.9,1791.1,916,1800.4,905.3z"></path>
		<circle fill="#342C12" stroke="#0C0C0C" stroke-width="5.4703" cx="1840.4" cy="945.7" r="38.2"></circle>
		<circle fill="#201F0A" cx="1843.7" cy="945.7" r="23"></circle>
		<circle fill="#B39E85" cx="1889.2" cy="954.8" r="18.5"></circle>
		<circle fill="#FFFFFF" cx="1807.6" cy="947.8" r="25.5"></circle>
	</g>
	<path fill="none" stroke="#000000" stroke-width="10.0405" d="M1474.3,947.4c0,51.5-41.8,93.3-93.3,93.3
		c-40.5,0-74.9-25.8-87.9-61.8c-3.5-9.8-5.4-20.4-5.4-31.5c0-9.7,4.2-27.7,4.2-27.7l182.4-6.8
		C1474.3,912.8,1474.3,927.9,1474.3,947.4z"></path>
	<g>
		<path d="M1479.5,907.3c-3.9,2.2-7.8,4.2-11.7,6c-1.9,0.9-3.9,1.8-5.8,2.6c-1.9,0.8-3.9,1.7-5.8,2.4c-1,0.4-2,0.2-3,0.1
			c-1-0.1-2,0-3,0l-5.9,0.2l-11.9,0.5l-47.5,1.9l-47.5,1.9l-23.7,0.9l-6-2c-2-0.7-4-1.4-6-2.1c-4-1.5-8-3.1-12.1-4.9
			c3.9-2.2,7.8-4.1,11.7-5.8c1.9-0.9,3.9-1.7,5.8-2.6l5.8-2.5l23.7-0.9l47.5-1.9l47.5-1.9l11.9-0.5l5.9-0.2c1-0.1,2,0,3-0.2
			c1-0.2,2-0.4,3-0.2c2,0.6,4,1.3,6,2c2,0.7,4,1.4,6,2.2C1471.4,903.8,1475.4,905.4,1479.5,907.3z"></path>
	</g>
	<g display="none">
		<path display="inline" d="M1292.7,971.6c-0.4-0.1-0.6-0.1-0.8-0.2c-0.2-0.1-0.4-0.1-0.6-0.2c-0.4-0.1-0.8-0.3-1.2-0.4
			c-0.8-0.3-1.5-0.6-2.3-1c-0.8-0.3-1.5-0.7-2.2-1.1l-2.1-1.2c-2.8-1.6-5.4-3.5-7.7-5.5c-1.2-1-2.3-2.2-3.3-3.3
			c-0.5-0.6-1-1.2-1.5-1.8c-0.2-0.3-0.5-0.6-0.7-0.9l-0.7-0.9c-1.8-2.4-3.1-5.2-4.2-7.8c2.1,2.1,4.1,4,6.5,5.4l0.9,0.6
			c0.3,0.2,0.6,0.3,0.9,0.5c0.6,0.3,1.2,0.7,1.8,1c1.3,0.5,2.5,1.1,3.7,1.5c2.5,0.9,5.1,1.5,7.6,1.8l1.9,0.2c0.6,0,1.3,0.1,1.9,0.1
			c0.6,0,1.3,0,1.9,0c0.3,0,0.6,0,0.9,0c0.2,0,0.3,0,0.4,0c0.1,0,0.3,0,0.3-0.1L1292.7,971.6z"></path>
	</g>
	<path fill="none" stroke="#000000" stroke-width="10.0405" d="M1759.9,947.4c0,51.5,41.8,93.3,93.3,93.3
		c40.5,0,74.9-25.8,87.9-61.8c3.5-9.8,5.4-20.4,5.4-31.5c0-9.7-4.2-27.7-4.2-27.7l-182.4-6.8
		C1759.9,912.8,1759.9,927.9,1759.9,947.4z"></path>
	<g>
		<path d="M1754.8,907.3c4-1.9,8.1-3.5,12.1-5c2-0.8,4-1.4,6-2.2c2-0.7,4-1.3,6-2c1-0.3,2,0,3,0.2c1,0.2,2,0.1,3,0.2l5.9,0.2
			l11.9,0.5l47.5,1.9l47.5,1.9l23.7,0.9l5.8,2.5c1.9,0.9,3.9,1.7,5.8,2.6c3.9,1.8,7.8,3.7,11.7,5.8c-4,1.8-8.1,3.4-12.1,4.9
			c-2,0.8-4,1.4-6,2.1l-6,2l-23.7-0.9l-47.5-1.9l-47.5-1.9l-11.9-0.5l-5.9-0.2c-1,0-2-0.1-3,0c-1,0.1-2,0.3-3-0.1
			c-2-0.8-3.9-1.6-5.8-2.4c-1.9-0.9-3.9-1.7-5.8-2.6C1762.6,911.5,1758.7,909.5,1754.8,907.3z"></path>
	</g>
	<g display="none">
		<path display="inline" d="M1940.2,958.3c0,0,0.1,0,0.3,0.1c0.1,0,0.3,0,0.4,0c0.3,0,0.6,0,0.9,0c0.6,0,1.2,0,1.9,0
			c0.6,0,1.3-0.1,1.9-0.1l1.9-0.2c2.6-0.3,5.1-0.9,7.6-1.8c1.3-0.4,2.5-1,3.7-1.5c0.6-0.3,1.2-0.6,1.8-1c0.3-0.2,0.6-0.3,0.9-0.5
			l0.9-0.6c2.4-1.4,4.5-3.4,6.5-5.4c-1.1,2.7-2.4,5.4-4.2,7.8l-0.7,0.9c-0.2,0.3-0.5,0.6-0.7,0.9c-0.5,0.6-1,1.2-1.5,1.8
			c-1.1,1.1-2.1,2.3-3.3,3.3c-2.3,2.1-4.9,3.9-7.7,5.5l-2.1,1.2c-0.7,0.4-1.4,0.7-2.2,1.1c-0.7,0.3-1.5,0.7-2.3,1
			c-0.4,0.2-0.8,0.3-1.2,0.4c-0.2,0.1-0.4,0.1-0.6,0.2c-0.2,0.1-0.4,0.1-0.8,0.2L1940.2,958.3z"></path>
	</g>
	<g id="图层_22">
		<path fill="#131312" d="M1379.4,796.4c15.6,1.1,46.1,3.5,78.5,12.4c7.6,2.1,17.4,5,19.3,10.2c2,5.3-5.4,10.1-6,10.5
			c-9.2,5.8-22.8,3.2-76.4-4.7c-34-5-49.5-7.1-61.8-16.5c-2.7-2.1-9.3-7.2-7.3-10.7C1327.4,794.4,1335.2,793.2,1379.4,796.4z"></path>
		<path fill="#131312" d="M1854.8,796.4c-15.6,1.1-46.1,3.5-78.5,12.4c-7.6,2.1-17.4,5-19.3,10.2c-2,5.3,5.4,10.1,6,10.5
			c9.2,5.8,22.8,3.2,76.4-4.7c34-5,49.5-7.1,61.8-16.5c2.7-2.1,9.3-7.2,7.3-10.7C1906.9,794.4,1899.1,793.2,1854.8,796.4z"></path>
	</g>
</g><g id="mouth_x5F_05">
	<path fill="none" stroke="#050101" stroke-width="2" d="M1579.2,1147.3c0,0-70.1-33.8-191,24.8"></path>
	<path fill="none" stroke="#050101" stroke-width="2" d="M1569.7,1157.5c0,0-94.5-14.8-176.7,54.6"></path>
	<path fill="none" stroke="#050101" stroke-width="2" d="M1563.7,1170.9c0,0-102.3-4-163.5,82"></path>
	<path fill="none" stroke="#050101" stroke-width="2" d="M1646.1,1147.3c0,0,70.1-33.8,191,24.8"></path>
	<path fill="none" stroke="#050101" stroke-width="2" d="M1655.6,1157.5c0,0,94.5-14.8,176.7,54.6"></path>
	<path fill="none" stroke="#050101" stroke-width="2" d="M1661.6,1170.9c0,0,102.3-4,163.5,82"></path>
	<g id="图层_33">
		<path fill="none" stroke="#070606" stroke-width="12" stroke-miterlimit="10" d="M1615.3,1216.3c0,0-17.9,31-75.4,38.3"></path>
		<path fill="none" stroke="#070606" stroke-width="12" stroke-miterlimit="10" d="M1617.2,1216.3c0,0,17.9,31,75.4,38.3"></path>
	</g>
	
		<line fill="none" stroke="#060404" stroke-width="18.6862" stroke-miterlimit="10" x1="1619.7" y1="1113.4" x2="1617.7" y2="1218.9"></line>
	<g>
		<path fill="#22170E" d="M1605.6,964.8l-51.1,17.2l-34,30.8l-1.5,31.6l12.3,26.6l29.4,28.1c0,0,30.2,16.4,41.4,16.4
			s51.6-3.2,70-20.7s32.9-37.4,35.1-49c2.2-11.6,1.7-27.1,0-30.6c-1.7-3.5-28.2-29.5-35.1-33.2c-6.9-3.7-39.8-17.9-44.9-17.2
			C1622.2,965.5,1605.6,964.8,1605.6,964.8z"></path>
		<path fill="#060404" d="M1552.6,1055.6c11.8-5,35.9,19,32.1,28.4c-3.2,7.9-28.9,12.7-37.5-1.2
			C1541.5,1073.5,1545.3,1058.7,1552.6,1055.6z"></path>
		<path fill="#060404" d="M1674.2,1055.6c-11.8-5-35.9,19-32.1,28.4c3.2,7.9,28.9,12.7,37.5-1.2
			C1685.3,1073.5,1681.5,1058.7,1674.2,1055.6z"></path>
		<ellipse fill="#FFFFFF" cx="1612.7" cy="985.2" rx="32" ry="20.4"></ellipse>
		<path fill="none" stroke="#000000" stroke-width="6.6937" d="M1613.4,964.8c0,0-54.2,0.2-89.8,43.2
			c-21.3,25.7,9.2,102.2,89.8,107.5"></path>
		<path fill="none" stroke="#000000" stroke-width="6.6937" d="M1613.4,964.8c0,0,54.2,0.2,89.8,43.2
			c21.3,25.7-9.2,102.2-89.8,107.5"></path>
	</g>
</g></svg>
	