<?xml version="1.0" encoding="utf-8"?>
<!-- Generator: Adobe Illustrator 21.0.0, SVG Export Plug-In . SVG Version: 6.00 Build 0)  -->
<svg version="1.1" id="图层_1" xmlns="http://www.w3.org/2000/svg" xmlns:xlink="http://www.w3.org/1999/xlink" x="0px" y="0px"
	 viewBox="0 0 42 40.8" enable-background="new 0 0 42 40.8" xml:space="preserve">
<ellipse fill="#C5EDBC" cx="21" cy="20.4" rx="21" ry="20.4"/>
<g id="color_x5F_04_1_">
	<g id="form_5_">
		<path display="none" fill="none" stroke="#231815" stroke-width="0.325" stroke-linecap="round" stroke-linejoin="round" d="
			M19.3,12.4c-1.2,0.1-2.8,0.4-4.4,1.7c-0.1,0-0.1,0.1-0.1,0.1c-1.9,1.7-2.9,4.2-3.1,4.8c-0.2,0.5-0.1,2.7-1.1,4.1
			c-0.3,0.4-1,2.5,0.4,4.6c0.4,0.6,2,2.5,3.6,3.4c1.2,0.6,3.1,1.5,6.1,1.5c2.5,0,4.7-0.4,7.7-2.1c0.9-0.5,1.9-1.7,2.7-2.8
			c0.8-1.1,1.1-3.6,0.3-4.6c-0.5-0.7-1-3.6-1.3-4.4c-0.7-2-1.4-3.3-2.8-4.4c-1.9-1.5-4.1-1.8-5.1-1.9C21.1,12.1,20,12.2,19.3,12.4z"
			/>
		<path fill="#E39038" d="M15.3,13.5c-3-2.7-6.7-5.6-8.2-4.6c-0.9,0.6-0.6,2.6-0.4,3.8c0.6,3.9,3.1,6.6,4.7,8.1"/>
		<path fill="#E39038" d="M12.8,16c0,0-2.4-4.2-5.1-5.8"/>
		<path fill="#E39038" d="M26.7,13.5c3-2.7,6.7-5.6,8.2-4.6c0.9,0.6,0.6,2.6,0.4,3.8c-0.6,3.9-3.1,6.6-4.7,8.1"/>
		<path fill="#E39038" d="M21,11.8c-0.9,0-3,0-5.1,1.3c-0.5,0.3-1.6,1-2.5,2.3c-0.2,0.3-1.2,1.6-1.6,3.6c-0.4,2-0.2,3.6,0,4.6
			c-0.3,0-0.9,0.1-1.5,0.4c-0.6,0.3-1,0.8-1.1,1c-0.7,0.8-0.9,1.8-1,2.3c0.1-0.2,0.5-0.8,1.2-1.1c0.6-0.3,1.2-0.3,1.4-0.3
			c-0.2,0.1-0.4,0.2-0.6,0.5c-0.2,0.2-0.3,0.4-0.4,0.6c-0.1,0.2-0.2,0.5-0.2,1c1-1,1.6-1.1,2-1c0.6,0.2,0.8,0.8,1.5,1.7
			c0.6,0.7,1.3,1.1,2.2,1.7c2.2,1.3,4.8,1.5,5.8,1.6"/>
		<linearGradient id="SVGID_1_" gradientUnits="userSpaceOnUse" x1="20.6379" y1="21.7801" x2="33.9524" y2="21.7801">
			<stop  offset="0" style="stop-color:#FFFFFF"/>
			<stop  offset="1" style="stop-color:#231815"/>
		</linearGradient>
		<path fill="#E39038" stroke="url(#SVGID_1_)" stroke-width="2.321755e-02" stroke-miterlimit="10" d="M20.8,11.8
			c0.9-0.1,3.2-0.1,5.4,1.3c1.2,0.7,2,1.7,2.5,2.3c0.2,0.3,1.2,1.6,1.6,3.6c0.4,2,0.2,3.6,0,4.6c0.3,0,0.9,0.1,1.5,0.4
			c0.6,0.3,1,0.8,1.1,1c0.7,0.8,0.9,1.8,1,2.3c-0.1-0.2-0.5-0.8-1.2-1.1c-0.6-0.3-1.2-0.3-1.4-0.3c0.2,0.1,0.4,0.2,0.6,0.5
			c0.2,0.2,0.3,0.4,0.4,0.6c0.1,0.2,0.2,0.5,0.2,1c-1-1-1.6-1.1-2-1c-0.6,0.2-0.8,0.8-1.5,1.7c-0.6,0.7-1.3,1.1-2.2,1.7
			c-2.4,1.4-5.3,1.6-6.2,1.6"/>
	</g>
	<g>
		<path fill="#BE6420" d="M7.6,10.1c0,0,1.1,0.7,2.2,1.7c1.3,1.2,3.2,4.1,3.2,4.1l-0.7,1.4c0,0-0.8-2.9-3.1-5.5
			C8.3,10.9,7.6,10.2,7.6,10.1z"/>
		<path fill="#BE6420" d="M34.2,10.2c0,0-1.1,0.7-2.1,1.8c-1.3,1.3-3.1,4.2-3.1,4.2l0.8,1.4c0,0,0.8-3,3-5.6
			C33.6,11,34.3,10.2,34.2,10.2z"/>
		<path fill="#BE6420" d="M11.5,20.8c0,0-0.3,0-1.5-1.5C9,18,8.5,17.4,8,16.5c-0.6-1.1-0.9-2.1-1.1-2.7c-0.2-0.6-0.2-1.2-0.4-2.3
			c-0.1-0.3-0.2-1.1,0-1.8C6.7,9.4,6.8,9.2,7,9c0.2-0.2,0.5-0.3,0.7-0.3C8.2,8.6,8.6,8.8,9,9c1,0.4,1.7,0.9,1.9,1.1
			c0.6,0.4,1.1,0.8,1.7,1.2c0.7,0.6,1.1,0.8,1.6,1.3c0.3,0.3,0.9,0.8,0.9,0.9c0,0,0,0,0,0c0,0-0.1-0.1-0.2-0.2
			c0.1,0.1,0.2,0.3,0.3,0.4l-0.4,0.2c0,0-0.6-0.5-1-1c-0.1-0.1-0.5-0.5-1.3-1.1c-1.1-0.9-1.6-1.4-1.7-1.4c0,0-0.7-0.6-1.9-1.2
			C8.6,9,8.2,8.8,7.8,8.9c-0.1,0-0.4,0.1-0.7,0.3c-0.1,0.1-0.4,0.4-0.4,1.4c0,0.2,0,1,0.5,2.4c0.3,0.9,0.6,1.6,0.7,1.8
			c0.4,0.8,0.8,1.4,1.1,1.8c0.4,0.6,0.7,1.1,1.3,1.7c0.5,0.5,1,0.9,1.3,1.2C11.6,19.9,11.5,20.4,11.5,20.8z"/>
		<path fill="#BE6420" d="M30.5,20.8c0,0,0.3,0,1.5-1.5c1-1.2,1.4-1.9,1.9-2.7c0.6-1.1,0.9-2.1,1.1-2.7c0.2-0.6,0.2-1.2,0.4-2.3
			c0.1-0.3,0.2-1.1,0-1.8C35.3,9.4,35.2,9.2,35,9c-0.2-0.2-0.5-0.3-0.7-0.3C33.8,8.6,33.4,8.8,33,9c-1,0.4-1.7,0.9-1.9,1.1
			c-0.6,0.4-1.1,0.8-1.7,1.2c-0.7,0.6-1.1,0.8-1.6,1.3c-0.3,0.3-0.9,0.8-0.9,0.9c0,0,0,0,0,0c0,0,0.1-0.1,0.2-0.2
			c-0.1,0.1-0.2,0.3-0.3,0.4l0.4,0.2c0,0,0.6-0.5,1-1c0.1-0.1,0.5-0.5,1.3-1.1c1.1-0.9,1.6-1.4,1.7-1.4c0,0,0.7-0.6,1.9-1.2
			c0.3-0.1,0.7-0.3,1.1-0.3c0.1,0,0.4,0.1,0.7,0.3c0.1,0.1,0.4,0.4,0.4,1.4c0,0.2,0,1-0.5,2.4c-0.3,0.9-0.6,1.6-0.7,1.8
			c-0.4,0.8-0.8,1.4-1.1,1.8c-0.4,0.6-0.7,1.1-1.3,1.7c-0.5,0.5-1,0.9-1.3,1.2C30.4,19.9,30.5,20.4,30.5,20.8z"/>
		<path fill="#BE6420" d="M8,27.5c0,0,0.8-2,2-2.2c0.6-0.1,1.1,0.2,1.4,0.5c-0.4,0-1-0.1-1.6,0.2c-0.2,0.1-0.4,0.1-0.7,0.3
			c-0.3,0.2-0.4,0.4-0.7,0.7c-0.1,0.1-0.2,0.2-0.2,0.3C8.1,27.3,8,27.5,8,27.5z"/>
		<path fill="#BE6420" d="M34,27.5c0,0-0.8-2-2-2.2c-0.6-0.1-1.1,0.2-1.4,0.5c0.4,0,1-0.1,1.6,0.2c0.2,0.1,0.4,0.1,0.7,0.3
			c0.3,0.2,0.4,0.4,0.7,0.7c0.1,0.1,0.2,0.2,0.2,0.3C33.9,27.3,34,27.5,34,27.5z"/>
		<path fill="#BE6420" d="M21,31.9c0-0.4,0-0.9,0-1.3c-0.8,0-2.8-0.1-4.6-0.9c-0.4-0.2-1-0.5-1.6-1c-0.5-0.4-1-0.8-1.4-1.4
			c-0.1-0.2-0.4-0.5-0.8-0.9c-0.3-0.2-0.5-0.3-0.5-0.3c-0.4-0.1-0.8,0-1,0.1c-1.1,0.4-1.6,1.7-1.5,1.7c0,0,0.2-0.3,0.8-0.7
			c0.1-0.1,0.3-0.2,0.7-0.3c0.2-0.1,0.4-0.1,0.5,0c0.2,0.1,0.4,0.3,0.4,0.4c0.3,0.4,0.6,0.7,0.9,1.1c0.4,0.6,0.8,0.9,1.2,1.2
			c0.6,0.5,1.1,0.7,1.5,0.9c0.9,0.5,1.7,0.7,2.1,0.9c0.7,0.2,0.4,0.1,1.8,0.4C20.5,31.9,21,31.9,21,31.9z"/>
		<path fill="#BE6420" d="M21,31.9c0-0.4,0-0.9,0-1.3c0.8,0,2.8-0.1,4.6-0.9c0.4-0.2,1-0.5,1.6-1c0.5-0.4,1-0.8,1.4-1.4
			c0.1-0.2,0.4-0.5,0.8-0.9c0.3-0.2,0.5-0.3,0.5-0.3c0.4-0.1,0.8,0,1,0.1c1.1,0.4,1.6,1.7,1.5,1.7c0,0-0.2-0.3-0.8-0.7
			c-0.1-0.1-0.3-0.2-0.7-0.3c-0.2-0.1-0.4-0.1-0.5,0c-0.2,0.1-0.4,0.3-0.4,0.4c-0.3,0.4-0.6,0.7-0.9,1.1c-0.4,0.6-0.8,0.9-1.2,1.2
			c-0.6,0.5-1.1,0.7-1.5,0.9c-0.9,0.5-1.7,0.7-2.1,0.9c-0.7,0.2-0.4,0.1-1.8,0.4C21.5,31.9,21,31.9,21,31.9z"/>
	</g>
	<linearGradient id="SVGID_2_" gradientUnits="userSpaceOnUse" x1="16.4063" y1="21.2951" x2="16.4063" y2="14.7512">
		<stop  offset="0" style="stop-color:#DB8D39;stop-opacity:0"/>
		<stop  offset="3.246409e-02" style="stop-color:#D98A38;stop-opacity:3.246409e-02"/>
		<stop  offset="0.3822" style="stop-color:#C6742C;stop-opacity:0.3822"/>
		<stop  offset="0.7122" style="stop-color:#BB6624;stop-opacity:0.7122"/>
		<stop  offset="1" style="stop-color:#B76122"/>
	</linearGradient>
	<path fill="url(#SVGID_2_)" d="M13.7,22.4c-1.4-1.4-0.4-5.2,2-6.6c0.9-0.5,2.5-1,3.4-0.2c1.5,1.2,0.7,5.9-2,7.1
		C16,23.1,14.5,23.2,13.7,22.4z"/>
	
		<linearGradient id="SVGID_3_" gradientUnits="userSpaceOnUse" x1="3963.6348" y1="21.2951" x2="3963.6348" y2="14.7512" gradientTransform="matrix(-1 0 0 1 3989.2283 0)">
		<stop  offset="0" style="stop-color:#DB8D39;stop-opacity:0"/>
		<stop  offset="3.246409e-02" style="stop-color:#D98A38;stop-opacity:3.246409e-02"/>
		<stop  offset="0.3822" style="stop-color:#C6742C;stop-opacity:0.3822"/>
		<stop  offset="0.7122" style="stop-color:#BB6624;stop-opacity:0.7122"/>
		<stop  offset="1" style="stop-color:#B76122"/>
	</linearGradient>
	<path fill="url(#SVGID_3_)" d="M28.3,22.4c1.4-1.4,0.4-5.2-2-6.6c-0.9-0.5-2.5-1-3.4-0.2c-1.5,1.2-0.7,5.9,2,7.1
		C26,23.1,27.5,23.2,28.3,22.4z"/>
</g>
<g>
	<path fill="#E7E4E2" d="M17.2,23.1c-0.8,1.7-0.5,2.5-0.3,2.8c0.4,0.5,1,0.7,1.7,0.9c0.6,0.1,2.4,0,2.4-0.2c0-0.1,0-5.9,0-5.9
		C21,20.7,18.2,21.1,17.2,23.1z"/>
	<path fill="#E7E4E2" d="M24.8,23.1c-1-2-3.8-2.4-3.8-2.4c0,0,0,5.8,0,5.9c0,0.2,1.8,0.3,2.4,0.2c0.7-0.2,1.3-0.3,1.7-0.9
		C25.3,25.6,25.6,24.8,24.8,23.1z"/>
</g>
<g>
	<path fill="#C5C1BF" d="M18.6,26.8c0.5,0.1,2.3,0,2.4-0.2c0,0,0,0,0,0c0-0.1,0-0.2,0-0.5c-0.5,0.2-1.3,0.5-2.3,0.2
		c-0.4-0.1-0.9-0.2-1.2-0.7c-0.5-0.7-0.2-1.6,0-2c0-0.1,0.1-0.4,0.4-0.8c0.4-0.7,0.9-1,1.2-1.2c0.4-0.2,0.8-0.5,1.4-0.7
		c0.2-0.1,0.4-0.1,0.6-0.2c0,0,0-0.1,0-0.1c0,0-2.8,0.4-3.8,2.4c-0.8,1.7-0.5,2.5-0.3,2.8C17.3,26.4,17.9,26.6,18.6,26.8z"/>
	<path fill="#C5C1BF" d="M21,20.7C21,20.7,21,20.7,21,20.7c0.2,0.1,0.4,0.2,0.6,0.2c0.6,0.2,1,0.4,1.4,0.7c0.3,0.2,0.8,0.6,1.2,1.2
		c0.2,0.4,0.3,0.6,0.4,0.8c0.1,0.4,0.4,1.3,0,2c-0.3,0.4-0.8,0.5-1.2,0.7c-1,0.3-1.9,0-2.3-0.2c0,0.2,0,0.4,0,0.5c0,0,0,0,0,0
		c0.1,0.2,1.8,0.3,2.4,0.2c0.7-0.2,1.3-0.3,1.7-0.9c0.2-0.3,0.6-1.1-0.3-2.8C23.8,21.1,21,20.7,21,20.7z"/>
</g>
<g id="form_2_">
	<path fill="none" stroke="#48332F" stroke-width="0.4644" stroke-miterlimit="10" d="M15.3,13.5c-3-2.7-6.7-5.6-8.2-4.6
		c-0.9,0.6-0.6,2.6-0.4,3.8c0.6,3.9,3.1,6.6,4.7,8.1"/>
	<g>
		<path fill="#48332F" d="M12.6,16.1c-0.6-1.1-1.3-2.2-2.1-3.2c-0.8-1-1.7-2-2.8-2.7c1.1,0.7,2.1,1.6,2.9,2.6c0.9,1,1.6,2,2.4,3.1
			L12.6,16.1z"/>
	</g>
	<path fill="none" stroke="#48332F" stroke-width="0.4644" stroke-miterlimit="10" d="M26.7,13.5c3-2.7,6.7-5.6,8.2-4.6
		c0.9,0.6,0.6,2.6,0.4,3.8c-0.6,3.9-3.1,6.6-4.7,8.1"/>
	<g>
		<path fill="#48332F" d="M29,15.9c0.7-1.1,1.5-2.2,2.4-3.1c0.9-1,1.8-1.9,2.9-2.6c-1.1,0.7-2,1.7-2.8,2.7c-0.8,1-1.5,2.1-2.1,3.2
			L29,15.9z"/>
	</g>
	<path fill="none" stroke="#48332F" stroke-width="0.4644" stroke-miterlimit="10" d="M21,11.8c-0.9,0-3,0-5.2,1.3
		c-0.5,0.3-1.6,1-2.5,2.3c-0.2,0.3-1.2,1.6-1.6,3.6c-0.4,2-0.2,3.6,0,4.6c-0.3,0-0.9,0.1-1.5,0.4c-0.6,0.3-1,0.8-1.1,1
		c-0.7,0.8-0.9,1.8-1,2.3c0.1-0.2,0.5-0.8,1.2-1.1c0.6-0.3,1.2-0.3,1.4-0.3c-0.2,0.1-0.4,0.2-0.6,0.5c-0.2,0.2-0.3,0.4-0.4,0.6
		c-0.1,0.2-0.2,0.5-0.2,1c1-1,1.6-1.1,2-1c0.6,0.2,0.8,0.8,1.5,1.7c0.6,0.7,1.3,1.1,2.2,1.7c2.2,1.4,4.8,1.5,5.8,1.6"/>
	<path fill="none" stroke="#48332F" stroke-width="0.4644" stroke-miterlimit="10" d="M21,11.8c0.9,0,3,0,5.1,1.3
		c0.5,0.3,1.6,1,2.5,2.3c0.2,0.3,1.2,1.6,1.6,3.6c0.4,2,0.2,3.6,0,4.6c0.3,0,0.9,0.1,1.5,0.4c0.6,0.3,1,0.8,1.1,1
		c0.7,0.8,0.9,1.8,1,2.3c-0.1-0.2-0.5-0.8-1.2-1.1c-0.6-0.3-1.2-0.3-1.4-0.3c0.2,0.1,0.4,0.2,0.6,0.5c0.2,0.2,0.3,0.4,0.4,0.6
		c0.1,0.2,0.2,0.5,0.2,1c-1-1-1.6-1.1-2-1c-0.6,0.2-0.8,0.8-1.5,1.7c-0.6,0.7-1.3,1.1-2.2,1.7c-2.2,1.3-4.8,1.5-5.8,1.6"/>
</g>
<circle fill="#F9F8F7" cx="15.6" cy="20.6" r="2.1"/>
<circle fill="#53291D" cx="15.8" cy="20.9" r="1.7"/>
<circle fill="#220B05" stroke="#000000" stroke-width="0.1554" cx="16" cy="20.9" r="1.1"/>
<circle fill="#040000" cx="15.9" cy="20.9" r="0.7"/>
<circle fill="#B29D84" cx="16.5" cy="21.6" r="0.4"/>
<circle fill="#FFFFFF" cx="14.6" cy="20.5" r="0.8"/>
<path fill="#48332F" d="M17.9,14.9c-0.7-0.3-1.6,0.1-1.9,0.7c-0.1,0.1-0.1,0.2-0.1,0.2c0.2,0.4,2.3,0.1,2.4-0.4
	C18.4,15.2,18,15,17.9,14.9z"/>
<circle fill="#F9F8F7" cx="26.4" cy="20.6" r="2.1"/>
<circle fill="#53291D" cx="26.2" cy="20.9" r="1.7"/>
<circle fill="#220B05" stroke="#000000" stroke-width="0.1554" cx="26" cy="20.9" r="1.1"/>
<circle fill="#040000" cx="26.1" cy="20.9" r="0.7"/>
<circle fill="#B29D84" cx="25.5" cy="21.6" r="0.4"/>
<circle fill="#FFFFFF" cx="27.4" cy="20.5" r="0.8"/>
<path fill="#48332F" d="M24.1,14.9c0.7-0.3,1.6,0.1,1.9,0.7c0.1,0.1,0.1,0.2,0.1,0.2c-0.2,0.4-2.3,0.1-2.4-0.4
	C23.6,15.2,24,15,24.1,14.9z"/>
<g>
	<path fill="#32211E" d="M13.8,18.9c0.3-0.5,0.8-0.9,1.5-1c0.3,0,0.6,0,0.9,0.1c0.3,0.1,0.5,0.3,0.7,0.6c-0.5-0.3-1.1-0.6-1.6-0.5
		c-0.3,0-0.5,0.2-0.8,0.3C14.3,18.6,14,18.7,13.8,18.9z"/>
</g>
<path fill="none" stroke="#32211E" stroke-width="0.325" stroke-miterlimit="10" d="M17.8,20.7c0,1.2-1,2.2-2.2,2.2
	c-0.9,0-1.7-0.6-2-1.4c-0.1-0.2-0.1-0.5-0.1-0.7c0-1.2,1-2.2,2.2-2.2c0.7,0,1.4,0.4,1.8,0.9C17.6,19.8,17.8,20.2,17.8,20.7z"/>
<g>
	<path fill="#32211E" d="M17.3,19.4c-0.4-0.3-0.9-0.6-1.4-0.6c-0.5-0.1-1,0.1-1.4,0.4c-0.4,0.3-0.7,0.7-0.9,1.1
		c-0.1,0.5-0.1,1,0,1.5c-0.3-0.5-0.4-1-0.3-1.6c0.1-0.6,0.5-1,0.9-1.3c0.5-0.3,1-0.5,1.6-0.4C16.5,18.6,17,18.9,17.3,19.4z"/>
</g>
<g>
	<path fill="#32211E" d="M13.5,21.3c-0.2-0.1-0.3-0.1-0.4-0.2c-0.1-0.1-0.2-0.2-0.2-0.4c0.1,0.1,0.2,0.2,0.3,0.2c0.1,0,0.2,0,0.3,0
		L13.5,21.3z"/>
</g>
<g>
	<path fill="#32211E" d="M28.2,18.9c-0.2-0.2-0.5-0.4-0.7-0.5c-0.3-0.1-0.5-0.3-0.8-0.3c-0.6-0.1-1.1,0.1-1.6,0.5
		c0.2-0.2,0.4-0.4,0.7-0.6c0.3-0.1,0.6-0.2,0.9-0.1C27.3,18,27.9,18.4,28.2,18.9z"/>
</g>
<path fill="none" stroke="#32211E" stroke-width="0.325" stroke-miterlimit="10" d="M24.2,20.7c0,1.2,1,2.2,2.2,2.2
	c0.9,0,1.7-0.6,2-1.4c0.1-0.2,0.1-0.5,0.1-0.7c0-1.2-1-2.2-2.2-2.2c-0.7,0-1.4,0.4-1.8,0.9C24.3,19.8,24.2,20.2,24.2,20.7z"/>
<g>
	<path fill="#32211E" d="M24.6,19.4c0.3-0.4,0.8-0.8,1.3-0.9c0.6-0.1,1.1,0.1,1.6,0.4c0.5,0.3,0.8,0.8,0.9,1.3
		c0.1,0.6,0,1.1-0.3,1.6c0.2-0.5,0.2-1,0-1.5c-0.1-0.5-0.5-0.9-0.9-1.1c-0.4-0.3-0.9-0.5-1.4-0.4C25.5,18.8,25.1,19,24.6,19.4z"/>
</g>
<g>
	<path fill="#32211E" d="M28.4,20.9c0.1,0,0.2,0,0.3,0c0.1,0,0.2-0.1,0.3-0.2c0,0.1-0.1,0.3-0.2,0.4c-0.1,0.1-0.2,0.2-0.4,0.2
		L28.4,20.9z"/>
</g>
<path fill="#D62536" d="M19.1,26.9l0.2,0.5c0,0,0.3,0.7,0.3,0.8c0.1,0.1,0.5,0.6,0.6,0.7c0.1,0.1,0.4,0.2,0.4,0.2c0,0,0.4,0,0.4,0
	l0.4-0.1l0.5-0.3l0.4-0.5l0.3-0.8l0.2-0.4L22.5,27l-1-0.1L21,26.7l-0.2,0.1L19.1,26.9l0,0.1"/>
<path fill="#7B1C1D" d="M19.1,27c0,0.1,0.2,0.2,0.3,0.3c0.4,0.2,0.7,0,1.5,0c0.9,0,1.3,0.2,1.6,0c0.2-0.1,0.3-0.3,0.2-0.4
	c-0.1-0.1-0.3,0.1-0.8,0c-0.4,0-0.5-0.2-1-0.2c-0.1,0-0.2,0-0.3,0C19.8,26.9,19.2,26.8,19.1,27z"/>
<path fill="#332821" d="M20.8,21.1l-1.2,0.4l-0.8,0.7l0,0.7l0.3,0.6l0.7,0.7c0,0,0.7,0.4,1,0.4s1.2-0.1,1.6-0.5
	c0.4-0.4,0.8-0.9,0.8-1.1c0.1-0.3,0-0.6,0-0.7c0-0.1-0.7-0.7-0.8-0.8c-0.2-0.1-0.9-0.4-1-0.4S20.8,21.1,20.8,21.1z"/>
<polygon fill="#181111" points="17.9,26.9 18.2,27.1 19.1,27.4 19.3,27.4 19.3,27.3 19.1,27 18.1,26.9 "/>
<polygon fill="#181111" points="24.1,26.9 23.8,27.1 22.9,27.4 22.7,27.4 22.7,27.3 22.9,27 23.9,26.9 "/>
<path fill="none" stroke="#000000" stroke-width="0.1554" d="M17.6,26.7c0,0,0.3,0.4,1.7,0.7"/>
<path fill="none" stroke="#48332F" stroke-width="0.4644" stroke-miterlimit="10" d="M15.5,24.2c0,0-0.2,0.9-1.7,0.8"/>
<path fill="none" stroke="#48332F" stroke-width="0.325" stroke-miterlimit="10" d="M19.1,27c0,0,0.3,0.4,0.4,0.8
	c0.2,0.8,0.9,1.4,1.5,1.3"/>
<path fill="none" stroke="#48332F" stroke-width="0.325" stroke-miterlimit="10" d="M22.9,27c0,0-0.3,0.4-0.4,0.8
	c-0.2,0.8-0.9,1.4-1.5,1.3"/>
<path fill="none" stroke="#000000" stroke-width="0.1554" d="M21,21.1c0,0-1.3,0-2.1,1c-0.5,0.6,0.2,2.4,2.1,2.5"/>
<path fill="none" stroke="#000000" stroke-width="0.1554" d="M21,21.1c0,0,1.3,0,2.1,1c0.5,0.6-0.2,2.4-2.1,2.5"/>
<path fill="none" stroke="#000000" stroke-width="0.1554" d="M24.4,26.7c0,0-0.3,0.4-1.7,0.7"/>
<path fill="none" stroke="#48332F" stroke-width="0.4644" stroke-miterlimit="10" d="M27.1,24.8c0,0-2,3.1-6.1,1.9v-2.1"/>
<path fill="none" stroke="#48332F" stroke-width="0.4644" stroke-miterlimit="10" d="M14.9,24.8c0,0,2,3.1,6.1,1.9v-2.1"/>
<path fill="none" stroke="#48332F" stroke-width="0.4644" stroke-miterlimit="10" d="M26.5,24.2c0,0,0.2,0.9,1.7,0.8"/>
<ellipse fill="#FFFFFF" cx="21" cy="21.5" rx="0.7" ry="0.5"/>
<path fill="#060404" d="M19.6,23.2c0.3-0.1,0.8,0.4,0.7,0.7c-0.1,0.2-0.7,0.3-0.9,0C19.3,23.6,19.4,23.3,19.6,23.2z"/>
<path fill="#060404" d="M22.4,23.2c-0.3-0.1-0.8,0.4-0.7,0.7c0.1,0.2,0.7,0.3,0.9,0C22.7,23.6,22.6,23.3,22.4,23.2z"/>
<g>
	<path fill="#48332F" d="M18.5,24.2l-0.8-0.4c-0.3-0.1-0.6-0.1-0.9-0.2c-0.6,0-1.2,0.1-1.7,0.3c0.5-0.2,1.1-0.3,1.7-0.3
		c0.3,0,0.6,0,0.9,0.1l0.8,0.3L18.5,24.2z"/>
</g>
<g>
	<path fill="#48332F" d="M23.4,24.1l0.8-0.3c0.3-0.1,0.6-0.1,0.9-0.1c0.6,0,1.2,0.1,1.7,0.3c-0.6-0.2-1.2-0.3-1.7-0.3
		c-0.3,0-0.6,0.1-0.9,0.2l-0.8,0.4L23.4,24.1z"/>
</g>
<g>
	<path fill="#48332F" d="M18.4,24.5l-0.9-0.2c-0.3,0-0.6,0-0.9,0c-0.6,0.1-1.1,0.3-1.7,0.6c0.5-0.3,1.1-0.6,1.6-0.7
		c0.3,0,0.6-0.1,0.9,0l0.9,0.2L18.4,24.5z"/>
</g>
<g>
	<path fill="#48332F" d="M23.5,24.3l0.9-0.2c0.3,0,0.6,0,0.9,0c0.6,0.1,1.2,0.3,1.6,0.7c-0.5-0.3-1.1-0.5-1.7-0.6
		c-0.3,0-0.6,0-0.9,0l-0.9,0.2L23.5,24.3z"/>
</g>
<g>
	<path fill="#48332F" d="M18.3,24.7l-0.9-0.1c-0.3,0-0.6,0-0.9,0.1c-0.6,0.1-1.1,0.4-1.6,0.8c0.5-0.4,1-0.7,1.6-0.8
		c0.3-0.1,0.6-0.1,0.9-0.1l0.9,0.1L18.3,24.7z"/>
</g>
<g>
	<path fill="#48332F" d="M23.6,24.6l0.9-0.1c0.3,0,0.6,0.1,0.9,0.1c0.6,0.2,1.1,0.5,1.6,0.8c-0.5-0.4-1-0.6-1.6-0.8
		c-0.3-0.1-0.6-0.1-0.9-0.1l-0.9,0.1L23.6,24.6z"/>
</g>
</svg>
