<?xml version="1.0" encoding="utf-8"?>
<!-- Generator: Adobe Illustrator 21.0.0, SVG Export Plug-In . SVG Version: 6.00 Build 0)  -->
<svg version="1.1" id="图层_2" xmlns="http://www.w3.org/2000/svg" xmlns:xlink="http://www.w3.org/1999/xlink" x="0px" y="0px"
	 viewBox="0 0 3186.3 2724.3" enable-background="new 0 0 3186.3 2724.3" xml:space="preserve">
<g id="stripe_x5F_01_x5F_03">
	<path fill="#53291D" d="M1613.8,947.4c0.3-0.2-119.5,17.4-162.3,104.9c-36,73.5-22.6,106.3-12.2,120.4
		c16.8,22.7,42.2,30.6,71.8,37.3c24.2,5.5,103.7-1.2,102.6-8.1C1613,1196.6,1613.8,947.4,1613.8,947.4z"/>
	<path fill="#53291D" d="M1613.8,947.4c-0.3-0.2,119.5,17.4,162.3,104.9c36,73.5,22.6,106.3,12.2,120.4
		c-16.8,22.7-42.2,30.6-71.8,37.3c-24.2,5.5-103.7-1.2-102.6-8.1C1614.6,1196.6,1613.8,947.4,1613.8,947.4z"/>
	<circle fill="#53291D" cx="1072.6" cy="759.5" r="37.7"/>
	<path fill="#53291D" d="M1200.5,1971.5c10-2.5,13.8,1.6,41.3,8.5c16.1,4,24.1,6.1,34.4,6.4c13,0.4,14.1-2,33.2-2.6
		c22.9-0.8,23.7,3.3,30.9-0.2c10.8-5.3,15.3-17.3,26.5-23.8c4.5-2.6,9.4-5,9.4-5c0,0,3.8-1.8,7.8-3.5c56.8-23.3,89.5-24.8,89.5-24.8
		c20.4-0.9,41.2-1.9,62.3,9.2c10.9,5.7,12.6,9.8,41,27.2c11.5,7.1,14.3,8.2,18.3,12.9c14,16,10.5,35.4,17.5,36.7
		c2.7,0.5,5.6-2.1,14.8-14.9c15.7-21.8,13.8-26.7,23.7-35.3c9.1-7.9,11.8-4.7,24.4-15.3c4.8-4,8.2-7.7,15-10.3
		c4.2-1.6,7.2-1.8,15.1-2.5c17.4-1.5,18.3-2,23.5-2.3c55.8-3.3,105.9-6.2,133.3,21.7c12.4,12.7,15.3,26.7,33.9,34.1
		c1.9,0.8,7.6,2.4,26.4,3.6c13.9,0.9,37.1,2.2,64.5-4.9c24.3-6.2,27.9-12.9,45.7-12.3c14.9,0.5,25.8,5.5,29.3,7.2
		c19.7,9.7,28.9,26.1,34.1,35.5c8.2,14.5,10.2,26.5,13.3,44.3c3.8,21.7,5.7,33.9-1.6,43.5c-4.2,5.6-11,9.6-18.2,13.9
		c-4.7,2.8-9.5,5.7-16.6,7.8c-10.9,3.3-13,0.4-18.6,3.9c-7.1,4.3-5.7,10-13.1,15.9c-6.1,4.9-13,5.8-16.6,6.3
		c-12.7,1.7-16.8-4.3-35.6-4.1c-4.4,0-7.6,0.4-8.3,0.4c-14.2,1.6-18.9,6.2-30.4,9.2c-10.5,2.7-19,2.1-27.1,1.5
		c-11.3-0.8-18.6-1.4-26-6.3c-5.2-3.5-5.6-6-10-7.1c-6.4-1.6-11,2.3-20.2,5.9c-7.4,2.9-12.9,3.7-22.5,5.1
		c-8.1,1.2-21.4,3.1-36.3-0.5c-16.2-3.9-16-9.8-27.6-10.5c-13.3-0.7-14.8,7.1-31.8,10c-3.4,0.6-22.8,4-41.4-5
		c-10.1-4.9-15.1-11.1-26.8-11.7c-1.2-0.1-1,0-13.1,0.8c-13.7,0.8-20.6,1.3-22.2,0.7c-1-0.3-7.3-4.2-20-12c-1.5-0.9-2.7-1.7-4.6-2.1
		c-6-1.3-10.3,2.6-16.5,5.7c-10,5-19.9,5.4-26.5,5.6c-9.7,0.3-10.4-1.8-16.6-0.4c-9.1,1.9-12.3,7.3-19.6,12.3
		c-16.3,11.1-36.6,8.5-39.6,8.1c-12.1-1.5-16.7-6.4-37.8-9.4c-4.8-0.7-7.1-0.8-9.2-0.8c-12.4,0.1-18.9,5-28.6,8.5
		c-2.5,0.9-16.8,5.9-33.7,3.6c-9.3-1.3-18.8-4.7-30.9-9c-8.2-3-8-3.3-10.9-3.9c-11.6-2.3-18.1,2.7-32.7,7.1
		c-17,5.1-31.3,9.3-41.9,2.7c-5.2-3.3-7.6-8-16.3-10.9c-5.1-1.7-9.7-2-12.1-2c-7.3,0-10.1,2.1-17.2,3.6c-5.6,1.2-13.5,2.8-21.4,0.2
		c-8.3-2.7-8.9-7.5-22.2-13.3c-3.3-1.4-5.8-2.3-7.4-2.8c-14.9-4.9-20.8-2.5-27.9-5.7c-6.9-3.2-9.9-9.4-14.7-19.6
		c-2.8-5.8-10-21.5-8.8-42.9c1.6-29.1,17.7-48.5,22.3-53.9c5.5-6.4,12.1-11.7,25.4-22.3C1188.6,1977.8,1194.8,1972.9,1200.5,1971.5z
		"/>
	<path fill="#53291D" d="M1178.8,483.9c0,0-0.1-0.1-0.1-0.1C1177.1,482.5,1172.5,479.7,1178.8,483.9z"/>
	<path fill="#53291D" d="M895.5,1049.8c-6.3,15.1-11.6,30.2-15.6,46.1c-4.1,16.1-8.6,32.2-11.2,48.6c-1.8,16.9-1.1,33.7-0.5,50.6
		c0.3,9.1,0.6,18.2,0.3,27.2c-0.2,6.9-0.5,13.7,0,20.5c1.9,9.4,5.3,18.3,8.4,27.4c0,0.1,0.1,0.2,0.1,0.2c3.5,2.6,6.4,5.9,9.2,9.7
		c0.4,0.6,0.9,1.2,1.4,1.8c0.4,0.5,0.8,0.9,1.2,1.4c0.8,1,1.6,1.9,2.3,2.9c3.7,2.2,7.3,4.3,11.1,6.1c12.8,5,26.3,9.3,39.8,11.7
		c7.1,0.7,14.3,0.7,21.4,0.4c22.5-7.6,45.9-12.4,68-21.1c4.5-2,8.9-4.2,13.2-6.7c3-1.7,5.9-3.6,8.7-5.6c0.1-0.1,0.3-0.2,0.4-0.3
		c0.6-0.5,1.2-0.9,1.4-1.2c9.3-7.9,17.3-17.2,24.9-26.8c0.4-0.5,0.7-0.9,0.9-1.1c0.4-0.5,0.7-0.9,1.1-1.4c1.9-2.6,3.7-5.3,5.4-7.9
		c3.4-5.1,6.7-10.2,9.9-15.5c3-5,5.9-10.1,8.6-15.2c1.9-4.1,3.7-8.1,5.5-12.2c1-2.5,1.9-5,2.7-7.6c2.1-10.4,4.1-20.9,6.9-31.2
		c1.8-6.8,4.1-13.4,6.3-20.1c0.1-0.3,0.1-0.5,0.2-0.8c-12.6-82.3-75.3-144.8-150.8-144.8c-22.1,0-43.1,5.4-62.1,15
		C909.7,1017.1,902.5,1033.5,895.5,1049.8z"/>
</g>
</svg>
