<?xml version="1.0" encoding="utf-8"?>
<!-- Generator: Adobe Illustrator 21.0.0, SVG Export Plug-In . SVG Version: 6.00 Build 0)  -->
<svg version="1.1" id="图层_2" xmlns="http://www.w3.org/2000/svg" xmlns:xlink="http://www.w3.org/1999/xlink" x="0px" y="0px"
	 viewBox="0 0 3186.3 2724.3" enable-background="new 0 0 3186.3 2724.3" xml:space="preserve">
<g id="stripe_x5F_03_x5F_05_1_">
	<path fill="#DD963A" d="M1614.1,947.4c0.3-0.2-119.5,17.4-162.3,104.9c-36,73.5-22.6,106.3-12.2,120.4
		c16.8,22.7,42.2,30.6,71.8,37.3c24.2,5.5,103.7-1.2,102.6-8.1C1613.3,1196.6,1614.1,947.4,1614.1,947.4z"/>
	<path fill="#DD963A" d="M1614.1,947.4c-0.3-0.2,119.5,17.4,162.3,104.9c36,73.5,22.6,106.3,12.2,120.4
		c-16.8,22.7-42.2,30.6-71.8,37.3c-24.2,5.5-103.7-1.2-102.6-8.1C1614.9,1196.6,1614.1,947.4,1614.1,947.4z"/>
	<path fill="#DD963A" d="M1353.4,1463.3c15.7-7.5,39.9,5.3,52.4,21c11.5,14.4,12.4,30.3,12.7,36c0.2,4.5,1.3,30.8-16,45.3
		c-7.1,5.9-15.5,8.5-29.3,12.7c-12.5,3.8-14.2,2.5-22,6c-9.5,4.3-15.1,9.9-24.7,19.3c-5.2,5.2-12.9,12.9-20.7,24.7
		c-10,15.2-12,24.9-15.1,24.4c-3.7-0.5-5.1-15-4.9-27.1c0.2-12.7,2.3-35.2,21.3-76c12-25.9,13.2-21,24.7-46.7
		C1343.7,1476.4,1344.1,1467.8,1353.4,1463.3z"/>
	<path fill="#DD963A" d="M1316.7,1728.6c0,0,28.8-12.8,41.8-7c13.5,6,17.9,18.7,25.3,40c4.8,13.9,11.3,32.3,2.7,40.7
		c-4.1,4-10.8,5-16,4c-13.2-2.6-14.3-18.4-26.7-20.7c-8.5-1.5-17.7,3.6-17.7,3.6L1316.7,1728.6z"/>
	<path fill="#DD963A" d="M1369.1,1919.6c2.6-8.5,21.9-13,36.7-7.3c14.9,5.7,20.2,19.9,20.7,21.3c6.6,18.8-6,35.2-6.7,36
		c-8.9,11.2-16.1,6.2-34.7,20c-7,5.2-6.1,6-26,23.3c-12.7,11-17.2,14.3-22.7,13.3c-6.6-1.2-12.5-8.3-12.2-14.4
		c0.3-4.8,4.3-7.5,8.8-11.6c14-12.5,10.2-17.2,23.3-30.7c14.8-15.1,23.9-13.5,25.3-22C1383.8,1935.7,1366.4,1928.6,1369.1,1919.6z"
		/>
	<path fill="#DD963A" d="M1865.2,1470.2c-11.4-1.5-36.5-4.7-51.8,10.9c-17,17.4-15.3,51.1-2,61c8.1,6,17.8,1.2,34,11
		c6.4,3.9,5,4.7,12,9c7,4.3,23.3,5.7,30,14c4.3,5.3,0.3,7.9,4.3,14.8c7,12.2,21.6,7.2,29.6,17c10.9,13.4-5.8,35.4,4.1,44.3
		c5.7,5.1,18.2,3.7,24-2.5c9.2-9.9,0.8-31.1-10-57.3c-12.7-31.1-16.4-27.5-26.8-53.3c-14.1-34.9-13.1-55.6-31.2-64.9
		C1876.5,1471.7,1872.5,1471.2,1865.2,1470.2z"/>
	<path fill="#DD963A" d="M1918.7,1694.9c-8.5-11.7-37.9-10.4-56.5,3.4c-26.8,19.9-29.8,64.8-14.5,78c8.2,7.1,17.2,1,29,10
		c15.3,11.6,14.1,32.2,19,32c2.2-0.1,4.6-4.2,11-39c3.8-20.6,3.6-22.5,6.5-39C1919.3,1705.3,1922.7,1700.5,1918.7,1694.9z"/>
	<path fill="#DD963A" d="M1857,1928.6c-1.9-10.4-40.7-21.9-68.5-6.3c-27.2,15.3-40,54.3-28.7,68c10.7,13,34.8-7,68,8
		c18.5,8.4,17.9,17.7,42,28.7c16.3,7.5,42.1,14.8,47.6,6.8c3.1-4.6-1.7-12.9-11.5-29.5c-12.7-21.6-19-32.4-30.8-42.6
		c-10.2-8.8-21-14.6-20.7-24C1854.7,1932.9,1857.5,1931.6,1857,1928.6z"/>
	<path fill="#DD963A" d="M1161.8,2001c-0.2,7.6,5.9,16.5,14,19.3c13.8,4.8,21.5-12.2,43.3-15.3c26.5-3.8,41.5,17.5,52,9.3
		c8.1-6.3,7.3-25.4-0.7-31.3c-4.6-3.4-8.1,0.1-18.6-0.5c-20.3-1.2-26-15.4-43.4-13.8c-4,0.4-7.1,1.6-13.3,4.2
		C1185.5,1976.8,1162.2,1986.4,1161.8,2001z"/>
	<path fill="#DD963A" d="M1962.1,1994.8c-1.5,6.1,7.9,14.8,17,18.5c10.3,4.1,15.5-0.1,38-2.5c18.8-2,21.5,0.2,42-2.5
		c14.4-1.9,27.5-3.7,28.1-8c0.5-4-10.3-5.4-30.6-18c-13.4-8.3-16.6-12.5-24.5-12.7c-8.1-0.2-11.7,4-21.5,9.2
		C1984.2,1992.9,1964.2,1986.6,1962.1,1994.8z"/>
	<path fill="#DD963A" d="M1589.4,1971.3c-6.7-0.3-13.3,6.9-15.8,13.5c-1.1,3-2.3,8.6,13,39c9.3,18.4,12.8,22.6,18.5,25
		c5.3,2.3,14.5,3.8,18.5-0.6c2.2-2.4,3.7-7.3-9.7-38.4C1597.9,1972.7,1592,1971.4,1589.4,1971.3z"/>
	<path fill="#DD963A" d="M1439.2,616.9c5.2,0.1,27.8,0.5,33.9,13.4c2.6,5.5,1.3,11.3,0,17c-0.5,2.4-6,24.6-21,29
		c-12.1,3.5-16.4-8.5-33-8c-8.3,0.3-17.3,5.9-35,17c-19.1,12-19.2,14.6-30,20c-14.4,7.3-38.2,14.8-42.3,8.8
		c-6.9-10.3,46.7-55.5,50.3-58.4C1407.7,617.6,1431.8,616.8,1439.2,616.9z"/>
	<path fill="#DD963A" d="M1508.5,1834.3c0,0,0.4-50.5,0.5-85.2c0.1-46-0.8-42.8-0.1-48.8c5.1-47.3,45.9-115.9,103-117.3
		c60.7-1.5,106.2,73.6,109.1,124.7c0.5,9.7-1.1,9-2,41c-0.3,9.9-1.1,40.9,0.6,90.3c1.4,42.6,3.6,68.9-9.4,80.7
		c-2.2,2-16.9,14.4-16.9,14.4l0,0c-14.1,8.6-20.5,5.3-31.5,13c-3.1,2.2-5.8,4.7-19.1,24.5c-11.7,17.5-15.1,16.9-18.4,28.5
		c-1.8,6.4-1.7,11.1-3.6,11.4c-2.8,0.4-4.9-10.5-12-23.2c-8.1-14.5-18.1-23.3-22-26.7c-13.2-11.4-28-17.6-32-19.3
		c-10.9-4.4-19.4-5.9-26.9-14.5c-2.9-3.3-4.8-6.8-6.3-10.3C1508.1,1887,1508.5,1834.3,1508.5,1834.3z"/>
	<path fill="#DD963A" d="M1167.4,1049.3c14.8-11.8,35.4-7.5,42.8-6c26,5.4,40.7,24.3,45,30c2.1,2.8,14.5,19.7,16,44
		c0.6,9.6,1.2,20.6-6,27c-7.8,6.9-20.2,4.2-26,3c-15.6-3.3-15.6-10.6-29-15c-24.3-8-54.5,6.1-54.5,6.1l0,0c0,0-10.5-16.6-11.5-33.1
		c-0.7-10.7,2.8-18.8,8-31C1157.5,1061.7,1160.4,1054.8,1167.4,1049.3z"/>
	<path fill="#DD963A" d="M2069.8,1062.4c-6.2-2.9-14.8-0.8-19.7,3.9c-8,7.6-0.8,17.5-6,34c-6.8,21.6-28.1,33-30,34
		c-13.8,7.2-20.8,3.4-25,10c-6.7,10.6,4,31.7,18,43c3.2,2.5,17.8,14.4,37,11c21.8-3.9,31.8-24.5,34-29c2.6-5.3,4.9-12.2,3.3-49.1
		C2079.4,1070.6,2074.6,1064.7,2069.8,1062.4z"/>
	<path fill="#DD963A" d="M871.8,1754.8c-8.9-1.3-22,22-24.7,43.5c-3.3,26.3,8.5,54.2,28,68c14.1,10,30,14,30,14
		c7.5,1.9,24.7,5.2,33,13.7c1.5,1.6,3,3.3,3,3.3c5.9,7.1,6.5,11.2,9,14c6.8,7.8,26.2,4.2,26.8,0.4c0.4-2.6-7.8-3.8-18.8-10.4
		c-9.5-5.7-15.9-12.5-35-39c-14.7-20.4-22.1-30.7-25-36C876.2,1786.1,881.6,1756.2,871.8,1754.8z"/>
	<path fill="#DD963A" d="M1057.1,1946.3c-3.5,4.9,1.7,15.7,8,22c12.1,12.1,35.5,14.9,50,4c11.2-8.4,16.1-24.3,13.2-26.6
		c-1.5-1.2-4,1.9-9.9,3.9c-11.7,4.1-18.8-2.2-41.9-4.8C1060.1,1942.9,1057.8,1945.4,1057.1,1946.3z"/>
	<path fill="#DD963A" d="M1194.9,979.3c0,0-24.5-8.3-48.9-31.4c-32.8-31-50.5-56.2-50.5-56.2c-45.6-64.8-72-128.2-78.5-144
		c-15.5-38-23.7-69.1-40.2-131.3c-2.7-10.1-12.3-47.6-9.9-93.4c0.8-15.5,3.2-36.1,17.3-53c3.2-3.9,10.4-12.3,22.5-16.7
		c12.6-4.6,24-2.6,30.3-1.3c59.3,11.9,85.6,25.7,85.6,25.7c34,17.9,85.9,45.2,149.3,91.5c65.6,47.9,90.7,73,90.7,73l5.6,5
		l-69.8,76.5c-13.9-26.7-31.8-56.4-55-87.1c-41.8-55.4-86.4-95.2-122.9-122.7c-13.7-12.5-43.3-35.7-86.1-40.2
		c-14.1-1.5-21.3-2.2-28,2c-34.4,21.8,4.1,138.1,15.3,172.7c17,52.3,40.8,125.5,102.8,191.2c26.2,27.8,82.8,79.1,82.8,79.1
		L1194.9,979.3z"/>
	<path fill="#DD963A" d="M2042.4,981.3c0,0,24.5-8.3,48.9-31.4c32.8-31,50.5-56.2,50.5-56.2c45.6-64.8,72-128.2,78.5-144
		c15.5-38,23.7-69.1,40.2-131.3c2.7-10.1,12.3-47.6,9.9-93.4c-0.8-15.5-3.2-36.1-17.3-53c-3.2-3.9-10.4-12.3-22.5-16.7
		c-12.6-4.6-24-2.6-30.3-1.3c-59.3,11.9-85.6,25.7-85.6,25.7c-34,17.9-85.9,45.2-149.3,91.5c-65.6,47.9-90.7,73-90.7,73l-5.6,5
		l69.8,76.5c13.9-26.7,31.8-56.4,55-87.1c41.8-55.4,86.4-95.2,122.9-122.7c13.7-12.5,43.3-35.7,86.1-40.2c14.1-1.5,21.3-2.2,28,2
		c34.4,21.8-4.1,138.1-15.3,172.7c-17,52.3-40.8,125.5-102.8,191.2c-26.2,27.8-82.8,79.1-82.8,79.1L2042.4,981.3z"/>
</g>
</svg>
