<?xml version="1.0" encoding="utf-8"?>
<!-- Generator: Adobe Illustrator 21.0.0, SVG Export Plug-In . SVG Version: 6.00 Build 0)  -->
<svg version="1.1" id="图层_1" xmlns="http://www.w3.org/2000/svg" xmlns:xlink="http://www.w3.org/1999/xlink" x="0px" y="0px"
	 viewBox="0 0 350 350" enable-background="new 0 0 350 350" xml:space="preserve">
<defs>
	<circle id="SVGID_1_" cx="175" cy="175" r="130"/>
</defs>
<clipPath id="SVGID_2_">
	<use xlink:href="#SVGID_1_"  overflow="visible"/>
</clipPath>
<title>kitty-love-1</title>
<g clip-path="url(#SVGID_2_)">
	<circle fill="#F7D3A9" cx="175" cy="175" r="130"/>
	<g>
		<defs>
			<circle id="SVGID_3_" cx="175" cy="175" r="130"/>
		</defs>
		<clipPath id="SVGID_4_">
			<use xlink:href="#SVGID_3_"  overflow="visible"/>
		</clipPath>
		<g clip-path="url(#SVGID_4_)">
			<g>
				<defs>
					<path id="SVGID_5_" d="M423.7,254.8c0,0-0.6,4.7-4.7,13.2c-5.5-17.2-15.9-34.4-29.4-44.7c-0.3-0.2-0.8-0.6-1.5-1
						c-25.2-15.7-58.3-8-74,17.2c-1.6,2.6-3,5.2-4.1,8c-0.5,1.2-1.2,2.8-1.2,2.8c7.1-5.6,16.8-9,16.8-9s-3.5,4.8-6.1,8.3
						c-8.2,11-13.6,26.1-9.5,40c1.3,4.4,4.6,8.6,8.8,12.4c-21.2,3.4-36.2,25-36.2,25l-20.3,23.9l29.6,6.2l16.8,0.6
						c9,2.7,20.5,4.6,34.8,4.6c42.3,0,72.1-27.8,78.4-57.6c0.5-2.3,1-4.7,1.5-7C425.7,289,429.7,267.5,423.7,254.8L423.7,254.8z"/>
				</defs>
				<defs>
					<path id="SVGID_6_" d="M311.4,352.7c-7.5-5.1-23.1-10.8-31.4-13.2l-0.1-0.1c3.3-8.7,3.7-18.3,1.1-27.2l-32.8-106.6
						c3.1-6.1,10.7-19.4,19.8-22c0,0-15.5-9.9-21.7,2.5c0,0,3.8-11.5,9-11.3c0,0-9.4-2.4-16.4,0.3l-9.4-30.6
						c-1.6-5.7-4.4-11-8.2-15.6l12.8-20.7c-3-1.5-21.1,6-26.3,10.1c-1.6-0.8-7.6-2.8-9.4-3.4c4.1-13.4-3.1-22.3-3.1-22.3
						c0.7,4.5-1.4,9-5.3,11.4c6.6-15.2-24.2-30.4-24.2-30.4c1.5,6.5-0.9,13.3-6.1,17.5c-10.2,8.7-6.1,16.2-6.1,16.2
						s-5.9-1.6-5.5-7.3c-5.3,6.3-2.5,11.8,0.2,15.7c-3.4,1.4-6.8,3.1-10,4.9l-0.5-0.9c-7.8-6.4-21.8-8.6-23.7-5.9l11.3,20.1
						c-3,5-5,10.6-5.8,16.4l-5.5,29.2c-7.6-2-16.6,3.2-16.6,3.2c5-1.6,11.7,8.5,11.7,8.5c-9.3-10.3-21.6,3.3-21.6,3.3
						c9.5,0.1,17.2,11.8,20.4,17.3L87.7,318.4c-0.9,6.9-0.2,14,2.2,20.5l-0.1,0c-6.7,1.6-22.8,7.6-32.2,13.7c-4.6,3-1.8,9.8,4,9.6
						l46.6-0.9c0.8,0.5,1.6,0.9,2.4,1.4v0.6c0.1,4.1-1.2,7.4-5.2,7.6c-2.7,0.1-4.9,1.7-5.3,3.7c-0.8,3.8,1,6.8,4.8,7.1l14.7,0.9
						c4.6,0.3,9-2,11.4-6c0.8-1.3,1.3-2.7,1.5-4.2l0.9-4.6h93.2l0.6,3.6c0.7,4.2,3.6,7.8,7.5,9.5c1.2,0.5,2.6,0.7,3.9,0.7l16-0.5
						c3.8-0.4,5.3-2.7,4.9-6.5c-0.1-1.2-1.1-4.3-4.3-4.5c-2.8-0.1-4.4-1.5-4.9-3.8c4-1.1,7.9-2.7,11.4-4.9l45.6,0.9
						C313.2,362.4,316,355.8,311.4,352.7L311.4,352.7z"/>
				</defs>
				<defs>
					<path id="SVGID_7_" d="M311.4,352.7c-7.5-5.1-23.1-10.8-31.4-13.2l-0.1-0.1c3.3-8.7,3.7-18.3,1.1-27.2l-32.8-106.6
						c3.1-6.1,10.7-19.4,19.8-22c0,0-15.5-9.9-21.7,2.5c0,0,3.8-11.5,9-11.3c0,0-9.4-2.4-16.4,0.3l-9.4-30.6
						c-1.6-5.7-4.4-11-8.2-15.6l12.8-20.7c-3-1.5-21.1,6-26.3,10.1c-1.6-0.8-7.6-2.8-9.4-3.4c4.1-13.4-3.1-22.3-3.1-22.3
						c0.7,4.5-1.4,9-5.3,11.4c6.6-15.2-24.2-30.4-24.2-30.4c1.5,6.5-0.9,13.3-6.1,17.5c-10.2,8.7-6.1,16.2-6.1,16.2
						s-5.9-1.6-5.5-7.3c-5.3,6.3-2.5,11.8,0.2,15.7c-3.4,1.4-6.8,3.1-10,4.9l-0.5-0.9c-7.8-6.4-21.8-8.6-23.7-5.9l11.3,20.1
						c-3,5-5,10.6-5.8,16.4l-5.5,29.2c-7.6-2-16.6,3.2-16.6,3.2c5-1.6,11.7,8.5,11.7,8.5c-9.3-10.3-21.6,3.3-21.6,3.3
						c9.5,0.1,17.2,11.8,20.4,17.3L87.7,318.4c-0.9,6.9-0.2,14,2.2,20.5l-0.1,0c-6.7,1.6-22.8,7.6-32.2,13.7c-4.6,3-1.8,9.8,4,9.6
						l46.6-0.9c0.8,0.5,1.6,0.9,2.4,1.4v0.6c0.1,4.1-1.2,7.4-5.2,7.6c-2.7,0.1-4.9,1.7-5.3,3.7c-0.8,3.8,1,6.8,4.8,7.1l14.7,0.9
						c4.6,0.3,9-2,11.4-6c0.8-1.3,1.3-2.7,1.5-4.2l0.9-4.6h93.2l0.6,3.6c0.7,4.2,3.6,7.8,7.5,9.5c1.2,0.5,2.6,0.7,3.9,0.7l16-0.5
						c3.8-0.4,5.3-2.7,4.9-6.5c-0.1-1.2-1.1-4.3-4.3-4.5c-2.8-0.1-4.4-1.5-4.9-3.8c4-1.1,7.9-2.7,11.4-4.9l45.6,0.9
						C313.2,362.4,316,355.8,311.4,352.7L311.4,352.7z"/>
				</defs>
				<defs>
					<path id="SVGID_8_" d="M311.4,352.7c-7.5-5.1-23.1-10.8-31.4-13.2l-0.1-0.1c3.3-8.7,3.7-18.3,1.1-27.2l-32.8-106.6
						c3.1-6.1,10.7-19.4,19.8-22c0,0-15.5-9.9-21.7,2.5c0,0,3.8-11.5,9-11.3c0,0-9.4-2.4-16.4,0.3l-9.4-30.6
						c-1.6-5.7-4.4-11-8.2-15.6l12.8-20.7c-3-1.5-21.1,6-26.3,10.1c-1.6-0.8-7.6-2.8-9.4-3.4c4.1-13.4-3.1-22.3-3.1-22.3
						c0.7,4.5-1.4,9-5.3,11.4c6.6-15.2-24.2-30.4-24.2-30.4c1.5,6.5-0.9,13.3-6.1,17.5c-10.2,8.7-6.1,16.2-6.1,16.2
						s-5.9-1.6-5.5-7.3c-5.3,6.3-2.5,11.8,0.2,15.7c-3.4,1.4-6.8,3.1-10,4.9l-0.5-0.9c-7.8-6.4-21.8-8.6-23.7-5.9l11.3,20.1
						c-3,5-5,10.6-5.8,16.4l-5.5,29.2c-7.6-2-16.6,3.2-16.6,3.2c5-1.6,11.7,8.5,11.7,8.5c-9.3-10.3-21.6,3.3-21.6,3.3
						c9.5,0.1,17.2,11.8,20.4,17.3L87.7,318.4c-0.9,6.9-0.2,14,2.2,20.5l-0.1,0c-6.7,1.6-22.8,7.6-32.2,13.7c-4.6,3-1.8,9.8,4,9.6
						l46.6-0.9c0.8,0.5,1.6,0.9,2.4,1.4v0.6c0.1,4.1-1.2,7.4-5.2,7.6c-2.7,0.1-4.9,1.7-5.3,3.7c-0.8,3.8,1,6.8,4.8,7.1l14.7,0.9
						c4.6,0.3,9-2,11.4-6c0.8-1.3,1.3-2.7,1.5-4.2l0.9-4.6h93.2l0.6,3.6c0.7,4.2,3.6,7.8,7.5,9.5c1.2,0.5,2.6,0.7,3.9,0.7l16-0.5
						c3.8-0.4,5.3-2.7,4.9-6.5c-0.1-1.2-1.1-4.3-4.3-4.5c-2.8-0.1-4.4-1.5-4.9-3.8c4-1.1,7.9-2.7,11.4-4.9l45.6,0.9
						C313.2,362.4,316,355.8,311.4,352.7L311.4,352.7z"/>
				</defs>
				<clipPath id="SVGID_9_">
					<use xlink:href="#SVGID_5_"  overflow="visible"/>
				</clipPath>
				<clipPath id="SVGID_10_" clip-path="url(#SVGID_9_)">
					<use xlink:href="#SVGID_6_"  overflow="visible"/>
				</clipPath>
				<clipPath id="SVGID_11_" clip-path="url(#SVGID_10_)">
					<use xlink:href="#SVGID_7_"  overflow="visible"/>
				</clipPath>
				<clipPath id="SVGID_12_" clip-path="url(#SVGID_11_)">
					<use xlink:href="#SVGID_8_"  overflow="visible"/>
				</clipPath>
				<g clip-path="url(#SVGID_12_)">
					<path fill="#B9916D" d="M423.6,361.4H259.6V206.3h173L423.6,361.4z"/>
					<path opacity="0.2" fill="#7F7F7F" enable-background="new    " d="M278.2,331.9c0,0,19.7-27.2,24-25.5
						c-17.6,20.5-4.6,32.4,4,35c34.8,10.3,92.7,19.4,116.3-28.7l-38.2,52.3l-113.4-0.5L278.2,331.9z"/>
					<path opacity="0.2" fill="#7F7F7F" enable-background="new    " d="M318,299.5c-1.5,0.3-2.9,0.6-4.4,1.1
						c0.6,0.6,6.2,18.1,24.3,20.8c0.7,0.1,1.3-0.4,1.4-1c0-0.2,0-0.4-0.1-0.7c-0.5-1.3-0.9-2.8-1-4.2 M386.2,271.6
						c0,0-3.4,17.7-9.2,24.2c-3.2,3.6-7.5,5.9-12.2,6.5c-0.3,0-0.7-0.2-0.7-0.5c0-0.1,0-0.1,0-0.2c0.2-1.7,0.1-3.3-0.4-4.9
						c0,0-21.2,11.3-19.8,20.2c0,0-2.8-12.5,11.8-20.8s12.2-11.4,12.2-11.4l-0.3,9.6C377.5,292.2,386.2,271.6,386.2,271.6z"/>
					
						<linearGradient id="SVGID_13_" gradientUnits="userSpaceOnUse" x1="370.64" y1="72.72" x2="370.64" y2="158.64" gradientTransform="matrix(1 0 0 -1 0 352)">
						<stop  offset="0" style="stop-color:#FFFFFF;stop-opacity:0"/>
						<stop  offset="0.72" style="stop-color:#FFFFFF"/>
					</linearGradient>
					<path opacity="0.5" fill="url(#SVGID_13_)" enable-background="new    " d="M322.2,231.2c0,0,26.5-25.6,66,1.3
						c16.2,11.7,25.1,46.8,25.1,46.8l5.7-11.3l-10.4-66l-40.7-8.6l-26.3,3.5L322.2,231.2z"/>
				</g>
				
					<path clip-path="url(#SVGID_12_)" fill="none" stroke="#31323D" stroke-width="2.183" stroke-linecap="round" stroke-linejoin="round" d="
					M419.1,268c-5.5-17.2-15.9-34.5-29.5-44.7c-0.3-0.2-0.8-0.6-1.5-1c-25.2-15.7-58.3-8-74,17.2c-1.6,2.6-3,5.2-4.1,8l-1.2,2.8
					c7.1-5.6,16.8-9,16.8-9s-3.5,4.8-6.1,8.3c-8.2,11-13.6,26.1-9.5,40c3.6,12,22.5,23,32.5,27.7c0.4,0.2,0.9,0.1,1.1-0.3
					c0.1-0.2,0.2-0.5,0.1-0.7c-1.7-3.7,1.1-10.5,3.3-13.6c2.8-3.9,7.4-6,11.6-8.3s8.5-5.4,9.7-10c-0.3,3.3-0.6,6.7-0.9,10.1
					c6.6-3.3,12.1-8.6,15.6-15.2c1.5-2.8,2.6-5.8,3.3-8.8"/>
				
					<path clip-path="url(#SVGID_12_)" fill="none" stroke="#31323D" stroke-width="2.183" stroke-linecap="round" stroke-miterlimit="10" d="
					M282.8,327c0,0,15-21.7,36.2-25.1"/>
				
					<path clip-path="url(#SVGID_12_)" fill="none" stroke="#31323D" stroke-width="2.183" stroke-linecap="round" stroke-linejoin="round" d="
					M309,357.7c9,2.7,20.5,4.6,34.8,4.6c42.3,0,72.1-27.8,78.4-57.6c0.5-2.3,1-4.7,1.5-7c2-8.7,6-30.3,0.1-43c0,0-0.8,6.2-6.6,17.1"
					/>
				<path clip-path="url(#SVGID_12_)" fill="none" d="M311.4,352.7c-7.5-5.1-23.1-10.8-31.4-13.2l-0.1-0.1
					c3.3-8.7,3.7-18.3,1.1-27.2l-32.8-106.6c3.1-6.1,10.7-19.4,19.8-22c0,0-15.5-9.9-21.7,2.5c0,0,3.8-11.5,9-11.3
					c0,0-9.4-2.4-16.4,0.3l-9.4-30.6c-1.6-5.7-4.4-11-8.2-15.6l12.8-20.7c-3-1.5-21.1,6-26.3,10.1c-1.6-0.8-3.3-1.5-5.1-2.1
					c2.8-12.7-7.4-23.6-7.4-23.6c0.7,4.5-1.4,9-5.3,11.4c6.6-15.2-24.2-30.4-24.2-30.4c1.5,6.5-0.9,13.3-6.1,17.5
					c-10.2,8.7-6.1,16.2-6.1,16.2s-5.9-1.6-5.5-7.3c-4.1,4.6-5.2,11.2-2.8,16.9c-2.4,1-4.8,2.3-7,3.7l-0.5-0.9
					c-7.8-6.4-21.8-8.6-23.7-5.9l11.3,20.1c-3,5-5,10.6-5.8,16.4l-5.5,29.2c-7.6-2-16.6,3.2-16.6,3.2c5-1.6,11.7,8.5,11.7,8.5
					c-9.3-10.3-21.6,3.3-21.6,3.3c9.5,0.1,17.2,11.8,20.4,17.3L87.7,318.4c-0.9,6.9-0.2,14,2.2,20.5l-0.1,0
					c-6.7,1.6-22.8,7.6-32.2,13.7c-4.6,3-1.8,9.8,4,9.6l46.6-0.9c0.8,0.5,1.6,0.9,2.4,1.4v0.6c0.1,4.1-1.2,7.4-5.2,7.6
					c-2.7,0.1-4.9,1.7-5.3,3.7c-0.8,3.8,1,6.8,4.8,7.1l14.7,0.9c4.6,0.3,9-2,11.4-6c0.8-1.3,1.3-2.7,1.5-4.2l0.9-4.6h93.2l0.6,3.6
					c0.7,4.2,3.6,7.8,7.5,9.5c1.2,0.5,2.6,0.7,3.9,0.7l16-0.5c3.8-0.4,5.3-2.7,4.9-6.5c-0.1-1.2-1.1-4.3-4.3-4.5
					c-2.8-0.1-4.4-1.5-4.9-3.8c4-1.1,7.9-2.7,11.4-4.9l45.6,0.9C313.2,362.4,316,355.8,311.4,352.7L311.4,352.7z"/>
				<g clip-path="url(#SVGID_12_)">
					<path fill="#B9916D" d="M53.6,68.2h265.5v316.6H53.6V68.2z"/>
					
						<linearGradient id="SVGID_14_" gradientUnits="userSpaceOnUse" x1="226.345" y1="243.9802" x2="226.345" y2="220.69" gradientTransform="matrix(1 0 0 -1 0 352)">
						<stop  offset="0" style="stop-color:#808080"/>
						<stop  offset="0.14" style="stop-color:#797979"/>
						<stop  offset="0.35" style="stop-color:#646464"/>
						<stop  offset="0.6" style="stop-color:#434343"/>
						<stop  offset="0.89" style="stop-color:#141414"/>
						<stop  offset="1" style="stop-color:#000000"/>
					</linearGradient>
					<path opacity="0.4" fill="url(#SVGID_14_)" enable-background="new    " d="M238.2,108.9c0,0-6.6-4.5-17.8,7.2l-5.9,7.1
						l9.8,8.1L238.2,108.9z"/>
					
						<linearGradient id="SVGID_15_" gradientUnits="userSpaceOnUse" x1="109" y1="227.5333" x2="132.4" y2="227.5333" gradientTransform="matrix(1 0 0 -1 0 352)">
						<stop  offset="0" style="stop-color:#808080"/>
						<stop  offset="0.14" style="stop-color:#797979"/>
						<stop  offset="0.35" style="stop-color:#646464"/>
						<stop  offset="0.6" style="stop-color:#434343"/>
						<stop  offset="0.89" style="stop-color:#141414"/>
						<stop  offset="1" style="stop-color:#000000"/>
					</linearGradient>
					<path opacity="0.4" fill="url(#SVGID_15_)" enable-background="new    " d="M109,115.9c0,0,4.8-3.3,12.5-0.2
						c3.2,1.3,6.1,3.5,8.3,6.2l2.6,3.1l-6.6,9.6L109,115.9z"/>
					<path fill="#FFFFF4" d="M133.5,370c-1-2.5,0.6-9.9,3.6-24.7c1.8-8.8,3.3-14.6,4.2-18.3c6.8-28.3,2.8-31.4,8.7-48.2
						c4-11.5,8.2-22.9,19.4-28.3c1.3-0.6,11.5-5.4,21.8-1.2c10.1,4.1,14.2,14.1,18.4,24.8c5.1,13,3.5,17.4,9.3,49.8l3.6,20.2
						c0.7,4,1.4,7.9,2.1,11.9c1.6,9.3,1.7,9.5,1.6,9.8C224.5,379.5,141.3,390.3,133.5,370L133.5,370z"/>
					<path fill="#FFFFF4" d="M138.1,342.1l-7.1,34.5l-4.9,4.9l-7.7,1l-18.5-1.9v-7.6l10.5-6.8l-1.8-30c0,0,4.7,6.6,15.9,7.1
						S138.1,342.1,138.1,342.1z M253.6,338.8l-2.8,12.9l-0.3,15.4l9.4,6v7.6l-18.5,1.9l-7.7-1l-4.9-4.9l-7.2-34.5
						c0,0,6,5.7,17.2,4.3C250.4,345.1,253.6,338.8,253.6,338.8L253.6,338.8z"/>
					<path fill="#FFFFF4" d="M87.5,328.1c0,0-1,17.3,23.1,34.6l-43,5l-24.9-8.4l1.8-7.1L87.5,328.1z M281.7,333.1
						c0,0-5.1,21.5-23.4,30.2l58.2,0.7v-14L281.7,333.1z"/>
				</g>
				<g opacity="0.2" clip-path="url(#SVGID_12_)">
					<path fill="#7F7F7F" d="M153,120.1c-14.2,4.1-23.3,20.2-28.2,41.8c-1.2,5.1-2.2,11-3.2,17.6c-0.4,2.6-0.6,5.1-0.5,7.7
						c0,6.3,0.3,12.3,0.7,17.3c0.3,4.2-1.4,9.3-3.8,13.6c-3,5.2-5,10.9-5.9,16.8v0.2c-3.5,23.3-8.1,61.7-9.2,70.6
						c-0.7,5.7-1.1,11.4-1.2,17.2v0.6c4.1,4.5,8.3,15.5,9.2,30.9l0.2,8.5c0,0-5.5-0.1-14.1-0.1c-10.8,0-19.3-19.5-13.8-48.6
						c5-26.1-11.9-159.9-11.9-159.9l49.3-7.7c0,0,3.1-21.9,28-30.7L153,120.1z M141.4,325.5c-4.3,25.8,9.5,31.1,12,31.7
						c15.1,2.7,39.1,1.5,46.9-1.2c7.3-2.6,22.7-10.2,18.9-33.1l7.5,44.8h-93.2L141.4,325.5z M251,346c0,0,5.2-16,11.6-21.8
						c-6.9,13.1,2.5,16.2,4.9,15.3c9.4-3.4,13.1-11.6,13.8-26.2l11.4,20.3c0,0-9.6,44.7-35.6,37.4l-6.8-3.2L251,346z"/>
				</g>
				<g opacity="0.2" clip-path="url(#SVGID_12_)">
					
						<linearGradient id="SVGID_16_" gradientUnits="userSpaceOnUse" x1="249.0335" y1="-11.26" x2="249.0335" y2="237.05" gradientTransform="matrix(1 0 0 -1 0 352)">
						<stop  offset="0" style="stop-color:#FFFFFF;stop-opacity:0"/>
						<stop  offset="0.72" style="stop-color:#FFFFFF"/>
					</linearGradient>
					<path fill="url(#SVGID_16_)" d="M196.8,117.6c0,0,10.9,3.7,14.8,9.1s9.1,15.1,12.9,31.6c3,13.2,6.7,32,12,48.5
						c2,6.3,5.2,9.7,7.4,16.1c11.5,34.3,22.6,69.1,27.4,90.4c8,35.7-14.2,49.9-14.2,49.9l10.7-6.2c0,0,11-13.1,12.6-18.8
						c3.6-12.6,24.3-5.8,20.5-25.8c-5.5-29.1-39.8-177.1-39.8-177.1s-35.1,2.5-40-6.2c-3.6-6.4-13.7-11.6-22.6-14.3L196.8,117.6z"/>
				</g>
				<path clip-path="url(#SVGID_12_)" fill="#31323D" d="M141.7,325.6c-1.2,10.6-3.3,21.1-5.2,31.6l-2.9,15.8
					c-0.6,2.9-2.1,5.5-4.3,7.5c-2.2,1.9-5,3.1-8,3.3c-0.7,0-1.4,0-2.2,0l-2-0.1l-4-0.2l-8-0.5c-1.6,0-3.2-0.6-4.4-1.7
					c-1.2-1.1-1.9-2.7-2-4.4c0-0.8,0-1.6,0.2-2.3c0.2-0.9,0.6-1.7,1.1-2.3c1.1-1.2,2.5-2,4.1-2.3c0.4-0.1,0.8-0.1,1.2-0.1
					c0.3,0,0.6,0,0.8-0.1c0.5-0.1,1-0.3,1.4-0.5c0.9-0.6,1.4-1.6,1.7-2.6c0.3-1.2,0.4-2.4,0.3-3.6l-0.2-4l-0.7-16v0.1
					c-0.4-3.5-1.1-6.9-2.2-10.2c-0.6-1.6-1.3-3.2-2.1-4.7c-0.8-1.5-1.8-3-2.9-4.4c-0.1-0.2-0.1-0.4,0.1-0.5c0.1-0.1,0.3-0.1,0.5,0
					c2.6,2.6,4.6,5.6,6,9c1.3,3.4,2.2,6.9,2.7,10.5v0.1l0.8,16l0.2,4c0.1,1.4,0,2.9-0.3,4.3c-0.2,0.8-0.5,1.5-0.9,2.2
					c-0.4,0.7-1,1.3-1.7,1.8c-0.7,0.5-1.5,0.8-2.3,0.9c-0.4,0.1-0.8,0.1-1.1,0.1c-0.3,0-0.6,0.1-0.8,0.1c-1.1,0.2-2,0.7-2.8,1.5
					c-0.3,0.4-0.5,0.8-0.6,1.3c-0.1,0.5-0.1,1.1-0.1,1.7c0,1,0.5,2,1.2,2.7c0.8,0.7,1.9,1,2.9,1l8,0.5l4,0.3l2,0.1
					c0.6,0,1.2,0,1.8,0c2.4-0.2,4.7-1.1,6.6-2.7c1.8-1.6,3.1-3.7,3.6-6.1l3-15.7c2-10.5,3.9-21,6.6-31.4c0-0.2,0.2-0.4,0.5-0.3
					C141.6,325.2,141.7,325.4,141.7,325.6L141.7,325.6z M219.4,322.9c2.9,12.2,4.8,24.5,6.9,36.8l1.6,9.2l0.4,2.3
					c0.1,0.7,0.3,1.4,0.6,2c0.5,1.3,1.2,2.5,2.2,3.6c0.9,1,2.1,1.9,3.3,2.5c1.2,0.6,2.6,1,3.9,1l9.3-0.3l4.7-0.1l2.3-0.1
					c0.6-0.1,1.2-0.2,1.8-0.5c1.1-0.5,1.8-1.5,1.8-2.7c0.1-0.7,0.1-1.3,0-2c-0.1-0.6-0.3-1.2-0.6-1.7c-0.3-0.5-0.7-0.9-1.2-1.2
					c-0.2-0.1-0.5-0.2-0.8-0.3c-0.1,0-0.3-0.1-0.4-0.1l-0.6-0.1c-0.9-0.1-1.8-0.4-2.7-0.8c-0.9-0.5-1.6-1.2-2.1-2.1
					c-0.8-1.6-1.1-3.4-0.8-5.2l0.1-4.7l0.1-4.7c0-0.8,0.1-1.6,0.2-2.4s0.2-1.6,0.3-2.4c0.5-3.2,1.3-6.3,2.4-9.2
					c2.3-5.9,5.7-11.4,10.1-16c0.2-0.2,0.4-0.2,0.5,0c0.1,0.1,0.1,0.4,0,0.5c-3.7,4.9-6.7,10.4-8.8,16.2c-1,2.9-1.7,5.8-2.2,8.9
					c-0.1,0.8-0.2,1.5-0.3,2.3s-0.1,1.5-0.1,2.3l-0.1,4.7l-0.1,4.7v2.2c0.1,0.6,0.2,1.2,0.5,1.8c0.7,1,1.8,1.7,3,1.7l0.6,0
					c0.2,0,0.5,0,0.7,0.1c0.5,0.1,1,0.3,1.4,0.5c0.9,0.5,1.6,1.2,2.1,2c0.5,0.8,0.8,1.7,1,2.6c0.1,0.9,0.1,1.8,0,2.7
					c-0.1,1-0.4,1.9-1,2.7c-0.6,0.8-1.3,1.5-2.3,1.9c-0.8,0.4-1.8,0.6-2.7,0.7c-0.8,0-1.6,0.1-2.4,0.1l-4.7,0.2l-9.4,0.3
					c-1.8,0-3.5-0.4-5.1-1.3c-3.1-1.6-5.5-4.3-6.6-7.5c-0.3-0.8-0.5-1.6-0.6-2.5l-0.4-2.3L224,360c-2-12.3-4.2-24.6-5.4-37
					c0-0.2,0.1-0.4,0.3-0.4c0,0,0,0,0,0C219.2,322.5,219.4,322.7,219.4,322.9C219.4,322.9,219.4,322.9,219.4,322.9L219.4,322.9z"/>
				
					<path clip-path="url(#SVGID_12_)" fill="none" stroke="#31323D" stroke-width="2.183" stroke-linecap="round" stroke-miterlimit="10" d="
					M89.8,339c-6.7,1.6-22.8,7.6-32.2,13.7c-4.6,3-1.8,9.8,4,9.6l49-1 M280,339.5c8.3,2.4,23.9,8,31.4,13.2c4.5,3.1,1.8,9.8-4,9.6
					l-45.7-0.9 M248.4,206.3l10.4,33.9 M238.7,174.5l-9.2-29.9c-3.7-13-13.4-23.5-26.1-28.1l-4.6-1.5 M114.3,178.8l5.4-28.3
					c1.9-14.8,11.5-27.4,25.2-33.2l3.2-1.2 M103.9,233.5l3.9-20.6"/>
				<path clip-path="url(#SVGID_12_)" fill="#31323D" d="M108.9,215.1c-1.2-2.3-2.5-4.4-4-6.5c-1.4-2.1-3-4.1-4.8-5.9
					c-1.7-1.8-3.6-3.4-5.8-4.7c-2-1.3-4.4-1.9-6.8-2c-0.6,0-1.1-0.5-1.1-1.1c0,0,0,0,0,0c0-0.3,0.1-0.5,0.3-0.7c1.5-1.6,3.2-3,5-4.2
					c1.8-1.3,3.8-2.3,5.9-2.9c1.1-0.3,2.2-0.5,3.3-0.5c1.2,0,2.3,0.1,3.4,0.5c2.2,0.7,4.1,2,5.6,3.7l-1.7,1.3c-0.7-1-1.4-2-2.2-2.9
					c-0.8-0.9-1.6-1.8-2.5-2.6c-0.8-0.8-1.8-1.5-2.8-2.1c-0.8-0.5-1.9-0.7-2.8-0.5c-0.6,0.2-1.2-0.1-1.4-0.7c-0.2-0.5,0-1,0.5-1.3
					c1.6-0.8,3.3-1.5,5.1-2.1c1.7-0.6,3.5-0.9,5.3-1.2c1.8-0.2,3.7-0.2,5.5,0.1c0.9,0.2,1.8,0.4,2.7,0.8c0.8,0.4,1.7,0.8,2.4,1.3
					c0.2,0.2,0.2,0.4,0.1,0.6c-0.1,0.2-0.4,0.2-0.5,0.1c-0.7-0.4-1.5-0.8-2.3-1.1c-0.8-0.3-1.6-0.4-2.5-0.6
					c-1.7-0.2-3.4-0.1-5.1,0.2c-1.7,0.3-3.3,0.8-4.9,1.4c-1.6,0.6-3.1,1.4-4.6,2.2l-0.9-2c0.8-0.2,1.6-0.3,2.4-0.1
					c0.7,0.1,1.4,0.4,2.1,0.7c1.2,0.6,2.3,1.4,3.3,2.4c1,0.9,1.9,1.8,2.7,2.9c0.8,1,1.6,2,2.4,3.1c0.3,0.5,0.2,1.2-0.3,1.5
					c-0.4,0.3-1,0.2-1.4-0.2c-1.2-1.4-2.8-2.5-4.6-3.1c-1.8-0.5-3.7-0.5-5.5,0c-1.9,0.6-3.7,1.4-5.3,2.5c-1.7,1.1-3.2,2.4-4.6,3.8
					l-0.8-1.8c2.8,0.2,5.5,1,7.8,2.6c2.2,1.5,4.2,3.2,6,5.2c1.7,2,3.3,4.1,4.8,6.3c1.4,2.2,2.7,4.5,3.8,6.8c0.2,0.3,0,0.7-0.3,0.8
					C109.4,215.5,109,215.3,108.9,215.1L108.9,215.1L108.9,215.1z M246.2,208.5c1-2.7,2.2-5.2,3.6-7.7c1.4-2.5,2.9-4.9,4.6-7.2
					c1.7-2.3,3.6-4.5,5.7-6.4c2.2-2.1,4.8-3.6,7.6-4.5l-0.3,2.1c-1.7-1-3.5-1.8-5.4-2.5c-1.8-0.7-3.8-1-5.7-1.1
					c-1.9-0.1-3.7,0.4-5.3,1.4c-1.6,1-2.8,2.5-3.6,4.2c-0.3,0.6-1,0.9-1.6,0.6c-0.6-0.3-0.9-1-0.6-1.6c0.4-1.2,0.9-2.5,1.5-3.6
					c0.6-1.2,1.2-2.4,1.9-3.5c0.7-1.2,1.6-2.2,2.6-3.2c0.5-0.5,1.2-0.9,1.8-1.3c0.7-0.4,1.5-0.5,2.4-0.5l-0.3,2.1
					c-1.8-0.5-3.6-0.8-5.4-1c-1.8-0.2-3.7-0.3-5.5-0.1c-1.8,0.1-3.6,0.4-5.3,1c-1.7,0.6-3.2,1.6-4.5,2.9c-0.2,0.2-0.4,0.2-0.6,0
					c0,0,0,0,0,0c-0.2-0.2-0.2-0.4,0-0.6c1.3-1.5,2.9-2.7,4.7-3.4c1.8-0.7,3.7-1.2,5.6-1.4c1.9-0.2,3.9-0.3,5.8-0.2
					c1.9,0.1,3.9,0.3,5.8,0.7c0.6,0.1,0.9,0.7,0.8,1.3c-0.1,0.5-0.6,0.9-1.1,0.8c-1,0.1-1.9,0.5-2.6,1.2c-0.8,0.8-1.6,1.7-2.2,2.7
					c-0.6,1-1.2,2.1-1.7,3.2c-0.5,1.1-1,2.3-1.4,3.4l-2.2-0.9c1-2.1,2.5-3.8,4.5-5.1c1-0.6,2.1-1.1,3.2-1.4c1.1-0.3,2.2-0.4,3.4-0.4
					c2.2,0,4.4,0.4,6.5,1.2c2.1,0.7,4,1.6,5.9,2.8c0.5,0.3,0.7,1,0.4,1.6c-0.1,0.2-0.4,0.4-0.6,0.5c-2.5,0.8-4.8,2.2-6.8,4
					c-2,1.8-3.9,3.9-5.5,6.1c-1.7,2.2-3.2,4.5-4.6,6.9c-1.4,2.4-2.8,4.8-4.1,7.3c-0.2,0.3-0.5,0.4-0.8,0.3c-0.3-0.1-0.4-0.5-0.3-0.8
					L246.2,208.5z"/>
				
					<path clip-path="url(#SVGID_12_)" fill="none" stroke="#31323D" stroke-width="2.183" stroke-linecap="round" stroke-miterlimit="10" d="
					M137.8,120c-7.8-6.4-21.8-8.6-23.7-5.9l11.3,20.1 M207.8,118.4c5.1-4.1,23.3-11.6,26.3-10.1L221.2,129"/>
				<path clip-path="url(#SVGID_12_)" fill="#31323D" d="M152.7,120.6c-1.7-1.1-3.2-2.5-4.5-4c-1.4-1.5-2.4-3.3-3.2-5.2
					c-0.7-2-0.9-4.1-0.4-6.2c0.5-2,1.5-3.9,2.8-5.5c0.3-0.4,0.9-0.4,1.2-0.1c0,0,0,0,0,0c0.2,0.2,0.3,0.4,0.3,0.7v0.1
					c-0.1,1.4,0.3,2.8,1.3,3.9c0.5,0.6,1,1,1.6,1.4c0.6,0.4,1.3,0.7,2,0.9l-1.1,1.4c-1.4-3.3-1.3-7,0.3-10.2c1.5-3,3.6-5.6,6.2-7.7
					c3.5-2.9,5.6-7.2,5.8-11.7c0.1-1.5,0-2.9-0.4-4.4v0c-0.1-0.6,0.2-1.2,0.8-1.3c0,0,0,0,0,0c0.3-0.1,0.5,0,0.8,0.1
					c3.2,1.6,6.2,3.4,9.2,5.4c3,2,5.8,4.2,8.4,6.6c2.7,2.4,5,5.4,6.6,8.6c0.8,1.7,1.4,3.6,1.5,5.4c0.1,1.9-0.2,3.9-1,5.7l-1.5-1.4
					c1.7-1.1,3-2.6,3.9-4.4c0.8-1.8,1.1-3.9,0.8-5.9v-0.1c-0.1-0.6,0.4-1.1,1-1.2c0,0,0,0,0,0c0.4,0,0.7,0.1,0.9,0.4
					c1.5,2,2.6,4.2,3.4,6.6c0.8,2.3,1.1,4.7,1.1,7.2c0,2.4-0.4,4.8-1.1,7.1c-0.7,2.3-1.7,4.5-3,6.5c-0.2,0.3-0.5,0.4-0.8,0.2
					c0,0,0,0,0,0c-0.3-0.2-0.4-0.5-0.2-0.8c1.1-2,2-4.1,2.6-6.3c0.6-2.2,0.9-4.4,0.8-6.7c-0.1-2.2-0.5-4.5-1.3-6.6
					c-0.7-2.1-1.8-4-3.2-5.8l1.9-0.8c0.4,2.4,0,4.9-1,7.1c-0.5,1.1-1.2,2.1-2,3c-0.8,0.9-1.8,1.7-2.8,2.4c-0.5,0.3-1.2,0.1-1.5-0.4
					c-0.2-0.3-0.2-0.7-0.1-1c0.6-1.5,0.9-3.1,0.8-4.6c-0.1-1.6-0.6-3.2-1.3-4.7c-1.6-3-3.7-5.7-6.2-8c-2.5-2.4-5.3-4.5-8.1-6.4
					c-2.9-1.9-5.9-3.7-8.9-5.3l1.5-1.3c0.4,1.7,0.5,3.4,0.4,5.1c-0.1,1.7-0.4,3.4-0.9,5c-1.1,3.2-3,6.1-5.6,8.3
					c-2.4,1.9-4.4,4.2-5.8,6.9c-0.6,1.3-1,2.7-1.1,4.2c0,0.7,0,1.4,0.1,2.2c0.1,0.7,0.3,1.4,0.6,2v0.1c0.2,0.5,0,1-0.4,1.3
					c-0.2,0.1-0.5,0.1-0.7,0c-0.9-0.3-1.7-0.7-2.5-1.2c-0.8-0.5-1.5-1.1-2.1-1.8c-0.6-0.7-1-1.6-1.3-2.5c-0.3-0.9-0.3-1.8-0.3-2.8
					l1.6,0.6c-1.2,1.4-2.1,3-2.6,4.8c-0.4,1.8-0.4,3.6,0.2,5.3c0.6,1.8,1.6,3.4,2.8,4.8c1.2,1.5,2.6,2.8,4.1,3.9
					c0.3,0.2,0.3,0.6,0.1,0.8C153.3,120.8,152.9,120.8,152.7,120.6L152.7,120.6L152.7,120.6z"/>
				
					<path clip-path="url(#SVGID_12_)" fill="none" stroke="#31323D" stroke-width="2.183" stroke-linecap="round" stroke-miterlimit="10" d="
					M250.5,212.9l30.5,99.3c6.6,23.2-7,47.4-30.2,54c-0.2,0-0.3,0.1-0.5,0.1 M110.7,362.8c-16.2-8.5-25.4-26.2-23-44.4l18.6-98"/>
				
					<circle clip-path="url(#SVGID_12_)" fill="#FFFFFF" stroke="#31323D" stroke-width="1.746" stroke-linecap="round" stroke-miterlimit="10" cx="224.9" cy="163.4" r="22.6"/>
				<circle clip-path="url(#SVGID_12_)" fill="#FFFFFF" cx="130.1" cy="166.3" r="22.6"/>
				
					<circle clip-path="url(#SVGID_12_)" fill="none" stroke="#31323D" stroke-width="1.746" stroke-linecap="round" stroke-miterlimit="10" cx="130.1" cy="166.3" r="22.6"/>
				<circle clip-path="url(#SVGID_12_)" fill="#A66421" cx="129.8" cy="166.6" r="14"/>
				<circle clip-path="url(#SVGID_12_)" fill="#31323D" cx="129.4" cy="166.8" r="10.1"/>
				<circle clip-path="url(#SVGID_12_)" fill="#FFFFFF" cx="135.1" cy="158.8" r="5.4"/>
				<circle clip-path="url(#SVGID_12_)" fill="#A66421" cx="224.9" cy="164" r="14"/>
				<circle clip-path="url(#SVGID_12_)" fill="#31323D" cx="224.6" cy="164.2" r="10.1"/>
				<circle clip-path="url(#SVGID_12_)" fill="#FFFFFF" cx="230.3" cy="156.2" r="5.4"/>
				<path opacity="0.2" clip-path="url(#SVGID_12_)" fill="#595959" enable-background="new    " d="M168.9,212.1
					c0,0,3.5,15,14,13.5c10.2-1.5,11.5-14.7,11.5-14.7s-4.6,7-11.2,7.7S168.9,212.1,168.9,212.1z"/>
				<path clip-path="url(#SVGID_12_)" fill="#31323D" d="M167,173.4c-0.4-1-0.2-2.1,0.5-2.8c1.5-1.6,4.8-3.9,11-4.1
					s9.2,1.9,10.7,3.3c0.7,0.7,0.9,1.8,0.5,2.8c-0.5,1.3-1.7,2.1-3.1,2.2c-2,0-3.9,0.9-5.3,2.4c-0.6,0.7-1.2,1.4-1.8,2l-1.2,1.2
					l-2.1-2.3c0,0-1.3-2.1-6-2.4C168.8,175.7,167.6,174.8,167,173.4L167,173.4z"/>
				<path clip-path="url(#SVGID_12_)" fill="#31323D" d="M180.1,177.1c0.4,2.3,1,4.6,1.7,6.8c0.7,2.2,1.7,4.4,2.8,6.4
					c1.1,2,2.7,3.8,4.5,5.2c1.9,1.4,4.2,2.1,6.5,2c0.1,0,0.3,0.1,0.3,0.2c0,0,0,0,0,0c0,0.1-0.1,0.3-0.2,0.3c-2.5,0.3-5-0.3-7.1-1.6
					c-2.1-1.4-3.9-3.2-5.2-5.3c-1.4-2-2.5-4.2-3.5-6.5c-1-2.3-1.7-4.6-2.3-7c-0.2-0.7,0.3-1.4,1-1.6
					C179.2,175.9,179.9,176.3,180.1,177.1L180.1,177.1L180.1,177.1z"/>
				<path clip-path="url(#SVGID_12_)" fill="#31323D" d="M165.2,193.2c-3.2-0.6-6.5-0.3-9.6,0.7c-3.1,1.1-5.8,3-7.7,5.7
					c-1.9,2.7-3.1,5.9-3.4,9.2c-0.3,3.3,0.2,6.7,1.4,9.8c-1.4-3.1-2-6.5-1.9-9.9c0.1-3.4,1.2-6.8,3.1-9.6c1.9-2.9,4.7-5.1,8-6.4
					c3.3-1.3,6.8-1.7,10.3-1.2c0.5,0.1,0.8,0.5,0.8,1C166.2,192.9,165.7,193.2,165.2,193.2L165.2,193.2L165.2,193.2z M190.2,184.2
					c4.6-0.8,9.3-0.8,13.8,0.1c4.5,0.9,8.8,2.7,12.6,5.3c3.8,2.5,7.1,5.8,9.6,9.7l0.9,1.4l0.8,1.5c0.6,1,1.1,2,1.5,3.1
					c0.9,2.1,1.5,4.3,2,6.5c-0.5-2.2-1.2-4.4-2.2-6.4c-0.5-1-1-2-1.6-3l-0.9-1.5l-1-1.4c-1.3-1.8-2.8-3.5-4.4-5.1
					c-1.6-1.5-3.4-2.9-5.3-4.1c-3.8-2.4-8-4-12.4-4.8c-4.4-0.7-8.9-0.6-13.2,0.3c-0.5,0.1-0.9-0.2-1-0.7
					C189.4,184.7,189.7,184.3,190.2,184.2L190.2,184.2z M225.5,184.1c-2.2-0.8-4.4-1.5-6.7-2.1c-2.3-0.6-4.6-1-6.9-1.3
					c-2.3-0.3-4.7-0.4-7-0.4c-2.3,0-4.6,0.1-6.9,0.4c-0.5,0.1-0.9-0.3-1-0.7c-0.1-0.5,0.3-0.9,0.7-1l0,0h0.1c2.4-0.2,4.8-0.2,7.2,0
					c2.4,0.2,4.7,0.4,7.1,0.9c2.3,0.4,4.6,1,6.9,1.7C221.2,182.3,223.4,183.1,225.5,184.1L225.5,184.1z"/>
				<path clip-path="url(#SVGID_12_)" fill="#31323D" d="M192.6,188.8c3.5-0.4,7,0.1,10.3,1.5c3.2,1.4,5.9,3.7,7.8,6.6
					c1.8,2.9,2.8,6.3,2.8,9.7c0.1,3.4-0.7,6.7-2.1,9.8c1.3-3.1,1.9-6.4,1.7-9.8c-0.2-3.3-1.3-6.5-3.1-9.3c-1.9-2.7-4.5-4.8-7.6-5.9
					c-3-1.1-6.3-1.5-9.5-1c-0.5,0.1-0.9-0.2-1-0.7s0.2-0.9,0.7-1C192.5,188.7,192.5,188.7,192.6,188.8L192.6,188.8z M195.4,209.9
					c-0.3,1.4-0.9,2.7-1.8,3.9c-0.9,1.2-1.9,2.2-3.1,3.1c-1.2,0.8-2.5,1.5-3.9,1.9c-4.2,1.3-8.8,0.8-12.7-1.4c-2.5-1.4-4.6-3.5-6-6
					c-0.1-0.2,0-0.5,0.2-0.6c0.2-0.1,0.4-0.1,0.5,0.1c1.8,1.9,3.9,3.4,6.3,4.5c1.2,0.5,2.4,0.9,3.6,1.1c1.2,0.3,2.5,0.4,3.7,0.3
					c1.2,0,2.5-0.2,3.7-0.5c1.2-0.3,2.4-0.8,3.4-1.4c1.1-0.6,2.1-1.4,3-2.3c0.9-0.9,1.6-2,2.3-3.1c0.1-0.2,0.4-0.3,0.6-0.2
					C195.4,209.5,195.5,209.7,195.4,209.9L195.4,209.9z"/>
				<path clip-path="url(#SVGID_12_)" fill="#31323D" d="M165.2,198.4l1.8-0.2c0.6-0.1,1.2-0.3,1.7-0.5c0.5-0.2,1.1-0.5,1.6-0.8
					c0.5-0.3,1-0.7,1.4-1.1c1.7-1.7,2.8-3.9,3.4-6.2c0.6-2.4,1.1-4.8,1.4-7.2c0.3-2.4,0.6-4.9,0.9-7.4c0.1-0.7,0.7-1.2,1.5-1.1
					c0.7,0.1,1.2,0.7,1.1,1.5v0.1c-0.5,2.4-0.9,4.9-1.4,7.4c-0.5,2.5-1.2,4.9-2,7.3c-0.8,2.5-2.3,4.7-4.2,6.5
					c-0.5,0.4-1,0.8-1.6,1.1c-0.6,0.3-1.2,0.5-1.8,0.7c-0.6,0.1-1.3,0.3-1.9,0.4l-1.9,0.1c-0.1,0-0.3-0.1-0.3-0.3
					C165,198.6,165.1,198.5,165.2,198.4C165.2,198.5,165.2,198.5,165.2,198.4L165.2,198.4z M167.6,188.6c-4.3-1.1-8.8-1.3-13.2-0.6
					c-4.4,0.6-8.7,2.2-12.5,4.4c-1.9,1.1-3.8,2.5-5.4,3.9c-1.7,1.5-3.2,3.2-4.5,5l-1,1.4l-0.9,1.4c-0.6,1-1.2,2-1.6,3
					c-1,2-1.8,4.2-2.3,6.4c0.5-2.2,1.2-4.4,2.1-6.5c0.5-1,1-2,1.6-3l0.9-1.5l1-1.4c2.6-3.8,6-7,9.9-9.4c3.9-2.5,8.2-4.2,12.8-5
					c4.6-0.8,9.3-0.7,13.8,0.2c0.5,0.1,0.8,0.6,0.7,1c-0.1,0.5-0.6,0.8-1,0.7L167.6,188.6z M132.6,185.9c4.4-1.8,8.9-3.1,13.6-3.8
					c2.3-0.4,4.7-0.6,7.1-0.7c2.4-0.1,4.8,0,7.2,0.2c0.5,0.1,0.8,0.5,0.8,1c-0.1,0.5-0.5,0.8-1,0.8h-0.1c-2.3-0.4-4.6-0.6-6.9-0.6
					c-2.3-0.1-4.7,0-7,0.2c-2.3,0.2-4.6,0.6-6.9,1.1C137.1,184.5,134.9,185.1,132.6,185.9L132.6,185.9z"/>
			</g>
		</g>
	</g>
</g>
<g id="color_x5F_04" clip-path="url(#SVGID_2_)">
	<g id="XMLID_4_">
		<g>
			<path fill="#DD963A" d="M312.9,137.3c9.4,17.3,1.1,47.4-11.1,56c-20.1,14.2-39.7,3.1-42.8-16.1c-4.2-26.2-12.2-40.3-19.1-49.1
				c0,0,0,0,0,0c-0.4-1.4-0.7-2.6-1-3.5c-0.7-1.9-9.9-22.5-18.8-29.8c-0.1-0.1-0.3-0.2-0.4-0.3C230.5,93.8,288.7,92.6,312.9,137.3z"
				/>
			<path fill="#DD963A" d="M233.4,328.7c-0.4-0.1-0.8-0.1-1,0c-10.4,4.9-12.2-1.1-14.3-0.4c-9.1,3.2-12.9,2.1-14.9,1
				c3.1,1,8.6,2.1,12.8-1.4c10.5-8.6,7.7-18.1,3.4-24.6c8.4,2.9,18.4-1.4,20.9-2.6c0,0,0.1,0.1,0.2,0.1c11,1.5,12.9,10.3,12.7,17
				c-0.3,8.4-8,6.6-8.8,8.1C241.7,331.4,235.9,329.1,233.4,328.7z"/>
			<path fill="#DD963A" d="M240,128.1C240,128.1,240,128.1,240,128.1c1.9,7.9,4.6,22.6,7.6,26.5c5.4,7.2,3.8,23.7-1.7,31.5
				c-5.4,7.6-11.9,15.3-18.2,18.9c-5.1,3-9.9,5.4-14.4,7.3c-13.5,5.7-25.1,7.3-38,7.2c-17.2,0-28.6-4.1-36.8-8
				c-1.7-0.8-3.2-1.6-4.7-2.3c-11.2-5.8-22.3-19.3-24.8-23.1c-9.5-14.3-4.5-28.5-2.7-31.1c6.5-9.2,6.2-24.1,7.3-27.8
				c0.2-0.6,0.5-1.5,1-2.7c2.5-6.1,9-19.2,19.3-28.9c0.3-0.3,0.7-0.7,1-1c0.3-0.3,0.6-0.5,0.9-0.8c13.2-11.4,29.7-10.8,29.7-10.8
				l-7.2-1.2c0,0,1.3-1.9,5.1-1.7c3.8,0.2,9.8,2.2,9.8,2.2s-2.4-2.5-5.5-3.2c-3-0.7-6.4-1-6.4-1s3.2-0.9,8.2-0.6
				c4.3,0.2,10.1,4.5,10.9,5c-0.3-0.4-1.8-2.8-3.2-3.7c-2-1.4-4.8-3.1-4.8-3.1s5.1,0,6.6,1.4c1.8,1.7,4.3,4.4,4.6,4.7
				c-0.1-0.3-0.9-1.6-1.2-2.6s-1.4-2.7-1.5-2.9c0.3,0.1,3.3,1.5,4,2.3c1.4,1.4,2.1,3.3,2.7,3.1c0.9-0.4,19.2,2.2,32.4,12.8
				c0.1,0.1,0.3,0.2,0.4,0.3c8.9,7.3,18.1,27.9,18.8,29.8C239.3,125.4,239.6,126.6,240,128.1z"/>
			<path fill="#DD963A" d="M248.2,285.5c1.3,11.6-7.9,14.7-7.9,15.3c-2.5,1.2-12.5,5.4-20.9,2.6c-3.2-4.8-7.1-7.9-7.1-7.9
				c10.4-16.6,11.2-47,11.2-47l4.7-1.2c1.7,6.1,3.9,13.6,5.1,15C240.7,270.8,247.8,281.3,248.2,285.5z"/>
			<path fill="#DD963A" d="M175.1,325.3c-3.9,2.5-7.6,1.8-8.2,2c0,0,0,0,0,0c-11,6.1-15.8,0.9-16.7,1.2c0,0-0.1,0-0.2,0.1
				c-0.1,0-0.2,0.1-0.3,0.1c-9.1,3-13.5,1-15.5,0.2c-0.1-0.1-0.2-0.2-0.3-0.3c-8.3-7.5-8-14.9-5.2-20.7c1-2,2.2-3.8,3.5-5.4
				c2.9-3.5,5.8-5.6,5.8-5.6c-10.4-16.6-11.2-47-11.2-47l-4.2-0.9c0.7-2.7,1.4-5.9,2.2-9.6c1.8-7.8,13.1-26.9,13.1-26.9l0.6-1.1
				c8.2,3.9,19.7,7.9,36.8,8c12.9,0,24.5-1.5,38-7.2c1.1,6,11.8,24.1,12.8,27c0.4,1.1,1.2,4.3,2.2,8l-4.7,1.2c0,0-0.8,30.4-11.2,47
				c0,0,3.9,3.2,7.1,7.9c4.3,6.5,7.1,16.1-3.4,24.6c-4.2,3.4-9.7,2.4-12.8,1.4c-1.1-0.6-1.7-1.2-2.4-0.9c-12.2,4.4-14.7-1.8-16-1.3
				c-6.1,2.1-8.3-2.7-9.3-2C175.3,325.2,175.2,325.3,175.1,325.3z"/>
			<path fill="#DD963A" d="M200.8,328.4c0.7-0.3,1.2,0.3,2.4,0.9C201.7,328.9,200.8,328.4,200.8,328.4z"/>
			<path fill="#DD963A" d="M166.9,327.4c0.6-0.2,4.3,0.5,8.2-2C173,327.5,168.4,327.7,166.9,327.4z"/>
			<path fill="#DD963A" d="M149.7,328.7c0.1,0,0.2-0.1,0.3-0.1c-1.6,0.6-11,4-15.8,0.3C136.2,329.7,140.5,331.8,149.7,328.7z"/>
			<path fill="#DD963A" d="M133.8,328.6c0.1,0.1,0.2,0.2,0.3,0.3c-0.6-0.2-1-0.4-1.3-0.3c-12.4,4.1-13.4,0-14.8-0.3l0-0.2
				c0,0-1.8-16.2,6.7-20.4l3.9,0.2C125.8,313.7,125.4,321.1,133.8,328.6z"/>
			<path fill="#DD963A" d="M132.7,94.5l1.1,1.2c-10.3,9.7-16.8,22.8-19.3,28.9l-1.9-0.7c-7.4,8.4-17.5,23.1-22.4,53.4
				c-3.1,19.2-22.7,30.3-42.8,16.1c-12.2-8.6-20.5-38.7-11.1-56C63.1,87.9,132.7,94.5,132.7,94.5z"/>
			<path fill="#DD963A" d="M110.6,300.4c-1.6-0.8-6.4-3.8-7.5-9.6c-0.3-1.3-0.3-2.8-0.1-4.4c1-8.6,4.5-12.2,15.1-25.3
				c1.8-2.3,3-6,4.4-11.9l4.2,0.9c0,0,0.8,30.4,11.2,47c0,0-3,2.1-5.8,5.6l0,0C121.5,305.1,111.6,300.8,110.6,300.4
				C110.7,300.4,110.6,300.4,110.6,300.4z"/>
			<path fill="#DD963A" d="M132.1,302.6L132.1,302.6c-1.3,1.6-2.5,3.4-3.5,5.4l-3.9-0.2c-8.4,4.2-6.7,20.4-6.7,20.4l0,0.2
				c-0.1,0-0.3,0-0.5,0c-7.1,3-10.8-2.9-11.7-2.8c-8,0.6-8-8.2-6.8-12.9c0.5-1.9,1.2-3.6,2-4.9h0c3.8-6.5,10.2-7.1,10.2-7.1
				s-0.2-0.1-0.5-0.3C111.6,300.8,121.5,305.1,132.1,302.6z"/>
			<path fill="#DD963A" d="M110.7,300.4c0.3,0.2,0.5,0.3,0.5,0.3s-6.4,0.6-10.2,7.1h0c-2.6,0-18.1-2.7-21.3-20.3
				c-2.6-14.6,3.4-21.7,11.8-22.5c8.9-0.8,12.6,6,9.7,16.9c-0.9,3.3,2.1,9,2.1,9C104.3,296.6,109,299.5,110.7,300.4
				C110.6,300.4,110.7,300.4,110.7,300.4z"/>
		</g>
		<g>
		</g>
	</g>
	<g>
		<g>
			<path fill="#A96323" d="M124.8,246c0.9,3.6,0.9,7.5-0.1,11.2c-0.5,1.8-0.8,3.5-1.5,5.4c-0.7,1.9-1.8,3.7-2.8,5.2
				c-0.5,0.8-1.1,1.6-1.7,2.3l-1.8,2.1c-1.1,1.3-2,2.6-3,4.1c-1,1.5-1.9,2.9-2.6,4.2c-0.3,0.7-0.6,1.3-0.8,2
				c-0.2,0.7-0.4,1.5-0.5,2.3c-0.5,3,0,5.7,1.6,7.9c0.8,1.1,1.9,2,3.3,2.9c0.7,0.4,1.4,0.8,2.2,1.2l1.2,0.6c0.4,0.2,0.7,0.4,1.1,0.5
				c1.5,0.7,3,1.2,4.6,1.5c1.6,0.3,3.4,0.5,5.2,0.6l2.7,0.2c0.9,0,1.7,0,2.5-0.1c1.6-0.2,3.1-1.2,4.1-2.8c-0.2,0.9-0.6,1.8-1.2,2.6
				c-0.6,0.8-1.5,1.4-2.4,1.9c-0.9,0.5-1.9,0.7-2.9,0.9l-2.8,0.5c-1.8,0.3-3.7,0.5-5.7,0.4c-2,0-4-0.3-6-0.9c-0.5-0.1-1-0.3-1.4-0.5
				l-1.3-0.5c-0.9-0.3-1.8-0.7-2.7-1.2c-1.8-0.9-3.7-2.2-5.2-3.9c-1.5-1.7-2.5-3.9-3.1-6.1c-0.5-2.2-0.5-4.5-0.1-6.6
				c0.2-1.1,0.4-2,0.7-3c0.3-1,0.7-2.1,1.2-3c1-1.9,2.2-3.5,3.3-5c1.1-1.4,2.4-3.1,3.8-4.4c1.4-1.4,2.5-2.4,3.7-3.7
				c0.6-0.7,1.1-1.3,1.6-1.9c0.5-0.6,0.9-1.3,1.4-2c0.8-1.4,1.6-3.1,2.4-4.7C123.4,253.2,124.3,249.7,124.8,246z"/>
		</g>
		<g>
			<path fill="#A96323" d="M228.9,246c0.5,3.6,1.3,7,2.8,10.1c0.8,1.5,1.5,3.3,2.3,4.7c0.8,1.4,1.7,2.6,2.8,3.9
				c1.1,1.3,2.2,2.4,3.5,3.7c1.3,1.3,2.6,3,3.6,4.4c1.1,1.5,2.2,3,3.1,4.9c0.5,0.9,0.9,1.9,1.2,2.9c0.2,0.5,0.3,1,0.4,1.5
				c0.1,0.5,0.2,0.9,0.3,1.4c0.3,2,0.4,4.2,0.1,6.4c-0.4,2.2-1.3,4.3-2.6,6.1c-1.4,1.8-3.1,3.2-4.9,4.2c-0.9,0.5-1.8,0.9-2.7,1.3
				c-0.9,0.4-1.7,0.7-2.7,1c-1.9,0.6-3.9,1-5.9,1.1c-2,0.1-3.8-0.1-5.6-0.4L222,303c-0.9-0.2-1.9-0.4-2.8-0.9
				c-0.9-0.4-1.7-1.1-2.3-1.9c-0.6-0.8-0.9-1.7-1.1-2.6c1,1.6,2.4,2.6,4,2.8c0.8,0.1,1.6,0.1,2.4,0.1l2.6-0.2
				c1.8-0.1,3.5-0.3,5.1-0.6c1.6-0.3,3-0.9,4.5-1.6c0.7-0.3,1.5-0.8,2.2-1.2c0.7-0.4,1.4-0.8,2-1.3c1.2-0.9,2.2-1.8,2.9-3
				c1.4-2.2,1.8-5,1.2-8c-0.1-0.4-0.1-0.8-0.2-1.2c-0.1-0.4-0.2-0.7-0.3-1.1c-0.2-0.7-0.5-1.3-0.8-2c-0.6-1.3-1.5-2.8-2.5-4.3
				c-0.9-1.5-1.8-2.8-2.9-4.1c-0.5-0.7-1.1-1.4-1.7-2.1c-0.6-0.8-1.1-1.6-1.6-2.3c-1-1.5-2-3.4-2.6-5.2c-0.6-1.9-1-3.6-1.4-5.4
				C228,253.4,228,249.6,228.9,246z"/>
		</g>
		<path fill="#AE6A21" d="M158.9,264c-0.3,0,0.1,3.9,0.1,9.2c0,0,0.2,17.8,2.6,20.2c0.3,0.3,0.6,0.5,0.6,0.5
			c0.6,0.4,1.2,0.4,3.4,1.7c2.4,1.5,5.6,3.4,7.6,6.8c1.7,2.8,1.5,4.7,2.4,4.8c1.4,0.1,1.4-4,5.2-7.5c1.5-1.4,4.4-4,7.6-4.9
			c0.4-0.1,1.5-0.4,2.2-1.3c0.8-1,0.7-2.4,0.6-2.8c-0.3-4.5,2.1-7.4,1.9-18.9c0-0.5-0.1-6.3-0.6-6.3c-0.8,0,0.9,15-7.6,23
			c-1,0.9-4.5,4.2-9.1,4c-1.3-0.1-3.8-0.5-6.8-3.1C159.4,281,159.6,263.9,158.9,264z"/>
		<path fill="#AE6A21" d="M127.9,252.6c-0.7,0-0.8,15.6,0.1,28.9c0,0,0.7,10.5,6.3,17.5c0.3,0.3,0.8,1,1.7,1.1
			c1.6,0.2,3.6-1.9,3.3-3.4c-0.2-1-1.2-1.6-1.4-1.7c-2-1.2-4.8-9-9-32.3C128.5,254.4,128.2,252.6,127.9,252.6z"/>
		<path fill="#AE6A21" d="M224.8,251.2c0.7,0,0.8,15.6-0.1,28.9c0,0-0.7,10.5-6.3,17.5c-0.3,0.3-0.8,1-1.7,1.1
			c-1.6,0.2-3.6-1.9-3.3-3.4c0.2-1,1.2-1.6,1.4-1.7c2-1.2,4.8-9,9-32.3C224.2,253.1,224.6,251.2,224.8,251.2z"/>
		<path fill="#AE6A21" d="M208.9,309c-0.3-0.3-5,3.4-7.8,9.2c0,0-2.4,4.9-1.2,8.8c0.1,0.4,0.4,1.3,1.2,1.6c0.5,0.2,1.1,0.1,1.4-0.1
			c1.5-0.8,0-4.7,0.2-8.2C203,313.6,209.3,309.3,208.9,309z"/>
		<path fill="#AE6A21" d="M112.3,309.3c-0.3-0.2-3.9,2.7-6.1,7.4c0,0-1.8,3.9-0.9,7.1c0.1,0.3,0.3,1.1,0.9,1.3
			c0.4,0.2,0.8,0,1.1-0.1c1.1-0.6,0-3.8,0.1-6.6C107.6,313,112.6,309.5,112.3,309.3z"/>
		<path fill="#AE6A21" d="M124.6,307.8c-0.3-0.3-4.5,3.5-7,9.4c0,0-2.1,5-1.1,9.1c0.1,0.4,0.4,1.4,1.1,1.7c0.5,0.2,1,0.1,1.2-0.1
			c1.3-0.8,0-4.8,0.2-8.4C119.3,312.5,125,308.1,124.6,307.8z"/>
		<path fill="#AE6A21" d="M144.3,309.7c0.3-0.3,4.6,3.3,7.2,9c0,0,2.2,4.8,1.1,8.7c-0.1,0.4-0.4,1.3-1.1,1.6c-0.5,0.2-1,0.1-1.3-0.1
			c-1.4-0.8,0-4.6-0.2-8C149.8,314.2,144,310,144.3,309.7z"/>
		<path fill="#AE6A21" d="M162.8,304.1c0.3-0.3,3.8,4,6,11c0,0,1.8,5.8,0.9,10.6c-0.1,0.5-0.3,1.6-0.9,2c-0.4,0.2-0.8,0.1-1-0.1
			c-1.1-0.9,0-5.6-0.1-9.8C167.4,309.6,162.5,304.4,162.8,304.1z"/>
		<path fill="#AE6A21" d="M191,303.6c-0.3-0.3-3.9,4-6.1,11c0,0-1.8,5.8-0.9,10.6c0.1,0.5,0.3,1.6,0.9,2c0.4,0.2,0.8,0.1,1.1-0.1
			c1.1-0.9,0-5.6,0.1-9.8C186.3,309.1,191.2,304,191,303.6z"/>
		<path fill="#AE6A21" d="M228.5,308.5c0.3-0.3,4.3,3.5,6.8,9.5c0,0,2.1,5,1,9.1c-0.1,0.4-0.3,1.4-1,1.7c-0.4,0.2-0.9,0.1-1.2-0.1
			c-1.3-0.8,0-4.9-0.2-8.4C233.7,313.2,228.1,308.8,228.5,308.5z"/>
		<path fill="#AE6A21" d="M240,308.5c0.3-0.2,4.3,3,6.8,8.2c0,0,2.1,4.3,1,7.9c-0.1,0.3-0.3,1.2-1,1.5c-0.4,0.2-0.9,0.1-1.2-0.1
			c-1.3-0.7,0-4.2-0.2-7.3C245.2,312.6,239.7,308.7,240,308.5z"/>
		<g>
			<g>
				<path fill="#A96323" d="M102.6,309.5c-3.2-0.9-6.1-2.2-8.9-3.8c-2.7-1.7-5.3-3.7-7.2-6.2c-2-2.5-3.3-5.4-4.1-8.4
					c-0.4-1.5-0.7-3-0.8-4.5c-0.1-0.7-0.1-1.5-0.1-2.3l0-2.2l0.3,2.2c0.1,0.7,0.3,1.4,0.5,2.1c0.4,1.4,0.9,2.8,1.6,4.1
					c1.2,2.6,2.9,5,4.9,6.8c2,1.8,4.5,3.1,7,4.1c2.6,0.9,5.3,1.6,7.9,1.8L102.6,309.5z"/>
			</g>
			<path fill="none" stroke="#AE6A21" stroke-width="10.5918" stroke-miterlimit="10" d="M138.1,212.7c8.3,3.4,24,8.6,44,7.2
				c14.2-1,25.5-4.9,32.8-8.1"/>
			<g>
				<g>
					<path fill="#AE6A21" d="M112.6,123.8c-1,1.8-2.1,3.6-3.2,5.4c-1.1,1.8-2.2,3.5-3.3,5.3c-1.1,1.7-2,3.5-2.8,5.3
						c-0.2,0.4-0.4,0.9-0.5,1.3l-0.5,1.4l-1,2.9c-1.3,3.9-2.6,7.8-3.8,11.7c-0.6,1.9-1.2,3.9-1.7,5.8c-0.2,0.6-0.1,0.4-0.2,1.1
						l-0.2,1.5c-0.2,1-0.3,2.1-0.5,3.1c-0.2,1.1-0.4,2.1-0.6,3.3c-0.3,1.1-0.6,2.3-0.9,3.3c-0.3,1.1-0.7,2.1-1,3l-0.5,1.4l-0.5,1.4
						c-0.7,2-1.4,4.2-2.7,6.5c-1.2,2.2-3,4.4-5,6.1c-3.9,3.4-8.9,5.4-13.8,6l-0.9,0.1c-0.4,0-0.7,0.1-1,0.1c-0.7,0-1.3,0-1.9,0
						c-1.2,0-2.5-0.1-3.7-0.3c-2.4-0.3-4.9-0.9-7.2-1.9c-4.7-1.8-8.9-5.1-11.9-8.8c-3.1-3.8-5.2-8-6.8-12.2c-0.8-2.1-1.4-4.2-2-6.3
						c-0.6-2.1-1.1-4.3-1.5-6.6c-0.7-4.4-0.9-9-0.4-13.5c0.5-4.5,1.6-8.9,3.4-13c1.8-4.1,4.2-7.9,7-11.2c1.4-1.7,2.9-3.2,4.5-4.6
						c0.8-0.7,1.6-1.4,2.4-2.1c0.8-0.7,1.7-1.3,2.5-2c1.7-1.3,3.5-2.4,5.3-3.4c1.9-1,3.7-1.9,5.7-2.7c-1.7,1.3-3.3,2.6-4.8,4
						c-1.5,1.4-3,2.8-4.3,4.3c-0.7,0.8-1.3,1.5-2,2.3c-0.7,0.8-1.3,1.6-1.9,2.4c-1.2,1.6-2.4,3.2-3.4,4.9c-2,3.3-3.6,6.9-4.7,10.5
						c-1,3.7-1.5,7.4-1.6,11.2c0,3.8,0.4,7.5,1.3,11.2c0.4,1.8,1,3.6,1.6,5.4c0.7,1.9,1.3,3.7,2,5.5c2.9,6.9,7.3,12.6,13.3,14.9
						c1.5,0.6,3.1,1,4.7,1.3c1.7,0.2,3.3,0.3,4.8,0.1c3.2-0.3,6.3-1.5,8.7-3.4c2.4-1.8,3.8-4.3,5.3-8.1l0.6-1.5l0.6-1.5l1.2-2.7
						c0.4-0.9,0.7-1.7,1-2.6c0.3-0.9,0.6-1.8,0.8-2.8l0.8-2.9l0.4-1.5l0.2-0.9l0.1-0.3l0.1-0.2l0.2-0.4c0.8-2,1.6-3.9,2.4-5.9
						c1.6-3.8,3.4-7.6,5.2-11.4c0.5-0.9,0.9-1.9,1.4-2.8l0.4-0.7l0.4-0.7c0.3-0.5,0.6-1,0.9-1.4c1.3-1.9,2.7-3.5,4.1-5
						C106.5,129.5,109.5,126.7,112.6,123.8z"/>
				</g>
				<g>
					<path fill="#AE6A21" d="M239,123.8c3.1,2.8,6.1,5.6,9.1,8.7c1.5,1.5,2.9,3.2,4.1,5c0.3,0.5,0.6,0.9,0.9,1.4l0.4,0.7l0.4,0.7
						c0.5,0.9,1,1.9,1.4,2.8c1.8,3.8,3.6,7.6,5.2,11.4c0.8,1.9,1.6,3.8,2.4,5.9l0.2,0.4l0.1,0.2l0.1,0.3l0.2,0.9l0.4,1.5l0.8,2.9
						c0.3,1,0.5,1.9,0.8,2.8c0.3,0.9,0.6,1.7,1,2.6l1.2,2.7l0.6,1.5l0.6,1.5c1.5,3.8,2.9,6.4,5.3,8.1c2.5,1.9,5.5,3.1,8.7,3.4
						c1.5,0.2,3.2,0.1,4.8-0.1c1.6-0.2,3.2-0.7,4.7-1.3c6-2.3,10.4-8,13.3-14.9c0.7-1.7,1.4-3.5,2-5.5c0.6-1.8,1.2-3.6,1.6-5.4
						c0.8-3.7,1.3-7.4,1.3-11.2c0-3.8-0.6-7.5-1.6-11.2c-1-3.7-2.6-7.2-4.7-10.5c-1-1.7-2.1-3.3-3.4-4.9c-0.6-0.8-1.2-1.6-1.9-2.4
						c-0.7-0.8-1.3-1.6-2-2.3c-1.3-1.5-2.8-2.9-4.3-4.3c-1.5-1.4-3.1-2.7-4.8-4c2,0.7,3.8,1.7,5.7,2.7c1.8,1,3.6,2.2,5.3,3.4
						c0.9,0.6,1.7,1.3,2.5,2c0.8,0.7,1.6,1.4,2.4,2.1c1.6,1.4,3.1,3,4.5,4.6c2.8,3.3,5.2,7.1,7,11.2c1.8,4.1,2.9,8.5,3.4,13
						c0.5,4.5,0.3,9-0.4,13.5c-0.4,2.2-0.9,4.4-1.5,6.6c-0.6,2-1.2,4.1-2,6.3c-1.6,4.2-3.7,8.4-6.8,12.2c-3.1,3.8-7.2,7-11.9,8.8
						c-2.3,0.9-4.8,1.5-7.2,1.9c-1.2,0.2-2.5,0.3-3.7,0.3c-0.6,0-1.3,0-1.9,0c-0.3,0-0.7,0-1-0.1l-0.9-0.1c-5-0.7-9.9-2.7-13.8-6
						c-2-1.7-3.8-3.9-5-6.1c-1.3-2.2-2-4.5-2.7-6.5l-0.5-1.4l-0.5-1.4c-0.4-1-0.7-2-1-3c-0.3-1.1-0.7-2.2-0.9-3.3
						c-0.3-1.1-0.5-2.2-0.6-3.3c-0.2-1-0.3-2.1-0.5-3.1l-0.2-1.5c-0.1-0.7-0.1-0.6-0.2-1.1c-0.5-1.9-1.1-3.9-1.7-5.8
						c-1.2-3.9-2.5-7.8-3.8-11.7l-1-2.9l-0.5-1.4c-0.2-0.4-0.3-0.9-0.5-1.3c-0.7-1.8-1.7-3.5-2.8-5.3c-1-1.8-2.2-3.5-3.3-5.3
						C241.2,127.4,240.1,125.7,239,123.8z"/>
				</g>
				<g>
					<path fill="#AE6A21" d="M106.2,151.1c-0.5,2.2-0.9,4.4-1.1,6.7c-0.1,2.2-0.1,4.4,0.3,6.5c0.7,4.3,2.3,8.4,4.3,12.1
						c4.1,7.6,10.1,13.8,17.2,18.5c1.8,1.2,3.6,2.3,5.5,3.5c1.8,1.1,3.7,2.1,5.6,3c3.9,1.8,7.9,3.4,12,4.6
						c8.2,2.4,16.6,3.6,25.2,3.4c2.1,0,4.3-0.1,6.5-0.3c2.1-0.1,4.3-0.4,6.4-0.7c4.3-0.5,8.5-1.4,12.6-2.6c2.1-0.6,4.1-1.2,6.2-1.9
						c2.1-0.7,4.2-1.4,6.2-2.2c4-1.6,7.7-3.5,11.2-5.8c3.5-2.3,6.9-5,9.9-8.1c1.5-1.5,2.9-3.1,4.2-4.8c0.7-0.8,1.3-1.7,1.9-2.6
						c0.6-0.9,1.2-1.8,1.8-2.7c2.3-3.6,3.8-7.6,4.6-11.9c0.4-2.1,0.6-4.4,0.5-6.6c0-2.2-0.2-4.5-0.6-6.7c1,2.1,1.7,4.3,2.2,6.6
						c0.5,2.3,0.8,4.6,0.8,7c0,2.4-0.2,4.8-0.7,7.1c-0.5,2.4-1.3,4.7-2.2,6.9c-0.5,1.1-1,2.2-1.5,3.2c-0.5,1.1-1.1,2.2-1.7,3.2
						c-1.2,2.1-2.6,4-4.1,5.9c-3,3.8-6.4,7.2-10.2,10.2c-3.8,3-8,5.6-12.4,7.6c-2.2,1-4.4,2-6.5,2.8c-2.2,0.9-4.5,1.7-6.7,2.4
						c-4.6,1.5-9.2,2.5-13.9,3.3c-2.4,0.4-4.7,0.6-7.1,0.8c-2.3,0.2-4.7,0.3-7.1,0.4c-19.3,0.4-38.7-6.2-53.4-18.4
						c-3.7-3-7.2-6.5-10.1-10.4c-1.4-2-2.8-4-3.9-6.1c-1.1-2.1-2.2-4.3-3-6.6c-1.6-4.5-2.6-9.3-2.5-14.1
						C102.7,159.6,104,155.1,106.2,151.1z"/>
				</g>
			</g>
		</g>
	</g>
</g>
<path clip-path="url(#SVGID_2_)" fill="#E7E4E2" d="M175.8,138.7c0.1,0-18.9,2.8-25.7,16.6c-5.7,11.6-3.6,16.8-1.9,19.1
	c2.7,3.6,6.7,4.8,11.4,5.9c3.8,0.9,16.4-0.2,16.2-1.3C175.7,178.1,175.8,138.7,175.8,138.7z"/>
<path clip-path="url(#SVGID_2_)" fill="#E7E4E2" d="M175.8,138.7c-0.1,0,18.9,2.8,25.7,16.6c5.7,11.6,3.6,16.8,1.9,19.1
	c-2.7,3.6-6.7,4.8-11.4,5.9c-3.8,0.9-16.4-0.2-16.2-1.3C175.9,178.1,175.8,138.7,175.8,138.7z"/>
<path clip-path="url(#SVGID_2_)" fill="#E7E4E2" d="M66.5,106.8c-2.8,3.2-6,4.8-9.6,7.1c-0.6,0.4-1.2,0.6-1.8,0.9
	c-2.9,3.9-6.5,6.9-10.1,10c-0.1,0.2-0.3,0.4-0.4,0.7c-0.7,1.3-1.7,2.4-2.9,3.2c0.3,11.6,9.8,21,21.6,21c11.9,0,21.6-9.7,21.6-21.6
	C84.9,117.3,76.9,108.3,66.5,106.8z"/>
<circle clip-path="url(#SVGID_2_)" fill="#E7E4E2" cx="70.6" cy="172.8" r="6"/>
<path clip-path="url(#SVGID_2_)" fill="#E7E4E2" d="M110.4,300.8c1.6-0.4,2.2,0.3,6.5,1.4c2.5,0.6,3.8,1,5.4,1
	c2.1,0.1,2.2-0.3,5.2-0.4c3.6-0.1,3.8,0.5,4.9,0c1.7-0.8,2.4-2.7,4.2-3.8c0.7-0.4,1.5-0.8,1.5-0.8c0,0,0.6-0.3,1.2-0.5
	c9-3.7,14.2-3.9,14.2-3.9c3.2-0.1,6.5-0.3,9.9,1.5c1.7,0.9,2,1.5,6.5,4.3c1.8,1.1,2.3,1.3,2.9,2c2.2,2.5,1.7,5.6,2.8,5.8
	c0.4,0.1,0.9-0.3,2.3-2.4c2.5-3.4,2.2-4.2,3.7-5.6c1.4-1.3,1.9-0.7,3.9-2.4c0.8-0.6,1.3-1.2,2.4-1.6c0.7-0.2,1.1-0.3,2.4-0.4
	c2.8-0.2,2.9-0.3,3.7-0.4c8.8-0.5,16.8-1,21.1,3.4c2,2,2.4,4.2,5.4,5.4c0.3,0.1,1.2,0.4,4.2,0.6c2.2,0.1,5.9,0.3,10.2-0.8
	c3.8-1,4.4-2,7.2-2c2.4,0.1,4.1,0.9,4.6,1.1c3.1,1.5,4.6,4.1,5.4,5.6c1.3,2.3,1.6,4.2,2.1,7c0.6,3.4,0.9,5.4-0.3,6.9
	c-0.7,0.9-1.7,1.5-2.9,2.2c-0.7,0.4-1.5,0.9-2.6,1.2c-1.7,0.5-2.1,0.1-2.9,0.6c-1.1,0.7-0.9,1.6-2.1,2.5c-1,0.8-2.1,0.9-2.6,1
	c-2,0.3-2.7-0.7-5.6-0.7c-0.7,0-1.2,0.1-1.3,0.1c-2.3,0.2-3,1-4.8,1.5c-1.7,0.4-3,0.3-4.3,0.2c-1.8-0.1-2.9-0.2-4.1-1
	c-0.8-0.6-0.9-0.9-1.6-1.1c-1-0.3-1.7,0.4-3.2,0.9c-1.2,0.5-2,0.6-3.6,0.8c-1.3,0.2-3.4,0.5-5.8-0.1c-2.6-0.6-2.5-1.6-4.4-1.7
	c-2.1-0.1-2.3,1.1-5,1.6c-0.5,0.1-3.6,0.6-6.6-0.8c-1.6-0.8-2.4-1.8-4.2-1.9c-0.2,0-0.2,0-2.1,0.1c-2.2,0.1-3.3,0.2-3.5,0.1
	c-0.2-0.1-1.2-0.7-3.2-1.9c-0.2-0.1-0.4-0.3-0.7-0.3c-1-0.2-1.6,0.4-2.6,0.9c-1.6,0.8-3.1,0.8-4.2,0.9c-1.5,0.1-1.6-0.3-2.6-0.1
	c-1.4,0.3-2,1.2-3.1,1.9c-2.6,1.8-5.8,1.3-6.3,1.3c-1.9-0.2-2.6-1-6-1.5c-0.8-0.1-1.1-0.1-1.4-0.1c-2,0-3,0.8-4.5,1.4
	c-0.4,0.1-2.7,0.9-5.3,0.6c-1.5-0.2-3-0.7-4.9-1.4c-1.3-0.5-1.3-0.5-1.7-0.6c-1.8-0.4-2.9,0.4-5.2,1.1c-2.7,0.8-5,1.5-6.6,0.4
	c-0.8-0.5-1.2-1.3-2.6-1.7c-0.8-0.3-1.5-0.3-1.9-0.3c-1.1,0-1.6,0.3-2.7,0.6c-0.9,0.2-2.1,0.4-3.4,0c-1.3-0.4-1.4-1.2-3.5-2.1
	c-0.5-0.2-0.9-0.4-1.2-0.4c-2.4-0.8-3.3-0.4-4.4-0.9c-1.1-0.5-1.6-1.5-2.3-3.1c-0.4-0.9-1.6-3.4-1.4-6.8c0.3-4.6,2.8-7.7,3.5-8.5
	c0.9-1,1.9-1.9,4-3.5C108.5,301.8,109.5,301,110.4,300.8z"/>
<ellipse clip-path="url(#SVGID_2_)" fill="#F9F8F7" cx="136.6" cy="139.6" rx="6.6" ry="5.8"/>
<ellipse clip-path="url(#SVGID_2_)" fill="#53291D" cx="137.2" cy="139.9" rx="4.9" ry="4.9"/>
<ellipse clip-path="url(#SVGID_2_)" fill="#220B05" stroke="#000000" stroke-width="0.444" cx="137.7" cy="139.9" rx="3.1" ry="3.1"/>
<ellipse clip-path="url(#SVGID_2_)" fill="#040000" cx="137.4" cy="139.9" rx="1.9" ry="1.9"/>
<ellipse clip-path="url(#SVGID_2_)" fill="#B29D84" cx="140.2" cy="142.3" rx="1.2" ry="1.2"/>
<ellipse clip-path="url(#SVGID_2_)" fill="#FFFFFF" cx="133.5" cy="139" rx="2.4" ry="2.1"/>
<g clip-path="url(#SVGID_2_)">
	<path d="M130.9,134.8c0.6-0.7,1.3-1.4,2.1-1.9c0.8-0.5,1.7-0.8,2.6-1c0.9-0.1,1.9,0,2.8,0.3c0.5,0.1,0.9,0.4,1.3,0.6
		c0.4,0.3,0.7,0.6,1.1,0.9c-0.8-0.5-1.6-0.9-2.5-1.2c-0.9-0.3-1.8-0.4-2.6-0.2c-0.9,0.1-1.7,0.4-2.5,0.8
		C132.3,133.6,131.6,134.2,130.9,134.8z"/>
</g>
<path clip-path="url(#SVGID_2_)" fill="none" stroke="#000000" stroke-width="0.6907" d="M143.4,139.6c0,3.3-3.1,6-6.9,6
	c-3,0-5.5-1.7-6.5-4c-0.3-0.6-0.4-1.3-0.4-2c0-3.3,3.1-6,6.9-6c2.4,0,4.4,1,5.7,2.6C143,137.1,143.4,138.3,143.4,139.6z"/>
<g clip-path="url(#SVGID_2_)">
	<path d="M142.1,135.9c-1.3-0.9-2.7-1.6-4.2-1.8c-1.5-0.2-3,0.2-4.3,0.9c-1.3,0.7-2.5,1.7-3,3.1c-0.5,1.4-0.5,3,0.1,4.4
		c-0.9-1.3-1.3-3-0.8-4.7c0.5-1.6,1.8-2.9,3.3-3.6c1.4-0.8,3.2-1.2,4.8-0.8C139.6,133.8,141,134.7,142.1,135.9z"/>
</g>
<g clip-path="url(#SVGID_2_)">
	<path d="M130.1,141.1c-0.3-0.1-0.4-0.2-0.6-0.3c-0.2-0.1-0.4-0.2-0.6-0.4c-0.3-0.3-0.6-0.6-0.8-1c0.3,0.3,0.7,0.5,1,0.6
		c0.2,0.1,0.4,0.1,0.6,0.1c0.2,0,0.4,0,0.5,0L130.1,141.1z"/>
</g>
<path clip-path="url(#SVGID_2_)" fill="#040000" d="M129.9,110.8c-0.5-0.6,6.9-8.8,10.9-7.1c1.1,0.5,2.1,1.8,1.8,2.6
	c-0.3,1-2.5,0.8-5.6,1.5C132.3,108.9,130.1,111.1,129.9,110.8z"/>
<ellipse clip-path="url(#SVGID_2_)" fill="#F9F8F7" cx="215.1" cy="139.6" rx="6.6" ry="5.8"/>
<ellipse clip-path="url(#SVGID_2_)" fill="#53291D" cx="214.4" cy="139.9" rx="4.9" ry="4.9"/>
<ellipse clip-path="url(#SVGID_2_)" fill="#220B05" stroke="#000000" stroke-width="0.444" cx="213.9" cy="139.9" rx="3.1" ry="3.1"/>
<ellipse clip-path="url(#SVGID_2_)" fill="#040000" cx="214.2" cy="139.9" rx="1.9" ry="1.9"/>
<ellipse clip-path="url(#SVGID_2_)" fill="#B29D84" cx="211.4" cy="142.3" rx="1.2" ry="1.2"/>
<ellipse clip-path="url(#SVGID_2_)" fill="#FFFFFF" cx="218.1" cy="139" rx="2.4" ry="2.1"/>
<g clip-path="url(#SVGID_2_)">
	<path d="M220.8,134.8c-0.7-0.6-1.5-1.1-2.2-1.5c-0.8-0.4-1.7-0.7-2.5-0.8c-0.9-0.1-1.8-0.1-2.6,0.2c-0.9,0.2-1.7,0.7-2.5,1.2
		c0.3-0.3,0.7-0.6,1.1-0.9c0.4-0.2,0.8-0.5,1.3-0.6c0.9-0.4,1.9-0.4,2.8-0.3c0.9,0.1,1.9,0.5,2.6,1
		C219.5,133.4,220.2,134,220.8,134.8z"/>
</g>
<path clip-path="url(#SVGID_2_)" fill="none" stroke="#000000" stroke-width="0.6907" d="M208.2,139.6c0,3.3,3.1,6,6.9,6
	c3,0,5.5-1.7,6.5-4c0.3-0.6,0.4-1.3,0.4-2c0-3.3-3.1-6-6.9-6c-2.4,0-4.4,1-5.7,2.6C208.6,137.1,208.2,138.3,208.2,139.6z"/>
<g clip-path="url(#SVGID_2_)">
	<path d="M209.6,135.9c1-1.2,2.5-2.1,4.1-2.4c1.6-0.4,3.4,0,4.8,0.8c1.4,0.8,2.8,2,3.3,3.6c0.5,1.6,0.1,3.4-0.8,4.7
		c0.6-1.5,0.6-3.1,0.1-4.4c-0.5-1.4-1.7-2.4-3-3.1c-1.3-0.7-2.8-1.1-4.3-0.9C212.3,134.4,210.8,135,209.6,135.9z"/>
</g>
<g clip-path="url(#SVGID_2_)">
	<path d="M221.5,140.2c0.1,0,0.3,0,0.5,0c0.2,0,0.4-0.1,0.6-0.1c0.4-0.1,0.7-0.3,1-0.6c-0.2,0.4-0.5,0.7-0.8,1
		c-0.2,0.1-0.4,0.3-0.6,0.4c-0.2,0.1-0.4,0.2-0.6,0.3L221.5,140.2z"/>
</g>
<path clip-path="url(#SVGID_2_)" fill="#040000" d="M221.8,110.8c0.5-0.6-6.9-8.8-10.9-7.1c-1.1,0.5-2.1,1.8-1.8,2.6
	c0.3,1,2.5,0.8,5.6,1.5C219.4,108.9,221.5,111.1,221.8,110.8z"/>
<path clip-path="url(#SVGID_2_)" fill="none" stroke="#040000" stroke-width="0.3165" d="M170.4,170.3c0,0-11.1-5.3-30.2,3.9"/>
<path clip-path="url(#SVGID_2_)" fill="none" stroke="#040000" stroke-width="0.3165" d="M168.9,172c0,0-15-2.3-28,8.6"/>
<path clip-path="url(#SVGID_2_)" fill="none" stroke="#040000" stroke-width="0.3165" d="M167.9,174.1c0,0-16.2-0.6-25.9,13"/>
<path clip-path="url(#SVGID_2_)" fill="none" stroke="#040000" stroke-width="0.3165" d="M180.9,170.3c0,0,11.1-5.3,30.2,3.9"/>
<path clip-path="url(#SVGID_2_)" fill="none" stroke="#040000" stroke-width="0.3165" d="M182.4,172c0,0,15-2.3,28,8.6"/>
<path clip-path="url(#SVGID_2_)" fill="none" stroke="#040000" stroke-width="0.3165" d="M183.4,174.1c0,0,16.2-0.6,25.9,13"/>
<line clip-path="url(#SVGID_2_)" fill="none" stroke="#060404" stroke-width="2.9568" stroke-miterlimit="10" x1="176.8" y1="165" x2="176.4" y2="181.7"/>
<g clip-path="url(#SVGID_2_)">
	<path fill="#22170E" d="M174.5,141.5l-8.1,2.7l-5.4,4.9l-0.2,5l2,4.2l4.7,4.4c0,0,4.8,2.6,6.6,2.6s8.2-0.5,11.1-3.3
		s5.2-5.9,5.5-7.8c0.3-1.8,0.3-4.3,0-4.8s-4.5-4.7-5.5-5.3s-6.3-2.8-7.1-2.7S174.5,141.5,174.5,141.5z"/>
	<path fill="#060404" d="M166.1,155.8c1.9-0.8,5.7,3,5.1,4.5c-0.5,1.2-4.6,2-5.9-0.2C164.4,158.7,165,156.3,166.1,155.8z"/>
	<path fill="#060404" d="M185.4,155.8c-1.9-0.8-5.7,3-5.1,4.5c0.5,1.2,4.6,2,5.9-0.2C187.1,158.7,186.5,156.3,185.4,155.8z"/>
	<ellipse fill="#FFFFFF" cx="175.7" cy="144.7" rx="5.1" ry="3.2"/>
	<path fill="none" stroke="#000000" stroke-width="1.0592" d="M175.8,141.5c0,0-8.6,0-14.2,6.8c-3.4,4.1,1.5,16.2,14.2,17"/>
	<path fill="none" stroke="#000000" stroke-width="1.0592" d="M175.8,141.5c0,0,8.6,0,14.2,6.8c3.4,4.1-1.5,16.2-14.2,17"/>
</g>
<path clip-path="url(#SVGID_2_)" fill="#221B1C" d="M143.5,177.5c-0.4,0.4,0.9,2.2,2.3,3.4c1.3,1.1,2.6,1.6,6.4,2.6
	c2.9,0.7,4.6,1.1,7.2,1.5c3.7,0.5,6.6,0.5,8.7,0.6c2.2,0,1.5-0.1,5.9-0.2c1.5,0,3.4-0.1,5.8-0.3c3.9-0.3,9-0.7,9-1.3
	c0-0.5-3.1-0.9-4.1-1c-4.8-0.7-8.3-0.3-11.1-0.2c-2.3,0.1-6.9,0.2-12.3-0.4c-5.4-0.6-8.3-0.9-12.1-2.4
	C146.1,178.4,143.9,177,143.5,177.5z"/>
<path clip-path="url(#SVGID_2_)" fill="none" stroke="#040000" stroke-width="1.8988" stroke-miterlimit="10" d="M137.6,174.1
	c0,0,7.8,8.5,19.3,10.6"/>
<path clip-path="url(#SVGID_2_)" fill="none" stroke="#040000" stroke-width="1.8988" stroke-miterlimit="10" d="M170,185.3
	c0,0,13.1,2,23.6-2.4"/>
<path clip-path="url(#SVGID_2_)" fill="#AF1E23" d="M164.6,181.4c-1.7-0.1-3.4-0.1-5.1-0.3c-1.4-0.1-2.8-0.4-4.1-0.5l0.1,0.2
	c0,0,0.7,4.2,1,4.7c0.2,0.6,2.1,3.7,2.5,4.1c0.4,0.4,2,1.3,2.1,1.4c0.1,0,2.3,0.5,2.3,0.5l2,0l2.8-1l2.4-2.6l2.4-4l1.6-1.9
	C171.2,181.9,167.9,181.6,164.6,181.4z"/>
<path clip-path="url(#SVGID_2_)" fill="#711A2D" d="M155.6,181.7c-0.1,0.4,0.3,0.9,0.6,1.1c1.4,1.5,3.8,2,8.1,2.3
	c4.7,0.3,7.2-0.1,8.8-1.4c0.3-0.2,0.6-0.5,0.5-0.8c-0.2-0.8-2.9-0.4-7.6-0.9c-2.5-0.3-4-0.4-6.8-0.7
	C157.4,181.3,155.8,181.1,155.6,181.7z"/>
<path clip-path="url(#SVGID_2_)" fill="none" stroke="#000000" stroke-width="0.8398" d="M155.6,181.1c0.7,2.8,0.9,5.9,3.1,8.2
	c1.1,1.1,2.5,2.2,4.3,2"/>
<path clip-path="url(#SVGID_2_)" fill="none" stroke="#000000" stroke-width="0.8398" d="M174.7,181.8c0,0-2,1.9-2.9,3.9
	c-1.8,4-5.8,6.6-8.9,5.5"/>
<path clip-path="url(#SVGID_2_)" fill="none" stroke="#000000" stroke-width="2.2153" d="M135.8,172.8c-2.7-0.8,8.2,5.7,17.2,7.8
	c9.8,2.3,20.3,1.7,23.5,1.5c6-0.5,11,1,15.1,0.8c14.5-0.5,17.6-3.2,17.6-3.2l0.8-0.7"/>
<path clip-path="url(#SVGID_2_)" d="M137.2,169.9c-6,2-8.7,2-8.7,2.8c0,0.6,2,1.2,3.4,1.3c2.2,0.1,3.8-0.9,5.4-1.9
	c1.8-1.1,3.8-2.8,3.5-3.2C140.7,168.6,139.5,169.1,137.2,169.9z"/>
<path clip-path="url(#SVGID_2_)" d="M210.2,177.2c3.4,2,4.9,2.1,4.9,2.8c0,0.6-1.1,1.2-1.9,1.3c-1.2,0.1-2.2-0.9-3-1.9
	c-1-1.1-2.1-2.8-2-3.2C208.3,176,208.9,176.5,210.2,177.2z"/>
<g id="form" clip-path="url(#SVGID_2_)">
	<path fill="none" stroke="#231815" stroke-width="2.1184" stroke-linecap="round" stroke-linejoin="round" d="M164.3,82.8
		c0,0-16.5-0.6-29.7,10.8c-0.3,0.3-0.6,0.5-0.9,0.8c-12.9,11.6-20.1,28.7-21.3,32.6c-1.1,3.7-0.8,18.6-7.3,27.8
		c-1.8,2.5-6.7,16.7,2.7,31c2.5,3.8,13.5,17.3,24.8,23.1c8.4,4.4,20.8,10.3,41.5,10.3c17.3,0.1,32.2-2.7,52.4-14.6
		c6.3-3.7,12.8-11.3,18.2-18.9c5.5-7.8,7.2-24.3,1.7-31.5c-3.5-4.6-6.6-24.5-8.5-30c-0.7-1.9-9.9-22.5-18.8-29.8
		c-13.2-10.9-32-13.4-32.8-13.1c-0.5,0.2-1.3-1.7-2.7-3.1c-0.8-0.9-4.1-2.3-4.1-2.3s1.2,1.9,1.6,3c0.4,1.1,1.3,2.6,1.3,2.6
		s-2.8-3-4.6-4.8c-1.5-1.4-6.6-1.4-6.6-1.4s2.8,1.7,4.8,3.1c1.5,1.1,3.3,3.8,3.3,3.8s-6.4-4.8-10.9-5.1c-5-0.3-8.3,0.6-8.3,0.6
		s3.4,0.2,6.4,1c3.1,0.8,5.5,3.2,5.5,3.2s-6-2-9.8-2.2c-3.8-0.2-5.1,1.7-5.1,1.7L164.3,82.8z"/>
	<path fill="none" stroke="#231815" stroke-width="2.1184" stroke-linecap="round" stroke-linejoin="round" d="M139,212.7
		c0,0-11.3,19.1-13.1,26.9c-2.7,11.9-4,18.1-6.7,21.5c-10.6,13.1-14,16.8-15.1,25.3c-1.2,10.3,8.1,14.2,8.1,14.2s-9.4,0.9-12.2,12
		c-1.2,4.7-1.2,13.5,6.8,12.8c0.9-0.1,4.6,5.8,11.7,2.8c1.8-0.8,1.5,4.8,15.3,0.3c1.4-0.5,5.2,4.1,17.4-0.1c1-0.3,5.8,4.9,16.7-1.2
		c0.5-0.3,4.4,0.5,8.6-2.3c1-0.7,3.2,4,9.4,2c1.3-0.4,3.8,5.7,16,1.3c1.9-0.7,3,4.9,17.3-0.1c2.1-0.7,3.9,5.3,14.3,0.4
		c1.4-0.7,8.8,3.6,12.1-2.7c0.8-1.5,8.5,0.3,8.8-8.1c0.2-6.8-1.7-15.6-12.7-17c-1.9-0.2,9.1-2.8,7.7-15.4
		c-0.5-4.2-7.5-14.7-14.9-23.2c-2-2.3-6.3-20-7.3-23c-1-3-12.3-22-12.9-27.5"/>
	<g>
		<path fill="#231815" d="M127.8,250c0.4,4,0.9,8.1,1.5,12.1c0.6,4,1.4,8,2.3,11.9c0.9,3.9,2,7.8,3.3,11.6c1.3,3.8,2.9,7.5,5,10.8
			c0.3,0.5,0.2,1.1-0.3,1.4l0,0c-3.5,2.6-6.6,6-8.7,9.8c-1,1.9-1.8,4-2,6.1c-0.3,2.1,0,4.3,0.8,6.3c0.7,2,1.9,3.9,3.4,5.6
			c0.7,0.8,1.5,1.7,2.3,2.4c0.8,0.7,1.7,1.2,2.7,1.5c2.1,0.7,4.4,0.7,6.6,0.4c2.2-0.3,4.5-0.8,6.6-1.5c-2.1,1-4.3,1.7-6.5,2.1
			c-2.3,0.4-4.6,0.7-7,0.1c-1.2-0.3-2.3-0.8-3.3-1.7c-0.9-0.8-1.7-1.6-2.5-2.4c-1.6-1.7-2.9-3.7-3.8-6c-0.9-2.2-1.3-4.7-1-7.1
			c0.2-2.4,1-4.7,2.1-6.9c1.1-2.1,2.5-4,4.1-5.8c1.6-1.8,3.3-3.3,5.2-4.8l-0.3,1.4c-2.2-3.6-3.8-7.4-5.1-11.3
			c-1.3-3.9-2.3-7.9-3-11.9c-0.8-4-1.3-8.1-1.7-12.1C128,258.2,127.7,254.1,127.8,250z"/>
	</g>
	<g>
		<path fill="#231815" d="M224.7,248.4c0.1,4.1-0.2,8.1-0.5,12.2c-0.4,4.1-0.9,8.1-1.7,12.1c-0.7,4-1.7,8-3,11.9
			c-1.3,3.9-3,7.7-5.1,11.3l-0.2-1.4c1.8,1.5,3.4,3.2,4.9,5c1.5,1.8,2.8,3.7,3.9,5.8c1.1,2.1,1.9,4.4,2.2,6.8
			c0.3,2.4,0.2,4.9-0.6,7.1c-0.8,2.3-2.1,4.3-3.7,6.1c-0.8,0.9-1.6,1.7-2.5,2.4c-0.9,0.7-1.9,1.5-3,1.9c-2.2,1-4.7,1.1-6.9,0.8
			c-2.3-0.3-4.5-1.1-6.5-2.2c2.1,0.8,4.3,1.4,6.6,1.5c2.2,0.1,4.5-0.2,6.4-1.2c1-0.5,1.8-1.1,2.6-1.9c0.8-0.8,1.6-1.5,2.3-2.4
			c1.4-1.7,2.5-3.6,3.1-5.6c0.6-2,0.7-4.2,0.4-6.3c-0.3-2.1-1.1-4.2-2.2-6.1c-2-3.8-5-7.3-8.3-10.1l0,0c-0.4-0.3-0.5-0.9-0.2-1.4
			c2.1-3.3,3.7-7,5-10.8c1.4-3.8,2.4-7.7,3.3-11.6c0.9-3.9,1.6-7.9,2.3-11.9C223.8,256.5,224.3,252.5,224.7,248.4z"/>
	</g>
	<g>
		<path fill="#231815" d="M159.5,250l0.1,11.5c0,3.8,0.1,7.7,0.2,11.5c0.1,1.9,0.3,3.7,0.5,5.7l0.7,5.7c0.2,1.9,0.5,3.8,0.7,5.7
			c0.1,0.5,0.1,0.9,0.2,1.4c0.1,0.4,0.2,0.9,0.3,1.2c0,0.1,0.1,0.1-0.2-0.2c-0.1,0,0.1,0,0.1,0.1l0.6,0.3c0.4,0.2,0.9,0.4,1.3,0.6
			c3.6,1.7,6.9,4.1,9.3,7.4c2.4,3.2,3.9,7.1,4.4,11c0.6,3.9,0.4,7.8-0.3,11.7c-0.2,1.1-1,2-1.8,2.6c-0.8,0.6-1.8,1-2.7,1.2
			c-1,0.2-1.9,0.4-2.9,0.4c-0.5,0-1,0-1.5-0.1c-0.5-0.1-1-0.1-1.4-0.4c0.4,0.3,0.9,0.3,1.4,0.3c0.5,0,1,0,1.4-0.1
			c0.9-0.1,1.9-0.3,2.8-0.6c0.9-0.3,1.7-0.7,2.4-1.3c0.7-0.6,1.2-1.3,1.3-2.1c0.4-3.7,0.4-7.6-0.3-11.2c-0.7-3.7-2.1-7.2-4.4-10
			c-2.2-2.9-5.3-5.1-8.6-6.7l-1.3-0.6l-0.7-0.3c-0.1-0.1-0.2-0.1-0.5-0.3c-0.4-0.4-0.4-0.6-0.5-0.8c-0.2-0.6-0.3-1.1-0.4-1.6
			c-0.1-0.5-0.2-1-0.2-1.5c-0.3-1.9-0.5-3.8-0.7-5.8l-0.5-5.7c-0.1-1-0.2-1.9-0.3-2.9c-0.1-1-0.1-2-0.1-2.9
			C158.2,265.3,158.8,257.7,159.5,250z"/>
	</g>
	<g>
		<path fill="#231815" d="M194.3,248c-0.8,5.6-1.3,11.3-0.9,16.9c0,0.7,0.1,1.4,0.2,2.1c0.1,0.7,0.1,1.5,0.2,2.2
			c0.1,1.4,0.1,2.9,0.1,4.3c0,2.9-0.2,5.7-0.4,8.6c-0.2,2.9-0.5,5.7-1,8.6c-0.1,0.7-0.3,1.4-0.4,2.2c-0.1,0.4-0.2,0.7-0.3,1.1
			c-0.1,0.2-0.2,0.4-0.3,0.6c-0.1,0.1-0.1,0.3-0.3,0.4c-0.1,0.1-0.1,0.2-0.3,0.3c-0.1,0.1-0.2,0.1-0.3,0.1c-0.1,0-0.3,0.1-0.4,0.1
			c-1,0-2.3,0.6-3.4,1.2c-2.3,1.4-4.4,3.3-6.1,5.4c-0.9,1.1-1.7,2.2-2.2,3.4c-0.6,1.2-1,2.5-0.7,3.6l0,0.1l0.9,5.9l0,0
			c0,0,0,0,0,0.1c-0.3,3.2-0.4,6.5-0.8,9.7c-0.1-3.3-0.2-6.5-0.2-9.7l0,0.1l-1.2-5.9l0,0.1c-0.5-1.7,0-3.3,0.6-4.6
			c0.6-1.4,1.4-2.6,2.3-3.8c1.8-2.3,3.9-4.4,6.5-6c1.3-0.8,2.7-1.5,4.5-1.6c0,0-0.2,0-0.2,0c-0.1,0-0.1,0-0.2,0.1
			c-0.1,0.1-0.1,0.1-0.1,0.1c0,0,0,0,0,0c0-0.1,0.1-0.2,0.1-0.3c0.1-0.3,0.2-0.6,0.3-0.9c0.2-0.7,0.3-1.3,0.4-2
			c0.5-2.7,0.8-5.6,1-8.4c0.2-2.8,0.5-5.6,0.6-8.4c0.1-1.4,0.1-2.8,0.1-4.2c0-0.7,0-1.4-0.1-2.1c0-0.7-0.1-1.4-0.1-2.2
			c0-2.9,0.2-5.8,0.7-8.6C193,253.5,193.6,250.7,194.3,248z"/>
	</g>
	<g>
		<path fill="#231815" d="M166.2,326.8c-0.1,0-0.1,0.1-0.1,0.1C166.1,326.9,166.1,326.9,166.2,326.8c-0.1,0.1,0-0.1,0-0.2
			c0.1-0.2,0.1-0.4,0.2-0.7c0.1-0.5,0.1-1,0.2-1.5c0.1-1.1,0.1-2.1,0.1-3.2c0-2.2-0.2-4.3-0.5-6.5c-0.3-2.2-0.7-4.3-1.4-6.3
			c-0.4-1-0.8-2-1.4-2.9c-0.6-0.9-1.3-1.8-2.3-2.3c1,0.5,1.8,1.3,2.5,2.1c0.7,0.9,1.2,1.9,1.6,2.9c0.9,2,1.5,4.2,2,6.4
			c0.5,2.2,0.8,4.4,1,6.6c0.1,1.1,0.2,2.2,0.2,3.4c0,0.6,0,1.1-0.1,1.7c0,0.3-0.1,0.6-0.1,0.9c-0.1,0.2-0.1,0.3-0.2,0.5
			c0,0.1-0.1,0.2-0.1,0.3c-0.1,0.2-0.2,0.3-0.4,0.4c-0.5,0.4-1.1,0.3-1.5-0.2C165.6,327.8,165.7,327.2,166.2,326.8z"/>
	</g>
	<g>
		<path fill="#231815" d="M149.9,328.1c-0.1,0.1-0.1,0.4-0.1,0.3c0,0,0,0,0-0.1C149.8,328.2,149.8,328.1,149.9,328.1
			c-0.1-0.2-0.1-0.4-0.1-0.7c0-0.4,0-0.9,0-1.3c-0.1-0.9-0.1-1.7-0.2-2.6c-0.2-1.7-0.5-3.5-0.9-5.2c-0.4-1.7-0.9-3.4-1.6-5
			c-0.7-1.6-1.7-3.2-3.3-4c1.7,0.7,2.8,2.3,3.7,3.8c0.9,1.6,1.6,3.2,2.2,4.9c0.6,1.7,1.1,3.4,1.5,5.2c0.2,0.9,0.4,1.8,0.5,2.7
			c0.1,0.5,0.1,0.9,0.2,1.4c0,0.2,0,0.5,0.1,0.7c0,0.1,0,0.3,0,0.4c0,0.1,0,0.2,0,0.3c0,0-0.1,0.4-0.2,0.6c-0.3,0.5-1,0.6-1.5,0.3
			C149.7,329.2,149.5,328.6,149.9,328.1z"/>
	</g>
	<g>
		<path fill="#231815" d="M233.6,328.1c-0.1,0.1-0.1,0.3-0.1,0.2l0-0.1c0-0.1,0-0.2,0-0.3c0-0.2,0-0.4,0-0.6c0-0.4,0-0.9,0-1.3
			c0-0.9-0.1-1.8-0.2-2.7c-0.2-1.8-0.4-3.6-0.8-5.4c-0.4-1.8-0.8-3.6-1.5-5.3c-0.7-1.7-1.5-3.4-3.1-4.4c0.8,0.4,1.5,1.1,2.1,1.8
			c0.6,0.7,1.1,1.6,1.5,2.4c0.8,1.7,1.5,3.5,2,5.3c0.5,1.8,1,3.6,1.4,5.5c0.2,0.9,0.3,1.9,0.5,2.8c0.1,0.5,0.1,0.9,0.2,1.4
			c0,0.2,0,0.5,0.1,0.7c0,0.1,0,0.3,0,0.4c0,0.2,0.1,0.3-0.2,0.8c-0.3,0.5-1,0.7-1.5,0.3C233.4,329.3,233.3,328.6,233.6,328.1z"/>
	</g>
	<g>
		<path fill="#231815" d="M244,326.1C243.9,326.1,243.9,326.2,244,326.1l0.1-0.3c0.1-0.2,0.1-0.4,0.2-0.6c0.1-0.4,0.2-0.8,0.3-1.2
			c0.1-0.8,0.2-1.6,0.3-2.5c0.1-1.7,0.1-3.3-0.2-5c-0.3-1.6-0.8-3.3-1.7-4.7c-0.9-1.4-2.2-2.6-3.6-3.5c1.6,0.7,3,1.8,4.1,3.2
			c1.1,1.4,1.8,3.1,2.3,4.7c0.5,1.7,0.7,3.5,0.8,5.2c0,0.9,0,1.8,0,2.7c0,0.4-0.1,0.9-0.1,1.3c0,0.2-0.1,0.4-0.1,0.7l-0.1,0.4
			c0,0.2-0.1,0.4-0.2,0.6c0,0.1-0.1,0.1-0.2,0.1c0,0,0,0,0,0L244,326.1z"/>
	</g>
	<g>
		<path fill="#231815" d="M201.3,328.2c-0.1-1.9,0.1-3.7,0.3-5.5c0.3-1.8,0.7-3.6,1.3-5.3c0.6-1.7,1.5-3.3,2.5-4.8
			c1.1-1.5,2.4-2.7,3.9-3.6c-1.4,1.1-2.6,2.4-3.5,3.9c-0.9,1.5-1.5,3.1-1.9,4.8c-0.4,1.7-0.6,3.4-0.7,5.1c-0.1,1.7,0,3.5,0.2,5.1
			l0,0c0.1,0.6-0.3,1.1-0.9,1.2c-0.6,0.1-1.1-0.3-1.2-0.9C201.3,328.2,201.3,328.2,201.3,328.2z"/>
	</g>
	<g>
		<path fill="#231815" d="M185.3,326.8c-0.1-2.2-0.1-4.4,0.1-6.5c0.2-2.2,0.4-4.3,0.9-6.4c0.4-2.1,1.1-4.2,2.1-6.1
			c1-1.9,2.5-3.7,4.5-4.5c-1.9,1-3.2,2.9-4,4.8c-0.8,1.9-1.3,4-1.5,6.1c-0.3,2.1-0.3,4.2-0.3,6.3c0,2.1,0.2,4.2,0.4,6.3l0,0
			c0.1,0.6-0.3,1.1-0.9,1.2C185.9,327.9,185.4,327.5,185.3,326.8C185.3,326.9,185.3,326.9,185.3,326.8z"/>
	</g>
	<g>
		<path fill="#231815" d="M118,328.2c-0.1-2,0-3.9,0.2-5.8c0.2-1.9,0.5-3.8,1-5.7c0.5-1.8,1.2-3.7,2.3-5.3c1-1.6,2.5-3,4.2-3.7
			c-1.6,0.9-2.9,2.4-3.8,4c-0.9,1.6-1.4,3.4-1.7,5.2c-0.3,1.8-0.5,3.7-0.5,5.5c0,1.8,0.1,3.7,0.4,5.5l0,0c0.1,0.6-0.3,1.1-0.9,1.2
			C118.7,329.2,118.1,328.8,118,328.2C118,328.2,118,328.2,118,328.2z"/>
	</g>
	<g>
		<path fill="#231815" d="M106.8,326.2c-0.3-1.7-0.3-3.4-0.3-5.1c0.1-1.7,0.3-3.3,0.7-5c0.5-1.6,1.1-3.2,2.1-4.5
			c1-1.3,2.4-2.3,3.9-3c-1.4,0.8-2.6,2-3.4,3.3c-0.8,1.4-1.3,2.9-1.5,4.4c-0.3,1.5-0.3,3.1-0.2,4.7c0.1,1.6,0.4,3.2,0.8,4.6l0,0
			c0.2,0.6-0.2,1.1-0.7,1.3c-0.6,0.2-1.1-0.2-1.3-0.7C106.8,326.3,106.8,326.3,106.8,326.2z"/>
	</g>
	<path fill="none" stroke="#231815" stroke-width="2.1184" stroke-linecap="round" stroke-linejoin="round" d="M111.7,300.3
		c0,0,10.3,4.9,21.5,2.2"/>
	<path fill="none" stroke="#231815" stroke-width="2.1184" stroke-linecap="round" stroke-linejoin="round" d="M242,300.5
		c0,0-11.8,6.2-21.5,2.9"/>
	<path fill="none" stroke="#231815" stroke-width="2.1184" stroke-linecap="round" stroke-linejoin="round" d="M104.3,290.7
		c0,0-2.9-5.6-2-9c3-11-0.8-17.8-9.7-16.9c-8.5,0.8-14.5,8-11.8,22.5c3.2,17.7,18.8,20.4,21.3,20.4"/>
	<path fill="none" stroke="#231815" stroke-width="2.1184" stroke-linecap="round" stroke-linejoin="round" d="M133.8,94.4
		c0,0-69.6-6.6-96.3,42.8c-9.4,17.3-1.1,47.4,11.1,56c20.1,14.2,39.7,3.1,42.8-16c4.9-30.3,14.9-45,22.4-53.4"/>
	<path fill="none" stroke="#231815" stroke-width="2.1184" stroke-linecap="round" stroke-linejoin="round" d="M219.2,94.5
		c0,0,68.1-6.6,94.9,42.7c9.4,17.3,1.1,47.4-11.1,56c-20.1,14.2-39.7,3.1-42.8-16c-4.9-30.3-14.8-44.5-22.2-52.8"/>
	<path fill="#1B110F" stroke="#231815" stroke-width="1.0592" stroke-linecap="round" stroke-linejoin="round" d="M192.4,320.6
		c-0.5,2.1,1,4.5,2,4.6c1.7,0.1,3.5-6.3,2-7.3C195.5,317.3,193,318.4,192.4,320.6z"/>
	<path fill="#1B110F" stroke="#231815" stroke-width="1.0592" stroke-linecap="round" stroke-linejoin="round" d="M179.9,318.7
		c-0.3,1.4,0.7,2.9,1.4,3c1.1,0.1,2.2-4.1,1.3-4.7C181.9,316.6,180.2,317.2,179.9,318.7z"/>
	<path fill="#1B110F" stroke="#231815" stroke-width="1.0592" stroke-linecap="round" stroke-linejoin="round" d="M160.6,320.9
		c0.3,2-1.3,4-2.3,4c-1.6-0.1-2.5-6.2-1.1-6.9C158,317.6,160.3,318.8,160.6,320.9z"/>
	<path fill="#1B110F" stroke="#231815" stroke-width="1.0592" stroke-linecap="round" stroke-linejoin="round" d="M174.2,318.3
		c0.4,1.9-1.1,4.1-2.1,4.2c-1.6,0.2-3.1-5.6-1.6-6.5C171.3,315.5,173.7,316.3,174.2,318.3z"/>
	<path fill="#1B110F" stroke="#231815" stroke-width="1.0592" stroke-linecap="round" stroke-linejoin="round" d="M143.9,322.6
		c0.2,1.7-1.2,3.5-2,3.5c-1.4,0-2.2-5.3-0.9-5.9C141.7,319.7,143.7,320.8,143.9,322.6z"/>
	<path fill="#1B110F" stroke="#231815" stroke-width="1.0592" stroke-linecap="round" stroke-linejoin="round" d="M121.5,321.1
		c0.1-1.6,1.6-3,2.4-2.9c1.3,0.3,1.2,5.3,0,5.7C123.1,324.1,121.4,322.8,121.5,321.1z"/>
	<path fill="#1B110F" stroke="#231815" stroke-width="1.0592" stroke-linecap="round" stroke-linejoin="round" d="M110.3,319
		c0-1.6,1.6-3,2.3-2.9c1.2,0.3,1.2,5.2,0,5.6C111.9,322,110.3,320.7,110.3,319z"/>
	<path fill="#1B110F" stroke="#231815" stroke-width="1.0592" stroke-linecap="round" stroke-linejoin="round" d="M102.2,317
		c0.1-1.5,1.7-2.8,2.4-2.7c1.2,0.2,1.1,4.8-0.1,5.2C103.7,319.7,102.1,318.5,102.2,317z"/>
	<path fill="#1B110F" stroke="#231815" stroke-width="1.0592" stroke-linecap="round" stroke-linejoin="round" d="M208.5,321.4
		c-0.4,2.1,1.4,4.6,2.5,4.7c1.9,0.2,3.4-6.1,1.7-7.1C211.6,318.3,208.9,319.2,208.5,321.4z"/>
	<path fill="#1B110F" stroke="#231815" stroke-width="1.0592" stroke-linecap="round" stroke-linejoin="round" d="M229.7,322.2
		c-0.4-1.4-2.2-2.4-2.9-2.2c-1.2,0.4-0.2,4.8,1.1,4.9C228.7,325.1,230.1,323.7,229.7,322.2z"/>
	<path fill="#1B110F" stroke="#231815" stroke-width="1.0592" stroke-linecap="round" stroke-linejoin="round" d="M241.6,320.7
		c-0.3-1.6-2.2-2.7-2.9-2.4c-1.2,0.5-0.2,5.4,1.1,5.6C240.6,323.9,242,322.3,241.6,320.7z"/>
	<path fill="#1B110F" stroke="#231815" stroke-width="1.0592" stroke-linecap="round" stroke-linejoin="round" d="M251.3,317.5
		c-0.3-1.3-2.1-2.2-2.7-1.9c-1.1,0.4-0.2,4.3,1,4.4C250.3,320,251.6,318.8,251.3,317.5z"/>
</g>
</svg>
