<?xml version="1.0" encoding="utf-8"?>
<!-- Generator: Adobe Illustrator 21.0.0, SVG Export Plug-In . SVG Version: 6.00 Build 0)  -->
<svg version="1.1" id="图层_1" xmlns="http://www.w3.org/2000/svg" xmlns:xlink="http://www.w3.org/1999/xlink" x="0px" y="0px"
	 viewBox="0 0 255 262" enable-background="new 0 0 255 262" xml:space="preserve">
<title>kitty-eth</title>
<g>
	<ellipse fill="#FFD6F7" cx="127.9" cy="139.4" rx="124.2" ry="122.5"/>
</g>
<g id="color_x5F_01_1_">
	<defs>
		<ellipse id="SVGID_1_" cx="127.9" cy="139.4" rx="124.2" ry="122.5"/>
	</defs>
	<clipPath id="SVGID_2_">
		<use xlink:href="#SVGID_1_"  overflow="visible"/>
	</clipPath>
	<g id="form_1_" clip-path="url(#SVGID_2_)">
		<path display="none" fill="none" stroke="#231815" stroke-width="2.0434" stroke-linecap="round" stroke-linejoin="round" d="
			M117.5,81.9c-7.7,0.3-17.9,2.5-27.4,10.7c-0.3,0.3-0.6,0.5-0.8,0.7c-11.9,10.7-18.5,26.5-19.6,30c-1,3.4-0.7,17.1-6.7,25.7
			c-1.7,2.3-6.2,15.4,2.5,28.6c2.3,3.5,12.5,16,22.9,21.3c7.8,4,19.2,9.5,38.3,9.5c16,0,29.7-2.5,48.3-13.4
			c5.8-3.4,11.8-10.4,16.7-17.4c5.1-7.2,6.6-22.5,1.6-29.1c-3.2-4.3-6.1-22.6-7.9-27.7c-4.5-12.8-8.8-20.5-17.3-27.5
			c-11.8-9.7-25.5-11.2-32-11.9C128.4,80.6,121.9,81.2,117.5,81.9z"/>
		<g>
			<path fill="none" d="M69.5,283.5c0,0-2.4-1-4.6-3.4c0.2,0.4,0.5,0.8,0.9,1.3C67.2,282.7,68.7,283.3,69.5,283.5z"/>
			<path fill="none" d="M65.3,284.9C65.3,284.9,65.3,284.9,65.3,284.9C65.3,284.9,65.3,284.9,65.3,284.9z"/>
			<path fill="#9B7344" d="M217.9,84.2c1.3-7.9,3.3-20.1-2.4-24c-9-6.2-32.4,11.9-51.1,28.7c-1.2-0.9-2.6-1.8-4-2.7
				c-14-8.5-27.9-8.4-33.9-8.1v0c-6.4-0.1-18.5,0.7-30.7,8.1c-1,0.6-2.4,1.5-4.1,2.7C73.1,72.2,49.7,54,40.6,60.2
				c-5.7,3.9-3.7,16.1-2.4,24c4.1,24.6,19.6,41.8,29.8,50.9c-0.3,7.3,0.7,13.4,1.7,17.4c-2.1,0.2-5.7,0.7-9.5,2.8
				c-3.8,2.1-6,4.7-7.2,6.1c-4.4,5.3-5.7,11.1-6.2,14.3c0.9-1.4,3.1-4.8,7.5-7c3.9-1.9,7.4-2,9.1-1.9c-1,0.4-2.6,1.3-4.1,2.9
				c-1.2,1.3-1.8,2.6-2.2,3.5c-0.6,1.2-1.3,3.3-1.5,6.1c6.2-6.2,10.1-6.8,12.6-6.2c3.9,1,4.8,5.1,9.6,10.7c4.1,4.7,8,7.1,13.6,10.5
				c1.6,1,3.3,1.9,5,2.7c-8.5,12.1-12.5,22.6-14.6,30.1c-3,10.5-1.5,14-6.1,19.8C66.1,259,62.9,262.4,62,270.3
				c-0.4,3.7,0.6,6.5,2.1,8.6c-4.3,0.9-19.5,3.5-31.3-5.7c-9.4-7.4-12.4-18.8-14.1-25.4c-3.2-12.3-1.6-22.5-3.4-22.7
				c-1.5-0.1-3.6,7.4-4.2,10c-0.6,2.6-0.9,4.8-1.1,6.4c-0.5-0.3-1.2-0.7-1.9-1.3c-1.4-1.4-1.8-3.1-1.9-3.8c-1.2,2-4.4,8.3-3.4,16.6
				c0.9,7,4.4,11.7,6,13.6c1.6,1.8,1.8,2.4,1.6,2.6c-0.1,0.1-0.4,0.4-5.4-2.2c-3.5-1.8-3.9-2.2-4.1-2c-1.7,1.3,3.3,20.4,19,29
				c11.8,6.5,26.8,5.5,39-2.1c0.1-0.2,0.2-0.4,0.3-0.6c-0.4,1-0.8,2-1.1,3.2c-1.1,4.3-1.1,12.4,6.3,11.8c0.8-0.1,4.2,5.4,10.8,2.6
				c1.7-0.7,1.4,4.5,14.1,0.2c0.3-0.1,0.7,0,1.3,0.3c4.9,3.8,14.8-0.3,14.8-0.3c0.9-0.3,5.3,4.5,15.4-1.1c0,0,0,0,0.1,0
				c1.4,0.3,5.7,0.1,7.6-1.9c0.1-0.1,0.2-0.1,0.2-0.2c0.9-0.6,3,3.7,8.6,1.8c1.2-0.4,3.5,5.3,14.8,1.2c0,0,0,0,0,0
				c0,0,0.9,0.4,2.2,0.9c1.9,1,5.3,2,13.7-1c2-0.7,3.6,4.9,13.2,0.4c0.2-0.1,0.5-0.1,0.9,0l0,0c0,0,0,0,0,0
				c2.3,0.4,7.7,2.5,10.2-2.5c0.7-1.4,7.9,0.2,8.1-7.5c0.2-6.2-1.5-14.4-11.7-15.7c-0.1,0-0.2,0-0.2-0.1c0.4-0.2,0.6-0.3,0.6-0.3
				l-0.4,0c1.3-0.9,8.2-4.2,7.1-13.9c-0.4-3.9-6.9-13.5-13.7-21.4c-5.3-6.1-3-9.2-6.8-21.2c-2.4-7.6-6.6-18.2-14.4-30.4l0,0
				c1.3-0.6,2.5-1.3,3.7-2.1c5.7-3.5,9.6-5.8,13.6-10.5c4.8-5.6,5.8-9.7,9.6-10.7c2.5-0.6,6.5,0,12.6,6.2c-0.1-2.8-0.9-4.9-1.5-6.1
				c-0.4-0.9-1-2.1-2.2-3.5c-1.5-1.6-3.1-2.5-4.1-2.9c1.7-0.1,5.2,0,9.1,1.9c4.4,2.2,6.7,5.6,7.5,7c-0.5-3.2-1.8-9-6.2-14.3
				c-1.2-1.4-3.3-4-7.2-6.1c-3.8-2.1-7.4-2.7-9.5-2.8c0.9-4,2-10.1,1.7-17.5C198.4,125.8,213.8,108.7,217.9,84.2z M69.5,283.5
				c-0.7-0.2-2.3-0.7-3.6-2.2c-0.4-0.4-0.7-0.9-0.9-1.3C67,282.4,69.5,283.5,69.5,283.5z M65.3,284.9
				C65.3,284.9,65.3,284.9,65.3,284.9C65.3,284.9,65.3,284.9,65.3,284.9z"/>
		</g>
	</g>
	<g clip-path="url(#SVGID_2_)">
		<path fill="none" d="M169.3,293.7c-0.2-1.1-0.7-3.3-3.1-7.7c-2.6-4.9-4.5-6.9-4.2-7.2c0.1-0.1,0.4,0,0.8,0.3c0-0.2,0-0.4,0-0.6
			c0.1-0.9,1.1-1.5,1.3-1.6c1.8-1.1,4.5-8.3,8.3-29.8c0.2-7.5,0.5-9.2,0.8-9.2c0.7,0,0.8,14.4-0.1,26.6c0,0-0.6,9.3-5.5,15.8
			c1.7,0.3,3.9,0.6,6.6,0.6c2.9,0,5.7,0.1,9-1.3c1.9-0.8,4.2-1.8,5.5-4c2.1-3.5,0.4-7.9-0.8-11.2c-0.7-1.8-1.2-2.8-5.5-9.5
			c-5.1-8-5.3-8.2-6-9.6c-2.3-5-0.8-6.2-2.4-13.5c-1.7-7.9-5-14.2-8.4-20.5c-2-3.8-3-5.7-3.4-6.3c-0.4-0.6-0.7-1.2-1.1-1.8
			c-5,2.6-9.5,4.2-12.7,5.2c-6.7,2-23.8,6-42.9-0.6c-4.1-1.4-7.5-3-10.1-4.5c0,0,0,0.1-0.1,0.1c-0.4,0.5-1.4,2.4-3.4,6.3
			c-3.3,6.3-6.7,12.6-8.4,20.5c-1.6,7.3-0.1,8.4-2.4,13.5c-0.6,1.4-0.9,1.6-6,9.6c-4.3,6.7-4.9,7.8-5.5,9.5
			c-1.2,3.3-2.9,7.7-0.8,11.2c1.3,2.2,3.5,3.2,5.5,4c3.2,1.4,6.1,1.3,9,1.3c1.7,0,3.1-0.2,4.4-0.3c-3.4-6.1-3.9-13.2-3.9-13.2
			c-0.8-12.2-0.7-26.6-0.1-26.6c0.2,0,0.5,1.7,0.8,9.2c3.9,21.5,6.5,28.7,8.3,29.8c0.1,0,0.2,0.1,0.4,0.3c0.2,0.1,0.3,0.1,0.3,0.3
			c0,0,0,0,0,0c0.3,0.3,0.5,0.6,0.6,1c0,0.2,0,0.5-0.1,0.8c0.3-0.1,0.5-0.1,0.5,0c0.3,0.3-1.3,1.7-3.1,5.4c-1.8,3.6-4.1,8.1-2.9,13
			c0.8,3.3,3.2,7.6,6.8,8.4c2.3,0.5,5.8-0.4,7.1-0.8c0.5-0.1,0.9-0.3,1.3-0.4c0.1-1.2,0.3-2.6,0.3-3.9c-0.2-6.2-5.6-10.1-5.3-10.4
			c0.3-0.2,4.2,3.1,6.6,8.3c0,0,1.3,2.7,1.3,5.7c1.1,0.1,1.8,0.5,3.5,0.6c1.5,0.2,2.4,0.3,3.6,0.1c3.1-0.4,4.4-2.3,6.2-1.8
			c0.1-1.7,0.3-3.7,0.3-5.6c-0.2-7.5-4.7-12.2-4.4-12.6c0.2-0.3,3.5,3.7,5.5,10.1c0,0,1.4,4.6,1,8.8c1.3-0.1,2.7-0.9,3.6-1.9
			c0.3-0.4,0.9-1.3,1.3-3.6c0.5-3.4-0.2-6.1-0.4-6.8c-1.4-5.3-4.9-8.9-6.5-10.5c-4.8-3.7-5.6-4.9-5.4-5.2c0.1-0.2,0.7-0.1,1.5,0.2
			c-0.5-0.2-0.8-0.3-1.1-0.5c0,0-0.3-0.2-0.5-0.4c-3.4-3.4-2.4-18.6-2.4-18.6c0.8-12.6-0.8-20.1,0.4-20.3c0.6-0.1,1.3,1.7,2.3,3.9
			c3,7.3,1.9,10.1,4.2,14.1c0.4,0.7,3.4,6,8.3,6.5c4.4,0.4,8.6-3.3,10.6-6.9c2.5-4.5,0.7-7.5,4-15c0.1-0.3,1.9-4.2,2.5-4
			c0.5,0.2-0.3,2.6-0.7,7.5c-0.3,4.2-0.2,8.7-0.2,12.7c0,0.1,0,0.1,0,0.1c0.2,10.6-2,13.3-1.7,17.5c0,0.4,0.2,1.7-0.6,2.6
			c-0.6,0.8-1.6,1.1-2,1.2c-2.9,0.8-5.6,3.2-7,4.5c-3,2.8-3.4,6-4.3,6.8c0.2,0.5,0.5,1,0.7,1.5c0-0.6,0-1.2,0.1-1.9
			c0.9-4.8,5.8-7.8,6-7.5c0.2,0.2-2.4,2.5-3.5,6.8c-0.5,2,0,2-0.3,6.6c-0.3,5.5-1,7.8,0.5,9.1c0.7,0.7,1.8,0.9,1.9,1
			c0.6,0.1,1.1,0.1,1.5,0c-0.4-4.1,1-8.6,1-8.6c2-6.4,5.4-10.4,5.6-10.1c0.3,0.3-4.3,5.1-4.5,12.6c-0.1,2,0.2,4.1,0.3,5.8
			c1.3,0.3,1.3,1.3,3.2,2.3c2.9,1.6,6.1,1,6.4,0.9c1.5-0.3,1.8-0.8,2.6-1.1c-0.5-3.4,1.3-7.1,1.3-7.1c2.6-5.3,6.9-8.7,7.2-8.4
			c0.3,0.3-5.5,4.3-5.8,10.5c-0.1,1.8,0.3,3.7,0.4,5.2c0.6,0.2,1.4,0.4,2.6,0.7c2.2,0.5,3.3,0.7,4.4,0.6c2.8-0.3,4.8-2.2,5.8-3.1
			c0.7-0.7,2.7-2.6,3.4-5.7C170,297.2,169.6,295.4,169.3,293.7z"/>
		<path fill="none" d="M106.6,200.9c-1-0.3-2.2-0.7-3.6-1.2l2.3,1L106.6,200.9z"/>
		<path fill="#895F34" d="M57.6,78.7C51,72.3,44.3,67.6,44,67.9c-0.2,0.2,4.4,4.9,9.6,10.7C68,94.5,73.3,113,73.3,113l4.6-8.6
			C77.9,104.4,65.7,86.4,57.6,78.7z"/>
		<path fill="#895F34" d="M201.9,79.2c5-6,9.5-10.8,9.3-11c-0.2-0.3-6.8,4.6-13.2,11.2c-7.9,8-19.5,26.3-19.5,26.3l4.9,8.5
			C183.3,114.1,188.1,95.5,201.9,79.2z"/>
		<path fill="#895F34" d="M9.5,267.8c1.2,1,1.5,0.9,1.5,0.8c0.8-0.6-3.8-6.3-5.3-14.9c-0.3-1.9-1-5.8-0.4-10.8
			c0.4-2.9,1.3-6.4,1-6.4c-0.1,0-0.5,0.7-0.6,1.1c-2.2,5.4-3.3,8.2-3.5,11.4c-0.3,4.7,1,8.2,2,11C5.1,262.4,6.6,265.4,9.5,267.8z"/>
		<path fill="#895F34" d="M39.8,91.5c1.1,3.8,3,9.8,6.6,16.7c2.9,5.5,5.9,9.4,12,17.2c7.5,9.7,9.6,9.7,9.6,9.7
			c0.3-2.8,0.6-5.6,0.9-8.4c-2.2-1.6-5.2-4.1-8.4-7.5c-3.6-3.8-5.8-7.1-8.2-10.6c-1.9-2.8-4.3-6.4-6.8-11.6c-0.5-1-2.5-5.2-4.4-11.1
			C38.1,76.7,38,71.8,38,70.5c0-6.3,1.6-8.2,2.5-9c1.6-1.3,3.6-1.6,4.3-1.7c3-0.4,5.4,0.8,7.2,1.8c7.3,3.8,12,7.3,12,7.3
			c0.7,0.5,4.1,3.4,10.9,9c5,4.2,7.5,6.3,8.1,7c2.6,3.2,6,6.1,6,6.1l2.7-1.6c-0.7-0.9-1.4-1.7-2.1-2.6c0.6,0.9,1.1,1.5,1.1,1.5
			c0,0,0,0,0,0c-0.2-0.1-3.8-3.7-5.5-5.4c-3-2.9-5.4-4.6-10-8.2c-3.5-2.7-6.3-4.9-10.4-7.6c-1.6-1-6-3.9-12.1-6.6
			c-2.6-1.2-5.3-2.2-8.5-1.7c-0.9,0.1-2.7,0.4-4.3,1.8c-1.4,1.2-2.1,2.8-2.5,4.5c-1.2,4.8-0.6,9.3-0.3,11.5
			C38.3,84.2,38.9,88,39.8,91.5z"/>
		<path fill="#895F34" d="M218.7,65.3c-0.4-1.7-1.1-3.3-2.5-4.5c-1.6-1.3-3.3-1.6-4.3-1.8c-3.2-0.5-5.9,0.6-8.5,1.7
			c-6.1,2.7-10.5,5.6-12.1,6.6c-4.1,2.7-6.9,4.9-10.4,7.6c-4.6,3.6-7,5.3-10,8.2c-1.8,1.7-5.4,5.2-5.5,5.4c0,0,0,0,0,0
			c0,0,0.5-0.7,1.1-1.5c-0.7,0.9-1.4,1.7-2.1,2.6l2.7,1.6c0,0,3.5-2.9,6-6.1c0.6-0.8,3.1-2.8,8.1-7c6.8-5.7,10.2-8.5,10.9-9
			c0,0,4.6-3.5,12-7.3c1.8-0.9,4.2-2.1,7.2-1.8c0.7,0.1,2.7,0.3,4.3,1.7c0.9,0.8,2.6,2.6,2.5,9c0,1.3-0.1,6.1-3.1,15.4
			c-2,5.9-4,10.1-4.4,11.1c-2.5,5.2-4.9,8.8-6.8,11.6c-2.4,3.5-4.6,6.8-8.2,10.6c-3.2,3.4-6.2,5.8-8.4,7.5c0.3,2.8,0.6,5.6,0.9,8.4
			c0,0,2.1,0,9.6-9.7c6-7.8,9.1-11.7,12-17.2c3.6-6.9,5.6-12.9,6.6-16.7c1-3.5,1.5-7.2,2.7-14.7C219.3,74.6,219.9,70.1,218.7,65.3z"
			/>
		<path fill="#895F34" d="M58.5,163.2c-7.6,1.3-12.5,13.5-12.4,13.6c0.5,0.3,0.8-0.9,1.1-1.4c0.3-0.4,0.8-1,1.4-1.7
			c1.8-2.1,2.9-3.4,4.5-4.5c1.6-1.1,3.1-1.7,4.2-2c3.9-1.4,7.6-1.3,10.2-1C65.4,164.6,62.1,162.6,58.5,163.2z"/>
		<path fill="#895F34" d="M197.6,163.2c-3.6-0.6-6.9,1.4-8.9,2.9c2.6-0.3,6.3-0.3,10.2,1c1.1,0.4,2.5,0.9,4.2,2
			c1.6,1.1,2.7,2.4,4.5,4.5c0.6,0.7,1,1.2,1.4,1.7c0.4,0.5,0.6,1.7,1.1,1.4C210.1,176.7,205.2,164.5,197.6,163.2z"/>
		<path fill="#895F34" d="M87.3,306.7c-1.4-0.8-2.5,0.8-5.5,0.9c-1.9,0-3.7-0.5-4.8-0.8c-0.3-0.1-0.6-0.2-0.9-0.3
			c-0.1-1.5-0.5-3.7-0.4-5.6c0.2-6.4,5.5-10.5,5.2-10.8c-0.3-0.3-4.1,3.2-6.5,8.7c0,0-1.6,3.8-1.2,7.3c-0.4,0-0.8,0.1-1.7,0
			c-1.7-0.1-2.4-0.3-2.6-0.4c-0.7-0.2-1.2-0.5-1.6-0.7c-1-0.6-1.1-1-1.8-1.4c-0.1-0.1-0.2-0.1-0.3-0.2c-0.1-1.1-0.3-2.3-0.3-3.4
			c0.2-5.1,4.8-8.3,4.5-8.5c-0.2-0.2-3.6,2.5-5.6,6.8c0,0-1.1,2.3-1.1,4.8c-0.2,0-0.3-0.1-0.5-0.2c-1.7-0.9-1.8-4-1.8-5.3
			c0-2.6,0.8-4.5,1.3-5.8c0.4-0.9,1.4-3,3.4-5c2.2-2,4.2-2.6,4.2-2.7c-0.1-0.2-5.7,0.8-8.9,5.1c-0.1,0.1-0.1,0.2-0.2,0.3
			c-0.6,0.2-17.8,6.3-32.2,1.8c-16.8-5.2-25.5-27-27.4-25.8c-0.3,0.2-0.2,1,0.1,2.5c0.8,4.5,2.6,8.5,5.3,12.6
			c1.4,2.1,3.1,4.8,6.1,7.7c4.6,4.4,9.1,6.5,10.3,7c1.2,0.6,5.2,2.3,10.8,2.8c5,0.5,8.5-0.2,15.1-1.5C54.1,295.6,59,292,59,292
			c-0.4,1-0.7,2.1-1,3.3c-0.7,2.5-1.1,4.4-0.6,6.7c0.1,0.2,1.1,4.4,3.1,4.7c0.7,0.1,1.3-0.3,3.1-0.2c0.5,0,0.8,0,1.1,0.1
			c1.3,0.3,1.6,1.2,2.8,2.1c1.3,0.9,2.7,1.1,4.1,1.2c1,0.1,1.8,0.1,2.5-0.4c0.4-0.3,0.5-0.6,0.8-0.6c0.5-0.1,0.9,0.6,1.4,1.1
			c0.8,0.9,1.9,1.1,3.1,1.3c1.6,0.3,2.9,0,5.2-0.7c3-0.8,3.6-0.8,3.8-1.4C88.7,308.4,88.1,307.2,87.3,306.7z"/>
		<path fill="#895F34" d="M171.2,302.9c0.6-1.2,2-4.3,1.6-8.3c-0.2-2-0.8-3.5-1.3-4.7c-0.2-0.5-0.6-1.4-1.3-2.6
			c1.3,0.4,2.8,0.4,4.9,0.3c5.2-0.3,7.9-0.5,11.3-1.8c1.9-0.7,3.5-1.3,5.1-2.8c0.7-0.6,2.8-2.4,3.8-5.5c0.9-2.6,0.6-4.9,0.4-6.6
			c-0.2-1.3-0.7-4.2-3.2-8.6c-2.2-3.9-3.3-4.3-8.5-11.2c-2.5-3.3-3.7-4.9-4.4-6.3c-2.5-4.8-2.2-8.2-3-13.2c-0.3-2.1-0.4-1.6-8-20.9
			c-1.6-4.1-3.6-9.1-5.6-11.1c-0.6-1.1-1.3-2.1-1.9-3.2l-9.8,4.5l-13.1,2.5l-0.2,0c0,0,0,0,0,0c8.5-2,7.2-1.2,11.3-2.4
			c2.6-0.8,7.4-2.4,13.1-5.4c2.7-1.4,5.8-3,9.4-5.9c2.5-2,5.2-4.1,7.8-7.6c1.8-2.3,3.9-4.3,5.6-6.7c0.5-0.7,1.3-1.9,2.8-2.3
			c1.1-0.3,2.2-0.1,3.4,0.3c1.9,0.5,3.3,1.4,4.1,1.8c3.4,2.2,4.8,4.3,5,4.1c0.4-0.3-2.8-8.2-9.5-10.7c-1.1-0.4-3.6-1.3-6.4-0.6
			c-0.4,0.1-1.6,0.5-3.4,1.8c-2.8,2-4.3,4.3-5.1,5.5c-2.8,4-5.8,6.5-8.7,9c-3.8,3.1-7.1,4.7-10,6.1c-11.4,5.3-23.9,5.9-29.2,5.9
			c0,2.5,0,5,0,7.5h0c0-2.5,0-5,0-7.5c-5.3,0-17.8-0.6-29.2-5.9c-2.8-1.3-6.2-2.9-10-6.1c-3-2.5-6-5-8.7-9c-0.8-1.1-2.3-3.4-5.1-5.5
			c-1.8-1.3-3-1.7-3.4-1.8c-2.8-0.8-5.3,0.1-6.4,0.6c-6.8,2.6-9.9,10.4-9.5,10.7c0.2,0.2,1.5-1.9,5-4.1c0.8-0.5,2.2-1.3,4.1-1.8
			c1.2-0.3,2.3-0.6,3.4-0.3c1.5,0.4,2.3,1.6,2.8,2.3c1.7,2.4,3.8,4.4,5.6,6.7c2.6,3.5,5.3,5.6,7.8,7.6c3.6,2.9,6.6,4.5,9.4,5.9
			c1,0.5,2,1,2.9,1.5c0,0-0.1,0-0.1,0c-2.6-0.1-5.3,6.8-7.4,12c-7.6,19.3-7.7,18.9-8,20.9c-0.8,5-0.5,8.4-3,13.2
			c-0.7,1.4-2,3-4.4,6.3c-5.2,6.9-6.3,7.3-8.5,11.2c-2.5,4.4-3,7.2-3.2,8.6c-0.2,1.8-0.5,4,0.4,6.6c1.1,3.1,3.1,4.9,3.8,5.5
			c1.7,1.4,3.2,2,5.1,2.8c3.5,1.3,6.1,1.5,11.3,1.8c2.6,0.2,4.3,0.1,5.9-0.7c-1.2,1.4-2.4,3.1-3.2,5c-1.3,2.7-1.5,4.8-1.5,5.3
			c-0.3,3.5,0.9,6.2,1.3,7.2c1.3,3,3.2,4.7,3.6,5.1c1.1,1,2.3,2.1,4.2,2.6c2.3,0.6,2.4-0.5,6.1-0.3c2.1,0.2,3.6,0.6,4.7-0.3
			c0.2-0.1,0.3-0.3,0.4-0.4c0.1,0.1,0.2,0.2,0.3,0.3c0.2,0.1,0.7,0.3,1.2,0.1c0.2-0.1,0.4-0.2,0.5-0.4c0.2,0.1,0.4,0.3,0.7,0.5
			c0.8,0.5,1.6,0.7,2.9,0.9c1.2,0.2,2.8,0.6,4.5,0c1.3-0.4,1.1-0.9,2.9-1.5c1.2-0.5,2.2-0.6,2.8-0.7c0.4-0.1,0.7-0.1,1-0.1
			c0.2,0.1,0.5,0.2,0.8,0c0,0,0,0,0,0c0.3,0,0.6,0,1.1-0.1c1.5-0.1,2.8-0.3,4.2-0.9c0.9-0.4,1.4-0.7,1.8-1.2
			c0.8-1.2,0.3-2.4,0.4-4.5c0.1-1.7,0.5-2.3,0.8-3.6c0,0.3,0,0.7,0,1.1c0,2.7,0,4.1-0.1,4.5c-0.3,1-0.7,2-0.2,2.9
			c0.1,0.1,0.3,0.3,1.3,0.9c0.6,0.3,1.5,0.9,2.6,1c1.3,0.2,2-0.3,2.8-0.5c0,0,0.1,0.1,0.1,0.1c0.4,0.2,0.8,0.1,1-0.1
			c0.1,0,0.1,0,0.2,0.1c0.5,0.2,0.5,0.3,1.2,0.7c1.3,0.8,2.5,1,4.7,1.3c2.5,0.4,3.8,0.5,4.9,0.3c1.3-0.3,1.9-0.8,2.8-1
			c0.1,0.1,0.2,0.1,0.3,0.2c0.5,0.2,1,0.1,1.3-0.1c0,0,0.1,0,0.1-0.1c0.6,0.2,1,0.5,1.6,0.8c2.9,1.5,6.8,1.7,9.6,0.3
			c0.6-0.3,1-0.7,2-1.4C167.5,307.6,169.7,305.9,171.2,302.9z M106.6,200.9l-1.3-0.2l-2.3-1C104.5,200.2,105.7,200.6,106.6,200.9z
			 M166,305.1c-1,0.9-2.9,2.8-5.8,3.1c-1.1,0.1-2.2-0.1-4.4-0.6c-1.2-0.3-2-0.5-2.6-0.7c-0.1-1.5-0.5-3.4-0.4-5.2
			c0.3-6.3,6.1-10.2,5.8-10.5c-0.3-0.3-4.6,3.1-7.2,8.4c0,0-1.8,3.7-1.3,7.1c-0.9,0.3-1.2,0.8-2.6,1.1c-0.3,0.1-3.5,0.7-6.4-0.9
			c-1.9-1-1.9-2-3.2-2.3c-0.1-1.7-0.4-3.8-0.3-5.8c0.2-7.5,4.8-12.2,4.5-12.6c-0.2-0.3-3.6,3.7-5.6,10.1c0,0-1.4,4.5-1,8.6
			c-0.4,0.1-0.9,0.1-1.5,0c-0.1,0-1.2-0.3-1.9-1c-1.5-1.4-0.8-3.6-0.5-9.1c0.2-4.7-0.2-4.6,0.3-6.6c1.1-4.3,3.7-6.6,3.5-6.8
			c-0.3-0.2-5.1,2.7-6,7.5c-0.1,0.7-0.2,1.3-0.1,1.9c-0.2-0.5-0.4-1-0.7-1.5c0.9-0.8,1.3-4,4.3-6.8c1.4-1.3,4.1-3.7,7-4.5
			c0.4-0.1,1.4-0.3,2-1.2c0.7-1,0.6-2.2,0.6-2.6c-0.3-4.1,1.9-6.8,1.7-17.5c0,0,0-0.1,0-0.1c-0.1-4-0.1-8.6,0.2-12.7
			c0.4-5,1.2-7.4,0.7-7.5c-0.6-0.2-2.4,3.7-2.5,4c-3.3,7.5-1.5,10.5-4,15c-1.9,3.5-6.2,7.2-10.6,6.9c-4.9-0.4-7.9-5.7-8.3-6.5
			c-2.3-4.1-1.2-6.8-4.2-14.1c-0.9-2.3-1.7-4-2.3-3.9c-1.3,0.2,0.4,7.7-0.4,20.3c0,0-1,15.3,2.4,18.6c0.3,0.2,0.5,0.4,0.5,0.4
			c0.3,0.2,0.6,0.3,1.1,0.5c-0.8-0.3-1.4-0.4-1.5-0.2c-0.2,0.3,0.7,1.4,5.4,5.2c1.7,1.6,5.1,5.2,6.5,10.5c0.2,0.7,0.8,3.4,0.4,6.8
			c-0.3,2.3-0.9,3.2-1.3,3.6c-0.8,1-2.2,1.8-3.6,1.9c0.5-4.2-1-8.8-1-8.8c-2-6.4-5.3-10.4-5.5-10.1c-0.3,0.3,4.2,5.1,4.4,12.6
			c0,1.9-0.2,3.9-0.3,5.6c-1.9-0.5-3.1,1.4-6.2,1.8c-1.2,0.2-2.1,0.1-3.6-0.1c-1.7-0.2-2.3-0.5-3.5-0.6c0-2.9-1.3-5.7-1.3-5.7
			c-2.4-5.3-6.3-8.6-6.6-8.3c-0.3,0.3,5.1,4.2,5.3,10.4c0.1,1.3-0.1,2.7-0.3,3.9c-0.4,0.1-0.8,0.2-1.3,0.4c-1.3,0.3-4.8,1.3-7.1,0.8
			c-3.6-0.7-6-5.1-6.8-8.4c-1.2-4.9,1.1-9.4,2.9-13c1.8-3.6,3.4-5.1,3.1-5.4c-0.1-0.1-0.3-0.1-0.5,0c0.1-0.3,0.1-0.5,0.1-0.8
			c-0.1-0.4-0.3-0.8-0.6-1c0,0,0,0,0,0c-0.1-0.1-0.2-0.2-0.3-0.3c-0.2-0.1-0.4-0.2-0.4-0.3c-1.8-1.1-4.5-8.3-8.3-29.8
			c-0.2-7.5-0.5-9.2-0.8-9.2c-0.7,0-0.8,14.4,0.1,26.6c0,0,0.5,7.1,3.9,13.2c-1.3,0.2-2.8,0.3-4.4,0.3c-2.9,0-5.7,0.1-9-1.3
			c-1.9-0.8-4.2-1.8-5.5-4c-2.1-3.5-0.4-7.9,0.8-11.2c0.7-1.8,1.2-2.8,5.5-9.5c5.1-8,5.3-8.2,6-9.6c2.3-5,0.8-6.2,2.4-13.5
			c1.7-7.9,5-14.2,8.4-20.5c2-3.8,3-5.7,3.4-6.3c0,0,0-0.1,0.1-0.1c2.6,1.4,6,3,10.1,4.5c19.2,6.6,36.2,2.6,42.9,0.6
			c3.3-1,7.7-2.5,12.7-5.2c0.3,0.6,0.6,1.3,1.1,1.8c0.4,0.5,1.4,2.4,3.4,6.3c3.3,6.3,6.7,12.6,8.4,20.5c1.6,7.3,0.1,8.4,2.4,13.5
			c0.6,1.4,0.9,1.6,6,9.6c4.3,6.7,4.9,7.8,5.5,9.5c1.2,3.3,2.9,7.7,0.8,11.2c-1.3,2.2-3.5,3.2-5.5,4c-3.2,1.4-6.1,1.3-9,1.3
			c-2.7,0-5-0.4-6.6-0.6c4.9-6.5,5.5-15.8,5.5-15.8c0.8-12.2,0.7-26.6,0.1-26.6c-0.2,0-0.5,1.7-0.8,9.2c-3.9,21.5-6.5,28.7-8.3,29.8
			c-0.2,0.1-1.2,0.7-1.3,1.6c0,0.2,0,0.4,0,0.6c-0.4-0.3-0.7-0.4-0.8-0.3c-0.3,0.3,1.6,2.4,4.2,7.2c2.4,4.4,2.9,6.6,3.1,7.7
			c0.3,1.7,0.6,3.5,0.1,5.7C168.7,302.5,166.8,304.4,166,305.1z"/>
		<path fill="#895F34" d="M198.4,289.5c-1.8-2.8-4.5-4.6-4.7-4.4c-0.3,0.3,3.1,3.4,4.9,9c0.6,2,1,4.2,0.2,6.3
			c-0.3,0.8-0.8,2.1-1.9,2.4c-0.7,0.2-1.4-0.1-2.1-0.4c-0.2-2.3-1.2-4.2-1.2-4.2c-2.3-4.8-6-7.8-6.3-7.5c-0.3,0.3,4.8,3.8,5,9.4
			c0,0.9-0.1,1.8-0.1,2.7c0,0.2-0.1,0.4-0.2,0.7c-0.6,1.5-1.8,2.2-2.1,2.5c-0.4,0.3-1.6,0.9-3.1,0.9c-1.1,0-1.9-0.5-2.6-0.9
			c0.1-3.3-1.2-6.5-1.2-6.5c-2.3-5.5-6-9-6.3-8.7c-0.3,0.3,4.8,4.4,5,10.9c0,1.2-0.1,2.5-0.2,3.7c-0.5,0.3-0.6,1-1.8,1.8
			c-0.9,0.6-1.7,0.8-2.1,0.9c-0.4,0.1-3.8,1-4.9-0.3c-1.5-1.8,3-5.7,2-11.5c-0.4-2.1-1.3-3.8-1.5-3.7c-0.2,0,0.8,2.1,0.6,4.9
			c-0.2,3.4-2.1,6.1-2.4,6.5c-1.8,2.5-4,3.5-3.6,4.9c0.1,0.4,0.3,0.6,0.7,0.9c1.6,1.5,3.9,1.5,5.2,1.6c1.5,0.1,4.2,0.2,6.4-1.2
			c0.3-0.2,0.8-0.6,1.5-0.8c0.1,0.1,0.1,0.2,0.2,0.2c0.2,0.1,0.7,0.3,1.1,0.1c0.1,0,0.2-0.1,0.2-0.1c0.3,0.1,0.6,0.3,1.1,0.5
			c1.5,0.5,2.9,0.4,3.5,0.3c0.7-0.1,1.7-0.2,2.7-0.9c0.3-0.2,1-0.6,1.4-1.4c0.3-0.5,0.4-0.8,0.4-1.1c0,0,0.1,0.1,0.1,0.1
			c0.2,0.1,0.7,0.2,1.1,0.1c0.4-0.2,0.6-0.5,0.8-0.8c0.3,0,0.6,0,0.9-0.1c0.8-0.1,1.4-0.4,2-0.7c0.1-0.1,1.8-0.9,2.7-2
			c1.4-1.6,1.1-3.8,0.7-6.6C200.5,294.8,200.2,292.2,198.4,289.5z"/>
		<linearGradient id="SVGID_3_" gradientUnits="userSpaceOnUse" x1="99.1915" y1="138.0927" x2="99.1915" y2="96.9546">
			<stop  offset="0" style="stop-color:#997243;stop-opacity:0"/>
			<stop  offset="4.064524e-02" style="stop-color:#987142;stop-opacity:4.064524e-02"/>
			<stop  offset="0.5527" style="stop-color:#8B6338;stop-opacity:0.5527"/>
			<stop  offset="1" style="stop-color:#875E34"/>
		</linearGradient>
		<path fill="url(#SVGID_3_)" d="M81.9,145c5.1,5.1,14.8,4.4,21.1,1.6c17.1-7.6,22-36.7,12.9-44.5c-5.5-4.7-15.7-1.5-21.2,1.5
			C79.4,112.3,73.3,136.3,81.9,145z"/>
		
			<linearGradient id="SVGID_4_" gradientUnits="userSpaceOnUse" x1="4044.2813" y1="138.0927" x2="4044.2813" y2="96.9546" gradientTransform="matrix(-1 0 0 1 4201.2285 0)">
			<stop  offset="0" style="stop-color:#997243;stop-opacity:0"/>
			<stop  offset="4.064524e-02" style="stop-color:#987142;stop-opacity:4.064524e-02"/>
			<stop  offset="0.5527" style="stop-color:#8B6338;stop-opacity:0.5527"/>
			<stop  offset="1" style="stop-color:#875E34"/>
		</linearGradient>
		<path fill="url(#SVGID_4_)" d="M153.1,146.6c6.3,2.8,16,3.5,21.1-1.6c8.7-8.7,2.6-32.7-12.8-41.4c-5.5-3.1-15.7-6.2-21.2-1.5
			C131.1,109.9,136,139,153.1,146.6z"/>
	</g>
</g>
<g>
	<defs>
		<ellipse id="SVGID_5_" cx="127.9" cy="139.4" rx="124.2" ry="122.5"/>
	</defs>
	<clipPath id="SVGID_6_">
		<use xlink:href="#SVGID_5_"  overflow="visible"/>
	</clipPath>
	<path clip-path="url(#SVGID_6_)" fill="#373633" d="M128.1,134.1c0,0-17.4,2.5-23.7,15.3c-5.2,10.7-3.3,15.5-1.8,17.6
		c2.5,3.3,6.2,4.5,10.5,5.4c3.5,0.8,15.1-0.2,15-1.2C128,170.5,128.1,134.1,128.1,134.1z"/>
	<path clip-path="url(#SVGID_6_)" fill="#373633" d="M128.1,134.1c0,0,17.4,2.5,23.7,15.3c5.2,10.7,3.3,15.5,1.8,17.6
		c-2.5,3.3-6.2,4.5-10.5,5.4c-3.5,0.8-15.1-0.2-15-1.2C128.2,170.5,128.1,134.1,128.1,134.1z"/>
	<path clip-path="url(#SVGID_6_)" fill="#373633" d="M90.1,209.4c2.3-1.1,5.8,0.8,7.7,3.1c1.7,2.1,1.8,4.4,1.8,5.3
		c0,0.7,0.2,4.5-2.3,6.6c-1,0.9-2.3,1.2-4.3,1.8c-1.8,0.6-2.1,0.4-3.2,0.9c-1.4,0.6-2.2,1.4-3.6,2.8c-0.8,0.8-1.9,1.9-3,3.6
		c-1.5,2.2-1.7,3.6-2.2,3.6c-0.5-0.1-0.7-2.2-0.7-4c0-1.8,0.3-5.1,3.1-11.1c1.8-3.8,1.9-3.1,3.6-6.8
		C88.7,211.4,88.7,210.1,90.1,209.4z"/>
	<path clip-path="url(#SVGID_6_)" fill="#373633" d="M84.7,248.2c0,0,4.2-1.9,6.1-1c2,0.9,2.6,2.7,3.7,5.8c0.7,2,1.6,4.7,0.4,5.9
		c-0.6,0.6-1.6,0.7-2.3,0.6c-1.9-0.4-2.1-2.7-3.9-3c-1.2-0.2-2.6,0.5-2.6,0.5L84.7,248.2z"/>
	<path clip-path="url(#SVGID_6_)" fill="#373633" d="M92.4,276c0.4-1.2,3.2-1.9,5.4-1.1c2.2,0.8,2.9,2.9,3,3.1c1,2.7-0.9,5.1-1,5.3
		c-1.3,1.6-2.4,0.9-5.1,2.9c-1,0.8-0.9,0.9-3.8,3.4c-1.9,1.6-2.5,2.1-3.3,1.9c-1-0.2-1.8-1.2-1.8-2.1c0-0.7,0.6-1.1,1.3-1.7
		c2-1.8,1.5-2.5,3.4-4.5c2.2-2.2,3.5-2,3.7-3.2C94.5,278.4,92,277.3,92.4,276z"/>
	<path clip-path="url(#SVGID_6_)" fill="#373633" d="M164.8,210.5c-4.2,0.3-6.3,0.4-7.6,1.6c-2.5,2.5-2.2,7.5-0.3,8.9
		c1.2,0.9,2.6,0.2,5,1.6c0.9,0.6,0.7,0.7,1.8,1.3c1,0.6,3.4,0.8,4.4,2c0.6,0.8,0,1.2,0.6,2.2c1,1.8,3.2,1.1,4.3,2.5
		c1.6,2-0.9,5.2,0.6,6.5c0.8,0.7,2.7,0.5,3.5-0.4c0.9-1,0.3-2.7-1.5-8.4c-2.1-6.5-0.3-1.2-2.5-8c-2.4-7.4-3-9-4.7-9.7
		C167.8,210.3,166.8,210.3,164.8,210.5z"/>
	<path clip-path="url(#SVGID_6_)" fill="#373633" d="M172.6,243.3c-1.2-1.7-5.5-1.5-8.2,0.5c-3.9,2.9-4.3,9.5-2.1,11.4
		c1.2,1,2.5,0.2,4.2,1.5c2.2,1.7,2.1,4.7,2.8,4.7c0.3,0,0.7-0.6,1.6-5.7c0.6-3,0.5-3.3,0.9-5.7C172.7,244.8,173.2,244.1,172.6,243.3
		z"/>
	<path clip-path="url(#SVGID_6_)" fill="#373633" d="M163.6,277.4c-0.3-1.5-5.9-3.2-10-0.9c-4,2.2-5.8,7.9-4.2,9.9
		c1.6,1.9,5.1-1,9.9,1.2c2.7,1.2,2.6,2.6,6.1,4.2c2.4,1.1,6.1,2.2,6.9,1c0.5-0.7-0.3-1.9-1.7-4.3c-1.9-3.2-2.8-4.7-4.5-6.2
		c-1.5-1.3-3.1-2.1-3-3.5C163.2,278,163.6,277.8,163.6,277.4z"/>
	<path clip-path="url(#SVGID_6_)" fill="#373633" d="M62.1,287.9c0,1.1,0.9,2.4,2,2.8c2,0.7,3.1-1.8,6.3-2.2
		c3.9-0.6,6.1,2.5,7.6,1.4c1.2-0.9,1.1-3.7-0.1-4.6c-0.7-0.5-1.2,0-2.7-0.1c-3-0.2-3.8-2.2-6.3-2c-0.6,0.1-1,0.2-1.9,0.6
		C65.6,284.4,62.2,285.8,62.1,287.9z"/>
	<path clip-path="url(#SVGID_6_)" fill="#373633" d="M178.9,287c-0.2,0.9,1.2,2.2,2.5,2.7c1.5,0.6,2.3,0,5.5-0.4
		c2.7-0.3,3.1,0,6.1-0.4c2.1-0.3,4-0.5,4.1-1.2c0.1-0.6-1.5-0.8-4.5-2.6c-2-1.2-2.4-1.8-3.6-1.9c-1.2,0-1.7,0.6-3.1,1.3
		C182.1,286.7,179.2,285.8,178.9,287z"/>
	<path clip-path="url(#SVGID_6_)" fill="#373633" d="M124.5,283.6c-1,0-1.9,1-2.3,2c-0.2,0.4-0.3,1.3,1.9,5.7
		c1.4,2.7,1.9,3.3,2.7,3.6c0.8,0.3,2.1,0.6,2.7-0.1c0.3-0.3,0.5-1.1-1.4-5.6C125.8,283.8,124.9,283.6,124.5,283.6z"/>
	<path clip-path="url(#SVGID_6_)" fill="#373633" d="M102.1,83.9c0.8,0,4.1,0.1,5,1.9c0.4,0.8,0.2,1.7,0,2.5
		c-0.1,0.3-0.9,3.6-3.1,4.2c-1.8,0.5-2.4-1.2-4.8-1.2c-1.2,0-2.5,0.9-5.1,2.5c-2.8,1.8-2.8,2.1-4.4,2.9c-2.1,1.1-5.6,2.2-6.2,1.3
		c-1-1.5,6.8-8.1,7.3-8.5C97.5,84,101,83.8,102.1,83.9z"/>
	<path clip-path="url(#SVGID_6_)" fill="#373633" d="M112.7,263.6c0,0,0.1-7.4,0.1-12.4c0-6.7-0.1-6.2,0-7.1
		c0.7-6.9,6.7-16.9,15-17.1c8.9-0.2,15.5,10.7,15.9,18.2c0.1,1.4-0.2,1.3-0.3,6c0,1.4-0.2,6,0.1,13.2c0.2,6.2,0.5,10.1-1.4,11.8
		c-0.3,0.3-2.5,2.1-2.5,2.1l0,0c-2.1,1.3-3,0.8-4.6,1.9c-0.5,0.3-0.9,0.7-2.8,3.6c-1.7,2.6-2.2,2.5-2.7,4.2
		c-0.3,0.9-0.3,1.6-0.5,1.7c-0.4,0.1-0.7-1.5-1.8-3.4c-1.2-2.1-2.6-3.4-3.2-3.9c-1.9-1.7-4.1-2.6-4.7-2.8c-1.6-0.6-2.8-0.9-3.9-2.1
		c-0.4-0.5-0.7-1-0.9-1.5C112.6,271.3,112.7,263.6,112.7,263.6z"/>
	<path clip-path="url(#SVGID_6_)" fill="#373633" d="M69.2,148.1c0.7-1.7,2.9-2.9,4.7-2.6c2.3,0.4,3.3,3.2,4.6,6.8
		c0.9,2.6,1.6,4.4,0.9,6.6c-0.2,0.5-0.9,2.5-2.9,3.6c-2.8,1.5-6,0.2-6.3,0.1c-1.1-0.5-1.5-1-2.8-1.2c-1.3-0.2-2.4,0.1-3.1,0.3
		c-0.2,0.1-2.2,0.8-4-0.3c-1.8-1.2-2.3-3.9-1.3-5.3c0.3-0.5,0.8-0.8,4-1.6c4.5-1.1,5.8-0.9,6.3-1.9C70.1,151.2,68.4,150,69.2,148.1z
		"/>
	<path clip-path="url(#SVGID_6_)" fill="#373633" d="M193.9,153.9c-3.3-1.4-5.3-2.3-7.1-1.4c-1.6,0.8-1.2,2-3.2,3.6
		c-2.4,1.8-4.2,1.3-4.5,2.5c-0.4,1.7,3.4,4,3.9,4.3c0.6,0.4,1.5,0.9,2.8,1.2c1.3,0.2,2.3,0.1,3.6-0.1c5-0.8,4.7-0.3,6-0.8
		c2-0.8,5.1-2.8,4.9-4.9C200,156.5,197.8,155.6,193.9,153.9z"/>
	<path clip-path="url(#SVGID_6_)" fill="#373633" d="M19.8,252c-1.3-0.2-3.2,3.2-3.6,6.3c-0.5,3.8,1.2,7.9,4.1,9.9
		c2.1,1.5,4.4,2,4.4,2c1.1,0.3,3.6,0.8,4.8,2c0.2,0.2,0.4,0.5,0.4,0.5c0.9,1,0.9,1.6,1.3,2c1,1.1,3.8,0.6,3.9,0.1
		c0.1-0.4-1.1-0.5-2.7-1.5c-1.4-0.8-2.3-1.8-5.1-5.7c-2.1-3-3.2-4.5-3.6-5.3C20.4,256.6,21.2,252.2,19.8,252z"/>
	<path clip-path="url(#SVGID_6_)" fill="#373633" d="M46.8,279.9c-0.5,0.7,0.3,2.3,1.2,3.2c1.8,1.8,5.2,2.2,7.3,0.6
		c1.6-1.2,2.4-3.5,1.9-3.9c-0.2-0.2-0.6,0.3-1.4,0.6c-1.7,0.6-2.7-0.3-6.1-0.7C47.3,279.4,46.9,279.8,46.8,279.9z"/>
	<path clip-path="url(#SVGID_6_)" fill="#373633" d="M67.8,134.8c-1.7-1.3-3.5-2.8-5.4-4.6c-3.1-3-5.5-5.9-7.3-8.5
		c-3.9-4.6-8.3-11-11.9-19.3c-3.7-8.6-5-15.6-5.6-19.4c-0.3-2-0.5-5.8-0.7-13.4c-0.1-1.7-0.1-4.8,1.7-7.7c1.2-1.9,2.4-2.5,2.8-2.7
		c1.5-0.7,3-0.5,4.4-0.2c8.6,1.7,12.5,3.8,12.5,3.8c5.3,3.4,9.6,6.6,12.9,9c3.4,2.5,5.9,4.6,7.7,6c4.6,3.7,8.4,7,11.3,9.6
		c0.5,0.6,0.9,1.2,1.4,1.8c-2.7,2.6-5.4,5.1-8.1,7.7c-1.6-2.8-4.1-6.6-7.5-11C70.6,79,66.4,75.3,58,68c-4.4-3.8-8.1-6.7-12.9-6.5
		c-1.3,0.1-2.6,0.1-3.7,0.9c-5,3.7-0.2,18.1,2.2,25.2c0,0,4.8,14.4,15,27.9c1.5,2,4.2,5.5,8.5,9.1c0.9,0.8,1.7,1.3,2.2,1.7
		C68.8,129.2,68.3,132,67.8,134.8z"/>
	<path clip-path="url(#SVGID_6_)" fill="#373633" d="M188.4,134.8c1.7-1.3,3.5-2.8,5.4-4.6c3.1-3,5.5-5.9,7.3-8.5
		c3.9-4.6,8.3-11,11.9-19.3c3.7-8.6,5-15.6,5.6-19.4c0.3-2,0.5-5.8,0.7-13.4c0.1-1.7,0.1-4.8-1.7-7.7c-1.2-1.9-2.4-2.5-2.8-2.7
		c-1.5-0.7-3-0.5-4.4-0.2c-8.6,1.7-12.5,3.8-12.5,3.8c-5.3,3.4-9.6,6.6-12.9,9c-3.4,2.5-5.9,4.6-7.7,6c-4.6,3.7-8.4,7-11.3,9.6
		c-0.5,0.6-0.9,1.2-1.4,1.8c2.7,2.6,5.4,5.1,8.1,7.7c1.6-2.8,4.1-6.6,7.5-11c5.4-7,9.6-10.6,17.9-17.9c4.4-3.8,8.1-6.7,12.9-6.5
		c1.3,0.1,2.6,0.1,3.7,0.9c5,3.7,0.2,18.1-2.2,25.2c0,0-4.8,14.4-15,27.9c-1.5,2-4.2,5.5-8.5,9.1c-0.9,0.8-1.7,1.3-2.2,1.7
		C187.4,129.2,187.9,132,188.4,134.8z"/>
</g>
<g>
	<defs>
		<ellipse id="SVGID_7_" cx="127.9" cy="139.4" rx="124.2" ry="122.5"/>
	</defs>
	<clipPath id="SVGID_8_">
		<use xlink:href="#SVGID_7_"  overflow="visible"/>
	</clipPath>
	<path clip-path="url(#SVGID_8_)" fill="#272625" d="M113.1,172.5c3.5,0.8,14.6-0.1,15-1.1c0-0.1,0-0.2,0-0.3c0-0.5,0-1.6,0-3.1
		c-2.9,1.2-8.5,2.9-14.7,1.2c-2.5-0.6-5.5-1.4-7.3-4.1c-2.9-4.1-1.1-10-0.3-12.5c0.3-0.8,0.9-2.7,2.2-4.9c2.5-4.2,5.8-6.6,7.7-7.8
		c2.3-1.5,5.3-3.1,8.9-4.3c1.2-0.4,2.4-0.7,3.5-1c0-0.3,0-0.4,0-0.4c0,0-17.4,2.5-23.7,15.3c-5.2,10.7-3.3,15.5-1.8,17.6
		C105.1,170.3,108.8,171.5,113.1,172.5z"/>
	<path clip-path="url(#SVGID_8_)" fill="#272625" d="M128,134.1c0,0,0,0.2,0,0.4c1.1,0.3,2.3,0.6,3.5,1c3.6,1.2,6.5,2.8,8.9,4.3
		c2,1.3,5.2,3.7,7.7,7.8c1.3,2.2,2,4.1,2.2,4.9c0.8,2.5,2.6,8.3-0.3,12.5c-1.8,2.7-4.8,3.5-7.3,4.1c-6.3,1.6-11.8-0.1-14.7-1.2
		c0,1.5,0,2.7,0,3.1c0,0.1,0,0.2,0,0.3c0.4,1,11.5,1.9,15,1.1c4.3-1,8-2.1,10.5-5.4c1.5-2.1,3.5-6.9-1.8-17.6
		C145.5,136.7,128,134.1,128,134.1z"/>
	<path clip-path="url(#SVGID_8_)" fill="#272625" d="M112.5,258.2c0.3,4.6-0.1,5,0.3,8.7c0.2,1.3,0.4,2.9,0.8,4.5
		c0.4,3.1,1.2,5.2,1.4,5.4c0.3,0.2,0.5,0.4,0.5,0.4c0,0,0,0,0,0c0.6,0.4,1.1,0.4,3.1,1.6c2.2,1.4,5.2,3.2,7,6.3
		c1.6,2.6,1.4,4.3,2.2,4.4c1.3,0.1,1.3-3.7,4.8-6.9c1.4-1.3,4.1-3.7,7-4.5c0.4-0.1,1.4-0.3,2-1.2c0.4-0.6,0.3-1.1,0.6-2.6
		c0-0.1,0.2-1.2,0.5-2.3c0.6-2.4,1.3-3.1,0.9-3.9c-0.1-0.2-0.4-0.6-0.4-1.2c0-0.3,0.1-0.6,0.1-0.7c0.3-1,0.3-1.9,0.2-3
		c0-0.7-0.1-1.2-0.2-1.4c-0.6-3.2,1.3-8,0.4-8.5c-0.6-0.3-2.4,1.1-3.8,3.1c-4,5.5-1.1,9.8-4.5,15.3c-0.5,0.7-3.2,5.2-7.3,5.4
		c-3.8,0.2-7.1-3.6-8.7-6.3c-3-5.3-1.6-10.9-5.2-15.8c-0.3-0.5-1.2-1.7-1.8-1.5C112,253.8,112.3,255.3,112.5,258.2z"/>
</g>
<g id="form_2_">
	<defs>
		<ellipse id="SVGID_9_" cx="127.9" cy="139.4" rx="124.2" ry="122.5"/>
	</defs>
	<clipPath id="SVGID_10_">
		<use xlink:href="#SVGID_9_"  overflow="visible"/>
	</clipPath>
	
		<path display="none" clip-path="url(#SVGID_10_)" fill="none" stroke="#231815" stroke-width="2.0434" stroke-linecap="round" stroke-linejoin="round" d="
		M117.5,81.9c-7.7,0.3-17.9,2.5-27.4,10.7c-0.3,0.3-0.6,0.5-0.8,0.7c-11.9,10.7-18.5,26.5-19.6,30c-1,3.4-0.7,17.1-6.7,25.7
		c-1.7,2.3-6.2,15.4,2.5,28.6c2.3,3.5,12.5,16,22.9,21.3c7.8,4,19.2,9.5,38.3,9.5c16,0,29.7-2.5,48.3-13.4
		c5.8-3.4,11.8-10.4,16.7-17.4c5.1-7.2,6.6-22.5,1.6-29.1c-3.2-4.3-6.1-22.6-7.9-27.7c-4.5-12.8-8.8-20.5-17.3-27.5
		c-11.8-9.7-25.5-11.2-32-11.9C128.4,80.6,121.9,81.2,117.5,81.9z"/>
	
		<path clip-path="url(#SVGID_10_)" fill="none" stroke="#231815" stroke-width="1.954" stroke-linecap="round" stroke-linejoin="round" d="
		M96.6,197.1c-8.5,12.1-12.5,22.6-14.6,30.1c-3,10.5-1.5,14-6.1,19.8C66.1,259,62.9,262.4,62,270.3c-1.1,9.5,7.5,13.1,7.5,13.1
		s-8.7,0.9-11.3,11.1c-1.1,4.3-1.1,12.4,6.3,11.8c0.8-0.1,4.2,5.4,10.8,2.6c1.7-0.7,1.4,4.5,14.1,0.2c1.3-0.4,4.8,3.8,16-0.1
		c0.9-0.3,5.3,4.5,15.4-1.1c0.5-0.3,4.1,0.5,7.9-2.1c0.9-0.6,3,3.7,8.6,1.8c1.2-0.4,3.5,5.3,14.8,1.2c1.7-0.6,2.7,4.6,15.9-0.1
		c2-0.7,3.6,4.9,13.2,0.4c1.3-0.6,8.1,3.3,11.2-2.5c0.7-1.4,7.9,0.2,8.1-7.5c0.2-6.2-1.5-14.4-11.7-15.7c-1.7-0.2,8.4-2.6,7.1-14.2
		c-0.4-3.9-6.9-13.5-13.7-21.4c-5.3-6.1-3-9.2-6.8-21.2c-2.4-7.6-6.6-18.2-14.4-30.4"/>
	<g clip-path="url(#SVGID_10_)">
		<path fill="#231815" d="M83.8,236.8c0.4,3.7,0.8,7.5,1.4,11.1c0.6,3.7,1.3,7.4,2.1,11c0.8,3.6,1.8,7.2,3.1,10.7
			c1.2,3.5,2.7,6.9,4.6,10c0.3,0.4,0.2,1-0.2,1.3l0,0c-3.2,2.4-6.1,5.5-8,9c-1,1.8-1.6,3.7-1.9,5.6c-0.2,2,0,4,0.7,5.8
			c0.7,1.9,1.8,3.6,3.1,5.2c0.7,0.8,1.4,1.5,2.1,2.2c0.7,0.6,1.5,1.1,2.5,1.4c1.9,0.6,4,0.6,6.1,0.4c2.1-0.3,4.1-0.7,6.1-1.4
			c-1.9,0.9-3.9,1.5-6,1.9c-2.1,0.4-4.3,0.6-6.4,0.1c-1.1-0.3-2.1-0.8-3-1.5c-0.8-0.7-1.6-1.4-2.3-2.3c-1.5-1.6-2.7-3.4-3.5-5.5
			c-0.8-2.1-1.2-4.3-1-6.6c0.2-2.2,0.9-4.4,1.9-6.3c1-2,2.3-3.7,3.8-5.3c1.5-1.6,3-3.1,4.8-4.4l-0.3,1.3c-2-3.3-3.5-6.8-4.7-10.4
			c-1.2-3.6-2.1-7.3-2.8-11c-0.7-3.7-1.2-7.4-1.5-11.2C83.9,244.3,83.7,240.6,83.8,236.8z"/>
	</g>
	<g clip-path="url(#SVGID_10_)">
		<path fill="#231815" d="M173.1,235.3c0.1,3.8-0.2,7.5-0.4,11.3c-0.3,3.7-0.8,7.5-1.5,11.2c-0.7,3.7-1.6,7.4-2.8,11
			c-1.2,3.6-2.7,7.1-4.7,10.4l-0.2-1.3c1.7,1.4,3.1,3,4.5,4.6c1.4,1.7,2.6,3.4,3.6,5.4c1,1.9,1.7,4,2,6.2c0.3,2.2,0.2,4.5-0.6,6.6
			c-0.7,2.1-1.9,4-3.4,5.6c-0.7,0.8-1.5,1.5-2.3,2.2c-0.8,0.7-1.7,1.4-2.8,1.8c-2,0.9-4.3,1-6.4,0.7c-2.1-0.3-4.2-1-6-2
			c1.9,0.8,4,1.3,6.1,1.4c2.1,0.1,4.1-0.2,5.9-1.1c0.9-0.4,1.6-1.1,2.4-1.8c0.8-0.7,1.5-1.4,2.1-2.2c1.3-1.5,2.3-3.3,2.9-5.2
			c0.6-1.9,0.7-3.9,0.4-5.8c-0.3-2-1-3.8-2-5.6c-1.9-3.6-4.6-6.8-7.7-9.4l0,0c-0.4-0.3-0.4-0.9-0.2-1.3c1.9-3.1,3.4-6.5,4.6-10
			c1.3-3.5,2.2-7.1,3.1-10.7c0.8-3.6,1.5-7.3,2.1-11C172.3,242.8,172.8,239.1,173.1,235.3z"/>
	</g>
	<g clip-path="url(#SVGID_10_)">
		<path fill="#231815" d="M113,236.8l0.1,10.6c0,3.5,0.1,7.1,0.2,10.6c0.1,1.8,0.3,3.4,0.5,5.2l0.6,5.3c0.2,1.7,0.4,3.5,0.7,5.2
			c0.1,0.8,0.3,1.8,0.5,2.4c0,0,0.1,0.1-0.1-0.1c-0.1,0,0,0,0.1,0.1l0.6,0.3c0.4,0.2,0.8,0.4,1.2,0.5c3.3,1.5,6.4,3.8,8.6,6.8
			c2.2,3,3.6,6.5,4.1,10.1c0.5,3.6,0.4,7.2-0.2,10.8c-0.2,1-0.9,1.8-1.7,2.4c-0.8,0.6-1.7,0.9-2.5,1.1c-0.9,0.2-1.8,0.3-2.7,0.3
			c-0.4,0-0.9,0-1.3-0.1c-0.4-0.1-0.9-0.1-1.3-0.4c0.4,0.3,0.8,0.2,1.3,0.3c0.4,0,0.9,0,1.3-0.1c0.9-0.1,1.7-0.3,2.5-0.5
			c1.6-0.5,3.2-1.6,3.4-3.2c0.4-3.4,0.3-7-0.3-10.4c-0.7-3.4-2-6.6-4.1-9.3c-2.1-2.7-4.8-4.7-8-6.2l-1.2-0.5l-0.6-0.3
			c-0.1-0.1-0.2-0.1-0.5-0.3c-0.4-0.4-0.4-0.6-0.5-0.7c-0.2-0.6-0.3-1-0.3-1.4c-0.1-0.5-0.2-0.9-0.2-1.3c-0.3-1.8-0.5-3.5-0.6-5.3
			l-0.5-5.3c-0.1-0.9-0.2-1.7-0.2-2.7c-0.1-0.9-0.1-1.8-0.1-2.7C111.8,250.9,112.4,243.9,113,236.8z"/>
	</g>
	<g clip-path="url(#SVGID_10_)">
		<path fill="#231815" d="M145.1,234.9c-0.7,5.2-1.2,10.4-0.9,15.6c0,0.6,0.1,1.3,0.2,1.9c0.1,0.7,0.1,1.3,0.1,2
			c0.1,1.3,0.1,2.7,0.1,4c0,2.6-0.1,5.3-0.3,7.9c-0.2,2.6-0.5,5.3-0.9,7.9c-0.1,0.7-0.2,1.3-0.4,2c-0.1,0.3-0.2,0.7-0.3,1
			c-0.1,0.2-0.1,0.4-0.3,0.6c-0.1,0.1-0.1,0.2-0.3,0.4c-0.1,0.1-0.4,0.4-0.9,0.4c-0.9,0-2.1,0.5-3.2,1.1c-2.1,1.3-4,3-5.6,5
			c-0.8,1-1.5,2-2.1,3.1c-0.5,1.1-0.9,2.3-0.7,3.3l0,0.1l0.8,5.5l0,0c0,0,0,0,0,0.1c-0.2,3-0.4,6-0.7,9c-0.1-3-0.1-6-0.2-9l0,0.1
			l-1.1-5.4l0,0.1c-0.4-1.6,0-3,0.6-4.3c0.6-1.3,1.3-2.4,2.1-3.5c1.7-2.1,3.6-4,6-5.5c1.2-0.7,2.5-1.4,4.2-1.4
			c-0.4,0-0.5,0.2-0.5,0.2c0,0,0,0,0,0c0-0.1,0.1-0.2,0.1-0.3c0.1-0.3,0.2-0.6,0.2-0.8c0.1-0.6,0.3-1.2,0.4-1.9
			c0.4-2.5,0.7-5.1,0.9-7.7c0.2-2.6,0.4-5.2,0.5-7.8c0-1.3,0.1-2.6,0.1-3.9c0-0.6,0-1.3-0.1-1.9c0-0.7-0.1-1.3-0.1-2
			c0-2.7,0.2-5.3,0.6-7.9C143.9,240,144.4,237.4,145.1,234.9z"/>
	</g>
	<g clip-path="url(#SVGID_10_)">
		<path fill="#231815" d="M119.2,307.7c0,0-0.1,0.1-0.1,0.1C119.1,307.8,119.1,307.7,119.2,307.7c-0.1,0.1,0-0.1,0-0.1
			c0.1-0.2,0.1-0.4,0.1-0.6c0.1-0.5,0.1-0.9,0.2-1.4c0.1-1,0.1-2,0.1-3c0-2-0.2-4-0.4-6c-0.3-2-0.7-4-1.3-5.8
			c-0.3-0.9-0.7-1.9-1.3-2.7c-0.5-0.8-1.2-1.6-2.1-2.1c0.9,0.4,1.7,1.2,2.3,2c0.6,0.8,1.1,1.7,1.5,2.7c0.8,1.9,1.4,3.9,1.8,5.9
			c0.4,2,0.7,4,0.9,6.1c0.1,1,0.1,2.1,0.1,3.1c0,0.5,0,1.1-0.1,1.6c0,0.3-0.1,0.6-0.1,0.9c-0.1,0.2-0.1,0.3-0.1,0.5
			c0,0.1-0.1,0.2-0.1,0.3c-0.1,0.1-0.2,0.3-0.3,0.4c-0.4,0.3-1,0.3-1.4-0.2C118.7,308.6,118.7,308,119.2,307.7z"/>
	</g>
	<g clip-path="url(#SVGID_10_)">
		<path fill="#231815" d="M104.1,308.8c-0.1,0.1-0.1,0.3-0.1,0.3c0,0,0,0,0-0.1C104,308.9,104.1,308.9,104.1,308.8
			c-0.1-0.2-0.1-0.4-0.1-0.6c0-0.4,0-0.8,0-1.2c0-0.8-0.1-1.6-0.2-2.4c-0.2-1.6-0.5-3.2-0.8-4.8c-0.4-1.6-0.8-3.1-1.5-4.6
			c-0.7-1.4-1.6-2.9-3-3.7c1.5,0.7,2.6,2.1,3.4,3.5c0.8,1.4,1.5,3,2,4.6c0.5,1.6,1,3.2,1.3,4.8c0.2,0.8,0.3,1.6,0.5,2.5
			c0.1,0.4,0.1,0.8,0.2,1.3c0,0.2,0,0.4,0.1,0.7c0,0.1,0,0.2,0,0.4c0,0.2,0.1,0.2-0.2,0.8c-0.3,0.4-0.9,0.5-1.4,0.2
			C103.9,309.9,103.8,309.3,104.1,308.8z"/>
	</g>
	<g clip-path="url(#SVGID_10_)">
		<path fill="#231815" d="M181.3,308.9c-0.2,0.3-0.1,0.2-0.1,0.1c0-0.1,0-0.2,0-0.3c0-0.2,0-0.4,0-0.6c0-0.4,0-0.8,0-1.2
			c0-0.8-0.1-1.7-0.2-2.5c-0.2-1.7-0.4-3.4-0.7-5c-0.3-1.7-0.8-3.3-1.4-4.9c-0.6-1.5-1.4-3.2-2.9-4.1c1.6,0.8,2.5,2.4,3.3,3.9
			c0.8,1.6,1.4,3.2,1.9,4.8c0.5,1.7,0.9,3.3,1.2,5c0.2,0.9,0.3,1.7,0.4,2.6c0.1,0.4,0.1,0.9,0.2,1.3c0,0.2,0,0.5,0,0.7
			c0,0.1,0,0.3,0,0.4c0,0.2,0.1,0.2-0.2,0.8c-0.3,0.5-0.9,0.6-1.3,0.3C181.2,309.9,181,309.3,181.3,308.9z"/>
	</g>
	<g clip-path="url(#SVGID_10_)">
		<path fill="#231815" d="M190.9,307C190.9,307,190.9,307,190.9,307l0.1-0.2c0.1-0.2,0.1-0.3,0.1-0.5c0.1-0.4,0.2-0.7,0.2-1.1
			c0.1-0.8,0.2-1.5,0.3-2.3c0.1-1.5,0.1-3.1-0.2-4.6c-0.3-1.5-0.8-3-1.6-4.3c-0.8-1.3-2-2.4-3.4-3.2c1.4,0.7,2.7,1.7,3.8,2.9
			c1,1.3,1.7,2.8,2.1,4.4c0.5,1.6,0.7,3.2,0.7,4.8c0,0.8,0,1.6,0,2.5c0,0.4-0.1,0.8-0.1,1.2c0,0.2-0.1,0.4-0.1,0.6l-0.1,0.3
			c0,0.1-0.1,0.4-0.2,0.5c0,0.1-0.1,0.1-0.2,0.1c0,0,0,0,0,0L190.9,307z"/>
	</g>
	<g clip-path="url(#SVGID_10_)">
		<path fill="#231815" d="M151.6,308.9c-0.1-1.8,0.1-3.4,0.3-5.1c0.2-1.7,0.6-3.3,1.2-4.9c0.6-1.6,1.3-3.1,2.3-4.4
			c1-1.3,2.2-2.5,3.6-3.4c-1.3,1-2.4,2.2-3.2,3.6c-0.8,1.4-1.4,2.9-1.8,4.4c-0.4,1.6-0.6,3.1-0.7,4.7c-0.1,1.6,0,3.2,0.2,4.7l0,0
			c0.1,0.5-0.3,1-0.8,1.1C152.2,309.9,151.7,309.5,151.6,308.9C151.6,308.9,151.6,308.9,151.6,308.9z"/>
	</g>
	<g clip-path="url(#SVGID_10_)">
		<path fill="#231815" d="M136.8,307.7c-0.1-2-0.1-4,0.1-6c0.1-2,0.4-4,0.8-5.9c0.4-2,1-3.9,1.9-5.7c0.9-1.8,2.3-3.4,4.1-4.2
			c-1.8,1-2.9,2.6-3.7,4.4c-0.8,1.8-1.2,3.7-1.4,5.6c-0.3,1.9-0.3,3.9-0.3,5.8c0,1.9,0.2,3.9,0.4,5.8l0,0c0.1,0.5-0.3,1-0.8,1.1
			C137.4,308.6,136.9,308.3,136.8,307.7C136.8,307.7,136.8,307.7,136.8,307.7z"/>
	</g>
	<g clip-path="url(#SVGID_10_)">
		<path fill="#231815" d="M74.8,308.9c-0.1-1.8,0-3.6,0.1-5.3c0.2-1.8,0.5-3.5,0.9-5.2c0.5-1.7,1.1-3.4,2.1-4.9
			c1-1.5,2.3-2.7,3.9-3.4c-1.5,0.9-2.7,2.2-3.5,3.7c-0.8,1.5-1.3,3.2-1.6,4.8c-0.3,1.7-0.4,3.4-0.4,5.1c0,1.7,0.1,3.4,0.3,5.1l0,0
			c0.1,0.5-0.3,1-0.8,1.1S74.8,309.5,74.8,308.9C74.8,308.9,74.8,308.9,74.8,308.9z"/>
	</g>
	<g clip-path="url(#SVGID_10_)">
		<path fill="#231815" d="M64.4,307.1c-0.2-1.6-0.3-3.1-0.3-4.7c0.1-1.5,0.2-3.1,0.7-4.6c0.4-1.5,1.1-2.9,2-4.2
			c1-1.2,2.2-2.1,3.6-2.8c-1.3,0.8-2.4,1.8-3.2,3c-0.7,1.3-1.2,2.7-1.4,4.1c-0.2,1.4-0.3,2.9-0.2,4.3c0.1,1.4,0.3,2.9,0.7,4.3l0,0
			c0.1,0.5-0.2,1.1-0.7,1.2c-0.5,0.1-1.1-0.2-1.2-0.7C64.4,307.2,64.4,307.2,64.4,307.1z"/>
	</g>
	
		<path clip-path="url(#SVGID_10_)" fill="none" stroke="#231815" stroke-width="1.954" stroke-linecap="round" stroke-linejoin="round" d="
		M68.9,283.2c0,0,9.5,4.5,19.8,2"/>
	
		<path clip-path="url(#SVGID_10_)" fill="none" stroke="#231815" stroke-width="1.954" stroke-linecap="round" stroke-linejoin="round" d="
		M189.1,283.3c0,0-10.9,5.7-19.8,2.7"/>
	
		<path clip-path="url(#SVGID_10_)" fill="#1B110F" stroke="#231815" stroke-width="0.977" stroke-linecap="round" stroke-linejoin="round" d="
		M143.4,301.9c-0.5,1.9,0.9,4.1,1.8,4.2c1.6,0.1,3.2-5.8,1.9-6.7C146.2,298.9,143.9,299.9,143.4,301.9z"/>
	
		<path clip-path="url(#SVGID_10_)" fill="#1B110F" stroke="#231815" stroke-width="0.977" stroke-linecap="round" stroke-linejoin="round" d="
		M131.8,300.1c-0.3,1.3,0.6,2.7,1.3,2.8c1,0.1,2.1-3.8,1.2-4.4C133.7,298.2,132.1,298.8,131.8,300.1z"/>
	
		<path clip-path="url(#SVGID_10_)" fill="#1B110F" stroke="#231815" stroke-width="0.977" stroke-linecap="round" stroke-linejoin="round" d="
		M114,302.2c0.2,1.8-1.2,3.7-2.1,3.7c-1.4-0.1-2.3-5.7-1-6.3C111.7,299.1,113.7,300.3,114,302.2z"/>
	
		<path clip-path="url(#SVGID_10_)" fill="#1B110F" stroke="#231815" stroke-width="0.977" stroke-linecap="round" stroke-linejoin="round" d="
		M126.5,299.8c0.4,1.7-1,3.8-1.9,3.9c-1.5,0.2-2.8-5.2-1.5-6C123.9,297.2,126.1,298,126.5,299.8z"/>
	
		<path clip-path="url(#SVGID_10_)" fill="#1B110F" stroke="#231815" stroke-width="0.977" stroke-linecap="round" stroke-linejoin="round" d="
		M98.7,303.7c0.2,1.6-1.1,3.2-1.9,3.2c-1.3,0-2-4.9-0.8-5.5C96.6,301.1,98.4,302.1,98.7,303.7z"/>
	
		<path clip-path="url(#SVGID_10_)" fill="#1B110F" stroke="#231815" stroke-width="0.977" stroke-linecap="round" stroke-linejoin="round" d="
		M77.9,302.4c0-1.5,1.5-2.8,2.2-2.7c1.2,0.2,1.1,4.9,0,5.2C79.4,305.1,77.9,303.9,77.9,302.4z"/>
	
		<path clip-path="url(#SVGID_10_)" fill="#1B110F" stroke="#231815" stroke-width="0.977" stroke-linecap="round" stroke-linejoin="round" d="
		M67.6,300.5c0-1.5,1.5-2.8,2.1-2.6c1.1,0.2,1.1,4.8,0,5.2C69.1,303.2,67.6,302,67.6,300.5z"/>
	
		<path clip-path="url(#SVGID_10_)" fill="#1B110F" stroke="#231815" stroke-width="0.977" stroke-linecap="round" stroke-linejoin="round" d="
		M60.2,298.6c0.1-1.4,1.5-2.6,2.2-2.5c1.1,0.2,1,4.4-0.1,4.8C61.6,301.1,60.1,300,60.2,298.6z"/>
	
		<path clip-path="url(#SVGID_10_)" fill="#1B110F" stroke="#231815" stroke-width="0.977" stroke-linecap="round" stroke-linejoin="round" d="
		M158.2,302.6c-0.4,1.9,1.3,4.2,2.3,4.3c1.7,0.2,3.1-5.6,1.6-6.6C161.1,299.8,158.6,300.6,158.2,302.6z"/>
	
		<path clip-path="url(#SVGID_10_)" fill="#1B110F" stroke="#231815" stroke-width="0.977" stroke-linecap="round" stroke-linejoin="round" d="
		M177.8,303.4c-0.3-1.3-2-2.2-2.7-2c-1.1,0.4-0.2,4.4,1,4.5C176.8,306.1,178.1,304.8,177.8,303.4z"/>
	
		<path clip-path="url(#SVGID_10_)" fill="#1B110F" stroke="#231815" stroke-width="0.977" stroke-linecap="round" stroke-linejoin="round" d="
		M188.8,302c-0.3-1.5-2-2.5-2.7-2.2c-1.1,0.4-0.2,5,1,5.1C187.8,305,189.1,303.5,188.8,302z"/>
	
		<path clip-path="url(#SVGID_10_)" fill="#1B110F" stroke="#231815" stroke-width="0.977" stroke-linecap="round" stroke-linejoin="round" d="
		M197.7,299c-0.3-1.2-1.9-2-2.5-1.8c-1,0.3-0.2,4,1,4.1C196.8,301.4,198,300.3,197.7,299z"/>
	
		<path clip-path="url(#SVGID_10_)" fill="none" stroke="#231815" stroke-width="1.7515" stroke-linecap="round" stroke-linejoin="round" d="
		M91.9,89.1C73.2,72.3,49.7,54,40.6,60.2c-5.7,3.9-3.7,16.1-2.4,24c4.1,24.6,19.6,41.8,29.8,50.9"/>
	<g clip-path="url(#SVGID_10_)">
		<path fill="#231815" d="M75.9,105.3c-2-3.5-4.1-7-6.4-10.4c-2.3-3.4-4.6-6.7-7.2-9.9c-2.6-3.2-5.2-6.3-8.1-9.1
			c-2.9-2.8-6-5.5-9.5-7.7c3.5,2.1,6.8,4.6,9.8,7.4c3,2.8,5.8,5.8,8.5,8.8c2.7,3.1,5.2,6.3,7.6,9.6c2.4,3.3,4.7,6.7,6.9,10.2
			c0.3,0.5,0.1,1.1-0.3,1.4S76.2,105.8,75.9,105.3C75.9,105.3,75.9,105.3,75.9,105.3L75.9,105.3z"/>
	</g>
	
		<path clip-path="url(#SVGID_10_)" fill="none" stroke="#231815" stroke-width="1.7515" stroke-linecap="round" stroke-linejoin="round" d="
		M164.2,89.1c18.7-16.8,42.3-35.1,51.3-28.9c5.7,3.9,3.7,16.1,2.4,24c-4.1,24.6-19.6,41.8-29.8,50.9"/>
	<g clip-path="url(#SVGID_10_)">
		<path fill="#231815" d="M178.5,104.3c2.2-3.5,4.5-6.9,6.9-10.2c2.4-3.3,5-6.5,7.6-9.6c2.7-3.1,5.5-6.1,8.5-8.8
			c3-2.7,6.3-5.3,9.8-7.4c-3.4,2.2-6.5,4.9-9.5,7.7c-2.9,2.9-5.6,6-8.1,9.1c-2.5,3.2-4.9,6.5-7.2,9.9c-2.3,3.4-4.4,6.8-6.4,10.4l0,0
			c-0.3,0.5-0.9,0.7-1.4,0.4C178.3,105.4,178.2,104.8,178.5,104.3C178.5,104.3,178.5,104.3,178.5,104.3z"/>
	</g>
	
		<path clip-path="url(#SVGID_10_)" fill="none" stroke="#231815" stroke-width="1.7515" stroke-linecap="round" stroke-linejoin="round" d="
		M64.3,278.9c-3.8,0.8-19.6,3.8-31.6-5.6c-9.4-7.4-12.4-18.8-14.1-25.4c-3.2-12.3-1.6-22.5-3.4-22.7c-1.5-0.1-3.6,7.4-4.2,10
		c-0.6,2.6-0.9,4.8-1.1,6.4c-0.5-0.3-1.2-0.7-1.9-1.3c-1.4-1.4-1.8-3.1-1.9-3.8c-1.2,2-4.4,8.3-3.4,16.6c0.9,7,4.4,11.7,6,13.6
		c1.6,1.8,1.8,2.4,1.6,2.6c-0.1,0.1-0.4,0.4-5.4-2.2c-3.5-1.8-3.9-2.2-4.1-2c-1.7,1.3,3.3,20.4,19,29c11.8,6.5,26.8,5.5,39-2.1
		c0.6-1.5,2.5-5.2,6.7-7.3c1.4-0.7,2.7-1,3.8-1.2c-0.7-0.2-2.3-0.7-3.6-2.2C65,280.4,64.6,279.5,64.3,278.9z"/>
	<path clip-path="url(#SVGID_10_)" fill="none" stroke="#231815" stroke-width="2.0434" stroke-miterlimit="10" d="M128.4,78.2
		c-5.9-0.3-19.1,0-32.5,8c-3.1,1.8-9.8,6.3-15.9,14.5c-1.3,1.8-7.4,10.1-10.3,22.9c-2.8,12.4-1.2,22.9,0.2,28.9
		c-2.1,0.2-5.7,0.7-9.5,2.8c-3.8,2.1-6,4.7-7.2,6.1c-4.4,5.3-5.7,11.1-6.2,14.3c0.9-1.4,3.1-4.8,7.5-7c3.9-1.9,7.4-2,9.1-1.9
		c-1,0.4-2.6,1.3-4.1,2.9c-1.2,1.3-1.8,2.6-2.2,3.5c-0.6,1.2-1.3,3.3-1.5,6.1c6.2-6.2,10.1-6.8,12.6-6.2c3.9,1,4.8,5.1,9.6,10.7
		c4,4.7,8,7.1,13.6,10.5c14,8.5,30.2,9.7,36.7,9.9"/>
	<path clip-path="url(#SVGID_10_)" fill="none" stroke="#231815" stroke-width="2.0434" stroke-miterlimit="10" d="M128.2,78.2
		c5.9-0.2,19,0,32.2,8c3,1.8,9.8,6.3,15.9,14.5c1.3,1.8,7.4,10.1,10.3,22.9c2.8,12.4,1.2,22.9-0.2,28.9c2.1,0.2,5.7,0.7,9.5,2.8
		c3.8,2.1,6,4.7,7.2,6.1c4.4,5.3,5.7,11.1,6.2,14.3c-0.9-1.4-3.1-4.8-7.5-7c-3.9-1.9-7.4-2-9.1-1.9c1,0.4,2.6,1.3,4.1,2.9
		c1.2,1.3,1.8,2.6,2.2,3.5c0.6,1.2,1.3,3.3,1.5,6.1c-6.2-6.2-10.1-6.8-12.6-6.2c-3.9,1-4.8,5.1-9.6,10.7c-4.1,4.7-8,7.1-13.6,10.5
		c-13.9,8.5-29.9,9.7-36.5,9.9"/>
</g>
<g>
	<circle fill="#F9F8F7" cx="94.2" cy="133.8" r="13.2"/>
	<circle fill="#53291D" cx="95.4" cy="135.4" r="10.8"/>
	<circle fill="#220B05" stroke="#000000" stroke-width="0.977" cx="96.4" cy="135.5" r="6.8"/>
	<circle fill="#040000" cx="95.8" cy="135.5" r="4.1"/>
	<circle fill="#B29D84" cx="99.9" cy="140.3" r="2.7"/>
	<circle fill="#FFFFFF" cx="88" cy="132.8" r="4.8"/>
	<path fill="#251F18" d="M108.6,98.1c-4.3-2.1-9.9,0.7-11.8,4.2c-0.4,0.7-0.6,1.1-0.4,1.5c1.1,2.6,14.7,0.9,15.3-2.4
		C112,99.8,108.9,98.2,108.6,98.1z"/>
	<circle fill="#F9F8F7" cx="162" cy="133.8" r="13.2"/>
	<circle fill="#53291D" cx="160.8" cy="135.4" r="10.8"/>
	<circle fill="#220B05" stroke="#000000" stroke-width="0.977" cx="159.8" cy="135.5" r="6.8"/>
	<circle fill="#040000" cx="160.4" cy="135.5" r="4.1"/>
	<circle fill="#B29D84" cx="156.2" cy="140.3" r="2.7"/>
	<circle fill="#FFFFFF" cx="168.2" cy="132.8" r="4.8"/>
	<path fill="#251F18" d="M147.5,98.1c4.3-2.1,9.9,0.7,11.8,4.2c0.4,0.7,0.6,1.1,0.4,1.5c-1.1,2.6-14.7,0.9-15.3-2.4
		C144.2,99.8,147.2,98.2,147.5,98.1z"/>
	<g>
		<path d="M82.8,123.3c1-1.6,2.4-3,4-4.1c1.6-1.1,3.4-2,5.3-2.3c1-0.2,2-0.1,2.9-0.1c1,0.2,1.9,0.4,2.8,0.8c0.9,0.3,1.7,0.9,2.5,1.4
			c0.4,0.3,0.7,0.6,1.1,0.9c0.3,0.3,0.7,0.7,1,1c-0.8-0.5-1.5-1.1-2.4-1.5c-0.8-0.4-1.6-0.9-2.5-1.1l-0.6-0.2
			c-0.2-0.1-0.4-0.1-0.7-0.2l-1.3-0.2c-0.9,0-1.8-0.1-2.7,0.1c-1.8,0.3-3.5,1-5,2C85.6,120.8,84.1,122,82.8,123.3z"/>
	</g>
	<path fill="none" stroke="#000000" stroke-width="1.4655" d="M107.7,134.1c0,7.5-6.1,13.6-13.6,13.6c-5.9,0-10.9-3.8-12.8-9
		c-0.5-1.4-0.8-3-0.8-4.6c0-7.5,6.1-13.6,13.6-13.6c4.7,0,8.8,2.4,11.3,6C106.8,128.7,107.7,131.3,107.7,134.1z"/>
	<g>
		<path d="M105,125.9c-2.5-2.1-5.5-3.7-8.6-4.1c-3.1-0.4-6.1,0.7-8.7,2.5c-2.6,1.7-4.7,4.2-5.6,7.2c-0.9,3-0.7,6.4,0.3,9.5
			c-1.7-2.8-2.5-6.4-1.8-9.9c0.3-1.7,1.1-3.4,2.1-4.8c1-1.4,2.4-2.6,3.8-3.6c1.4-1,3-1.8,4.8-2.2c1.7-0.4,3.6-0.5,5.3-0.1
			C100.1,121.1,103,123.2,105,125.9z"/>
	</g>
	<g>
		<path d="M81.2,137.7c-0.5-0.2-0.9-0.4-1.4-0.6c-0.4-0.2-0.8-0.5-1.1-0.8c-0.7-0.6-1.2-1.4-1.5-2.1c0.6,0.6,1.3,1.1,2,1.3
			c0.4,0.1,0.7,0.2,1.1,0.3c0.4,0,0.8,0.1,1.1,0L81.2,137.7z"/>
	</g>
	<g>
		<path d="M173.4,123.3c-1.3-1.3-2.8-2.5-4.4-3.5c-1.6-0.9-3.3-1.7-5-2c-0.9-0.2-1.8-0.1-2.7-0.1l-1.3,0.2c-0.2,0-0.4,0.1-0.7,0.2
			l-0.6,0.2c-0.9,0.2-1.7,0.7-2.5,1.1c-0.8,0.4-1.5,1-2.4,1.5c0.3-0.3,0.7-0.7,1-1c0.4-0.3,0.7-0.7,1.1-0.9c0.8-0.5,1.6-1.1,2.5-1.4
			c0.9-0.5,1.8-0.6,2.8-0.8c1-0.1,2-0.1,2.9,0.1c1.9,0.3,3.8,1.2,5.3,2.3C171,120.3,172.3,121.7,173.4,123.3z"/>
	</g>
	<path fill="none" stroke="#000000" stroke-width="1.4655" d="M148.4,134.1c0,7.5,6.1,13.6,13.6,13.6c5.9,0,10.9-3.8,12.8-9
		c0.5-1.4,0.8-3,0.8-4.6c0-7.5-6.1-13.6-13.6-13.6c-4.7,0-8.8,2.4-11.3,6C149.3,128.7,148.4,131.3,148.4,134.1z"/>
	<g>
		<path d="M151.2,125.9c1.9-2.7,4.9-4.8,8.4-5.6c1.7-0.4,3.6-0.3,5.3,0.1c1.7,0.5,3.3,1.3,4.8,2.2c1.4,1,2.8,2.2,3.8,3.6
			c1,1.4,1.8,3.1,2.1,4.8c0.7,3.5,0,7-1.8,9.9c1-3.2,1.2-6.5,0.3-9.5c-0.9-3-2.9-5.5-5.6-7.2c-2.6-1.8-5.6-2.9-8.7-2.5
			C156.7,122.2,153.7,123.8,151.2,125.9z"/>
	</g>
	<g>
		<path d="M174.7,135.7c0.3,0,0.7,0,1.1,0c0.4,0,0.7-0.1,1.1-0.3c0.7-0.2,1.4-0.7,2-1.3c-0.3,0.8-0.8,1.5-1.5,2.1
			c-0.3,0.3-0.7,0.6-1.1,0.8c-0.4,0.2-0.8,0.4-1.4,0.6L174.7,135.7z"/>
	</g>
	<path fill="#AF1E23" d="M116.2,173.5l1.5,2.8c0,0,1.6,4.6,1.9,5.3s3.1,3.9,3.6,4.3s2.6,1.2,2.7,1.2c0.1,0,2.7,0.1,2.7,0.1l2.3-0.4
		l3-1.6l2.3-3.4l2-5l1.5-2.4l-2.7-0.5l-6-0.8l-3.2-0.6l-1.4,0.4l-10.8,1.1l0.2,0.4"/>
	<path fill="#7B1C1D" d="M116.3,173.9c-0.3,0.6,1,1.5,2,2c2.5,1.2,4.5,0.3,9.6,0.2c5.8-0.1,8,1,10.2-0.3c1.2-0.7,1.9-1.9,1.5-2.4
		c-0.5-0.6-2.1,0.3-4.9,0c-2.5-0.2-3.3-1.1-6-1c-0.8,0-1.3,0.1-2,0.2C120.4,173.6,116.8,173,116.3,173.9z"/>
	<path fill="#22170E" d="M126.9,136.7l-7.5,2.5l-5,4.5l-0.2,4.6l1.8,3.9l4.3,4.1c0,0,4.4,2.4,6,2.4c1.6,0,7.5-0.5,10.2-3
		c2.7-2.6,4.8-5.5,5.1-7.2c0.3-1.7,0.2-4,0-4.5c-0.2-0.5-4.1-4.3-5.1-4.8c-1-0.5-5.8-2.6-6.6-2.5S126.9,136.7,126.9,136.7z"/>
	<polygon fill="#181111" points="108.8,173.1 110.3,174.8 116.2,176.3 117.3,176.7 117.3,175.7 116,174 109.6,173.5 	"/>
	<polygon fill="#181111" points="147.3,173.1 145.9,174.8 139.9,176.3 138.9,176.7 138.9,175.7 140.1,174 146.5,173.5 	"/>
	<path fill="none" stroke="#000000" stroke-width="0.977" d="M106.8,172.3c0,0,2,2.8,10.9,4.4"/>
	<g>
		<path fill="#040000" d="M93.2,156.1c0.1,1.2-0.4,2.3-1.2,3.3c-0.8,0.9-1.8,1.6-2.9,2c-1.1,0.4-2.3,0.6-3.4,0.6
			c-0.6,0-1.1-0.1-1.7-0.2c-0.5-0.2-1.1-0.3-1.6-0.5c0.6-0.2,1.1-0.3,1.6-0.4c0.5-0.1,1-0.3,1.5-0.4c1-0.3,2-0.5,2.9-0.9
			c0.9-0.3,1.8-0.8,2.6-1.3C91.8,157.7,92.6,157,93.2,156.1z"/>
	</g>
	<circle fill="#020202" cx="116.7" cy="164.3" r="0.7"/>
	<circle fill="#020202" cx="118.8" cy="167" r="0.7"/>
	<circle fill="#020202" cx="122.6" cy="165.9" r="0.7"/>
	<circle fill="#020202" cx="120.7" cy="163.4" r="0.7"/>
	<circle fill="#020202" cx="112.4" cy="165.1" r="0.7"/>
	<circle fill="#020202" cx="124.1" cy="162.4" r="0.7"/>
	<path fill="none" stroke="#000000" stroke-width="0.977" d="M116.1,174.2c0,0,2,2.5,2.7,5c1.3,4.9,5.5,8.6,9.3,7.9"/>
	<path fill="none" stroke="#000000" stroke-width="0.977" d="M140,174.2c0,0-2,2.5-2.7,5c-1.3,4.9-5.5,8.6-9.3,7.9"/>
	<path fill="none" stroke="#000000" stroke-width="0.977" d="M128.1,136.7c0,0-7.9,0-13.1,6.3c-3.1,3.8,1.3,14.9,13.1,15.7"/>
	<path fill="none" stroke="#000000" stroke-width="0.977" d="M128.1,136.7c0,0,7.9,0,13.1,6.3c3.1,3.8-1.3,14.9-13.1,15.7"/>
	<path fill="none" stroke="#000000" stroke-width="0.977" d="M149.3,172.3c0,0-2,2.8-10.9,4.4"/>
	<path fill="none" stroke="#040000" stroke-width="1.4655" d="M166.6,160.1c0,0-12.3,19.2-38.5,12.2v-13.1"/>
	<path fill="none" stroke="#040000" stroke-width="1.4655" d="M89.6,160.1c0,0,12.3,19.2,38.5,12.2v-13.1"/>
	<g>
		<path fill="#040000" d="M162.9,156.1c0.7,0.9,1.4,1.6,2.2,2.2c0.8,0.6,1.6,1,2.6,1.3c0.9,0.4,1.9,0.6,2.9,0.9
			c0.5,0.1,1,0.2,1.5,0.4c0.5,0.1,1.1,0.2,1.6,0.4c-0.5,0.2-1.1,0.4-1.6,0.5c-0.6,0.1-1.1,0.2-1.7,0.2c-1.1,0-2.3-0.1-3.4-0.6
			c-1.1-0.4-2.1-1.1-2.9-2C163.3,158.5,162.8,157.3,162.9,156.1z"/>
	</g>
	<circle fill="#020202" cx="139.5" cy="164.3" r="0.7"/>
	<circle fill="#020202" cx="137.4" cy="167" r="0.7"/>
	<circle fill="#020202" cx="133.5" cy="165.9" r="0.7"/>
	<circle fill="#020202" cx="135.5" cy="163.4" r="0.7"/>
	<circle fill="#020202" cx="143.7" cy="165.1" r="0.7"/>
	<circle fill="#020202" cx="132" cy="162.4" r="0.7"/>
	<ellipse fill="#FFFFFF" cx="128" cy="139.7" rx="4.7" ry="3"/>
	<path fill="#060404" d="M119.2,149.9c1.7-0.7,5.2,2.8,4.7,4.2c-0.5,1.1-4.2,1.9-5.5-0.2C117.6,152.5,118.1,150.4,119.2,149.9z"/>
	<path fill="#060404" d="M136.9,149.9c-1.7-0.7-5.2,2.8-4.7,4.2c0.5,1.1,4.2,1.9,5.5-0.2C138.6,152.5,138,150.4,136.9,149.9z"/>
</g>
</svg>
