<?xml version="1.0" encoding="utf-8"?>
<!-- Generator: Adobe Illustrator 21.0.0, SVG Export Plug-In . SVG Version: 6.00 Build 0)  -->
<svg version="1.1" id="图层_1" xmlns="http://www.w3.org/2000/svg" xmlns:xlink="http://www.w3.org/1999/xlink" x="0px" y="0px"
	 viewBox="0 0 350 350" enable-background="new 0 0 350 350" xml:space="preserve">
<defs>
	<circle id="SVGID_1_" cx="175" cy="175" r="130"/>
</defs>
<clipPath id="SVGID_2_">
	<use xlink:href="#SVGID_1_"  overflow="visible"/>
</clipPath>
<title>kitty-love-1</title>
<g clip-path="url(#SVGID_2_)">
	<circle fill="#DBD8D7" cx="175" cy="175" r="130"/>
	<g>
		<defs>
			<circle id="SVGID_3_" cx="175" cy="175" r="130"/>
		</defs>
		<clipPath id="SVGID_4_">
			<use xlink:href="#SVGID_3_"  overflow="visible"/>
		</clipPath>
		<g clip-path="url(#SVGID_4_)">
			<g>
				<defs>
					<path id="SVGID_5_" d="M423.7,254.8c0,0-0.6,4.7-4.7,13.2c-5.5-17.2-15.9-34.4-29.4-44.7c-0.3-0.2-0.8-0.6-1.5-1
						c-25.2-15.7-58.3-8-74,17.2c-1.6,2.6-3,5.2-4.1,8c-0.5,1.2-1.2,2.8-1.2,2.8c7.1-5.6,16.8-9,16.8-9s-3.5,4.8-6.1,8.3
						c-8.2,11-13.6,26.1-9.5,40c1.3,4.4,4.6,8.6,8.8,12.4c-21.2,3.4-36.2,25-36.2,25l-20.3,23.9l29.6,6.2l16.8,0.6
						c9,2.7,20.5,4.6,34.8,4.6c42.3,0,72.1-27.8,78.4-57.6c0.5-2.3,1-4.7,1.5-7C425.7,289,429.7,267.5,423.7,254.8L423.7,254.8z"/>
				</defs>
				<defs>
					<path id="SVGID_6_" d="M311.4,352.7c-7.5-5.1-23.1-10.8-31.4-13.2l-0.1-0.1c3.3-8.7,3.7-18.3,1.1-27.2l-32.8-106.6
						c3.1-6.1,10.7-19.4,19.8-22c0,0-15.5-9.9-21.7,2.5c0,0,3.8-11.5,9-11.3c0,0-9.4-2.4-16.4,0.3l-9.4-30.6
						c-1.6-5.7-4.4-11-8.2-15.6l12.8-20.7c-3-1.5-21.1,6-26.3,10.1c-1.6-0.8-7.6-2.8-9.4-3.4c4.1-13.4-3.1-22.3-3.1-22.3
						c0.7,4.5-1.4,9-5.3,11.4c6.6-15.2-24.2-30.4-24.2-30.4c1.5,6.5-0.9,13.3-6.1,17.5c-10.2,8.7-6.1,16.2-6.1,16.2
						s-5.9-1.6-5.5-7.3c-5.3,6.3-2.5,11.8,0.2,15.7c-3.4,1.4-6.8,3.1-10,4.9l-0.5-0.9c-7.8-6.4-21.8-8.6-23.7-5.9l11.3,20.1
						c-3,5-5,10.6-5.8,16.4l-5.5,29.2c-7.6-2-16.6,3.2-16.6,3.2c5-1.6,11.7,8.5,11.7,8.5c-9.3-10.3-21.6,3.3-21.6,3.3
						c9.5,0.1,17.2,11.8,20.4,17.3L87.7,318.4c-0.9,6.9-0.2,14,2.2,20.5l-0.1,0c-6.7,1.6-22.8,7.6-32.2,13.7c-4.6,3-1.8,9.8,4,9.6
						l46.6-0.9c0.8,0.5,1.6,0.9,2.4,1.4v0.6c0.1,4.1-1.2,7.4-5.2,7.6c-2.7,0.1-4.9,1.7-5.3,3.7c-0.8,3.8,1,6.8,4.8,7.1l14.7,0.9
						c4.6,0.3,9-2,11.4-6c0.8-1.3,1.3-2.7,1.5-4.2l0.9-4.6h93.2l0.6,3.6c0.7,4.2,3.6,7.8,7.5,9.5c1.2,0.5,2.6,0.7,3.9,0.7l16-0.5
						c3.8-0.4,5.3-2.7,4.9-6.5c-0.1-1.2-1.1-4.3-4.3-4.5c-2.8-0.1-4.4-1.5-4.9-3.8c4-1.1,7.9-2.7,11.4-4.9l45.6,0.9
						C313.2,362.4,316,355.8,311.4,352.7L311.4,352.7z"/>
				</defs>
				<defs>
					<path id="SVGID_7_" d="M311.4,352.7c-7.5-5.1-23.1-10.8-31.4-13.2l-0.1-0.1c3.3-8.7,3.7-18.3,1.1-27.2l-32.8-106.6
						c3.1-6.1,10.7-19.4,19.8-22c0,0-15.5-9.9-21.7,2.5c0,0,3.8-11.5,9-11.3c0,0-9.4-2.4-16.4,0.3l-9.4-30.6
						c-1.6-5.7-4.4-11-8.2-15.6l12.8-20.7c-3-1.5-21.1,6-26.3,10.1c-1.6-0.8-7.6-2.8-9.4-3.4c4.1-13.4-3.1-22.3-3.1-22.3
						c0.7,4.5-1.4,9-5.3,11.4c6.6-15.2-24.2-30.4-24.2-30.4c1.5,6.5-0.9,13.3-6.1,17.5c-10.2,8.7-6.1,16.2-6.1,16.2
						s-5.9-1.6-5.5-7.3c-5.3,6.3-2.5,11.8,0.2,15.7c-3.4,1.4-6.8,3.1-10,4.9l-0.5-0.9c-7.8-6.4-21.8-8.6-23.7-5.9l11.3,20.1
						c-3,5-5,10.6-5.8,16.4l-5.5,29.2c-7.6-2-16.6,3.2-16.6,3.2c5-1.6,11.7,8.5,11.7,8.5c-9.3-10.3-21.6,3.3-21.6,3.3
						c9.5,0.1,17.2,11.8,20.4,17.3L87.7,318.4c-0.9,6.9-0.2,14,2.2,20.5l-0.1,0c-6.7,1.6-22.8,7.6-32.2,13.7c-4.6,3-1.8,9.8,4,9.6
						l46.6-0.9c0.8,0.5,1.6,0.9,2.4,1.4v0.6c0.1,4.1-1.2,7.4-5.2,7.6c-2.7,0.1-4.9,1.7-5.3,3.7c-0.8,3.8,1,6.8,4.8,7.1l14.7,0.9
						c4.6,0.3,9-2,11.4-6c0.8-1.3,1.3-2.7,1.5-4.2l0.9-4.6h93.2l0.6,3.6c0.7,4.2,3.6,7.8,7.5,9.5c1.2,0.5,2.6,0.7,3.9,0.7l16-0.5
						c3.8-0.4,5.3-2.7,4.9-6.5c-0.1-1.2-1.1-4.3-4.3-4.5c-2.8-0.1-4.4-1.5-4.9-3.8c4-1.1,7.9-2.7,11.4-4.9l45.6,0.9
						C313.2,362.4,316,355.8,311.4,352.7L311.4,352.7z"/>
				</defs>
				<defs>
					<path id="SVGID_8_" d="M311.4,352.7c-7.5-5.1-23.1-10.8-31.4-13.2l-0.1-0.1c3.3-8.7,3.7-18.3,1.1-27.2l-32.8-106.6
						c3.1-6.1,10.7-19.4,19.8-22c0,0-15.5-9.9-21.7,2.5c0,0,3.8-11.5,9-11.3c0,0-9.4-2.4-16.4,0.3l-9.4-30.6
						c-1.6-5.7-4.4-11-8.2-15.6l12.8-20.7c-3-1.5-21.1,6-26.3,10.1c-1.6-0.8-7.6-2.8-9.4-3.4c4.1-13.4-3.1-22.3-3.1-22.3
						c0.7,4.5-1.4,9-5.3,11.4c6.6-15.2-24.2-30.4-24.2-30.4c1.5,6.5-0.9,13.3-6.1,17.5c-10.2,8.7-6.1,16.2-6.1,16.2
						s-5.9-1.6-5.5-7.3c-5.3,6.3-2.5,11.8,0.2,15.7c-3.4,1.4-6.8,3.1-10,4.9l-0.5-0.9c-7.8-6.4-21.8-8.6-23.7-5.9l11.3,20.1
						c-3,5-5,10.6-5.8,16.4l-5.5,29.2c-7.6-2-16.6,3.2-16.6,3.2c5-1.6,11.7,8.5,11.7,8.5c-9.3-10.3-21.6,3.3-21.6,3.3
						c9.5,0.1,17.2,11.8,20.4,17.3L87.7,318.4c-0.9,6.9-0.2,14,2.2,20.5l-0.1,0c-6.7,1.6-22.8,7.6-32.2,13.7c-4.6,3-1.8,9.8,4,9.6
						l46.6-0.9c0.8,0.5,1.6,0.9,2.4,1.4v0.6c0.1,4.1-1.2,7.4-5.2,7.6c-2.7,0.1-4.9,1.7-5.3,3.7c-0.8,3.8,1,6.8,4.8,7.1l14.7,0.9
						c4.6,0.3,9-2,11.4-6c0.8-1.3,1.3-2.7,1.5-4.2l0.9-4.6h93.2l0.6,3.6c0.7,4.2,3.6,7.8,7.5,9.5c1.2,0.5,2.6,0.7,3.9,0.7l16-0.5
						c3.8-0.4,5.3-2.7,4.9-6.5c-0.1-1.2-1.1-4.3-4.3-4.5c-2.8-0.1-4.4-1.5-4.9-3.8c4-1.1,7.9-2.7,11.4-4.9l45.6,0.9
						C313.2,362.4,316,355.8,311.4,352.7L311.4,352.7z"/>
				</defs>
				<clipPath id="SVGID_9_">
					<use xlink:href="#SVGID_5_"  overflow="visible"/>
				</clipPath>
				<clipPath id="SVGID_10_" clip-path="url(#SVGID_9_)">
					<use xlink:href="#SVGID_6_"  overflow="visible"/>
				</clipPath>
				<clipPath id="SVGID_11_" clip-path="url(#SVGID_10_)">
					<use xlink:href="#SVGID_7_"  overflow="visible"/>
				</clipPath>
				<clipPath id="SVGID_12_" clip-path="url(#SVGID_11_)">
					<use xlink:href="#SVGID_8_"  overflow="visible"/>
				</clipPath>
				<g clip-path="url(#SVGID_12_)">
					<path fill="#B9916D" d="M423.6,361.4H259.6V206.3h173L423.6,361.4z"/>
					<path opacity="0.2" fill="#7F7F7F" enable-background="new    " d="M278.2,331.9c0,0,19.7-27.2,24-25.5
						c-17.6,20.5-4.6,32.4,4,35c34.8,10.3,92.7,19.4,116.3-28.7l-38.2,52.3l-113.4-0.5L278.2,331.9z"/>
					<path opacity="0.2" fill="#7F7F7F" enable-background="new    " d="M318,299.5c-1.5,0.3-2.9,0.6-4.4,1.1
						c0.6,0.6,6.2,18.1,24.3,20.8c0.7,0.1,1.3-0.4,1.4-1c0-0.2,0-0.4-0.1-0.7c-0.5-1.3-0.9-2.8-1-4.2 M386.2,271.6
						c0,0-3.4,17.7-9.2,24.2c-3.2,3.6-7.5,5.9-12.2,6.5c-0.3,0-0.7-0.2-0.7-0.5c0-0.1,0-0.1,0-0.2c0.2-1.7,0.1-3.3-0.4-4.9
						c0,0-21.2,11.3-19.8,20.2c0,0-2.8-12.5,11.8-20.8s12.2-11.4,12.2-11.4l-0.3,9.6C377.5,292.2,386.2,271.6,386.2,271.6z"/>
					
						<linearGradient id="SVGID_13_" gradientUnits="userSpaceOnUse" x1="370.64" y1="72.72" x2="370.64" y2="158.64" gradientTransform="matrix(1 0 0 -1 0 352)">
						<stop  offset="0" style="stop-color:#FFFFFF;stop-opacity:0"/>
						<stop  offset="0.72" style="stop-color:#FFFFFF"/>
					</linearGradient>
					<path opacity="0.5" fill="url(#SVGID_13_)" enable-background="new    " d="M322.2,231.2c0,0,26.5-25.6,66,1.3
						c16.2,11.7,25.1,46.8,25.1,46.8l5.7-11.3l-10.4-66l-40.7-8.6l-26.3,3.5L322.2,231.2z"/>
				</g>
				
					<path clip-path="url(#SVGID_12_)" fill="none" stroke="#31323D" stroke-width="2.183" stroke-linecap="round" stroke-linejoin="round" d="
					M419.1,268c-5.5-17.2-15.9-34.5-29.5-44.7c-0.3-0.2-0.8-0.6-1.5-1c-25.2-15.7-58.3-8-74,17.2c-1.6,2.6-3,5.2-4.1,8l-1.2,2.8
					c7.1-5.6,16.8-9,16.8-9s-3.5,4.8-6.1,8.3c-8.2,11-13.6,26.1-9.5,40c3.6,12,22.5,23,32.5,27.7c0.4,0.2,0.9,0.1,1.1-0.3
					c0.1-0.2,0.2-0.5,0.1-0.7c-1.7-3.7,1.1-10.5,3.3-13.6c2.8-3.9,7.4-6,11.6-8.3s8.5-5.4,9.7-10c-0.3,3.3-0.6,6.7-0.9,10.1
					c6.6-3.3,12.1-8.6,15.6-15.2c1.5-2.8,2.6-5.8,3.3-8.8"/>
				
					<path clip-path="url(#SVGID_12_)" fill="none" stroke="#31323D" stroke-width="2.183" stroke-linecap="round" stroke-miterlimit="10" d="
					M282.8,327c0,0,15-21.7,36.2-25.1"/>
				
					<path clip-path="url(#SVGID_12_)" fill="none" stroke="#31323D" stroke-width="2.183" stroke-linecap="round" stroke-linejoin="round" d="
					M309,357.7c9,2.7,20.5,4.6,34.8,4.6c42.3,0,72.1-27.8,78.4-57.6c0.5-2.3,1-4.7,1.5-7c2-8.7,6-30.3,0.1-43c0,0-0.8,6.2-6.6,17.1"
					/>
				<path clip-path="url(#SVGID_12_)" fill="none" d="M311.4,352.7c-7.5-5.1-23.1-10.8-31.4-13.2l-0.1-0.1
					c3.3-8.7,3.7-18.3,1.1-27.2l-32.8-106.6c3.1-6.1,10.7-19.4,19.8-22c0,0-15.5-9.9-21.7,2.5c0,0,3.8-11.5,9-11.3
					c0,0-9.4-2.4-16.4,0.3l-9.4-30.6c-1.6-5.7-4.4-11-8.2-15.6l12.8-20.7c-3-1.5-21.1,6-26.3,10.1c-1.6-0.8-3.3-1.5-5.1-2.1
					c2.8-12.7-7.4-23.6-7.4-23.6c0.7,4.5-1.4,9-5.3,11.4c6.6-15.2-24.2-30.4-24.2-30.4c1.5,6.5-0.9,13.3-6.1,17.5
					c-10.2,8.7-6.1,16.2-6.1,16.2s-5.9-1.6-5.5-7.3c-4.1,4.6-5.2,11.2-2.8,16.9c-2.4,1-4.8,2.3-7,3.7l-0.5-0.9
					c-7.8-6.4-21.8-8.6-23.7-5.9l11.3,20.1c-3,5-5,10.6-5.8,16.4l-5.5,29.2c-7.6-2-16.6,3.2-16.6,3.2c5-1.6,11.7,8.5,11.7,8.5
					c-9.3-10.3-21.6,3.3-21.6,3.3c9.5,0.1,17.2,11.8,20.4,17.3L87.7,318.4c-0.9,6.9-0.2,14,2.2,20.5l-0.1,0
					c-6.7,1.6-22.8,7.6-32.2,13.7c-4.6,3-1.8,9.8,4,9.6l46.6-0.9c0.8,0.5,1.6,0.9,2.4,1.4v0.6c0.1,4.1-1.2,7.4-5.2,7.6
					c-2.7,0.1-4.9,1.7-5.3,3.7c-0.8,3.8,1,6.8,4.8,7.1l14.7,0.9c4.6,0.3,9-2,11.4-6c0.8-1.3,1.3-2.7,1.5-4.2l0.9-4.6h93.2l0.6,3.6
					c0.7,4.2,3.6,7.8,7.5,9.5c1.2,0.5,2.6,0.7,3.9,0.7l16-0.5c3.8-0.4,5.3-2.7,4.9-6.5c-0.1-1.2-1.1-4.3-4.3-4.5
					c-2.8-0.1-4.4-1.5-4.9-3.8c4-1.1,7.9-2.7,11.4-4.9l45.6,0.9C313.2,362.4,316,355.8,311.4,352.7L311.4,352.7z"/>
				<g clip-path="url(#SVGID_12_)">
					<path fill="#B9916D" d="M53.6,68.2h265.5v316.6H53.6V68.2z"/>
					
						<linearGradient id="SVGID_14_" gradientUnits="userSpaceOnUse" x1="226.345" y1="243.9802" x2="226.345" y2="220.69" gradientTransform="matrix(1 0 0 -1 0 352)">
						<stop  offset="0" style="stop-color:#808080"/>
						<stop  offset="0.14" style="stop-color:#797979"/>
						<stop  offset="0.35" style="stop-color:#646464"/>
						<stop  offset="0.6" style="stop-color:#434343"/>
						<stop  offset="0.89" style="stop-color:#141414"/>
						<stop  offset="1" style="stop-color:#000000"/>
					</linearGradient>
					<path opacity="0.4" fill="url(#SVGID_14_)" enable-background="new    " d="M238.2,108.9c0,0-6.6-4.5-17.8,7.2l-5.9,7.1
						l9.8,8.1L238.2,108.9z"/>
					
						<linearGradient id="SVGID_15_" gradientUnits="userSpaceOnUse" x1="109" y1="227.5333" x2="132.4" y2="227.5333" gradientTransform="matrix(1 0 0 -1 0 352)">
						<stop  offset="0" style="stop-color:#808080"/>
						<stop  offset="0.14" style="stop-color:#797979"/>
						<stop  offset="0.35" style="stop-color:#646464"/>
						<stop  offset="0.6" style="stop-color:#434343"/>
						<stop  offset="0.89" style="stop-color:#141414"/>
						<stop  offset="1" style="stop-color:#000000"/>
					</linearGradient>
					<path opacity="0.4" fill="url(#SVGID_15_)" enable-background="new    " d="M109,115.9c0,0,4.8-3.3,12.5-0.2
						c3.2,1.3,6.1,3.5,8.3,6.2l2.6,3.1l-6.6,9.6L109,115.9z"/>
					<path fill="#FFFFF4" d="M133.5,370c-1-2.5,0.6-9.9,3.6-24.7c1.8-8.8,3.3-14.6,4.2-18.3c6.8-28.3,2.8-31.4,8.7-48.2
						c4-11.5,8.2-22.9,19.4-28.3c1.3-0.6,11.5-5.4,21.8-1.2c10.1,4.1,14.2,14.1,18.4,24.8c5.1,13,3.5,17.4,9.3,49.8l3.6,20.2
						c0.7,4,1.4,7.9,2.1,11.9c1.6,9.3,1.7,9.5,1.6,9.8C224.5,379.5,141.3,390.3,133.5,370L133.5,370z"/>
					<path fill="#FFFFF4" d="M138.1,342.1l-7.1,34.5l-4.9,4.9l-7.7,1l-18.5-1.9v-7.6l10.5-6.8l-1.8-30c0,0,4.7,6.6,15.9,7.1
						S138.1,342.1,138.1,342.1z M253.6,338.8l-2.8,12.9l-0.3,15.4l9.4,6v7.6l-18.5,1.9l-7.7-1l-4.9-4.9l-7.2-34.5
						c0,0,6,5.7,17.2,4.3C250.4,345.1,253.6,338.8,253.6,338.8L253.6,338.8z"/>
					<path fill="#FFFFF4" d="M87.5,328.1c0,0-1,17.3,23.1,34.6l-43,5l-24.9-8.4l1.8-7.1L87.5,328.1z M281.7,333.1
						c0,0-5.1,21.5-23.4,30.2l58.2,0.7v-14L281.7,333.1z"/>
				</g>
				<g opacity="0.2" clip-path="url(#SVGID_12_)">
					<path fill="#7F7F7F" d="M153,120.1c-14.2,4.1-23.3,20.2-28.2,41.8c-1.2,5.1-2.2,11-3.2,17.6c-0.4,2.6-0.6,5.1-0.5,7.7
						c0,6.3,0.3,12.3,0.7,17.3c0.3,4.2-1.4,9.3-3.8,13.6c-3,5.2-5,10.9-5.9,16.8v0.2c-3.5,23.3-8.1,61.7-9.2,70.6
						c-0.7,5.7-1.1,11.4-1.2,17.2v0.6c4.1,4.5,8.3,15.5,9.2,30.9l0.2,8.5c0,0-5.5-0.1-14.1-0.1c-10.8,0-19.3-19.5-13.8-48.6
						c5-26.1-11.9-159.9-11.9-159.9l49.3-7.7c0,0,3.1-21.9,28-30.7L153,120.1z M141.4,325.5c-4.3,25.8,9.5,31.1,12,31.7
						c15.1,2.7,39.1,1.5,46.9-1.2c7.3-2.6,22.7-10.2,18.9-33.1l7.5,44.8h-93.2L141.4,325.5z M251,346c0,0,5.2-16,11.6-21.8
						c-6.9,13.1,2.5,16.2,4.9,15.3c9.4-3.4,13.1-11.6,13.8-26.2l11.4,20.3c0,0-9.6,44.7-35.6,37.4l-6.8-3.2L251,346z"/>
				</g>
				<g opacity="0.2" clip-path="url(#SVGID_12_)">
					
						<linearGradient id="SVGID_16_" gradientUnits="userSpaceOnUse" x1="249.0335" y1="-11.26" x2="249.0335" y2="237.05" gradientTransform="matrix(1 0 0 -1 0 352)">
						<stop  offset="0" style="stop-color:#FFFFFF;stop-opacity:0"/>
						<stop  offset="0.72" style="stop-color:#FFFFFF"/>
					</linearGradient>
					<path fill="url(#SVGID_16_)" d="M196.8,117.6c0,0,10.9,3.7,14.8,9.1s9.1,15.1,12.9,31.6c3,13.2,6.7,32,12,48.5
						c2,6.3,5.2,9.7,7.4,16.1c11.5,34.3,22.6,69.1,27.4,90.4c8,35.7-14.2,49.9-14.2,49.9l10.7-6.2c0,0,11-13.1,12.6-18.8
						c3.6-12.6,24.3-5.8,20.5-25.8c-5.5-29.1-39.8-177.1-39.8-177.1s-35.1,2.5-40-6.2c-3.6-6.4-13.7-11.6-22.6-14.3L196.8,117.6z"/>
				</g>
				<path clip-path="url(#SVGID_12_)" fill="#31323D" d="M141.7,325.6c-1.2,10.6-3.3,21.1-5.2,31.6l-2.9,15.8
					c-0.6,2.9-2.1,5.5-4.3,7.5c-2.2,1.9-5,3.1-8,3.3c-0.7,0-1.4,0-2.2,0l-2-0.1l-4-0.2l-8-0.5c-1.6,0-3.2-0.6-4.4-1.7
					c-1.2-1.1-1.9-2.7-2-4.4c0-0.8,0-1.6,0.2-2.3c0.2-0.9,0.6-1.7,1.1-2.3c1.1-1.2,2.5-2,4.1-2.3c0.4-0.1,0.8-0.1,1.2-0.1
					c0.3,0,0.6,0,0.8-0.1c0.5-0.1,1-0.3,1.4-0.5c0.9-0.6,1.4-1.6,1.7-2.6c0.3-1.2,0.4-2.4,0.3-3.6l-0.2-4l-0.7-16v0.1
					c-0.4-3.5-1.1-6.9-2.2-10.2c-0.6-1.6-1.3-3.2-2.1-4.7c-0.8-1.5-1.8-3-2.9-4.4c-0.1-0.2-0.1-0.4,0.1-0.5c0.1-0.1,0.3-0.1,0.5,0
					c2.6,2.6,4.6,5.6,6,9c1.3,3.4,2.2,6.9,2.7,10.5v0.1l0.8,16l0.2,4c0.1,1.4,0,2.9-0.3,4.3c-0.2,0.8-0.5,1.5-0.9,2.2
					c-0.4,0.7-1,1.3-1.7,1.8c-0.7,0.5-1.5,0.8-2.3,0.9c-0.4,0.1-0.8,0.1-1.1,0.1c-0.3,0-0.6,0.1-0.8,0.1c-1.1,0.2-2,0.7-2.8,1.5
					c-0.3,0.4-0.5,0.8-0.6,1.3c-0.1,0.5-0.1,1.1-0.1,1.7c0,1,0.5,2,1.2,2.7c0.8,0.7,1.9,1,2.9,1l8,0.5l4,0.3l2,0.1
					c0.6,0,1.2,0,1.8,0c2.4-0.2,4.7-1.1,6.6-2.7c1.8-1.6,3.1-3.7,3.6-6.1l3-15.7c2-10.5,3.9-21,6.6-31.4c0-0.2,0.2-0.4,0.5-0.3
					C141.6,325.2,141.7,325.4,141.7,325.6L141.7,325.6z M219.4,322.9c2.9,12.2,4.8,24.5,6.9,36.8l1.6,9.2l0.4,2.3
					c0.1,0.7,0.3,1.4,0.6,2c0.5,1.3,1.2,2.5,2.2,3.6c0.9,1,2.1,1.9,3.3,2.5c1.2,0.6,2.6,1,3.9,1l9.3-0.3l4.7-0.1l2.3-0.1
					c0.6-0.1,1.2-0.2,1.8-0.5c1.1-0.5,1.8-1.5,1.8-2.7c0.1-0.7,0.1-1.3,0-2c-0.1-0.6-0.3-1.2-0.6-1.7c-0.3-0.5-0.7-0.9-1.2-1.2
					c-0.2-0.1-0.5-0.2-0.8-0.3c-0.1,0-0.3-0.1-0.4-0.1l-0.6-0.1c-0.9-0.1-1.8-0.4-2.7-0.8c-0.9-0.5-1.6-1.2-2.1-2.1
					c-0.8-1.6-1.1-3.4-0.8-5.2l0.1-4.7l0.1-4.7c0-0.8,0.1-1.6,0.2-2.4s0.2-1.6,0.3-2.4c0.5-3.2,1.3-6.3,2.4-9.2
					c2.3-5.9,5.7-11.4,10.1-16c0.2-0.2,0.4-0.2,0.5,0c0.1,0.1,0.1,0.4,0,0.5c-3.7,4.9-6.7,10.4-8.8,16.2c-1,2.9-1.7,5.8-2.2,8.9
					c-0.1,0.8-0.2,1.5-0.3,2.3s-0.1,1.5-0.1,2.3l-0.1,4.7l-0.1,4.7v2.2c0.1,0.6,0.2,1.2,0.5,1.8c0.7,1,1.8,1.7,3,1.7l0.6,0
					c0.2,0,0.5,0,0.7,0.1c0.5,0.1,1,0.3,1.4,0.5c0.9,0.5,1.6,1.2,2.1,2c0.5,0.8,0.8,1.7,1,2.6c0.1,0.9,0.1,1.8,0,2.7
					c-0.1,1-0.4,1.9-1,2.7c-0.6,0.8-1.3,1.5-2.3,1.9c-0.8,0.4-1.8,0.6-2.7,0.7c-0.8,0-1.6,0.1-2.4,0.1l-4.7,0.2l-9.4,0.3
					c-1.8,0-3.5-0.4-5.1-1.3c-3.1-1.6-5.5-4.3-6.6-7.5c-0.3-0.8-0.5-1.6-0.6-2.5l-0.4-2.3L224,360c-2-12.3-4.2-24.6-5.4-37
					c0-0.2,0.1-0.4,0.3-0.4c0,0,0,0,0,0C219.2,322.5,219.4,322.7,219.4,322.9C219.4,322.9,219.4,322.9,219.4,322.9L219.4,322.9z"/>
				
					<path clip-path="url(#SVGID_12_)" fill="none" stroke="#31323D" stroke-width="2.183" stroke-linecap="round" stroke-miterlimit="10" d="
					M89.8,339c-6.7,1.6-22.8,7.6-32.2,13.7c-4.6,3-1.8,9.8,4,9.6l49-1 M280,339.5c8.3,2.4,23.9,8,31.4,13.2c4.5,3.1,1.8,9.8-4,9.6
					l-45.7-0.9 M248.4,206.3l10.4,33.9 M238.7,174.5l-9.2-29.9c-3.7-13-13.4-23.5-26.1-28.1l-4.6-1.5 M114.3,178.8l5.4-28.3
					c1.9-14.8,11.5-27.4,25.2-33.2l3.2-1.2 M103.9,233.5l3.9-20.6"/>
				<path clip-path="url(#SVGID_12_)" fill="#31323D" d="M108.9,215.1c-1.2-2.3-2.5-4.4-4-6.5c-1.4-2.1-3-4.1-4.8-5.9
					c-1.7-1.8-3.6-3.4-5.8-4.7c-2-1.3-4.4-1.9-6.8-2c-0.6,0-1.1-0.5-1.1-1.1c0,0,0,0,0,0c0-0.3,0.1-0.5,0.3-0.7c1.5-1.6,3.2-3,5-4.2
					c1.8-1.3,3.8-2.3,5.9-2.9c1.1-0.3,2.2-0.5,3.3-0.5c1.2,0,2.3,0.1,3.4,0.5c2.2,0.7,4.1,2,5.6,3.7l-1.7,1.3c-0.7-1-1.4-2-2.2-2.9
					c-0.8-0.9-1.6-1.8-2.5-2.6c-0.8-0.8-1.8-1.5-2.8-2.1c-0.8-0.5-1.9-0.7-2.8-0.5c-0.6,0.2-1.2-0.1-1.4-0.7c-0.2-0.5,0-1,0.5-1.3
					c1.6-0.8,3.3-1.5,5.1-2.1c1.7-0.6,3.5-0.9,5.3-1.2c1.8-0.2,3.7-0.2,5.5,0.1c0.9,0.2,1.8,0.4,2.7,0.8c0.8,0.4,1.7,0.8,2.4,1.3
					c0.2,0.2,0.2,0.4,0.1,0.6c-0.1,0.2-0.4,0.2-0.5,0.1c-0.7-0.4-1.5-0.8-2.3-1.1c-0.8-0.3-1.6-0.4-2.5-0.6
					c-1.7-0.2-3.4-0.1-5.1,0.2c-1.7,0.3-3.3,0.8-4.9,1.4c-1.6,0.6-3.1,1.4-4.6,2.2l-0.9-2c0.8-0.2,1.6-0.3,2.4-0.1
					c0.7,0.1,1.4,0.4,2.1,0.7c1.2,0.6,2.3,1.4,3.3,2.4c1,0.9,1.9,1.8,2.7,2.9c0.8,1,1.6,2,2.4,3.1c0.3,0.5,0.2,1.2-0.3,1.5
					c-0.4,0.3-1,0.2-1.4-0.2c-1.2-1.4-2.8-2.5-4.6-3.1c-1.8-0.5-3.7-0.5-5.5,0c-1.9,0.6-3.7,1.4-5.3,2.5c-1.7,1.1-3.2,2.4-4.6,3.8
					l-0.8-1.8c2.8,0.2,5.5,1,7.8,2.6c2.2,1.5,4.2,3.2,6,5.2c1.7,2,3.3,4.1,4.8,6.3c1.4,2.2,2.7,4.5,3.8,6.8c0.2,0.3,0,0.7-0.3,0.8
					C109.4,215.5,109,215.3,108.9,215.1L108.9,215.1L108.9,215.1z M246.2,208.5c1-2.7,2.2-5.2,3.6-7.7c1.4-2.5,2.9-4.9,4.6-7.2
					c1.7-2.3,3.6-4.5,5.7-6.4c2.2-2.1,4.8-3.6,7.6-4.5l-0.3,2.1c-1.7-1-3.5-1.8-5.4-2.5c-1.8-0.7-3.8-1-5.7-1.1
					c-1.9-0.1-3.7,0.4-5.3,1.4c-1.6,1-2.8,2.5-3.6,4.2c-0.3,0.6-1,0.9-1.6,0.6c-0.6-0.3-0.9-1-0.6-1.6c0.4-1.2,0.9-2.5,1.5-3.6
					c0.6-1.2,1.2-2.4,1.9-3.5c0.7-1.2,1.6-2.2,2.6-3.2c0.5-0.5,1.2-0.9,1.8-1.3c0.7-0.4,1.5-0.5,2.4-0.5l-0.3,2.1
					c-1.8-0.5-3.6-0.8-5.4-1c-1.8-0.2-3.7-0.3-5.5-0.1c-1.8,0.1-3.6,0.4-5.3,1c-1.7,0.6-3.2,1.6-4.5,2.9c-0.2,0.2-0.4,0.2-0.6,0
					c0,0,0,0,0,0c-0.2-0.2-0.2-0.4,0-0.6c1.3-1.5,2.9-2.7,4.7-3.4c1.8-0.7,3.7-1.2,5.6-1.4c1.9-0.2,3.9-0.3,5.8-0.2
					c1.9,0.1,3.9,0.3,5.8,0.7c0.6,0.1,0.9,0.7,0.8,1.3c-0.1,0.5-0.6,0.9-1.1,0.8c-1,0.1-1.9,0.5-2.6,1.2c-0.8,0.8-1.6,1.7-2.2,2.7
					c-0.6,1-1.2,2.1-1.7,3.2c-0.5,1.1-1,2.3-1.4,3.4l-2.2-0.9c1-2.1,2.5-3.8,4.5-5.1c1-0.6,2.1-1.1,3.2-1.4c1.1-0.3,2.2-0.4,3.4-0.4
					c2.2,0,4.4,0.4,6.5,1.2c2.1,0.7,4,1.6,5.9,2.8c0.5,0.3,0.7,1,0.4,1.6c-0.1,0.2-0.4,0.4-0.6,0.5c-2.5,0.8-4.8,2.2-6.8,4
					c-2,1.8-3.9,3.9-5.5,6.1c-1.7,2.2-3.2,4.5-4.6,6.9c-1.4,2.4-2.8,4.8-4.1,7.3c-0.2,0.3-0.5,0.4-0.8,0.3c-0.3-0.1-0.4-0.5-0.3-0.8
					L246.2,208.5z"/>
				
					<path clip-path="url(#SVGID_12_)" fill="none" stroke="#31323D" stroke-width="2.183" stroke-linecap="round" stroke-miterlimit="10" d="
					M137.8,120c-7.8-6.4-21.8-8.6-23.7-5.9l11.3,20.1 M207.8,118.4c5.1-4.1,23.3-11.6,26.3-10.1L221.2,129"/>
				<path clip-path="url(#SVGID_12_)" fill="#31323D" d="M152.7,120.6c-1.7-1.1-3.2-2.5-4.5-4c-1.4-1.5-2.4-3.3-3.2-5.2
					c-0.7-2-0.9-4.1-0.4-6.2c0.5-2,1.5-3.9,2.8-5.5c0.3-0.4,0.9-0.4,1.2-0.1c0,0,0,0,0,0c0.2,0.2,0.3,0.4,0.3,0.7v0.1
					c-0.1,1.4,0.3,2.8,1.3,3.9c0.5,0.6,1,1,1.6,1.4c0.6,0.4,1.3,0.7,2,0.9l-1.1,1.4c-1.4-3.3-1.3-7,0.3-10.2c1.5-3,3.6-5.6,6.2-7.7
					c3.5-2.9,5.6-7.2,5.8-11.7c0.1-1.5,0-2.9-0.4-4.4v0c-0.1-0.6,0.2-1.2,0.8-1.3c0,0,0,0,0,0c0.3-0.1,0.5,0,0.8,0.1
					c3.2,1.6,6.2,3.4,9.2,5.4c3,2,5.8,4.2,8.4,6.6c2.7,2.4,5,5.4,6.6,8.6c0.8,1.7,1.4,3.6,1.5,5.4c0.1,1.9-0.2,3.9-1,5.7l-1.5-1.4
					c1.7-1.1,3-2.6,3.9-4.4c0.8-1.8,1.1-3.9,0.8-5.9v-0.1c-0.1-0.6,0.4-1.1,1-1.2c0,0,0,0,0,0c0.4,0,0.7,0.1,0.9,0.4
					c1.5,2,2.6,4.2,3.4,6.6c0.8,2.3,1.1,4.7,1.1,7.2c0,2.4-0.4,4.8-1.1,7.1c-0.7,2.3-1.7,4.5-3,6.5c-0.2,0.3-0.5,0.4-0.8,0.2
					c0,0,0,0,0,0c-0.3-0.2-0.4-0.5-0.2-0.8c1.1-2,2-4.1,2.6-6.3c0.6-2.2,0.9-4.4,0.8-6.7c-0.1-2.2-0.5-4.5-1.3-6.6
					c-0.7-2.1-1.8-4-3.2-5.8l1.9-0.8c0.4,2.4,0,4.9-1,7.1c-0.5,1.1-1.2,2.1-2,3c-0.8,0.9-1.8,1.7-2.8,2.4c-0.5,0.3-1.2,0.1-1.5-0.4
					c-0.2-0.3-0.2-0.7-0.1-1c0.6-1.5,0.9-3.1,0.8-4.6c-0.1-1.6-0.6-3.2-1.3-4.7c-1.6-3-3.7-5.7-6.2-8c-2.5-2.4-5.3-4.5-8.1-6.4
					c-2.9-1.9-5.9-3.7-8.9-5.3l1.5-1.3c0.4,1.7,0.5,3.4,0.4,5.1c-0.1,1.7-0.4,3.4-0.9,5c-1.1,3.2-3,6.1-5.6,8.3
					c-2.4,1.9-4.4,4.2-5.8,6.9c-0.6,1.3-1,2.7-1.1,4.2c0,0.7,0,1.4,0.1,2.2c0.1,0.7,0.3,1.4,0.6,2v0.1c0.2,0.5,0,1-0.4,1.3
					c-0.2,0.1-0.5,0.1-0.7,0c-0.9-0.3-1.7-0.7-2.5-1.2c-0.8-0.5-1.5-1.1-2.1-1.8c-0.6-0.7-1-1.6-1.3-2.5c-0.3-0.9-0.3-1.8-0.3-2.8
					l1.6,0.6c-1.2,1.4-2.1,3-2.6,4.8c-0.4,1.8-0.4,3.6,0.2,5.3c0.6,1.8,1.6,3.4,2.8,4.8c1.2,1.5,2.6,2.8,4.1,3.9
					c0.3,0.2,0.3,0.6,0.1,0.8C153.3,120.8,152.9,120.8,152.7,120.6L152.7,120.6L152.7,120.6z"/>
				
					<path clip-path="url(#SVGID_12_)" fill="none" stroke="#31323D" stroke-width="2.183" stroke-linecap="round" stroke-miterlimit="10" d="
					M250.5,212.9l30.5,99.3c6.6,23.2-7,47.4-30.2,54c-0.2,0-0.3,0.1-0.5,0.1 M110.7,362.8c-16.2-8.5-25.4-26.2-23-44.4l18.6-98"/>
				
					<circle clip-path="url(#SVGID_12_)" fill="#FFFFFF" stroke="#31323D" stroke-width="1.746" stroke-linecap="round" stroke-miterlimit="10" cx="224.9" cy="163.4" r="22.6"/>
				<circle clip-path="url(#SVGID_12_)" fill="#FFFFFF" cx="130.1" cy="166.3" r="22.6"/>
				
					<circle clip-path="url(#SVGID_12_)" fill="none" stroke="#31323D" stroke-width="1.746" stroke-linecap="round" stroke-miterlimit="10" cx="130.1" cy="166.3" r="22.6"/>
				<circle clip-path="url(#SVGID_12_)" fill="#A66421" cx="129.8" cy="166.6" r="14"/>
				<circle clip-path="url(#SVGID_12_)" fill="#31323D" cx="129.4" cy="166.8" r="10.1"/>
				<circle clip-path="url(#SVGID_12_)" fill="#FFFFFF" cx="135.1" cy="158.8" r="5.4"/>
				<circle clip-path="url(#SVGID_12_)" fill="#A66421" cx="224.9" cy="164" r="14"/>
				<circle clip-path="url(#SVGID_12_)" fill="#31323D" cx="224.6" cy="164.2" r="10.1"/>
				<circle clip-path="url(#SVGID_12_)" fill="#FFFFFF" cx="230.3" cy="156.2" r="5.4"/>
				<path opacity="0.2" clip-path="url(#SVGID_12_)" fill="#595959" enable-background="new    " d="M168.9,212.1
					c0,0,3.5,15,14,13.5c10.2-1.5,11.5-14.7,11.5-14.7s-4.6,7-11.2,7.7S168.9,212.1,168.9,212.1z"/>
				<path clip-path="url(#SVGID_12_)" fill="#31323D" d="M167,173.4c-0.4-1-0.2-2.1,0.5-2.8c1.5-1.6,4.8-3.9,11-4.1
					s9.2,1.9,10.7,3.3c0.7,0.7,0.9,1.8,0.5,2.8c-0.5,1.3-1.7,2.1-3.1,2.2c-2,0-3.9,0.9-5.3,2.4c-0.6,0.7-1.2,1.4-1.8,2l-1.2,1.2
					l-2.1-2.3c0,0-1.3-2.1-6-2.4C168.8,175.7,167.6,174.8,167,173.4L167,173.4z"/>
				<path clip-path="url(#SVGID_12_)" fill="#31323D" d="M180.1,177.1c0.4,2.3,1,4.6,1.7,6.8c0.7,2.2,1.7,4.4,2.8,6.4
					c1.1,2,2.7,3.8,4.5,5.2c1.9,1.4,4.2,2.1,6.5,2c0.1,0,0.3,0.1,0.3,0.2c0,0,0,0,0,0c0,0.1-0.1,0.3-0.2,0.3c-2.5,0.3-5-0.3-7.1-1.6
					c-2.1-1.4-3.9-3.2-5.2-5.3c-1.4-2-2.5-4.2-3.5-6.5c-1-2.3-1.7-4.6-2.3-7c-0.2-0.7,0.3-1.4,1-1.6
					C179.2,175.9,179.9,176.3,180.1,177.1L180.1,177.1L180.1,177.1z"/>
				<path clip-path="url(#SVGID_12_)" fill="#31323D" d="M165.2,193.2c-3.2-0.6-6.5-0.3-9.6,0.7c-3.1,1.1-5.8,3-7.7,5.7
					c-1.9,2.7-3.1,5.9-3.4,9.2c-0.3,3.3,0.2,6.7,1.4,9.8c-1.4-3.1-2-6.5-1.9-9.9c0.1-3.4,1.2-6.8,3.1-9.6c1.9-2.9,4.7-5.1,8-6.4
					c3.3-1.3,6.8-1.7,10.3-1.2c0.5,0.1,0.8,0.5,0.8,1C166.2,192.9,165.7,193.2,165.2,193.2L165.2,193.2L165.2,193.2z M190.2,184.2
					c4.6-0.8,9.3-0.8,13.8,0.1c4.5,0.9,8.8,2.7,12.6,5.3c3.8,2.5,7.1,5.8,9.6,9.7l0.9,1.4l0.8,1.5c0.6,1,1.1,2,1.5,3.1
					c0.9,2.1,1.5,4.3,2,6.5c-0.5-2.2-1.2-4.4-2.2-6.4c-0.5-1-1-2-1.6-3l-0.9-1.5l-1-1.4c-1.3-1.8-2.8-3.5-4.4-5.1
					c-1.6-1.5-3.4-2.9-5.3-4.1c-3.8-2.4-8-4-12.4-4.8c-4.4-0.7-8.9-0.6-13.2,0.3c-0.5,0.1-0.9-0.2-1-0.7
					C189.4,184.7,189.7,184.3,190.2,184.2L190.2,184.2z M225.5,184.1c-2.2-0.8-4.4-1.5-6.7-2.1c-2.3-0.6-4.6-1-6.9-1.3
					c-2.3-0.3-4.7-0.4-7-0.4c-2.3,0-4.6,0.1-6.9,0.4c-0.5,0.1-0.9-0.3-1-0.7c-0.1-0.5,0.3-0.9,0.7-1l0,0h0.1c2.4-0.2,4.8-0.2,7.2,0
					c2.4,0.2,4.7,0.4,7.1,0.9c2.3,0.4,4.6,1,6.9,1.7C221.2,182.3,223.4,183.1,225.5,184.1L225.5,184.1z"/>
				<path clip-path="url(#SVGID_12_)" fill="#31323D" d="M192.6,188.8c3.5-0.4,7,0.1,10.3,1.5c3.2,1.4,5.9,3.7,7.8,6.6
					c1.8,2.9,2.8,6.3,2.8,9.7c0.1,3.4-0.7,6.7-2.1,9.8c1.3-3.1,1.9-6.4,1.7-9.8c-0.2-3.3-1.3-6.5-3.1-9.3c-1.9-2.7-4.5-4.8-7.6-5.9
					c-3-1.1-6.3-1.5-9.5-1c-0.5,0.1-0.9-0.2-1-0.7s0.2-0.9,0.7-1C192.5,188.7,192.5,188.7,192.6,188.8L192.6,188.8z M195.4,209.9
					c-0.3,1.4-0.9,2.7-1.8,3.9c-0.9,1.2-1.9,2.2-3.1,3.1c-1.2,0.8-2.5,1.5-3.9,1.9c-4.2,1.3-8.8,0.8-12.7-1.4c-2.5-1.4-4.6-3.5-6-6
					c-0.1-0.2,0-0.5,0.2-0.6c0.2-0.1,0.4-0.1,0.5,0.1c1.8,1.9,3.9,3.4,6.3,4.5c1.2,0.5,2.4,0.9,3.6,1.1c1.2,0.3,2.5,0.4,3.7,0.3
					c1.2,0,2.5-0.2,3.7-0.5c1.2-0.3,2.4-0.8,3.4-1.4c1.1-0.6,2.1-1.4,3-2.3c0.9-0.9,1.6-2,2.3-3.1c0.1-0.2,0.4-0.3,0.6-0.2
					C195.4,209.5,195.5,209.7,195.4,209.9L195.4,209.9z"/>
				<path clip-path="url(#SVGID_12_)" fill="#31323D" d="M165.2,198.4l1.8-0.2c0.6-0.1,1.2-0.3,1.7-0.5c0.5-0.2,1.1-0.5,1.6-0.8
					c0.5-0.3,1-0.7,1.4-1.1c1.7-1.7,2.8-3.9,3.4-6.2c0.6-2.4,1.1-4.8,1.4-7.2c0.3-2.4,0.6-4.9,0.9-7.4c0.1-0.7,0.7-1.2,1.5-1.1
					c0.7,0.1,1.2,0.7,1.1,1.5v0.1c-0.5,2.4-0.9,4.9-1.4,7.4c-0.5,2.5-1.2,4.9-2,7.3c-0.8,2.5-2.3,4.7-4.2,6.5
					c-0.5,0.4-1,0.8-1.6,1.1c-0.6,0.3-1.2,0.5-1.8,0.7c-0.6,0.1-1.3,0.3-1.9,0.4l-1.9,0.1c-0.1,0-0.3-0.1-0.3-0.3
					C165,198.6,165.1,198.5,165.2,198.4C165.2,198.5,165.2,198.5,165.2,198.4L165.2,198.4z M167.6,188.6c-4.3-1.1-8.8-1.3-13.2-0.6
					c-4.4,0.6-8.7,2.2-12.5,4.4c-1.9,1.1-3.8,2.5-5.4,3.9c-1.7,1.5-3.2,3.2-4.5,5l-1,1.4l-0.9,1.4c-0.6,1-1.2,2-1.6,3
					c-1,2-1.8,4.2-2.3,6.4c0.5-2.2,1.2-4.4,2.1-6.5c0.5-1,1-2,1.6-3l0.9-1.5l1-1.4c2.6-3.8,6-7,9.9-9.4c3.9-2.5,8.2-4.2,12.8-5
					c4.6-0.8,9.3-0.7,13.8,0.2c0.5,0.1,0.8,0.6,0.7,1c-0.1,0.5-0.6,0.8-1,0.7L167.6,188.6z M132.6,185.9c4.4-1.8,8.9-3.1,13.6-3.8
					c2.3-0.4,4.7-0.6,7.1-0.7c2.4-0.1,4.8,0,7.2,0.2c0.5,0.1,0.8,0.5,0.8,1c-0.1,0.5-0.5,0.8-1,0.8h-0.1c-2.3-0.4-4.6-0.6-6.9-0.6
					c-2.3-0.1-4.7,0-7,0.2c-2.3,0.2-4.6,0.6-6.9,1.1C137.1,184.5,134.9,185.1,132.6,185.9L132.6,185.9z"/>
			</g>
		</g>
	</g>
</g>
<g id="color_x5F_02" clip-path="url(#SVGID_2_)">
	<path fill="#E7E4E2" d="M159.2,75.2c-3.6,0.6-10.7,2.1-17.8,5.2c-6.2,2.7-9.4,5.4-9.7,5.6c-1.2,1-2.2,1.8-2.8,2.5c0,0,0,0,0,0
		c0,0-2.4,2.2-4.6,4.7c-1.5,1.8-7.5,12.2-12.4,27.7c-5.3,14.8-7.8,14.3-13.3,31c-2,6.1-3.8,12.2-2.4,19.6c0.8,4.1,2.4,8.4,5.3,12.8
		c2.6,4,14.1,18.1,25.9,24.1c8.8,4.6,21.7,10.7,43.3,10.8c18,0.1,33.6-2.9,54.6-15.2c8.1-4.7,14.7-10.2,18.9-19.7
		c4.4-9.8,4-20.3,2.2-27.2c-0.7-2.6-0.8-1.9-4.5-12c-1.4-3.8-2-5.7-3.4-9.6c-5.7-16.2-5.4-13.8-6.2-17.1c0,0-4.4-17.7-6.1-20.3
		c-0.5-0.7-1-1.5-1-1.5c0,0,0,0,0,0c-0.7-1-1.5-2-2.4-2.9c-2.1-2.2-4-3.8-5.3-4.8c-11.2-9-26.4-14.2-32.2-13
		c-0.3,0.1-1.7,0.3-2.1-0.2c-0.5-0.8,1.7-2.4,3.1-5.3c1.5-3.1,1.4-6.7,0.7-6.9c-0.9-0.3-2.5,5.2-8.3,9.8c-1.1,0.9-2.8,2.2-3.5,1.7
		c-1.1-0.8,1.8-5.4,2.6-10.3c1.9-10.6-5.9-21.1-7.5-20.6c-1.6,0.5,4.2,12.2-1.4,22.2C166.3,71.2,162,73.8,159.2,75.2z"/>
	<path fill="#E7E4E2" d="M133.9,212.2c0,0-11.8,19.9-13.7,28c-2.8,12.4-4.1,18.9-6.9,22.4c-11,13.7-14.6,17.5-15.7,26.4
		c-1.3,10.7,8.5,14.8,8.5,14.8s-9.9,1-12.8,12.6c-1.2,4.9-1.2,14,7.1,13.4c0.9-0.1,4.8,6.1,12.2,3c1.9-0.8,1.6,5,15.9,0.3
		c1.4-0.5,5.5,4.3,18.1-0.1c1-0.3,6,5.1,17.4-1.2c0.5-0.3,4.6,0.6,8.9-2.3c1.1-0.7,3.3,4.2,9.8,2.1c1.3-0.4,4,6,16.7,1.4
		c2-0.7,3.1,5.2,18-0.1c2.2-0.8,4.1,5.5,14.9,0.4c1.5-0.7,9.2,3.7,12.6-2.8c0.8-1.6,8.9,0.3,9.2-8.5c0.2-7.1-1.7-16.2-13.3-17.8
		c-2-0.3,9.5-2.9,8.1-16.1c-0.5-4.4-7.8-15.3-15.5-24.2c-2.1-2.4-6.6-20.9-7.6-24c-1.1-3.1-12.8-22.9-13.4-28.6"/>
	<path fill="#E7E4E2" d="M122.2,251.1c0,0,0.8,31.7,11.7,49c0,0-22.9,16.1-4.3,33c5.3,4.8,17.1,0,17.1,0"/>
	<path fill="#E7E4E2" d="M223.3,249.5c0,0-0.8,31.7-11.7,49c0,0,22.9,18.5,3.8,34c-6.5,5.3-15.9,0.5-15.9,0.5"/>
	<path fill="#E7E4E2" d="M155.3,251.1c0,0-0.9,21.6-0.3,27.5c0.6,5.2,1.7,16.7,2.4,17.6c0.7,0.9,19.8,5.2,16.5,31.1
		c-0.6,4.9-9.7,5-10.2,4.1"/>
	<path fill="#E7E4E2" d="M191.6,249c0,0-2.4,10.9-1.6,19.8c0.6,7.3-1.1,28.6-2.8,28.5c-4.9-0.1-15.2,10.2-13.8,15.4l1.1,6.1
		l-0.3,10.1"/>
	<path fill="#E7E4E2" d="M162.9,332.1c1.6-1.3,0.7-22.3-6-25.6"/>
	<path fill="#E7E4E2" d="M146.2,333.2c0.5-0.7-1.4-17.5-7.4-20.2"/>
	<path fill="#E7E4E2" d="M233.5,333.2c0.5-0.8-1.3-18.6-6.9-21.5"/>
	<path fill="#E7E4E2" d="M244.3,331.1c0.5-0.7,3.1-14.5-5.9-19.1"/>
	<path fill="#E7E4E2" d="M200,332.5c0,0-1.5-13.9,7.3-19.9"/>
	<path fill="#E7E4E2" d="M183.3,331.1c0,0-2.1-20.2,6.7-24.6"/>
	<path fill="#E7E4E2" d="M113.1,332.5c0,0-1.9-16.9,6.9-21.2"/>
	<path fill="#E7E4E2" d="M101.4,330.4c0,0-3.1-13.7,5.7-18"/>
	<path fill="#E7E4E2" d="M105.4,303.6c0,0,10.8,5.1,22.4,2.3"/>
	<path fill="#E7E4E2" d="M241.4,303.8c0,0-12.3,6.4-22.4,3"/>
	<path fill="#E7E4E2" d="M122.8,96.6c-3-2.4-5.2-4.5-6.6-6.1c-4.3-4.7-6.3-8.4-10.8-9.4c-4-0.9-5.7,1.9-18.6,8.8
		c-7.2,3.8-9.3,4.4-11.1,5.7c-0.7,0.5-1.2,1-1.4,1.2c-5.3,5.1-4.1,17.8-4,22.3c0.1,13.8-10.3,14.5-17,33.8
		c-4.2,12.1-7.4,33,1.6,39.2c5.9,4.1,16.8,1.6,24.1-4c25.9-19.8,5.2-78.6,20.2-84.2c3-1.1,7.8-0.3,15.9,7.3c1.1-2.3,2.3-4.5,3.4-6.8
		C120.2,101.8,121.5,99.2,122.8,96.6z"/>
	<path fill="#E7E4E2" d="M223.7,94.8c3.8-2.1,6.4-4.3,8-5.9c4.3-4.1,6.5-8,11.3-8.8c4.1-0.6,5.6,2.2,18.1,9.8
		c6.9,4.2,9,4.9,10.7,6.3c0.6,0.5,1.1,1.1,1.3,1.3c5,5.4,3,18,2.7,22.5c-0.9,13.8,9.5,15.1,15,34.7c3.5,12.3,5.5,33.3-3.9,39
		c-6.1,3.7-16.9,0.7-23.9-5.3c-24.8-21.3-0.7-78.7-15.4-85.2c-3-1.3-8.2-0.7-17.6,7.3c-0.3-2.1-1-4.8-2.1-7.7
		C226.7,99.4,225.1,96.7,223.7,94.8z"/>
	<path fill="#E7E4E2" d="M105,303.5c-11-2.9-16.1-7.8-18.7-11.6c-9-13,1.1-27.1-9.7-42.9c-5.6-8.2-11.3-9.5-13-9.8
		c-1-0.2-9-1.5-13.2,3.8c-4.2,5.3-2.2,14.5,2.4,17.5c5.3,3.4,10.6-3.7,16.2-1.1c8.5,4,2.7,23.3,12.6,36.2c5.1,6.7,12,10.8,12,10.8
		c1.6,0.9,2.9,1.6,3.9,2"/>
	<g>
		<g>
			<path fill="#C5BFBD" d="M119.1,247c0.5,1.9,0.7,3.8,0.7,5.8c0,2-0.3,4-0.7,5.9c-0.5,1.9-0.9,3.7-1.6,5.7c-0.7,2-1.8,3.9-3,5.5
				c-0.6,0.8-1.2,1.6-1.8,2.4l-1.9,2.2c-1.1,1.4-2.1,2.7-3.1,4.3c-1,1.6-2,3-2.7,4.4c-0.3,0.7-0.6,1.4-0.8,2.1
				c-0.2,0.7-0.4,1.6-0.5,2.4c-0.5,3.1,0,6,1.7,8.2c0.8,1.1,2,2.1,3.4,3c0.7,0.5,1.5,0.9,2.3,1.3l1.2,0.6c0.4,0.2,0.8,0.4,1.1,0.6
				c1.5,0.7,3.1,1.2,4.8,1.5c1.7,0.3,3.5,0.5,5.4,0.6l2.8,0.2c0.9,0.1,1.8,0,2.6-0.1c1.7-0.2,3.2-1.3,4.3-2.9
				c-0.2,1-0.6,1.9-1.2,2.7c-0.6,0.8-1.5,1.5-2.5,1.9c-1,0.5-2,0.7-3,0.9c-1,0.2-1.9,0.3-2.9,0.5c-1.9,0.3-3.9,0.5-5.9,0.5
				c-2.1,0-4.2-0.4-6.2-1c-0.5-0.1-1-0.3-1.5-0.5l-1.4-0.5c-0.9-0.4-1.9-0.8-2.8-1.3c-1.9-1-3.8-2.3-5.4-4.1
				c-1.6-1.8-2.6-4.1-3.2-6.4c-0.5-2.3-0.5-4.7-0.2-6.9c0.2-1.1,0.4-2,0.7-3.2c0.3-1.1,0.8-2.2,1.3-3.2c1-2,2.3-3.6,3.4-5.2
				c1.1-1.5,2.5-3.2,3.9-4.6c1.4-1.4,2.6-2.5,3.8-3.9l0.9-1c0.3-0.3,0.6-0.7,0.8-1c0.5-0.7,1-1.4,1.4-2.1c0.9-1.5,1.7-3.2,2.5-4.9
				C117.6,254.4,118.6,250.8,119.1,247z"/>
		</g>
		<g>
			<path fill="#C5BFBD" d="M227.6,247c0.5,3.8,1.4,7.3,3,10.5c0.8,1.6,1.6,3.4,2.4,4.9c0.8,1.5,1.8,2.7,3,4.1
				c1.1,1.4,2.3,2.5,3.7,3.9c1.4,1.4,2.7,3.1,3.8,4.6c1.1,1.5,2.2,3.1,3.3,5.1c0.5,1,0.9,2,1.3,3.1c0.2,0.5,0.3,1.1,0.4,1.6
				c0.1,0.5,0.2,1,0.3,1.5c0.4,2.1,0.5,4.4,0.1,6.7c-0.4,2.3-1.3,4.5-2.7,6.4c-1.4,1.9-3.2,3.4-5.1,4.4c-0.9,0.5-1.9,1-2.8,1.4
				c-0.9,0.4-1.8,0.7-2.8,1.1c-2,0.7-4.1,1.1-6.1,1.1c-2.1,0.1-4-0.2-5.9-0.4c-1-0.2-1.8-0.3-2.8-0.5c-1-0.2-2-0.4-2.9-0.9
				c-1-0.5-1.8-1.1-2.4-2c-0.6-0.8-1-1.8-1.1-2.7c1,1.6,2.5,2.7,4.1,2.9c0.8,0.1,1.7,0.1,2.5,0.1l2.8-0.2c1.8-0.1,3.6-0.3,5.3-0.7
				c1.7-0.3,3.2-0.9,4.6-1.6c0.7-0.4,1.6-0.8,2.3-1.3c0.8-0.4,1.5-0.9,2.1-1.3c1.3-0.9,2.3-1.9,3.1-3.1c1.5-2.3,1.9-5.2,1.3-8.3
				c-0.1-0.4-0.1-0.8-0.2-1.2c-0.1-0.4-0.2-0.7-0.3-1.1c-0.2-0.7-0.5-1.4-0.8-2.1c-0.6-1.4-1.6-2.9-2.6-4.4c-1-1.6-1.9-2.9-3-4.3
				c-0.5-0.7-1.2-1.4-1.8-2.2c-0.6-0.8-1.2-1.6-1.7-2.4c-1-1.6-2.1-3.5-2.7-5.5c-0.7-2-1-3.7-1.5-5.6c-0.4-1.9-0.7-3.9-0.6-5.8
				C226.9,250.7,227.1,248.8,227.6,247z"/>
		</g>
		<g>
			<path fill="#C5BFBD" d="M99.7,147.9c-0.6,2.3-1,4.6-1.1,6.9c-0.1,2.3-0.1,4.6,0.3,6.8c0.8,4.4,2.4,8.7,4.5,12.6
				c4.2,7.9,10.5,14.3,17.9,19.3c1.8,1.3,3.7,2.4,5.7,3.6c1.9,1.1,3.8,2.2,5.8,3.1c4,1.9,8.2,3.5,12.4,4.8
				c8.5,2.6,17.3,3.8,26.2,3.7c2.2,0,4.4-0.1,6.7-0.3c2.2-0.1,4.4-0.4,6.6-0.7c4.4-0.6,8.8-1.5,13.1-2.6c2.2-0.6,4.3-1.2,6.4-2
				c2.2-0.8,4.4-1.5,6.4-2.3c4.1-1.6,8-3.6,11.7-6c0.9-0.6,1.8-1.2,2.7-1.9c1-0.7,1.9-1.3,2.8-2c1.8-1.3,3.4-2.8,5-4.3
				c3.1-3,5.7-6.5,7.8-10.5c2.1-3.9,3.4-8.2,3.9-12.7c0.3-2.3,0.3-4.6,0.1-6.9c-0.1-2.3-0.5-4.6-1.1-7c4.6,8.3,5.5,19.1,2,28.7
				c-0.4,1.2-0.9,2.4-1.4,3.5c-0.5,1.2-1.1,2.3-1.7,3.4c-1.2,2.2-2.7,4.3-4.3,6.3c-1.6,2-3.4,3.8-5.2,5.5c-0.9,0.8-1.8,1.7-2.7,2.4
				c-0.9,0.8-1.9,1.6-2.9,2.4c-2,1.6-4.1,3-6.2,4.3c-2.2,1.3-4.4,2.5-6.7,3.5c-2.3,1.1-4.5,2-6.7,2.9c-2.3,0.9-4.6,1.8-7,2.5
				c-4.7,1.5-9.6,2.6-14.5,3.4c-2.5,0.4-4.9,0.6-7.4,0.8c-2.4,0.2-4.9,0.3-7.4,0.4c-20.1,0.3-40.2-6.6-55.5-19.3
				c-3.9-3.2-7.4-6.8-10.4-10.8c-1.5-2-2.9-4.1-4.1-6.4c-1.2-2.2-2.2-4.5-3.1-6.8c-1.7-4.7-2.7-9.6-2.6-14.6
				C96,156.9,97.4,152.1,99.7,147.9z"/>
		</g>
		<path fill="none" stroke="#C5BFBD" stroke-width="11.0419" stroke-miterlimit="10" d="M132.9,212.2c8.7,3.6,25,9,45.9,7.5
			c14.9-1,26.6-5.1,34.2-8.5"/>
		<path fill="#C5BFBD" d="M57.2,239.2c-3.8,0-6.4,3.3-6.8,3.8c-1.7,2.2-2.1,4.5-2.2,5.5c-0.4,2.7,0.2,4.9,0.5,5.9
			c0.3,1.1,0.9,2.9,2.4,4.6c0.6,0.7,1.4,1.6,2.8,2.1c1.3,0.5,2.3,0.4,3.1,0.3c0.8-0.1,1.9-0.4,4-1.2c2.7-1,3.3-1.2,4.4-1.3
			c1.8-0.2,2.7,0.1,2.9,0.2c1,0.4,1.6,1.1,2.1,1.8c2.4,3,3.3,5.9,3.3,5.9c0.7,2.3,0.8,3.8,1.1,7.1c0.5,6,0.7,9,0.9,9.7
			c1,5,3.4,8.4,5.2,11c2.9,4.2,5.9,6.7,7.8,8.2c4.1,3.4,5.7,3.4,7,4.7c0.1,0.1,0.5,0.5,1,0.5c0.7,0,1.6-0.7,1.7-1.3
			c0.2-1.4-3.7-2.4-8.5-6c-3.2-2.4-5.1-4.6-5.6-5.3c-0.9-1.1-3.3-4.2-5-9c-1-2.8-1.3-5.9-2-12c-0.9-8.6-0.5-9.6-1.8-12.5
			c-0.9-2.2-3-6.8-7-7.9c-4.7-1.3-8.3,3.2-12.3,1c-1.8-1-2.5-2.7-2.7-3.1c-1.4-3.4,0.9-7,1.2-7.3c2-3,5.3-3.8,5-4.7
			C59.3,239.2,57.5,239.2,57.2,239.2z"/>
		<path fill="#C5BFBD" d="M93,115.6c0.3,0,0.3,1.9,0.5,24.1c0,5.9,0.1,11.6-0.8,19c-0.6,5.4-1.3,8.4-2.1,11.1
			c-1.1,3.7-2.2,7.6-5.2,11.8c-3.8,5.3-8.2,8-9.6,8.8c-1.8,1-4.1,2.1-7,2.9c-2.6,0.7-5.3,1.4-8.7,0.7c-1.3-0.3-4.1-0.8-6.5-3.2
			c-2.3-2.3-3-5-3.6-7.9c-0.6-2.6-0.8-5.4-0.5-10.1c0.6-8.1,2.3-14.1,2.7-15.6c0.9-3.1,2.5-8.4,6.1-14.6c4.3-7.4,9.8-13.3,10.4-12.9
			c0.8,0.5-7.2,10.4-11.6,26.5c-0.9,3.4-1.7,7.3-1.6,12.1c0.1,4.4,0.3,13.4,5.1,15.9c5.6,3,15.6-4.1,20.6-10.5c0,0,7.4-9.4,8.7-27.6
			c0.1-1.1,0.1-2.2,0.1-2.2c0.1-2.6,0-3.9,0.4-9.1C91,126.1,92.3,115.5,93,115.6z"/>
		<path fill="#C5BFBD" d="M253.1,114.5c-0.3,0-0.4,1.9-1.7,24c-0.4,5.9-0.7,11.5-0.3,19c0.3,5.4,0.8,8.5,1.5,11.2
			c0.9,3.8,1.8,7.7,4.6,12.1c3.5,5.5,7.8,8.4,9.1,9.3c1.7,1.1,4,2.3,6.8,3.2c2.6,0.8,5.2,1.7,8.7,1.2c1.3-0.2,4.2-0.6,6.7-2.8
			c2.5-2.1,3.2-4.8,4-7.7c0.7-2.5,1.1-5.3,1-10c-0.1-8.1-1.5-14.2-1.9-15.7c-0.7-3.1-2.1-8.5-5.3-14.9c-3.9-7.6-9.1-13.8-9.7-13.4
			c-0.8,0.5,6.7,10.8,10.2,27c0.8,3.5,1.3,7.4,1,12.1c-0.3,4.4-1.1,13.4-5.9,15.6c-5.7,2.7-15.3-4.9-20-11.6c0,0-6.9-9.8-7.2-28
			c0-1.1,0-2.3,0-2.3c0-2.6,0.2-3.9,0.1-9.1C254.5,125.1,253.8,114.5,253.1,114.5z"/>
		<path fill="#C5BFBD" d="M96.4,103.6c2-8,3.1-9.9,4.5-11.4c1.5-1.6,2.3-1.7,2.5-1.7c1.7-0.1,2.2,1.7,5,3.9c0.8,0.7,3.1,2.1,7.7,4.8
			c0.9,0.6,1.7,1,2.2,1.3c0.6-0.1,1.3-0.2,1.7,0.2c0.7,0.8-0.3,3.6-2,4.2c-2.4,0.8-4.2-3.8-10.6-6.1c-1.9-0.7-4.7-1.6-6.3-0.3
			c-1.3,1-0.7,2.6-2.5,5.6c-0.9,1.5-2.3,3.1-2.7,2.9C95.6,106.9,95.8,105.9,96.4,103.6z"/>
		<path fill="#C5BFBD" d="M250.7,103.9c-1.2-8.2-2.1-10.2-3.3-11.8c-1.3-1.7-2.1-1.9-2.3-1.9c-1.7-0.3-2.4,1.5-5.3,3.4
			c-0.9,0.6-3.3,1.7-8.1,3.9c-1,0.5-1.8,0.8-2.3,1.1c-0.6-0.2-1.3-0.3-1.7,0c-0.8,0.7,0,3.6,1.5,4.4c2.3,1.1,4.6-3.4,11.2-4.9
			c2-0.5,4.8-1.1,6.3,0.3c1.2,1.2,0.4,2.7,1.9,5.9c0.7,1.6,1.9,3.3,2.4,3.2C251.1,107.3,251,106.3,250.7,103.9z"/>
		<path fill="#C5BFBD" d="M154.6,265.7c-0.4,0,0.1,4.1,0.1,9.6c0,0,0.2,18.5,2.8,21.1c0.3,0.3,0.6,0.5,0.6,0.5
			c0.6,0.4,1.2,0.4,3.5,1.8c2.5,1.5,5.8,3.6,8,7.1c1.8,2.9,1.5,4.9,2.5,5c1.5,0.2,1.4-4.2,5.4-7.8c1.6-1.5,4.6-4.2,7.9-5.1
			c0.4-0.1,1.5-0.4,2.3-1.3c0.8-1.1,0.7-2.5,0.7-3c-0.4-4.7,2.1-7.7,1.9-19.7c0-0.5-0.1-6.5-0.6-6.6c-0.8,0,1,15.6-7.9,24
			c-1,1-4.7,4.4-9.4,4.1c-1.4-0.1-3.9-0.5-7.1-3.3C155.2,283.5,155.3,265.6,154.6,265.7z"/>
		<path fill="#C5BFBD" d="M122.4,253.8c-0.8,0-0.9,16.3,0.1,30.1c0,0,0.7,10.9,6.6,18.3c0.3,0.3,0.9,1,1.7,1.1
			c1.7,0.2,3.7-2,3.5-3.6c-0.2-1-1.3-1.7-1.5-1.8c-2.1-1.2-5-9.4-9.4-33.7C122.9,255.7,122.6,253.8,122.4,253.8z"/>
		<path fill="#C5BFBD" d="M223.4,252.4c0.8,0,0.9,16.3-0.1,30.1c0,0-0.7,10.9-6.6,18.3c-0.3,0.3-0.9,1-1.7,1.1
			c-1.7,0.2-3.7-2-3.5-3.6c0.2-1,1.3-1.7,1.5-1.8c2.1-1.2,5-9.4,9.4-33.7C222.8,254.3,223.1,252.4,223.4,252.4z"/>
		<path fill="#C5BFBD" d="M206.8,312.7c-0.3-0.3-5.2,3.5-8.1,9.6c0,0-2.5,5.1-1.2,9.2c0.1,0.4,0.4,1.4,1.2,1.7
			c0.5,0.2,1.1,0.1,1.4-0.1c1.5-0.8,0-4.9,0.2-8.5C200.6,317.5,207.2,313,206.8,312.7z"/>
		<path fill="#C5BFBD" d="M106,312.9c-0.3-0.2-4,2.8-6.3,7.7c0,0-1.9,4.1-1,7.5c0.1,0.3,0.3,1.1,1,1.4c0.4,0.2,0.9,0.1,1.1-0.1
			c1.2-0.6,0-4,0.2-6.9C101.2,316.8,106.3,313.2,106,312.9z"/>
		<path fill="#C5BFBD" d="M118.9,311.4c-0.3-0.3-4.6,3.6-7.3,9.8c0,0-2.2,5.2-1.1,9.5c0.1,0.4,0.4,1.4,1.1,1.8
			c0.5,0.2,1,0.1,1.3-0.1c1.4-0.8,0-5.1,0.2-8.8C113.3,316.3,119.3,311.7,118.9,311.4z"/>
		<path fill="#C5BFBD" d="M139.4,313.4c0.3-0.3,4.8,3.5,7.5,9.4c0,0,2.3,5,1.1,9.1c-0.1,0.4-0.4,1.4-1.1,1.7c-0.5,0.2-1,0.1-1.3-0.1
			c-1.4-0.8,0-4.8-0.2-8.4C145.2,318.1,139.1,313.7,139.4,313.4z"/>
		<path fill="#C5BFBD" d="M158.7,307.5c0.3-0.3,4,4.2,6.3,11.4c0,0,1.9,6.1,1,11c-0.1,0.5-0.3,1.7-1,2c-0.4,0.2-0.9,0.1-1.1-0.1
			c-1.2-1,0-5.9-0.2-10.2C163.5,313.3,158.4,307.9,158.7,307.5z"/>
		<path fill="#C5BFBD" d="M188.1,307c-0.3-0.3-4,4.2-6.3,11.4c0,0-1.9,6.1-1,11c0.1,0.5,0.3,1.7,1,2c0.4,0.2,0.9,0.1,1.1-0.1
			c1.2-1,0-5.9,0.2-10.2C183.2,312.8,188.4,307.4,188.1,307z"/>
		<path fill="#C5BFBD" d="M227.2,312.1c0.3-0.3,4.5,3.6,7.1,9.9c0,0,2.2,5.2,1.1,9.5c-0.1,0.4-0.4,1.4-1.1,1.8
			c-0.5,0.2-1,0.1-1.2-0.1c-1.3-0.8,0-5.1-0.2-8.8C232.6,317.1,226.9,312.4,227.2,312.1z"/>
		<path fill="#C5BFBD" d="M239.2,312.1c0.3-0.3,4.5,3.1,7.1,8.5c0,0,2.2,4.5,1.1,8.2c-0.1,0.4-0.4,1.2-1.1,1.5
			c-0.5,0.2-1,0.1-1.2-0.1c-1.3-0.7,0-4.4-0.2-7.6C244.6,316.4,238.9,312.4,239.2,312.1z"/>
	</g>
</g>
<path clip-path="url(#SVGID_2_)" fill="#6F6052" d="M172.4,135.1c0.1,0-19.7,2.9-26.8,17.3c-5.9,12.1-3.7,17.5-2,19.9
	c2.8,3.7,7,5,11.9,6.2c4,0.9,17.1-0.2,16.9-1.3C172.2,176.2,172.4,135.1,172.4,135.1z"/>
<path clip-path="url(#SVGID_2_)" fill="#6F6052" d="M172.4,135.1c-0.1,0,19.7,2.9,26.8,17.3c5.9,12.1,3.7,17.5,2,19.9
	c-2.8,3.7-7,5-11.9,6.2c-4,0.9-17.1-0.2-16.9-1.3C172.5,176.2,172.4,135.1,172.4,135.1z"/>
<path clip-path="url(#SVGID_2_)" fill="#6F6052" d="M129.3,220.2c2.6-1.2,6.6,0.9,8.7,3.5c1.9,2.4,2.1,5,2.1,5.9
	c0,0.7,0.2,5.1-2.6,7.5c-1.2,1-2.6,1.4-4.8,2.1c-2.1,0.6-2.3,0.4-3.6,1c-1.6,0.7-2.5,1.6-4.1,3.2c-0.9,0.9-2.1,2.1-3.4,4.1
	c-1.7,2.5-2,4.1-2.5,4c-0.6-0.1-0.8-2.5-0.8-4.5c0-2.1,0.4-5.8,3.5-12.5c2-4.3,2.2-3.5,4.1-7.7C127.7,222.4,127.8,220.9,129.3,220.2
	z"/>
<path clip-path="url(#SVGID_2_)" fill="#6F6052" d="M123.3,264c0,0,4.8-2.1,6.9-1.1c2.2,1,3,3.1,4.2,6.6c0.8,2.3,1.9,5.3,0.4,6.7
	c-0.7,0.7-1.8,0.8-2.6,0.7c-2.2-0.4-2.4-3-4.4-3.4c-1.4-0.3-2.9,0.6-2.9,0.6L123.3,264z"/>
<path clip-path="url(#SVGID_2_)" fill="#6F6052" d="M131.9,295.5c0.4-1.4,3.6-2.1,6.1-1.2c2.5,0.9,3.3,3.3,3.4,3.5
	c1.1,3.1-1,5.8-1.1,5.9c-1.5,1.8-2.7,1-5.7,3.3c-1.2,0.9-1,1-4.3,3.9c-2.1,1.8-2.8,2.4-3.7,2.2c-1.1-0.2-2.1-1.4-2-2.4
	c0-0.8,0.7-1.2,1.5-1.9c2.3-2.1,1.7-2.8,3.9-5.1c2.4-2.5,3.9-2.2,4.2-3.6C134.4,298.2,131.5,297,131.9,295.5z"/>
<path clip-path="url(#SVGID_2_)" fill="#6F6052" d="M213.8,221.3c-1.9-0.2-6-0.8-8.6,1.8c-2.8,2.9-2.5,8.4-0.3,10.1
	c1.3,1,2.9,0.2,5.6,1.8c1.1,0.6,0.8,0.8,2,1.5c1.2,0.7,3.8,0.9,5,2.3c0.7,0.9,0.1,1.3,0.7,2.4c1.2,2,3.6,1.2,4.9,2.8
	c1.8,2.2-1,5.8,0.7,7.3c0.9,0.8,3,0.6,4-0.4c1.5-1.6,0.1-5.1-1.6-9.5c-2.1-5.1-2.7-4.5-4.4-8.8c-2.3-5.8-2.2-9.2-5.2-10.7
	C215.7,221.6,215,221.5,213.8,221.3z"/>
<path clip-path="url(#SVGID_2_)" fill="#6F6052" d="M222.6,258.4c-1.4-1.9-6.3-1.7-9.3,0.6c-4.4,3.3-4.9,10.7-2.4,12.9
	c1.4,1.2,2.8,0.2,4.8,1.7c2.5,1.9,2.3,5.3,3.1,5.3c0.4,0,0.8-0.7,1.8-6.4c0.6-3.4,0.6-3.7,1.1-6.4
	C222.7,260.1,223.3,259.3,222.6,258.4z"/>
<path clip-path="url(#SVGID_2_)" fill="#6F6052" d="M212.4,297c-0.3-1.7-6.7-3.6-11.3-1c-4.5,2.5-6.6,9-4.7,11.2
	c1.8,2.1,5.7-1.2,11.2,1.3c3.1,1.4,2.9,2.9,6.9,4.7c2.7,1.2,6.9,2.4,7.9,1.1c0.5-0.8-0.3-2.1-1.9-4.9c-2.1-3.6-3.1-5.3-5.1-7
	c-1.7-1.5-3.5-2.4-3.4-4C212.1,297.7,212.5,297.5,212.4,297z"/>
<path clip-path="url(#SVGID_2_)" fill="#6F6052" d="M97.7,308.9c0,1.3,1,2.7,2.3,3.2c2.3,0.8,3.6-2,7.2-2.5c4.4-0.6,6.9,2.9,8.6,1.5
	c1.3-1,1.2-4.2-0.1-5.2c-0.8-0.6-1.3,0-3.1-0.1c-3.3-0.2-4.3-2.5-7.2-2.3c-0.7,0.1-1.2,0.3-2.2,0.7
	C101.6,304.9,97.8,306.5,97.7,308.9z"/>
<path clip-path="url(#SVGID_2_)" fill="#6F6052" d="M229.8,307.9c-0.3,1,1.3,2.4,2.8,3.1c1.7,0.7,2.6,0,6.3-0.4
	c3.1-0.3,3.6,0,6.9-0.4c2.4-0.3,4.5-0.6,4.6-1.3c0.1-0.7-1.7-0.9-5.1-3c-2.2-1.4-2.7-2.1-4-2.1c-1.3,0-1.9,0.7-3.5,1.5
	C233.4,307.6,230.1,306.6,229.8,307.9z"/>
<path clip-path="url(#SVGID_2_)" fill="#6F6052" d="M168.3,304c-1.1,0-2.2,1.1-2.6,2.2c-0.2,0.5-0.4,1.4,2.1,6.4
	c1.5,3,2.1,3.7,3.1,4.1c0.9,0.4,2.4,0.6,3.1-0.1c0.4-0.4,0.6-1.2-1.6-6.3C169.7,304.3,168.7,304,168.3,304z"/>
<path clip-path="url(#SVGID_2_)" fill="#6F6052" d="M143.5,80.5c0.9,0,4.6,0.1,5.6,2.2c0.4,0.9,0.2,1.9,0,2.8
	c-0.1,0.4-1,4.1-3.5,4.8c-2,0.6-2.7-1.4-5.4-1.3c-1.4,0-2.9,1-5.8,2.8c-3.1,2-3.2,2.4-5,3.3c-2.4,1.2-6.3,2.4-7,1.4
	c-1.1-1.7,7.7-9.2,8.3-9.6C138.3,80.6,142.3,80.5,143.5,80.5z"/>
<path clip-path="url(#SVGID_2_)" fill="#6F6052" d="M154.9,281.4c0,0,0.1-8.3,0.1-14.1c0-7.6-0.1-7.1,0-8.1
	c0.8-7.8,7.6-19.1,17-19.4c10-0.2,17.5,12.1,18,20.6c0.1,1.6-0.2,1.5-0.3,6.8c0,1.6-0.2,6.7,0.1,14.9c0.2,7,0.6,11.4-1.6,13.3
	c-0.4,0.3-2.8,2.4-2.8,2.4l0,0c-2.3,1.4-3.4,0.9-5.2,2.1c-0.5,0.4-1,0.8-3.2,4c-1.9,2.9-2.5,2.8-3,4.7c-0.3,1.1-0.3,1.8-0.6,1.9
	c-0.5,0.1-0.8-1.7-2-3.8c-1.3-2.4-3-3.9-3.6-4.4c-2.2-1.9-4.6-2.9-5.3-3.2c-1.8-0.7-3.2-1-4.4-2.4c-0.5-0.6-0.8-1.1-1-1.7
	C154.9,290.1,154.9,281.4,154.9,281.4z"/>
<path clip-path="url(#SVGID_2_)" fill="#6F6052" d="M98.6,151.9c1.9-2.1,6-1.2,7.1-1c4.3,0.9,6.7,4,7.4,5c0.3,0.5,2.4,3.3,2.6,7.3
	c0.1,1.6,0.2,3.4-1,4.5c-1.3,1.1-3.3,0.7-4.3,0.5c-2.6-0.5-2.6-1.7-4.8-2.5c-4-1.3-9,1-9,1c0,0,0,0,0,0c-0.9-1.5-0.9-3.1-0.5-5.4
	c0.1-0.9,0.4-2.2,1-4.7C97.8,153.7,98.2,152.4,98.6,151.9z"/>
<path clip-path="url(#SVGID_2_)" fill="#6F6052" d="M245.7,154.6c-0.4-0.2-1-0.1-1.4,0.1c-1.3,0.7-0.2,3-1,5.6
	c-1.1,3.6-4.6,5.5-5,5.6c-2.3,1.2-3.4,0.6-4.1,1.7c-1.1,1.7,0.7,5.2,3,7.1c0.7,0.6,3.1,2.6,6.1,1.8c3-0.8,4.3-3.8,4.5-4.3
	c0.8-2,0.2-2.9-0.3-7.8C246.8,158.3,247.3,155.2,245.7,154.6z"/>
<path clip-path="url(#SVGID_2_)" fill="#6F6052" d="M121.2,95.2c-0.3-1.3-1.4-1.7-3.2-3c-4.3-3.1-3.3-5.2-7.6-8.5
	c-1.8-1.4-3.6-2.7-6.1-2.8c-2.4-0.1-4.1,1.2-6.2,2.5c0,0-5.2,3.4-14.6,8.2c-5.7,2.9-7,2.8-9,5.1c-2.5,2.9-3.2,6.1-3.7,8.6
	c-1.2,6.2,0.7,7.8-0.4,15.1c-0.3,2.1-0.7,4.7-2,7.7c-2.1,4.7-4.5,6.1-7.6,10.3c-3.6,4.6-5.2,8.8-7,13.5c-2.8,7.4-3.6,13.3-4,16.9
	c-0.4,3.3-0.9,8.9,0.4,15c0.4,2.1,1.1,4.3,2.9,6.2c1.8,2,4,2.8,4.9,3.1c3.4,1.2,6.2,0.7,8.8,0.3c4.4-0.7,7.5-2.4,9-3.3
	c3.5-2,5.9-4.3,7.1-5.7c0.6-0.6,2.7-3,4.7-6.8c2-3.9,2.7-7.1,3.7-11.9c0.7-3.2,1.3-6.9,1.7-11.6c0.1-1.4,0.4-5.1,0.3-16.3
	c-0.1-10.3-0.4-11.7,0-17.2c0.3-4.4,0.5-7.4,1.5-11.4c1.6-6.7,2.9-6,3.6-11.1c0.2-1.6,0.4-4.1,2.3-6.1c0.4-0.5,1.5-1.5,2.8-1.5
	c1.3,0,2,1,3.1,2.1c0,0,4,4.1,9.4,6.3c0.5,0.2,3,1.2,3,1.2l0,0C119.1,100.4,121.6,97.4,121.2,95.2z"/>
<path clip-path="url(#SVGID_2_)" fill="#6F6052" d="M223.7,94.8c0.3-1.8,2.5-1.8,5.9-4.3c4.2-3,3.7-5,8.2-8c1.8-1.2,3.8-2.5,6.3-2.4
	c2.4,0.1,4.1,1.4,6,2.9c0,0,4.9,3.7,14,9.2c5.5,3.3,6.8,3.3,8.6,5.7c2.3,3.1,2.9,6.6,3.1,8.8c0.7,7.6-0.8,9,0,15.7
	c0.3,2.3,0.5,4.7,1.7,7.6c1.8,4.7,3.6,4.9,7.2,10.6c1.1,1.7,4.3,6.9,6.2,14c0.6,2.1,0.9,3.8,1.2,5.6c0.9,5,1.2,9.1,1.3,11.2
	c0.4,7.8,0.7,11.7-1.2,15.5c-1.6,3.2-3.8,5.1-4.3,5.4c-1,0.8-2.7,2.2-5.1,2.8c-3,0.8-5.4,0-8.8-1c-1.2-0.4-4.6-1.4-8.4-4
	c-1.8-1.2-4.1-2.6-6.3-5.3c-2.1-2.5-3-4.7-4.1-7.3c-2-4.6-2.7-8.5-3.1-11.4c-0.2-0.9-0.7-4.3-0.8-8.7c-0.1-1.8,0-3.1,0-4
	c0.2-9.8,0.5-10.8,0.5-15.4c0-7.6-0.7-9.5,0.5-14.2c0.3-1.4,0.6-1.9,0.8-3.4c0.2-1.3,0.9-5.9-0.7-11.1c-0.5-1.7-0.9-2.4-1.2-4.1
	c-0.2-1.8,0-2.5-0.3-4.1c-0.3-1.3-0.5-1.3-1.5-3.6c-1.5-3.6-1.3-4.6-2.6-6c-0.6-0.7-1.4-1.6-2.7-1.7c-1.3,0-2.1,0.9-3.2,1.9
	c0,0-4.2,3.8-9.8,5.7c-0.5,0.2-3.1,1-3.1,1c-0.3,0.3-0.7,0.5-1.2,0.5C225.2,99.1,223.4,96.6,223.7,94.8z"/>
<path clip-path="url(#SVGID_2_)" fill="#6F6052" d="M61,239.3c-2.2,1.1-2.6,4.1-2.9,6c-0.3,1.9-0.8,5.2,1.1,7.3
	c2.1,2.4,4.5,0.1,10.1,2.7c0.9,0.4,2.7,1.4,5.1,1.2c0.8,0,1.6-0.1,2.3-0.7c1.8-1.5,1-5,0.9-5.3c-0.5-2-1.8-3.2-4.3-5.7
	c-1.6-1.6-2.7-2.6-4.4-3.6C66.5,239.9,63.4,238.1,61,239.3z"/>
<path clip-path="url(#SVGID_2_)" fill="#6F6052" d="M81.7,273.8c-0.7-0.2-1.8,1.2-2.2,2c-1.2,2.2-0.7,4.9,0.6,6.5
	c0.5,0.7,1.5,1.6,2.1,1.3c0.5-0.2,0.3-1.2,0.3-2.2C81.9,275.9,82.5,274,81.7,273.8z"/>
<path clip-path="url(#SVGID_2_)" fill="#6F6052" d="M154.4,76.2c0,0,2.5-0.3,6.1-1.6c3-1.2,4.9-3.3,6.2-4.9c1-1.1,3.1-4,4.2-8.2
	c0.7-2.9,0.6-5.4,0.6-6.3c-0.1-1.6-0.2-1.7-0.7-6.1c-0.5-4.7-0.2-3.7-0.3-4.2c-0.1-0.3-0.2-0.6,0-0.7c0.4-0.3,2.3,1.7,3.6,3.5
	c1.5,2.1,2.2,4.1,2.8,5.7c0.5,1.6,1.3,3.9,1.4,7.1c0,1.1,0.1,2.9-0.4,5.1c-0.8,3.5-2.1,6.4-2.1,6.4c-0.5,1.2-1,2.2-0.6,2.7
	c0.4,0.5,1.6,0.1,2,0c1.4-0.5,2.3-1.4,3.7-3c1.8-2,2.6-3.1,3.2-3.9c1.8-2.6,2.5-4.3,3-4.1c0.4,0.1,0.4,0.9,0.5,1.6
	c0.2,2.1-0.5,3.8-0.7,4.2c-1.2,2.9-2.9,3-2.9,4.8c0,1,0.5,1.9,0,2.3c-0.3,0.3-0.8,0.2-1,0.2c-3.4-0.5-6.9-0.1-10.4-0.6
	c-1.6-0.2-5.7-0.7-10.5-0.1c-4.2,0.6-6.2,0.9-6.2,0.9c-2.5,0.5-4.6,1-4.8,0.6c-0.1-0.2,0.4-0.5,0.6-0.7
	C152.7,76,154,76.1,154.4,76.2z"/>
<path clip-path="url(#SVGID_2_)" fill="#584B40" d="M93,115.6c0.3,0,0.3,1.9,0.5,24.1c0,5.9,0.1,11.6-0.8,19
	c-0.6,5.4-1.3,8.4-2.1,11.1c-1.1,3.7-2.2,7.6-5.2,11.8c-3.8,5.3-8.2,8-9.6,8.8c-1.8,1-4.1,2.1-7,2.9c-2.6,0.7-5.3,1.4-8.7,0.7
	c-1.3-0.3-4.1-0.8-6.5-3.2c-2.3-2.3-3-5-3.6-7.9c-0.6-2.6-0.8-5.4-0.5-10.1c0.6-8.1,2.3-14.1,2.7-15.6c0.9-3.1,2.5-8.4,6.1-14.6
	c4.3-7.4,9.8-13.3,10.4-12.9c0.8,0.5-7.2,10.4-11.6,26.5c-0.9,3.4-1.7,7.3-1.6,12.1c0.1,4.4,0.3,13.4,5.1,15.9
	c5.6,3,15.6-4.1,20.6-10.5c0,0,7.4-9.4,8.7-27.6c0.1-1.1,0.1-2.2,0.1-2.2c0.1-2.6,0-3.9,0.4-9.1C91,126.1,92.3,115.5,93,115.6z"/>
<path clip-path="url(#SVGID_2_)" fill="#584B40" d="M253.1,114.5c-0.3,0-0.4,1.9-1.7,24c-0.4,5.9-0.7,11.5-0.3,19
	c0.3,5.4,0.8,8.5,1.5,11.2c0.9,3.8,1.8,7.7,4.6,12.1c3.5,5.5,7.8,8.4,9.1,9.3c1.7,1.1,4,2.3,6.8,3.2c2.6,0.8,5.2,1.7,8.7,1.2
	c1.3-0.2,4.2-0.6,6.7-2.8c2.5-2.1,3.2-4.8,4-7.7c0.7-2.5,1.1-5.3,1-10c-0.1-8.1-1.5-14.2-1.9-15.7c-0.7-3.1-2.1-8.5-5.3-14.9
	c-3.9-7.6-9.1-13.8-9.7-13.4c-0.8,0.5,6.7,10.8,10.2,27c0.8,3.5,1.3,7.4,1,12.1c-0.3,4.4-1.1,13.4-5.9,15.6
	c-5.7,2.7-15.3-4.9-20-11.6c0,0-6.9-9.8-7.2-28c0-1.1,0-2.3,0-2.3c0-2.6,0.2-3.9,0.1-9.1C254.5,125.1,253.8,114.5,253.1,114.5z"/>
<g id="form_1_" clip-path="url(#SVGID_2_)">
	<path fill="none" stroke="#231815" stroke-width="1.9805" stroke-linecap="round" stroke-linejoin="round" d="M159.2,75.2
		c-3.6,0.6-10.7,2.1-17.8,5.2c-6.2,2.7-9.4,5.4-9.7,5.6c-1.2,1-2.2,1.8-2.8,2.5c0,0,0,0,0,0c0,0-2.4,2.2-4.6,4.7
		c-1.5,1.8-7.5,12.2-12.4,27.7c-5.3,14.8-7.8,14.3-13.3,31c-2,6.1-3.8,12.2-2.4,19.6c0.8,4.1,2.4,8.4,5.3,12.8
		c2.6,4,14.1,18.1,25.9,24.1c8.8,4.6,21.7,10.7,43.3,10.8c18,0.1,33.6-2.9,54.6-15.2c8.1-4.7,14.7-10.2,18.9-19.7
		c4.4-9.8,4-20.3,2.2-27.2c-0.7-2.6-0.8-1.9-4.5-12c-1.4-3.8-2-5.7-3.4-9.6c-5.7-16.2-5.4-13.8-6.2-17.1c0,0-4.4-17.7-6.1-20.3
		c-0.5-0.7-1-1.5-1-1.5c0,0,0,0,0,0c-0.7-1-1.5-2-2.4-2.9c-2.1-2.2-4-3.8-5.3-4.8c-11.2-9-26.4-14.2-32.2-13
		c-0.3,0.1-1.7,0.3-2.1-0.2c-0.5-0.8,1.7-2.4,3.1-5.3c1.5-3.1,1.4-6.7,0.7-6.9c-0.9-0.3-2.5,5.2-8.3,9.8c-1.1,0.9-2.8,2.2-3.5,1.7
		c-1.1-0.8,1.8-5.4,2.6-10.3c1.9-10.6-5.9-21.1-7.5-20.6c-1.6,0.5,4.2,12.2-1.4,22.2C166.3,71.2,162,73.8,159.2,75.2z"/>
	<path fill="none" stroke="#231815" stroke-width="1.9805" stroke-linecap="round" stroke-linejoin="round" d="M133.9,212.2
		c0,0-11.8,19.9-13.7,28c-2.8,12.4-4.1,18.9-6.9,22.4c-11,13.7-14.6,17.5-15.7,26.4c-1.3,10.7,8.5,14.8,8.5,14.8s-9.9,1-12.8,12.6
		c-1.2,4.9-1.2,14,7.1,13.4c0.9-0.1,4.8,6.1,12.2,3c1.9-0.8,1.6,5,15.9,0.3c1.4-0.5,5.5,4.3,18.1-0.1c1-0.3,6,5.1,17.4-1.2
		c0.5-0.3,4.6,0.6,8.9-2.3c1.1-0.7,3.3,4.2,9.8,2.1c1.3-0.4,4,6,16.7,1.4c2-0.7,3.1,5.2,18-0.1c2.2-0.8,4.1,5.5,14.9,0.4
		c1.5-0.7,9.2,3.7,12.6-2.8c0.8-1.6,8.9,0.3,9.2-8.5c0.2-7.1-1.7-16.2-13.3-17.8c-2-0.3,9.5-2.9,8.1-16.1
		c-0.5-4.4-7.8-15.3-15.5-24.2c-2.1-2.4-6.6-20.9-7.6-24c-1.1-3.1-12.8-22.9-13.4-28.6"/>
	<g>
		<path fill="#231815" d="M122.2,251.1c0.4,4.2,0.9,8.4,1.5,12.6c0.6,4.2,1.4,8.3,2.3,12.4c0.9,4.1,2,8.2,3.4,12.1
			c1.4,3.9,3.1,7.8,5.3,11.3c0.3,0.4,0.2,1-0.2,1.3l0,0c-3.6,2.7-6.9,6.2-9.1,10.2c-1.1,2-1.9,4.2-2.1,6.4c-0.3,2.2,0,4.5,0.8,6.6
			c0.8,2.1,2,4.1,3.5,5.9c0.7,0.9,1.6,1.7,2.4,2.5c0.8,0.7,1.8,1.3,2.9,1.6c2.2,0.7,4.6,0.7,6.9,0.4c2.3-0.3,4.7-0.9,6.9-1.6
			c-2.2,1-4.5,1.7-6.8,2.2c-2.4,0.4-4.8,0.7-7.3,0c-1.2-0.3-2.4-0.9-3.4-1.7c-0.9-0.8-1.8-1.6-2.6-2.5c-1.6-1.8-3-3.9-4-6.2
			c-0.9-2.3-1.3-4.9-1.1-7.4c0.2-2.5,1-4.9,2.2-7.1c1.1-2.2,2.6-4.2,4.2-6c1.6-1.8,3.4-3.5,5.4-5l-0.3,1.3c-2.3-3.7-4-7.7-5.4-11.7
			c-1.3-4.1-2.4-8.2-3.2-12.4c-0.8-4.2-1.4-8.4-1.8-12.6C122.4,259.6,122.2,255.4,122.2,251.1z"/>
	</g>
	<g>
		<path fill="#231815" d="M223.3,249.5c0.1,4.2-0.2,8.5-0.6,12.7c-0.4,4.2-1,8.5-1.8,12.6c-0.8,4.2-1.8,8.3-3.2,12.4
			c-1.4,4.1-3.1,8-5.4,11.7l-0.2-1.3c1.9,1.6,3.5,3.3,5.1,5.2c1.5,1.9,2.9,3.9,4.1,6.1c1.1,2.2,2,4.5,2.3,7c0.4,2.5,0.2,5-0.6,7.4
			c-0.8,2.4-2.2,4.5-3.8,6.3c-0.8,0.9-1.7,1.7-2.6,2.5c-0.9,0.8-2,1.5-3.1,2c-2.3,1-4.8,1.2-7.2,0.8c-2.4-0.3-4.7-1.1-6.8-2.2
			c2.2,0.9,4.5,1.5,6.8,1.6c2.3,0.2,4.7-0.2,6.7-1.2c1-0.5,1.9-1.2,2.7-2c0.9-0.8,1.7-1.6,2.4-2.5c1.5-1.8,2.7-3.7,3.3-5.9
			c0.7-2.1,0.8-4.4,0.4-6.6c-0.4-2.2-1.2-4.4-2.2-6.4c-2.1-4-5.3-7.7-8.7-10.6l0,0c-0.4-0.3-0.5-0.9-0.2-1.3
			c2.2-3.5,3.9-7.3,5.3-11.3c1.4-3.9,2.5-8,3.4-12.1c0.9-4.1,1.7-8.3,2.3-12.4C222.4,257.9,222.9,253.7,223.3,249.5z"/>
	</g>
	<g>
		<path fill="#231815" d="M155.3,251.1l0.1,12c0,4,0.1,8,0.2,12c0.1,2,0.3,3.9,0.6,5.9l0.7,6c0.2,2,0.5,4,0.8,5.9
			c0.1,0.5,0.2,1,0.2,1.4c0.1,0.5,0.2,1,0.3,1.3c-0.4-0.3,0.3,0.1,0.7,0.2c0.5,0.2,0.9,0.4,1.4,0.6c3.7,1.7,7.2,4.3,9.7,7.7
			c2.5,3.3,4,7.3,4.6,11.4c0.6,4.1,0.4,8.1-0.2,12.2c-0.2,1.1-1,2.1-1.8,2.7c-0.9,0.6-1.9,1-2.8,1.2c-1,0.2-2,0.4-3,0.4
			c-0.5,0-1,0-1.5-0.1c-0.5-0.1-1-0.1-1.4-0.5c0.4,0.3,0.9,0.3,1.4,0.3c0.5,0,1,0,1.5-0.1c1-0.1,2-0.3,2.9-0.6
			c0.9-0.3,1.8-0.7,2.5-1.3c0.7-0.6,1.2-1.4,1.4-2.3c0.4-3.9,0.4-7.9-0.3-11.7c-0.7-3.8-2.2-7.5-4.6-10.5c-2.3-3-5.5-5.4-9-7
			l-1.3-0.6l-0.7-0.3c-0.1-0.1-0.2-0.1-0.5-0.3c-0.4-0.4-0.4-0.6-0.5-0.8c-0.2-0.6-0.3-1.1-0.4-1.6c-0.1-0.5-0.2-1-0.2-1.5
			c-0.3-2-0.5-4-0.7-6l-0.6-6c-0.1-1-0.2-2-0.3-3c-0.1-1-0.1-2-0.1-3.1C154,267.1,154.6,259.1,155.3,251.1z"/>
	</g>
	<g>
		<path fill="#231815" d="M191.6,249c-0.9,5.9-1.4,11.8-1.1,17.6c0,0.7,0.1,1.4,0.2,2.2c0.1,0.8,0.1,1.5,0.2,2.3
			c0.1,1.5,0.1,3,0.1,4.5c-0.1,3-0.2,6-0.4,8.9c-0.2,3-0.5,5.9-1,8.9c-0.1,0.7-0.3,1.5-0.5,2.2c-0.1,0.4-0.2,0.8-0.3,1.2
			c-0.1,0.2-0.2,0.4-0.3,0.6c-0.1,0.1-0.1,0.3-0.3,0.4c-0.1,0.1-0.1,0.2-0.3,0.3c-0.1,0.1-0.1,0.1-0.3,0.1c-0.1,0-0.3,0.1-0.4,0.1
			c-1.1,0-2.5,0.6-3.6,1.3c-2.4,1.5-4.6,3.4-6.4,5.6c-0.9,1.1-1.7,2.3-2.3,3.5c-0.6,1.2-1,2.6-0.8,3.8l0,0.1l0.9,6.2l0,0
			c0,0,0,0,0,0.1c-0.2,3.4-0.4,6.8-0.7,10.1c-0.1-3.4-0.1-6.8-0.2-10.2l0,0.1l-1.3-6.1l0,0.1c-0.5-1.7,0-3.4,0.6-4.8
			c0.6-1.4,1.5-2.7,2.4-4c1.9-2.4,4.1-4.5,6.7-6.2c1.3-0.8,2.8-1.6,4.6-1.6c-0.3,0-0.5,0.2-0.5,0.2c0,0,0,0,0,0
			c0-0.1,0.1-0.2,0.2-0.4c0.1-0.3,0.2-0.6,0.3-1c0.2-0.7,0.3-1.4,0.4-2.1c0.5-2.9,0.8-5.8,1-8.7c0.3-2.9,0.5-5.9,0.6-8.8
			c0.1-1.5,0.1-2.9,0.1-4.4c0-0.7,0-1.5-0.1-2.2c0-0.7-0.1-1.5-0.1-2.3c0-3,0.2-6,0.7-8.9C190.3,254.8,190.8,251.9,191.6,249z"/>
	</g>
	<g>
		<path fill="#231815" d="M162.3,331.3c0,0-0.1,0.1-0.1,0.1L162.3,331.3c0,0,0-0.1,0-0.2c0.1-0.2,0.1-0.5,0.2-0.7
			c0.1-0.5,0.1-1.1,0.2-1.6c0.1-1.1,0.1-2.2,0.1-3.4c0-2.3-0.2-4.5-0.5-6.8c-0.3-2.2-0.8-4.5-1.5-6.6c-0.4-1.1-0.8-2.1-1.4-3.1
			c-0.6-1-1.4-1.8-2.4-2.4c1,0.5,1.9,1.3,2.6,2.2c0.7,0.9,1.2,2,1.7,3c0.9,2.1,1.6,4.4,2,6.6c0.5,2.3,0.8,4.6,1,6.9
			c0.1,1.2,0.2,2.3,0.1,3.5c0,0.6,0,1.2-0.1,1.8c0,0.3-0.1,0.6-0.1,1c-0.1,0.2-0.1,0.3-0.2,0.6c0,0.1-0.1,0.2-0.1,0.3
			c-0.1,0.2-0.2,0.3-0.4,0.4c-0.4,0.3-1.1,0.3-1.4-0.2C161.8,332.3,161.9,331.7,162.3,331.3z"/>
	</g>
	<g>
		<path fill="#231815" d="M145.3,332.6c-0.1,0.1-0.1,0.3-0.1,0.2c0,0,0,0,0-0.1c0-0.1,0-0.2,0-0.3c0-0.2,0-0.4,0-0.6
			c0-0.4,0-0.9-0.1-1.3c-0.1-0.9-0.2-1.8-0.3-2.7c-0.2-1.8-0.6-3.6-1-5.4c-0.4-1.8-1-3.5-1.8-5.2c-0.8-1.6-1.8-3.3-3.4-4.2
			c1.7,0.8,2.9,2.4,3.9,4c0.9,1.6,1.7,3.4,2.3,5.2c0.6,1.8,1.1,3.6,1.5,5.4c0.2,0.9,0.4,1.8,0.5,2.8c0.1,0.5,0.1,0.9,0.2,1.4
			c0,0.2,0,0.5,0.1,0.7c0,0.1,0,0.3,0,0.4c0,0.1,0,0.2,0,0.3c0,0-0.1,0.4-0.2,0.6c-0.3,0.4-0.9,0.6-1.4,0.2
			C145.1,333.7,145,333.1,145.3,332.6z"/>
	</g>
	<g>
		<path fill="#231815" d="M232.6,332.7c-0.2,0.3-0.1,0.2-0.1,0.1c0-0.1,0-0.2,0-0.3c0-0.2,0-0.4,0-0.7c0-0.5,0-0.9,0-1.4
			c0-0.9-0.1-1.9-0.2-2.9c-0.2-1.9-0.5-3.8-0.9-5.7c-0.4-1.9-0.9-3.7-1.6-5.5c-0.7-1.7-1.6-3.6-3.3-4.6c0.9,0.4,1.6,1.1,2.2,1.9
			c0.6,0.8,1.1,1.6,1.5,2.5c0.9,1.8,1.5,3.6,2.1,5.5c0.6,1.9,1,3.8,1.4,5.7c0.2,1,0.3,1.9,0.5,2.9c0.1,0.5,0.1,1,0.2,1.5
			c0,0.3,0,0.5,0.1,0.8c0,0.1,0,0.3,0,0.4c0,0.2,0.1,0.3-0.2,0.8c-0.3,0.5-0.9,0.6-1.4,0.3C232.5,333.8,232.3,333.1,232.6,332.7z"/>
	</g>
	<g>
		<path fill="#231815" d="M243.5,330.6C243.5,330.6,243.5,330.6,243.5,330.6l0.1-0.3c0.1-0.2,0.1-0.4,0.2-0.6
			c0.1-0.4,0.2-0.8,0.3-1.3c0.1-0.9,0.2-1.7,0.3-2.6c0.1-1.7,0-3.5-0.3-5.2c-0.3-1.7-0.9-3.4-1.8-4.9c-1-1.5-2.3-2.7-3.8-3.6
			c1.6,0.8,3.1,1.9,4.2,3.3c1.1,1.5,1.9,3.2,2.4,4.9c0.5,1.8,0.8,3.6,0.8,5.5c0,0.9,0,1.8-0.1,2.8c-0.1,0.5-0.1,0.9-0.2,1.4
			c0,0.2-0.1,0.5-0.1,0.7l-0.1,0.4c0,0.2-0.1,0.4-0.2,0.6c-0.1,0.3-0.5,0.4-0.8,0.3c-0.1-0.1-0.2-0.2-0.3-0.3L243.5,330.6z"/>
	</g>
	<g>
		<path fill="#231815" d="M199,332.6c-0.1-2,0.1-3.8,0.3-5.7c0.3-1.9,0.7-3.7,1.3-5.5c0.6-1.8,1.5-3.5,2.6-5c1.1-1.5,2.5-2.8,4-3.8
			c-1.4,1.2-2.7,2.5-3.6,4.1c-0.9,1.6-1.6,3.3-2,5c-0.4,1.8-0.7,3.5-0.8,5.3c-0.1,1.8-0.1,3.6,0.2,5.3l0,0c0.1,0.5-0.3,1-0.9,1.1
			C199.6,333.6,199.1,333.3,199,332.6C199,332.7,199,332.7,199,332.6z"/>
	</g>
	<g>
		<path fill="#231815" d="M182.3,331.2c-0.1-2.3-0.1-4.5,0.1-6.8c0.2-2.3,0.4-4.5,0.9-6.7c0.5-2.2,1.1-4.4,2.2-6.4
			c1-2,2.6-3.8,4.6-4.8c-2,1.1-3.3,3-4.2,5c-0.9,2-1.3,4.2-1.6,6.4c-0.3,2.2-0.4,4.4-0.4,6.6c0,2.2,0.2,4.4,0.4,6.6l0,0
			c0.1,0.5-0.3,1-0.9,1.1S182.4,331.9,182.3,331.2C182.3,331.3,182.3,331.3,182.3,331.2z"/>
	</g>
	<g>
		<path fill="#231815" d="M112.1,332.6c-0.1-2.1,0-4,0.1-6c0.2-2,0.5-4,1-5.9c0.5-1.9,1.3-3.8,2.4-5.5c1.1-1.7,2.6-3.1,4.4-3.9
			c-1.7,1-3.1,2.4-4,4.2c-0.9,1.7-1.5,3.6-1.8,5.5c-0.3,1.9-0.5,3.8-0.5,5.8c0,1.9,0.1,3.9,0.3,5.7l0,0c0.1,0.5-0.3,1-0.8,1.1
			S112.2,333.3,112.1,332.6C112.1,332.7,112.1,332.7,112.1,332.6z"/>
	</g>
	<g>
		<path fill="#231815" d="M100.4,330.6c-0.3-1.8-0.4-3.5-0.3-5.3c0.1-1.7,0.2-3.5,0.7-5.2c0.5-1.7,1.2-3.3,2.2-4.7
			c1.1-1.4,2.5-2.4,4-3.2c-1.5,0.9-2.7,2-3.6,3.4c-0.8,1.4-1.4,3-1.6,4.6c-0.3,1.6-0.3,3.3-0.2,4.9c0.1,1.6,0.4,3.3,0.8,4.8l0,0
			c0.1,0.5-0.2,1.1-0.7,1.2C101.1,331.6,100.6,331.3,100.4,330.6C100.4,330.7,100.4,330.7,100.4,330.6z"/>
	</g>
	<path fill="none" stroke="#231815" stroke-width="1.9805" stroke-linecap="round" stroke-linejoin="round" d="M105.4,303.6
		c0,0,10.8,5.1,22.4,2.3"/>
	<path fill="none" stroke="#231815" stroke-width="1.9805" stroke-linecap="round" stroke-linejoin="round" d="M241.4,303.8
		c0,0-12.3,6.4-22.4,3"/>
	<path fill="#1B110F" stroke="#231815" stroke-width="1.1047" stroke-linecap="round" stroke-linejoin="round" d="M189.6,324.7
		c-0.5,2.2,1,4.7,2,4.8c1.8,0.1,3.6-6.6,2.1-7.6C192.8,321.3,190.2,322.4,189.6,324.7z"/>
	<path fill="#1B110F" stroke="#231815" stroke-width="1.1047" stroke-linecap="round" stroke-linejoin="round" d="M176.6,322.7
		c-0.3,1.4,0.7,3.1,1.4,3.1c1.2,0.1,2.3-4.3,1.3-4.9C178.7,320.6,176.9,321.3,176.6,322.7z"/>
	<path fill="#1B110F" stroke="#231815" stroke-width="1.1047" stroke-linecap="round" stroke-linejoin="round" d="M156.4,325.1
		c0.3,2.1-1.4,4.2-2.4,4.2c-1.6-0.1-2.6-6.4-1.2-7.2C153.8,321.6,156.1,322.9,156.4,325.1z"/>
	<path fill="#1B110F" stroke="#231815" stroke-width="1.1047" stroke-linecap="round" stroke-linejoin="round" d="M170.6,322.4
		c0.4,2-1.2,4.3-2.2,4.4c-1.7,0.2-3.2-5.9-1.7-6.8C167.6,319.4,170.1,320.3,170.6,322.4z"/>
	<path fill="#1B110F" stroke="#231815" stroke-width="1.1047" stroke-linecap="round" stroke-linejoin="round" d="M139.1,326.8
		c0.2,1.8-1.3,3.6-2.1,3.6c-1.4,0-2.3-5.5-0.9-6.2C136.8,323.8,138.8,324.9,139.1,326.8z"/>
	<path fill="#1B110F" stroke="#231815" stroke-width="1.1047" stroke-linecap="round" stroke-linejoin="round" d="M115.6,325.3
		c0.1-1.7,1.7-3.2,2.5-3c1.3,0.3,1.3,5.5,0,5.9C117.3,328.4,115.6,327.1,115.6,325.3z"/>
	<path fill="#1B110F" stroke="#231815" stroke-width="1.1047" stroke-linecap="round" stroke-linejoin="round" d="M104,323.1
		c0-1.7,1.6-3.1,2.4-3c1.3,0.3,1.3,5.5,0,5.8C105.6,326.2,103.9,324.9,104,323.1z"/>
	<path fill="#1B110F" stroke="#231815" stroke-width="1.1047" stroke-linecap="round" stroke-linejoin="round" d="M95.5,321
		c0.1-1.6,1.7-2.9,2.5-2.8c1.3,0.2,1.2,5-0.1,5.4C97.1,323.8,95.4,322.6,95.5,321z"/>
	<path fill="#1B110F" stroke="#231815" stroke-width="1.1047" stroke-linecap="round" stroke-linejoin="round" d="M206.4,325.6
		c-0.4,2.1,1.4,4.8,2.6,4.9c1.9,0.3,3.5-6.3,1.8-7.4C209.7,322.4,206.8,323.3,206.4,325.6z"/>
	<path fill="#1B110F" stroke="#231815" stroke-width="1.1047" stroke-linecap="round" stroke-linejoin="round" d="M228.5,326.5
		c-0.4-1.5-2.3-2.5-3-2.2c-1.2,0.4-0.2,5,1.1,5.1C227.4,329.4,228.9,328,228.5,326.5z"/>
	<path fill="#1B110F" stroke="#231815" stroke-width="1.1047" stroke-linecap="round" stroke-linejoin="round" d="M241,324.8
		c-0.4-1.7-2.3-2.8-3-2.5c-1.3,0.5-0.3,5.7,1.1,5.8C239.9,328.2,241.3,326.6,241,324.8z"/>
	<path fill="#1B110F" stroke="#231815" stroke-width="1.1047" stroke-linecap="round" stroke-linejoin="round" d="M251,321.5
		c-0.3-1.3-2.2-2.3-2.9-2c-1.2,0.4-0.2,4.5,1.1,4.6C250,324.2,251.4,322.9,251,321.5z"/>
	<path fill="none" stroke="#231815" stroke-width="1.9805" stroke-linecap="round" stroke-linejoin="round" d="M122.1,96
		c-2.6-2.2-4.6-4.1-5.9-5.5c-4.5-4.9-6.4-8.5-10.8-9.4c-4-0.9-5.7,1.9-18.6,8.8c-7.2,3.8-9.3,4.4-11.1,5.7c-0.7,0.5-1.2,1-1.4,1.2
		c-5.3,5.1-4.1,17.8-4,22.3c0.1,13.8-10.3,14.5-17,33.8c-4.2,12.1-7.4,33,1.6,39.2c5.9,4.1,16.8,1.6,24.1-4
		c25.9-19.8,5.2-78.6,20.2-84.2c3-1.1,7.8-0.3,15.9,7.3c0.9-2.2,1.9-4.5,2.9-6.9C119.6,101.3,120.8,98.6,122.1,96z"/>
	<g>
		<path fill="#231815" d="M93.2,112.7c0.8-3.7,1.8-7.4,2.9-11c0.6-1.8,1.2-3.6,1.9-5.4c0.8-1.8,1.6-3.5,3-5c0.4-0.4,0.8-0.7,1.3-0.9
			c0.5-0.2,1.1-0.3,1.7-0.1c0.6,0.2,1,0.5,1.3,0.9c0.4,0.3,0.7,0.7,1,1c1.3,1.4,2.7,2.6,4.2,3.7c3,2.2,6.5,3.9,10,5.1
			c-3.6-1.1-7.1-2.6-10.3-4.7c-1.6-1.1-3.1-2.3-4.4-3.6c-0.7-0.6-1.3-1.4-2-1.6c-0.7-0.2-1.5,0.3-2,0.9c-1.2,1.3-1.9,3.1-2.6,4.8
			c-0.7,1.7-1.2,3.5-1.7,5.3c-1,3.6-1.7,7.3-2.4,11c-0.1,0.5-0.6,0.9-1.2,0.8C93.5,113.8,93.1,113.3,93.2,112.7
			C93.2,112.7,93.2,112.7,93.2,112.7z"/>
	</g>
	<path fill="none" stroke="#231815" stroke-width="1.9805" stroke-linecap="round" stroke-linejoin="round" d="M223.7,94.8
		c3.8-2.1,6.4-4.3,8-5.9c4.3-4.1,6.5-8,11.3-8.8c4.1-0.6,5.6,2.2,18.1,9.8c6.9,4.2,9,4.9,10.7,6.3c0.6,0.5,1.1,1.1,1.3,1.3
		c5,5.4,3,18,2.7,22.5c-0.9,13.8,9.5,15.1,15,34.7c3.5,12.3,5.5,33.3-3.9,39c-6.1,3.7-16.9,0.7-23.9-5.3
		c-24.8-21.3-0.7-78.7-15.4-85.2c-3-1.3-8.2-0.7-17.6,7.3c-0.3-2.1-1-4.8-2.1-7.7C226.7,99.4,225.1,96.7,223.7,94.8z"/>
	<g>
		<path fill="#231815" d="M251.5,112.7c-0.5-3.7-1-7.5-1.8-11.1c-0.4-1.8-0.8-3.7-1.4-5.4c-0.6-1.8-1.2-3.6-2.3-4.9
			c-0.5-0.7-1.3-1.2-2-1c-0.7,0.2-1.4,0.9-2.1,1.5c-1.4,1.3-3,2.4-4.6,3.4c-3.3,1.9-6.9,3.2-10.6,4.1c3.6-1,7.2-2.5,10.3-4.5
			c1.6-1,3-2.2,4.4-3.5c0.3-0.3,0.7-0.7,1.1-1c0.4-0.3,0.8-0.6,1.4-0.8c0.6-0.2,1.2,0,1.7,0.2c0.5,0.3,0.9,0.6,1.2,1
			c1.3,1.6,2,3.4,2.7,5.2c0.7,1.8,1.2,3.6,1.6,5.5c0.9,3.7,1.6,7.4,2.3,11.2c0.1,0.5-0.3,1.1-0.8,1.1
			C252.1,113.6,251.6,113.2,251.5,112.7C251.5,112.7,251.5,112.7,251.5,112.7z"/>
	</g>
	<path fill="none" stroke="#231815" stroke-width="1.9805" stroke-linecap="round" stroke-linejoin="round" d="M105,303.5
		c-11-2.9-16.1-7.8-18.7-11.6c-9-13,1.1-27.1-9.7-42.9c-5.6-8.2-11.3-9.5-13-9.8c-1-0.2-9-1.5-13.2,3.8c-4.2,5.3-2.2,14.5,2.4,17.5
		c5.3,3.4,10.6-3.7,16.2-1.1c8.5,4,2.7,23.3,12.6,36.2c5.1,6.7,12,10.8,12,10.8c1.6,0.9,2.9,1.6,3.9,2"/>
</g>
<path clip-path="url(#SVGID_2_)" fill="#F9F8F7" d="M139.7,128.7c-0.3,0-0.5-0.1-0.6-0.3c-0.2,0-0.5,0-0.7,0
	c-2.7,0.8-5.5,0.6-8.3,0.8c-0.4,0-0.6-0.2-0.8-0.5c-1.1,0.2-2.2,0.5-3.3,0.7c0.1,0.4-0.2,1-0.8,1c-1.9,0.1-3.8,0.3-5.7,0.2
	c-0.4,1.3-0.6,2.7-0.6,4.2c0,8.2,6.7,14.9,14.9,14.9c8.2,0,14.9-6.7,14.9-14.9c0-2.1-0.5-4.2-1.3-6
	C145,128.7,142.4,128.7,139.7,128.7z"/>
<path clip-path="url(#SVGID_2_)" fill="#6A652A" d="M142.6,128.1c-3,0-6.1,0-9.1,0.1c-2.2,0.1-4.3,0.4-6.5,0.5c-1.2,1.7-2,3.7-2,5.9
	c0,5.5,4.5,10,10,10s10-4.5,10-10C145.1,132.2,144.1,129.9,142.6,128.1z"/>
<circle clip-path="url(#SVGID_2_)" fill="#332C12" stroke="#0C0C0C" stroke-width="0.9028" cx="136" cy="134.8" r="6.3"/>
<circle clip-path="url(#SVGID_2_)" fill="#201F0A" cx="135.5" cy="134.8" r="3.8"/>
<circle clip-path="url(#SVGID_2_)" fill="#B29D84" cx="128" cy="136.3" r="3.1"/>
<circle clip-path="url(#SVGID_2_)" fill="#FFFFFF" cx="141.4" cy="135.1" r="4.2"/>
<path clip-path="url(#SVGID_2_)" fill="#F9F8F7" d="M206,128.7c0.3,0,0.5-0.1,0.6-0.3c0.2,0,0.5,0,0.7,0c2.7,0.8,5.5,0.6,8.3,0.8
	c0.4,0,0.6-0.2,0.8-0.5c1.1,0.2,2.2,0.5,3.3,0.7c-0.1,0.4,0.2,1,0.8,1c1.9,0.1,3.8,0.3,5.7,0.2c0.4,1.3,0.6,2.7,0.6,4.2
	c0,8.2-6.7,14.9-14.9,14.9c-8.2,0-14.9-6.7-14.9-14.9c0-2.1,0.5-4.2,1.3-6C200.7,128.7,203.4,128.7,206,128.7z"/>
<path clip-path="url(#SVGID_2_)" fill="#6A652A" d="M203.1,128.1c3,0,6.1,0,9.1,0.1c2.2,0.1,4.3,0.4,6.5,0.5c1.2,1.7,2,3.7,2,5.9
	c0,5.5-4.5,10-10,10s-10-4.5-10-10C200.6,132.2,201.6,129.9,203.1,128.1z"/>
<circle clip-path="url(#SVGID_2_)" fill="#332C12" stroke="#0C0C0C" stroke-width="0.9028" cx="209.7" cy="134.8" r="6.3"/>
<circle clip-path="url(#SVGID_2_)" fill="#201F0A" cx="210.2" cy="134.8" r="3.8"/>
<circle clip-path="url(#SVGID_2_)" fill="#B29D84" cx="217.8" cy="136.3" r="3.1"/>
<circle clip-path="url(#SVGID_2_)" fill="#FFFFFF" cx="204.3" cy="135.1" r="4.2"/>
<path clip-path="url(#SVGID_2_)" fill="none" stroke="#000000" stroke-width="1.6571" d="M149.3,135.1c0,8.5-6.9,15.4-15.4,15.4
	c-6.7,0-12.4-4.3-14.5-10.2c-0.6-1.6-0.9-3.4-0.9-5.2c0-1.6,0.7-4.6,0.7-4.6l30.1-1.1C149.3,129.3,149.3,131.8,149.3,135.1z"/>
<g clip-path="url(#SVGID_2_)">
	<path d="M150.1,128.4c-1.3,0.7-2.6,1.3-3.9,1.8c-1.3,0-2.6,0.1-3.9,0.1l-7.8,0.3l-7.8,0.3l-3.9,0.2c-1.3-0.4-2.7-0.9-4-1.5
		c1.3-0.7,2.6-1.3,3.9-1.8l3.9-0.2l7.8-0.3l7.8-0.3c1.3-0.1,2.6-0.1,3.9-0.2C147.5,127.4,148.8,127.8,150.1,128.4z"/>
</g>
<g display="none" clip-path="url(#SVGID_2_)">
	<path display="inline" d="M-523,1223.4c-0.9-0.3-1.6-0.6-2.3-1c-0.7-0.4-1.3-0.8-1.9-1.4c-0.6-0.5-1.1-1.1-1.5-1.7
		c-0.4-0.6-0.7-1.3-1-1.9c0.5,0.5,1,1,1.6,1.3c0.6,0.4,1.2,0.7,1.8,0.9c0.6,0.2,1.2,0.4,1.9,0.4c0.6,0.1,1.3,0.1,1.8,0L-523,1223.4z
		"/>
</g>
<path clip-path="url(#SVGID_2_)" fill="none" stroke="#000000" stroke-width="1.6571" d="M196.4,135.1c0,8.5,6.9,15.4,15.4,15.4
	c6.7,0,12.4-4.3,14.5-10.2c0.6-1.6,0.9-3.4,0.9-5.2c0-1.6-0.7-4.6-0.7-4.6l-30.1-1.1C196.4,129.3,196.4,131.8,196.4,135.1z"/>
<g clip-path="url(#SVGID_2_)">
	<path d="M195.6,128.4c1.3-0.6,2.7-1.1,4-1.5c1.3,0.1,2.6,0.1,3.9,0.2l7.8,0.3l7.8,0.3l3.9,0.2c1.3,0.6,2.6,1.1,3.9,1.8
		c-1.3,0.6-2.7,1-4,1.5L219,131l-7.8-0.3l-7.8-0.3c-1.3,0-2.6-0.1-3.9-0.1C198.2,129.7,196.9,129.2,195.6,128.4z"/>
</g>
<g display="none" clip-path="url(#SVGID_2_)">
	<path display="inline" d="M-365.1,1220.2c0.5,0.1,1.2,0,1.8,0c0.6-0.1,1.3-0.2,1.9-0.4c0.6-0.2,1.2-0.5,1.8-0.9
		c0.6-0.4,1.1-0.8,1.6-1.3c-0.3,0.6-0.6,1.3-1,1.9c-0.4,0.6-0.9,1.2-1.5,1.7c-0.6,0.5-1.2,1-1.9,1.4c-0.7,0.4-1.3,0.7-2.3,1
		L-365.1,1220.2z"/>
</g>
<path clip-path="url(#SVGID_2_)" fill="#131312" d="M133.6,110.1c2.6,0.2,7.6,0.6,12.9,2c1.2,0.3,2.9,0.8,3.2,1.7
	c0.3,0.9-0.9,1.7-1,1.7c-1.5,1-3.8,0.5-12.6-0.8c-5.6-0.8-8.2-1.2-10.2-2.7c-0.5-0.3-1.5-1.2-1.2-1.8
	C125,109.8,126.3,109.6,133.6,110.1z"/>
<path clip-path="url(#SVGID_2_)" fill="#131312" d="M212.1,110.1c-2.6,0.2-7.6,0.6-12.9,2c-1.2,0.3-2.9,0.8-3.2,1.7
	c-0.3,0.9,0.9,1.7,1,1.7c1.5,1,3.8,0.5,12.6-0.8c5.6-0.8,8.2-1.2,10.2-2.7c0.5-0.3,1.5-1.2,1.2-1.8
	C220.7,109.8,219.4,109.6,212.1,110.1z"/>
<path clip-path="url(#SVGID_2_)" fill="none" stroke="#040000" stroke-width="0.3301" d="M166.6,168c0,0-11.6-5.6-31.5,4.1"/>
<path clip-path="url(#SVGID_2_)" fill="none" stroke="#040000" stroke-width="0.3301" d="M165,169.7c0,0-15.6-2.4-29.2,9"/>
<path clip-path="url(#SVGID_2_)" fill="none" stroke="#040000" stroke-width="0.3301" d="M164,171.9c0,0-16.9-0.7-27,13.5"/>
<path clip-path="url(#SVGID_2_)" fill="none" stroke="#040000" stroke-width="0.3301" d="M177.6,168c0,0,11.6-5.6,31.5,4.1"/>
<path clip-path="url(#SVGID_2_)" fill="none" stroke="#040000" stroke-width="0.3301" d="M179.2,169.7c0,0,15.6-2.4,29.2,9"/>
<path clip-path="url(#SVGID_2_)" fill="none" stroke="#040000" stroke-width="0.3301" d="M180.2,171.9c0,0,16.9-0.7,27,13.5"/>
<path clip-path="url(#SVGID_2_)" fill="none" stroke="#070606" stroke-width="1.9805" stroke-miterlimit="10" d="M172.6,179.4
	c0,0-3,5.1-12.5,6.3"/>
<path clip-path="url(#SVGID_2_)" fill="none" stroke="#070606" stroke-width="1.9805" stroke-miterlimit="10" d="M172.9,179.4
	c0,0,3,5.1,12.5,6.3"/>
<line clip-path="url(#SVGID_2_)" fill="none" stroke="#060404" stroke-width="3.0839" stroke-miterlimit="10" x1="173.3" y1="162.5" x2="173" y2="179.9"/>
<g clip-path="url(#SVGID_2_)">
	<path fill="#22170E" d="M171,137.9l-8.4,2.8l-5.6,5.1l-0.2,5.2l2,4.4l4.9,4.6c0,0,5,2.7,6.8,2.7c1.8,0,8.5-0.5,11.6-3.4
		s5.4-6.2,5.8-8.1c0.4-1.9,0.3-4.5,0-5.1c-0.3-0.6-4.7-4.9-5.8-5.5c-1.1-0.6-6.6-3-7.4-2.8C173.7,138,171,137.9,171,137.9z"/>
	<path fill="#060404" d="M162.2,152.9c1.9-0.8,5.9,3.1,5.3,4.7c-0.5,1.3-4.8,2.1-6.2-0.2C160.4,155.9,161,153.4,162.2,152.9z"/>
	<path fill="#060404" d="M182.3,152.9c-1.9-0.8-5.9,3.1-5.3,4.7c0.5,1.3,4.8,2.1,6.2-0.2C184.1,155.9,183.5,153.4,182.3,152.9z"/>
	<ellipse fill="#FFFFFF" cx="172.1" cy="141.3" rx="5.3" ry="3.4"/>
	<path fill="none" stroke="#000000" stroke-width="1.1047" d="M172.2,137.9c0,0-9,0-14.8,7.1c-3.5,4.2,1.5,16.9,14.8,17.7"/>
	<path fill="none" stroke="#000000" stroke-width="1.1047" d="M172.2,137.9c0,0,9,0,14.8,7.1c3.5,4.2-1.5,16.9-14.8,17.7"/>
</g>
</svg>
