<?xml version="1.0" encoding="utf-8"?>
<!-- Generator: Adobe Illustrator 21.0.0, SVG Export Plug-In . SVG Version: 6.00 Build 0)  -->
<svg version="1.1" id="图层_1" xmlns="http://www.w3.org/2000/svg" xmlns:xlink="http://www.w3.org/1999/xlink" x="0px" y="0px"
	 viewBox="0 0 350 350" enable-background="new 0 0 350 350" xml:space="preserve">
<circle fill="#CFEDB0" cx="174.5" cy="178" r="130"/>
<path opacity="0.62" fill="#95B76E" d="M173.4,203.3c-21.2,0.3-51.5,6.3-52,15.8c-0.6,9.2,26.8,21.3,52.2,21.6
	c26.9,0.3,55.6-12.5,55-21.9C228,209.2,196.6,203,173.4,203.3z"/>
<linearGradient id="SVGID_1_" gradientUnits="userSpaceOnUse" x1="176.9891" y1="110.9999" x2="176.9891" y2="226.6752">
	<stop  offset="0" style="stop-color:#FFFFFF"/>
	<stop  offset="0.3299" style="stop-color:#FDFDFC"/>
	<stop  offset="0.5274" style="stop-color:#F6F5F4"/>
	<stop  offset="0.6901" style="stop-color:#EAE8E6"/>
	<stop  offset="0.8338" style="stop-color:#D9D6D2"/>
	<stop  offset="0.9638" style="stop-color:#C3BEB8"/>
	<stop  offset="1" style="stop-color:#BCB6AF"/>
</linearGradient>
<path fill="url(#SVGID_1_)" d="M177,111c-26.3-0.1-59.1,58.3-40.3,92c6.7,12,21.1,22.9,38.2,23.7c18.1,0.8,34.2-9.9,41.7-22.3
	C236.7,171.2,203.7,111.1,177,111z"/>
<g>
	<defs>
		<path id="SVGID_2_" d="M177,111c-26.3-0.1-59.1,58.3-40.3,92c6.7,12,21.1,22.9,38.2,23.7c18.1,0.8,34.2-9.9,41.7-22.3
			C236.7,171.2,203.7,111.1,177,111z"/>
	</defs>
	<clipPath id="SVGID_3_">
		<use xlink:href="#SVGID_2_"  overflow="visible"/>
	</clipPath>
	<linearGradient id="SVGID_4_" gradientUnits="userSpaceOnUse" x1="157.7404" y1="155.9169" x2="142.0638" y2="128.7642">
		<stop  offset="0" style="stop-color:#E2B97D"/>
		<stop  offset="1" style="stop-color:#BC7A61"/>
	</linearGradient>
	<path clip-path="url(#SVGID_3_)" fill="url(#SVGID_4_)" d="M141.7,129c9.1-5.6,22.5-0.8,27.7,7.3c0.5,0.8,4.2,6.5,2,10.7
		c-1.3,2.6-4.3,3.5-9.7,5.3c-4.1,1.4-6.4,1.3-7,1.3c-3-0.1-4-0.9-6.3-1.3c-7.3-1.4-10.9,3.9-14,2c-3.3-2-1.9-10-0.7-14
		C134.4,138.1,136.2,132.3,141.7,129z"/>
	<linearGradient id="SVGID_5_" gradientUnits="userSpaceOnUse" x1="212.5589" y1="157.9646" x2="212.5589" y2="201.3514">
		<stop  offset="0" style="stop-color:#E2B97D"/>
		<stop  offset="1" style="stop-color:#BC7A61"/>
	</linearGradient>
	<path clip-path="url(#SVGID_3_)" fill="url(#SVGID_5_)" d="M229,173.3c-2.7-2.2-27.3-21.6-37.7-13.3c-3.4,2.7-3.8,7.1-4,8.7
		c-0.8,7.6,4.3,15.6,11,19c9.2,4.7,16.6-1.9,23.4,3.6c4.9,4,3.9,9.7,7,10.1c4,0.5,10.4-8.6,9-16.7
		C237.1,181.6,235.4,178.5,229,173.3z"/>
	<linearGradient id="SVGID_6_" gradientUnits="userSpaceOnUse" x1="159.9058" y1="167.8934" x2="159.9058" y2="181.0803">
		<stop  offset="0" style="stop-color:#E2B97D"/>
		<stop  offset="1" style="stop-color:#BC7A61"/>
	</linearGradient>
	<path clip-path="url(#SVGID_3_)" fill="url(#SVGID_6_)" d="M156.3,168.7c-3,1.2-6.5,4.4-6,7.3c0.6,3.8,7.4,5.5,12,5
		c1.6-0.2,4.8-0.5,6.3-3c1.1-1.7,1.1-4,0.3-5.7C167.2,168.4,160.9,166.8,156.3,168.7z"/>
	<linearGradient id="SVGID_7_" gradientUnits="userSpaceOnUse" x1="134.5913" y1="159.9137" x2="134.5913" y2="177.7472">
		<stop  offset="0" style="stop-color:#E2B97D"/>
		<stop  offset="1" style="stop-color:#BC7A61"/>
	</linearGradient>
	<path clip-path="url(#SVGID_3_)" fill="url(#SVGID_7_)" d="M121.5,165.5c1.2-5,11.8-7,19.3-4.7c2,0.6,5.6,1.7,6.7,4.7
		c1.4,3.8-2,8.8-5.8,10.9c-6.4,3.6-13.5-1.1-14.2-1.5C125.2,173.3,120.6,169.2,121.5,165.5z"/>
	<linearGradient id="SVGID_8_" gradientUnits="userSpaceOnUse" x1="170.7094" y1="188.4769" x2="170.7094" y2="233.8148">
		<stop  offset="0" style="stop-color:#BC7A61"/>
		<stop  offset="1" style="stop-color:#AF4217"/>
	</linearGradient>
	<path clip-path="url(#SVGID_3_)" fill="url(#SVGID_8_)" d="M164.5,203.2c6.4,1.4,6.2,5.5,11,6.5c7.6,1.6,11.3-8.4,20.8-7.8
		c4.2,0.3,8.6,2.6,10.8,6.3c3.4,5.9,0.2,14.2-4,18.8c-7.6,8.3-21,7-29.3,6.3c-2.8-0.3-6.4-1.1-13.5-2.8c-16.2-3.8-19-6.1-20.5-7.5
		c-5-4.8-6-11-6.4-13.3c-1.3-7.6,0.3-19.1,6.4-21c3.1-1,7,0.8,9.3,3c3.8,3.9,1.8,8.3,5.3,10.8C157.1,204.4,159.3,202.1,164.5,203.2z
		"/>
	<linearGradient id="SVGID_9_" gradientUnits="userSpaceOnUse" x1="176.5797" y1="151.6763" x2="185.1134" y2="151.6763">
		<stop  offset="0" style="stop-color:#E2B97D"/>
		<stop  offset="1" style="stop-color:#BC7A61"/>
	</linearGradient>
	<path clip-path="url(#SVGID_3_)" fill="url(#SVGID_9_)" d="M178.8,148.3c-2,1.2-2.9,4.1-1.5,6c1.4,1.9,4.5,1.7,6.3,0.3
		c1-0.9,1.9-2.5,1.5-4C184.4,148.3,181.1,146.9,178.8,148.3z"/>
</g>
<path opacity="0.13" fill="#514536" d="M177,111c0,0,8.2,1.1,15,5.6c2.3,1.5,5.8,4.2,10.8,10.3c9.2,11.3,13.4,22.4,14.8,26.2
	c2.2,6,5.1,14.4,5.1,25.8c0,5.2,0,11.9-3.3,19.7c-0.7,1.8-3.4,7.8-9.2,13.8c-1.8,1.8-7.2,7.1-16,10.7c-7.3,3-13.3,3.4-15,3.4
	c-2.5,0.1-8.8,0.2-16.3-2.3c-8.3-2.7-13.5-7.1-16.7-9.8c-4.4-3.8-6.3-6.8-6.3-6.8c3.3,2.1,16.1,9.8,33.3,7.1
	c3.7-0.6,18.9-3.1,28.9-16.2c12.2-15.8,7.9-35.2,5.8-45.1c-1.2-5.5-5.8-25.3-23.2-37.9C181.7,113.5,179,112,177,111z"/>
<path fill="none" stroke="#4F4A44" stroke-width="2" stroke-miterlimit="10" d="M177,111c-26.3-0.1-59.1,58.3-40.3,92
	c6.7,12,21.1,22.9,38.2,23.7c18.1,0.8,34.2-9.9,41.7-22.3C236.7,171.2,203.7,111.1,177,111z"/>
</svg>
