<?xml version="1.0" encoding="utf-8"?>
<!-- Generator: Adobe Illustrator 21.0.0, SVG Export Plug-In . SVG Version: 6.00 Build 0)  -->
<svg version="1.1" id="图层_1" xmlns="http://www.w3.org/2000/svg" xmlns:xlink="http://www.w3.org/1999/xlink" x="0px" y="0px"
	 viewBox="0 0 54 44" enable-background="new 0 0 54 44" xml:space="preserve">
<path fill="none" stroke="#4C1442" stroke-width="2" stroke-miterlimit="10" d="M43.7,16.8H10.3c-3.8,0-6.9-3.1-6.9-6.9v0
	c0-3.8,3.1-6.9,6.9-6.9h33.3c3.8,0,6.9,3.1,6.9,6.9v0C50.6,13.6,47.5,16.8,43.7,16.8z"/>
<path fill="#B547A0" d="M43.7,16.8H10.3c-3.8,0-6.9-3.1-6.9-6.9v0c0-3.8,3.1-6.9,6.9-6.9h33.3c3.8,0,6.9,3.1,6.9,6.9v0
	C50.6,13.6,47.5,16.8,43.7,16.8z"/>
<path fill="#E867CA" d="M43.2,14.5H10.8c-2.6,0-4.7-2.1-4.7-4.7v0c0-2.6,2.1-4.7,4.7-4.7h32.3c2.6,0,4.7,2.1,4.7,4.7v0
	C47.8,12.4,45.7,14.5,43.2,14.5z"/>
<circle fill="#F9F9F9" cx="9.3" cy="6.4" r="3.1"/>
<path fill="none" stroke="#4C1442" stroke-width="2" stroke-miterlimit="10" d="M43.7,41.3H10.3c-3.8,0-6.9-3.1-6.9-6.9v0
	c0-3.8,3.1-6.9,6.9-6.9h33.3c3.8,0,6.9,3.1,6.9,6.9v0C50.6,38.1,47.5,41.3,43.7,41.3z"/>
<path fill="#B547A0" d="M43.7,41.3H10.3c-3.8,0-6.9-3.1-6.9-6.9v0c0-3.8,3.1-6.9,6.9-6.9h33.3c3.8,0,6.9,3.1,6.9,6.9v0
	C50.6,38.1,47.5,41.3,43.7,41.3z"/>
<path fill="#E867CA" d="M43.2,39H10.8c-2.6,0-4.7-2.1-4.7-4.7v0c0-2.6,2.1-4.7,4.7-4.7h32.3c2.6,0,4.7,2.1,4.7,4.7v0
	C47.8,36.9,45.7,39,43.2,39z"/>
<circle fill="#F9F9F9" cx="9.3" cy="30.9" r="3.1"/>
</svg>
