<?xml version="1.0" encoding="utf-8"?>
<!-- Generator: Adobe Illustrator 21.0.0, SVG Export Plug-In . SVG Version: 6.00 Build 0)  -->
<svg version="1.1" id="图层_1" xmlns="http://www.w3.org/2000/svg" xmlns:xlink="http://www.w3.org/1999/xlink" x="0px" y="0px"
	 viewBox="0 0 60 55" enable-background="new 0 0 60 55" xml:space="preserve">
<path fill="#E867CA" d="M49.6,4.9C43.9,1.5,36.1,2.3,30,7c-6.1-4.7-13.9-5.5-19.6-2.1c-9.2,5.5-7.3,18.2-7.1,19.3
	c0.2,1.4,1,5,5.1,10.5c3,4.1,9.5,11.4,21.7,16.7c12.2-5.3,18.7-12.7,21.7-16.7c4.1-5.6,4.9-9.2,5.1-10.5
	C56.9,23.1,58.8,10.3,49.6,4.9z"/>
<path fill="none" stroke="#B547A0" stroke-width="5" stroke-miterlimit="10" d="M47.4,7.7c-5.1-3-12-2.3-17.4,1.9
	c-5.4-4.2-12.4-4.9-17.4-1.9c-8.2,4.9-6.5,16.2-6.3,17.1c0.2,1.2,0.9,4.4,4.5,9.4c2.7,3.6,8.4,10.1,19.3,14.9
	c10.9-4.7,16.6-11.3,19.3-14.9c3.7-4.9,4.3-8.2,4.5-9.4C53.9,23.9,55.6,12.6,47.4,7.7z"/>
<path fill="none" stroke="#4C1442" stroke-width="2" stroke-miterlimit="10" d="M49.6,4.9C43.9,1.5,36.1,2.3,30,7
	c-6.1-4.7-13.9-5.5-19.6-2.1c-9.2,5.5-7.3,18.2-7.1,19.3c0.2,1.4,1,5,5.1,10.5c3,4.1,9.5,11.4,21.7,16.7
	c12.2-5.3,18.7-12.7,21.7-16.7c4.1-5.6,4.9-9.2,5.1-10.5C56.9,23.1,58.8,10.3,49.6,4.9z"/>
<ellipse transform="matrix(0.6003 -0.7998 0.7998 0.6003 -4.6182 17.5927)" fill="#F4EAF3" cx="15.3" cy="13.4" rx="7.2" ry="6"/>
</svg>
