<svg height="252" viewBox="0 0 200 252" width="200" xmlns="http://www.w3.org/2000/svg" xmlns:xlink="http://www.w3.org/1999/xlink"><clipPath id="b"><path d="M-24-37h248v320H-24z"/></clipPath><clipPath id="c"><path d="M80.42 78.9A18.31 18.31 0 0 1 90.3 76h12a18.4 18.4 0 0 1 8.26 2c1.86-1.46 6.8-5.19 9.85-5a1.15 1.15 0 0 1 .92 1.75l-4.91 7.93a18.54 18.54 0 0 1 3.6 6.8l22.48 73.14a19 19 0 0 1-.5 11.78c3.62 1.05 10.43 3.51 13.7 5.75 2 1.35.77 4.26-1.76 4.21l-19.86-.36a19 19 0 0 1-5 2.13 2.06 2.06 0 0 0 2.14 1.67 2.08 2.08 0 0 1 1.86 1.94c.17 1.62-.44 2.65-2.12 2.82l-7 .23a4.05 4.05 0 0 1-1.69-.3 5.45 5.45 0 0 1-3.29-4.14l-.26-1.58H78.1l-.38 2a5.37 5.37 0 0 1-5.65 4.42l-6.42-.38a2.31 2.31 0 0 1-2.08-3.08 2.41 2.41 0 0 1 2.34-1.6c1.77-.09 2.31-1.55 2.28-3.32v-.26c-.36-.18-.71-.39-1.06-.6l-20.33.4c-2.54.05-3.78-2.91-1.76-4.21a58.13 58.13 0 0 1 14-6h.05a19 19 0 0 1-1-9l14-73.14a18.49 18.49 0 0 1 2.51-7.15L70 76.61a1.14 1.14 0 0 1 .06-1.23c1.9-2.66 6.81.65 10 3.25z"/></clipPath><clipPath id="d"><path d="M80.63 78.9a18.24 18.24 0 0 1 9.86-2.9h12a18.22 18.22 0 0 1 8.22 2c1.86-1.46 6.79-5.19 9.83-5a1.14 1.14 0 0 1 .92 1.74l-4.9 7.92a18.21 18.21 0 0 1 3.59 6.78l22.44 73a18.87 18.87 0 0 1-.48 11.85h.06c3.61 1 10.4 3.51 13.67 5.74 2 1.35.77 4.25-1.76 4.2l-19.89-.38a18.73 18.73 0 0 1-5 2.13 2.06 2.06 0 0 0 2.13 1.67 2.07 2.07 0 0 1 1.86 1.94c.17 1.61-.44 2.64-2.12 2.81l-7 .23a3.91 3.91 0 0 1-1.69-.31 5.41 5.41 0 0 1-3.28-4.12l-.27-1.58H78.31l-.38 2a5.63 5.63 0 0 1-.67 1.81 5.37 5.37 0 0 1-5 2.6l-6.41-.38a2.31 2.31 0 0 1-2.07-3.08 2.42 2.42 0 0 1 2.33-1.6c1.77-.09 2.31-1.54 2.28-3.31v-.25q-.54-.28-1-.6l-20.3.39c-2.53 0-3.77-2.9-1.76-4.2a57.88 57.88 0 0 1 14-5.95h.05a19 19 0 0 1-1-8.94L72.32 92a18.28 18.28 0 0 1 2.5-7.13l-4.61-8.22a1.15 1.15 0 0 1 .07-1.22c1.9-2.65 6.79.65 9.95 3.24z"/></clipPath><linearGradient id="a" gradientUnits="userSpaceOnUse" x1="78.31" x2="118.88" y1="176.81" y2="176.81"><stop offset="0" stop-color="gray"/><stop offset=".27" stop-color="#7d7d7d"/><stop offset=".46" stop-color="#747474"/><stop offset=".64" stop-color="#646464"/><stop offset=".8" stop-color="#4d4d4d"/><stop offset=".95" stop-color="#303030"/><stop offset="1" stop-color="#242424"/></linearGradient><linearGradient id="e" x1="66.73" x2="66.73" xlink:href="#a" y1="78.07" y2="184.44"/><linearGradient id="f" x1="138.45" x2="138.45" xlink:href="#a" y1="162.83" y2="188.3"/><linearGradient id="g" gradientUnits="userSpaceOnUse" x1="128.81" x2="128.81" y1="184.6" y2="76.59"><stop offset="0" stop-color="#fff" stop-opacity="0"/><stop offset=".72" stop-color="#fff"/></linearGradient><clipPath id="h"><path d="M119.8 88.1a8.06 8.06 0 0 0-8.75 1.75 9.87 9.87 0 1 0 16.67 8.36v-.25a8.92 8.92 0 0 0-4.72-8.33c-1.13-.58-2.18-1.11-3.2-1.53z"/></clipPath><clipPath id="i"><path d="M75.51 89.73a8.07 8.07 0 0 1 8.76 1.75 9.87 9.87 0 1 1-16.67 8.35v-.24a8.91 8.91 0 0 1 4.77-8.34c1.07-.57 2.13-1.1 3.14-1.52z"/></clipPath><path d="M-24-37h248v320H-24z" fill="#ffeec0"/><g clip-path="url(#b)"><ellipse cx="100.5" cy="185.5" fill="#e2c783" rx="57" ry="9.5"/><g clip-path="url(#c)"><path d="M43.29 66.07h115.84v132.81H43.29z" fill="#f7bc56"/><path d="M123.83 73.8s-2.9-2-7.78 3.16L113.48 80l4.28 3.55zm-56.38 3.05s2.1-1.44 5.46-.06a9.3 9.3 0 0 1 3.62 2.68l1.13 1.36L74.79 85z" fill="#c47f34"/><path d="M78.14 187.71c-.42-1.11.24-4.33 1.58-10.76.79-3.84 1.43-6.35 1.82-8 3-12.33 3.88-29.49 19.07-29.26 13.18.2 12.27 13.77 14.79 27.91q.78 4.41 1.57 8.82.47 2.58.91 5.18a39.61 39.61 0 0 1 .72 4.28c-.74 5.99-37.08 10.71-40.46 1.83z" fill="#f3e4b7"/><g fill="#c47f34"><path d="M63 135l6.76-2.93a2.53 2.53 0 0 1 2.91.64 16.06 16.06 0 0 1 3.62 6.67 2.6 2.6 0 0 1 0 1.24 21.72 21.72 0 0 1-1.75 4.62 2.53 2.53 0 0 1-2.8 1.3l-5.67-1.24a2.51 2.51 0 0 1-1.75-1.4l-2.61-5.48A2.55 2.55 0 0 1 63 135zm14.64-.12a8.53 8.53 0 0 0 1.41 1.89.84.84 0 0 0 .52.2 3.94 3.94 0 0 0 2.26-.59.81.81 0 0 0 .22-1 5.51 5.51 0 0 0-1.9-2.19.83.83 0 0 0-.6 0l-1.51.59a.79.79 0 0 0-.4 1.1zm-9.59 13.47a10 10 0 0 1 5.17.75 1.66 1.66 0 0 1 .93 1.09 15.18 15.18 0 0 1 .46 5.52 1.63 1.63 0 0 1-.84 1.22 11.34 11.34 0 0 1-3.08 1.36c-.6 0-2.85-2-3.94-3a1.66 1.66 0 0 1-.52-1.37l.35-4a1.67 1.67 0 0 1 1.47-1.57zm-6.91 7.31l2.44-2a1.42 1.42 0 0 0 .49-.84l.61-3.22a1.44 1.44 0 0 0-.21-1.05L63 146.2a1.43 1.43 0 0 0-2.6.5l-1.55 7.57a1.44 1.44 0 0 0 2.29 1.39zm18.33-15.32l3.58-1.67a1.76 1.76 0 0 1 2.43 1.08 9 9 0 0 1 .25 3.53c-.24 2.67-3.72 3.54-6.22 3.83a1.77 1.77 0 0 1-1.91-2.21l.91-3.42a1.79 1.79 0 0 1 .96-1.14zm-2.74 9.97l.22 2.34a.76.76 0 0 0 .21.45 2.67 2.67 0 0 0 2.08.8.73.73 0 0 0 .67-.51l.83-2.6a.73.73 0 0 0-.54-.94 12.08 12.08 0 0 0-2.77-.35.74.74 0 0 0-.7.81zm.41 4.4h1.2a.69.69 0 0 1 .65.45l.22.56a2.18 2.18 0 0 1 0 .63.69.69 0 0 1-.76.68l-1.42-.13a.7.7 0 0 1-.63-.7v-.8a.69.69 0 0 1 .74-.69zM55.7 165.78a37.21 37.21 0 0 1 5.14-4.08 1.75 1.75 0 0 1 2.65 1.44c.06 1.59.25 3.54.84 4.3l1.83 2.66-2.27 2.51a2.09 2.09 0 0 1-2.25.58l-5-1.77zm11.44 7.16l-1.47 1.33a2.82 2.82 0 0 0-.91 2l-.12 5.9 3.24 2.25-.23-8.18zm-7.74 1.26l1.9.68a2.78 2.78 0 0 1 1.82 2.36l.37 3.85-3.56-5zm74.88-39.62a41.85 41.85 0 0 0-4.93-1.31 3 3 0 0 0-3.15 1.42 17.72 17.72 0 0 0-2.26 5.32 3 3 0 0 0 .42 2.15 52.14 52.14 0 0 0 3.27 4.7 3 3 0 0 0 3.74.78 28.08 28.08 0 0 0 5.06-3.19 3 3 0 0 0 1-2.95l-1.07-4.71a3 3 0 0 0-2.08-2.21zm2.85 12.47a26.65 26.65 0 0 0-5.5 3.64 2.25 2.25 0 0 0-.65 2.1l.86 4a2.29 2.29 0 0 0 .62 1.14l2.67 2.62a2.27 2.27 0 0 0 2.57.43 24.47 24.47 0 0 0 4.41-2.6 2.26 2.26 0 0 0 .72-2.46l-2.49-7.57a2.27 2.27 0 0 0-3.21-1.3zm-15.27-3.33l4.52 6.37a1.1 1.1 0 0 1 .19.61 1 1 0 0 1-.39.82l-1.83 1.48a1.05 1.05 0 0 1-.86.2c-1-.21-3.31-.81-3.78-2l-1.54-4.3a1 1 0 0 1 .19-1l1.85-2.15a1.06 1.06 0 0 1 1.65-.03zm7.07 9.72l1 2.69a.74.74 0 0 1 0 .63l-1 1.79a.76.76 0 0 1-1.2.16l-2.27-2.34a.75.75 0 0 1 0-1l1.56-1.9a.79.79 0 0 1 .35-.24l.63-.23a.77.77 0 0 1 .93.44zm.4 25.96l1.16-.13a4.34 4.34 0 0 1 2.43.45l4.07 2.09-4.83 3.19-3 1.1zm13.9-14.89l-3.32 1a1.27 1.27 0 0 0-.92 1.22v.27a1.26 1.26 0 0 0 .63 1.1l3.18 1.84zm-.65 8.13l-3.25-2a2.21 2.21 0 0 0-2.38 0l-2.21 1.47a2.26 2.26 0 0 0-.9 1.2l-.52 1.7a2.23 2.23 0 0 0 .85 2.48l3.92 2.75 3.23-3.68zm-17.79-38.84l-1.2 2.33a.8.8 0 0 1-1.26.19l-1-1a.8.8 0 0 1-.22-.55v-1a.76.76 0 0 1 .29-.61l1-.83a.77.77 0 0 1 .81-.11l1.19.52a.79.79 0 0 1 .39 1.06zM83.75 87L73 97a3.3 3.3 0 0 1-5.18-.9l-8.74-16.94a3.29 3.29 0 0 1 .53-3.79l5.59-5.93a3.3 3.3 0 0 1 3.8-.72l11.92 5.57a3.34 3.34 0 0 1 1.79 2.13l2 7.27a3.32 3.32 0 0 1-.96 3.31zm25.6-8l-.74 2a1.16 1.16 0 0 0 .2 1.17l1.31 1.55a1.17 1.17 0 0 0 1.67.12l1.92-1.72a1.17 1.17 0 0 0-.11-1.82l-2.48-1.77a1.17 1.17 0 0 0-1.77.47zM86.6 65.37l-3 3.93a1.66 1.66 0 0 0-.22 1.61L86 77.49a1.65 1.65 0 0 0 1 1l3.4 1.13a1.7 1.7 0 0 0 1.47-.21l1.24-.86a1.66 1.66 0 0 0 .67-1l1.28-4.86a1.66 1.66 0 0 0-.39-1.56l-5.54-5.91a1.66 1.66 0 0 0-2.53.15zm16.4-.06L97.75 75a1.66 1.66 0 0 0-.19.62l-.34 3.23a1.65 1.65 0 0 0 .48 1.35l1.92 1.93a1.66 1.66 0 0 0 1.79.38l4.31-1.71a1.69 1.69 0 0 0 1-1.18l2.58-11.26a1.67 1.67 0 0 0-.79-1.81l-3.24-1.88a1.66 1.66 0 0 0-2.27.64zm4.28 17.79l.71 1.31a1.17 1.17 0 0 1-.52 1.6l-1.39.67a1.17 1.17 0 0 1-1.24-.14l-1.4-1.13a1.17 1.17 0 0 1 .3-2l2.08-.85a1.17 1.17 0 0 1 1.46.54z"/><path d="M109.35 77.74l2.34.4 4.97 4.74 5.41-.93 3.81-10.36-9.22-1.37-4.97 2.68zm7.31 5.14l-3.51 2.38a2.9 2.9 0 0 0-1.82 2.74v3a2.92 2.92 0 0 0 1.67 2.64l8.76 4.24 7-8.46-5.58-6.17zM87.8 81l1.9.49a1 1 0 0 1 .74 1.19l-.44 2.1a1 1 0 0 1-1.16.81l-1.47-.23a1 1 0 0 1-.87-1V82a1 1 0 0 1 1.3-1z"/></g></g><path d="M121.88 138.66l-.81 2.41a1.2 1.2 0 0 1-.38.56l-1.11 1a1.3 1.3 0 0 1-2.14-.78l-.36-2.25a1.29 1.29 0 0 1 .27-1l1.42-1.82a1.3 1.3 0 0 1 1.84-.21l.86.68a1.32 1.32 0 0 1 .41 1.41z" fill="#c47f34"/><g clip-path="url(#d)" opacity=".2"><path d="M80.77 173.52c-1.69 7 4.62 8.93 6.32 9.06 3.14.23 15.48.43 21.88-.61 3.33-.53 8.31-5 6.64-14.93l3.27 19.53H78.31z" fill="url(#a)"/><path d="M82.28 78.07c-5 5-5.57 9.44-7.73 18.85-3.7 16.29-8.17 51.1-9.6 62.62a66.81 66.81 0 0 0-.52 7.48v.26c1.79 2 3.62 6.75 4 13.44l.1 3.72s-2.38-.05-6.16-.05c-4.71 0-8.43-8.5-6-21.16 2.16-11.37-5.17-69.61-5.17-69.61l21.46-3.37a18.13 18.13 0 0 1 9.62-12.18z" fill="url(#e)"/><path d="M129.51 177.07s2.28-6.95 5.05-9.5c-3 5.7 1.07 7.05 2.13 6.67 4.08-1.46 5.7-5.07 6-11.41l5 8.85s-4.19 19.46-15.52 16.32l-2.94-1.38z" fill="url(#f)"/></g><g clip-path="url(#d)" opacity=".2"><path d="M106.21 76.64s2.21 2.55 3.88 4.93 3.35 6.56 5 13.76c4.48 19.67 17.44 52 21 67.52s-3.9 21.75-3.9 21.75l4.65-2.7s4.79-5.69 5.51-8.19c1.58-5.46 10.57-2.5 8.91-11.23C148.8 149.83 128 88.69 128 88.69s-9.39-2.27-11.5-6c-1.57-2.8-5.56-4.92-9.43-6.08z" fill="url(#g)"/></g><path d="M118.88 186.57H78.31m-9.9-2.18a19 19 0 0 1-10-19.32L72.32 92a18.32 18.32 0 0 1 18.17-16h12a18.31 18.31 0 0 1 17.63 13.33l22.44 73a19 19 0 0 1-13.36 23.56" fill="none" stroke="#31323d" stroke-linecap="round" stroke-miterlimit="10" stroke-width=".95"/><path d="M81.94 168.2c-.54 4.64-1.42 9.2-2.26 13.78l-1.27 6.87a5.87 5.87 0 0 1-1.89 3.26 6 6 0 0 1-3.52 1.43 17.77 17.77 0 0 1-1.82 0l-1.74-.1-3.44-.26a3.05 3.05 0 0 1-1.93-.74 2.79 2.79 0 0 1-.86-1.92 3.69 3.69 0 0 1 .07-1 2.22 2.22 0 0 1 .49-1 3.24 3.24 0 0 1 1.8-1 4 4 0 0 1 .5-.06h.37a1.66 1.66 0 0 0 .61-.24 1.94 1.94 0 0 0 .73-1.13 13.55 13.55 0 0 0 .06-3.33l-.28-7a20.54 20.54 0 0 0-.94-4.43 13.9 13.9 0 0 0-2.18-4 .17.17 0 0 1 0-.24.16.16 0 0 1 .22 0 12.11 12.11 0 0 1 2.62 3.91 18 18 0 0 1 1.16 4.58l.35 7 .08 1.75a6.69 6.69 0 0 1-.15 1.87 2.84 2.84 0 0 1-1.1 1.8 2.65 2.65 0 0 1-1 .4 4.53 4.53 0 0 1-.5.06l-.36.05c-2.22.19-1.88 3.78.3 3.58l3.48.2 1.74.1a16.56 16.56 0 0 0 1.67.07 4.84 4.84 0 0 0 4.44-3.83l1.31-6.84c.88-4.57 1.72-9.15 2.9-13.66a.17.17 0 0 1 .21-.12.16.16 0 0 1 .13.19z" fill="#31323d"/><path d="M71.79 189.4a1.48 1.48 0 0 0-.92.38 2.49 2.49 0 0 0-.59.86 6 6 0 0 0-.4 2.15.48.48 0 1 1-1 0 .13.13 0 0 0 0-.06 7 7 0 0 1 .78-2.36 2.29 2.29 0 0 1 2.13-1.28.18.18 0 0 1 .15.19.17.17 0 0 1-.17.15zm-3.23-.4a1.81 1.81 0 0 0-.9.46 2.63 2.63 0 0 0-.59.86 5.65 5.65 0 0 0-.41 2.1.48.48 0 0 1-.48.47.49.49 0 0 1-.47-.49v-.07a6.15 6.15 0 0 1 .79-2.32 2.55 2.55 0 0 1 2-1.35.17.17 0 0 1 .17.17.17.17 0 0 1-.14.17zm47.22-22c1.22 5.3 2.09 10.66 3 16l.69 4 .17 1a5.58 5.58 0 0 0 .24.89 5 5 0 0 0 1 1.57A4.33 4.33 0 0 0 124 192l4-.14 2-.06h1a2.36 2.36 0 0 0 .79-.2 1.39 1.39 0 0 0 .81-1.19 4.22 4.22 0 0 0 0-.87 2.17 2.17 0 0 0-.27-.76 1.41 1.41 0 0 0-.52-.51 1.26 1.26 0 0 0-.34-.13h-.46a3.22 3.22 0 0 1-1.16-.35 2.38 2.38 0 0 1-.91-.9 4.12 4.12 0 0 1-.36-2.25v-4a20.63 20.63 0 0 1 .21-2.08 19.89 19.89 0 0 1 1.08-4 20.77 20.77 0 0 1 4.39-6.95.17.17 0 0 1 .24 0 .18.18 0 0 1 0 .23 26.29 26.29 0 0 0-3.83 7 22.66 22.66 0 0 0-1 3.86 16.58 16.58 0 0 0-.18 2v4a3.2 3.2 0 0 0 .24 1.73 1.62 1.62 0 0 0 1.31.73 5 5 0 0 1 .55.06 2.32 2.32 0 0 1 .62.23 2.43 2.43 0 0 1 .92.88 3.12 3.12 0 0 1 .42 1.15 4.5 4.5 0 0 1 0 1.16 2.7 2.7 0 0 1-.41 1.18 2.4 2.4 0 0 1-1 .84 4.05 4.05 0 0 1-1.17.31h-1l-2 .07-4.09.13a4.7 4.7 0 0 1-2.21-.55 6 6 0 0 1-2.89-3.26 7.78 7.78 0 0 1-.28-1.08l-.17-1-.65-4c-.88-5.36-1.8-10.71-2.37-16.13a.16.16 0 0 1 .15-.18.16.16 0 0 1 .32.03z" fill="#31323d"/><path d="M124.11 188.48a2.74 2.74 0 0 1 2.34 1.31 4.42 4.42 0 0 1 .54 1.29 8.6 8.6 0 0 1 .18 1.35.49.49 0 0 1-.45.5.47.47 0 0 1-.5-.45v-.07a7.88 7.88 0 0 0 0-1.19 3.53 3.53 0 0 0-.31-1.11 2.39 2.39 0 0 0-.71-.87 2.25 2.25 0 0 0-1.07-.42.16.16 0 0 1-.15-.18.16.16 0 0 1 .13-.16zm3.89-.25a2.73 2.73 0 0 1 2.34 1.31 4.42 4.42 0 0 1 .54 1.29 8.6 8.6 0 0 1 .18 1.35.48.48 0 0 1-1 0v-.07a6.76 6.76 0 0 0 0-1.19 3.53 3.53 0 0 0-.31-1.11 2.3 2.3 0 0 0-.75-.81 2.21 2.21 0 0 0-1.07-.42.16.16 0 0 1-.15-.18.16.16 0 0 1 .22-.17z" fill="#31323d"/><path d="M80.24 78.63c-3.16-2.59-8-5.89-9.95-3.24a1.15 1.15 0 0 0-.07 1.22l4.61 8.22M110.71 78c1.86-1.46 6.79-5.19 9.83-5a1.14 1.14 0 0 1 .92 1.74l-4.9 7.92M59.33 174a57.88 57.88 0 0 0-14 5.95c-2 1.3-.77 4.25 1.76 4.2l21.33-.41" fill="none" stroke="#31323d" stroke-linecap="round" stroke-miterlimit="10" stroke-width=".95"/><path d="M52.42 180.31a3.69 3.69 0 0 0-2.05 1.22 1.44 1.44 0 0 0-.28 1 2.88 2.88 0 0 0 .33 1.07.48.48 0 0 1-.87.4v-.05a3.76 3.76 0 0 1-.26-1.47 2.17 2.17 0 0 1 .57-1.4 3.09 3.09 0 0 1 1.19-.8 4.69 4.69 0 0 1 1.32-.35.17.17 0 0 1 .19.15.16.16 0 0 1-.13.18zm-3.61.16a2.1 2.1 0 0 0-1.53 1.23 1.9 1.9 0 0 0 0 1c0 .16.1.32.15.48l.22.48a.48.48 0 0 1-.23.64.47.47 0 0 1-.63-.23v-.06l-.18-.6c0-.22-.09-.42-.11-.64a2.6 2.6 0 0 1 .22-1.31 2.05 2.05 0 0 1 .9-.94 3.1 3.1 0 0 1 1.17-.38.17.17 0 0 1 .07.33z" fill="#31323d"/><path d="M142.17 174.24c3.61 1 10.4 3.51 13.67 5.74 2 1.35.77 4.25-1.76 4.2l-19.89-.39" fill="none" stroke="#31323d" stroke-linecap="round" stroke-miterlimit="10" stroke-width=".95"/><path d="M148.78 179.83a5.23 5.23 0 0 1 1.33.4 3.55 3.55 0 0 1 1.17.85 2.39 2.39 0 0 1 .57 1.43 3.9 3.9 0 0 1-.26 1.49.49.49 0 0 1-.61.3.47.47 0 0 1-.3-.6 2.8 2.8 0 0 0 .33-1.09 1.63 1.63 0 0 0-.28-1 3.82 3.82 0 0 0-2.06-1.32.16.16 0 0 1-.11-.21.15.15 0 0 1 .22-.25zm3.6.17a3.3 3.3 0 0 1 1.18.44 2.29 2.29 0 0 1 .89 1 2.67 2.67 0 0 1 .22 1.33c0 .23-.07.43-.1.65l-.19.62a.48.48 0 1 1-.91-.29.08.08 0 0 1 0-.05l.22-.49a4.58 4.58 0 0 0 .15-.49 1.91 1.91 0 0 0 0-1 2.23 2.23 0 0 0-1.53-1.34.2.2 0 0 1-.11-.22.16.16 0 0 1 .18-.16z" fill="#31323d"/><path d="M119.8 88.1a8.06 8.06 0 0 0-8.75 1.75 9.87 9.87 0 1 0 16.67 8.36v-.25a8.92 8.92 0 0 0-4.72-8.33c-1.13-.58-2.18-1.11-3.2-1.53z" fill="#fff"/><g clip-path="url(#h)"><circle cx="114.73" cy="97.25" fill="#f2495f" r="6.66"/><circle cx="114.73" cy="97.25" fill="#31323d" r="4.92"/><circle cx="116.68" cy="93.13" fill="#fff" r="2.67"/></g><path d="M119.8 88.1a8.06 8.06 0 0 0-8.75 1.75 9.87 9.87 0 1 0 16.67 8.36v-.25a8.92 8.92 0 0 0-4.72-8.33c-1.13-.58-2.18-1.11-3.2-1.53z" fill="none" stroke="#31323d" stroke-linecap="round" stroke-miterlimit="10" stroke-width=".76"/><path d="M75.51 89.73a8.07 8.07 0 0 1 8.76 1.75 9.87 9.87 0 1 1-16.67 8.35v-.24a8.91 8.91 0 0 1 4.77-8.34c1.07-.57 2.13-1.1 3.14-1.52z" fill="#fff"/><g clip-path="url(#i)"><circle cx="81.07" cy="98.83" fill="#f2495f" r="6.66"/><circle cx="81.07" cy="98.83" fill="#31323d" r="4.92"/><circle cx="83.02" cy="94.71" fill="#fff" r="2.67"/></g><path d="M75.51 89.73a8.07 8.07 0 0 1 8.76 1.75 9.87 9.87 0 1 1-16.67 8.35v-.24a8.91 8.91 0 0 1 4.77-8.34c1.07-.57 2.13-1.1 3.14-1.52z" fill="none" stroke="#31323d" stroke-linecap="round" stroke-miterlimit="10" stroke-width=".76"/><path d="M127.72 97.73s1.67-5.58 1.2-8.45c0 0-1.51 1.42-2.77 1.33l.5-1.8-4 .92s4.81 2.71 5.07 8zM67.4 99.9s-2-5.46-1.74-8.36c0 0 1.6 1.32 2.85 1.15l-.61-1.76 4 .66s-4.58 3.01-4.5 8.31z" fill="#31323d"/><path d="M102.32 111.77s.34 5.77-3.08 6.1c-5.21.51-4.38-4.89-4.38-4.89s1.36 2.55 3.12 2.12a7.6 7.6 0 0 0 4.34-3.33z" fill="#595959" opacity=".2"/><path d="M94.72 113.41s-.08 3 3.77 3.11 3.93-5.32 3.93-5.32l-4.65-2.62z" fill="#f29cb1"/><path d="M97.95 108.9l.57 4.7" fill="none" stroke="#db829b" stroke-linecap="round" stroke-miterlimit="10" stroke-width="1.901"/><g fill="#31323d"><path d="M98.57 107.83a13 13 0 0 0 8.44 4.45 14.44 14.44 0 0 0 4.93-.4 20.7 20.7 0 0 0 2.39-.76c.77-.33 1.52-.71 2.28-1.06a.13.13 0 0 1 .17.06.13.13 0 0 1-.06.18c-.75.39-1.5.81-2.27 1.18a24.71 24.71 0 0 1-2.41.88 15.17 15.17 0 0 1-5.04.64 13.81 13.81 0 0 1-9.28-4.44.57.57 0 0 1 .85-.77z"/><path d="M78.15 114a20.31 20.31 0 0 0 5.83 2 12.74 12.74 0 0 0 6-.18 9.57 9.57 0 0 0 4.83-3.39 13.19 13.19 0 0 0 1.57-2.57c.23-.45.4-.93.6-1.39s.23-1 .68-1.39a.43.43 0 0 1 .6.05.41.41 0 0 1 .1.21 3.21 3.21 0 0 1-.37 1.56c-.23.48-.43 1-.69 1.46a14.82 14.82 0 0 1-1.78 2.7 10.42 10.42 0 0 1-5.37 3.49 13.12 13.12 0 0 1-6.35 0 20.77 20.77 0 0 1-5.83-2.39.09.09 0 0 1 0-.12.1.1 0 0 1 .12 0z"/><path d="M92.9 106.38a1.15 1.15 0 0 1 .17-1.23 6.74 6.74 0 0 1 4.71-2c2.65-.22 4 .61 4.71 1.23a1.12 1.12 0 0 1 .29 1.2 1.57 1.57 0 0 1-1.31 1 3.08 3.08 0 0 0-2.39 1.4l-.13.18a1.35 1.35 0 0 1-1.93 0s-.62-.9-2.67-.9a1.56 1.56 0 0 1-1.42-.92zm12.86 1.37a53.45 53.45 0 0 1 12.61-1.19 49.84 49.84 0 0 1 12.5 1.9 49.08 49.08 0 0 1 21.49 12.77 49 49 0 0 0-21.59-12.41 49.62 49.62 0 0 0-12.41-1.69 53 53 0 0 0-12.43 1.36.37.37 0 0 1-.46-.28.39.39 0 0 1 .28-.46zm-14.43 2.95a26.75 26.75 0 0 0-7.94 0 23.15 23.15 0 0 0-7.56 2.46 21.71 21.71 0 0 0-6.24 5 23.55 23.55 0 0 0-4.11 6.84 23.57 23.57 0 0 1 4-7 22.25 22.25 0 0 1 6.2-5.18 23.62 23.62 0 0 1 7.66-2.68 27.08 27.08 0 0 1 8.14-.19.39.39 0 0 1 .33.43.4.4 0 0 1-.43.33z"/><path d="M43.12 122.42a58.55 58.55 0 0 1 9.75-7.24 54.19 54.19 0 0 1 35.25-7 .38.38 0 0 1-.12.82 53.38 53.38 0 0 0-23.92 1.62A54.59 54.59 0 0 0 53 115.34a58.44 58.44 0 0 0-9.88 7.08zm64.43-16.84l11.38-1.42c1.89-.23 3.8-.51 5.73-.56a36.8 36.8 0 0 1 5.75.27 35.43 35.43 0 0 1 11 3.25c3.41 1.73 6.78 3.53 10.18 5.29-3.42-1.71-6.83-3.45-10.26-5.12a35.57 35.57 0 0 0-16.65-3.21c-1.9.08-3.78.39-5.67.65l-11.36 1.61a.38.38 0 0 1-.43-.32.37.37 0 0 1 .32-.43zm-17.33 6.77a8.53 8.53 0 0 0-4.17 0 6.91 6.91 0 0 0-3.53 2.23 8 8 0 0 0-1.75 3.88 9.42 9.42 0 0 0 .33 4.31 9.39 9.39 0 0 1-.51-4.34 8.24 8.24 0 0 1 1.64-4.09 7.4 7.4 0 0 1 3.66-2.54 9.3 9.3 0 0 1 4.51-.21.38.38 0 0 1-.15.75zm17.4-3.15a9.64 9.64 0 0 1 4.68.3 8.39 8.39 0 0 1 3.87 2.55 7.6 7.6 0 0 1 1.79 4.23 9.43 9.43 0 0 1-.71 4.49 9.36 9.36 0 0 0 .52-4.47 7.35 7.35 0 0 0-1.88-4 8 8 0 0 0-3.76-2.26 8.94 8.94 0 0 0-4.36-.09.4.4 0 0 1-.46-.29.38.38 0 0 1 .29-.45zm-3.52 13.19a4.77 4.77 0 0 1-.6 1.51 5.69 5.69 0 0 1-1.15 1.2 5.78 5.78 0 0 1-3.13 1.05 6.38 6.38 0 0 1-3.22-.75 5.63 5.63 0 0 1-2.28-2.23.19.19 0 0 1 .31-.22 6.76 6.76 0 0 0 5.15 2.05 5.86 5.86 0 0 0 2.62-.74 5.19 5.19 0 0 0 1.94-2 .19.19 0 0 1 .26-.08.18.18 0 0 1 .1.21z"/></g><path d="M94 123.21s.6 5.49 5.21 5 4.67-5.62 4.67-5.62a6 6 0 0 1-4.37 2.59c-2.86.25-5.51-1.97-5.51-1.97z" fill="#595959" opacity=".2"/></g></svg>