<svg height="252" viewBox="0 0 200 252" width="200" xmlns="http://www.w3.org/2000/svg" xmlns:xlink="http://www.w3.org/1999/xlink"><clipPath id="b"><path d="M-24.1-37h248v320h-248z"/></clipPath><clipPath id="c"><path d="M200.4 137.35a21.58 21.58 0 0 1-2 5.74c-2.38-7.5-6.92-15-12.82-19.46-.13-.1-.35-.24-.63-.42a23.38 23.38 0 0 0-34 11c-.21.53-.5 1.22-.5 1.22a30.93 30.93 0 0 1 7.32-3.94s-1.51 2.07-2.67 3.62c-3.58 4.8-5.94 11.37-4.12 17.41a12.82 12.82 0 0 0 3.83 5.39c-9.23 1.5-15.76 10.95-15.76 10.95l-8.82 10.4 12.88 2.69 7.34.26a52.37 52.37 0 0 0 15.14 2c18.43 0 31.41-12.09 34.14-25.08.22-1 .43-2 .67-3.05.84-3.8 2.6-13.2 0-18.73z"/></clipPath><linearGradient id="a" gradientUnits="userSpaceOnUse" x1="177.28" x2="177.28" y1="148.03" y2="110.62"><stop offset="0" stop-color="#fff" stop-opacity="0"/><stop offset=".72" stop-color="#fff"/></linearGradient><clipPath id="d"><path d="M200.4 137.11a21.74 21.74 0 0 1-2 5.73c-2.38-7.49-6.9-15-12.79-19.42q-.19-.15-.63-.42a23.31 23.31 0 0 0-33.9 10.94l-.51 1.21a30.76 30.76 0 0 1 7.3-3.93s-1.51 2.07-2.66 3.62c-3.57 4.78-5.92 11.33-4.11 17.36a13 13 0 0 0 3.82 5.38c-9.2 1.5-15.72 10.91-15.72 10.91l-8.79 10.38 12.84 2.68 7.32.26a52.12 52.12 0 0 0 15.1 2c18.39 0 31.33-12.06 34.06-25 .21-1 .43-2 .66-3 .85-3.81 2.61-13.19.01-18.7z"/></clipPath><linearGradient id="e" x1="177.35" x2="177.35" xlink:href="#a" y1="147.76" y2="110.45"/><clipPath id="f"><path d="M151.49 180.1c-3.28-2.24-10.1-4.71-13.71-5.76h-.06a18.9 18.9 0 0 0 .48-11.88l-10.26-33.37a9.35 9.35 0 0 0 3.15-1.71c-1.24.58-3-.62-4.18-1.67l-.17-.55c4.17 2 8-3.48 8-3.48-3.45.42-7.76-2.38-10.39-4.43l-.29-.92c2.77.52 5.63-1.87 5.63-1.87-1.65 0-3.43-1.36-5-3.13a22.7 22.7 0 0 1-4.77-8.5l-4.22-13.59a18.35 18.35 0 0 0-3.6-6.81l4.9-7.94a1.15 1.15 0 0 0-.92-1.75c-3-.14-8 3.59-9.86 5.06a17.68 17.68 0 0 0-4.4-1.54 27 27 0 0 1 1.67-2.93.78.78 0 0 0-.86-1.17 16.47 16.47 0 0 0-4.93 2.66.09.09 0 0 1-.14-.1c.31-1.27 1.6-6.78.57-7.28s-2.76 4-3.4 5.7a.09.09 0 0 1-.18 0c.13-1.86.36-7-1-6.71s-4.28 6.69-4.81 7.94a.09.09 0 0 1-.17 0c-.35-.89-1.75-4.25-2.23-3.07s.05 3.3.26 4.14a.09.09 0 0 1-.15.09c-1.45-1.29-3.93-1.33-5.64-1.16a.78.78 0 0 0-.48 1.33 8.93 8.93 0 0 1 .74.87 18.13 18.13 0 0 0-5 2.22l-.4-.27c-3.16-2.6-8.07-5.91-10-3.24a1.14 1.14 0 0 0-.06 1.22l4.61 8.24a18.39 18.39 0 0 0-2.51 7.15l-2.32 12.22a20.91 20.91 0 0 1-3.77 8.6c-1.36 1.81-3 3.32-4.58 3.49 0 0 3.16 2 5.84 1.09l-.19 1c-2.33 2.38-6.22 5.71-9.7 5.76 0 0 4.32 4.75 8.12 2.53l-.14.74c-1 1.12-2.44 2.27-3.63 1.9a9.37 9.37 0 0 0 3 1.21l-6.54 34.71a18.94 18.94 0 0 0 1 9 58.43 58.43 0 0 0-14.06 6c-2 1.3-.77 4.26 1.77 4.21l20.35-.4q.51.32 1 .6v.26c0 1.77-.51 3.23-2.28 3.32a2.41 2.41 0 0 0-2.34 1.6 2.32 2.32 0 0 0 2.08 3.09l6.42.38a5.37 5.37 0 0 0 5.66-4.43l.38-2h40.68l.26 1.58a5.47 5.47 0 0 0 3.29 4.14 4.14 4.14 0 0 0 1.7.31l7-.24c1.68-.16 2.3-1.19 2.13-2.81a2.11 2.11 0 0 0-1.87-2 2.08 2.08 0 0 1-2.14-1.67 19.19 19.19 0 0 0 5-2.13l19.94.38c2.49.03 3.7-2.88 1.72-4.23z"/></clipPath><clipPath id="g"><path d="M151.49 180.1c-3.28-2.24-10.1-4.71-13.71-5.76h-.06a18.9 18.9 0 0 0 .48-11.88l-10.26-33.37a9.35 9.35 0 0 0 3.15-1.71c-1.24.58-3-.62-4.18-1.67l-.17-.55c4.17 2 8-3.48 8-3.48-3.45.42-7.76-2.38-10.39-4.43l-.29-.92c2.77.52 5.63-1.87 5.63-1.87-3.29.1-7.15-5.65-8.77-8.34l-5.22-16.88a18.35 18.35 0 0 0-3.6-6.81l5.59-9c-2.47-2.43-9.21 2.57-11.46 4.37a17.68 17.68 0 0 0-4.4-1.54 26.88 26.88 0 0 1 1.66-2.92.78.78 0 0 0-.85-1.18 16.37 16.37 0 0 0-4.93 2.66.09.09 0 0 1-.14-.1c.31-1.27 1.6-6.78.57-7.28s-2.76 4-3.4 5.7a.09.09 0 0 1-.18 0c.13-1.86.36-7-1-6.71s-4.28 6.68-4.81 7.93a.09.09 0 0 1-.17 0c-.35-.89-1.75-4.25-2.23-3.07s.05 3.3.26 4.14a.1.1 0 0 1-.16.09c-1.44-1.29-3.92-1.33-5.63-1.16a.78.78 0 0 0-.48 1.33 8.93 8.93 0 0 1 .74.87 18.13 18.13 0 0 0-5 2.22l-.4-.27c-3.4-2.79-8.8-6.4-10.34-2.56l4.91 8.78a18.39 18.39 0 0 0-2.51 7.15l-3 15.56c-1.32 2.7-4.46 8.41-7.71 8.75 0 0 3.16 2 5.84 1.09l-.19 1c-2.33 2.38-6.22 5.71-9.7 5.76 0 0 4.32 4.75 8.12 2.53l-.14.74c-1 1.12-2.44 2.27-3.63 1.9a9.37 9.37 0 0 0 3 1.21l-6.53 34.72a18.94 18.94 0 0 0 1 9 58.43 58.43 0 0 0-14.06 6c-2 1.3-.77 4.26 1.77 4.21l20.35-.4q.51.32 1 .6v.26c0 1.77-.51 3.23-2.28 3.32a2.41 2.41 0 0 0-2.34 1.6 2.32 2.32 0 0 0 2.08 3.09l6.42.38a5.37 5.37 0 0 0 5.66-4.43l.38-2h40.68l.26 1.58a5.47 5.47 0 0 0 3.29 4.14 4.14 4.14 0 0 0 1.7.31l7-.24c1.68-.16 2.3-1.19 2.13-2.81a2.11 2.11 0 0 0-1.87-2 2.08 2.08 0 0 1-2.14-1.67 19.19 19.19 0 0 0 5-2.13l19.94.38c2.49.03 3.7-2.88 1.72-4.23z"/></clipPath><clipPath id="h"><path d="M115.45 88.11a8.08 8.08 0 0 0-8.76 1.75 9.87 9.87 0 1 0 16.67 8.36v-.25a8.89 8.89 0 0 0-4.77-8.33c-1.07-.58-2.12-1.11-3.14-1.53z"/></clipPath><clipPath id="i"><path d="M71.16 89.74a8.08 8.08 0 0 1 8.76 1.75 9.87 9.87 0 1 1-16.67 8.35v-.24A8.91 8.91 0 0 1 68 91.26a34.7 34.7 0 0 1 3.16-1.52z"/></clipPath><path d="M-24.1-37h248v320h-248z" fill="#e8f7cd"/><g clip-path="url(#b)"><ellipse cx="96.4" cy="184.5" fill="#c7ddb1" rx="57" ry="9.5"/><g clip-path="url(#c)"><path d="M200.34 183.81h-71.4v-67.58h75.33z" fill="#f7ffeb"/><g fill="#7f7f7f"><path d="M137 171s8.59-11.85 10.46-11.11c-7.66 8.93-2 14.13 1.75 15.24 15.18 4.48 40.37 8.44 50.64-12.52l-16.65 22.77-49.39-.23z" opacity=".2"/><path d="M154.34 156.81a13.85 13.85 0 0 0-1.9.47c.27.28 2.71 7.9 10.57 9a.52.52 0 0 0 .56-.72 6.45 6.45 0 0 1-.43-1.84m20.91-19.06s-1.49 7.71-4 10.52a8.7 8.7 0 0 1-5.3 2.86.28.28 0 0 1-.31-.33 5.64 5.64 0 0 0-.17-2.15s-9.24 4.91-8.63 8.79c0 0-1.21-5.47 5.15-9.07s5.3-5 5.3-5l-.13 4.16c4.32-.8 8.09-9.78 8.09-9.78z" opacity=".2"/></g><path d="M156.19 127.09s11.53-11.13 28.75.57C192 132.75 195.89 148 195.89 148l2.48-4.94-4.54-28.71-17.74-3.76-11.45 1.54z" fill="url(#a)" opacity=".5"/></g><g clip-path="url(#d)"><path d="M200.21 185.06l-71.08-1.61 20.14-69.48 56.3 4.55z" fill="none"/><path d="M165.17 180.77a6.6 6.6 0 0 0 5.68 2.8l23.21-7.43s-9.1-4.48-14.64-3-5.62-3.55-10.3-2.39a6.58 6.58 0 0 0-3.95 10.02z" fill="#d0ead2"/><path d="M144.54 167.26c3.86 2.07 8.3 6.36 9 10.68 0 0 .23 1.05.24 1.08a9 9 0 0 0 3.19 5.37L130 185l2.52-23.66zM193.92 155s13.71-10.49 11.89-21l-1.16 21-3.8 16h-3.06c-8.59.2-11.86-11.13-4.5-15.55zm-17.69-.25a.48.48 0 0 1-.48 0 .45.45 0 0 1-.2-.43l.18-2.11a11.63 11.63 0 0 1-3.33 2.54l-.74.4a11.38 11.38 0 0 0-4.12 3.06c-1 1.38-2 4.12-1.4 5.44a.8.8 0 0 1-.16.91.82.82 0 0 1-.59.24.85.85 0 0 1-.38-.09 49.84 49.84 0 0 1-8.2-4.89l-.58-.45a5.59 5.59 0 0 0 .74 5.73c4.1 5.76 8.5-1.31 13.05-.58s10-1 11.07-4c.58-1.61.1-5.3-1.58-7.9a15.47 15.47 0 0 1-3.28 2.13z" fill="#44e293"/><path d="M137.2 170.63s8.56-11.83 10.43-11.09c-7.65 8.91-2 14.09 1.75 15.2 15.13 4.47 40.26 8.42 50.5-12.49L183.27 185l-49.27-.27z" fill="#7f7f7f" opacity=".2"/><path d="M154.46 156.52a13.85 13.85 0 0 0-1.9.47c.27.28 2.71 7.88 10.55 9a.53.53 0 0 0 .56-.73 6.37 6.37 0 0 1-.43-1.83m20.86-19.03s-1.49 7.69-4 10.5a8.74 8.74 0 0 1-5.29 2.84.27.27 0 0 1-.31-.32 5.6 5.6 0 0 0-.17-2.15s-9.21 4.9-8.61 8.76c0 0-1.21-5.45 5.14-9s5.29-5 5.29-5l-.13 4.15c4.31-.83 8.08-9.78 8.08-9.78z" fill="#7f7f7f" opacity=".2"/><path d="M148.13 137.64c3.47-4.31 10.61-5.29 14-2 3.13 3-1.84 6.06 1.48 9.78s-1.54 6.29-5.81 8a8.75 8.75 0 0 1-8.07-.91c-4.29-3.09-5.21-10.41-1.6-14.87z" fill="#44e293"/><path d="M172.47 116c-1.73 1.51-2.86 4.41-1.92 6.21 1.66 3.18 8.73.94 10.21 4 1.19 2.41-2.89 4.8-2.12 8.64.66 3.33 4.72 6.59 9.07 6.23 5.49-.46 7.63-6.36 8-7.4 1.6-4.88-.74-9.28-1.36-10.35-4.67-8.05-17.17-11.42-21.88-7.33z" fill="#d0ead2"/><path d="M156.31 126.87s11.49-11.1 28.67.57c7.05 5.08 10.92 20.32 10.92 20.32l2.48-4.92-4.53-28.64-17.69-3.75-11.43 1.55z" fill="url(#e)" opacity=".5"/></g><path d="M198.38 143.11c-2.38-7.51-6.92-15-12.82-19.48-.14-.1-.35-.24-.64-.42a23.37 23.37 0 0 0-34 11l-.51 1.22a31.13 31.13 0 0 1 7.32-3.94s-1.51 2.07-2.67 3.62c-3.58 4.8-5.93 11.37-4.12 17.41 1.57 5.22 9.79 10 14.17 12.08a.35.35 0 0 0 .5-.44c-.74-1.63.48-4.58 1.44-5.93 1.22-1.7 3.21-2.61 5-3.61s3.7-2.35 4.24-4.36l-.39 4.39a15.49 15.49 0 0 0 6.79-6.61 15 15 0 0 0 1.44-3.85" fill="none" stroke="#31323d" stroke-linecap="round" stroke-linejoin="round" stroke-width=".95"/><path d="M139 168.82s6.54-9.45 15.76-10.95" fill="none" stroke="#31323d" stroke-linecap="round" stroke-miterlimit="10" stroke-width=".95"/><path d="M150.42 182.17a52.37 52.37 0 0 0 15.14 2c18.44 0 31.41-12.09 34.15-25.08.21-1 .43-2 .66-3.05.87-3.78 2.63-13.18 0-18.71a25.18 25.18 0 0 1-2.88 7.44" fill="none" stroke="#31323d" stroke-linecap="round" stroke-linejoin="round" stroke-width=".95"/><g clip-path="url(#f)"><path d="M38.32 65.81h115.93v132.92H38.32z" fill="#f7ffeb"/><path d="M88.75 74.32S84.52 104.6 62 95s-1.25-25.4-1.25-25.4l22.61-6.41z" fill="#d0ead2"/><path d="M94.91 75.55c.59 3.45 7.41 26.63 26.09 18.68 22.51-9.6 1.24-25.39 1.24-25.39L97 63.19c-.79.95-2.68 8.94-2.09 12.36zM47.7 118.34s18.29-5.26 24.82 5-6.4 18.21-5.65 26c.72 7.46.34 8.84-1.58 11.2-3.24 4-14 7.78-14 7.78zm88.36 3.34s-17.66-10.9-22.92.54 8.81 16.93 13 24.25 7.73 11.56 12.81 12.07-2.89-36.86-2.89-36.86z" fill="#44e293"/><path d="M71.92 196.09l7.91-39.91a12.06 12.06 0 0 1 11.83-9.71h5.6a12.06 12.06 0 0 1 11.87 9.91l6.87 38.05z" fill="#d0ead2"/><path d="M45.42 175.25s6.15 1.27 5.13 4.57a2.69 2.69 0 0 0 .51 2.75s1.47.76 1.22 2-14.48 1.51-14.48 1.51l-1.22-9.74zm80.93-2.14s-3.47-3.55-5.24 1.53c-1.06 3 1.28 2 1.15 4.32s.89 3.81 2.16 4-.32-6.41 1.93-9.85zM61.6 187.5s3.17-.64 3.47-2 1.12-3.81 2.55-3.81a1.71 1.71 0 0 1 1.8 1.91c-.1.71.66 2.69 1.58 2.84s3.11.95 2.87 3-3.53 6.18-3.53 6.18l-12.66-2-.41-4.62z" fill="#44e293"/></g><g clip-path="url(#g)" fill="#7f7f7f" opacity=".2"><path d="M82.31 78.55c-6.22 1.8-10.17 8.83-12.31 18.27-.5 2.2-1 4.81-1.4 7.69-1.14 7.45-2.14 16.69-3.39 25.26-1.61 2.53-2.22 3-2.71 5.78-1.55 8.93-1.58 19.6-2.13 24a67.17 67.17 0 0 0-.52 7.5v.26c1.79 2 3.63 6.77 4 13.48l.1 3.73s-2.39-.06-6.17-.06c-4.73 0-8.45-8.51-6-21.21 2.17-11.4-5.18-69.8-5.18-69.8l21.51-3.38a18.39 18.39 0 0 1 13-13.6zm-5.09 89.71c-1.85 11.26 4.14 13.59 5.23 13.84 6.59 1.18 17.06.67 20.47-.53 3.18-1.12 9.9-4.46 8.23-14.45l3.28 19.58H73.75zm47.87 8.91s2.28-7 5.06-9.52c-3 5.72 1.07 7.07 2.13 6.69 4.1-1.46 5.72-5.08 6.05-11.44l5 8.87s-4.19 19.52-15.55 16.31l-3-1.38z"/></g><g clip-path="url(#g)" opacity=".2"><path d="M101.72 76.47s4.5 2.56 6.18 5 3.36 6.58 5 13.79c4.49 19.73 17.49 52.1 21 67.71s-6.2 21.8-6.2 21.8l4.66-2.7s4.81-5.7 5.53-8.21c1.58-5.48 10.6-2.51 8.94-11.26-2.42-12.69-23.31-74-23.31-74s-9.41-2.28-11.53-6c-1.57-2.81-5.58-4.93-9.46-6.1z" fill="#fff"/></g><path d="M114.53 186.58H73.96m54.11-57.27l10.17 33.07a19 19 0 0 1-13.37 23.56m-60.81-1.54a19 19 0 0 1-10-19.32l6.56-34.5" fill="none" stroke="#31323d" stroke-linecap="round" stroke-miterlimit="10" stroke-width=".95"/><path d="M77.59 168.21c-.54 4.64-1.42 9.2-2.27 13.78l-1.27 6.87a5.74 5.74 0 0 1-1.88 3.25 5.94 5.94 0 0 1-3.48 1.44 17.77 17.77 0 0 1-1.82-.05l-1.74-.1-3.48-.21a3.05 3.05 0 0 1-1.93-.74 2.79 2.79 0 0 1-.86-1.92 3.69 3.69 0 0 1 .07-1 2.22 2.22 0 0 1 .49-1 3.18 3.18 0 0 1 1.8-1 4 4 0 0 1 .5-.06h.37a1.73 1.73 0 0 0 .61-.24 1.88 1.88 0 0 0 .72-1.13 12.65 12.65 0 0 0 .06-3.33l-.27-7a20.56 20.56 0 0 0-1-4.43 13.81 13.81 0 0 0-2.17-4 .15.15 0 0 1 0-.23.16.16 0 0 1 .22 0 12.11 12.11 0 0 1 2.74 3.97 18.34 18.34 0 0 1 1.16 4.58l.35 7 .09 1.75a6.69 6.69 0 0 1-.15 1.87 2.84 2.84 0 0 1-1.18 1.72 2.65 2.65 0 0 1-1 .4 4.84 4.84 0 0 1-.5.06l-.36.05c-2.23.18-1.88 3.78.3 3.58l3.48.19 1.74.11a16.44 16.44 0 0 0 1.67.07 4.82 4.82 0 0 0 4.4-3.81l1.32-6.84c.88-4.57 1.72-9.15 2.9-13.66a.16.16 0 0 1 .2-.12.16.16 0 0 1 .17.18z" fill="#31323d"/><path d="M67.44 189.41a1.42 1.42 0 0 0-.92.38 2.49 2.49 0 0 0-.59.86 5.91 5.91 0 0 0-.4 2.15.47.47 0 0 1-.49.46.49.49 0 0 1-.46-.5v-.06a6.77 6.77 0 0 1 .78-2.36 2.27 2.27 0 0 1 2.13-1.28.18.18 0 0 1 .15.19.18.18 0 0 1-.17.15zm-3.23-.36a1.81 1.81 0 0 0-.9.46 2.36 2.36 0 0 0-.59.86 5.65 5.65 0 0 0-.41 2.1.48.48 0 1 1-1 0 .17.17 0 0 1 0-.07 6.09 6.09 0 0 1 .79-2.32 2.55 2.55 0 0 1 2-1.35.17.17 0 0 1 .17.17.18.18 0 0 1-.14.17zM111.43 167c1.22 5.3 2.09 10.66 3 16l.69 4 .17 1a5.58 5.58 0 0 0 .24.89 5 5 0 0 0 .95 1.57 4.33 4.33 0 0 0 3.17 1.52l4-.14 2-.06h1a2.36 2.36 0 0 0 .79-.2 1.38 1.38 0 0 0 .8-1.19 3.62 3.62 0 0 0 0-.87 2.39 2.39 0 0 0-.27-.76 1.34 1.34 0 0 0-.86-.64l-.46-.05a3.43 3.43 0 0 1-1.16-.35 2.46 2.46 0 0 1-.91-.9 4.13 4.13 0 0 1-.37-2.25v-4a17.87 17.87 0 0 1 .21-2.08 19.26 19.26 0 0 1 1.08-4 20.77 20.77 0 0 1 4.39-6.95.17.17 0 0 1 .24 0 .17.17 0 0 1 0 .23 26.54 26.54 0 0 0-3.82 7 22.43 22.43 0 0 0-1 3.86 18.75 18.75 0 0 0-.19 2v4a3.11 3.11 0 0 0 .24 1.73 1.62 1.62 0 0 0 1.31.73 5.28 5.28 0 0 1 .55.06 2.87 2.87 0 0 1 .62.22 2.54 2.54 0 0 1 .92.89 3.31 3.31 0 0 1 .42 1.15 4.5 4.5 0 0 1 0 1.16 2.83 2.83 0 0 1-.41 1.18 2.31 2.31 0 0 1-1 .83 3.78 3.78 0 0 1-1.17.32h-1l-2 .07-4.09.12a4.69 4.69 0 0 1-2.21-.54 5.94 5.94 0 0 1-1.75-1.36 6.05 6.05 0 0 1-1.14-1.9 5.92 5.92 0 0 1-.28-1.08l-.17-1-.66-4c-.87-5.36-1.79-10.72-2.37-16.13a.18.18 0 0 1 .16-.19.18.18 0 0 1 .34.11z" fill="#31323d"/><path d="M119.75 188.49a2.76 2.76 0 0 1 2.35 1.31 4.48 4.48 0 0 1 .54 1.28 8.89 8.89 0 0 1 .18 1.36.49.49 0 0 1-.45.5.47.47 0 0 1-.5-.45v-.05a7.86 7.86 0 0 0 0-1.19 3.53 3.53 0 0 0-.31-1.11 2.31 2.31 0 0 0-.71-.87 2.16 2.16 0 0 0-1.07-.42.17.17 0 0 1-.15-.18.16.16 0 0 1 .12-.18zm3.86-.25a2.74 2.74 0 0 1 2.34 1.31 4.48 4.48 0 0 1 .54 1.28 8.89 8.89 0 0 1 .18 1.36.49.49 0 0 1-.45.5.47.47 0 0 1-.5-.45v-.07a7.86 7.86 0 0 0 0-1.19 3.53 3.53 0 0 0-.31-1.11 2.31 2.31 0 0 0-.71-.87 2.16 2.16 0 0 0-1.07-.42.17.17 0 0 1-.15-.18.16.16 0 0 1 .13-.16z" fill="#31323d"/><path d="M75.89 78.64c-3.16-2.59-8.06-5.9-10-3.24a1.15 1.15 0 0 0-.07 1.22l4.6 8.22M106.36 78c1.86-1.47 6.79-5.19 9.83-5a1.14 1.14 0 0 1 .92 1.74l-4.9 7.92" fill="none" stroke="#31323d" stroke-linecap="round" stroke-miterlimit="10" stroke-width=".912"/><path d="M65.34 129.74a6.21 6.21 0 0 1-1.89.9 6.66 6.66 0 0 1-2.09.2 9 9 0 0 1-2.06-.39 9.86 9.86 0 0 1-1.95-.85.49.49 0 0 1-.16-.69.5.5 0 0 1 .58-.21 1.69 1.69 0 0 0 1.22-.21 5.58 5.58 0 0 0 1.22-.89 14 14 0 0 0 2.06-2.41l.79.61a5.7 5.7 0 0 1-2.45 1.62 5.38 5.38 0 0 1-2.95 0 8.65 8.65 0 0 1-2.58-1.23 12.47 12.47 0 0 1-2.17-1.82.49.49 0 0 1 0-.69.52.52 0 0 1 .33-.14 8 8 0 0 0 3.28-.93 16.39 16.39 0 0 0 3-1.93 33.11 33.11 0 0 0 5.13-5 .5.5 0 0 1 .7-.07.49.49 0 0 1 .06.69 5 5 0 0 1-1.86 1.43 5.72 5.72 0 0 1-2.3.36 8.2 8.2 0 0 1-2.21-.46 11.25 11.25 0 0 1-2-.93.49.49 0 0 1-.16-.67.46.46 0 0 1 .36-.23 4.27 4.27 0 0 0 2.34-1.31 14.23 14.23 0 0 0 1.86-2.28 26.74 26.74 0 0 0 2.73-5.32 31.13 31.13 0 0 0 1.59-5.89l1.14-6 .57-3 .26-1.53c.13-.5.24-1 .39-1.51a19.21 19.21 0 0 1 2.75-5.6 18.88 18.88 0 0 1 10-7.09.47.47 0 0 1 .27.91A17.89 17.89 0 0 0 69 89.26c-.15.47-.25 1-.37 1.44l-.26 1.48-.57 3-1.14 6a31.33 31.33 0 0 1-1.59 6 28.21 28.21 0 0 1-2.83 5.52 14.85 14.85 0 0 1-2 2.44 5.24 5.24 0 0 1-2.92 1.58l.21-.9a9.76 9.76 0 0 0 1.83.83 6.93 6.93 0 0 0 1.94.41 4.51 4.51 0 0 0 1.87-.29 4 4 0 0 0 1.47-1.13l.77.61A34.54 34.54 0 0 1 63 119a28.35 28.35 0 0 1-2.78 2.47 17.6 17.6 0 0 1-3.16 2 9.14 9.14 0 0 1-3.71 1l.36-.84a11.7 11.7 0 0 0 2 1.66 7.79 7.79 0 0 0 2.29 1.1 4.41 4.41 0 0 0 2.39 0 4.88 4.88 0 0 0 2-1.34.5.5 0 0 1 .71 0 .51.51 0 0 1 0 .63 15.73 15.73 0 0 1-2.22 2.61 7 7 0 0 1-1.45 1 2.68 2.68 0 0 1-2 .27l.43-.9a8.85 8.85 0 0 0 1.67.89 8.59 8.59 0 0 0 1.85.5 5.77 5.77 0 0 0 1.9 0 5.5 5.5 0 0 0 1.79-.69.2.2 0 0 1 .26.08.19.19 0 0 1 .01.3zm37.12-53.69A19 19 0 0 1 113 82.77a18.67 18.67 0 0 1 3 5.55c.64 2 1.2 4 1.8 6l1.77 5.93a30.33 30.33 0 0 0 2.14 5.71 24.94 24.94 0 0 0 3.36 5 13.93 13.93 0 0 0 2.15 2.06 4.31 4.31 0 0 0 2.51 1 .5.5 0 0 1 .33.89 10.61 10.61 0 0 1-1.89 1.21 8.3 8.3 0 0 1-2.13.75 5.6 5.6 0 0 1-2.34 0 5.07 5.07 0 0 1-2-1.17.52.52 0 0 1 0-.72.51.51 0 0 1 .71 0 34.42 34.42 0 0 0 2.76 2.31 29.47 29.47 0 0 0 3 2 16.59 16.59 0 0 0 3.22 1.52 8.27 8.27 0 0 0 3.38.49.5.5 0 0 1 .45.77 13.1 13.1 0 0 1-1.91 2.09 8.66 8.66 0 0 1-2.39 1.56 5.43 5.43 0 0 1-2.91.4 5.78 5.78 0 0 1-2.64-1.28l.67-.68a16 16 0 0 0 2.36 2.14 6.06 6.06 0 0 0 1.34.73A1.72 1.72 0 0 0 131 127a.42.42 0 0 1 .45.71 8.89 8.89 0 0 1-1.78 1.13 8.61 8.61 0 0 1-2 .69 6 6 0 0 1-4.09-.55.2.2 0 0 1-.09-.25.19.19 0 0 1 .24-.09 5.88 5.88 0 0 0 1.87.45 6.31 6.31 0 0 0 1.89-.21 8.62 8.62 0 0 0 1.78-.72 9.9 9.9 0 0 0 1.57-1.08l.47.7a2.6 2.6 0 0 1-1.94 0 6.5 6.5 0 0 1-1.57-.82 14.15 14.15 0 0 1-2.56-2.26.47.47 0 0 1 0-.67.46.46 0 0 1 .6 0 4.83 4.83 0 0 0 2.18 1.06 4.48 4.48 0 0 0 2.38-.34 7.88 7.88 0 0 0 2.12-1.4 12.13 12.13 0 0 0 1.74-1.92l.46.77a9.07 9.07 0 0 1-3.82-.53 17.29 17.29 0 0 1-3.4-1.59 28.2 28.2 0 0 1-3-2.08c-1-.75-1.94-1.53-2.86-2.38l.7-.73a4.09 4.09 0 0 0 1.6.92 4.57 4.57 0 0 0 1.88 0 7.17 7.17 0 0 0 1.87-.65 10.08 10.08 0 0 0 1.69-1.07l.35.89a5.24 5.24 0 0 1-3.15-1.2 14.68 14.68 0 0 1-2.31-2.21 26.34 26.34 0 0 1-3.49-5.25 31 31 0 0 1-2.18-5.87l-1.76-5.94c-.6-2-1.17-4-1.78-5.91a17.55 17.55 0 0 0-2.85-5.28 18 18 0 0 0-10-6.37.48.48 0 1 1 .22-.93z" fill="#31323d"/><path d="M82.33 78.8c-.38-.55-.75-1.09-1.15-1.6-.21-.25-.42-.49-.64-.72l-.33-.34a1.22 1.22 0 0 1-.36-.7 1.25 1.25 0 0 1 .73-1.31A1.07 1.07 0 0 1 81 74h.77a11.26 11.26 0 0 1 2.09.06 6.87 6.87 0 0 1 2.08.57 4.75 4.75 0 0 1 1 .6l.08.07a.4.4 0 0 0-.49 0 .4.4 0 0 0-.15.24v.15-.12l-.12-.5a14.13 14.13 0 0 1-.4-2.07 5.11 5.11 0 0 1 0-1.1 2.92 2.92 0 0 1 .15-.6 1.19 1.19 0 0 1 .27-.41.79.79 0 0 1 .75-.13 1.71 1.71 0 0 1 .59.49 5.53 5.53 0 0 1 .32.46 10.55 10.55 0 0 1 .5.93c.15.31.3.62.43.93l.2.47.1.24v.06a.43.43 0 0 0-.72-.13.37.37 0 0 0-.07.12v-.18l.1-.23.2-.46.42-.93c.28-.61.57-1.22.87-1.82a22.25 22.25 0 0 1 2.12-3.54 4.38 4.38 0 0 1 .84-.82 1.34 1.34 0 0 1 .34-.17l.19-.07h.26a1.13 1.13 0 0 1 .83.48 3 3 0 0 1 .44 1.14 8 8 0 0 1 .15 1.06 28 28 0 0 1 0 4.1v.5a.46.46 0 0 0-.31-.45.45.45 0 0 0-.52.2v.06-.18l.37-.94c.26-.62.53-1.24.83-1.86a15.46 15.46 0 0 1 1-1.82 4 4 0 0 1 .75-.89 1.09 1.09 0 0 1 .87-.29 1 1 0 0 1 .72.66 5.39 5.39 0 0 1 .28 2.12c-.06.69-.17 1.36-.29 2s-.26 1.33-.41 2l-.23 1v-.16a.41.41 0 0 0-.14-.23.41.41 0 0 0-.5 0l.21-.15.42-.3a17.36 17.36 0 0 1 3.61-2l.5-.17a3.36 3.36 0 0 1 .6-.14 1.25 1.25 0 0 1 1.25.84 1.33 1.33 0 0 1 0 .79 2 2 0 0 1-.17.33l-.14.21-.53.83a24.79 24.79 0 0 0-1.9 3.46.19.19 0 0 1-.25.11.19.19 0 0 1-.11-.22 14.33 14.33 0 0 1 1.52-3.79l.52-.87c.23-.37.21-.37.18-.54a.33.33 0 0 0-.31-.2l-.37.1-.45.16A16.67 16.67 0 0 0 98.75 75l-.4.29-.19.15a.6.6 0 0 1-.73 0 .53.53 0 0 1-.2-.33.5.5 0 0 1 0-.28l.22-1q.23-1 .39-2c.11-.65.21-1.3.27-1.94a5.17 5.17 0 0 0-.06-1.75c0-.1-.07-.06 0 0s0 0 0 .07a3.17 3.17 0 0 0-.53.66 16.08 16.08 0 0 0-.91 1.7c-.28.6-.54 1.2-.79 1.82l-.36.92v.27a.63.63 0 0 1-.74.28.62.62 0 0 1-.43-.64v-.5a28.62 28.62 0 0 0 0-3.93 4.3 4.3 0 0 0-.39-1.65c0-.07 0 0 0 0l-.1.06a2.91 2.91 0 0 0-.59.58 20.87 20.87 0 0 0-2 3.34c-.3.59-.59 1.18-.87 1.79l-.41.9-.2.46-.1.23v.17a.55.55 0 0 1-.11.17.61.61 0 0 1-.75.12.58.58 0 0 1-.27-.31v-.06l-.1-.22L88 74c-.12-.3-.26-.6-.4-.89a9.52 9.52 0 0 0-.45-.84 2.53 2.53 0 0 0-.25-.36c-.07-.12-.18-.18-.15-.18a.27.27 0 0 0 .27 0 2.11 2.11 0 0 0-.09.38 4.42 4.42 0 0 0 0 .9 12.69 12.69 0 0 0 .26 1.91l.11.48v.11a.69.69 0 0 1 0 .29.58.58 0 0 1-.21.33.59.59 0 0 1-.73 0l-.14-.13a3.11 3.11 0 0 0-.74-.47 5.82 5.82 0 0 0-1.77-.5 11.18 11.18 0 0 0-1.92-.07h-.73L81 75a.35.35 0 0 0-.19.32.42.42 0 0 0 .08.18l.35.4a7 7 0 0 1 .6.86 9.61 9.61 0 0 1 .87 1.87.19.19 0 0 1-.12.24.18.18 0 0 1-.26-.07z" fill="#31323d"/><path d="M55 174a58.36 58.36 0 0 0-14 6c-2 1.3-.77 4.25 1.76 4.2l21.24-.42" fill="none" stroke="#31323d" stroke-linecap="round" stroke-miterlimit="10" stroke-width=".95"/><path d="M48.07 180.32a3.72 3.72 0 0 0-2.07 1.22 1.48 1.48 0 0 0-.27 1 2.88 2.88 0 0 0 .33 1.07.48.48 0 0 1-.87.4v-.05a3.76 3.76 0 0 1-.26-1.47 2.22 2.22 0 0 1 .57-1.41 3.33 3.33 0 0 1 1.19-.8A5 5 0 0 1 48 180a.17.17 0 0 1 .19.14.18.18 0 0 1-.13.19zm-3.61.15a2.11 2.11 0 0 0-1.53 1.24 1.9 1.9 0 0 0 0 .95c0 .16.1.32.15.48l.22.48a.49.49 0 0 1-.23.64.47.47 0 0 1-.63-.23v-.06l-.19-.6c0-.22-.08-.42-.1-.64a2.59 2.59 0 0 1 .21-1.31 2.12 2.12 0 0 1 .91-.94 3.1 3.1 0 0 1 1.17-.38.17.17 0 0 1 .07.33z" fill="#31323d"/><path d="M137.82 174.25c3.6 1.05 10.4 3.51 13.67 5.74 2 1.35.77 4.25-1.76 4.2l-19.9-.39" fill="none" stroke="#31323d" stroke-linecap="round" stroke-miterlimit="10" stroke-width=".95"/><path d="M144.42 179.84a5.18 5.18 0 0 1 1.34.4 3.65 3.65 0 0 1 1.17.85 2.39 2.39 0 0 1 .57 1.43 3.9 3.9 0 0 1-.26 1.49.49.49 0 0 1-.61.3.47.47 0 0 1-.3-.6v-.05a3 3 0 0 0 .33-1.09 1.67 1.67 0 0 0-.28-1.05 3.86 3.86 0 0 0-2.06-1.31.18.18 0 0 1-.12-.21.16.16 0 0 1 .22-.16zm3.58.16a3.3 3.3 0 0 1 1.18.44 2.29 2.29 0 0 1 .89 1 2.67 2.67 0 0 1 .22 1.33c0 .22-.07.43-.1.65l-.2.62a.46.46 0 0 1-.59.31.48.48 0 0 1-.32-.6v-.05l.22-.49a4.58 4.58 0 0 0 .15-.49 2 2 0 0 0 0-1 2.23 2.23 0 0 0-1.53-1.34.18.18 0 0 1-.11-.22.16.16 0 0 1 .19-.16z" fill="#31323d"/><path d="M115.45 88.11a8.08 8.08 0 0 0-8.76 1.75 9.87 9.87 0 1 0 16.67 8.36v-.25a8.89 8.89 0 0 0-4.77-8.33c-1.07-.58-2.12-1.11-3.14-1.53z" fill="#fff"/><g clip-path="url(#h)"><circle cx="110.38" cy="97.26" fill="#00a09d" r="6.66"/><circle cx="110.38" cy="97.26" fill="#31323d" r="4.92"/><circle cx="112.33" cy="93.14" fill="#fff" r="2.67"/></g><path d="M115.45 88.11a8.08 8.08 0 0 0-8.76 1.75 9.87 9.87 0 1 0 16.67 8.36v-.25a8.89 8.89 0 0 0-4.77-8.33c-1.07-.58-2.12-1.11-3.14-1.53z" fill="none" stroke="#31323d" stroke-linecap="round" stroke-miterlimit="10" stroke-width=".76"/><path d="M71.16 89.74a8.08 8.08 0 0 1 8.76 1.75 9.87 9.87 0 1 1-16.67 8.35v-.24A8.91 8.91 0 0 1 68 91.26a34.7 34.7 0 0 1 3.16-1.52z" fill="#fff"/><g clip-path="url(#i)"><circle cx="76.72" cy="98.84" fill="#00a09d" r="6.66"/><circle cx="76.72" cy="98.84" fill="#31323d" r="4.92"/><circle cx="78.67" cy="94.72" fill="#fff" r="2.67"/></g><path d="M71.16 89.74a8.08 8.08 0 0 1 8.76 1.75 9.87 9.87 0 1 1-16.67 8.35v-.24A8.91 8.91 0 0 1 68 91.26a34.7 34.7 0 0 1 3.16-1.52z" fill="none" stroke="#31323d" stroke-linecap="round" stroke-miterlimit="10" stroke-width=".76"/><path d="M123.37 97.74s1.67-5.58 1.2-8.45c0 0-1.51 1.42-2.77 1.33l.49-1.8-4 .92s4.82 2.71 5.08 8zm-60.32 2.17s-2-5.46-1.74-8.36c0 0 1.6 1.32 2.85 1.15l-.61-1.76 4 .66s-4.55 3.01-4.5 8.31z" fill="#31323d"/><path d="M89.09 123.46s.29 5.59 5 5.41c4.54-.18 5-5.42 5-5.42a6.07 6.07 0 0 1-4.57 2.37c-2.9.04-5.43-2.36-5.43-2.36z" fill="#595959" opacity=".2"/><g fill="#31323d"><path d="M94.11 108.7A29.52 29.52 0 0 0 95 113a14.55 14.55 0 0 0 1.74 4 .11.11 0 0 1 0 .16.14.14 0 0 1-.16 0 15.58 15.58 0 0 1-2.21-3.89 30.79 30.79 0 0 1-1.37-4.36.59.59 0 0 1 .43-.7.58.58 0 0 1 .7.42s-.02.05-.02.07z"/><path d="M90.55 117.67a11.31 11.31 0 0 0 1.94-4.67 30.23 30.23 0 0 0 .52-5.12.58.58 0 0 1 .59-.57.59.59 0 0 1 .57.59v.06a30 30 0 0 1-1 5.21 11.93 11.93 0 0 1-2.43 4.7.12.12 0 0 1-.17 0 .13.13 0 0 1-.02-.2z"/><path d="M88.49 106.21a1.15 1.15 0 0 1 .28-1.23 6.76 6.76 0 0 1 4.91-1.68c2.7 0 4 .94 4.67 1.61a1.17 1.17 0 0 1 .2 1.25 1.61 1.61 0 0 1-1.41.94 3.13 3.13 0 0 0-2.53 1.22.79.79 0 0 1-.14.17 1.36 1.36 0 0 1-2-.11s-.56-1-2.63-1.12a1.59 1.59 0 0 1-1.36-1zm10.93 17.01a4.64 4.64 0 0 1-.71 1.49 5.14 5.14 0 0 1-1.23 1.14 5.74 5.74 0 0 1-3.22.89 6.41 6.41 0 0 1-3.18-.94 5.58 5.58 0 0 1-2.18-2.39.19.19 0 0 1 .09-.26.2.2 0 0 1 .23 0 7 7 0 0 0 5.06 2.39A5.9 5.9 0 0 0 97 125a5.28 5.28 0 0 0 2.08-1.91.21.21 0 0 1 .27-.07.22.22 0 0 1 .07.2zm-1.8-11.29a42 42 0 0 1 7 .89 35.55 35.55 0 0 1 6.69 2.09 23.43 23.43 0 0 1 6 3.66 16.37 16.37 0 0 1 4.22 5.51 16.31 16.31 0 0 0-4.35-5.37 22.87 22.87 0 0 0-6-3.44 39.2 39.2 0 0 0-13.58-2.57.38.38 0 0 1-.38-.39.38.38 0 0 1 .39-.38zm12.96-1.1a11.05 11.05 0 0 0-5.78-2.12 10.55 10.55 0 0 0-5.89 1.35.38.38 0 0 1-.52-.14.39.39 0 0 1 .14-.53 11.07 11.07 0 0 1 12 1.45zm-12.36 3.09a9.77 9.77 0 0 1 3.49.93 12.28 12.28 0 0 1 2.9 2.08 17.62 17.62 0 0 1 2.23 2.73 18.44 18.44 0 0 1 1.67 3.09 18.75 18.75 0 0 0-1.82-3 17.27 17.27 0 0 0-2.34-2.56 11.84 11.84 0 0 0-2.88-1.84 9 9 0 0 0-3.27-.69.39.39 0 0 1-.37-.4.38.38 0 0 1 .4-.37zm-8.96-1.43c-2.36 0-4.7 0-7 .19a38.3 38.3 0 0 0-6.91 1.12 21.23 21.23 0 0 0-6.39 2.8 13.63 13.63 0 0 0-4.63 5.19 13.69 13.69 0 0 1 4.52-5.35 21.52 21.52 0 0 1 6.39-3 39.33 39.33 0 0 1 7-1.33c2.35-.25 4.72-.32 7.07-.38a.39.39 0 0 1 .4.37.4.4 0 0 1-.37.4zm-13.5-1.2a11.35 11.35 0 0 1 6.1-2.6 11.5 11.5 0 0 1 6.62 1.31.39.39 0 0 1-.36.69 10.93 10.93 0 0 0-6.21-1.58 11.23 11.23 0 0 0-6.15 2.18zm12.87 3.19a7.56 7.56 0 0 0-3.28.54 10.82 10.82 0 0 0-2.87 1.89 16.41 16.41 0 0 0-2.31 2.61 20 20 0 0 0-1.83 3 21.18 21.18 0 0 1 1.66-3.11 16.76 16.76 0 0 1 2.21-2.78 11.15 11.15 0 0 1 2.89-2.13 8.21 8.21 0 0 1 3.57-.79.39.39 0 1 1 0 .77z"/></g></g></svg>