<svg height="252" viewBox="0 0 200 252" width="200" xmlns="http://www.w3.org/2000/svg" xmlns:xlink="http://www.w3.org/1999/xlink"><clipPath id="d"><path d="M-24-37h248v320H-24z"/></clipPath><clipPath id="e"><path d="M127.61 157.18c6.19 2.72 14.56 3.63 14.56 3.63s31.12 4.09 35.73-22.35c1.75-14.71-15.9-17.76-15.9-17.76s8.24-3.33 11.19-.63c0 0-1.66-2.75-4.16-3 0 0 10.6-7.26 19.13 9.32 0 0-1.11-8.44-4.53-10.14 0 0 12.78 3 15 22 0 0 2.36-3.78 2.1-6.94a18.18 18.18 0 0 1-.66 19.5s5.29-5.12 5.71-7.86c0 0 6.63 19.27-13.58 22.18 0 0 5.48 2.08 9.13.3 0 0-3.51 7.75-14.88 6.75 0 0 5.53 3.82 8.91 3 0 0-8.36 4.33-22.54 1.2 0 0 4.8 4.49 8.36 4.58l-.94.24a56.26 56.26 0 0 1-31-1.47l-13.54-4.57-8.15-3.37z"/></clipPath><linearGradient id="a" gradientUnits="userSpaceOnUse" x1="165.41" x2="165.41" y1="187.36" y2="162.11"><stop offset="0" stop-color="gray"/><stop offset=".27" stop-color="#7d7d7d"/><stop offset=".46" stop-color="#747474"/><stop offset=".64" stop-color="#646464"/><stop offset=".8" stop-color="#4d4d4d"/><stop offset=".95" stop-color="#303030"/><stop offset="1" stop-color="#242424"/></linearGradient><linearGradient id="c" gradientUnits="userSpaceOnUse" x1="188.09" x2="188.09" y1="137.34" y2="110"><stop offset="0" stop-color="#fff" stop-opacity="0"/><stop offset=".72" stop-color="#fff"/></linearGradient><linearGradient id="f" gradientTransform="rotate(26.38 -4127.97 3321.615)" x1="-1689.74" x2="-1689.74" xlink:href="#a" y1="-1412.68" y2="-1448.73"/><clipPath id="g"><path d="M154.79 179.23c-3.29-2.24-10.12-4.71-13.75-5.77h-.06a19 19 0 0 0 .48-11.92L128.1 118c1.11-1.16 1.78-2 1.78-2 3.24 2.08 8.39-.26 10.48-1.38a.25.25 0 0 0-.12-.46c-4.1 0-9.93-3.18-9.93-3.18 4.64 1.23 6.43-.08 7-.8a.24.24 0 0 0-.18-.39c-1.49-.07-6.57-.94-10.27-9.36-.51-1.15-1-2.3-1.63-3.42-1.12-2.15-3-5.56-5.09-9l.1-.54 3.83-15.71a2.29 2.29 0 0 0-3.6-2.38l-10 7.44-.16.21-.37-.24a18.35 18.35 0 0 0-4.2-1.65l-.25-.06a7 7 0 0 1 3.12-3.39c-2.74-2.57-7.64 1.49-7.64 1.49-2.83-2.74 1.33-7.85 1.33-7.85-5-2.25-8.63 6.53-8.63 6.53-.35-4.31-6.58-5-6.58-5 2.08 2.27 1 6.34 1 6.34-2.91-2.86-8.46-.19-8.46-.19a7.3 7.3 0 0 1 4.65 2.14l-.24.07a18.39 18.39 0 0 0-6 3L68 72.16a2.29 2.29 0 0 0-3.42 2.57L69 90.22l.32 1.14c-1 2.48-1.84 4.73-2.28 6-.27.8-.58 1.59-.92 2.35a19.59 19.59 0 0 1-12.25 11.71.24.24 0 0 0 0 .46c1.58.43 5.57 1.33 8.49-1.61 0 0-2.85 4-6.37 5.37a.24.24 0 0 0 .07.46 12.69 12.69 0 0 0 6.71-1.42 19.63 19.63 0 0 1-3.12 3.4.24.24 0 0 0 .17.43 9.32 9.32 0 0 0 3.48-.91v.93a4.58 4.58 0 0 0 1.63 2.8l-8.16 42.91a19 19 0 0 0 1 9 58.19 58.19 0 0 0-14.11 6c-2 1.31-.77 4.28 1.77 4.23l20.41-.4c.35.21.7.41 1.06.6v.26c0 1.78-.51 3.24-2.29 3.33a2.42 2.42 0 0 0-2.34 1.61 2.32 2.32 0 0 0 2.06 3.13l6.44.38a5.41 5.41 0 0 0 5-2.61 5.17 5.17 0 0 0 .67-1.82l.39-2h40.79l.27 1.58a5.44 5.44 0 0 0 3.3 4.15 4 4 0 0 0 1.7.31l7-.23c1.69-.17 2.31-1.21 2.13-2.83a2.09 2.09 0 0 0-1.87-2 2.08 2.08 0 0 1-2.15-1.68 18.42 18.42 0 0 0 5-2.14l20 .39c2.56.01 3.78-2.91 1.79-4.27z"/></clipPath><clipPath id="h"><path d="M155.16 179.57c-3.31-2.26-10.19-4.74-13.84-5.81h-.06a19.12 19.12 0 0 0 .49-12L128.29 118c1.12-1.17 1.8-2 1.8-2 3.26 2.09 8.44-.27 10.55-1.4a.24.24 0 0 0-.12-.45c-4.13 0-10-3.21-10-3.21 4.68 1.24 6.47-.08 7.06-.8a.24.24 0 0 0-.17-.4c-1.51-.07-6.62-.95-10.35-9.42-.51-1.16-1-2.31-1.63-3.44-1.13-2.17-3-5.6-5.13-9l.1-.55 3.86-15.81a2.31 2.31 0 0 0-3.62-2.4l-10.11 7.5-.15.2-.38-.24a18.25 18.25 0 0 0-4.23-1.66l-.25-.06a7 7 0 0 1 3.15-3.41c-2.76-2.59-7.7 1.49-7.7 1.49-2.85-2.75 1.34-7.9 1.34-7.9-5-2.26-8.69 6.58-8.69 6.58-.35-4.34-6.62-5-6.62-5 2.09 2.29 1 6.39 1 6.39-2.94-2.88-8.52-.19-8.52-.19A7.39 7.39 0 0 1 84.21 75H84a18.43 18.43 0 0 0-6.07 3l-10.12-6.22a2.31 2.31 0 0 0-3.44 2.59L68.8 90l.32 1.15c-1.05 2.5-1.85 4.76-2.29 6q-.42 1.21-.93 2.37a19.7 19.7 0 0 1-12.33 11.78.25.25 0 0 0 0 .47c1.59.43 5.61 1.34 8.54-1.62 0 0-2.87 4-6.41 5.4a.24.24 0 0 0 .07.47 12.87 12.87 0 0 0 6.75-1.43 19.86 19.86 0 0 1-3.13 3.41.24.24 0 0 0 .18.43 9.29 9.29 0 0 0 3.5-.92v.94a4.62 4.62 0 0 0 1.64 2.82l-8.21 43.19a19.14 19.14 0 0 0 1 9.05 58.88 58.88 0 0 0-14.2 6c-2 1.32-.78 4.3 1.78 4.26l20.55-.41c.35.22.7.42 1.06.61v.26c0 1.79-.51 3.26-2.3 3.35a2.43 2.43 0 0 0-2.39 1.68c-.36 1.66.45 3 2.1 3.11l6.48.39a5.41 5.41 0 0 0 5.71-4.47l.39-2h41.07l.26 1.6a5.54 5.54 0 0 0 3.33 4.18 4.15 4.15 0 0 0 1.71.3l7.07-.23c1.7-.17 2.32-1.21 2.14-2.84a2.11 2.11 0 0 0-1.88-2 2.08 2.08 0 0 1-2.16-1.69 18.79 18.79 0 0 0 5-2.16l20.13.4c2.59.02 3.82-2.91 1.81-4.28z"/></clipPath><linearGradient id="b" gradientUnits="userSpaceOnUse" x1="118.16" x2="118.16" y1="71.57" y2="87.6"><stop offset="0" stop-color="gray"/><stop offset=".14" stop-color="#797979"/><stop offset=".35" stop-color="#646464"/><stop offset=".6" stop-color="#434343"/><stop offset=".89" stop-color="#141414"/><stop offset="1"/></linearGradient><linearGradient id="i" x1="65.07" x2="74.32" xlink:href="#b" y1="82.43" y2="82.43"/><linearGradient id="j" x1="127.79" x2="127.79" xlink:href="#c" y1="183.87" y2="75.21"/><clipPath id="k"><path d="M83.64 95.5a3.09 3.09 0 0 1 .88 2.15 9.92 9.92 0 0 1-19.76 1.29c-.71-5.44 4.18-12.57 9.18-10.32a30.6 30.6 0 0 1 9.7 6.88z"/></clipPath><clipPath id="l"><path d="M107 94.59a3.13 3.13 0 0 0-.9 2.18 9.92 9.92 0 0 0 19.76 1.28c.72-5.43-4.18-12.57-9.17-10.32a30.7 30.7 0 0 0-9.69 6.86z"/></clipPath><path d="M-24-37h248v320H-24z" fill="#fff3e6"/><g clip-path="url(#d)"><ellipse cx="99" cy="184.5" fill="#f2d1b3" rx="57" ry="9.5"/><g clip-path="url(#e)"><path d="M124.15 113.67h84.19v69.56h-84.19z" fill="#ffd85c"/><path d="M145 168.52c9.59 4.73 6.42 9.45 17.86 10.34 18.67 3 29.54-3.81 35-11l9-4-8.61 23.53-74.25-.85 4.85-24.43S139.8 166 145 168.52z" fill="url(#a)" opacity=".2"/><path d="M173.21 120.07s-5.9-5.14 12 1.61 14.89 15.66 14.89 15.66l15.34-6.34-21-19.3-30.85-1.58-2.87-.15z" fill="url(#c)" opacity=".5"/><path d="M170.36 129.42c.77.15 10.49.87 9.54 14.14-1 13.77-11.05 17.21-28 16.17l20.36-21.95s-1.16-1.72-3.64-5-3.48-3.66-3.48-3.66a48 48 0 0 1 5.22.3z" fill="url(#f)" opacity=".2"/></g><path d="M126.24 157.43c6.31 2.74 14.84 3.65 14.84 3.65s31.73 4.12 36.43-22.48c1.79-14.8-16.19-17.87-16.19-17.87s8.4-3.35 11.4-.64c0 0-1.69-2.76-4.23-3 0 0 10.81-7.3 19.5 9.38 0 0-1.13-8.5-4.61-10.2 0 0 13 3 15.31 22.08 0 0 2.41-3.81 2.14-7a18.07 18.07 0 0 1-.67 19.62s5.39-5.14 5.82-7.91c0 0 6.76 19.39-13.84 22.32 0 0 5.59 2.09 9.31.3 0 0-3.58 7.8-15.17 6.79 0 0 5.64 3.85 9.08 3.06 0 0-8.52 4.36-23 1.21 0 0 4.9 4.52 8.52 4.61l-1 .24a58.12 58.12 0 0 1-31.59-1.48l-13.8-4.6-8.31-3.39z" fill="none" stroke="#31323d" stroke-linecap="round" stroke-linejoin="round" stroke-width="1.143"/><g clip-path="url(#g)"><path d="M41.9 54.66h116.26v143.35H41.9z" fill="#9eefc5"/><g fill="#eff9f9"><path d="M76.87 186.8c-.42-1.12.24-4.34 1.58-10.8.8-3.86 1.44-6.38 1.84-8 3-12.39 1.23-13.74 3.82-21.11 1.77-5 3.6-10 8.49-12.39.58-.28 5-2.35 9.56-.53s6.21 6.16 8 10.85c2.23 5.67 1.52 7.63 4.05 21.81.53 2.95 1 5.91 1.58 8.86.31 1.73.61 3.46.92 5.2a40.08 40.08 0 0 1 .72 4.3c-.69 6.01-37.16 10.73-40.56 1.81z"/><path d="M78.91 174.63l-3.14 15.09-2.14 2.14-3.38.44-8.09-.81v-3.32l4.62-3-.78-13.08s2.06 2.88 7 3.11 5.91-.57 5.91-.57zm50.58-1.46l-1.23 5.63-.15 6.73 4.13 2.64v3.32l-8.09.81-3.38-.44-2.14-2.14-3.14-15.09s2.63 2.48 7.51 1.88c5.05-.61 6.49-3.34 6.49-3.34z"/><path d="M56.73 168.48s-.44 7.57 10.12 15.17L48 185.86l-10.89-3.67.8-3.13zm85.06 2.17s-2.23 9.41-10.23 13.23l25.5.31v-6.12z"/></g></g><g clip-path="url(#h)"><path d="M41.32 54.51h115.84v139.98H41.32z" fill="#ffd85c"/><g fill="#ff7640"><path d="M110.44 136.09a2.56 2.56 0 0 0 .15 2.36 7.4 7.4 0 0 0 1.67 1.58 8.64 8.64 0 0 1 2.74 4.12.12.12 0 0 0 .23 0 13.38 13.38 0 0 0-1-7c-.75-1.62-2.61-3.61-3.79-1.06zm-26.96 1.77a2.52 2.52 0 0 1-.58 2.28 7.13 7.13 0 0 1-1.9 1.24 8.67 8.67 0 0 0-3.47 3.53.12.12 0 0 1-.22-.06 13.3 13.3 0 0 1 2.32-6.64c.97-1.48 3.18-3.08 3.85-.35zm49 30.4c.95-1.76 1.06-3.84 1.52-5.78s1.35-3.66 3-4.43a.16.16 0 0 0 0-.29 8.12 8.12 0 0 0-6.84 2c-1.57 1.48-2.6 3.64-4.52 4.59a.16.16 0 0 1-.22-.14l.17-8.41a19.76 19.76 0 0 0-.4-5.54 10.06 10.06 0 0 0-4.52-6 .15.15 0 0 0-.22.17 16.13 16.13 0 0 1-1.43 12c-1.08 1.93-2.56 3.64-3.52 5.64a12.44 12.44 0 0 0-.94 8l-.1-.78 3 18.62.82 5.28a.15.15 0 0 0 .15.13l13.26.3a.15.15 0 0 0 .15-.1l2-5.68a.14.14 0 0 0 0-.15l-1.31-1.42a.17.17 0 0 0-.12 0l-4.58.07a.14.14 0 0 1-.15-.16l.37-8.24 1.27-4.42 1.78-3.35z"/><path d="M131.71 130.54c-2.3 1.51-3.35 4.42-3.43 7.17a35.39 35.39 0 0 0 1.16 8.16 18.55 18.55 0 0 1 .05 6.91.22.22 0 0 0 .4.15 5 5 0 0 1 1.87-1.63 20.1 20.1 0 0 0 3.17-2 6.11 6.11 0 0 0 1.88-5.37m-72.98 24.55a7.22 7.22 0 0 1-1.73-8.15.15.15 0 0 1 .29.06 6 6 0 0 0 1.89 3.78 15 15 0 0 0 3.65 2.42.15.15 0 0 0 .2-.22 13.75 13.75 0 0 1-1.21-10.69 26.07 26.07 0 0 1 5.25-9.45.16.16 0 0 1 .27.14 18.5 18.5 0 0 0 3.12 16 34.05 34.05 0 0 1 3.44 4.5c.89 1.67 1.17 3.85.06 5.37v.06l-1.81 9.61L74.89 194a.16.16 0 0 1-.16.12L60.47 193a.15.15 0 0 1-.14-.14l-.42-6.25a.15.15 0 0 1 .12-.16l6.23-1.4a.13.13 0 0 0 .12-.15l-.49-10.06-1.22-4.43-.79-1.82a.09.09 0 0 0-.05-.11zm-8.76-21.65A15.79 15.79 0 0 0 62 158.2a.15.15 0 0 0 .22-.19 8.71 8.71 0 0 1-.58-5.41 27.09 27.09 0 0 1 2-5.76 21.6 21.6 0 0 0 1.88-5.84 11.36 11.36 0 0 0-2-7.83 5.18 5.18 0 0 0-2.91-2.25m67.02 49.65a8.06 8.06 0 0 1 2.16-4.89c1.17-1.38 2.58-2.56 3.73-4a8.36 8.36 0 0 0 2-4.25.15.15 0 0 1 .29 0 12.84 12.84 0 0 1 .85 4.86.16.16 0 0 0 .29.08 20.49 20.49 0 0 0 3-12.7.16.16 0 0 1 .3-.07 24 24 0 0 1 1.45 8.87 18.28 18.28 0 0 1-3.1 9.7c-2.54 3.67-6.65 7.35-11.07 8"/><path d="M58 164.07a20.94 20.94 0 0 0 3.1 10.64.15.15 0 0 0 .28-.08 7.65 7.65 0 0 1 .81-3.07.15.15 0 0 1 .29.05 10.14 10.14 0 0 0 2.09 5.44 11.55 11.55 0 0 1 1.32 1.8 8.55 8.55 0 0 1 .46 4.27.13.13 0 0 1 0 .06c-.34.75-.91.48-1.34.21-4.56-2.94-9-8.74-8.8-14.42a10.09 10.09 0 0 1 1.52-5 .15.15 0 0 1 .27.1z"/></g><path d="M79.42 170.26c1.89-6.88-.4-11.93.13-17.94.37-4.14 3-7.79 6.59-10.28a19.32 19.32 0 0 1 9.06-3.11c7.64-.76 15.88 2.26 17 9.93a33.43 33.43 0 0 1 .27 9.37c-.54 4.94.9 6.11 1.77 9.61 1.39 5.64 2.07 13.56 3.09 19.26H76.38c1.01-5.61 1.52-11.34 3.04-16.84z" fill="#fff"/><path d="M81.73 76a14.23 14.23 0 0 0 6.71 14 .15.15 0 0 0 .23-.16 9.63 9.63 0 0 1-.13-3.78.15.15 0 0 1 .28 0L94 96.12a.15.15 0 0 0 .29-.05A15.4 15.4 0 0 1 96.38 91a8.75 8.75 0 0 0 1.36-5.12.16.16 0 0 1 .28-.11 9 9 0 0 1 1.56 4.29.15.15 0 0 0 .3 0c1.4-3.76 4-7 6.24-10.34 2.37-3.6 4.39-7.79 3.77-12a12.65 12.65 0 0 0-4.89-7.96 20.17 20.17 0 0 0-8.7-3.7 16.19 16.19 0 0 0-9.18.53 17.05 17.05 0 0 0-6.69 5.59 21.89 21.89 0 0 0-4.21 8.31 7.08 7.08 0 0 0 .1 4.18 3.37 3.37 0 0 0 3.27 2.21M109 77c.55 2.14-.46 4.34-1.57 6.25a14.76 14.76 0 0 0-2.32 5.35.15.15 0 0 0 .28.1 7.5 7.5 0 0 1 3.64-2.8c1.67-.67 3.46-1 5.12-1.69a2.23 2.23 0 0 0 1.41-1.23 2.14 2.14 0 0 0-.69-1.89 10 10 0 0 0-3.45-2.55" fill="#ff7640"/><path d="M78.43 78.46a.16.16 0 0 1 .17 0c1.3 1.53 1.57 3.67 2 5.64.35 1.76 1 3.66 2.32 4.75a.16.16 0 0 1-.13.27 15.78 15.78 0 0 1-9-5.74.14.14 0 0 1 0-.14 7.64 7.64 0 0 1 1.93-3.09 8.15 8.15 0 0 1 2.71-1.69zm64.96 92.7l-6.51 5.93-5.66 7.21 24.4 2.17 3.07-7.13zm-105.18 8.98l3.32 5.75 7.83.26 15.98-1.34-1.91-4.19-5.73-8.39-16.07 2.56z" fill="#ff7640"/></g><g clip-path="url(#g)"><path d="M85.6 77.27c-6.23 1.8-11.09 8.3-13.93 18.14-.83 2.61-4.94 15.87-4.8 20.67.16 5.25 2.92 8.34 2.42 8.34s-1.5-1.21-1.67-.76a48.49 48.49 0 0 0-1.18 6.05c-1.54 10.18-2.57 25.08-3 29a70.21 70.21 0 0 0-.53 7.53v.26c1.8 2 3.64 6.79 4 13.52l.1 3.74s-2.39-.06-6.19-.06c-4.74 0-8.47-8.54-6-21.27 2.17-11.43-5.2-70-5.2-70L71.11 89a18.78 18.78 0 0 1 13.2-13.68z" fill="#7f7f7f" opacity=".2"/><path d="M123.91 72.61s-1.34-3.31-6.23 1.85a14.41 14.41 0 0 1-5.27 4.13l7.85 9z" fill="url(#b)" opacity=".4"/><path d="M65.13 76.59s-.72-3 2.66-1.59c1.41.58 3.87 3.1 4.85 4.28L74.32 82 69 90.22z" fill="url(#i)" opacity=".4"/><path d="M80.31 167.36c-1.86 11.29 4.15 13.63 5.24 13.88 6.61 1.19 17.11.68 20.53-.53 3.2-1.13 9.93-4.47 8.26-14.49l3.28 19.64H76.83zm48 8.94s2.29-7 5.08-9.55c-3 5.74 1.07 7.09 2.14 6.71 4.11-1.47 5.73-5.1 6.06-11.47l5 8.89s-4.21 19.58-15.6 16.36l-3-1.38z" fill="#7f7f7f" opacity=".2"/></g><g clip-path="url(#g)"><path d="M105.24 76.75s4.15 1.13 5.84 3.52 3.36 6.55 6.75 13.15c2.44 4.75 7.35 12.23 8.41 19.75.49 4.35-2.68 8.5-3.16 9.45.08.26 2.69-2.44 2.78-2.18 5 14.74 9.24 32.41 11.3 41.56 3.53 15.66-6.21 21.87-6.21 21.87l4.67-2.71s4.82-5.72 5.54-8.23c1.59-5.5 10.63-2.52 9-11.29-2.42-12.73-17.43-77.57-17.43-77.57s-15.38 1.08-17.5-2.69c-1.58-2.82-5.82-5-9.71-6.17z" fill="url(#j)" opacity=".2"/></g><path d="M110.46 77l10-7.44a2.29 2.29 0 0 1 3.6 2.38l-3.8 15.66-.1.54M78 78.37l-10-6.21a2.29 2.29 0 0 0-3.42 2.57L69 90.22l.32 1.14" fill="none" stroke="#31323d" stroke-linecap="round" stroke-miterlimit="10" stroke-width=".956"/><path d="M117.62 185.86H76.83" fill="#fff" stroke="#31323d" stroke-linecap="round" stroke-miterlimit="10" stroke-width=".956"/><path d="M128.1 118l13.36 43.48A19.13 19.13 0 0 1 128 185.21m-61.13-1.55a19.13 19.13 0 0 1-10.05-19.42L65 121.33" fill="none" stroke="#31323d" stroke-linecap="round" stroke-miterlimit="10" stroke-width=".956"/><path d="M80.48 167.39c-.55 4.66-1.43 9.25-2.28 13.85l-1.28 6.91a5.88 5.88 0 0 1-1.9 3.28 6 6 0 0 1-3.5 1.44 17.77 17.77 0 0 1-1.82-.05l-1.75-.1-3.51-.22a3 3 0 0 1-1.93-.74 2.78 2.78 0 0 1-.87-1.93 3.69 3.69 0 0 1 .08-1 2.11 2.11 0 0 1 .49-1 3.15 3.15 0 0 1 1.8-1 3 3 0 0 1 .51-.07 2.1 2.1 0 0 0 .37 0 1.55 1.55 0 0 0 .62-.24 1.88 1.88 0 0 0 .72-1.14 5.55 5.55 0 0 0 .14-1.6l-.08-1.78-.29-7a21.4 21.4 0 0 0-1-4.44 14.09 14.09 0 0 0-2.19-4 .16.16 0 0 1 0-.24.16.16 0 0 1 .22 0 12 12 0 0 1 2.64 3.94 18 18 0 0 1 1.16 4.6l.35 7 .08 1.75a6.14 6.14 0 0 1-.15 1.89 2.89 2.89 0 0 1-1.14 1.74 2.77 2.77 0 0 1-1 .4 4.53 4.53 0 0 1-.5.06h-.36c-2.24.19-1.89 3.8.3 3.6l3.5.2 1.75.1a16.63 16.63 0 0 0 1.68.07 4.92 4.92 0 0 0 2.88-1.17 4.8 4.8 0 0 0 1.58-2.68l1.32-6.88c.88-4.59 1.73-9.2 2.91-13.73a.19.19 0 0 1 .21-.13.19.19 0 0 1 .24.31z" fill="#31323d"/><path d="M70.27 188.7a1.49 1.49 0 0 0-.92.39 2.38 2.38 0 0 0-.6.86 6 6 0 0 0-.4 2.16.49.49 0 0 1-.51.45.47.47 0 0 1-.45-.5.13.13 0 0 1 0-.06 6.82 6.82 0 0 1 .78-2.37 2.3 2.3 0 0 1 2.14-1.29.18.18 0 0 1 .15.19.16.16 0 0 1-.17.15zm-3.27-.36a1.83 1.83 0 0 0-.9.47 2.36 2.36 0 0 0-.59.86 5.33 5.33 0 0 0-.41 2.11.48.48 0 1 1-1 0v-.07a6.4 6.4 0 0 1 .8-2.33A2.55 2.55 0 0 1 67 188a.17.17 0 0 1 .17.17.16.16 0 0 1-.14.17zm47.51-22.14c1.22 5.33 2.1 10.72 3 16.11l.68 4 .18 1a4.69 4.69 0 0 0 .24.89 5.08 5.08 0 0 0 1 1.58 4.35 4.35 0 0 0 3.19 1.53l4.07-.14 2-.07h1a2.93 2.93 0 0 0 .8-.2 1.42 1.42 0 0 0 .81-1.2 4.22 4.22 0 0 0 0-.87 2.23 2.23 0 0 0-.27-.76 1.39 1.39 0 0 0-.53-.52 1 1 0 0 0-.34-.13l-.46-.05a3.37 3.37 0 0 1-1.16-.35 2.37 2.37 0 0 1-.92-.91 4.09 4.09 0 0 1-.37-2.26v-4.05a18.44 18.44 0 0 1 .21-2.1 20.08 20.08 0 0 1 1.08-4 21 21 0 0 1 4.42-7 .16.16 0 0 1 .24 0 .17.17 0 0 1 0 .22 26.64 26.64 0 0 0-3.85 7.08 22.45 22.45 0 0 0-1 3.88q-.14 1-.18 2v4a3.16 3.16 0 0 0 .25 1.73 1.59 1.59 0 0 0 1.31.74 5.41 5.41 0 0 1 .56.06 2.37 2.37 0 0 1 1.54 1.12 3.14 3.14 0 0 1 .43 1.15 5.08 5.08 0 0 1 0 1.17 2.71 2.71 0 0 1-.42 1.18 2.36 2.36 0 0 1-1 .85 3.56 3.56 0 0 1-1.18.31h-1l-2.05.08-4.12.12a4.7 4.7 0 0 1-2.22-.54 6.08 6.08 0 0 1-2.91-3.29 7.78 7.78 0 0 1-.28-1.08l-.17-1-.66-4.05c-.88-5.39-1.8-10.77-2.38-16.22a.18.18 0 0 1 .15-.19.18.18 0 0 1 .31.18z" fill="#31323d"/><path d="M122.88 187.78a2.73 2.73 0 0 1 2.35 1.32 4.31 4.31 0 0 1 .54 1.29 7.81 7.81 0 0 1 .19 1.36.48.48 0 0 1-.45.5.47.47 0 0 1-.51-.44v-.08a7.87 7.87 0 0 0 0-1.19 3.81 3.81 0 0 0-.32-1.12 2.35 2.35 0 0 0-.72-.88 2.18 2.18 0 0 0-1.07-.42.18.18 0 0 1-.15-.19.16.16 0 0 1 .14-.15zm3.87-.26a2.79 2.79 0 0 1 2.36 1.33 4.31 4.31 0 0 1 .54 1.29 8.89 8.89 0 0 1 .18 1.36.47.47 0 0 1-.45.5.48.48 0 0 1-.51-.45v-.07a6.75 6.75 0 0 0 0-1.19 3.81 3.81 0 0 0-.32-1.12 2.33 2.33 0 0 0-.71-.88 2.25 2.25 0 0 0-1.07-.42.17.17 0 0 1-.16-.18.19.19 0 0 1 .14-.17z" fill="#31323d"/><path d="M57.74 173.24a58.19 58.19 0 0 0-14.11 6c-2 1.31-.77 4.28 1.77 4.23l21.45-.47" fill="none" stroke="#31323d" stroke-linecap="round" stroke-miterlimit="10" stroke-width=".956"/><path d="M50.79 179.57a3.66 3.66 0 0 0-2.06 1.22 1.45 1.45 0 0 0-.28 1 2.88 2.88 0 0 0 .33 1.07.48.48 0 1 1-.87.4 3.59 3.59 0 0 1-.26-1.47 2.24 2.24 0 0 1 .57-1.42 3.33 3.33 0 0 1 1.19-.8 5.12 5.12 0 0 1 1.33-.35.17.17 0 0 1 .07.33zm-3.63.15a2.13 2.13 0 0 0-1.54 1.28 1.94 1.94 0 0 0 0 1c0 .16.11.32.15.48l.23.48a.48.48 0 0 1-.23.64.47.47 0 0 1-.64-.23.14.14 0 0 1 0-.06l-.19-.6c0-.22-.09-.42-.11-.64a2.52 2.52 0 0 1 .22-1.32 2.13 2.13 0 0 1 .9-1 3.38 3.38 0 0 1 1.19-.38.17.17 0 0 1 .06.34z" fill="#31323d"/><path d="M141 173.46c3.63 1.06 10.46 3.53 13.75 5.77 2 1.36.77 4.28-1.77 4.23l-20-.39" fill="none" stroke="#31323d" stroke-linecap="round" stroke-miterlimit="10" stroke-width=".956"/><path d="M147.68 179.08a4.84 4.84 0 0 1 1.34.41 3.35 3.35 0 0 1 1.18.85 2.27 2.27 0 0 1 .57 1.43 3.57 3.57 0 0 1-.26 1.5.48.48 0 1 1-.91-.3v-.05a2.85 2.85 0 0 0 .33-1.09 1.64 1.64 0 0 0-.28-1 3.86 3.86 0 0 0-2.07-1.33.18.18 0 0 1-.12-.21.16.16 0 0 1 .22-.21zm3.63.15a3.19 3.19 0 0 1 1.19.45 2.29 2.29 0 0 1 .89 1 2.69 2.69 0 0 1 .22 1.34c0 .22-.07.43-.1.65l-.19.62a.49.49 0 0 1-.61.32.49.49 0 0 1-.31-.61v-.05l.23-.49c0-.16.12-.33.15-.5a2 2 0 0 0 0-1 2.25 2.25 0 0 0-1.54-1.34.16.16 0 0 1-.11-.21.17.17 0 0 1 .18-.18zM85.23 77.45A5.92 5.92 0 0 0 83 74.72a6.2 6.2 0 0 0-1.64-.72 8 8 0 0 0-1.75-.31.48.48 0 0 1-.43-.52.45.45 0 0 1 .25-.38 15.07 15.07 0 0 1 2.21-.79 11.85 11.85 0 0 1 2.36-.41 7.34 7.34 0 0 1 2.37.22A5 5 0 0 1 88.46 73l-.8.22a11.27 11.27 0 0 0 .22-1.56 9.25 9.25 0 0 0 0-1.58 4.87 4.87 0 0 0-1.12-2.76.5.5 0 0 1 0-.68.52.52 0 0 1 .37-.12 13.08 13.08 0 0 1 2.26.55 9.78 9.78 0 0 1 2.1 1 6.06 6.06 0 0 1 1.73 1.62A4.51 4.51 0 0 1 94 72l-.66-.1a21.28 21.28 0 0 1 1.42-2.72 14.57 14.57 0 0 1 1.86-2.44 6.87 6.87 0 0 1 2.61-1.8 4.29 4.29 0 0 1 3.26.12.48.48 0 0 1 .24.63l-.06.1a11.68 11.68 0 0 0-2 3.64 4.64 4.64 0 0 0-.22 1.94 2.76 2.76 0 0 0 .81 1.62h-.63a14.43 14.43 0 0 1 1.81-1.23 10.8 10.8 0 0 1 2-.9 5.51 5.51 0 0 1 2.26-.3 3.65 3.65 0 0 1 2.18 1 .49.49 0 0 1 0 .68.39.39 0 0 1-.15.11 10.38 10.38 0 0 0-2.8 1.65 4 4 0 0 0-1.49 2.87.2.2 0 0 1-.19.2.19.19 0 0 1-.19-.18 3.74 3.74 0 0 1 .34-1.83 5.82 5.82 0 0 1 1.06-1.53 9.41 9.41 0 0 1 1.38-1.22 11.8 11.8 0 0 1 1.57-1l-.13.79a2.69 2.69 0 0 0-1.62-.71 4.73 4.73 0 0 0-1.88.26 11.81 11.81 0 0 0-3.52 2 .48.48 0 0 1-.63 0 3.67 3.67 0 0 1-1.09-2.19 5.56 5.56 0 0 1 .24-2.34 10.71 10.71 0 0 1 .9-2.08 13.56 13.56 0 0 1 1.24-1.88l.17.73a3.37 3.37 0 0 0-2.57-.15 6 6 0 0 0-2.31 1.53A17.13 17.13 0 0 0 94 72.12a.34.34 0 0 1-.45.19.34.34 0 0 1-.21-.28 3.83 3.83 0 0 0-.71-1.88 5.34 5.34 0 0 0-1.55-1.36 8.7 8.7 0 0 0-2-.84A12.63 12.63 0 0 0 87 67.5l.4-.79A5.83 5.83 0 0 1 88.8 70a10.12 10.12 0 0 1 0 1.74 10.57 10.57 0 0 1-.25 1.74.46.46 0 0 1-.56.35.43.43 0 0 1-.22-.12 4.13 4.13 0 0 0-1.73-1 6.39 6.39 0 0 0-2.04-.17 10.24 10.24 0 0 0-2.11.36 13.92 13.92 0 0 0-2 .71l-.16-.9a9.11 9.11 0 0 1 1.93.49 7.18 7.18 0 0 1 1.73 1 6.55 6.55 0 0 1 2.24 3.17.2.2 0 0 1-.13.24.19.19 0 0 1-.23-.11z" fill="#31323d"/><path d="M105.85 74.81a19 19 0 0 1 4.31 1.68 33 33 0 0 1 2.72 1.87 18.62 18.62 0 0 1 2.42 2.28 51.2 51.2 0 0 1 4 5.23 117.4 117.4 0 0 1 6.54 11.29l1.41 2.95c.45 1 .91 1.93 1.44 2.85a15.56 15.56 0 0 0 4.12 4.71 9.6 9.6 0 0 0 2.74 1.4 7.69 7.69 0 0 0 1.49.29h.23a.75.75 0 0 1 .5.32.69.69 0 0 1 .08.58.75.75 0 0 1-.13.27l-.08.09a4 4 0 0 1-.72.6 6.19 6.19 0 0 1-3.4.78 14.64 14.64 0 0 1-3.31-.51l.35-.89a36.31 36.31 0 0 0 5 2.17 22 22 0 0 0 2.61.72c.44.09.88.15 1.32.2h.9a.7.7 0 0 1 .44.26.72.72 0 0 1-.05.94.68.68 0 0 1-.18.14h-.08l-.16.08-.31.16-.64.31c-.42.2-.86.39-1.29.56a17.12 17.12 0 0 1-2.72.84 10.25 10.25 0 0 1-2.88.26 5.86 5.86 0 0 1-2.85-.87l.63-.1a48.825 48.825 0 0 1-3.39 3.36 44.25 44.25 0 0 1-3.67 3 .19.19 0 0 1-.23-.3 45.23 45.23 0 0 0 3.44-3.2c1.09-1.12 2.15-2.29 3.11-3.49a.46.46 0 0 1 .58-.12 6.8 6.8 0 0 0 5 .48 16.5 16.5 0 0 0 2.56-.8c.42-.16.84-.34 1.25-.53l.61-.3.3-.15.15-.08h.07a.25.25 0 0 0 0 .32.29.29 0 0 0 .15.09h-.83c-.48-.06-.95-.12-1.42-.22a22.89 22.89 0 0 1-2.73-.74 37.83 37.83 0 0 1-5.15-2.24.48.48 0 0 1-.2-.64.48.48 0 0 1 .55-.24 13.32 13.32 0 0 0 3.09.48 5.23 5.23 0 0 0 2.86-.62 2.52 2.52 0 0 0 .52-.44l.08.11a.12.12 0 0 0 0 .08.27.27 0 0 0 0 .2.22.22 0 0 0 .17.1H137a8 8 0 0 1-1.69-.33 10.48 10.48 0 0 1-3-1.53 16.4 16.4 0 0 1-4.38-5c-.56-.95-1-1.95-1.5-2.94L125 97.61a114.22 114.22 0 0 0-6.49-11.19 49.91 49.91 0 0 0-3.87-5.13 18.09 18.09 0 0 0-2.3-2.16 29.24 29.24 0 0 0-2.64-1.81 18.22 18.22 0 0 0-4.09-1.61.48.48 0 1 1 .24-.92zM69.2 124.59a24.74 24.74 0 0 1-4-2.65 8.46 8.46 0 0 1-1.69-1.83 3.74 3.74 0 0 1-.51-1.25 12.28 12.28 0 0 1-.12-1.24l.73.38a6.84 6.84 0 0 1-2.25.77c-.38.08-.75.13-1.13.18h-.28a.71.71 0 0 1-.69-.31.73.73 0 0 1 0-.78 1.23 1.23 0 0 1 .32-.3 18.71 18.71 0 0 0 2.88-3.19l.6.71a15.79 15.79 0 0 1-3.91 1.31 11.9 11.9 0 0 1-2.07.2H56a.59.59 0 0 1-.17 0 .72.72 0 0 1-.24-1.22 1.35 1.35 0 0 1 .35-.19l.21-.1a12.75 12.75 0 0 0 3.17-2.17A21 21 0 0 0 62 110l.73.62a7.55 7.55 0 0 1-3.36 1.94 9.58 9.58 0 0 1-3.84.16c-.31 0-.63-.1-.94-.17l-.46-.11-.23-.06h-.11a.61.61 0 0 1-.28-.14.72.72 0 0 1 .09-1.17l.15-.07h.16l.21-.07c.28-.1.56-.2.84-.32a19.08 19.08 0 0 0 3.17-1.65 18.71 18.71 0 0 0 5.16-4.96 19.83 19.83 0 0 0 1.81-3.09c.23-.56.46-1.07.7-1.68l.66-1.68a76.2 76.2 0 0 1 6-13.51A22.4 22.4 0 0 1 74.59 81c.42-.48.85-.92 1.28-1.36a16.58 16.58 0 0 1 1.41-1.25A19 19 0 0 1 84 74.93a.46.46 0 0 1 .58.33.47.47 0 0 1-.33.59 18.08 18.08 0 0 0-6.32 3.24c-.47.38-.91.77-1.34 1.18s-.85.88-1.23 1.32a21.1 21.1 0 0 0-2.08 2.92 75.34 75.34 0 0 0-5.87 13.34l-.68 1.74c-.21.53-.48 1.14-.72 1.71a19.9 19.9 0 0 1-1.9 3.24 19.7 19.7 0 0 1-5.43 5.14 19.94 19.94 0 0 1-3.34 1.73c-.29.12-.58.23-.88.33l-.22.08h-.12a.23.23 0 0 0 0-.39h-.08.11l.22.06.43.1c.29.06.58.12.87.16a8.51 8.51 0 0 0 3.45-.15 6.43 6.43 0 0 0 2.88-1.67.48.48 0 0 1 .71.63 21.42 21.42 0 0 1-2.76 3 13.64 13.64 0 0 1-3.41 2.33l-.24.11c-.07 0-.22.11-.1 0a.23.23 0 0 0-.08-.41h.84a11.13 11.13 0 0 0 1.91-.18 14.62 14.62 0 0 0 3.66-1.23.46.46 0 0 1 .63.22.48.48 0 0 1 0 .49c-.46.62-.92 1.2-1.42 1.76a13.24 13.24 0 0 1-1.65 1.61c-.06 0-.21.2-.1.07a.22.22 0 0 0 0-.26c0-.07-.19-.12-.2-.11h.26c.36 0 .72-.1 1.07-.16a6.36 6.36 0 0 0 1.93-.65.48.48 0 0 1 .65.16.67.67 0 0 1 .07.24v1.14a2.89 2.89 0 0 0 .34 1 7.42 7.42 0 0 0 1.44 1.75 23 23 0 0 0 3.79 2.81.2.2 0 0 1 .06.27.2.2 0 0 1-.2.07z" fill="#31323d"/><path d="M66 95.54s-1.42-6.46-.43-9.21c0 0 1.23 1.68 2.49 1.82l-.15-1.87 3.77 1.64A7.83 7.83 0 0 0 66 95.54zm59.17-2.04s.08-6.62-1.44-9.12c0 0-.87 1.9-2.08 2.29l-.22-1.86-3.36 2.37a7.83 7.83 0 0 1 7.1 6.32z" fill="#31323d"/><path d="M83.64 95.5a3.09 3.09 0 0 1 .88 2.15 9.92 9.92 0 0 1-19.76 1.29c-.71-5.44 4.18-12.57 9.18-10.32a30.6 30.6 0 0 1 9.7 6.88z" fill="#fff"/><g clip-path="url(#k)"><circle cx="76.3" cy="97.41" fill="#ffa127" r="8.03"/><circle cx="76.07" cy="97.56" fill="#31323d" r="6.35"/><circle cx="79.07" cy="92.21" fill="#fff" r="3.38"/></g><path d="M83.64 95.5a3.09 3.09 0 0 1 .88 2.15 9.92 9.92 0 0 1-19.76 1.29c-.71-5.44 4.18-12.57 9.18-10.32a30.6 30.6 0 0 1 9.7 6.88z" fill="none" stroke="#31323d" stroke-linecap="round" stroke-miterlimit="10" stroke-width=".765"/><path d="M107 94.59a3.13 3.13 0 0 0-.9 2.18 9.92 9.92 0 0 0 19.76 1.28c.72-5.43-4.18-12.57-9.17-10.32a30.7 30.7 0 0 0-9.69 6.86z" fill="#fff"/><g clip-path="url(#l)"><circle cx="114.3" cy="96.53" fill="#ffa127" r="8.03"/><circle cx="114.54" cy="96.67" fill="#31323d" r="6.35"/><circle cx="111.53" cy="91.33" fill="#fff" r="3.38"/></g><path d="M107 94.59a3.13 3.13 0 0 0-.9 2.18 9.92 9.92 0 0 0 19.76 1.28c.72-5.43-4.18-12.57-9.17-10.32a30.7 30.7 0 0 0-9.69 6.86z" fill="none" stroke="#31323d" stroke-linecap="round" stroke-miterlimit="10" stroke-width=".765"/><path d="M92.63 122.15s.6 5.52 5.24 5.07c4.49-.43 4.7-5.65 4.7-5.65a6 6 0 0 1-4.4 2.61c-2.9.2-5.54-2.03-5.54-2.03z" fill="#595959" opacity=".2"/><g fill="#31323d"><path d="M91.41 105.22a1.15 1.15 0 0 1 .18-1.24 6.78 6.78 0 0 1 4.73-2c2.67-.22 4.08.62 4.74 1.24a1.14 1.14 0 0 1 .29 1.21 1.61 1.61 0 0 1-1.32 1.05 3.06 3.06 0 0 0-2.4 1.4l-.13.18a1.35 1.35 0 0 1-1.94 0s-.63-.9-2.69-.9a1.59 1.59 0 0 1-1.43-.93z"/><path d="M97.21 107.31a14.45 14.45 0 0 0 1.79 3.84 10.85 10.85 0 0 0 2.9 3.06 10.14 10.14 0 0 0 1.87 1 9.29 9.29 0 0 0 2.09.46 10.3 10.3 0 0 0 2.15 0c.72-.06 1.42-.26 2.14-.38a.14.14 0 0 1 .16.11.15.15 0 0 1-.1.16c-.73.16-1.44.39-2.18.49a9.85 9.85 0 0 1-2.24.09 10 10 0 0 1-2.23-.37 10.75 10.75 0 0 1-2.06-1 11.65 11.65 0 0 1-3.29-3.12 15.28 15.28 0 0 1-2.08-4.06.58.58 0 0 1 .36-.73.57.57 0 0 1 .72.36v.06z"/><path d="M87.38 117.29a9.57 9.57 0 0 0 3.89-.83 7.45 7.45 0 0 0 3-2.41 9.46 9.46 0 0 0 1.49-3.55c.14-.64.17-1.3.25-2a4.71 4.71 0 0 1 .2-2v-.08a.38.38 0 0 1 .52-.18.34.34 0 0 1 .21.24 9 9 0 0 1-.24 4.18 10.21 10.21 0 0 1-1.83 3.83 8.15 8.15 0 0 1-3.4 2.51 9.77 9.77 0 0 1-4.11.5.09.09 0 0 1 0-.17zm15.38 4.03a4.62 4.62 0 0 1-.61 1.52A5 5 0 0 1 101 124a5.74 5.74 0 0 1-3.14 1.06 6.4 6.4 0 0 1-3.2-.75 5.58 5.58 0 0 1-2.3-2.24.19.19 0 0 1 .08-.26.18.18 0 0 1 .23 0 6.85 6.85 0 0 0 5.14 2.19 5.83 5.83 0 0 0 2.64-.75 5.24 5.24 0 0 0 2-2 .19.19 0 0 1 .26-.08.18.18 0 0 1 .05.15zm1.73-12.25a42.54 42.54 0 0 1 6.93-.81 35 35 0 0 1 6.94.43 23 23 0 0 1 6.61 2.09 16.14 16.14 0 0 1 5.37 4.3 16 16 0 0 0-5.46-4.13 22.46 22.46 0 0 0-6.58-1.88 38.4 38.4 0 0 0-13.64.75.38.38 0 1 1-.17-.75zm13.22-3.77a38.9 38.9 0 0 0-11.54 2.11.39.39 0 0 1-.49-.24.38.38 0 0 1 .24-.48 39.12 39.12 0 0 1 11.79-1.39zm-12.17 5.54a9.78 9.78 0 0 1 3.58.07 12.23 12.23 0 0 1 3.29 1.31 16.92 16.92 0 0 1 2.8 2.1 19 19 0 0 1 2.34 2.57 18.91 18.91 0 0 0-2.47-2.43 16 16 0 0 0-2.86-1.9 11.65 11.65 0 0 0-3.2-1.09 9 9 0 0 0-3.32.12.38.38 0 1 1-.16-.74zm-16.1.16c-2.29-.45-4.56-.9-6.87-1.16a37.45 37.45 0 0 0-6.94-.23 21.12 21.12 0 0 0-6.75 1.49 13.56 13.56 0 0 0-5.49 4.17 13.58 13.58 0 0 1 5.41-4.34 21.31 21.31 0 0 1 6.8-1.7 37.52 37.52 0 0 1 7 0c2.34.2 4.65.59 7 1a.38.38 0 1 1-.12.75zm-13.36-4.5a20.71 20.71 0 0 1 12 1.44.4.4 0 0 1 .2.51.38.38 0 0 1-.51.19 20.33 20.33 0 0 0-11.69-2.14zm12.37 6.3a7.64 7.64 0 0 0-3.3-.1A10.85 10.85 0 0 0 82 114a16.48 16.48 0 0 0-2.76 2.1 21.27 21.27 0 0 0-2.35 2.57 19.88 19.88 0 0 1 2.23-2.67 17.19 17.19 0 0 1 2.68-2.28 11.07 11.07 0 0 1 3.2-1.57 8.23 8.23 0 0 1 3.63-.09.39.39 0 0 1 .29.46.37.37 0 0 1-.45.29z"/></g><path d="M91.05 116.88a7.59 7.59 0 0 0 1.43 1.54.18.18 0 0 0 .16 0 .19.19 0 0 0 .12-.16 6.66 6.66 0 0 1 .49-2.39c.35-.35-2.2 1.01-2.2 1.01zm11.86-1.68s.21 1.61.19 2.14c0 0 0 .27.13.32s1-.57 1.26-1.78z" fill="#fff" stroke="#30313c" stroke-miterlimit="10" stroke-width=".535"/></g></svg>