<svg height="252" viewBox="0 0 200 252" width="200" xmlns="http://www.w3.org/2000/svg" xmlns:xlink="http://www.w3.org/1999/xlink"><clipPath id="d"><path d="M-24-37h248v320H-24z"/></clipPath><clipPath id="e"><path d="M127.48 158.08c6.15 2.71 14.48 3.61 14.48 3.61s30.95 4.07 35.54-22.22c1.74-14.63-15.8-17.66-15.8-17.66s8.19-3.31 11.12-.63c0 0-1.64-2.74-4.13-3 0 0 10.55-7.22 19 9.27 0 0-1.1-8.4-4.5-10.09 0 0 12.71 2.95 14.94 21.83 0 0 2.35-3.76 2.09-6.91a18.07 18.07 0 0 1-.65 19.4s5.26-5.09 5.68-7.82c0 0 6.59 19.16-13.51 22.06 0 0 5.46 2.06 9.08.3 0 0-3.49 7.71-14.79 6.71 0 0 5.5 3.8 8.85 3 0 0-8.31 4.31-22.41 1.2 0 0 4.78 4.47 8.31 4.56l-.93.23a55.93 55.93 0 0 1-30.82-1.46L135.59 176l-8.11-3.35z"/></clipPath><linearGradient id="a" gradientUnits="userSpaceOnUse" x1="165.07" x2="165.07" y1="188.1" y2="162.98"><stop offset="0" stop-color="gray"/><stop offset=".27" stop-color="#7d7d7d"/><stop offset=".46" stop-color="#747474"/><stop offset=".64" stop-color="#646464"/><stop offset=".8" stop-color="#4d4d4d"/><stop offset=".95" stop-color="#303030"/><stop offset="1" stop-color="#242424"/></linearGradient><linearGradient id="c" gradientUnits="userSpaceOnUse" x1="184.44" x2="184.44" y1="138.35" y2="111.17"><stop offset="0" stop-color="#fff" stop-opacity="0"/><stop offset=".72" stop-color="#fff"/></linearGradient><linearGradient id="f" gradientTransform="rotate(26.38 -3717.356 4388.569)" x1="-2120.96" x2="-2120.96" xlink:href="#a" y1="-1118.24" y2="-1154.08"/><clipPath id="g"><path d="M154.51 180c-3.27-2.23-10.07-4.68-13.68-5.74h-.05a18.94 18.94 0 0 0 .48-11.85L128 119.16c1.1-1.15 1.77-1.94 1.77-1.94 3.22 2.06 8.34-.27 10.42-1.39a.24.24 0 0 0-.12-.45c-4.07 0-9.87-3.16-9.87-3.16 4.61 1.22 6.39-.08 7-.79a.25.25 0 0 0-.18-.4c-1.49-.06-6.54-.93-10.22-9.3-.5-1.15-1-2.29-1.61-3.4-1.12-2.14-3-5.54-5.07-8.91l.1-.54L124 73.27a2.28 2.28 0 0 0-3.58-2.37l-10 7.4-.15.2-.37-.24a18 18 0 0 0-4.18-1.63l-.25-.06a7 7 0 0 1 3.11-3.37c-2.73-2.56-7.6 1.47-7.6 1.47-2.82-2.71 1.32-7.8 1.32-7.8-4.92-2.24-8.58 6.49-8.58 6.49-.35-4.28-6.54-4.93-6.54-4.93 2.06 2.26 1 6.31 1 6.31-2.9-2.84-8.42-.19-8.42-.19a7.21 7.21 0 0 1 4.63 2.13l-.23.06a18.36 18.36 0 0 0-6 3l-10-6.18a2.28 2.28 0 0 0-3.4 2.56l4.43 15.38.32 1.13c-1 2.47-1.83 4.7-2.26 6-.27.79-.58 1.57-.92 2.34a19.42 19.42 0 0 1-12.18 11.63.24.24 0 0 0 0 .46c1.57.44 5.54 1.33 8.44-1.6 0 0-2.84 3.93-6.33 5.34a.24.24 0 0 0 .06.46 12.63 12.63 0 0 0 6.68-1.44 19.86 19.86 0 0 1-3.1 3.38.24.24 0 0 0 .17.43 9.16 9.16 0 0 0 3.45-.91v.92a4.54 4.54 0 0 0 1.63 2.79l-8.07 42.67A19 19 0 0 0 58 174a57.88 57.88 0 0 0-14 6c-2 1.31-.77 4.25 1.76 4.21l20.3-.4q.51.31 1 .6v.25c0 1.78-.51 3.23-2.28 3.32a2.41 2.41 0 0 0-2.33 1.6 2.3 2.3 0 0 0 2.07 3.07L71 193a5.38 5.38 0 0 0 5-2.59 5.6 5.6 0 0 0 .67-1.82l.38-2h40.57l.26 1.57a5.48 5.48 0 0 0 3.28 4.13 4.13 4.13 0 0 0 1.7.3l7-.23c1.68-.17 2.29-1.2 2.12-2.81a2.1 2.1 0 0 0-1.86-1.94 2.08 2.08 0 0 1-2.14-1.67 18.72 18.72 0 0 0 5-2.13l19.88.39c2.42.06 3.63-2.83 1.65-4.2z"/></clipPath><linearGradient id="b" gradientUnits="userSpaceOnUse" x1="118.08" x2="118.08" y1="72.94" y2="88.88"><stop offset="0" stop-color="gray"/><stop offset=".14" stop-color="#797979"/><stop offset=".35" stop-color="#646464"/><stop offset=".6" stop-color="#434343"/><stop offset=".89" stop-color="#141414"/><stop offset="1"/></linearGradient><linearGradient id="h" x1="65.28" x2="74.49" xlink:href="#b" y1="83.74" y2="83.74"/><linearGradient id="i" x1="127.66" x2="127.66" xlink:href="#c" y1="184.63" y2="76.57"/><clipPath id="j"><path d="M83.76 96.74a3.13 3.13 0 0 1 .87 2.14A9.87 9.87 0 0 1 65 100.16c-.71-5.4 4.16-12.5 9.12-10.26a30.47 30.47 0 0 1 9.64 6.84z"/></clipPath><clipPath id="k"><path d="M107 95.84a3.11 3.11 0 0 0-.9 2.17 9.87 9.87 0 0 0 19.65 1.27c.71-5.4-4.16-12.5-9.12-10.26a30.33 30.33 0 0 0-9.63 6.82z"/></clipPath><path d="M-24-37h248v320H-24z" fill="#fee"/><g clip-path="url(#d)"><ellipse cx="99" cy="184.5" fill="#edcaca" rx="57" ry="9.5"/><g clip-path="url(#e)"><path d="M124.04 114.82h83.72v69.17h-83.72z" fill="#ffe0de"/><path d="M144.72 169.36c9.54 4.7 6.39 9.4 17.76 10.28 18.57 3 29.38-3.78 34.85-10.93l8.93-4-8.56 23.4-73.83-.82 4.82-24.3s10.92 3.85 16.03 6.37z" fill="url(#a)" opacity=".2"/><path d="M172.82 121.18s-5.86-5.11 12 1.6 14.81 15.57 14.81 15.57l8.85-3.64-.69-9.13-13.79-12.7-30.67-1.57-2.86-.14z" fill="url(#c)" opacity=".5"/><path d="M170 130.48c.76.14 10.43.86 9.49 14.06-1 13.69-11 17.11-27.88 16.08l20.25-21.83s-1.16-1.71-3.63-5-3.46-3.64-3.46-3.64a47.38 47.38 0 0 1 5.23.33z" fill="url(#f)" opacity=".2"/></g><path d="M126.12 158.33c6.27 2.73 14.76 3.63 14.76 3.63s31.55 4.1 36.23-22.36c1.77-14.71-16.1-17.76-16.1-17.76s8.35-3.33 11.33-.64c0 0-1.68-2.75-4.21-3 0 0 10.75-7.26 19.39 9.32 0 0-1.12-8.45-4.58-10.14 0 0 12.95 3 15.23 22 0 0 2.39-3.79 2.13-7a18 18 0 0 1-.67 19.51s5.36-5.12 5.79-7.86c0 0 6.72 19.27-13.77 22.19 0 0 5.56 2.08 9.26.3 0 0-3.56 7.75-15.09 6.75 0 0 5.61 3.83 9 3 0 0-8.47 4.34-22.85 1.2 0 0 4.88 4.5 8.48 4.59l-.95.24a57.79 57.79 0 0 1-31.42-1.47l-13.73-4.58-8.23-3.25z" fill="none" stroke="#31323d" stroke-linecap="round" stroke-linejoin="round" stroke-width="1.136"/><g clip-path="url(#g)"><path d="M42.24 56.13h115.62v142.56H42.24z" fill="#ffe0de"/><g fill="#fff"><path d="M77 187.54c-.42-1.11.24-4.32 1.57-10.74.8-3.83 1.44-6.34 1.83-8 3-12.31 1.23-13.66 3.8-21 1.76-5 3.59-10 8.44-12.32.58-.28 5-2.33 9.51-.53s6.17 6.13 8 10.79c2.22 5.64 1.52 7.59 4 21.69q.78 4.41 1.57 8.81c.31 1.72.61 3.45.91 5.17a35.76 35.76 0 0 1 .71 4.28c-.67 6-36.94 10.72-40.34 1.85z"/><path d="M79.05 175.43l-3.12 15-2.14 2.12-3.35.44-8-.81v-3.29L67 186l-.79-13.05s2 2.87 6.92 3.1 5.92-.62 5.92-.62zm50.3-1.43l-1.22 5.6-.15 6.69 4.1 2.63v3.29l-8 .81-3.36-.44-2.13-2.12-3.12-15s2.61 2.47 7.47 1.88c4.98-.64 6.41-3.34 6.41-3.34z"/><path d="M57 169.32s-.44 7.53 10.06 15.09l-18.7 2.2L37.52 183l.8-3.11zm84.59 2.16s-2.23 9.35-10.18 13.16l25.35.3v-6.08z"/></g></g><g clip-path="url(#g)"><path d="M85.71 78.61c-6.2 1.8-11 8.26-13.86 18-.82 2.6-4.92 15.77-4.77 20.56.16 5.21 2.9 8.29 2.41 8.29s-1.5-1.21-1.67-.76a49.88 49.88 0 0 0-1.18 6c-1.53 10.12-2.55 24.94-3 28.8a71.92 71.92 0 0 0-.52 7.48v.26c1.79 2 3.62 6.75 4 13.45l.1 3.72s-2.38-.06-6.16-.06c-4.72 0-8.43-8.49-6-21.15 2.16-11.37-5.17-69.62-5.17-69.62l21.45-3.36a18.66 18.66 0 0 1 13.08-13.54z" fill="#7f7f7f" opacity=".2"/><path d="M123.8 74s-1.33-3.29-6.2 1.84a14.35 14.35 0 0 1-5.24 4.11l7.81 8.95z" fill="url(#b)" opacity=".4"/><path d="M65.35 77.94s-.72-3 2.64-1.58c1.4.57 3.85 3.09 4.83 4.25l1.67 2.66-5.3 8.23z" fill="url(#h)" opacity=".4"/><path d="M80.44 168.21c-1.85 11.23 4.13 13.55 5.21 13.8 6.58 1.18 17 .67 20.42-.52 3.18-1.13 9.88-4.45 8.21-14.41l3.27 19.53H77zm47.74 8.89s2.27-6.95 5-9.5c-3 5.71 1.07 7.06 2.14 6.68 4.08-1.46 5.7-5.08 6-11.41l5 8.84s-4.19 19.47-15.52 16.27l-2.94-1.37z" fill="#7f7f7f" opacity=".2"/></g><g clip-path="url(#g)"><path d="M105.24 78.1s4.12 1.12 5.8 3.5 3.34 6.52 6.71 13.08c2.43 4.72 7.31 12.16 8.37 19.64.48 4.33-2.66 8.45-3.15 9.39.09.26 2.68-2.42 2.77-2.16 5 14.66 9.19 32.23 11.24 41.33 3.5 15.57-6.18 21.75-6.18 21.75l4.65-2.7s4.79-5.68 5.51-8.18c1.58-5.47 10.57-2.51 8.91-11.23-2.41-12.66-17.33-77.14-17.33-77.14s-15.3 1.07-17.41-2.68c-1.57-2.8-5.79-5-9.66-6.13z" fill="url(#i)" opacity=".2"/></g><path d="M110.42 78.3l10-7.4a2.28 2.28 0 0 1 3.58 2.37l-3.81 15.61-.1.54m-41.91-9.71l-10-6.18a2.28 2.28 0 0 0-3.4 2.56l4.41 15.41.32 1.13" fill="none" stroke="#31323d" stroke-linecap="round" stroke-miterlimit="10" stroke-width=".95"/><path d="M117.55 186.61H76.98" fill="#fff" stroke="#31323d" stroke-linecap="round" stroke-miterlimit="10" stroke-width=".95"/><path d="M128 119.16l13.29 43.24a19 19 0 0 1-13.4 23.6m-60.81-1.58a19 19 0 0 1-10-19.32l8.12-42.67" fill="none" stroke="#31323d" stroke-linecap="round" stroke-miterlimit="10" stroke-width=".95"/><path d="M80.61 168.24c-.54 4.63-1.42 9.2-2.27 13.77l-1.27 6.88a5.86 5.86 0 0 1-1.88 3.25 5.93 5.93 0 0 1-3.49 1.43 13.3 13.3 0 0 1-1.81 0l-1.74-.09-3.49-.22a3 3 0 0 1-1.92-.74 2.83 2.83 0 0 1-.87-1.91 4.26 4.26 0 0 1 .08-1 2.27 2.27 0 0 1 .49-1 3.11 3.11 0 0 1 1.79-1 4.46 4.46 0 0 1 .51-.07 2.1 2.1 0 0 0 .37 0 1.42 1.42 0 0 0 .61-.24 1.82 1.82 0 0 0 .72-1.13 12.64 12.64 0 0 0 .06-3.33l-.28-7a20.47 20.47 0 0 0-1-4.42 14.05 14.05 0 0 0-2.17-4 .16.16 0 0 1 0-.24.17.17 0 0 1 .22 0 12.15 12.15 0 0 1 2.73 3.93 18.27 18.27 0 0 1 1.16 4.57l.35 7 .09 1.74a6.41 6.41 0 0 1-.16 1.88 2.88 2.88 0 0 1-1.13 1.73 2.48 2.48 0 0 1-1 .39 5 5 0 0 1-.5.07 2.2 2.2 0 0 0-.36 0c-2.23.19-1.88 3.79.3 3.58l3.48.2 1.74.11a16.29 16.29 0 0 0 1.67.06 4.81 4.81 0 0 0 4.43-3.82l1.32-6.85c.87-4.57 1.71-9.14 2.89-13.66a.18.18 0 0 1 .21-.12.17.17 0 0 1 .12.25z" fill="#31323d"/><path d="M70.46 189.43a1.49 1.49 0 0 0-.92.39 2.21 2.21 0 0 0-.59.85 6.19 6.19 0 0 0-.41 2.16.48.48 0 0 1-1-.05v-.06a6.72 6.72 0 0 1 .78-2.35 2.27 2.27 0 0 1 2.13-1.28.16.16 0 0 1 .14.18.16.16 0 0 1-.16.15zm-3.23-.35a1.73 1.73 0 0 0-.9.46 2.41 2.41 0 0 0-.59.85 5.69 5.69 0 0 0-.41 2.1.48.48 0 1 1-1 0v-.06a6.36 6.36 0 0 1 .78-2.33 2.57 2.57 0 0 1 2.06-1.34.16.16 0 0 1 .17.16.16.16 0 0 1-.14.17zm47.22-22.03c1.22 5.31 2.09 10.67 3 16l.69 4 .17 1a5.06 5.06 0 0 0 .24.89 4.86 4.86 0 0 0 1 1.57 4.34 4.34 0 0 0 3.17 1.53l4-.15 2-.06h1a2.62 2.62 0 0 0 .8-.21 1.36 1.36 0 0 0 .8-1.18 3.7 3.7 0 0 0 0-.88 2.25 2.25 0 0 0-.27-.75 1.39 1.39 0 0 0-.53-.52 1.18 1.18 0 0 0-.33-.12 3.07 3.07 0 0 0-.46-.06 3 3 0 0 1-1.16-.35 2.32 2.32 0 0 1-.91-.9 4 4 0 0 1-.37-2.24v-4a18.26 18.26 0 0 1 .21-2.09 19.17 19.17 0 0 1 1.08-4 21 21 0 0 1 4.38-7 .18.18 0 0 1 .25 0 .17.17 0 0 1 0 .22 26.6 26.6 0 0 0-3.82 7 21.34 21.34 0 0 0-.95 3.86 18.75 18.75 0 0 0-.19 2v4a3.16 3.16 0 0 0 .25 1.72 1.58 1.58 0 0 0 1.3.73 3.67 3.67 0 0 1 .56.07 2.09 2.09 0 0 1 .62.22 2.46 2.46 0 0 1 .92.89 3.19 3.19 0 0 1 .42 1.14 4.5 4.5 0 0 1 0 1.16 2.83 2.83 0 0 1-.41 1.18 2.4 2.4 0 0 1-1 .84 3.5 3.5 0 0 1-1.17.31h-1l-2 .08-4.1.12a4.65 4.65 0 0 1-2.2-.54 6.11 6.11 0 0 1-1.75-1.36 6 6 0 0 1-1.14-1.91 5.71 5.71 0 0 1-.28-1.08l-.17-1-.66-4c-.87-5.37-1.79-10.72-2.37-16.13a.17.17 0 0 1 .34-.06z" fill="#31323d"/><path d="M122.77 188.51a2.77 2.77 0 0 1 2.35 1.32 4.09 4.09 0 0 1 .53 1.28 7.84 7.84 0 0 1 .19 1.35.48.48 0 0 1-1 .06v-.06a7.86 7.86 0 0 0 0-1.19 3.46 3.46 0 0 0-.31-1.11 2.45 2.45 0 0 0-.72-.88 2.28 2.28 0 0 0-1.06-.42.17.17 0 0 1 0-.34zm3.85-.25a2.75 2.75 0 0 1 2.35 1.32 4.36 4.36 0 0 1 .54 1.28 8.92 8.92 0 0 1 .18 1.35.48.48 0 0 1-.45.5.46.46 0 0 1-.5-.44v-.06a7.86 7.86 0 0 0 0-1.19 3.46 3.46 0 0 0-.31-1.11 2.43 2.43 0 0 0-.71-.88 2.36 2.36 0 0 0-1.07-.42.17.17 0 0 1 0-.34z" fill="#31323d"/><path d="M58 174.06A57.88 57.88 0 0 0 44 180c-2 1.31-.77 4.25 1.76 4.21l21.32-.42" fill="none" stroke="#31323d" stroke-linecap="round" stroke-miterlimit="10" stroke-width=".95"/><path d="M51.09 180.35a3.65 3.65 0 0 0-2.09 1.21 1.51 1.51 0 0 0-.27 1 2.89 2.89 0 0 0 .33 1.06.48.48 0 0 1-.87.4v-.05a3.75 3.75 0 0 1-.26-1.46 2.2 2.2 0 0 1 .57-1.41 3.39 3.39 0 0 1 1.18-.8A5.12 5.12 0 0 1 51 180a.18.18 0 0 1 .19.15.17.17 0 0 1-.13.18zm-3.61.15a2.1 2.1 0 0 0-1.48 1.23 1.91 1.91 0 0 0 0 1 4 4 0 0 0 .15.49l.22.47v.05a.47.47 0 1 1-.86.4v-.06l-.19-.6c0-.21-.08-.42-.1-.64a2.61 2.61 0 0 1 .21-1.31 2.23 2.23 0 0 1 .91-.94 3.22 3.22 0 0 1 1.17-.38.18.18 0 0 1 .19.15.17.17 0 0 1-.13.19z" fill="#31323d"/><path d="M140.83 174.28c3.61 1.05 10.41 3.5 13.68 5.73 2 1.36.77 4.25-1.76 4.21l-19.9-.39" fill="none" stroke="#31323d" stroke-linecap="round" stroke-miterlimit="10" stroke-width=".95"/><path d="M147.44 179.86a5.13 5.13 0 0 1 1.33.41 3.45 3.45 0 0 1 1.18.85 2.27 2.27 0 0 1 .56 1.42 3.55 3.55 0 0 1-.26 1.49.47.47 0 0 1-.6.3.47.47 0 0 1-.3-.6 2.92 2.92 0 0 0 .33-1.09 1.63 1.63 0 0 0-.28-1 3.82 3.82 0 0 0-2.06-1.32.18.18 0 0 1-.12-.21.18.18 0 0 1 .22-.25zm3.61.14a3.39 3.39 0 0 1 1.18.45 2.36 2.36 0 0 1 .89 1 2.64 2.64 0 0 1 .22 1.33c0 .22-.07.43-.1.65l-.2.61a.47.47 0 0 1-.59.31.46.46 0 0 1-.32-.59.14.14 0 0 0 0-.06v-.05l.22-.48a4.74 4.74 0 0 0 .15-.5 2 2 0 0 0 0-1 2.22 2.22 0 0 0-1.53-1.33.16.16 0 0 1-.11-.21.18.18 0 0 1 .19-.13zM85.33 78.79a5.9 5.9 0 0 0-2.25-2.71 5.55 5.55 0 0 0-1.6-.74 7.87 7.87 0 0 0-1.73-.34.46.46 0 0 1-.43-.51.45.45 0 0 1 .25-.38 13.46 13.46 0 0 1 2.18-.77 11 11 0 0 1 2.31-.34 7 7 0 0 1 2.36.22 5 5 0 0 1 2.12 1.21l-.79.22a11.12 11.12 0 0 0 .25-1.58 9.13 9.13 0 0 0 0-1.57 4.9 4.9 0 0 0-1.11-2.75.47.47 0 0 1 0-.67.46.46 0 0 1 .37-.12 12 12 0 0 1 2.24.54 9.93 9.93 0 0 1 2.09 1 6 6 0 0 1 1.72 1.61 4.44 4.44 0 0 1 .78 2.25l-.66-.11a20.22 20.22 0 0 1 1.41-2.69 14.93 14.93 0 0 1 1.85-2.44 7.08 7.08 0 0 1 2.59-1.79 4.31 4.31 0 0 1 3.25.13.47.47 0 0 1 .24.62l-.06.09a11.9 11.9 0 0 0-2 3.62 4.77 4.77 0 0 0-.21 1.93 2.68 2.68 0 0 0 .81 1.61h-.64a14 14 0 0 1 1.81-1.22 10.91 10.91 0 0 1 2-.9 5.87 5.87 0 0 1 2.26-.3 3.65 3.65 0 0 1 2.17 1 .47.47 0 0 1 0 .67.51.51 0 0 1-.16.11 10.15 10.15 0 0 0-2.85 1.77 4 4 0 0 0-1.48 2.86.19.19 0 0 1-.19.19.18.18 0 0 1-.19-.17 3.68 3.68 0 0 1 .34-1.82 5.78 5.78 0 0 1 1-1.53 9.73 9.73 0 0 1 1.37-1.2 11.8 11.8 0 0 1 1.57-1l-.14.78a2.69 2.69 0 0 0-1.6-.7 4.93 4.93 0 0 0-1.88.25 11.78 11.78 0 0 0-3.49 2 .47.47 0 0 1-.62 0 3.67 3.67 0 0 1-1.09-2.18 5.66 5.66 0 0 1 .24-2.33 11.27 11.27 0 0 1 .9-2.07 14 14 0 0 1 1.23-1.87l.17.73a3.34 3.34 0 0 0-2.56-.15 6 6 0 0 0-2.3 1.53A16.82 16.82 0 0 0 94 73.5a.35.35 0 0 1-.66-.1 3.83 3.83 0 0 0-.71-1.87 5.11 5.11 0 0 0-1.54-1.34 9 9 0 0 0-1.93-.84 12 12 0 0 0-2.07-.44l.4-.79a5.8 5.8 0 0 1 1.35 3.28 10.12 10.12 0 0 1 0 1.74 10.34 10.34 0 0 1-.25 1.72.46.46 0 0 1-.56.35.51.51 0 0 1-.22-.11 4.16 4.16 0 0 0-1.72-1 6.36 6.36 0 0 0-2-.19 10.26 10.26 0 0 0-2.1.36A12.61 12.61 0 0 0 80 75l-.16-.9a8.93 8.93 0 0 1 1.91.49 6.93 6.93 0 0 1 1.72 1 6.45 6.45 0 0 1 2.23 3.15.19.19 0 0 1-.13.23.18.18 0 0 1-.23-.11z" fill="#31323d"/><path d="M105.84 76.17a18.32 18.32 0 0 1 4.28 1.68c.89.59 1.83 1.16 2.7 1.86a19.79 19.79 0 0 1 2.45 2.29 50.31 50.31 0 0 1 3.92 5.21 115.18 115.18 0 0 1 6.51 11.22l1.4 2.94a31.31 31.31 0 0 0 1.44 2.83 15.27 15.27 0 0 0 4.09 4.69 9.72 9.72 0 0 0 2.72 1.39 7.74 7.74 0 0 0 1.48.29h.24a.72.72 0 0 1 .58.9.72.72 0 0 1-.14.26l-.08.09a3.43 3.43 0 0 1-.72.6 6.08 6.08 0 0 1-3.37.77 13.85 13.85 0 0 1-3.29-.51l.34-.88a35.5 35.5 0 0 0 5 2.16 21.61 21.61 0 0 0 2.59.71 11.85 11.85 0 0 0 1.31.2h.89a.65.65 0 0 1 .44.26.71.71 0 0 1 0 .94.89.89 0 0 1-.18.14h-.08l-.16.08-.31.16-.63.31c-.43.2-.86.38-1.29.55a16.89 16.89 0 0 1-2.7.84 10.56 10.56 0 0 1-2.87.26 5.93 5.93 0 0 1-2.83-.87l.62-.1a48.11 48.11 0 0 1-3.36 3.34 43.38 43.38 0 0 1-3.65 3 .18.18 0 0 1-.27 0 .2.2 0 0 1 0-.26q1.8-1.5 3.43-3.17c1.08-1.12 2.13-2.28 3.09-3.48a.48.48 0 0 1 .58-.12 6.72 6.72 0 0 0 5 .48 17 17 0 0 0 2.55-.79c.42-.16.83-.34 1.24-.54l.6-.29.3-.15.15-.08h.03a.23.23 0 0 0 0 .31.29.29 0 0 0 .15.09h-.83c-.47-.06-.94-.12-1.41-.22a20.85 20.85 0 0 1-2.71-.74 36.83 36.83 0 0 1-5.12-2.22.48.48 0 0 1-.2-.64.48.48 0 0 1 .54-.24 13 13 0 0 0 3.07.48 5.16 5.16 0 0 0 2.84-.62 2.24 2.24 0 0 0 .52-.44l.06-.06a.26.26 0 0 0-.05.09.24.24 0 0 0 0 .19.26.26 0 0 0 .17.11h-.17a8.47 8.47 0 0 1-1.68-.33 10.68 10.68 0 0 1-3-1.53 16.4 16.4 0 0 1-4.35-5c-.56-1-1-2-1.49-2.93l-1.38-2.9a114 114 0 0 0-6.45-11.12 49.62 49.62 0 0 0-3.84-5.1 18 18 0 0 0-2.29-2.16c-.82-.66-1.72-1.2-2.63-1.8a17.83 17.83 0 0 0-4.07-1.59.49.49 0 0 1-.34-.58.47.47 0 0 1 .62-.26zm-36.45 49.5a24.37 24.37 0 0 1-4-2.63 8.17 8.17 0 0 1-1.68-1.83 3.49 3.49 0 0 1-.52-1.23c-.08-.5-.07-.82-.11-1.24l.73.38a6.86 6.86 0 0 1-2.24.77c-.38.07-.75.13-1.13.18h-.28a.72.72 0 0 1-.68-.31.73.73 0 0 1 0-.78 1.23 1.23 0 0 1 .32-.3 18.47 18.47 0 0 0 2.86-3.17l.6.71a15.49 15.49 0 0 1-3.89 1.3 12.73 12.73 0 0 1-2.06.2h-1.14a.71.71 0 0 1-.24-1.21 1.39 1.39 0 0 1 .34-.19l.22-.1A12.79 12.79 0 0 0 59.6 114a20.66 20.66 0 0 0 2.61-2.85l.73.61a7.44 7.44 0 0 1-3.35 1.93 9.43 9.43 0 0 1-3.81.16c-.31 0-.63-.1-.93-.17l-.46-.1-.23-.06h-.11a.91.91 0 0 1-.28-.14.72.72 0 0 1 .09-1.17l.15-.07h.16l.21-.07.83-.31a19 19 0 0 0 3.16-1.76 18.59 18.59 0 0 0 5.14-4.86 19.27 19.27 0 0 0 1.8-3.07c.24-.56.47-1.07.71-1.67l.65-1.67a74.7 74.7 0 0 1 5.92-13.44 20.7 20.7 0 0 1 2.16-3c.42-.49.85-.92 1.27-1.36s.93-.85 1.41-1.24a18.74 18.74 0 0 1 6.63-3.4.46.46 0 0 1 .58.32.47.47 0 0 1-.33.59A17.79 17.79 0 0 0 78 80.43a16.6 16.6 0 0 0-1.3 1.17c-.42.44-.85.87-1.23 1.31a20.14 20.14 0 0 0-2.07 2.91 74.42 74.42 0 0 0-5.83 13.26l-.68 1.73c-.21.53-.48 1.14-.71 1.7a20 20 0 0 1-1.9 3.22 19.51 19.51 0 0 1-5.4 5.12 20.47 20.47 0 0 1-3.32 1.72c-.28.12-.58.22-.87.33l-.23.07h-.16a.23.23 0 0 0 0-.39h-.07.32l.43.1a8.85 8.85 0 0 0 .87.16 8.6 8.6 0 0 0 3.43-.14 6.38 6.38 0 0 0 2.91-1.68.47.47 0 0 1 .71.62 21.84 21.84 0 0 1-2.75 3 13.58 13.58 0 0 1-3.31 2.36l-.23.1c-.07 0-.22.12-.1 0a.24.24 0 0 0-.08-.41h.84a11 11 0 0 0 1.89-.19 14.32 14.32 0 0 0 3.64-1.22.47.47 0 0 1 .58.71c-.45.61-.91 1.19-1.41 1.75a13.71 13.71 0 0 1-1.63 1.6c-.06 0-.22.19-.1.07a.26.26 0 0 0 0-.26.29.29 0 0 0-.21-.11h.27c.35 0 .71-.09 1-.16a6.2 6.2 0 0 0 1.92-.64.46.46 0 0 1 .64.15.44.44 0 0 1 .07.24v1.14a2.77 2.77 0 0 0 .34 1 7.84 7.84 0 0 0 1.43 1.75 23.73 23.73 0 0 0 3.77 2.79.19.19 0 1 1-.19.33z" fill="#31323d"/><path d="M66.19 96.79s-1.41-6.43-.43-9.17c0 0 1.23 1.68 2.48 1.81l-.15-1.86 3.75 1.64a7.79 7.79 0 0 0-5.65 7.58zm58.86-2.04s.08-6.58-1.43-9.06c0 0-.87 1.89-2.07 2.28l-.22-1.86-3.33 2.36a7.79 7.79 0 0 1 7.05 6.28z" fill="#31323d"/><path d="M83.76 96.74a3.13 3.13 0 0 1 .87 2.14A9.87 9.87 0 0 1 65 100.16c-.71-5.4 4.16-12.5 9.12-10.26a30.47 30.47 0 0 1 9.64 6.84z" fill="#fff"/><g clip-path="url(#j)"><circle cx="76.45" cy="98.64" fill="#f14bd3" r="7.99"/><circle cx="76.22" cy="98.79" fill="#31323d" r="6.31"/><circle cx="79.21" cy="93.47" fill="#fff" r="3.36"/></g><path d="M83.76 96.74a3.13 3.13 0 0 1 .87 2.14A9.87 9.87 0 0 1 65 100.16c-.71-5.4 4.16-12.5 9.12-10.26a30.47 30.47 0 0 1 9.64 6.84z" fill="none" stroke="#31323d" stroke-linecap="round" stroke-miterlimit="10" stroke-width=".76"/><path d="M107 95.84a3.11 3.11 0 0 0-.9 2.17 9.87 9.87 0 0 0 19.65 1.27c.71-5.4-4.16-12.5-9.12-10.26a30.33 30.33 0 0 0-9.63 6.82z" fill="#fff"/><g clip-path="url(#k)"><circle cx="114.25" cy="97.77" fill="#f14bd3" r="7.99"/><circle cx="114.48" cy="97.91" fill="#31323d" r="6.31"/><circle cx="111.49" cy="92.6" fill="#fff" r="3.36"/></g><path d="M107 95.84a3.11 3.11 0 0 0-.9 2.17 9.87 9.87 0 0 0 19.65 1.27c.71-5.4-4.16-12.5-9.12-10.26a30.33 30.33 0 0 0-9.63 6.82z" fill="none" stroke="#31323d" stroke-linecap="round" stroke-miterlimit="10" stroke-width=".76"/><path d="M92.7 123.24s.6 5.5 5.21 5 4.66-5.62 4.66-5.62a5.94 5.94 0 0 1-4.36 2.59c-2.89.26-5.51-1.97-5.51-1.97z" fill="#595959" opacity=".2"/><g fill="#31323d"><path d="M91.48 106.41a1.13 1.13 0 0 1 .18-1.23 6.74 6.74 0 0 1 4.7-2c2.65-.22 4.06.61 4.72 1.23a1.13 1.13 0 0 1 .28 1.21 1.59 1.59 0 0 1-1.31 1 3 3 0 0 0-2.38 1.38.83.83 0 0 1-.13.18 1.34 1.34 0 0 1-1.93.05s-.62-.91-2.67-.91a1.55 1.55 0 0 1-1.42-.92z"/><path d="M97.25 108.49a14.13 14.13 0 0 0 1.75 3.82 10.6 10.6 0 0 0 2.89 3 10 10 0 0 0 1.86 1 9.67 9.67 0 0 0 2.07.45 10.19 10.19 0 0 0 2.14 0c.71-.06 1.41-.26 2.13-.38a.13.13 0 0 1 .15.11.12.12 0 0 1-.1.15c-.72.16-1.42.4-2.16.49a9.78 9.78 0 0 1-2.23.09 10 10 0 0 1-2.22-.37 10.62 10.62 0 0 1-2.05-1 11.53 11.53 0 0 1-3.27-3.11 15.27 15.27 0 0 1-2.07-4 .57.57 0 1 1 1.08-.36v.06z"/><path d="M87.47 118.41a9.46 9.46 0 0 0 3.87-.82 7.53 7.53 0 0 0 3-2.39 9.63 9.63 0 0 0 1.48-3.54c.13-.63.16-1.29.25-1.94a4.45 4.45 0 0 1 .2-2v-.09a.39.39 0 0 1 .72.06 9 9 0 0 1-.23 4.16 10.12 10.12 0 0 1-1.76 3.84 8.09 8.09 0 0 1-3.44 2.4 9.65 9.65 0 0 1-4.08.5.09.09 0 1 1 0-.18zm15.3 4.02a4.52 4.52 0 0 1-.61 1.5 5 5 0 0 1-1.15 1.2 5.64 5.64 0 0 1-3.12 1.05 6.45 6.45 0 0 1-3.18-.74 5.51 5.51 0 0 1-2.28-2.23.19.19 0 0 1 .08-.26.18.18 0 0 1 .23 0 6.8 6.8 0 0 0 5.11 2.07 5.75 5.75 0 0 0 2.62-.75 5.19 5.19 0 0 0 1.94-2 .2.2 0 0 1 .26-.08.2.2 0 0 1 .1.24zm1.72-12.19a41.1 41.1 0 0 1 6.89-.8 34 34 0 0 1 6.9.42 23 23 0 0 1 6.57 2.08 16.14 16.14 0 0 1 5.35 4.28 16.06 16.06 0 0 0-5.43-4.11 22.65 22.65 0 0 0-6.55-1.87 38.4 38.4 0 0 0-13.56.74.38.38 0 0 1-.46-.28.4.4 0 0 1 .29-.46zm13.15-3.75a38.94 38.94 0 0 0-11.49 2.1.38.38 0 1 1-.24-.72 39.37 39.37 0 0 1 11.73-1.38zM105.53 112a9.73 9.73 0 0 1 3.57.07 12.15 12.15 0 0 1 3.26 1.3 17.36 17.36 0 0 1 2.79 2.09 18.68 18.68 0 0 1 2.32 2.55 18.6 18.6 0 0 0-2.47-2.41 16.69 16.69 0 0 0-2.84-1.89 11.56 11.56 0 0 0-3.19-1.08 8.72 8.72 0 0 0-3.3.12.38.38 0 0 1-.45-.29.37.37 0 0 1 .29-.45zm-16 .15c-2.28-.45-4.55-.89-6.84-1.16a37 37 0 0 0-6.9-.22 20.81 20.81 0 0 0-6.71 1.48 13.36 13.36 0 0 0-5.46 4.15 13.44 13.44 0 0 1 5.38-4.32 21 21 0 0 1 6.76-1.69 38.86 38.86 0 0 1 7 0c2.32.21 4.63.6 6.91 1a.38.38 0 1 1-.12.75zm-13.29-4.47a20.65 20.65 0 0 1 11.94 1.44.37.37 0 0 1 .19.5.38.38 0 0 1-.5.2 20.2 20.2 0 0 0-11.63-2.14zm12.3 6.32a7.4 7.4 0 0 0-3.28-.09 10.39 10.39 0 0 0-3.13 1.28 15.71 15.71 0 0 0-2.74 2.08 20.93 20.93 0 0 0-2.34 2.55 20.26 20.26 0 0 1 2.21-2.69 15.66 15.66 0 0 1 2.67-2.26 11.09 11.09 0 0 1 3.2-1.52 8.09 8.09 0 0 1 3.6-.08.38.38 0 0 1 .3.45.37.37 0 0 1-.45.29z"/></g><path d="M91.12 118a7.08 7.08 0 0 0 1.43 1.53.16.16 0 0 0 .15 0 .17.17 0 0 0 .12-.16 6.82 6.82 0 0 1 .49-2.38c.35-.33-2.19 1.01-2.19 1.01zm11.79-1.67a19.4 19.4 0 0 1 .19 2.13s0 .27.13.33 1-.57 1.26-1.78z" fill="#fff" stroke="#30313c" stroke-miterlimit="10" stroke-width=".532"/></g></svg>