<svg height="252" viewBox="0 0 200 252" width="200" xmlns="http://www.w3.org/2000/svg" xmlns:xlink="http://www.w3.org/1999/xlink"><clipPath id="d"><path d="M-24-37h248v320H-24z"/></clipPath><clipPath id="e"><path d="M178.38 141.17c6.11-2.62 12 3.61 13.25 6.66 4.34 10.4-4.46 17.62-4.46 17.62a35.72 35.72 0 0 1-14.22 8c-15.84 4.86-30.65-3.47-38.15-8.94l-3.14-2.26-3.27 12.67 19.94 6.91a77.05 77.05 0 0 0 20.67 1.08c8.87-.76 16.89-2.63 24-9.45 8.46-8.07 13.45-21.65 7.48-33.77-4-8.16-13.73-17.31-24.73-15.53-8 1.3-17.25 8.53-16.5 16.85.52 5.79 5.83 11.94 12 12.1 4.37.11 10.13-2.73 10.13-6.64 0-3.11-3.69-6.6-9.12-7.17"/></clipPath><linearGradient id="a" gradientUnits="userSpaceOnUse" x1="164.47" x2="164.47" y1="187.77" y2="162.64"><stop offset="0" stop-color="gray"/><stop offset=".27" stop-color="#7d7d7d"/><stop offset=".46" stop-color="#747474"/><stop offset=".64" stop-color="#646464"/><stop offset=".8" stop-color="#4d4d4d"/><stop offset=".95" stop-color="#303030"/><stop offset="1" stop-color="#242424"/></linearGradient><linearGradient id="c" gradientUnits="userSpaceOnUse" x1="183.9" x2="183.9" y1="155.57" y2="110.96"><stop offset="0" stop-color="#fff" stop-opacity="0"/><stop offset=".72" stop-color="#fff"/></linearGradient><linearGradient id="f" x1="184.32" x2="184.32" xlink:href="#a" y1="172.71" y2="136.72"/><clipPath id="g"><path d="M79.33 78.4a18.39 18.39 0 0 1 9.88-2.87h12.05a18.36 18.36 0 0 1 8.2 1.93c1.87-1.46 6.81-5.2 9.86-5a1.14 1.14 0 0 1 .91 1.75l-4.9 7.93a18.22 18.22 0 0 1 3.59 6.8L141.41 162a18.93 18.93 0 0 1-.49 11.87h.06c3.62 1 10.43 3.51 13.7 5.75 2 1.35.77 4.25-1.76 4.21L133 183.5a18.68 18.68 0 0 1-5 2.14 2.06 2.06 0 0 0 2.14 1.67 2.09 2.09 0 0 1 1.86 1.94c.17 1.62-.44 2.65-2.12 2.81l-7 .24a4 4 0 0 1-1.7-.31 5.43 5.43 0 0 1-3.28-4.13l-.27-1.58H77l-.39 2a5.17 5.17 0 0 1-.67 1.82 5.37 5.37 0 0 1-5 2.6l-6.43-.38a2.31 2.31 0 0 1-2.07-3.08 2.42 2.42 0 0 1 2.34-1.61c1.77-.09 2.31-1.54 2.28-3.31v-.26c-.36-.19-.71-.39-1.06-.6l-20.33.4c-2.54 0-3.79-2.91-1.77-4.21a57.78 57.78 0 0 1 14.06-6 18.89 18.89 0 0 1-1-9L71 91.49a18.29 18.29 0 0 1 2.51-7.14l-4.61-8.24a1.15 1.15 0 0 1 .1-1.22c1.9-2.66 6.81.65 10 3.25z"/></clipPath><linearGradient id="b" gradientUnits="userSpaceOnUse" x1="117.56" x2="117.56" y1="72.93" y2="83.09"><stop offset="0" stop-color="gray"/><stop offset=".14" stop-color="#797979"/><stop offset=".35" stop-color="#646464"/><stop offset=".6" stop-color="#434343"/><stop offset=".89" stop-color="#141414"/><stop offset="1"/></linearGradient><linearGradient id="h" x1="66.36" x2="76.57" xlink:href="#b" y1="80.11" y2="80.11"/><clipPath id="i"><path d="M79.54 78.41a18.25 18.25 0 0 1 9.86-2.88h12a18.36 18.36 0 0 1 8.2 1.93c1.86-1.47 6.79-5.19 9.83-5a1.14 1.14 0 0 1 .92 1.74l-4.9 7.92a18.21 18.21 0 0 1 3.59 6.78l22.44 73a18.94 18.94 0 0 1-.48 11.85h.06c3.6 1.05 10.4 3.51 13.67 5.74 2 1.35.77 4.25-1.76 4.2l-19.89-.38a19 19 0 0 1-5 2.13 2.06 2.06 0 0 0 2.14 1.66 2.1 2.1 0 0 1 1.86 1.94c.17 1.62-.44 2.65-2.12 2.81l-7 .23a4.13 4.13 0 0 1-1.7-.3 5.47 5.47 0 0 1-3.28-4.13l-.26-1.57h-40.5l-.38 2a5.6 5.6 0 0 1-.67 1.82 5.39 5.39 0 0 1-5 2.6l-6.41-.38a2.31 2.31 0 0 1-2.07-3.08 2.41 2.41 0 0 1 2.33-1.6c1.77-.09 2.31-1.54 2.28-3.31v-.25c-.36-.19-.71-.39-1-.61l-20.3.4c-2.53.05-3.78-2.9-1.76-4.2a57.56 57.56 0 0 1 14-6 19 19 0 0 1-1-9l13.91-73.1a18.23 18.23 0 0 1 2.5-7.13l-4.6-8.22a1.15 1.15 0 0 1 .07-1.22c1.89-2.66 6.79.64 10 3.24z"/></clipPath><linearGradient id="j" x1="77.22" x2="117.79" xlink:href="#a" y1="176.32" y2="176.32"/><linearGradient id="k" x1="65.64" x2="65.64" xlink:href="#a" y1="77.58" y2="183.95"/><linearGradient id="l" x1="137.36" x2="137.36" xlink:href="#a" y1="162.34" y2="187.81"/><linearGradient id="m" x1="127.72" x2="127.72" xlink:href="#c" y1="184.1" y2="76.1"/><clipPath id="n"><path d="M85.64 98.12c0 7.27-2.5 8.85-6.56 8.09a18.4 18.4 0 0 0-6.06-.14c-4.3.65-7.15-1.11-7.11-7.65a10 10 0 0 1 9.65-9.94 9.79 9.79 0 0 1 10.08 9.64z"/></clipPath><clipPath id="o"><path d="M107.07 96.77c0 7.26 2.51 8.84 6.56 8.08a18.4 18.4 0 0 1 6.06-.14c4.3.65 7.15-1.11 7.11-7.65a10 10 0 0 0-9.65-9.94 9.8 9.8 0 0 0-10.08 9.65z"/></clipPath><path d="M-24-37h248v320H-24z" fill="#ccf6d3"/><g clip-path="url(#d)"><ellipse cx="99.5" cy="184.5" fill="#9edba2" rx="57" ry="9.5"/><g clip-path="url(#e)"><path d="M122.88 123.24h84.85v60.42h-84.85z" fill="#767a87"/><path d="M143.84 169c9.67 4.7 6.48 9.41 18 10.29 18.82 2.94 29.77-3.79 35.31-10.94l9.06-4-8.68 23.41-74.81-.76 4.88-24.31s11.06 3.82 16.24 6.31z" fill="url(#a)" opacity=".2"/><path d="M159.31 141s7-17.07 25-10.36 18.41 24.92 18.41 24.92l12.13-23.83-21.14-19.21-31.05-1.52-9.76 11.2z" fill="url(#c)" opacity=".5"/><path d="M178.52 137.41c.76-.21 9.85-3.92 14.87 8.33 5.19 12.71-2.38 20.28-18.18 27L183.9 144s-1.82-1-5.52-2.86-4.76-1.7-4.76-1.7a49.8 49.8 0 0 1 4.9-2.03z" fill="url(#f)" opacity=".2"/></g><path d="M178.45 140.62a8.39 8.39 0 0 1 4.72-.55 11.17 11.17 0 0 1 4.33 1.82 16.21 16.21 0 0 1 3.41 3.15 13.84 13.84 0 0 1 1.31 2 15.2 15.2 0 0 1 .85 2.19 14.77 14.77 0 0 1-.08 9.18 18.41 18.41 0 0 1-5.12 7.64 36.1 36.1 0 0 1-13.33 7.82c-1.22.43-2.5.71-3.75 1a18 18 0 0 1-1.92.36c-.64.09-1.28.24-1.92.28a36.16 36.16 0 0 1-3.89.17 33.68 33.68 0 0 1-3.89-.21A46.61 46.61 0 0 1 144.4 171a62.6 62.6 0 0 1-6.75-3.77c-2.18-1.4-4.22-2.95-6.3-4.43l.88-.31-3.29 12.73-.36-.68 20 7h-.08a77.2 77.2 0 0 0 23 .82 44.29 44.29 0 0 0 11.18-2.55 30.78 30.78 0 0 0 9.66-6 32.28 32.28 0 0 0 10.5-19.81 25.32 25.32 0 0 0-3.66-16.36 30.94 30.94 0 0 0-3.41-4.58 29 29 0 0 0-4.17-3.89 27 27 0 0 0-2.33-1.63 27.39 27.39 0 0 0-2.51-1.33 18.2 18.2 0 0 0-11-1.51 22.32 22.32 0 0 0-10.09 4.9c-2.88 2.4-5.2 5.71-5.57 9.4a10.74 10.74 0 0 0 .87 5.41 14.13 14.13 0 0 0 3.1 4.61 12.4 12.4 0 0 0 4.62 3 10 10 0 0 0 5.42.34 12.15 12.15 0 0 0 5-2.24 6.09 6.09 0 0 0 1.73-2 3.68 3.68 0 0 0 .32-2.48 7.24 7.24 0 0 0-3.29-4.2 12.94 12.94 0 0 0-2.53-1.25 14.37 14.37 0 0 0-2.77-.68.23.23 0 0 1-.19-.26.22.22 0 0 1 .24-.19 13 13 0 0 1 5.66 1.72 9.75 9.75 0 0 1 2.35 1.91 6.3 6.3 0 0 1 1.49 2.72 4.69 4.69 0 0 1-.33 3.17 7.08 7.08 0 0 1-2 2.42 13.23 13.23 0 0 1-5.5 2.5 11.23 11.23 0 0 1-6.05-.36 13.18 13.18 0 0 1-5.06-3.28 15.47 15.47 0 0 1-3.33-5 12 12 0 0 1-.93-6 13.36 13.36 0 0 1 2-5.68 19.24 19.24 0 0 1 3.95-4.48 23.64 23.64 0 0 1 10.63-5.15 19.26 19.26 0 0 1 11.68 1.6 26.41 26.41 0 0 1 2.63 1.39c.82.55 1.67 1.07 2.44 1.7a30 30 0 0 1 4.32 4 30.87 30.87 0 0 1 3.53 4.74 27.07 27.07 0 0 1 2.55 5.35 26.42 26.42 0 0 1 1.35 11.78 33.4 33.4 0 0 1-10.8 20.52 31.8 31.8 0 0 1-10 6.2 45.91 45.91 0 0 1-11.46 2.62 78.48 78.48 0 0 1-23.35-.83l-20-7-.5-.17.13-.51 3.29-12.74.21-.8.67.48c2.09 1.48 4.12 3 6.25 4.39a60.56 60.56 0 0 0 6.63 3.7 45.27 45.27 0 0 0 14.44 4.31 33.71 33.71 0 0 0 3.76.21 36.58 36.58 0 0 0 3.77-.17c.62 0 1.24-.19 1.86-.27a16.31 16.31 0 0 0 1.85-.35c1.21-.32 2.44-.59 3.63-1a35 35 0 0 0 12.92-7.56 17.29 17.29 0 0 0 4.76-7.13 13.65 13.65 0 0 0 .08-8.48 16.78 16.78 0 0 0-.77-2 11.4 11.4 0 0 0-1.2-1.76 14.66 14.66 0 0 0-3.16-2.93 10.07 10.07 0 0 0-3.88-1.64 7.3 7.3 0 0 0-4.08.47.57.57 0 1 1-.45-1z" fill="#31323d"/><g clip-path="url(#g)"><path d="M42.2 65.58h115.84v132.81H42.2z" fill="#767a87"/><path d="M122.73 73.31s-2.89-2-7.77 3.16l-2.57 3.08 4.27 3.54z" fill="url(#b)" opacity=".4"/><path d="M66.36 76.36s2.1-1.45 5.46-.07A9.37 9.37 0 0 1 75.43 79l1.14 1.36-2.88 4.19z" fill="url(#h)" opacity=".4"/><path d="M77.05 187.22c-.42-1.11.24-4.33 1.57-10.76.8-3.85 1.44-6.36 1.83-8 3-12.34 1.23-13.68 3.81-21 1.77-5 3.59-10 8.46-12.34.58-.28 5-2.34 9.52-.53s6.19 6.14 8 10.81c2.21 5.65 1.52 7.6 4 21.73.52 2.94 1 5.89 1.57 8.83q.47 2.58.91 5.18a39.61 39.61 0 0 1 .72 4.28c-.67 5.95-37.01 10.68-40.39 1.8z" fill="#fcfff8"/><path d="M79.08 175.09l-3.13 15-2.13 2.12-3.37.45-8.05-.81v-3.31l4.6-2.9-.78-13.08s2.05 2.87 6.93 3.1 5.93-.57 5.93-.57zm50.39-1.45l-1.22 5.61-.15 6.7 4.11 2.63v3.31l-8.06.81-3.36-.45-2.13-2.12-3.13-15A9.54 9.54 0 0 0 123 177c5-.64 6.47-3.36 6.47-3.36z" fill="#fcfff8"/><g fill="#4b4956"><path d="M136.74 124.6s-5.09 9.35-12.55 10.26c-4.21.52-4.09 2.38-3.19 3.91a5.76 5.76 0 0 0 3.71 2.67c3.39.76 10.59 1.73 13.19-2.92 3.44-6.17-1.16-13.92-1.16-13.92zm-4.56-25.17c-5.38 4.16-8.67 7.21-10.89 7.62a7.18 7.18 0 0 0-4 2c-.33.35-1.53 1.61-1.31 2.85.4 2.39 5.67 3.12 6.28 3.2.8.11 10.14 1.33 12.49-4.33 1.25-2.98 0-8.42-2.57-11.34zM54.16 128c3.5-1.09 6.72 9.37 14.93 10.21 3.63.37 6.5-1.31 7.32 0s-.93 3.75-2.59 5.18a10.59 10.59 0 0 1-6.82 2.24c-5.79.11-13.9-3.37-15.08-9.9-.58-2.95.19-7.13 2.24-7.73zm75.23 18.33c.59-1.12 2.61-.71 10.46-.3 3.24.17 4.21.17 4.37.68.31 1-2.69 3.13-5.78 3.93-.71.18-6.08 1.48-8.32-1.5-.12-.14-1.3-1.74-.73-2.81zM84.45 73c1.77.83-.79 5.29 1.55 9.69.37.69 1.22 2.06.7 2.81a1.62 1.62 0 0 1-1.29.49c-2 0-3.48-2.46-4-3.33-1.69-2.8-2.11-6.35-.9-8 1-1.32 2.97-2.11 3.94-1.66zm43.42 80.09c.15-.82-1.06-1.43-5.28-4.42-1.74-1.23-2.24-1.63-2.53-1.43-.57.38.11 2.72 1.38 4.38.29.39 2.54 3.25 4.91 2.62.13-.03 1.38-.37 1.52-1.15zm-52.65 3.66c-.76-.72.07-2 .81-6.24.46-2.57.4-3.47.82-3.56.71-.15 2 2.22 2.35 4.54.15 1 .58 3.94-1.18 5.11-.81.53-2.16.76-2.8.15zm46.89-35.56c-.21 1-1.77 1-5.71 2.65-2.41 1-3.14 1.53-3.44 1.22-.51-.52.79-2.89 2.57-4.42.79-.67 3-2.6 5-1.73.84.39 1.75 1.41 1.58 2.28zm-17.76-46.76c-1 .47-.82 1.84-1.64 6.69-.35 2.1-.51 2.59-.16 2.91.88.8 4-.47 5.48-2.8.81-1.28 1.56-3.56.51-5.13a4 4 0 0 0-1.68-1.32 3.31 3.31 0 0 0-2.51-.35zm27.16 106.27c.83.15 1.44-1.06 4.43-5.28 1.23-1.74 1.63-2.24 1.43-2.53-.39-.57-2.72.11-4.39 1.38-.38.29-3.24 2.54-2.61 4.91.03.13.36 1.38 1.14 1.52zM74.74 125c.66-2.49-3.94-6.45-8.68-7.61s-9.66.36-9.76 1.67c-.07 1 2.9 1 7 4.12 3.08 2.32 3.46 3.86 5.64 4.26 2.36.4 5.34-.75 5.8-2.44zm-2.46 27.05c-1.19-.93-3.5 2.7-8.69 3.66-6 1.1-9.75-2.42-11.12-.76-1.2 1.44.43 5.62 3.35 7.46 2.74 1.74 5.87.92 8.23.31a11.33 11.33 0 0 0 5.63-2.9c2.59-2.61 3.75-6.82 2.6-7.77zm70.49.95c-1.31-1.18-4.8 3.76-11.88 4.57-5.68.64-9.49-1.84-10.44-.31-.75 1.21 1 3.78 2.61 5.14 2.49 2.06 5.52 1.95 7.52 1.87a13.3 13.3 0 0 0 8.53-2.89c3.15-2.69 4.81-7.38 3.66-8.38zm-69.94-21.49c.09-1.82 2.71-3 4.73-2.89.39 0 2.09.13 2.44 1.06.57 1.54-2.5 5.26-5 4.57a3 3 0 0 1-2.17-2.74z"/><path d="M67.25 134c-1.54 1-4-.49-5.08-2.21-.21-.34-1.09-1.79-.53-2.61.93-1.35 5.75-1 6.63 1.5a3 3 0 0 1-1.02 3.32zm64.33-10.35c-1.54 1-4-.49-5.08-2.21-.2-.34-1.09-1.79-.52-2.61.93-1.35 5.74-1 6.63 1.5a3 3 0 0 1-1.03 3.32zM89.9 71.17c-4.26 3-2.67 10.41-1.37 13.72.28.72 2.49 6.36 5.48 6.24 2.19-.08 3.63-3.19 5.34-6.85 1.18-2.56 2.17-4.75 1.82-7.62a7 7 0 0 0-11.27-5.49zM126.66 128a2.79 2.79 0 0 1-2.79 2.79c-1.54 0-4.23-1.93-4.23-3.47s2.69-2.11 4.23-2.11a2.79 2.79 0 0 1 2.79 2.79zm-9.97 4.63a1.15 1.15 0 0 1-1.15 1.16c-.64 0-1.85-.82-1.85-1.46s1.21-.86 1.85-.86a1.15 1.15 0 0 1 1.15 1.16zM72 149a1.16 1.16 0 0 1-1.16 1.16c-.64 0-1.84-.83-1.84-1.47s1.2-.85 1.84-.85A1.16 1.16 0 0 1 72 149zm16.06-58.85a1.16 1.16 0 1 1-2.31 0c0-.64 0-1.63.59-1.63a2.25 2.25 0 0 1 1.72 1.63z"/><circle cx="117.69" cy="142.26" r="2.05"/><path d="M80.65 122.44a1.24 1.24 0 1 1-2.48 0 2.14 2.14 0 0 1 1.69-1.67c.69 0 .79.99.79 1.67zm-14.9 27.89c0 1.92-3.08 3.41-5 3.41a3.49 3.49 0 1 1 0-7c1.92.03 5 1.66 5 3.59zm8.55 16.19a1.93 1.93 0 0 1-1.92 1.93c-1.07 0-3-2-3-3s1.9-.81 3-.81a1.92 1.92 0 0 1 1.92 1.88zm33.79-80.11c0 1-.26 2.41-1.23 2.41a3 3 0 0 1-2.27-2.41 1.75 1.75 0 1 1 3.5 0zm20.3-8.55c0 5.65-8.36 13.46-14 13.46s-3.61-6.54-3.61-12.19 1.74-11.49 7.39-11.49a10.22 10.22 0 0 1 10.22 10.22zm-49.45 1.27c1.54 9.11-4.8 13.27-10.72 13.27s-10.71-5.94-10.71-13.27 4.8-13.26 10.71-13.26 9.51 6.04 10.72 13.26z"/><path d="M74.43 101.11c0 7.27 4.27 12.57-3 12.57s-14-5.93-14-13.2-1-11.94 6.22-11.94 10.78 5.31 10.78 12.57z"/></g><path d="M57 169s-.44 7.55 10.08 15.12l-18.74 2.2-10.84-3.66.8-3.11zm84.74 2.12s-2.23 9.38-10.2 13.19l25.4.3v-6.09z" fill="#fcfff8"/><path d="M141.5 163s-4.67-.08-3.38 5.4-1.56 8.38-.7 9.49l.86 1.1s5.31-7.93 3.22-15.99zm-84.59 3.52s3.56-3 5.36 1.79 1.59 7.38 4.37 9.9l.42 5.87s-9.86-3.8-10.15-17.56z" fill="#4b4956"/></g><g clip-path="url(#i)" opacity=".2"><path d="M79.68 173c-1.68 7 4.62 9 6.32 9.08 3.13.24 15.48.43 21.88-.6 3.33-.53 8.31-5 6.64-14.93l3.27 19.53H77.22z" fill="url(#j)"/><path d="M81.19 77.58c-5 5-5.58 9.44-7.73 18.85-3.7 16.28-8.17 51.1-9.61 62.61a72.3 72.3 0 0 0-.52 7.49v.25c1.79 2 3.62 6.75 4 13.45l.1 3.72h-6.16c-4.71 0-8.43-8.5-6-21.16 2.16-11.37-5.17-69.62-5.17-69.62l21.45-3.36a18.16 18.16 0 0 1 9.64-12.23z" fill="url(#k)"/><path d="M128.42 176.57s2.27-6.95 5.05-9.49c-3 5.7 1.06 7 2.13 6.67 4.08-1.46 5.7-5.07 6-11.41l5 8.84s-4.19 19.47-15.52 16.28l-2.94-1.38z" fill="url(#l)"/></g><g clip-path="url(#i)" opacity=".2"><path d="M105.12 76.15s2.2 2.55 3.88 4.93 3.35 6.56 5 13.76c4.48 19.67 17.44 51.95 21 67.52s-4 21.74-4 21.74l4.65-2.69s4.79-5.69 5.51-8.19c1.58-5.47 10.57-2.51 8.91-11.23-2.41-12.66-23.24-73.79-23.24-73.79s-9.39-2.27-11.5-6c-1.57-2.79-5.56-4.92-9.43-6.07z" fill="url(#m)"/></g><path d="M117.79 186.08H77.22m-9.9-2.18a19 19 0 0 1-10-19.33l13.91-73.1A18.32 18.32 0 0 1 89.4 75.53h12a18.32 18.32 0 0 1 17.64 13.34l22.44 73a19.05 19.05 0 0 1-13.37 23.56" fill="none" stroke="#31323d" stroke-linecap="round" stroke-miterlimit="10" stroke-width=".95"/><path d="M80.85 167.71c-.54 4.63-1.42 9.2-2.27 13.78l-1.27 6.87a5.74 5.74 0 0 1-1.88 3.25 6 6 0 0 1-3.43 1.44 17.77 17.77 0 0 1-1.82-.05l-1.74-.1-3.48-.22A3 3 0 0 1 63 192a2.81 2.81 0 0 1-.86-1.92 3.69 3.69 0 0 1 .07-1 2.17 2.17 0 0 1 .49-1 3.18 3.18 0 0 1 1.8-1 4 4 0 0 1 .5-.08 3.69 3.69 0 0 0 .37 0 1.55 1.55 0 0 0 .61-.23 1.88 1.88 0 0 0 .72-1.13 12.71 12.71 0 0 0 .06-3.34l-.27-7a20.6 20.6 0 0 0-1-4.42 13.81 13.81 0 0 0-2.17-4 .17.17 0 0 1 0-.24.17.17 0 0 1 .22 0 12 12 0 0 1 2.62 3.91 18.23 18.23 0 0 1 1.16 4.58l.35 7 .09 1.74a6.73 6.73 0 0 1-.15 1.88 2.84 2.84 0 0 1-1.14 1.73 2.65 2.65 0 0 1-1 .4L65 188a2.23 2.23 0 0 0-.36.05c-2.23.18-1.88 3.78.3 3.57l3.48.2 1.74.11a13.87 13.87 0 0 0 1.67.06 4.81 4.81 0 0 0 4.43-3.82l1.32-6.84c.88-4.57 1.72-9.15 2.9-13.66a.16.16 0 0 1 .2-.12.16.16 0 0 1 .17.16z" fill="#31323d"/><path d="M70.7 188.91a1.42 1.42 0 0 0-.92.38 2.4 2.4 0 0 0-.59.86 5.91 5.91 0 0 0-.4 2.15.46.46 0 0 1-.49.45.47.47 0 0 1-.46-.49v-.07a6.72 6.72 0 0 1 .78-2.35 2.27 2.27 0 0 1 2.13-1.28.17.17 0 0 1 .15.19.19.19 0 0 1-.17.15zm-3.23-.36a1.81 1.81 0 0 0-.9.46 2.7 2.7 0 0 0-.59.85 5.74 5.74 0 0 0-.41 2.11.48.48 0 0 1-.95 0 .17.17 0 0 1 0-.07 6.09 6.09 0 0 1 .79-2.32 2.53 2.53 0 0 1 2-1.35.17.17 0 0 1 .17.16.16.16 0 0 1-.14.17zm47.22-22.03c1.22 5.31 2.09 10.67 3 16l.69 4 .17 1a5.58 5.58 0 0 0 .24.89 5.15 5.15 0 0 0 1 1.57 4.33 4.33 0 0 0 3.17 1.52l4-.15 2-.06h1a3 3 0 0 0 .79-.2 1.38 1.38 0 0 0 .8-1.19 3.62 3.62 0 0 0 0-.87 2.3 2.3 0 0 0-.27-.76 1.34 1.34 0 0 0-.52-.51 1.09 1.09 0 0 0-.34-.13l-.46-.05a3.43 3.43 0 0 1-1.16-.35 2.46 2.46 0 0 1-.91-.9 4.15 4.15 0 0 1-.37-2.25l.05-2v-2a17.87 17.87 0 0 1 .21-2.08 19.72 19.72 0 0 1 1.08-4 20.77 20.77 0 0 1 4.39-6.95.17.17 0 0 1 .24 0 .17.17 0 0 1 0 .23 26.54 26.54 0 0 0-3.82 7 22.43 22.43 0 0 0-1 3.86 18.75 18.75 0 0 0-.19 2v4a3.06 3.06 0 0 0 .24 1.72 1.57 1.57 0 0 0 1.31.73c.11 0 .34 0 .55.07a2.42 2.42 0 0 1 .62.22 2.54 2.54 0 0 1 .92.89 3.34 3.34 0 0 1 .42 1.14 4.5 4.5 0 0 1 0 1.16 2.78 2.78 0 0 1-.41 1.18 2.26 2.26 0 0 1-1 .84 3.5 3.5 0 0 1-1.17.31l-1 .05-2 .07-4.09.12a4.69 4.69 0 0 1-2.21-.54 6 6 0 0 1-2.89-3.27 5.82 5.82 0 0 1-.28-1.07l-.17-1-.66-4c-.87-5.36-1.79-10.72-2.36-16.13a.17.17 0 0 1 .15-.19.17.17 0 0 1 .24.08z" fill="#31323d"/><path d="M123 188a2.79 2.79 0 0 1 2.35 1.32 4.36 4.36 0 0 1 .54 1.28 8.92 8.92 0 0 1 .18 1.35.49.49 0 0 1-.45.51.48.48 0 0 1-.5-.45v-.05a7.86 7.86 0 0 0 0-1.19 3.53 3.53 0 0 0-.31-1.11 2.31 2.31 0 0 0-.71-.87 2.27 2.27 0 0 0-1.07-.43.17.17 0 0 1-.15-.18.18.18 0 0 1 .12-.18zm3.87-.27a2.77 2.77 0 0 1 2.34 1.32 4.36 4.36 0 0 1 .54 1.28 8.92 8.92 0 0 1 .18 1.35.49.49 0 0 1-.45.51.48.48 0 0 1-.5-.45v-.07a7.86 7.86 0 0 0 0-1.19 3.53 3.53 0 0 0-.31-1.11 2.31 2.31 0 0 0-.71-.87 2.27 2.27 0 0 0-1.07-.43.17.17 0 0 1-.15-.18.18.18 0 0 1 .13-.16z" fill="#31323d"/><path d="M79.15 78.14c-3.16-2.6-8.06-5.9-10-3.24a1.15 1.15 0 0 0-.07 1.22l4.6 8.22m35.94-6.87c1.86-1.47 6.79-5.19 9.83-5a1.14 1.14 0 0 1 .92 1.74l-4.9 7.92m-57.23 91.4a57.56 57.56 0 0 0-14 6c-2 1.3-.77 4.25 1.76 4.2l21.32-.42" fill="none" stroke="#31323d" stroke-linecap="round" stroke-miterlimit="10" stroke-width=".95"/><path d="M51.33 179.82a3.66 3.66 0 0 0-2.06 1.18 1.47 1.47 0 0 0-.27 1 2.88 2.88 0 0 0 .33 1.07.48.48 0 0 1-.87.4v-.05a3.76 3.76 0 0 1-.26-1.42 2.22 2.22 0 0 1 .57-1.41 3.33 3.33 0 0 1 1.19-.8 5 5 0 0 1 1.32-.34.16.16 0 0 1 .19.14.18.18 0 0 1-.13.19zm-3.61.18a2.11 2.11 0 0 0-1.53 1.24 1.9 1.9 0 0 0 0 .95c0 .16.1.32.15.48l.22.48a.47.47 0 0 1-.23.63.46.46 0 0 1-.63-.23v-.05l-.19-.61c0-.21-.08-.42-.1-.63a2.57 2.57 0 0 1 .21-1.31 2.12 2.12 0 0 1 .91-.94 3.1 3.1 0 0 1 1.17-.38.17.17 0 0 1 .07.33z" fill="#31323d"/><path d="M141.08 173.75c3.6 1.05 10.4 3.51 13.67 5.74 2 1.35.77 4.25-1.76 4.2l-19.9-.39" fill="none" stroke="#31323d" stroke-linecap="round" stroke-miterlimit="10" stroke-width=".95"/><path d="M147.68 179.33a5.62 5.62 0 0 1 1.34.41 3.65 3.65 0 0 1 1.17.85 2.39 2.39 0 0 1 .57 1.43 3.9 3.9 0 0 1-.26 1.49.48.48 0 0 1-.91-.31 3 3 0 0 0 .41-1.2 1.67 1.67 0 0 0-.28-1.05 3.86 3.86 0 0 0-2.06-1.31.17.17 0 0 1-.12-.21.18.18 0 0 1 .14-.1zm3.61.16a3.3 3.3 0 0 1 1.18.44 2.29 2.29 0 0 1 .89 1 2.67 2.67 0 0 1 .22 1.33c0 .22-.07.43-.1.65l-.2.62a.46.46 0 0 1-.59.31.48.48 0 0 1-.32-.6v-.06l.22-.49a4.13 4.13 0 0 0 .15-.5 2 2 0 0 0 0-1 2.24 2.24 0 0 0-1.53-1.33.16.16 0 0 1-.11-.21.16.16 0 0 1 .19-.16z" fill="#31323d"/><path d="M85.64 98.12c0 7.27-2.5 8.85-6.56 8.09a18.4 18.4 0 0 0-6.06-.14c-4.3.65-7.15-1.11-7.11-7.65a10 10 0 0 1 9.65-9.94 9.79 9.79 0 0 1 10.08 9.64z" fill="#fff"/><g clip-path="url(#n)"><circle cx="77.18" cy="99.96" fill="#36eeaa" r="5.86"/><circle cx="77.01" cy="100.05" fill="#31323d" r="4.42"/><circle cx="79.49" cy="96.58" fill="#fff" r="2.35"/></g><path d="M85.64 98.12c0 7.27-2.5 8.85-6.56 8.09a18.4 18.4 0 0 0-6.06-.14c-4.3.65-7.15-1.11-7.11-7.65a10 10 0 0 1 9.65-9.94 9.79 9.79 0 0 1 10.08 9.64z" fill="none" stroke="#31323d" stroke-linecap="round" stroke-miterlimit="10" stroke-width=".76"/><path d="M107.07 96.77c0 7.26 2.51 8.84 6.56 8.08a18.4 18.4 0 0 1 6.06-.14c4.3.65 7.15-1.11 7.11-7.65a10 10 0 0 0-9.65-9.94 9.8 9.8 0 0 0-10.08 9.65z" fill="#fff"/><g clip-path="url(#o)"><circle cx="115.54" cy="98.61" fill="#36eeaa" r="5.86"/><circle cx="115.71" cy="98.69" fill="#31323d" r="4.42"/><circle cx="119.27" cy="95.22" fill="#fff" r="2.35"/></g><path d="M107.07 96.77c0 7.26 2.51 8.84 6.56 8.08a18.4 18.4 0 0 1 6.06-.14c4.3.65 7.15-1.11 7.11-7.65a10 10 0 0 0-9.65-9.94 9.8 9.8 0 0 0-10.08 9.65z" fill="none" stroke="#31323d" stroke-linecap="round" stroke-miterlimit="10" stroke-width=".76"/><path d="M92.94 122.72s.6 5.49 5.21 5c4.46-.43 4.67-5.61 4.67-5.61a6 6 0 0 1-4.37 2.59c-2.89.24-5.51-1.98-5.51-1.98z" fill="#595959" opacity=".2"/><g fill="#31323d"><path d="M91.72 105.88a1.17 1.17 0 0 1 .18-1.23 6.79 6.79 0 0 1 4.71-2c2.64-.23 4 .61 4.71 1.22a1.12 1.12 0 0 1 .28 1.21 1.58 1.58 0 0 1-1.31 1 3.06 3.06 0 0 0-2.38 1.4 1.09 1.09 0 0 1-.13.17 1.35 1.35 0 0 1-1.93 0s-.62-.9-2.67-.9a1.57 1.57 0 0 1-1.42-.92z"/><path d="M97.49 108a14.44 14.44 0 0 0 1.74 3.82 10.57 10.57 0 0 0 2.89 3 9 9 0 0 0 1.86 1 9.69 9.69 0 0 0 2.07.46 10.2 10.2 0 0 0 2.14 0c.71 0 1.41-.25 2.13-.37a.15.15 0 0 1 .16.11.13.13 0 0 1-.11.15c-.71.16-1.42.4-2.16.5a11 11 0 0 1-2.22.09 8.51 8.51 0 0 1-4.28-1.34 11.47 11.47 0 0 1-3.26-3.1 15.16 15.16 0 0 1-2.08-4 .57.57 0 0 1 1.08-.36v.04z"/><path d="M87.71 117.88a9.31 9.31 0 0 0 3.87-.82 7.38 7.38 0 0 0 3-2.39 9.56 9.56 0 0 0 1.48-3.54c.13-.63.16-1.29.25-1.93a4.64 4.64 0 0 1 .2-2v-.08a.39.39 0 0 1 .52-.19.4.4 0 0 1 .2.24 9 9 0 0 1-.23 4.16 10 10 0 0 1-1.83 3.81 8 8 0 0 1-3.44 2.4 9.65 9.65 0 0 1-4.08.5.1.1 0 0 1-.09-.09.11.11 0 0 1 .09-.09zM103 121.9a4.57 4.57 0 0 1-.61 1.51 5.15 5.15 0 0 1-1.14 1.19 5.62 5.62 0 0 1-3.13 1.05 6.24 6.24 0 0 1-3.18-.74 5.57 5.57 0 0 1-2.28-2.23.19.19 0 0 1 .31-.22 6.84 6.84 0 0 0 5.11 2.06 5.86 5.86 0 0 0 2.62-.74 5.19 5.19 0 0 0 1.94-2 .19.19 0 0 1 .26-.09.19.19 0 0 1 .1.21zm1.73-12.19a43.3 43.3 0 0 1 6.89-.8 35.45 35.45 0 0 1 6.9.42 23 23 0 0 1 6.57 2.09 16.11 16.11 0 0 1 5.35 4.27 15.9 15.9 0 0 0-5.43-4.1 22.58 22.58 0 0 0-6.55-1.88 38.42 38.42 0 0 0-13.56.75.4.4 0 0 1-.46-.29.38.38 0 0 1 .29-.45zm13.15-3.71a38.82 38.82 0 0 0-11.48 2.1.38.38 0 0 1-.49-.23.39.39 0 0 1 .24-.49 39.38 39.38 0 0 1 11.73-1.38zm-12.11 5.48a9.52 9.52 0 0 1 3.57.06 12.17 12.17 0 0 1 3.26 1.31 16.73 16.73 0 0 1 2.79 2.08 18.13 18.13 0 0 1 2.32 2.56 18 18 0 0 0-2.45-2.41 16.36 16.36 0 0 0-2.84-1.9 11.9 11.9 0 0 0-3.19-1.08 8.87 8.87 0 0 0-3.29.12.37.37 0 0 1-.45-.29.38.38 0 0 1 .29-.45zm-16 .14c-2.28-.45-4.55-.89-6.84-1.15a37 37 0 0 0-6.9-.23 20.88 20.88 0 0 0-6.71 1.49 13.25 13.25 0 0 0-5.46 4.14 13.52 13.52 0 0 1 5.38-4.32 21.6 21.6 0 0 1 6.76-1.69 38 38 0 0 1 7 0c2.32.2 4.63.59 6.91 1a.38.38 0 0 1-.12.76zm-13.29-4.46a20.56 20.56 0 0 1 11.94 1.43.38.38 0 0 1-.31.7 20.11 20.11 0 0 0-11.63-2.13zm12.3 6.27a7.26 7.26 0 0 0-3.28-.1 10.49 10.49 0 0 0-3.13 1.28 16.76 16.76 0 0 0-2.74 2.08 20.31 20.31 0 0 0-2.34 2.56 20.26 20.26 0 0 1 2.21-2.69 16.6 16.6 0 0 1 2.67-2.27 11.09 11.09 0 0 1 3.2-1.52 8.24 8.24 0 0 1 3.6-.08.38.38 0 0 1-.15.75z"/></g><path d="M91.36 117.48a7.37 7.37 0 0 0 1.43 1.52.16.16 0 0 0 .15 0 .16.16 0 0 0 .12-.15 6.73 6.73 0 0 1 .49-2.38c.35-.34-2.19 1.01-2.19 1.01zm11.79-1.67a21.23 21.23 0 0 1 .2 2.13s0 .27.12.32 1-.57 1.26-1.78z" fill="#fff" stroke="#30313c" stroke-miterlimit="10" stroke-width=".532"/></g></svg>