<?xml version="1.0" encoding="utf-8"?>
<!-- Generator: Adobe Illustrator 21.0.0, SVG Export Plug-In . SVG Version: 6.00 Build 0)  -->
<svg version="1.1" id="图层_1" xmlns="http://www.w3.org/2000/svg" xmlns:xlink="http://www.w3.org/1999/xlink" x="0px" y="0px"
	 viewBox="0 0 25 12" enable-background="new 0 0 25 12" xml:space="preserve">
<defs>
	<rect id="SVGID_1_" width="25" height="12"/>
</defs>
<clipPath id="SVGID_2_">
	<use xlink:href="#SVGID_1_"  overflow="visible"/>
</clipPath>
<path clip-path="url(#SVGID_2_)" fill="none" stroke="#C4C3C0" stroke-width="1.1705" d="M0,4c4.1-3.1,5.9-2.8,6.7-2
	c0.6,0.6,0.5,1.3,1.1,1.7c1.6,1.2,3.4-2.3,6.1-1.9c1.8,0.3,1.6,1.9,3.5,2.1c2.4,0.3,3.6-2.3,5.8-1.7c1,0.3,1.8,1.3,2.2,2"/>
<path clip-path="url(#SVGID_2_)" fill="none" stroke="#C4C3C0" stroke-width="1.1705" d="M0,10.5c4.1-3.1,5.9-2.8,6.7-2
	c0.6,0.6,0.5,1.3,1.1,1.7c1.6,1.2,3.4-2.3,6.1-1.9c1.8,0.3,1.6,1.9,3.5,2.1c2.4,0.3,3.6-2.3,5.8-1.7c1,0.3,1.8,1.3,2.2,2"/>
<path clip-path="url(#SVGID_2_)" fill="none" stroke="#C4C3C0" stroke-width="1.1705" d="M0,7.1c4.1-3.1,5.9-2.8,6.7-2
	c0.6,0.6,0.5,1.3,1.1,1.7c1.6,1.2,3.4-2.3,6.1-1.9c1.8,0.3,1.6,1.9,3.5,2.1c2.4,0.3,3.6-2.3,5.8-1.7c1,0.3,1.8,1.3,2.2,2"/>
</svg>
