<?xml version="1.0" encoding="utf-8"?>
<!-- Generator: Adobe Illustrator 21.0.0, SVG Export Plug-In . SVG Version: 6.00 Build 0)  -->
<svg version="1.1" id="图层_2" xmlns="http://www.w3.org/2000/svg" xmlns:xlink="http://www.w3.org/1999/xlink" x="0px" y="0px"
	 viewBox="0 0 22 22" enable-background="new 0 0 22 22" xml:space="preserve">
<path fill="#4C8233" d="M9.6,17.6c-0.4,0.3-2.1,1.5-4.4,1.1c-1.5-0.2-2.5-1-2.9-1.4c1-2.3,2.1-3,2.9-3.2c0.5-0.1,1.2-0.1,2-0.6
	c0.3-0.2,0.3-0.3,1.2-1.2c0.7-0.7,1.1-1.1,1.3-1.3c0.8-0.6,1-0.4,1.8-1.1c0.6-0.5,1-0.9,1-0.9c0.2-0.2,0.3-0.3,0.5-0.6
	c0.2-0.2,0.4-0.4,0.7-0.7c0.1-0.1,0.3-0.2,0.7-0.5C14.8,7,14.9,7,15.1,6.8c0.3-0.2,0.6-0.4,0.6-0.4s1.2-1.5,1.4-1.9l1.5-2
	c-0.1-0.1-0.3-0.1-0.6-0.1c-0.1,0-0.3,0-0.4,0V2c0.5,0.1,1,0.1,1.3,0.2c0,0,0.3,0,1.3,0l0,0c-0.2,0.1-0.4,0.2-0.5,0.3
	c-0.1,0-0.2,0-0.4,0c-0.2,0-0.3,0.1-0.4,0.2c0,0-0.5,1.1-0.6,1.4C18.1,4.7,18,5.3,18,5.6c0,0.1-0.1,0.5,0,1.1C18,7.9,18.2,8,18.3,9
	c0,0.7,0.1,1.4-0.3,2.1c-0.3,0.5-0.8,0.9-0.9,1c-0.3,0.3-0.4,0.3-0.9,0.6c-0.6,0.4-1,0.9-1.2,1.1c-0.6,0.7-0.5,0.9-1,1.5
	c-0.1,0.2-0.8,0.9-1.8,1.5C11.2,17.3,10.3,17.5,9.6,17.6z"/>
<g id="图层_4">
	<path fill="#326629" d="M13.5,8.3c-0.1,0.1-0.2,0.2-0.2,0.2c-0.1,0.2-0.3,0.4-0.5,0.7s-0.3,0.5-0.3,0.7c0,0.4,0.3,0.7,0.6,1.1
		c0.2,0.3,0.4,0.4,0.4,0.5c-0.1,0.1-0.6-0.4-1.5-0.6c-0.4-0.1-0.8-0.2-1.2-0.1c-0.4,0.1-0.6,0.3-1.1,0.7c-1,0.8-0.7,1-1.4,1.4
		c-0.2,0.1-0.4,0.3-0.5,0.5c-0.1,0.3,0,0.5,0.1,0.6c0.1,0.2,0.2,0.2,0.6,0.7C8.7,14.9,8.7,15,8.7,15c0,0.1-0.7-0.5-1.5-0.7
		c-1-0.2-1.8,0.2-1.8,0.1c0-0.1,0.8-0.2,1.7-0.8c0.5-0.3,0.5-0.5,1.5-1.5c0.9-0.9,1.4-1.4,2.1-1.7c0.4-0.2,0.6-0.2,1-0.4
		c0.5-0.3,0.7-0.6,1.1-1.1c0.5-0.6,0.9-1.1,1.5-1.5c0.2-0.1,0.1-0.1,0.6-0.4c0.5-0.4,1.6-1.2,1.6-1.2s-0.6,0.3-0.6,0.6
		c0,0.1,0.1,0.1,0.1,0.1C16,6.8,14.1,7.7,13.5,8.3z"/>
</g>
<path opacity="0.47" fill="#326629" enable-background="new    " d="M17.9,7.8c-0.5-0.1-0.4-1.1-0.9-1.4c-0.2-0.1-0.5-0.2-1.1,0.1
	c0.5-0.6,1-1.3,1.4-1.9l1.3-1.8l0.3-0.1l-1,2.9l0.2,2.1C18,7.8,17.9,7.8,17.9,7.8z"/>
<path fill="#326629" d="M19,2.2c0.3,0,0.3-0.1,0.7-0.1c0.2,0,0.5,0,0.6,0.1c0,0.1-0.2,0.2-0.5,0.3c-0.4,0.1-0.6-0.1-0.8,0.1
	c-0.1,0.1-0.1,0.2-0.2,0.5c-0.1,0.4-0.2,0.5-0.4,0.9c-0.2,0.5-0.3,1-0.4,1.2c-0.1,0.7-0.1,1.3-0.1,1.4c0,0.4,0.1,0.5,0.2,1.1
	c0.1,0.8,0.1,1.3,0.1,1.5c0,0.9,0,1.3-0.2,1.8s-0.6,0.7-1,1c-0.6,0.4-0.7,0.3-1.2,0.8c-0.4,0.4-0.7,0.7-0.9,1
	c-0.4,0.6-0.4,0.8-0.8,1.3c-0.4,0.5-0.7,0.8-1.2,1.1c-0.9,0.6-1.3,1-1.9,1c-0.3,0-0.7,0-1.2,0.3c-0.2,0.1-0.2,0.1-0.4,0.2
	c-0.6,0.4-1.2,0.6-1.4,0.7c-0.8,0.3-1.5,0.3-1.9,0.3s-1.2,0-2.2-0.4c-0.8-0.3-1.5-0.8-1.5-1C2.5,17.1,4,18.1,6.1,18
	c0.6,0,1.4-0.1,2-0.6c0.4-0.4,1-1.1,1-1.1c0.2,0,0.4,0,0.7,0c0.7-0.1,1.9-0.3,2.7-0.9c0.2-0.2,0.5-0.4,0.8-0.8
	c0.3-0.3,0.6-0.7,0.8-1.3c0.2-0.4,0.3-0.7,0.3-1c0.4-0.1,1.4-0.3,2.2-1.2c0,0,0.7-0.8,0.9-1.7c0.1-0.4,0.1-0.8,0.1-0.9
	c0-0.1,0-0.2,0-0.3c0-0.2-0.1-0.5-0.1-0.5c-0.1-0.3-0.2-0.5-0.2-0.6c0.1-0.1,0-1.1,0.5-2.5c0.4-1.1,1-1.9,0.8-2.1
	c-0.1-0.1-0.4,0.1-0.7-0.1c-0.1,0-0.2-0.1-0.2-0.2c0,0,0-0.1,0.3-0.1C18.5,2.1,18.6,2.2,19,2.2z"/>
<path fill="#5E993F" d="M5.7,14.6c-0.2,0.1-1.1,0.3-1.7,1c-0.3,0.3-0.7,0.8-0.6,1.3c0.2,0.8,1.7,1,2.6,1c0.6,0,1.7-0.1,2.2-1
	C8.6,16.3,8.5,15.5,8,15C7.3,14.2,6.2,14.5,5.7,14.6z"/>
<path fill="#5E993F" d="M10.9,11.3c-0.5,0.1-0.8,0.4-1.1,0.7c-0.4,0.3-0.7,0.6-0.8,1.1c-0.1,0.1-0.3,0.9,0.1,1.5
	c0.3,0.5,0.8,0.7,0.9,0.8c0.5,0.2,0.9,0.1,1.3,0c0.3-0.1,0.9-0.2,1.5-0.7c0.7-0.7,1.2-1.9,0.7-2.7c-0.3-0.5-0.9-0.6-1.3-0.7
	C12,11.2,11.5,11.1,10.9,11.3z"/>
<path fill="#5E993F" d="M16.7,6.9c-0.8-0.4-2.1,0.9-2.6,1.4c-0.6,0.6-0.9,0.9-0.9,1.3c0,0.7,0.7,1.3,1.3,1.5c0.1,0,0.7,0.2,1.4,0
	c1-0.4,1.3-1.5,1.4-1.8c0.1-0.2,0.3-1.1-0.1-1.9C17,7.3,16.9,7.1,16.7,6.9z"/>
<path fill="none" stroke="#182B0C" stroke-width="0.5" stroke-miterlimit="10" d="M9.6,17.6c-0.4,0.3-2.1,1.5-4.4,1.1
	c-1.5-0.2-2.5-1-2.9-1.4c1-2.3,2.1-3,2.9-3.2c0.5-0.1,1.2-0.1,2-0.6c0.3-0.2,0.3-0.3,1.2-1.2c0.7-0.7,1.1-1.1,1.3-1.3
	c0.8-0.6,1-0.4,1.8-1.1c0.6-0.5,1-0.9,1-0.9c0.2-0.2,0.3-0.3,0.5-0.6c0.2-0.2,0.4-0.4,0.7-0.7c0.1-0.1,0.3-0.2,0.7-0.5
	C14.8,7,14.9,7,15.1,6.8c0.3-0.2,0.6-0.4,0.6-0.4s1.2-1.5,1.4-1.9l1.5-2c-0.1-0.1-0.3-0.1-0.6-0.1c-0.1,0-0.3,0-0.4,0V2
	c0.5,0.1,1,0.1,1.3,0.2c0,0,0.3,0,1.3,0l0,0c-0.2,0.1-0.4,0.2-0.5,0.3c-0.1,0-0.2,0-0.4,0c-0.2,0-0.3,0.1-0.4,0.2
	c0,0-0.5,1.1-0.6,1.4C18.1,4.7,18,5.3,18,5.6c0,0.1-0.1,0.5,0,1.1C18,7.9,18.2,8,18.3,9c0,0.7,0.1,1.4-0.3,2.1
	c-0.3,0.5-0.8,0.9-0.9,1c-0.3,0.3-0.4,0.3-0.9,0.6c-0.6,0.4-1,0.9-1.2,1.1c-0.6,0.7-0.5,0.9-1,1.5c-0.1,0.2-0.8,0.9-1.8,1.5
	C11.2,17.3,10.3,17.5,9.6,17.6z"/>
<path fill="#76C660" d="M6.8,14.5c-1-0.4-2.1,0.5-2.2,0.6c-0.2,0.2-0.9,0.7-0.8,1.1c0.2,0.5,1.5,0.4,1.6,0.4c0.2,0,0.8-0.1,1.4-0.5
	c0.4-0.2,0.7-0.5,0.7-0.8C7.5,14.8,6.9,14.5,6.8,14.5z"/>
<path fill="#83D66B" d="M11,11.2c-0.4,0-0.7,0.3-1.2,0.7c-0.4,0.3-0.6,0.6-0.8,1c-0.1,0.1-0.4,1-0.1,1.4c0.4,0.5,1.9,0.2,2.6-0.6
	c0.1-0.1,0.5-0.5,0.6-1.2c0.1-0.3,0.1-0.5,0-0.8C11.9,11.3,11.3,11.2,11,11.2z"/>
<path fill="#83D66B" d="M16,7.1c-0.4-0.2-1,0.3-1.5,0.8c-0.4,0.4-0.7,0.7-0.7,1.1c0,0.3,0.1,0.6,0.4,0.8c0.6,0.4,1.5-0.3,1.5-0.4
	c0.2-0.1,0.7-0.6,0.7-1.3C16.4,8.1,16.4,7.3,16,7.1z"/>
</svg>
