<?xml version="1.0" encoding="utf-8"?>
<!-- Generator: Adobe Illustrator 21.0.0, SVG Export Plug-In . SVG Version: 6.00 Build 0)  -->
<svg version="1.1" xmlns="http://www.w3.org/2000/svg" xmlns:xlink="http://www.w3.org/1999/xlink" x="0px" y="0px"
	 viewBox="0 0 22 22" enable-background="new 0 0 22 22" xml:space="preserve">
<g id="图层_1">
	<g transform="translate(2.47 2.439)">
		<path fill="#B93BE2" d="M0.7,5.9l0.1-2.7L16.2,3l0.4,4.3h-0.1c-0.6,0-1,0.4-1,1c0,0,0,0,0,0.1l0.4,7.7c0,0.6-0.4,1-0.9,1
			c0,0,0,0-0.1,0H2.2c-0.6,0-1-0.4-1-1c0,0,0,0,0-0.1l0.5-9H1.7C1.1,7,0.7,6.5,0.7,5.9C0.7,5.9,0.7,5.9,0.7,5.9L0.7,5.9z"/>
		<path fill="none" stroke="#FFE269" stroke-width="2.0217" stroke-linecap="square" d="M5.3,4.4v11.4"/>
		<path fill="none" stroke="#FFE269" stroke-width="2.0217" stroke-linecap="square" d="M11.3,4.4v11.4"/>
		<path opacity="0.337" fill="#970D9E" enable-background="new    " d="M2.2,6.6h12.7v2.6H2.2V6.6z"/>
		<path opacity="0.5" fill="#FFFFFF" enable-background="new    " d="M1.1,3h14.8v1.5H1.1V3z"/>
		<path fill="none" stroke="#2A2825" stroke-width="1.5" d="M1.9,7.1v9.3c0,0.1,0.1,0.3,0.2,0.3h12.8c0.1,0,0.3-0.1,0.3-0.3V7.1
			L1.9,7.1L1.9,7.1z"/>
		<path fill="none" stroke="#2A2825" stroke-width="1.5" d="M1.5,3.1h14c0.3,0,0.5,0.2,0.5,0.5v3c0,0.3-0.2,0.5-0.5,0.5h-14
			C1.2,7.1,1,6.9,1,6.6v-3C1,3.3,1.2,3.1,1.5,3.1z"/>
	</g>
</g>
<g id="图层_2">
	<path fill="none" stroke="#2A2825" d="M9.4,5.4C5.6,3.6,4.8,2.7,4.9,2.3c0.2-0.5,2-0.7,3.4,0.1C9.6,3.3,10,4.8,10,5"/>
	<path fill="none" stroke="#2A2825" d="M12.4,5.4c3.7-1.8,4.6-2.6,4.5-3.1c-0.2-0.5-2-0.7-3.4,0.1c-1.4,0.8-1.7,2.3-1.8,2.5"/>
</g>
</svg>
