<?xml version="1.0" encoding="utf-8"?>
<!-- Generator: Adobe Illustrator 21.0.0, SVG Export Plug-In . SVG Version: 6.00 Build 0)  -->
<svg version="1.1" xmlns="http://www.w3.org/2000/svg" xmlns:xlink="http://www.w3.org/1999/xlink" x="0px" y="0px"
	 viewBox="0 0 18 15" enable-background="new 0 0 18 15" xml:space="preserve">
<g id="图层_1">
	<g>
		<path fill="none" stroke="#C4C3C0" stroke-width="1.5" stroke-linecap="round" d="M9,4.5c-0.2,4.7,2.1,6.6,4.6,6.4
			c1.6-0.1,2.8-1.1,3.5-2.9"/>
		<path fill="none" stroke="#C4C3C0" stroke-width="1.5" stroke-linecap="round" d="M8.9,4.5c0.2,4.7-2.1,6.6-4.6,6.4
			C2.7,10.8,1.6,9.8,0.9,8"/>
		<path display="none" fill="#C4C3C0" d="M6.8,12c0,1.5,1.1,2.4,2.3,2.4s2.3-1,2.3-2.4v-2c-1-1.3-1.8-1.9-2.3-1.9S7.8,8.7,6.8,10V12
			z"/>
	</g>
	<circle display="none" fill="#C4C3C0" cx="9" cy="3.9" r="3.2"/>
</g>
<g id="图层_3">
	<path fill="#C4C3C0" d="M13.1,2.4c-0.6-1.6-3.7-1.7-4-1.7c-0.3,0-3.5,0-4.1,1.7C4.8,2.9,4.8,3.7,5.2,4.1c0.5,0.5,1.3,0.1,2,0.7
		C7.4,5,7.5,5.1,7.8,5.3c0,0,0.6,0.4,1,0.3c0.2,0,0.3-0.2,0.4-0.4l0,0.4c0.3,0,0.6-0.1,1-0.3c0.3-0.2,0.4-0.3,0.6-0.5
		c0.7-0.6,1.5-0.2,2-0.7C13.2,3.7,13.2,2.9,13.1,2.4z"/>
</g>
<g id="图层_2">
</g>
</svg>
