<?xml version="1.0" encoding="utf-8"?>
<!-- Generator: Adobe Illustrator 21.0.0, SVG Export Plug-In . SVG Version: 6.00 Build 0)  -->
<svg version="1.1" xmlns="http://www.w3.org/2000/svg" xmlns:xlink="http://www.w3.org/1999/xlink" x="0px" y="0px"
	 viewBox="0 0 17 16" enable-background="new 0 0 17 16" xml:space="preserve">
<g id="图层_2">
	<path fill="#2B272D" d="M4.4,1.9c-1.2,0-2.2,1-2.2,2.2c0,0.6,0.3,1.2,0.7,1.6c0.6-1.4,1.7-2.5,3-3.2C5.5,2.2,5,1.9,4.4,1.9z"/>
	<path fill="#2B272D" d="M12.6,1.9c1.2,0,2.2,1,2.2,2.2c0,0.6-0.3,1.2-0.7,1.6c-0.6-1.4-1.7-2.5-3-3.2C11.5,2.2,12,1.9,12.6,1.9z"/>
</g>
<g id="图层_1">
	<circle fill="#DDD7E2" cx="8.5" cy="8" r="5.2"/>
	<circle fill="#795C9B" cx="8.5" cy="8" r="4"/>
	<circle fill="none" stroke="#2B272D" stroke-width="0.9509" stroke-miterlimit="10" cx="8.5" cy="8" r="5.2"/>
	<path fill="#2A282B" d="M3.3,13.5L3.3,13.5c-0.2-0.2-0.2-0.6,0-0.8l1.1-1.1c0.2-0.2,0.6-0.2,0.8,0l0,0c0.2,0.2,0.2,0.6,0,0.8
		l-1.1,1.1C3.9,13.7,3.5,13.7,3.3,13.5z"/>
	<path fill="#2A282B" d="M13.7,13.5L13.7,13.5c0.2-0.2,0.2-0.6,0-0.8l-1.1-1.1c-0.2-0.2-0.6-0.2-0.8,0v0c-0.2,0.2-0.2,0.6,0,0.8
		l1.1,1.1C13.1,13.7,13.5,13.7,13.7,13.5z"/>
	<circle fill="#2A282B" cx="8.5" cy="8" r="1.1"/>
	<path fill="#2A282B" d="M8.5,2.8L8.5,2.8C8.2,2.8,8,2.6,8,2.3V1.8c0-0.3,0.2-0.5,0.5-0.5h0C8.8,1.3,9,1.5,9,1.8v0.5
		C9,2.6,8.8,2.8,8.5,2.8z"/>
	<path fill="#2A282B" d="M8.5,7.7L8.5,7.7c0.2,0,0.3-0.1,0.3-0.3V4.6c0-0.2-0.1-0.3-0.3-0.3l0,0c-0.2,0-0.3,0.1-0.3,0.3v2.9
		C8.2,7.6,8.3,7.7,8.5,7.7z"/>
	<path fill="#2A282B" d="M8.6,8L8.6,8c0.1-0.2,0.3-0.4,0.5-0.3l1.2,0.3c0.2,0.1,0.4,0.3,0.3,0.5v0c-0.1,0.2-0.3,0.4-0.5,0.3L8.9,8.5
		C8.7,8.4,8.5,8.2,8.6,8z"/>
	<path fill="#2A282B" d="M8.5,3.7L8.5,3.7c-0.1,0-0.2-0.1-0.2-0.2V2.9c0-0.1,0.1-0.2,0.2-0.2l0,0c0.1,0,0.2,0.1,0.2,0.2v0.6
		C8.6,3.6,8.6,3.7,8.5,3.7z"/>
	<path fill="#2A282B" d="M13.7,8L13.7,8c0,0.1-0.1,0.2-0.2,0.2h-0.6c-0.1,0-0.2-0.1-0.2-0.2l0,0c0-0.1,0.1-0.2,0.2-0.2h0.6
		C13.6,7.8,13.7,7.9,13.7,8z"/>
	<path fill="#2A282B" d="M3.3,8L3.3,8c0,0.1,0.1,0.2,0.2,0.2h0.6c0.1,0,0.2-0.1,0.2-0.2l0,0c0-0.1-0.1-0.2-0.2-0.2H3.5
		C3.4,7.8,3.3,7.9,3.3,8z"/>
	<path fill="#2A282B" d="M8.5,12.3L8.5,12.3c-0.1,0-0.2,0.1-0.2,0.2v0.6c0,0.1,0.1,0.2,0.2,0.2l0,0c0.1,0,0.2-0.1,0.2-0.2v-0.6
		C8.6,12.4,8.6,12.3,8.5,12.3z"/>
	<ellipse transform="matrix(0.7557 -0.6549 0.6549 0.7557 -1.0012 2.8952)" fill="#DFDCE2" cx="3.4" cy="2.8" rx="0.7" ry="0.5"/>
</g>
</svg>
