<?xml version="1.0" encoding="utf-8"?>
<!-- Generator: Adobe Illustrator 21.0.0, SVG Export Plug-In . SVG Version: 6.00 Build 0)  -->
<svg version="1.1" id="图层_2" xmlns="http://www.w3.org/2000/svg" xmlns:xlink="http://www.w3.org/1999/xlink" x="0px" y="0px"
	 viewBox="0 0 3186.3 2724.3" enable-background="new 0 0 3186.3 2724.3" xml:space="preserve">
<g id="form_1_">
	<path fill="none" stroke="#000000" stroke-width="13.3874" stroke-linecap="round" stroke-linejoin="round" d="M1541.6,589.3
		c-52.5,2.3-122.3,16.8-188,73.3c-2.4,2-4,3.5-5.7,5c-81.6,73.6-127,181.5-134.5,205.8c-7.2,23.3-4.7,117.4-46.2,175.8
		c-11.3,16-42.5,105.7,17.3,196.2c16,24.1,85.6,109.4,156.7,146.2c53.3,27.6,131.7,64.8,262.3,65.2c109.3,0.3,203.3-17.3,331-92.1
		c39.6-23.2,80.6-71.5,114.8-119.4c35-49.2,45.3-153.9,10.9-199.1c-22.2-29.2-41.7-154.7-54-189.9c-30.7-88-60.5-140.3-118.8-188.5
		c-80.7-66.8-174.7-76.9-219-81.7C1616,580.6,1571.8,584.6,1541.6,589.3z"/>
	<path fill="none" stroke="#000000" stroke-width="13.3874" stroke-linecap="round" stroke-linejoin="round" d="M1380.9,1414.8
		c0,0-71.7,120.8-82.8,169.9c-17.1,75.1-25.1,114.6-42.1,135.6c-66.8,82.8-88.6,106-95.2,160.1c-7.8,64.9,51.3,89.9,51.3,89.9
		s-59.7,5.9-77.3,76.1c-7.4,29.7-7.4,85,43.1,81.2c5.4-0.4,28.9,36.8,74,18c11.6-4.8,9.6,30.5,96.6,1.6c8.7-2.9,33.1,26.1,109.8-0.4
		c6-2.1,36.5,31,105.7-7.5c3.3-1.8,28.1,3.3,54.1-14.2c6.4-4.3,20.2,25.5,59.1,12.6c8.2-2.7,24,36.3,101.2,8.4
		c11.8-4.3,18.7,31.2,109.1-0.6c13.4-4.7,24.5,33.5,90.4,2.5c9.1-4.3,55.8,22.6,76.4-17c5-9.6,53.8,1.7,55.5-51.3
		c1.3-42.7-10.6-98.5-80.3-107.7c-11.9-1.6,57.7-17.8,48.8-97.3c-3-26.8-47.4-92.8-94-146.7c-12.5-14.4-39.9-126.6-46.3-145.3
		c-6.4-18.7-77.5-138.9-81.4-173.5"/>
	<g>
		<path d="M1310.3,1650.8c2.4,25.6,5.6,51,9.5,76.3c1.9,12.7,4.1,25.3,6.4,37.8c1.2,6.3,2.4,12.5,3.7,18.8
			c1.3,6.3,2.6,12.5,4.1,18.7c5.8,24.8,12.5,49.4,20.9,73.3c4.2,11.9,8.9,23.7,14.1,35.1c5.2,11.5,11.1,22.6,17.7,33.1
			c1.9,3,1.1,6.9-1.7,8.9l-0.2,0.1l-2,1.5l-2.1,1.6c-1.4,1.1-2.7,2.2-4.1,3.3c-2.7,2.2-5.3,4.5-7.9,6.9c-5.2,4.7-10.1,9.7-14.8,14.9
			c-9.4,10.4-17.7,21.6-24.2,33.7c-3.3,6.1-6,12.3-8.2,18.8c-2.1,6.5-3.7,13.1-4.4,19.8c-1.6,13.4,0.2,27.1,4.8,39.9
			c4.7,12.8,12.1,24.8,21.2,35.4c4.5,5.4,9.3,10.5,14.4,15.4c4.7,4.5,10.6,7.8,17.1,9.8c6.5,2,13.4,3.1,20.4,3.4
			c7,0.3,14.1-0.1,21.2-1c7.1-0.8,14.1-2.1,21.1-3.7c7-1.6,14-3.5,20.8-5.8c-13.1,6-27,10.5-41.3,13.5c-7.2,1.4-14.5,2.3-21.9,2.6
			c-7.4,0.2-14.9-0.3-22.3-2.2c-7.4-1.9-14.6-5.3-20.7-10.5c-5.5-4.8-10.9-9.9-15.9-15.4c-10-11-18.5-23.6-24.2-37.7
			c-2.8-7.1-4.9-14.5-6-22c-1.2-7.6-1.3-15.3-0.6-23c0.6-7.6,2.3-15.2,4.5-22.4c2.3-7.3,5.2-14.3,8.7-20.9
			c7-13.4,15.8-25.5,25.7-36.6c5-5.5,10.2-10.8,15.6-15.8c2.7-2.5,5.5-5,8.4-7.3c1.4-1.2,2.9-2.4,4.3-3.5l2.2-1.7
			c0.8-0.6,1.5-1.1,2.4-1.7l-1.8,9c-14-22.4-24.2-46.6-32.5-71.3c-4.1-12.3-7.7-24.8-10.9-37.4c-3.2-12.6-5.9-25.2-8.3-37.9
			c-2.4-12.7-4.5-25.4-6.2-38.2c-1.7-12.8-3.2-25.6-4.3-38.4c-1.1-12.8-2-25.7-2.5-38.5c-0.3-6.4-0.5-12.9-0.6-19.3
			C1310.2,1663.7,1310.1,1657.2,1310.3,1650.8z"/>
	</g>
	<g>
		<path d="M1922.5,1640.8c0.2,6.4,0.1,12.9,0.1,19.3c-0.1,6.4-0.3,12.9-0.6,19.3c-0.5,12.9-1.4,25.7-2.5,38.5
			c-1.2,12.8-2.6,25.6-4.3,38.4c-1.7,12.8-3.8,25.5-6.2,38.2c-2.4,12.7-5.1,25.4-8.3,37.9c-3.1,12.6-6.8,25-10.9,37.4
			c-8.2,24.6-18.5,48.8-32.5,71.3l-1.5-8.8c1.6,1.3,2.9,2.5,4.3,3.7c1.4,1.2,2.7,2.5,4.1,3.8c2.7,2.5,5.3,5.1,7.9,7.7
			c5.1,5.3,10.1,10.8,14.8,16.4c9.3,11.4,17.8,23.7,24.6,36.9c6.8,13.3,12,27.6,14.1,42.7c2.1,15,1,30.7-4,45.1
			c-4.9,14.4-13.2,27.4-23.1,38.4c-4.9,5.6-10.4,10.6-16,15.3c-1.4,1.2-2.8,2.3-4.3,3.5c-1.4,1.1-3,2.3-4.6,3.3
			c-3.2,2.1-6.5,3.9-10,5.5c-3.5,1.5-7.1,2.8-10.7,3.7c-3.6,0.9-7.4,1.5-11.1,1.9c-7.4,0.7-14.8,0.5-22.1-0.5
			c-14.5-2.2-28.4-6.8-41.1-13.7c6.7,2.7,13.5,4.8,20.5,6.4c6.9,1.6,14,2.7,21,3.1c7,0.4,14.1,0.1,20.9-1.1c3.4-0.6,6.8-1.4,10-2.5
			c3.2-1.1,6.4-2.3,9.4-3.9c3-1.6,5.9-3.3,8.6-5.4c1.4-1,2.6-2.1,3.9-3.2c1.3-1.1,2.6-2.3,3.9-3.5c5.2-4.7,10-9.8,14.5-15.1
			c8.9-10.6,16-22.6,19.9-35.6c1.9-6.5,3.1-13.1,3.5-19.8c0.4-6.7,0-13.5-1.1-20.2c-2.2-13.4-7.1-26.4-13.5-38.5
			c-6.5-12.2-14.5-23.7-23.4-34.4c-4.5-5.4-9.2-10.6-14.1-15.6c-2.5-2.5-5-4.9-7.5-7.3c-1.3-1.2-2.6-2.4-3.9-3.5
			c-1.3-1.1-2.6-2.3-3.8-3.3l-0.1,0c-2.6-2.2-3.2-5.9-1.4-8.7c6.6-10.6,12.5-21.7,17.7-33.1c5.3-11.4,9.9-23.2,14.1-35.1
			c8.5-23.9,15.2-48.5,20.9-73.3c1.4-6.2,2.8-12.4,4.1-18.7c1.3-6.3,2.5-12.5,3.7-18.8c2.4-12.6,4.5-25.2,6.4-37.8
			C1916.9,1691.8,1920,1666.4,1922.5,1640.8z"/>
	</g>
	<g>
		<path d="M1510.6,1650.8c0.5,24.3,0.5,48.5,0.9,72.8c0.1,12.1,0.2,24.2,0.5,36.3c0.2,12.1,0.5,24.2,1.1,36.2c0.3,6,0.6,12,1.2,17.8
			c0.3,2.8,0.7,5.9,1.1,8.9l1.1,9l4.3,36.1c1.5,12,2.9,24,4.8,35.8c0.5,2.9,0.9,5.9,1.5,8.7c0.3,1.4,0.6,2.8,0.9,4.2
			c0.3,1.3,0.7,2.7,1,3.5c0.1,0.2,0.1,0.4,0.1,0.3c0,0,0-0.1,0-0.1c0,0-0.1-0.2-0.2-0.3l-0.1-0.2c-0.1-0.1-0.2-0.3-0.4-0.4l-0.2-0.2
			l-0.2-0.1c-0.3-0.2-0.1-0.1,0.1,0c0.2,0.1,0.4,0.2,0.7,0.4c1.1,0.5,2.5,1.1,3.9,1.7c2.8,1.2,5.6,2.4,8.5,3.8
			c11.3,5.3,22.3,11.8,32.3,19.6c10,7.8,19,16.9,26.6,27.1c7.6,10.2,13.8,21.3,18.4,33.1c4.7,11.7,7.8,24,9.6,36.3
			c0.9,6.2,1.5,12.4,1.9,18.6c0.3,6.2,0.4,12.4,0.2,18.6c-0.2,6.2-0.6,12.3-1.3,18.4c-0.3,3.1-0.7,6.1-1.1,9.1l-0.6,4.6l-0.3,2.3
			l-0.2,1.2c-0.1,0.4-0.2,0.8-0.3,1.3c-0.8,3.4-2.3,6.6-4.2,9.3c-2,2.8-4.4,5.1-7.1,7c-5.3,3.8-11.3,6.1-17.4,7.5
			c-6.1,1.4-12.2,2.2-18.3,2.2c-3.1,0-6.1-0.1-9.2-0.5c-1.5-0.2-3-0.4-4.5-0.8c-0.7-0.2-1.5-0.4-2.2-0.7c-0.7-0.3-1.4-0.6-1.9-1.3
			c0.5,0.6,1.3,0.8,2,1c0.7,0.2,1.5,0.3,2.2,0.4c1.5,0.2,3,0.3,4.5,0.3c3,0,6-0.1,9-0.5c6-0.6,11.8-1.9,17.4-3.8
			c5.6-1.9,10.9-4.5,15.3-8.1c2.2-1.8,4-3.9,5.4-6.1c1.4-2.3,2.3-4.8,2.7-7.4c0.1-0.3,0.1-0.6,0.1-1l0.1-1l0.2-2.2l0.4-4.5
			c0.2-3,0.4-6,0.5-9c0.3-6,0.3-11.9,0.2-17.9c-0.3-11.9-1.4-23.7-3.7-35.3c-2.2-11.6-5.6-22.9-10.2-33.6
			c-4.6-10.7-10.5-20.8-17.6-29.9c-7.1-9.1-15.4-17.3-24.6-24.3c-9.2-7.1-19.2-13-29.9-17.9c-2.7-1.2-5.3-2.4-8.1-3.7
			c-1.4-0.6-2.8-1.2-4.4-2c-0.4-0.2-0.8-0.4-1.3-0.7c-0.5-0.3-1-0.5-1.9-1.2c-0.1-0.1-0.3-0.2-0.4-0.3c-0.2-0.1-0.2-0.2-0.4-0.4
			c-0.2-0.2-0.4-0.4-0.6-0.6c-0.1-0.2-0.2-0.3-0.3-0.4c-0.2-0.2-0.4-0.6-0.5-0.8l-0.3-0.6c-0.4-0.7-0.6-1.3-0.8-1.8
			c-0.7-2-1.1-3.6-1.4-5.2c-0.4-1.6-0.7-3.2-0.9-4.7c-0.6-3.1-1-6.1-1.5-9.2c-1.7-12.2-3.1-24.3-4.3-36.4
			c-1.2-12.1-2.4-24.2-3.5-36.2l-0.8-9c-0.3-3-0.6-6-0.8-9.2c-0.4-6.3-0.5-12.4-0.6-18.5c-0.1-24.4,1.1-48.7,2.4-72.9
			C1506.3,1699.2,1508,1675,1510.6,1650.8z"/>
	</g>
	<g>
		<path d="M1730.6,1637.8c-1.3,8.9-2.3,17.8-3.3,26.7c-0.9,8.9-1.7,17.8-2.3,26.8c-1.1,17.8-1.5,35.7-0.4,53.3
			c0.2,4.4,0.7,8.8,1.1,13.2c0.5,4.6,0.8,9.2,1,13.7c0.4,9.1,0.5,18.2,0.4,27.2c-0.1,9-0.3,18.1-0.7,27.1c-0.4,9-0.9,18-1.6,27
			c-1.4,18-3.1,36-6.1,54.1c-0.8,4.5-1.6,9-2.7,13.7c-0.6,2.3-1.2,4.6-2.1,7.1c-0.4,1.2-0.9,2.5-1.7,4c-0.4,0.8-0.9,1.6-1.8,2.6
			c-0.3,0.3-0.5,0.5-0.9,0.9c-0.2,0.2-0.3,0.3-0.6,0.5c-0.2,0.2-0.5,0.3-0.7,0.5c-0.2,0.1-0.6,0.3-0.9,0.5c-0.2,0.1-0.3,0.1-0.5,0.2
			c-0.2,0.1-0.4,0.1-0.6,0.2c-0.4,0.1-0.8,0.2-1.3,0.3c-0.2,0-0.5,0-0.7,0.1l-0.4,0c-3.1-0.1-6.9,0.8-10.6,2.3
			c-3.7,1.4-7.4,3.3-11.1,5.5c-7.2,4.3-14.2,9.5-20.6,15.3c-6.5,5.7-12.6,12-18,18.6c-5.5,6.7-10.5,13.8-14.2,21.3
			c-1.8,3.8-3.4,7.6-4.3,11.5c-0.9,3.9-1.1,7.8-0.3,11.3l0.1,0.4l0,0l2.8,18.7c0.9,6.2,1.8,12.5,2.7,18.7l0,0.3c0,0.1,0,0.3,0,0.4
			l-1.1,15.4c-0.4,5.1-0.7,10.2-1.1,15.4l-1.2,15.4c-0.5,5.1-0.9,10.2-1.4,15.3c-0.2-5.1-0.4-10.3-0.5-15.4l-0.4-15.4
			c-0.1-5.1-0.2-10.3-0.3-15.4l-0.2-15.4l0,0.6c-1.4-6.2-2.6-12.3-3.9-18.5l-3.9-18.5l0.1,0.4c-1.6-5.2-1.4-10.5-0.6-15.4
			c0.9-4.9,2.4-9.5,4.3-13.9c3.8-8.8,8.9-16.7,14.5-24.1c5.7-7.4,11.9-14.3,18.7-20.6c6.8-6.3,14.1-12.2,22.2-17.2
			c4.1-2.5,8.3-4.8,13-6.6c2.3-0.9,4.7-1.7,7.3-2.3c2.6-0.6,5.3-1,8.3-1c0.1,0,0,0-0.2,0c-0.2,0-0.3,0-0.5,0c-0.3,0-0.6,0.1-0.9,0.2
			c-0.1,0-0.3,0.1-0.4,0.1c-0.1,0-0.2,0.1-0.3,0.1c-0.2,0.1-0.4,0.2-0.5,0.3c-0.1,0.1-0.3,0.2-0.4,0.3c-0.1,0.1-0.2,0.1-0.2,0.2
			c-0.2,0.2-0.2,0.2-0.3,0.3c-0.2,0.2-0.1,0.1,0.1-0.1c0.3-0.5,0.6-1.3,0.9-2.2c0.6-1.8,1.2-3.8,1.6-5.8c1-4.1,1.8-8.4,2.5-12.7
			c1.4-8.7,2.6-17.5,3.6-26.3c1-8.8,1.9-17.7,2.7-26.6c1.6-17.8,2.9-35.6,3.7-53.4c0.4-8.9,0.7-17.8,0.7-26.6
			c0-4.4-0.1-8.8-0.3-13.2c-0.3-4.5-0.5-9.1-0.5-13.7c-0.1-18.3,1.5-36.3,4.2-54.2c0.7-4.5,1.4-8.9,2.1-13.4
			c0.8-4.4,1.7-8.9,2.6-13.3C1726.1,1655.3,1728.2,1646.5,1730.6,1637.8z"/>
	</g>
	<g>
		<path d="M1552.7,2136.2c-0.2,0.2-0.5,0.4-0.6,0.6c-0.1,0.1-0.1,0.1-0.1,0.2c0,0,0,0,0.1-0.1c0,0,0,0,0-0.1l0.1-0.1l0.1-0.3
			l0.2-0.4c0.1-0.2,0.2-0.6,0.3-0.9c0.4-1.3,0.7-2.8,1-4.3c0.6-3.1,0.9-6.4,1.2-9.8c0.5-6.7,0.7-13.5,0.7-20.3
			c-0.1-13.7-1.1-27.4-2.9-41c-1.9-13.6-4.6-27.1-9.1-40.1c-2.3-6.5-5-12.8-8.6-18.6c-3.6-5.8-8.3-11.1-14.4-14.5
			c6.4,2.8,11.6,7.9,15.8,13.5c4.2,5.7,7.5,11.9,10.4,18.3c5.7,12.9,9.6,26.4,12.6,40.1c3,13.7,5.1,27.6,6.3,41.7
			c0.6,7,1,14.1,1,21.3c0,3.6-0.1,7.2-0.5,11c-0.2,1.9-0.4,3.8-0.9,5.9c-0.1,0.5-0.2,1-0.4,1.6l-0.2,0.8l-0.3,0.9l-0.2,0.5
			c-0.1,0.2-0.2,0.4-0.2,0.5c-0.2,0.4-0.3,0.7-0.6,1.1c-0.3,0.4-0.6,0.9-0.9,1.3c-0.4,0.5-1,1.1-1.5,1.5c-2.9,2.3-7.1,1.8-9.4-1.1
			C1549.3,2142.7,1549.8,2138.5,1552.7,2136.2z"/>
	</g>
	<g>
		<path d="M1449.8,2144.2c-0.3,0.3-0.5,0.7-0.6,1.2l-0.1,0.3l0,0.1l0,0.1c0,0.1,0,0.1,0,0.1c0,0,0,0,0,0c0,0,0,0,0,0l0-0.1
			c0-0.1,0-0.1,0.1-0.3c0.1-0.5,0.1-1,0.1-1.6c0.1-1.2,0.1-2.5,0.1-3.9c0-2.7-0.1-5.4-0.3-8.1c-0.3-5.5-0.8-11-1.5-16.5
			c-1.3-11-3.2-22-5.8-32.8c-2.6-10.8-5.8-21.5-10.4-31.6c-2.3-5-5-9.9-8.3-14.4c-3.3-4.4-7.3-8.5-12.3-11.1
			c5.2,2.1,9.8,5.9,13.6,10c3.8,4.2,7.1,9,10,13.9c5.8,9.9,10.1,20.5,13.9,31.2c3.7,10.8,6.8,21.8,9.3,32.9
			c1.2,5.6,2.3,11.2,3.3,16.9c0.5,2.9,0.9,5.7,1.2,8.7c0.2,1.5,0.3,3,0.4,4.6c0,0.8,0.1,1.6,0,2.6c0,0.2,0,0.5,0,0.8l0,0.4l-0.1,0.5
			l-0.1,0.5c0,0.1,0,0.2-0.1,0.3l-0.1,0.4l-0.1,0.4c0,0.2,0,0.2-0.2,0.5c-0.2,0.6-0.5,1.1-0.9,1.6c-2.1,3-6.3,3.7-9.3,1.6
			C1448.4,2151.4,1447.7,2147.2,1449.8,2144.2z"/>
	</g>
	<g>
		<path d="M1978.6,2144.5c-0.2,0.3-0.4,0.7-0.5,1.1l-0.1,0.2l0,0.1c0,0,0,0.2,0,0.2l0-0.1c0,0,0,0,0-0.1l0-0.2c0-0.1,0-0.2,0.1-0.3
			c0.1-0.5,0.1-1.1,0.1-1.8c0.1-1.3,0.1-2.7,0.1-4.1c0-2.8-0.1-5.7-0.2-8.5c-0.3-5.7-0.7-11.5-1.3-17.3c-1.2-11.5-2.8-23-5.1-34.4
			c-2.3-11.4-5.2-22.7-9.4-33.5c-2.1-5.4-4.6-10.7-7.7-15.6c-3.1-4.9-6.9-9.4-11.9-12.5c5.3,2.6,9.7,6.9,13.3,11.5
			c3.6,4.7,6.6,9.9,9.3,15.2c5.3,10.6,9.4,21.9,12.8,33.2c3.4,11.4,6.2,22.9,8.6,34.6c1.2,5.8,2.2,11.7,3,17.6c0.4,3,0.8,6,1.1,9
			c0.1,1.5,0.3,3.1,0.3,4.7c0,0.8,0.1,1.7,0,2.6c0,0.2,0,0.5,0,0.8l0,0.4l-0.1,0.5l-0.1,0.5c0,0.1-0.1,0.5-0.1,0.7l-0.1,0.4
			c0,0.1,0,0.2-0.2,0.5c-0.2,0.5-0.4,1.1-0.7,1.6c-1.9,3.1-6.1,4.1-9.2,2.2S1976.7,2147.6,1978.6,2144.5z"/>
	</g>
	<g>
		<path d="M2044.4,2131.8c-0.1,0.1-0.2,0.3-0.3,0.5l0,0.1l0,0.1l0,0l0.1-0.1C2044.2,2132.1,2044.3,2132,2044.4,2131.8
			c0.1-0.6,0.3-1.1,0.5-1.7c0.4-1.1,0.7-2.4,1-3.6c0.6-2.5,1.1-5,1.6-7.6c0.9-5.2,1.5-10.4,1.9-15.6c0.7-10.5,0.4-21.1-1.5-31.5
			c-0.9-5.2-2.2-10.3-4-15.3c-1.8-5-4-9.8-6.8-14.3c-2.8-4.5-6.2-8.7-10-12.4c-3.9-3.7-8.3-6.9-13-9.6c4.9,2.3,9.7,5,14.1,8.4
			c4.3,3.4,8.2,7.4,11.7,11.8c3.5,4.4,6.3,9.2,8.7,14.3c2.4,5,4.4,10.3,5.9,15.7c3.1,10.8,4.6,22,5,33.2c0.2,5.6,0.1,11.2-0.3,16.9
			c-0.2,2.8-0.5,5.6-0.9,8.5c-0.2,1.4-0.4,2.9-0.7,4.4c-0.1,0.7-0.3,1.5-0.5,2.3c-0.1,0.4-0.3,0.9-0.4,1.4l-0.1,0.4l0,0.1l-0.1,0.2
			l-0.2,0.4c-0.2,0.5-0.5,0.9-0.7,1.4c-2.1,3.1-6.2,3.9-9.3,1.8S2042.3,2134.9,2044.4,2131.8z"/>
	</g>
	<g>
		<path d="M1775,2144.6c-0.1-1.7-0.1-3-0.1-4.5c0-1.5,0-2.9,0-4.4c0.1-2.9,0.2-5.8,0.4-8.6c0.4-5.7,1-11.5,1.8-17.1
			c1.7-11.3,4.4-22.5,8.2-33.3c2-5.4,4.2-10.6,6.8-15.7c2.6-5.1,5.7-9.9,9-14.5c3.3-4.6,7.2-8.8,11.3-12.7
			c4.1-3.9,8.7-7.2,13.4-10.2c-4.4,3.5-8.5,7.2-12.2,11.4c-3.6,4.2-6.9,8.6-9.7,13.4c-2.8,4.8-5.2,9.7-7.2,14.8
			c-2,5.1-3.6,10.3-5,15.6c-2.6,10.6-4.1,21.5-4.6,32.4c-0.3,5.4-0.3,10.9-0.1,16.3c0.1,2.7,0.3,5.4,0.5,8.1c0.1,1.3,0.2,2.7,0.4,4
			c0.1,1.3,0.3,2.7,0.5,3.8c0.6,3.7-1.9,7.1-5.6,7.7s-7.1-1.9-7.7-5.6C1775,2145.1,1775,2144.9,1775,2144.6L1775,2144.6z"/>
	</g>
	<g>
		<path d="M1673.5,2136.2c-0.2-3.6-0.3-7-0.3-10.4c0-3.4-0.1-6.9,0-10.3c0.1-6.9,0.4-13.7,0.8-20.5c0.9-13.7,2.6-27.3,5.4-40.7
			c2.9-13.4,6.9-26.7,13.3-38.9c3.2-6.1,7-11.9,11.8-16.8c4.7-5,10.2-9.2,16.4-11.9c-5.9,3.2-11,7.8-15.2,13
			c-4.2,5.2-7.4,11.1-10,17.2c-5.2,12.2-8,25.4-9.7,38.5c-1.7,13.2-2.2,26.6-2,39.9c0.1,6.7,0.4,13.3,0.9,20
			c0.2,3.3,0.5,6.6,0.8,9.9c0.3,3.3,0.7,6.6,1.1,9.8l0,0.1c0.5,3.7-2,7.1-5.7,7.6s-7.1-2-7.6-5.7
			C1673.5,2136.6,1673.5,2136.4,1673.5,2136.2z"/>
	</g>
	<g>
		<path d="M1248.5,2144.6c-0.1-1.7-0.1-3.2-0.2-4.7c0-1.5-0.1-3.1-0.1-4.6c0-3.1,0-6.1,0.1-9.1c0.2-6.1,0.6-12.1,1.1-18.2
			c1.2-12.1,3.2-24.1,6.4-35.8c3.3-11.7,7.8-23.2,14.5-33.3c6.6-10.2,15.9-18.7,26.8-23.5c-10.4,5.9-18.6,14.9-23.9,25.2
			c-5.5,10.3-8.8,21.6-10.9,33.1c-2,11.5-2.9,23.2-2.9,34.8c0,5.8,0.2,11.7,0.5,17.5c0.2,2.9,0.4,5.8,0.7,8.7
			c0.1,1.4,0.3,2.9,0.5,4.3c0.2,1.4,0.4,2.9,0.6,4.2c0.6,3.7-1.9,7.1-5.6,7.7c-3.7,0.6-7.1-1.9-7.7-5.6
			C1248.6,2145.1,1248.5,2144.9,1248.5,2144.6L1248.5,2144.6z"/>
	</g>
	<g>
		<path d="M1177.5,2132.6c-0.1-0.8-0.2-1.4-0.3-2.1l-0.3-2c-0.2-1.3-0.3-2.7-0.4-4c-0.2-2.7-0.5-5.3-0.6-8
			c-0.3-5.3-0.3-10.6-0.1-15.9c0.4-10.6,1.7-21.2,4.6-31.4c1.4-5.1,3.1-10.1,5.4-14.9c2.3-4.8,5-9.4,8.1-13.6c3.2-4.2,7-7.9,11-11.1
			c4.1-3.2,8.7-5.7,13.3-7.8c-4.4,2.6-8.6,5.6-12.3,9.1c-3.6,3.6-6.7,7.5-9.4,11.8c-5.1,8.6-8.3,18.2-9.8,28
			c-1.6,9.8-1.7,19.9-1.1,29.8c0.4,5,0.9,9.9,1.7,14.8c0.4,2.5,0.9,4.9,1.4,7.3c0.3,1.2,0.5,2.4,0.8,3.6l0.4,1.8
			c0.1,0.6,0.3,1.2,0.4,1.6c1.1,3.5-0.9,7.3-4.5,8.4c-3.5,1.1-7.3-0.9-8.4-4.5c-0.1-0.2-0.1-0.5-0.2-0.7L1177.5,2132.6z"/>
	</g>
	<path fill="none" stroke="#000000" stroke-width="13.3874" stroke-linecap="round" stroke-linejoin="round" d="M1208.5,1968.6
		c0,0,65.3,31,135.6,14"/>
	<path fill="none" stroke="#000000" stroke-width="13.3874" stroke-linecap="round" stroke-linejoin="round" d="M2032.1,1969.6
		c0,0-74.7,39-135.9,18.2"/>
	<path fill="#1B110F" stroke="#000000" stroke-width="6.6937" stroke-linecap="round" stroke-linejoin="round" d="M1718.6,2096.7
		c-3.3,13.2,6.1,28.4,12.4,28.8c10.7,0.8,21.9-40,12.8-45.9C1738.2,2076,1722,2082.9,1718.6,2096.7z"/>
	<path fill="#1B110F" stroke="#000000" stroke-width="6.6937" stroke-linecap="round" stroke-linejoin="round" d="M1639.5,2084.7
		c-2.1,8.6,4.4,18.6,8.6,18.9c7.1,0.6,14.2-25.8,8-29.8C1652.4,2071.4,1641.6,2075.7,1639.5,2084.7z"/>
	<path fill="#1B110F" stroke="#000000" stroke-width="6.6937" stroke-linecap="round" stroke-linejoin="round" d="M1517.2,2098.8
		c1.7,12.5-8.5,25.4-14.3,25.2c-9.9-0.4-16.1-39-7-43.5C1501.3,2077.8,1515.5,2085.7,1517.2,2098.8z"/>
	<path fill="#1B110F" stroke="#000000" stroke-width="6.6937" stroke-linecap="round" stroke-linejoin="round" d="M1603.2,2082.4
		c2.6,11.9-7.2,26-13.3,26.7c-10.4,1.1-19.4-35.5-10.2-41.2C1585.2,2064.4,1600.5,2070,1603.2,2082.4z"/>
	<path fill="#1B110F" stroke="#000000" stroke-width="6.6937" stroke-linecap="round" stroke-linejoin="round" d="M1412.3,2109.2
		c1.4,10.7-7.8,22-12.9,21.8c-8.7-0.2-13.8-33.4-5.7-37.4C1398.4,2091.3,1410.8,2098,1412.3,2109.2z"/>
	<path fill="#1B110F" stroke="#000000" stroke-width="6.6937" stroke-linecap="round" stroke-linejoin="round" d="M1270.3,2100.1
		c0.3-10.2,10.3-19.3,14.9-18.3c7.9,1.6,7.7,33.4-0.2,35.8C1280.4,2119,1270,2110.8,1270.3,2100.1z"/>
	<path fill="#1B110F" stroke="#000000" stroke-width="6.6937" stroke-linecap="round" stroke-linejoin="round" d="M1199.8,2087.1
		c0.3-10.1,9.9-19,14.5-18.1c7.7,1.6,7.6,33-0.1,35.4C1209.6,2105.8,1199.5,2097.7,1199.8,2087.1z"/>
	<path fill="#1B110F" stroke="#000000" stroke-width="6.6937" stroke-linecap="round" stroke-linejoin="round" d="M1148.6,2074
		c0.5-9.4,10.5-17.8,15.2-17c7.8,1.3,7,30.4-0.8,32.8C1158.2,2091.2,1148,2083.9,1148.6,2074z"/>
	<path fill="#1B110F" stroke="#000000" stroke-width="6.6937" stroke-linecap="round" stroke-linejoin="round" d="M1820.1,2101.8
		c-2.7,13,8.7,28.8,15.6,29.7c11.8,1.6,21.2-38.5,10.7-45.1C1840.1,2082.5,1822.9,2088.1,1820.1,2101.8z"/>
	<path fill="#1B110F" stroke="#000000" stroke-width="6.6937" stroke-linecap="round" stroke-linejoin="round" d="M1954.3,2107.3
		c-2.2-8.9-13.8-15.1-18.2-13.6c-7.6,2.6-1.4,30.2,6.9,31.1C1947.8,2125.2,1956.6,2116.5,1954.3,2107.3z"/>
	<path fill="#1B110F" stroke="#000000" stroke-width="6.6937" stroke-linecap="round" stroke-linejoin="round" d="M2029.8,2097.2
		c-2.2-10.1-13.7-17.1-18.2-15.4c-7.6,3-1.6,34.3,6.7,35.3C2023.3,2117.7,2032,2107.7,2029.8,2097.2z"/>
	<path fill="#1B110F" stroke="#000000" stroke-width="6.6937" stroke-linecap="round" stroke-linejoin="round" d="M2090.6,2077.1
		c-2.1-8-13.1-13.7-17.3-12.3c-7.2,2.3-1.3,27.2,6.6,28C2084.6,2093.3,2092.8,2085.5,2090.6,2077.1z"/>
	<path fill="none" stroke="#000000" stroke-width="12" stroke-linecap="round" stroke-linejoin="round" d="M1370.6,649.2
		c0,0-221.5-201.9-351.5-197.9s11.5,461,175.7,528"/>
	<path fill="none" stroke="#000000" stroke-width="12" stroke-linecap="round" stroke-linejoin="round" d="M1869.7,649.2
		c0,0,221.5-201.9,351.5-197.9s-11.5,461-175.7,528"/>
	<g>
		<path d="M1260.1,756.1c-3.3-6-6.8-12-10.4-18c-3.5-6-7.2-11.9-10.8-17.8c-7.3-11.8-14.9-23.5-22.6-35.1
			c-7.8-11.6-15.7-23-23.9-34.3c-8.2-11.3-16.6-22.4-25.3-33.3c-8.7-10.9-17.6-21.7-26.8-32.1c-9.3-10.4-18.7-20.7-28.7-30.5
			c-2.4-2.5-5-4.9-7.5-7.3c-2.5-2.4-5-4.9-7.6-7.1l-7.8-7l-8-6.8c-10.8-8.9-22-17.2-33.8-24.8c12.1,7,23.7,14.9,34.9,23.4l8.3,6.4
			l8.1,6.7c2.7,2.2,5.3,4.6,8,6.9c2.6,2.3,5.3,4.6,7.9,7c10.4,9.4,20.4,19.3,30.1,29.4c9.8,10.1,19.1,20.6,28.4,31.2
			c9.2,10.6,18.1,21.5,26.9,32.5c8.7,11,17.2,22.2,25.6,33.6c8.3,11.4,16.4,22.8,24.3,34.5c7.9,11.7,15.6,23.4,23,35.5
			c2,3.3,1,7.6-2.3,9.6c-3.3,2-7.6,1-9.6-2.3C1260.2,756.4,1260.2,756.3,1260.1,756.1L1260.1,756.1z"/>
	</g>
	<g>
		<path d="M1959.1,749.2c7.4-12.2,15.1-23.9,23-35.5c7.9-11.6,16-23.1,24.3-34.5c8.3-11.3,16.8-22.5,25.6-33.6
			c8.7-11,17.6-21.9,26.9-32.5c9.2-10.6,18.6-21.1,28.4-31.2c9.8-10.1,19.7-20,30.1-29.4c2.6-2.4,5.2-4.7,7.9-7
			c2.7-2.3,5.2-4.7,8-6.9l8.1-6.7l8.3-6.4c11.2-8.4,22.8-16.4,34.9-23.4c-11.8,7.5-23,15.9-33.8,24.8l-8,6.8l-7.8,7
			c-2.6,2.3-5.1,4.8-7.6,7.1c-2.5,2.4-5.1,4.8-7.5,7.3c-10,9.8-19.4,20-28.7,30.5c-9.3,10.4-18.1,21.2-26.8,32.1
			c-8.7,10.9-17.1,22-25.3,33.3c-8.2,11.3-16.2,22.7-23.9,34.3c-7.8,11.6-15.3,23.3-22.6,35.1c-3.7,5.9-7.3,11.9-10.8,17.8
			c-3.5,6-7.1,12-10.4,18l0,0.1c-1.9,3.4-6.1,4.6-9.5,2.7c-3.4-1.9-4.6-6.1-2.7-9.5C1958.9,749.3,1959,749.2,1959.1,749.2z"/>
	</g>
	<path fill="none" stroke="#000000" stroke-width="12" stroke-linecap="round" stroke-linejoin="round" d="M1177.1,1939
		c-25.9,5.6-134,25.8-216.4-38.7c-64.6-50.6-85.1-128.9-96.6-174c-21.7-84.5-11.2-154.2-23-155.3c-10.2-1-24.6,50.5-29,68.3
		c-4.3,17.6-6.3,32.8-7.3,44c-3.6-1.7-8.2-4.5-12.7-9c-9.6-9.7-12.2-21.1-13-26c-7.9,13.7-30.4,56.8-23,114
		c6.2,48.1,30.3,80.2,41,93c11,12.6,12.1,16.7,11,18c-0.5,0.6-3,2.5-37-15c-24.2-12.4-26.4-15.2-28-14c-11.5,8.6,22.6,139.6,130,199
		c80.9,44.7,183.7,37.9,267.5-14.5c4.3-9.9,17-35.8,45.7-50.1c9.4-4.7,18.4-7.1,25.8-8.3c-4.9-1.3-15.7-4.9-24.9-14.9
		C1181.7,1949.5,1178.7,1943.2,1177.1,1939z"/>
</g>
</svg>
