<?xml version="1.0" encoding="utf-8"?>
<!-- Generator: Adobe Illustrator 21.0.0, SVG Export Plug-In . SVG Version: 6.00 Build 0)  -->
<svg version="1.1" id="图层_1" xmlns="http://www.w3.org/2000/svg" xmlns:xlink="http://www.w3.org/1999/xlink" x="0px" y="0px"
	 viewBox="0 0 22 22" enable-background="new 0 0 22 22" xml:space="preserve">
<path fill="#E891DB" stroke="#2B1B29" stroke-width="0.5" stroke-miterlimit="10" d="M17.8,17.3l-0.4,0.4c-1.8,1.8-4.7,1.8-6.5,0
	l-6.6-6.6c-1.8-1.8-1.8-4.7,0-6.5l0.4-0.4c1.8-1.8,4.7-1.8,6.5,0l6.6,6.6C19.6,12.6,19.6,15.6,17.8,17.3z"/>
<path fill="#EFC5F9" d="M16.5,16.5L16.5,16.5c-1.5,1.5-3.9,1.5-5.3,0l-5.8-5.8l5.3-5.3l5.8,5.8C18,12.7,18,15.1,16.5,16.5z"/>
<ellipse transform="matrix(0.7071 -0.7071 0.7071 0.7071 -2.5686 6.2012)" fill="#161015" stroke="#2B1B29" stroke-width="0.5" stroke-miterlimit="10" cx="6.2" cy="6.2" rx="0.5" ry="0.5"/>
</svg>
