<svg id="图层_1" data-name="图层 1" xmlns="http://www.w3.org/2000/svg" xmlns:xlink="http://www.w3.org/1999/xlink" viewBox="0 0 3000 3000"><defs><style>.cls-1,.cls-13{fill:none;}.cls-2{clip-path:url(#clip-path);}.cls-3{fill:#f7bc56;}.cls-4,.cls-5{opacity:0.4;}.cls-10,.cls-4,.cls-5,.cls-8,.cls-9{isolation:isolate;}.cls-4{fill:url(#未命名的渐变_7);}.cls-5{fill:url(#未命名的渐变_8);}.cls-6{fill:#b1aeb9;}.cls-7{fill:#ffef85;}.cls-10,.cls-11,.cls-8,.cls-9{opacity:0.2;}.cls-8{fill:url(#未命名的渐变_9);}.cls-9{fill:url(#未命名的渐变_10);}.cls-10{fill:url(#未命名的渐变_11);}.cls-12{fill:url(#未命名的渐变_14);}.cls-13{stroke:#31323d;stroke-linecap:round;stroke-miterlimit:10;stroke-width:12.5px;}.cls-14{fill:#31323d;}</style><clipPath id="clip-path"><path class="cls-1" d="M1211.5,866.4A240.2,240.2,0,0,1,1341,828.6h158.2A240.5,240.5,0,0,1,1607,854c24.5-19.2,89.4-68.2,129.3-66.3a15,15,0,0,1,12.1,22.9L1684,914.8a240.5,240.5,0,0,1,47.2,89.2l295.1,960.1a248.1,248.1,0,0,1-6.4,155.9l.8.3c47.5,13.8,136.8,46.1,179.8,75.5,26.1,17.8,10.1,55.9-23.2,55.3l-261.6-5a246.8,246.8,0,0,1-65.3,28c2.8,13.3,12.3,21,28.1,21.9,18.2,1,23.7,18.6,24.5,25.5,2.3,21.2-5.8,34.7-27.9,36.9l-91.8,3a53.5,53.5,0,0,1-22.3-4,71.6,71.6,0,0,1-43.1-54.3l-3.5-20.7H1180.9l-5,26.6a71.4,71.4,0,0,1-8.8,23.9c-13.4,22.8-38.9,35.7-65.3,34.1l-84.3-5c-21.4-1.6-31.9-18.9-27.2-40.4,2.5-11.1,15.1-20.3,30.6-21.1,23.3-1.2,30.3-20.2,29.9-43.6v-3.3q-7.1-3.7-13.9-7.9L770,2251c-33.3.6-49.7-38.2-23.2-55.3,54-34.9,146.4-69.2,184.5-78.3l.6-.2a248.9,248.9,0,0,1-12.6-117.6l182.9-961.4a240.3,240.3,0,0,1,33-93.8l-60.5-108.1a15,15,0,0,1,.9-16c24.9-34.9,89.3,8.5,130.8,42.6Z"/></clipPath><linearGradient id="未命名的渐变_7" x1="1713.35" y1="2205.42" x2="1713.35" y2="2072" gradientTransform="matrix(1, 0, 0, -1, 0, 3000)" gradientUnits="userSpaceOnUse"><stop offset="0" stop-color="gray"/><stop offset="0.14" stop-color="#797979"/><stop offset="0.35" stop-color="#646464"/><stop offset="0.6" stop-color="#434343"/><stop offset="0.89" stop-color="#141414"/><stop offset="1"/></linearGradient><linearGradient id="未命名的渐变_8" x1="1041.2" y1="2111.22" x2="1175.2" y2="2111.22" xlink:href="#未命名的渐变_7"/><linearGradient id="未命名的渐变_9" x1="1180.9" y1="845.9" x2="1714.4" y2="845.9" gradientTransform="matrix(1, 0, 0, -1, 0, 3000)" gradientUnits="userSpaceOnUse"><stop offset="0" stop-color="gray"/><stop offset="0.27" stop-color="#7d7d7d"/><stop offset="0.46" stop-color="#747474"/><stop offset="0.64" stop-color="#646464"/><stop offset="0.8" stop-color="#4d4d4d"/><stop offset="0.95" stop-color="#303030"/><stop offset="1" stop-color="#242424"/></linearGradient><linearGradient id="未命名的渐变_10" x1="1028.65" y1="2144.5" x2="1028.65" y2="745.5" xlink:href="#未命名的渐变_9"/><linearGradient id="未命名的渐变_11" x1="1971.85" y1="1029.8" x2="1971.85" y2="694.84" xlink:href="#未命名的渐变_9"/><linearGradient id="未命名的渐变_14" x1="1844.99" y1="743.6" x2="1844.99" y2="2164.1" gradientTransform="matrix(1, 0, 0, -1, 0, 3000)" gradientUnits="userSpaceOnUse"><stop offset="0" stop-color="#fff" stop-opacity="0"/><stop offset="0.72" stop-color="#fff"/></linearGradient></defs><title>96</title><g id="bodyFur"><g class="cls-2"><path class="cls-3" d="M724.1,562.8H2233.5V2386.89H724.1Z"/><path class="cls-4" d="M1781.2,799.5s-38-26-102,41.5l-33.7,40.5,56.1,46.5Z"/><path class="cls-5" d="M1041.2,839.5s27.5-18.9,71.6-.8a122.7,122.7,0,0,1,47.5,35.2l14.9,17.9-37.7,54.9Z"/><path class="cls-6" d="M1181.5,2294.7c-5.6-14.6,3.2-56.8,20.7-141.2,10.5-50.5,18.8-83.4,24-105,38.8-161.9,50.8-387.1,250.3-384.1,172.9,2.6,161,180.7,194.1,366.3q10.35,57.9,20.6,115.8c4.1,22.7,8,45.3,12,68,9.4,53.2,9.6,54.1,9.4,56.2C1702.8,2349.2,1225.9,2411.3,1181.5,2294.7Z"/><path class="cls-7" d="M982.9,1602.7l88.7-38.4a33.4,33.4,0,0,1,38.2,8.4c15.5,17.3,37.1,47.1,47.4,87.5a33.3,33.3,0,0,1,0,16.3,285.7,285.7,0,0,1-23,60.6,33.3,33.3,0,0,1-36.7,17.1l-74.4-16.3a33.4,33.4,0,0,1-23-18.3L966,1647.7a33.4,33.4,0,0,1,15.82-44.51l1.08-.49Zm66.2,175.4c16.3-1.9,41.7-1.8,67.8,9.8a21.8,21.8,0,0,1,12.2,14.4c3.9,14.6,9.9,43.7,6.1,72.4a21.6,21.6,0,0,1-11,16c-12.1,6.8-33.1,17.8-40.4,17.8s-37.4-26.4-51.7-39.6a21.8,21.8,0,0,1-6.9-17.9l4.6-53.1a21.9,21.9,0,0,1,19.3-19.8ZM958.3,1874l32-26.8a18.8,18.8,0,0,0,6.4-10.9l8-42.3a18.8,18.8,0,0,0-2.7-13.8l-19.8-30.3c-9.2-14.1-30.8-9.9-34.2,6.5l-20.2,99.4c-3.6,17.4,16.9,29.6,30.5,18.2Zm240.6-201.1,47-21.9a23.1,23.1,0,0,1,31.9,14.1c3.2,10.5,5.2,25.5,3.3,46.4-3.2,35-48.9,46.5-81.8,50.3a23.2,23.2,0,0,1-25-29l12-44.9A23.1,23.1,0,0,1,1198.9,1672.9Zm-40,120.9,2.9,30.8a9.7,9.7,0,0,0,2.7,5.8c3.9,4.1,12.8,11.1,27.3,10.6a9.7,9.7,0,0,0,8.9-6.7l10.9-34.1a9.7,9.7,0,0,0-6.3-12.18q-.39-.13-.8-.22c-10.1-2.2-25.4-5-36.3-4.5a9.7,9.7,0,0,0-9.33,10.06q0,.22,0,.44Zm8.4,57.7h15.8a9.1,9.1,0,0,1,8.6,5.9l2.8,7.4c.6,1.4.6,4.8.6,8.3a9.1,9.1,0,0,1-9.25,8.94q-.37,0-.75,0l-18.6-1.7a9.1,9.1,0,0,1-8.3-9.1v-10.5a9.1,9.1,0,0,1,9-9.2h.1ZM886.9,2006.8s35.9-34.3,67.5-53.5a22.9,22.9,0,0,1,34.7,18.8c.7,21,3.3,46.6,11,56.5l24,34.9-29.7,33a27.5,27.5,0,0,1-29.6,7.6l-66-23.2Zm150.2,94-19.3,17.4a36.5,36.5,0,0,0-12,26.3l-1.6,77.4,42.5,29.6-2.9-107.4Zm-101.6,16.6,24.9,8.9a36.5,36.5,0,0,1,24,30.9l4.8,50.6L942.4,2142Zm982.9-520.2c-17.7-5.7-43.3-13.2-64.8-17.2a39.8,39.8,0,0,0-41.4,18.7c-10.9,18.1-25,45-29.6,69.8a39.6,39.6,0,0,0,5.5,28.3c9.5,15.2,27.2,42.4,42.9,61.7a39.8,39.8,0,0,0,49.1,10.2c20.2-10.4,48.6-26.3,66.5-41.9a39.6,39.6,0,0,0,12.6-38.8l-14.1-61.8a39.8,39.8,0,0,0-26.7-29Zm37.3,163.8c-23.3,12.3-54.1,30.2-72.2,47.7a29.7,29.7,0,0,0-8.5,27.6l11.2,52.4a29.7,29.7,0,0,0,8.2,15l35.1,34.5a29.7,29.7,0,0,0,33.7,5.6c17-8.2,41.7-21,57.9-34.1a29.6,29.6,0,0,0,9.4-32.3l-32.7-99.4a29.7,29.7,0,0,0-42.1-17Zm-198.4-37.7,59.4,83.6a13.66,13.66,0,0,1-2.7,18.6l-23.9,19a13.7,13.7,0,0,1-11.3,2.7c-13.4-2.7-43.5-10.6-49.6-26.8l-20.3-56.5a13.7,13.7,0,0,1,2.5-13.6l24.3-28.2a13.7,13.7,0,0,1,21.6,1.2Zm90.8,121.5,12.9,35.3a9.9,9.9,0,0,1-.7,8.3l-13.2,23.6a9.9,9.9,0,0,1-15.8,2l-29.8-30.7a9.9,9.9,0,0,1-.5-13.2l20.5-24.9a9.9,9.9,0,0,1,4.5-3.1l9.5-3.2a9.9,9.9,0,0,1,12.6,5.9Zm5.3,340.8,15.2-1.6a56.8,56.8,0,0,1,32,5.9l53.4,27.3-63.4,42.3-40.1,14.5Zm182.4-195.5-43.6,12.5a16.7,16.7,0,0,0-12.1,16v4.2a16.7,16.7,0,0,0,8.3,14.4l41.7,24.2Zm-8.5,106.7-42.6-25.8a29.3,29.3,0,0,0-31.4.7l-29,19.3a29.3,29.3,0,0,0-11.7,15.7l-6.9,22.3a29.3,29.3,0,0,0,11.1,32.6l51.5,36.2,42.4-48.4ZM1255.1,972.3l-140.7,131.3a43.3,43.3,0,0,1-68-11.7l-115.1-222a43.3,43.3,0,0,1,7-49.7l73.5-77.9a43.3,43.3,0,0,1,49.9-9.5L1218,806a43.3,43.3,0,0,1,23.4,27.9l25.9,95.4a43.3,43.3,0,0,1-12.2,43Zm336.1-104-9.7,25.4a15.3,15.3,0,0,0,2.6,15.4l17.3,20.4a15.3,15.3,0,0,0,21.56,1.79l.34-.29,25.1-22.5a15.3,15.3,0,0,0-1.3-23.9l-32.6-23.2a15.3,15.3,0,0,0-23.3,6.9Zm-305.8-178-36.8,53.1a21.9,21.9,0,0,0-2,21.3l37.4,84.9a21.9,21.9,0,0,0,14,12.2l45.2,12.8a21.9,21.9,0,0,0,19.1-3.5l15.9-11.9a21.9,21.9,0,0,0,8.2-12.8l14.2-64.4a21.9,21.9,0,0,0-6-20.3l-75.8-74.5a21.9,21.9,0,0,0-33.4,3.1Zm222.1-2.3-68.6,127a21.9,21.9,0,0,0-2.5,8.1l-4.5,42.4a21.9,21.9,0,0,0,6.2,17.7l25.2,25.3a21.9,21.9,0,0,0,23.6,4.9l56.5-22.4a21.9,21.9,0,0,0,13.2-15.4l33.8-147.7a21.9,21.9,0,0,0-10.4-23.8l-42.6-24.6a21.9,21.9,0,0,0-29.82,8.36l-.08.14ZM1564,921.6l9.2,17.1a15.3,15.3,0,0,1-6.12,20.75l-.68.35-18.2,8.8a15.3,15.3,0,0,1-16.3-1.9l-18.3-14.9a15.3,15.3,0,0,1,3.9-26.1l27.3-11.1a15.3,15.3,0,0,1,19.2,7Z"/><path class="cls-7" d="M1591.2,851.2l30.7,5.3,65.2,62.1,63.5,90.5,66.1-261.8-69.9-37.2-124.9,77.6-30.7,63.5"/><path class="cls-7" d="M1687.1,918.6l-46,31.2a38.2,38.2,0,0,0-23.9,35.4v40.3a38.2,38.2,0,0,0,21.5,34.3l74.6,36.1a57,57,0,0,0,68.8-15l-1-25.5-30.6-46.4Zm-378.9-24.8,25,6.5a13.4,13.4,0,0,1,9.8,15.6l-5.6,27.7a13.4,13.4,0,0,1-15.2,10.6l-19.4-3a13.4,13.4,0,0,1-11.4-13.2V906.8a13.4,13.4,0,0,1,16.8-13ZM1777,1608.2l-22.3,61.6a34,34,0,0,1-8.8,13.3l-17.7,16.4a34,34,0,0,1-44.4,1.6l-39.7-31.8a34,34,0,0,1-11.9-34l11.6-51.3a34,34,0,0,1,30.1-26.3l51.7-4.6a34,34,0,0,1,20.3,4.6l16.4,9.7a34,34,0,0,1,14.7,40.8Zm-4.7-51.1,25.8,15.2a11,11,0,0,0,13.3-1.7l10.1-10a11,11,0,0,0-3-17.7l-27.2-13.1a11,11,0,0,0-12.2,1.8l-8.6,7.9a11,11,0,0,0,1.8,17.6Zm-109.4,156.3,21.6,17a8.8,8.8,0,0,1,3.1,4.6l17.1,64.4a8.8,8.8,0,0,1-11.1,10.6l-22-7a8.8,8.8,0,0,1-5.9-6.4l-16.8-74.4a8.8,8.8,0,0,1,14-8.8ZM1164,1545.5a24.5,24.5,0,0,0-15.8,34c12.7,27.3,32.3,66.3,42,69.3s48.1-9.7,69.2-17.6a24.5,24.5,0,0,0,15.8-21.3l4.3-62.1a24.5,24.5,0,0,0-30.9-25.4Zm57.5-774.7-24.7,48.7,90.7,18.5-11.8-59.8-54.2-7.4m381.3-16.2s-50.5,24.6-48.6,27,36.9,43.1,36.9,43.1l5.3-7.3Z"/></g></g><g id="shadow"><g class="cls-2"><path class="cls-8" d="M1213.2,2110.7c-22.2,91.8,60.8,117.5,83.2,119.2,41.2,3.1,203.6,5.6,287.7-7.9,43.8-7,109.2-65.4,87.3-196.3l43,256.8H1180.9Z"/><path class="cls-9" d="M1233.2,855.5c-66,66-73.4,124.2-101.7,248-48.7,214.1-107.5,671.9-126.3,823.4a910.2,910.2,0,0,0-6.8,98.4v3.4c23.5,26,47.6,88.8,52.6,176.8l1.3,49s-31.3-.8-81-.8c-62,0-110.8-111.7-79.2-278.2,28.4-149.5-68-915.5-68-915.5l282.1-44.3s16-102.2,127-160.2Z"/><path class="cls-10" d="M1854.3,2157.4s29.9-91.4,66.3-124.9c-39.4,75,14.1,92.7,28.1,87.7,53.7-19.2,75-66.7,79.2-150l65.3,116.3s-55,256-204,214l-38.7-18.1Z"/><path class="cls-4" d="M1781.2,799.5s-38-26-102,41.5l-33.7,40.5,56.1,46.5Z"/><path class="cls-5" d="M1041.2,839.5s27.5-18.9,71.6-.8a122.7,122.7,0,0,1,47.5,35.2l14.9,17.9-37.7,54.9Z"/></g></g><g id="highlight"><g class="cls-2"><g class="cls-11"><path class="cls-12" d="M1547.8,836.6s29,33.5,51,64.8,44.1,86.3,65.6,181c58.9,258.7,229.4,683.2,275.5,888s-51.2,286-51.2,286l61.1-35.5s63-74.8,72.5-107.6c20.8-71.9,139-33,117.2-147.7-31.7-166.5-305.7-970.5-305.7-970.5s-123.4-29.9-151.2-79.3c-20.7-36.8-73.2-64.7-124.1-79.9Z"/></g></g></g><g id="body"><path class="cls-13" d="M1714.5,2282.4H1180.9m-130.2-28.7c-89.2-47.1-145.7-146.2-131.5-254.1l182.9-961.4c15.8-119.9,118-209.6,238.9-209.6h158.2A241,241,0,0,1,1731.1,1004l295.1,960.1c39,137.9-45.2,275-175.8,309.9"/><path class="cls-14" d="M1228.6,2040.8c-1.7,15.3-3.8,30.4-6,45.6l-3.5,22.7-3.8,22.6c-2.6,15.1-5.4,30.1-8.1,45.2l-8.3,45.1-16.6,90.3a72.79,72.79,0,0,1-3.5,12.1,79.21,79.21,0,0,1-5.4,11.4,74.69,74.69,0,0,1-16,19.4,78.81,78.81,0,0,1-45.9,18.8l-6.3.2h-6.1l-11.5-.7-22.9-1.3-45.8-2.8h-4.7l-1.8-.3a50.55,50.55,0,0,1-6.7-1.7,36.51,36.51,0,0,1-12.3-7.3,34.29,34.29,0,0,1-8.3-11.7,39.62,39.62,0,0,1-3.1-13.5,53.1,53.1,0,0,1,1-13.2l.2-.8v-1.7l.3-1.1a27.51,27.51,0,0,1,1.5-3.6,31.72,31.72,0,0,1,4.1-6.2,37.48,37.48,0,0,1,11-8.8,48.08,48.08,0,0,1,12.7-4.5,49.8,49.8,0,0,1,6.6-.9l2.7-.2,2.1-.3a30.31,30.31,0,0,0,4.3-1.2,19.29,19.29,0,0,0,3.8-1.9c4.6-3,7.7-8.4,9.4-14.8a72.67,72.67,0,0,0,1.8-20.8l-.9-22.9-1.9-45.9c-.6-15.3-1.3-30.6-1.8-45.9v.5c-.6-5-1.3-9.9-2-14.9-.4-2.5-.8-4.9-1.2-7.4s-.9-4.9-1.4-7.3-1-4.9-1.6-7.3l-1.8-7.2c-1.3-4.8-2.7-9.5-4.4-14.2-.8-2.3-1.7-4.6-2.6-6.9s-1.8-4.6-2.9-6.8l-1.5-3.4-1.6-3.3-1.7-3.3-1.8-3.3-1.8-3.2-1.9-3.2-4-6.3c-1.4-2.1-2.8-4.1-4.3-6.2l-2.2-3-2.3-3a2.34,2.34,0,0,1,.2-3.2,2.24,2.24,0,0,1,3.2.2l5.4,5.6c1.7,1.9,3.4,3.9,5.1,5.9s3.3,4,4.8,6.1l2.3,3.2,2.2,3.2c1.5,2.2,2.9,4.3,4.2,6.6l2,3.4,1.9,3.4c1.3,2.3,2.4,4.6,3.5,7s2.2,4.7,3.2,7.2q3,7.2,5.4,14.7t4.2,15c.6,2.5,1.2,5.1,1.7,7.6s1.1,5.1,1.5,7.6q1.35,7.65,2.4,15.3v.5c.9,15.3,1.6,30.6,2.4,45.8l2.3,45.8,1.1,22.9a101,101,0,0,1-.1,12.3,75.5,75.5,0,0,1-1.9,12.5,43.38,43.38,0,0,1-5.1,12.5,33.56,33.56,0,0,1-9.8,10.4,35.28,35.28,0,0,1-13.2,5.3l-3.5.5-3,.2a37.77,37.77,0,0,0-4.7.6,31,31,0,0,0-8.8,3.2,24.64,24.64,0,0,0-6.9,5.5,14.61,14.61,0,0,0-2.2,3.3,12.34,12.34,0,0,0-1.2,3.7,34.57,34.57,0,0,0-.7,9.6,26.25,26.25,0,0,0,2,8.7,19.78,19.78,0,0,0,4.9,6.9,20.74,20.74,0,0,0,7.3,4.3,31.46,31.46,0,0,0,4.4,1.1l1,.2h3.9l45.8,2.7,22.9,1.4,11.5.7H1110a64.59,64.59,0,0,0,37.6-15.2,62.91,62.91,0,0,0,20.5-34.9l17.4-90.1,8.7-45.1c2.9-15,5.8-30,8.8-45l4.7-22.5,5-22.4c3.4-14.9,7-29.8,11-44.6a2.52,2.52,0,0,1,2.7-2.2,2.6,2.6,0,0,1,2.2,2.9Z"/><path class="cls-14" d="M1095.2,2319.6h-.5l-1.7.2a17.4,17.4,0,0,0-5.8,2,22.19,22.19,0,0,0-6.7,5.5,36.94,36.94,0,0,0-2.9,4,40.18,40.18,0,0,0-2.4,4.6l-.5,1.2-.5,1.2-.5,1.2-.4,1.3c-.5,1.7-.9,3.4-1.3,5l-.5,2.4a20,20,0,0,0-.4,2.4c-.1.8-.4,3-.6,4.4s-.2,2.6-.3,3.7-.1,2.1-.2,2.9v2.7a6.31,6.31,0,0,1-12.6.8,7.57,7.57,0,0,1,.1-1.5c0-.3.1-.5.1-.8l.5-2.7c.2-.9.3-1.9.6-3.1s.5-2.6.9-4.1.8-3.1,1.3-4.8l.8-2.6.9-2.7c.7-1.8,1.4-3.7,2.3-5.5l.6-1.4.7-1.4.7-1.4.8-1.4a60.27,60.27,0,0,1,3.6-5.2,44.72,44.72,0,0,1,4.2-4.5,28.49,28.49,0,0,1,9.4-5.8,25.66,25.66,0,0,1,7.7-1.5h3.1a2.48,2.48,0,0,1,2.2,2.7,2.52,2.52,0,0,1-2.7,2.2Zm-42.5-4.7h-.6l-1.6.4-2.5.9-.7.3-.8.4-1.6.9-1.7,1.1-1.7,1.3-.9.7-.8.8-1.6,1.7-1.5,2-.7,1-.6,1.1-1.3,2.2-1.1,2.4c-.3.8-.7,1.6-1,2.4l-.8,2.5-.8,2.4-.6,2.5a35.59,35.59,0,0,0-1,4.7l-.6,4.3a23.08,23.08,0,0,0-.3,3.7l-.2,2.8-.2,2.5v.4a6.31,6.31,0,1,1-12.6.6,6.6,6.6,0,0,1,.1-1.4c0-.3.1-.5.1-.8l.5-2.7.6-3.1c.3-1.2.4-2.5.9-4l1.3-4.7a45.56,45.56,0,0,1,1.8-5.2l1-2.7,1.3-2.7,1.3-2.7c.5-.9,1.1-1.8,1.6-2.7l1.7-2.6,1.9-2.4.9-1.2,1.1-1.1,2.1-2.1,2.2-1.8,1.1-.9,1.2-.7,2.2-1.4,2.2-1.1,2.1-.8,1-.4,1-.3c1.1-.3,2.1-.5,3.2-.7l2.2-.2h.8a2.21,2.21,0,1,1,.4,4.4Zm621-289.7,2.2,9.4c1.4,6.1,3.4,15.1,5.8,26.6,1.2,5.7,2.5,12.1,3.9,19l4.4,22.5,4.8,25.6,5,28.4,23.3,135.3c1.1,6.1,2,12.8,3.6,17.8a64.84,64.84,0,0,0,33.1,39.1l4.1,1.9,1.1.4,1,.4,2,.7a48.11,48.11,0,0,0,8.4,1.7l4.3.3h4.6l10-.3,40.1-1.4,39.4-1.2,2.5-.3,1.2-.2.9-.2,1.9-.4,1.9-.6a22.69,22.69,0,0,0,6.5-3.5,16.08,16.08,0,0,0,4.3-5.4,12.21,12.21,0,0,0,.7-1.7l.6-1.8a27,27,0,0,0,.8-3.9c.2-1.4.3-2.7.4-4.1v-2.1s0-1.4-.1-2.2l-.2-2.2v-.3c0,.2-.2.3-.3.2s-.3-.2-.2-.3.2-.3.3-.2a.22.22,0,0,1,.2.2v-1.6l-.2-.8-.2-.9a13.88,13.88,0,0,0-.6-1.9c-1.7-5-4.7-9.3-8.4-11.7a16.43,16.43,0,0,0-6.4-2.3l-1.8-.2-2.6-.2h-1.2l-1.5-.2-2.9-.5a42.44,42.44,0,0,1-10.9-4.2,30.21,30.21,0,0,1-9.1-8,34.11,34.11,0,0,1-5.3-10.4,49,49,0,0,1-1.9-10.7,22.61,22.61,0,0,1-.1-2.6V2259l.2-9.1.8-35.4.2-8.6v-4.6l.3-4.2.3-4.2c.1-1.4.2-2.7.4-4.2l1-8.4a262.37,262.37,0,0,1,6.4-31.5,277,277,0,0,1,9.1-28l2.7-6.4c.9-2.1,1.7-4.2,2.7-6.2l2.8-5.9c.9-1.9,1.8-3.9,2.8-5.7l2.9-5.4,1.4-2.6,1.5-2.5,2.9-4.9c.9-1.6,1.8-3.2,2.8-4.7l5.6-8.7,5.4-7.7,2.6-3.5,2.5-3.2c1.6-2.1,3.1-4.1,4.6-5.8l4.1-4.9,3.5-4,6.6-7.1a2.2,2.2,0,0,1,3.4,2.8l-5.6,7.8c-3.6,5.1-8.8,12.6-14.9,22.5l-4.7,7.8-4.8,8.8c-.9,1.5-1.7,3.1-2.5,4.7l-2.5,4.9-1.3,2.5-1.2,2.6-2.5,5.4a291.81,291.81,0,0,0-17.7,50.6l-.9,3.6-.4,1.8-.4,1.8-1.5,7.4-.4,1.9-.3,1.9-.6,3.8-.6,3.9-.3,1.9-.2,1.9-.9,7.8c-.2,1.3-.2,2.7-.3,4.1l-.3,4.2-.3,4.2v12.5l-.5,35.4v15.8a18.16,18.16,0,0,0,.1,2,38.14,38.14,0,0,0,1.4,7.5,21.5,21.5,0,0,0,3.2,6.2c2.7,3.6,6.9,5.8,12,6.9l1.8.3.9.2h1.2l2.2.2,3,.3a31.07,31.07,0,0,1,11.7,4.2,31.69,31.69,0,0,1,9,8.5,41.78,41.78,0,0,1,5.4,10.5,22.88,22.88,0,0,1,.8,2.8l.4,1.4.3,1.6v2.9l.2,2.7a25.29,25.29,0,0,1,.1,2.8,26.16,26.16,0,0,1,0,2.8,54.79,54.79,0,0,1-.5,5.7,54.17,54.17,0,0,1-1.2,5.8l-1,2.9a18.48,18.48,0,0,1-1.3,2.9,31.12,31.12,0,0,1-7.9,10.1,35.23,35.23,0,0,1-10.9,6l-2.8.9-3,.7-1.5.3-1.3.2-2.5.3h-5.7l-5,.2-10,.4-20.1.7-40.1,1.3-10,.3h-5.4l-5.6-.4a59.77,59.77,0,0,1-11-2.3l-2.7-.9-1.4-.5-1.2-.5-4.9-2.3a79.38,79.38,0,0,1-31.4-28.6,75.56,75.56,0,0,1-8.7-19.2l-.7-2.6-.3-1.3c-.1-.4-.2-.9-.3-1.3l-.5-2.3-.2-1.2v-1.4l-1.5-9.3-22-135.6-4.5-28.5-3.8-25.7-3.2-22.7c-1-7-1.8-13.4-2.5-19.3-1.5-11.6-2.5-20.8-3.2-27.1l-1-9.6a2.23,2.23,0,0,1,2.8-1.3,2.29,2.29,0,0,1,1,.7Z"/><path class="cls-14" d="M1783.2,2307.4h3.2a36.81,36.81,0,0,1,8,1.7,38.88,38.88,0,0,1,5.1,2.1,29.26,29.26,0,0,1,5.3,3.3,35.67,35.67,0,0,1,5,4.5c.7.9,1.5,1.7,2.2,2.7l1,1.4,1,1.5a44.72,44.72,0,0,1,3.3,6.1,66.25,66.25,0,0,1,2.4,6.2c.4,1,.6,2,.9,3s.5,2,.7,2.9l.6,2.8.4,2.6c.3,1.7.4,3.2.6,4.6a24.76,24.76,0,0,1,.3,3.5l.2,3.1a6.28,6.28,0,0,1-6.6,6,6.2,6.2,0,0,1-5.9-5.2v-1l.2-2.7a29.13,29.13,0,0,0,.1-3.1c0-1.2.1-2.6,0-4v-2.3l-.2-2.4c-.1-.8-.2-1.7-.3-2.5a23.36,23.36,0,0,0-.4-2.6,45.57,45.57,0,0,0-1.3-5.3,47.08,47.08,0,0,0-2.1-5.2l-.6-1.3-.7-1.2a18.18,18.18,0,0,0-1.5-2.3,27.12,27.12,0,0,0-3.5-4.1,27.81,27.81,0,0,0-8-5.5,30.11,30.11,0,0,0-6.6-2.2l-1.9-.3h-.7a2.4,2.4,0,0,1-.2-4.8Zm50.6-3.2h3.2a36.81,36.81,0,0,1,8,1.7,38.88,38.88,0,0,1,5.1,2.1,29.26,29.26,0,0,1,5.3,3.3,35.67,35.67,0,0,1,5,4.5c.7.9,1.5,1.7,2.2,2.7l1,1.4,1,1.5a44.72,44.72,0,0,1,3.3,6.1,66.25,66.25,0,0,1,2.4,6.2c.4,1,.6,2,.9,3s.5,2,.7,2.9l.6,2.8.4,2.6c.3,1.7.4,3.2.6,4.6a24.76,24.76,0,0,1,.3,3.5l.2,3.1a6.31,6.31,0,0,1-12.5,1.7,4.31,4.31,0,0,1,0-1.6v-.3l.2-2.7a29.13,29.13,0,0,0,.1-3.1c0-1.2.1-2.6,0-4v-2.3l-.2-2.4c-.1-.8-.2-1.7-.3-2.5a23.36,23.36,0,0,0-.4-2.6,45.57,45.57,0,0,0-1.3-5.3,47.08,47.08,0,0,0-2.1-5.2l-.6-1.3-.7-1.2a18.18,18.18,0,0,0-1.5-2.3,27.12,27.12,0,0,0-3.5-4.1,27.81,27.81,0,0,0-8-5.5,30.11,30.11,0,0,0-6.6-2.2l-1.9-.3h-.7a2.4,2.4,0,0,1-.2-4.8Z"/><path class="cls-13" d="M1206.2,862.9c-41.5-34.1-105.9-77.5-130.8-42.6a14.94,14.94,0,0,0-.9,16L1135,944.4M1607,854c24.5-19.2,89.4-68.2,129.3-66.3a15,15,0,0,1,14.3,15.6,15.56,15.56,0,0,1-2.2,7.3L1684,914.8M931.3,2117.4c-38.1,9.1-130.4,43.4-184.5,78.3-26.5,17.1-10.1,55.9,23.2,55.3l280.4-5.5"/><path class="cls-14" d="M840.5,2200.1l-.7.2-2,.6-3.1,1-4,1.5-4.5,2.1a44.79,44.79,0,0,0-4.7,2.8,37.56,37.56,0,0,0-4.4,3.5,29.3,29.3,0,0,0-3.7,4.2l-.8,1.1-.7,1.2a25.59,25.59,0,0,0-1.1,2.4,5.64,5.64,0,0,0-.4,1.2l-.3,1.2a20,20,0,0,0-.4,2.4v3.6c0,.4.1.8.1,1.2a8.33,8.33,0,0,0,.3,2.2c.2.7.3,1.4.5,2.1a25.34,25.34,0,0,0,1.2,3.6c.4,1,.8,1.9,1.2,2.8l1.2,2.4.2.3a6.3,6.3,0,0,1-11.3,5.5l-.3-.7-1.1-3.1a34.57,34.57,0,0,1-1.1-3.7,42.58,42.58,0,0,1-1-4.9c-.1-.9-.2-1.9-.3-2.9s-.1-2.1-.1-3.2V2229l.2-1.7c.1-.6.1-1.2.2-1.7l.4-1.8a35.74,35.74,0,0,1,1-3.5,12.19,12.19,0,0,1,.7-1.7l.8-1.7a34.45,34.45,0,0,1,2-3.2l1.1-1.5,1.2-1.4a31.47,31.47,0,0,1,5.4-4.9,35,35,0,0,1,5.8-3.6c1.9-1,3.8-1.8,5.7-2.6l5.2-1.8,4.4-1.2,3.5-.7,2.3-.3h.8a2.24,2.24,0,0,1,.8,4.4h-.2Zm-47.5,2h-.6l-1.7.5a43.47,43.47,0,0,0-5.9,2.5c-1.2.7-2.4,1.4-3.6,2.2a31.66,31.66,0,0,0-3.5,2.9,20.56,20.56,0,0,0-2.9,3.7,20.28,20.28,0,0,0-2,4.2c-.2.7-.4,1.5-.6,2.2a18.11,18.11,0,0,0-.3,2.3,23.59,23.59,0,0,0,.1,4.6,32.48,32.48,0,0,0,.8,4.3,35.92,35.92,0,0,0,1.2,3.9l.6,1.7.7,1.5.6,1.3.6,1.1,1.1,2.1v.2a6.3,6.3,0,0,1-11.2,5.6l-.3-.8-.9-2.7-.5-1.4-.5-1.7-.5-1.9c-.2-.7-.3-1.4-.5-2.2s-.6-3.3-.8-5.1a38.8,38.8,0,0,1-.2-5.9,34,34,0,0,1,.8-6.3c.2-1.1.6-2.1.9-3.2a28.8,28.8,0,0,1,1.3-3.1,29.73,29.73,0,0,1,3.6-5.6,36.43,36.43,0,0,1,4.5-4.3,38.78,38.78,0,0,1,4.8-3,37.61,37.61,0,0,1,4.6-2,44.09,44.09,0,0,1,7.1-2l2-.3h.8a2.24,2.24,0,0,1,.8,4.4H793v.3Z"/><path class="cls-13" d="M2020.7,2120.2c47.5,13.8,136.8,46.1,179.8,75.5,26.1,17.8,10.1,55.9-23.2,55.3l-261.6-5.1"/><path class="cls-14" d="M2107.6,2193.7h.8l2.3.4,3.5.8,4.5,1.4,5.2,2a58.51,58.51,0,0,1,5.6,2.8,43.45,43.45,0,0,1,5.7,3.8,36.43,36.43,0,0,1,5.3,5.1l1.2,1.5,1.1,1.6c.7,1.1,1.3,2.2,1.9,3.3.3.6.5,1.2.8,1.7a9.62,9.62,0,0,1,.7,1.8l.6,1.8.3.9.2.9a21.36,21.36,0,0,1,.6,3.5c.1,1.1.2,2.3.2,3.4a43.06,43.06,0,0,1-.4,6.2,40.23,40.23,0,0,1-1,5,28.67,28.67,0,0,1-1.1,3.7l-1.1,3.2a6.3,6.3,0,0,1-11.8-4.1l.3-.7.2-.3,1.2-2.4c.4-.8.7-1.7,1.2-2.8a26.84,26.84,0,0,0,1.2-3.7,31.1,31.1,0,0,0,.8-4.4,19.25,19.25,0,0,0,.1-2.4,20.88,20.88,0,0,0-.1-2.5V2224l-.2-1.3a9.31,9.31,0,0,0-.4-1.3,6.48,6.48,0,0,0-.4-1.3,18.88,18.88,0,0,0-1.1-2.5l-.7-1.2-.8-1.2a26.14,26.14,0,0,0-3.7-4.4,40,40,0,0,0-4.4-3.8,46.62,46.62,0,0,0-4.7-3l-4.5-2.3a62.14,62.14,0,0,0-7.1-2.9l-2-.6-.7-.2h-.1a2.2,2.2,0,0,1,.8-4.3Zm47.5,2h.8l2.1.4a45.65,45.65,0,0,1,7.1,2.4,47.78,47.78,0,0,1,4.5,2.3,49.75,49.75,0,0,1,4.7,3.3,37.29,37.29,0,0,1,4.4,4.5,29,29,0,0,1,4.8,8.8c.4,1.1.6,2.2.9,3.2a32.36,32.36,0,0,1,.6,3.3,11.72,11.72,0,0,1,.2,3.2c-.1,1,.1,2.1,0,3.1l-.2,2.9c-.3,1.8-.5,3.6-.8,5.2l-.5,2.3-.6,2-.5,1.8-.5,1.4-.9,2.7a6.3,6.3,0,0,1-11.8-4.1l.3-.7v-.3l1.1-2.2.6-1.2.6-1.4.7-1.6.6-1.7a37.91,37.91,0,0,0,1.2-4l.4-2.2a16,16,0,0,0,.3-2.3,17.69,17.69,0,0,0,.1-2.3c0-.8-.1-1.6-.1-2.4a19.65,19.65,0,0,0-.3-2.4c-.2-.8-.4-1.5-.6-2.3a24.81,24.81,0,0,0-2-4.4,21.94,21.94,0,0,0-2.9-3.9,34.91,34.91,0,0,0-3.5-3.2,28.16,28.16,0,0,0-3.6-2.4,46,46,0,0,0-5.9-2.9l-1.7-.6-.6-.2h-.1a2.26,2.26,0,0,1-.8-3,2.14,2.14,0,0,1,1.9-1.1Z"/></g></svg>