<svg id="图层_1" data-name="图层 1" xmlns="http://www.w3.org/2000/svg" xmlns:xlink="http://www.w3.org/1999/xlink" viewBox="0 0 3000 3000"><defs><style>.cls-1,.cls-6{fill:none;}.cls-2{fill:#fff;}.cls-3{clip-path:url(#clip-path);}.cls-4{fill:#43edac;}.cls-5{fill:#31323d;}.cls-6{stroke:#31323d;stroke-linecap:round;stroke-miterlimit:10;stroke-width:10px;}.cls-7{clip-path:url(#clip-path-2);}</style><clipPath id="clip-path"><circle class="cls-1" cx="1702.8" cy="1111.77" r="129.7" transform="matrix(0.99, -0.13, 0.13, 0.99, -130.55, 231.77)"/></clipPath><clipPath id="clip-path-2"><circle class="cls-1" cx="1161.46" cy="1129.27" r="129.7" transform="matrix(0.99, -0.13, 0.13, 0.99, -137.46, 161.26)"/></clipPath></defs><title>eye_01</title><g id="eye"><circle class="cls-2" cx="1702.8" cy="1111.77" r="129.7" transform="matrix(0.99, -0.13, 0.13, 0.99, -130.55, 231.77)"/><g class="cls-3"><circle class="cls-4" cx="1729.8" cy="1114.23" r="106.1" transform="matrix(0.99, -0.13, 0.13, 0.99, -130.64, 235.32)"/><circle class="cls-5" cx="1726.77" cy="1116.2" r="83" transform="matrix(0.99, -0.13, 0.13, 0.99, -130.92, 234.94)"/><circle class="cls-2" cx="1766.11" cy="1046.27" r="44.2" transform="matrix(0.99, -0.13, 0.13, 0.99, -121.46, 239.47)"/></g><circle class="cls-6" cx="1702.8" cy="1111.77" r="129.7" transform="matrix(0.99, -0.13, 0.13, 0.99, -130.55, 231.77)"/><circle class="cls-2" cx="1161.46" cy="1129.27" r="129.7" transform="matrix(0.99, -0.13, 0.13, 0.99, -137.46, 161.26)"/><g class="cls-7"><circle class="cls-4" cx="1128.4" cy="1137.31" r="106.1" transform="matrix(0.99, -0.13, 0.13, 0.99, -138.8, 157.02)"/><circle class="cls-5" cx="1125.47" cy="1139.19" r="83" transform="matrix(0.99, -0.13, 0.13, 0.99, -139.07, 156.65)"/><circle class="cls-2" cx="1164.81" cy="1069.36" r="44.2" transform="matrix(0.99, -0.13, 0.13, 0.99, -129.61, 161.19)"/></g><circle class="cls-6" cx="1161.46" cy="1129.27" r="129.7" transform="matrix(0.99, -0.13, 0.13, 0.99, -137.46, 161.26)"/></g></svg>