<svg id="图层_1" data-name="图层 1" xmlns="http://www.w3.org/2000/svg" xmlns:xlink="http://www.w3.org/1999/xlink" viewBox="0 0 3000 3010"><defs><style>.cls-1,.cls-11{fill:none;}.cls-2{clip-path:url(#clip-path);}.cls-3{fill:#f7bc56;}.cls-4{fill:#ffef85;}.cls-5,.cls-6,.cls-7{opacity:0.5;}.cls-10,.cls-5,.cls-6,.cls-7,.cls-8,.cls-9{isolation:isolate;}.cls-5{fill:url(#未命名的渐变);}.cls-6{fill:url(#未命名的渐变_2);}.cls-7{fill:url(#未命名的渐变_3);}.cls-10,.cls-8,.cls-9{opacity:0.25;}.cls-8{fill:url(#未命名的渐变_4);}.cls-9{fill:url(#未命名的渐变_5);}.cls-10{fill:url(#未命名的渐变_6);}.cls-11{stroke:#31323d;stroke-linecap:round;stroke-linejoin:round;stroke-width:12.5px;}</style><clipPath id="clip-path"><path class="cls-1" d="M1942.6,1959.2c69,30,162.4,39.9,162.4,39.9s347.1,45,398.6-246c19.5-161.9-177.1-195.4-177.1-195.4s91.8-36.7,124.7-7c0,0-18.5-30.3-46.3-32.7,0,0,118.2-79.9,213.3,102.6,0,0-12.3-93-50.5-111.6,0,0,142.5,32.6,167.6,241.5,0,0,26.3-41.6,23.4-76.4,0,0,67.9,99.8-7.3,214.7,0,0,58.9-56.3,63.7-86.5,0,0,73.9,212.1-151.5,244.1,0,0,61.2,22.9,101.8,3.3,0,0-39.1,85.3-165.9,74.3,0,0,61.7,42.1,99.3,33.5,0,0-93.2,47.7-251.3,13.2,0,0,53.6,49.5,93.2,50.5l-10.5,2.6a635.5,635.5,0,0,1-345.6-16.1l-151-50.4-90.9-37.1v-161Z"/></clipPath><linearGradient id="未命名的渐变" x1="2504.56" y1="1319.3" x2="2504.56" y2="1551.33" gradientTransform="matrix(1, 0, 0, -1, 0, 3000)" gradientUnits="userSpaceOnUse"><stop offset="0" stop-color="#fff" stop-opacity="0"/><stop offset="0.72" stop-color="#fff"/></linearGradient><linearGradient id="未命名的渐变_2" x1="2662.08" y1="1173.7" x2="2662.08" y2="1531.3" xlink:href="#未命名的渐变"/><linearGradient id="未命名的渐变_3" x1="2751.21" y1="1064.3" x2="2751.21" y2="1408" xlink:href="#未命名的渐变"/><linearGradient id="未命名的渐变_4" x1="1665.36" y1="879.72" x2="2549.11" y2="879.72" gradientTransform="matrix(1, 0, 0, -1, 0, 3000)" gradientUnits="userSpaceOnUse"><stop offset="0" stop-color="gray"/><stop offset="0.27" stop-color="#7d7d7d"/><stop offset="0.46" stop-color="#747474"/><stop offset="0.64" stop-color="#646464"/><stop offset="0.8" stop-color="#4d4d4d"/><stop offset="0.95" stop-color="#303030"/><stop offset="1" stop-color="#242424"/></linearGradient><linearGradient id="未命名的渐变_5" x1="2518.9" y1="905.01" x2="2807.64" y2="905.01" xlink:href="#未命名的渐变_4"/><linearGradient id="未命名的渐变_6" x1="2408.1" y1="837.83" x2="2697.6" y2="837.83" xlink:href="#未命名的渐变_4"/></defs><title>tail_01</title><g id="tailFur"><g class="cls-2"><path class="cls-3" d="M1904,1390.5h939v855.44H1904Z"/><path class="cls-4" d="M2476.8,1611.7l35,28.6a24.5,24.5,0,0,1,4.8,32.6l-30,44.8a24.5,24.5,0,0,1-16.2,10.5l-26.1,4.5a24.5,24.5,0,0,1-27.8-30.5l21.1-78a24.5,24.5,0,0,1,39.2-12.5Zm-84.7-106.9,41.2,45.9a33.4,33.4,0,0,1-.3,44.9l-49.8,54.1a33.4,33.4,0,0,1-24,10.8l-36.1.6a33.4,33.4,0,0,1-31.1-46.9l44.7-100.7a33.4,33.4,0,0,1,55.4-8.7Zm92.2,73.6c12.4,14.6,29,33.4,39.6,45.4a23.6,23.6,0,0,0,25.6,6.5l53.4-19.1a23.6,23.6,0,0,0,10-6.9l29.8-34.9a23.6,23.6,0,0,0-7.1-36.2l-59.1-30.6a23.6,23.6,0,0,0-23.3.9l-63.4,39.6a23.6,23.6,0,0,0-5.5,35.3Zm387.6,223.5-4.7-18.1a14.2,14.2,0,0,0-21-8.7l-34.7,20.4a14.2,14.2,0,0,0-6.7,9.5l-14.4,73.5a14.2,14.2,0,0,0,17.3,16.5l32.9-7.9a14.2,14.2,0,0,0,10.2-9.6l20.9-67.9a14.2,14.2,0,0,0,.2-7.7Zm-215.1-219.6-15.5,25.5a28.4,28.4,0,0,0-3.1,22.3l15.3,55.7a28.4,28.4,0,0,0,9.7,14.7l49.1,39.1a28.4,28.4,0,0,0,14.4,6l30.3,3.6c23.8,2.8,40.2-23.3,27.3-43.6l-79.2-123.9a28.4,28.4,0,0,0-48.3.6Zm-74.3,224.2,49.3-49.8a25.3,25.3,0,0,1,31.2-3.9l21.8,13.2a25.3,25.3,0,0,1,12.1,19l6.4,59.4a25.3,25.3,0,0,1-3,15L2680,1896a25.3,25.3,0,0,1-29.6,12l-60.5-18.6a25.3,25.3,0,0,1-17.8-26.3l3.3-40.8A25.3,25.3,0,0,1,2582.5,1806.5Zm189.4-37-34.2,4.1a16.4,16.4,0,0,0-14.4,15.8l-1,42.1a16.4,16.4,0,0,0,7.6,14.2l31.4,19.9a16.4,16.4,0,0,0,25.1-12.9l3.8-66.1a16.4,16.4,0,0,0-18.3-17.1Zm-137.3-57-9.2,13.2a14.5,14.5,0,0,1-25.5-3.5l-23.1-66a14.5,14.5,0,0,1,8.91-18.47q.54-.19,1.09-.33l16.3-4.3a14.5,14.5,0,0,1,17.6,10.1l16,57.1a14.5,14.5,0,0,1-2.1,12.2Zm58.2,249.3-45.5-16.6a33.4,33.4,0,0,0-25.7,1.1l-57.4,26.8a33.4,33.4,0,0,0-13.6,11.6l-18.5,27.4c-16.8,24.8,5.1,57.5,34.5,51.4l117.6-24.5a33.4,33.4,0,0,0,25.1-22.8l4-13a33.4,33.4,0,0,0-20.5-41.4Zm-175.6-40.4,9.2,23.2a28.7,28.7,0,0,1-2.4,25.9l-30.7,48.7a28.7,28.7,0,0,1-26,13.3l-47.7-2.9a28.7,28.7,0,0,1-19.5-9.3l-39.3-43.2a28.7,28.7,0,0,1-7.5-18.6l-.6-25.9a28.7,28.7,0,0,1,28-29.39H2490.5a28.7,28.7,0,0,1,26.7,18.2Zm381,9.2,9.2,23.2a28.7,28.7,0,0,1-2.4,25.9l-30.7,48.7a28.7,28.7,0,0,1-26,13.3l-47.7-2.9a28.7,28.7,0,0,1-19.5-9.3l-39.3-43.2a28.7,28.7,0,0,1-7.5-18.6l-.6-25.9a28.7,28.7,0,0,1,28-29.39H2871.5a28.7,28.7,0,0,1,26.7,18.2Zm-534,99.7-26.2-44.7a21.1,21.1,0,0,0-19.3-10.4l-41.7,2.4a21.1,21.1,0,0,0-19.5,17.3l-4.8,27a21.1,21.1,0,0,0,16.4,24.3l72.7,15.3c17.7,3.8,31.6-15.4,22.4-31.2Zm-29.7-132.1-2.2,47.4a10.4,10.4,0,0,1-10.86,9.91h-2.24a10.4,10.4,0,0,1-9.2-7.2l-9.6-29.6a10.4,10.4,0,0,1-.1-6l6.4-22.8a10.4,10.4,0,0,1,16-5.7l7.3,5.1a10.4,10.4,0,0,1,4.5,8.9Zm208.5,16.2,6.6,23.5a11.3,11.3,0,0,0,13.94,7.82l.06,0,39.6-11.5a11.3,11.3,0,0,0,7.65-14q-.07-.24-.15-.47a11.3,11.3,0,0,0-6.3-6.7l-38.7-16.3a11.3,11.3,0,0,0-10,.6l-7.5,4.3a11.3,11.3,0,0,0-5.2,12.8ZM2404.2,2042a10.6,10.6,0,0,0-10.4,4.7c-2.5,3.9-5,9.1-4.5,13.4.8,5.9,40.8,13.5,61.7,17a10.6,10.6,0,0,0,12.4-10.5v-6.9a10.6,10.6,0,0,0-9.1-10.5Zm296.9-151-17,26.9a12.4,12.4,0,0,0-1.9,6.6v6.5a12.4,12.4,0,0,0,6.4,10.9l9.7,5.3a12.4,12.4,0,0,0,15-2.3l2.4-2.5a12.4,12.4,0,0,0,3.2-6.1l7.2-35.4a12.4,12.4,0,0,0-7.5-14l-2.3-.9a12.4,12.4,0,0,0-15.2,5Zm-215.3-84.3,46.8,20.7a20.7,20.7,0,0,1,12.2,20.8l-1.3,14.7a20.7,20.7,0,0,1-10.7,16.3l-17,9.3a20.7,20.7,0,0,1-11.1,2.5l-51.1-2.9a20.7,20.7,0,0,1-17.1-30.5l22.6-41.9a20.7,20.7,0,0,1,26.7-9Zm4.6-20.4,40.2,12.1a16.3,16.3,0,0,0,15.3-3.2l30.9-26.1a16.3,16.3,0,0,0,5.3-16.6l-15.9-61.5a16.3,16.3,0,0,0-13.5-12.1l-8.2-1.2a16.3,16.3,0,0,0-14.6,5.4l-34,38.9a16.3,16.3,0,0,0-3.2,5.5l-13,37.9a16.3,16.3,0,0,0,10.12,20.71l.58.19Z"/><path class="cls-4" d="M2542.7,1707.5c3.2,0,3.2-5,0-5S2539.5,1707.5,2542.7,1707.5ZM2213.1,1969l17.4,6.9a14.2,14.2,0,0,1,6,21.9l-24.6,31.9a14.2,14.2,0,0,1-10.3,5.5l-74.7,5.3a14.2,14.2,0,0,1-14.3-19.2l11.9-31.7a14.2,14.2,0,0,1,10.8-9l70-12.4a14.2,14.2,0,0,1,7.8.8Zm-40.3,286.7,55.5-42.8a25.3,25.3,0,0,0,7.7-30.5l-10.4-23.3a25.3,25.3,0,0,0-17.3-14.3l-58.2-13.7a25.3,25.3,0,0,0-15.2,1.2L2096,2148a25.3,25.3,0,0,0-15.5,27.9l11,62.3a25.3,25.3,0,0,0,23.9,20.9l40.9,1.7a25.3,25.3,0,0,0,16.5-5.1Zm60.1-183.4-8.3,33.5a16.4,16.4,0,0,1-17.5,12.4l-41.9-4.2a16.4,16.4,0,0,1-13.2-9.3l-15.9-33.7a16.4,16.4,0,0,1,15.9-23.3l66,4.4a16.4,16.4,0,0,1,14.9,20.2Zm35.3,127.4-13.6,8.6a14.5,14.5,0,0,0,2.3,25.6l64.9,26.1a14.5,14.5,0,0,0,18.84-8.09q.2-.5.36-1l5-16.1a14.5,14.5,0,0,0-9.3-18l-56.3-18.6a14.5,14.5,0,0,0-12.2,1.5Zm-235.8-72.6c3.6,16.1,8,34.8,10.9,47.2a33.4,33.4,0,0,1-4.2,25.4l-33.7,53.7a33.4,33.4,0,0,1-13.2,12l-29.5,15c-26.7,13.6-56.4-12.2-46.7-40.5l38.8-113.7a33.4,33.4,0,0,1,25.8-22.1l13.4-2.4a33.4,33.4,0,0,1,38.4,25.4Zm56.2-200-21.9-12a28.7,28.7,0,0,0-26-.8l-52.1,24.5a28.7,28.7,0,0,0-16.4,24.1l-3,47.7a28.7,28.7,0,0,0,6.8,20.5l38,44.3a28.7,28.7,0,0,0,17.6,9.7l25.6,3.8a28.7,28.7,0,0,0,32.61-24.16q0-.32.09-.64l13.5-108.2a28.7,28.7,0,0,0-14.8-28.8Zm-27.7,354.5-22.5-9.4a11.3,11.3,0,0,1-6-14.79l0-.11,16.3-37.9a11.3,11.3,0,0,1,14.83-6l.57.26a11.3,11.3,0,0,1,5.9,7.1l11.5,40.4a11.3,11.3,0,0,1-1.8,9.9l-5.2,6.9a11.3,11.3,0,0,1-13.6,3.6Zm42.7-154-28.8,13.6a12.4,12.4,0,0,1-6.8,1.1l-6.5-.8a12.4,12.4,0,0,1-10-7.7l-4.1-10.3a12.4,12.4,0,0,1,4.1-14.6l2.8-2.1a12.4,12.4,0,0,1,6.5-2.4l36-2.8a12.4,12.4,0,0,1,13,9.2l.6,2.4a12.4,12.4,0,0,1-6.8,14.4Zm268.8-43.1-1.9,2.3a16.9,16.9,0,0,0,2.25,23.79l.25.21,49.8,39.3a16.9,16.9,0,0,0,7.5,3.4l33.1,5.9a16.9,16.9,0,0,0,18.7-22.6l-13.3-34.6a16.9,16.9,0,0,0-12.6-10.5l-67.6-13a16.9,16.9,0,0,0-16.2,5.8Zm128.9,50.3,4.5,33.1a27.6,27.6,0,0,0,24.6,23.7l163.8,16.1a27.6,27.6,0,0,0,27.1-14.7l-48-100.6a39.4,39.4,0,0,0-41.5-22l-83.7,12.8a27.6,27.6,0,0,0-13.9,6.4l-23.7,20.6a27.6,27.6,0,0,0-9.2,24.6Zm218.9-18c-3.6-6.2-14.1-19.8-22.8-30.8a20.8,20.8,0,0,1,3.43-29.21l.37-.29,30.3-23.1s64-10,66-6,4,46,2.7,50.7S2720.2,2116.8,2720.2,2116.8Zm-355.4,141.9-.9-2.5a29.4,29.4,0,0,1,14.6-36.6l26.9-13.2a29.4,29.4,0,0,1,7.2-2.4l65.6-13.2s68.7,24.2,70,29.8-10,40.9-18,46.9-165.4-8.8-165.4-8.8Zm-112.6-180.1-7.6,25.3a15.7,15.7,0,0,0,8.3,18.7l51.8,24.6a15.7,15.7,0,0,0,20.5-6.5l14.5-25.9a15.7,15.7,0,0,0,1.6-11.2l-3.6-15.6a15.7,15.7,0,0,0-13-12.1l-55.2-8.4a15.7,15.7,0,0,0-17.3,11.1Zm99.3,58.8-7.8,9.8a15.3,15.3,0,0,0,.4,19.4l22.1,25.9a15.3,15.3,0,0,0,15.5,4.8l31.2-8.3a15.3,15.3,0,0,0,10.79-18.75q-.17-.63-.39-1.25a15.3,15.3,0,0,0-6.5-7.9l-45.5-27.4a15.3,15.3,0,0,0-19.8,3.7Zm-17.1,40.2,7.4,13.4a8.5,8.5,0,0,1-10,12.1l-39.3-12.9a8.5,8.5,0,0,1-5.1-4.6l-4.9-11.1a8.5,8.5,0,0,1,10.1-11.5l36.8,10.6A8.5,8.5,0,0,1,2334.4,2177.6Zm-95.9-14.3a11.1,11.1,0,0,1,14.6-13.3c5,1.9,9,4.2,9,6.5,0,4.1,2.5,16,4.2,23.7a11.1,11.1,0,0,1-4.4,11.4c-5.4,3.8-12.6,8.3-13.8,5.2s-5.8-19.8-9.6-33.5Z"/><path class="cls-4" d="M2487.7,2053.3l-9.8,21.6a10.6,10.6,0,0,0,1.5,11.2l7.4,8.9a10.6,10.6,0,0,0,16.5-.2l11.9-15a10.6,10.6,0,0,0,.4-12.7,115,115,0,0,1-8.7-14.2,10.64,10.64,0,0,0-19.2.4Z"/></g><g id="tailShadow"><path class="cls-1" d="M3000,3010,0,3000V0L3000,10V3010"/><path class="cls-1" d="M3000,3010,0,3000V0L3000,10V3010"/><g class="cls-2"><path class="cls-5" d="M2413.6,1500.9c82.9,31.3,151.8,98,185.8,179.8,7.6-39.8,7.4-81.7-5-120.3s-37.8-73.7-73-93.9-80.2-24.3-116.8-6.8"/><path class="cls-6" d="M2581.6,1513.1c86.1,76.2,125.5,201.4,98.7,313.2,49.5-46,69.9-118.6,59.7-185.4s-48.5-127.4-99.1-172.2"/><path class="cls-7" d="M2756.9,1685.6c7.8,87.6-16,177.7-66,250.1,63.9-20.6,108-84,118-150.4s-9.7-134.4-41.9-193.3"/><path class="cls-8" d="M2042,1944.9c13.2,65.6,41.6,120.5,90.7,149.8,128.8,76.8,266.9,119.3,416.4,131.2.7,41.4-25.3,79.9-59.4,103.5s-75.3,34.3-116.1,41.5c-194.7,34.1-402.2-7.1-567.5-115.6-56.1-36.8-109.5-84.1-131.1-147.6-20.8-61.3-7.3-133.1,34.4-182.6s110.1-75.1,174.1-64.9"/><path class="cls-9" d="M2753.1,2055.2c-71.1,38-158.6,44.1-234.2,16.3,9.3,20.4,27.2,35.9,46.9,46.4s41.6,16.6,63.2,22.4c28.7,7.7,58,15.1,87.7,13.7s60.3-13,77.9-36.9,18.3-61.1-3.5-81.3"/><path class="cls-10" d="M2672.3,2157.6c-91.9,11.2-187.6-11.9-264.2-63.8,7.8,45.4,43.4,81.8,83.4,104.6,52.2,29.8,116.2,41.3,173.8,24.1,13.9-4.2,29-11.8,32.3-25.9"/></g></g></g><g id="tail"><path class="cls-11" d="M1942.6,1959.2c69,30,162.4,39.9,162.4,39.9s347.1,45,398.6-246c19.5-161.9-177.1-195.4-177.1-195.4s91.8-36.7,124.7-7c0,0-18.5-30.3-46.3-32.7,0,0,118.2-79.9,213.3,102.6,0,0-12.3-93-50.5-111.6,0,0,142.5,32.6,167.6,241.5,0,0,26.3-41.6,23.4-76.4,0,0,67.9,99.8-7.3,214.7,0,0,58.9-56.3,63.7-86.5,0,0,73.9,212.1-151.5,244.1,0,0,61.2,22.9,101.8,3.3,0,0-39.1,85.3-165.9,74.3,0,0,61.7,42.1,99.3,33.5,0,0-93.2,47.7-251.3,13.2,0,0,53.6,49.5,93.2,50.5l-10.5,2.6a635.5,635.5,0,0,1-345.6-16.1l-151-50.4-90.9-37.1v-161Z"/></g></svg>