<?xml version="1.0" encoding="utf-8"?>
<!-- Generator: Adobe Illustrator 21.0.0, SVG Export Plug-In . SVG Version: 6.00 Build 0)  -->
<svg version="1.1" id="图层_2" xmlns="http://www.w3.org/2000/svg" xmlns:xlink="http://www.w3.org/1999/xlink" x="0px" y="0px"
	 viewBox="0 0 3186.3 2724.3" enable-background="new 0 0 3186.3 2724.3" xml:space="preserve">
<g id="color_x5F_03">
	<g id="XMLID_3_">
		<g>
			<path fill="#53291D" d="M2480.3,938.2c59.4,109.6,6.7,299.6-70.3,354c-126.9,89.7-250.7,19.8-270.3-101.5
				c-26.8-165.5-77.1-254.9-120.6-310.3c0-0.1,0-0.1,0-0.3c-2.3-9.1-4.3-16.6-6.2-22.1c-4.3-12.3-62.4-142.2-118.9-188.5
				c-0.9-0.7-1.7-1.5-2.7-2.1C1958.9,663.5,2327.2,655.5,2480.3,938.2z"/>
			<path fill="#53291D" d="M1977.3,2148.3c-2.8-0.4-5-0.5-6.3,0.1c-65.7,30.9-76.8-7.2-90.4-2.5c-56.2,19.7-80.1,13.5-92.9,6.8
				c19.8,6.3,54,12.2,80.1-9.1c66.7-54.1,48.7-114.3,21.6-155.6c53,18.1,116.2-9,132-16.3c0,0.3,0.4,0.5,1.3,0.7
				c69.6,9.2,81.7,64.9,80.3,107.6c-1.7,53-50.5,41.6-55.6,51.4C2030,2165,1993.4,2150.6,1977.3,2148.3z"/>
			<path fill="#53291D" d="M1891.3,667.4c0,0,0,0,0.1,0c0.9,0.7,1.7,1.5,2.7,2.1c56.5,46.3,114.6,176.2,118.9,188.5
				c1.9,5.5,3.9,13,6.2,22.1c0,0.1,0,0.1,0,0.3c12.2,49.7,29.1,142.8,47.8,167.5c34.4,45.2,24.1,149.8-11,199.1
				c-34,47.9-75.1,96.3-114.7,119.4c-32.1,18.9-62.3,34.1-90.9,46.3c-85.1,36.3-158.4,46.1-240.2,45.8
				c-108.4-0.3-180.7-26-232.7-50.5c-10.7-5.1-20.5-10-29.6-14.7c-71.1-36.8-140.8-122.1-156.8-146.2
				c-59.8-90.5-28.6-180.2-17.3-196.3c41.4-58.4,39-152.5,46.2-175.8c1.2-3.7,3.2-9.6,6.3-17.1c15.8-38.8,56.6-121.3,121.8-182.6
				c2-2.1,4.2-4.2,6.3-6c1.9-1.7,3.7-3.5,5.8-5.1c83.3-71.9,187.6-68.3,187.6-68.3L1502,588c0,0,8.3-11.9,32.3-10.8
				c24.1,1.1,61.8,13.8,61.8,13.8s-15.1-15.7-34.7-20.5c-19.1-4.8-40.7-6.2-40.7-6.2s20.3-5.5,52.1-3.9
				c26.9,1.3,64.1,28.4,68.8,31.7c-1.6-2.5-11.6-17.5-20.2-23.7c-12.6-8.8-30.4-19.8-30.4-19.8s32.3,0.1,41.5,8.8
				c11.1,10.4,27.2,27.8,29.1,30c-0.8-1.6-5.6-9.9-7.8-16.2c-2.1-6.3-9-17.1-9.8-18.5c1.9,0.8,20.6,9.5,25.6,14.6
				c8.6,9,13.5,20.9,17,19.5C1692.2,584.6,1807.9,600.4,1891.3,667.4z"/>
			<path fill="#53291D" d="M2071.5,1875c8.3,73.2-50.1,92.8-50.1,96.7c-15.8,7.4-79,34.4-132,16.3c-19.9-30.1-44.7-50.2-44.7-50.2
				c65.9-104.8,70.8-296.8,70.8-296.8l29.9-7.6c10.7,38.7,24.4,85.9,32.1,94.9C2024.1,1782.3,2068.5,1848.3,2071.5,1875z"/>
			<path fill="#53291D" d="M1609.5,2126.7c-24.9,15.8-48.1,11.4-51.9,12.9c-0.1,0-0.1,0.1-0.3,0.1c-69.2,38.6-99.7,5.5-105.8,7.5
				c0,0-0.5,0.3-1.5,0.5c-0.5,0.1-1.1,0.4-1.6,0.5c-57.4,19-84.6,6.6-98,1.2c-0.8-0.7-1.6-1.3-2.4-2
				c-52.6-47.5-50.3-94.2-33.1-130.4c6.2-12.9,14.2-24.4,22.2-34.1c18.2-21.8,37.1-35.1,37.1-35.1c-65.9-105-70.8-296.8-70.8-296.8
				l-26.2-5.6c4.2-17,8.6-37.1,13.9-60.5c11.1-49,82.9-169.8,82.9-169.8l3.5-7.2c51.9,24.5,124.2,50.2,232.7,50.5
				c81.8,0.3,155-9.5,240.2-45.8c7.2,38,74.6,152.2,80.9,170.4c2.4,7,7.8,27.2,14.2,50.3l-29.9,7.6c0,0-5,192-70.8,296.8
				c0,0,24.8,20.1,44.7,50.2c27.2,41.2,45.1,101.5-21.6,155.6c-26.1,21.3-60.2,15.4-80.1,9.1c-0.1,0-0.3,0-0.4-0.1
				c-7.6-3.9-11.2-7.8-15.7-6.2c-77.2,27.8-93.2-11.1-101.3-8.3c-38.8,12.9-52.7-16.9-59-12.6
				C1610.7,2125.9,1610.1,2126.3,1609.5,2126.7z"/>
			<path fill="#53291D" d="M1771.7,2146.4c4.4-1.6,8,2.3,15.7,6.2C1777.9,2149.5,1771.7,2146.4,1771.7,2146.4z"/>
			<path fill="#53291D" d="M1557.5,2139.6c3.9-1.5,27,2.9,51.9-12.9C1596.1,2140.4,1567.2,2142,1557.5,2139.6z"/>
			<path fill="#53291D" d="M1448.4,2148.3c0.5-0.1,1.1-0.4,1.6-0.5c-9.9,3.9-69.1,25.4-99.6,1.7
				C1363.8,2154.8,1391,2167.3,1448.4,2148.3z"/>
			<path fill="#53291D" d="M1348,2147.5c0.8,0.7,1.6,1.3,2.4,2c-4-1.6-6.7-2.5-8.7-1.9c-78.6,26.1-84.6-0.1-93.6-1.9l0.1-1.6
				c0,0-11.2-102.3,42-128.5l24.6,1.5C1297.7,2053.2,1295.4,2100,1348,2147.5z"/>
			<path fill="#53291D" d="M1341,667.9l7.1,7.4c-65.2,61.3-106,143.8-121.8,182.6l-12-4.6c-47,53.1-110.6,146.1-141.5,337.4
				c-19.5,121.3-143.2,191.2-270.3,101.5c-77-54.4-129.7-244.3-70.3-354C901.1,626.4,1341,667.9,1341,667.9z"/>
			<path fill="#53291D" d="M1201.8,1969.2c-10.3-5.4-40.2-24-47.1-60.9c-1.6-8.2-2-17.3-0.8-27.4c6.6-54.2,28.4-77.4,95.2-160.2
				c11.6-14.3,19-37.6,28.1-75.1l26.2,5.6c0,0,5,191.8,70.8,296.8c0,0-18.9,13.3-37.1,35.1c-66.8,16.2-129.2-11.1-135.2-13.8
				C1202,1969,1201.8,1969.2,1201.8,1969.2z"/>
			<path fill="#53291D" d="M1337.2,1982.9c-8,9.8-16.1,21.3-22.2,34.1l-24.6-1.5c-53.3,26.2-42,128.5-42,128.5l-0.1,1.6
				c-0.9-0.3-2-0.1-3.1,0.3c-45.1,18.9-68.5-18.5-74-17.9c-50.5,3.9-50.5-51.5-43.1-81.3c3.1-12.3,7.5-22.6,12.6-31.2
				c24.1-41,64.7-44.8,64.7-44.8s-1.2-0.5-3.2-1.6C1208,1971.8,1270.4,1999.1,1337.2,1982.9z"/>
			<path fill="#53291D" d="M1154.6,1908.2h0.1c7,36.9,36.8,55.6,47.1,60.9c0,0,0.1-0.1,0.1,0c2,1.1,3.2,1.6,3.2,1.6
				s-40.6,3.9-64.7,44.8c-16.1,0-114.3-16.6-134.7-128.5c-16.7-92,21.3-137.2,74.8-142.3c56.2-5.2,79.8,37.6,61,107.1
				C1136.4,1871.8,1152.7,1904.8,1154.6,1908.2z"/>
		</g>
		<g>
		</g>
	</g>
	<g>
		<g>
			<path fill="#431A1A" d="M1291.1,1625.7c2.9,11.3,4.2,23.2,4.2,35.1c0,12-1.6,24.1-4.6,36l-2.2,8.5l-2.2,8.4
				c-0.7,2.9-1.5,5.7-2.4,8.6c-0.9,2.9-1.9,5.9-3,8.8c-2.2,5.9-4.9,11.8-8,17.4c-0.8,1.4-1.6,2.8-2.4,4.1c-0.8,1.3-1.7,2.8-2.5,4
				c-1.6,2.5-3.3,5-5,7.5c-3.4,5-7.1,10-11,14.8c-3.9,4.8-7.8,9.2-11.2,13.3c-3.4,4.1-6.5,8.2-9.6,12.5c-1.5,2.2-3,4.4-4.5,6.6
				l-2.3,3.4l-2.4,3.6c-6.3,9.4-12.2,18.4-16.2,26.8c-2,4.2-3.6,8.4-4.9,12.9c-0.3,1.1-0.6,2.2-0.9,3.3l-0.4,1.7l-0.4,2
				c-0.6,2.6-1,5-1.4,7.3c-0.8,4.7-1.2,9.3-1.2,13.8c0,4.5,0.4,8.8,1.2,13c0.8,4.2,2.1,8.2,3.8,12.1c1.7,3.9,3.8,7.5,6.3,10.9
				c1.3,1.7,2.7,3.3,4.2,4.9c1.5,1.6,3.1,3.2,4.8,4.7c3.5,3,7.3,5.9,11.6,8.6c4.2,2.7,8.8,5.3,13.7,7.8c2.4,1.3,4.9,2.6,7.5,3.9
				c2.3,1.1,4.6,2.4,6.9,3.4c2.3,1.1,4.7,2,7,3c2.4,0.9,4.8,1.8,7.2,2.5c4.9,1.6,9.9,2.8,15.1,3.8c5.2,1,10.5,1.7,16,2.3
				c5.5,0.6,11.1,1,16.8,1.4l17,1.2c5.4,0.3,10.7,0.3,15.8-0.5c5-0.8,9.9-2.5,14.4-5.5c4.5-3,8.4-7.1,11.6-12
				c-1.1,5.8-3.5,11.4-7.4,16.4c-1.9,2.5-4.2,4.7-6.8,6.7c-2.5,2-5.4,3.6-8.3,5c-5.9,2.8-12.1,4.3-18.1,5.5c-1.5,0.3-3,0.6-4.5,0.8
				l-4.3,0.7l-8.6,1.3c-5.8,0.8-11.7,1.5-17.7,2.1c-3,0.3-6,0.5-9.1,0.6c-1.5,0.1-3.1,0.1-4.6,0.1c-1.6,0-3.1,0-4.7,0
				c-6.2-0.1-12.6-0.6-19-1.6c-3.2-0.5-6.3-1.2-9.5-1.8c-3.1-0.8-6.3-1.5-9.3-2.5c-3.1-0.9-6.1-2-9.1-3.1c-2.8-1-5.5-2-8.3-3.1
				c-5.6-2.2-11.4-4.7-17.1-7.6c-5.8-3-11.5-6.4-17.1-10.5c-5.6-4.1-10.9-8.9-15.6-14.4c-4.7-5.5-8.8-11.7-12-18.2
				c-3.3-6.5-5.7-13.4-7.3-20.4c-1.6-7-2.4-14.2-2.5-21.2c-0.1-7,0.5-13.9,1.6-20.5c0.5-3.3,1.2-6.6,1.9-9.6l0.5-2.2l0.6-2.5
				c0.4-1.7,0.9-3.3,1.4-5c2-6.6,4.6-13.1,7.7-19.2c3.1-6,6.5-11.6,10.1-16.7c3.5-5.1,7-10,10.6-14.6l2.6-3.5l2.7-3.5
				c1.8-2.4,3.8-4.8,5.8-7.2c4-4.8,8.3-9.5,12.6-13.8c4.3-4.4,8.5-8.1,12.2-11.9c3.8-3.7,7.4-7.6,11.1-11.7c1.8-2,3.6-4.1,5.4-6.2
				l2.5-3c0.8-1,1.6-2,2.4-3c3.2-4,6-8.2,8.7-12.7c1.3-2.3,2.6-4.6,3.9-7c1.3-2.4,2.5-4.9,3.8-7.4l7.7-15.4
				c4.9-9.7,8.8-20.1,11.9-30.8C1287.5,1648.5,1289.7,1637.3,1291.1,1625.7z"/>
		</g>
		<g>
			<path fill="#431A1A" d="M1948.9,1625.7c1.4,11.4,3.5,22.4,6.5,33.1c0.7,2.7,1.6,5.3,2.4,7.9l1.3,3.9l1.4,3.8
				c1.9,5.1,3.9,10.1,6.2,14.9l3.7,7.5l3.7,7.7l3.6,7.4c1.2,2.4,2.5,4.7,3.7,7c2.5,4.5,5.2,8.7,8.2,12.7c1.5,2,3,4,4.6,6l2.5,3.1
				c0.9,1,1.7,2.1,2.6,3.1c3.5,4.1,7,8,10.6,11.8c1.8,1.9,3.7,3.8,5.6,5.7c1.9,2,4,3.9,6,6.1c4.1,4.3,8.4,8.9,12.2,13.7
				c1,1.2,1.9,2.4,2.8,3.6c0.9,1.2,1.9,2.4,2.8,3.6l2.7,3.6l2.5,3.4c3.4,4.6,6.7,9.3,10.1,14.4c3.4,5,6.7,10.4,9.7,16.3
				c3,5.9,5.6,12.2,7.7,18.6c1,3.2,1.9,6.5,2.6,9.7c0.2,0.9,0.3,1.5,0.5,2.2l0.5,2.2c0.3,1.5,0.6,3.1,0.9,4.7c1.1,6.4,1.8,13,2,19.8
				c0.1,6.8-0.4,13.7-1.6,20.6c-1.2,6.9-3.2,13.7-6,20.3c-2.8,6.5-6.3,12.8-10.6,18.5c-4.2,5.8-9.2,10.9-14.4,15.4
				c-5.2,4.5-10.9,8.2-16.5,11.4c-5.6,3.2-11.3,5.9-16.8,8.2c-5.6,2.4-10.6,4.3-16.8,6.5c-6,2-12.2,3.7-18.4,4.9
				c-6.3,1.1-12.6,1.8-18.8,2c-6.2,0.2-12.3,0-18.2-0.5c-5.9-0.5-11.7-1.2-17.4-2.1l-8.5-1.3l-4.2-0.7c-1.4-0.2-2.9-0.5-4.4-0.8
				c-5.9-1.2-12.1-2.7-17.8-5.5c-2.9-1.4-5.7-3.1-8.1-5.1c-2.5-2-4.7-4.3-6.5-6.8c-3.6-5-5.9-10.6-6.9-16.3c3.1,4.9,6.8,9,11.2,12
				c4.3,3,9,4.8,13.9,5.6c4.9,0.8,10,0.8,15.4,0.4l16.7-1.2c11.1-0.9,21.9-1.8,31.9-4c5-1.1,9.8-2.4,14.5-4
				c4.7-1.6,9.2-3.6,13.7-5.8c4.2-2.2,9.4-5,14-7.6c4.6-2.6,8.9-5.2,12.8-8c3.9-2.8,7.5-5.7,10.6-8.8c3.1-3.1,5.8-6.4,8-9.9
				c4.5-6.9,7.4-14.9,8.6-23.4c0.6-4.2,0.9-8.6,0.7-13.1c-0.1-4.5-0.6-9.1-1.5-13.8c-0.2-1.2-0.4-2.4-0.7-3.6l-0.4-1.9
				c-0.1-0.6-0.3-1.4-0.4-1.9c-0.5-2.3-1.1-4.5-1.7-6.6c-1.3-4.3-2.9-8.5-4.9-12.7c-4-8.5-9.7-17.4-15.7-26.9l-2.3-3.5l-2.2-3.3
				c-0.7-1.1-1.4-2.2-2.2-3.3c-0.7-1.1-1.4-2.2-2.2-3.2c-3-4.3-5.9-8.3-9.3-12.4l-5.3-6.5c-1.8-2.3-3.7-4.6-5.5-7
				c-3.6-4.8-7.1-9.8-10.3-14.8c-0.8-1.2-1.6-2.5-2.4-3.8l-1.2-1.9l-0.6-0.9l-0.6-1c-1.6-2.7-3.1-5.4-4.5-8.2
				c-2.8-5.6-5.3-11.5-7.3-17.3c-2-5.8-3.5-11.6-4.9-17.1c-0.7-2.8-1.3-5.5-2-8.3l-2-8.5c-2.6-11.7-4-23.6-3.9-35.3
				C1944.7,1648.4,1946,1636.8,1948.9,1625.7z"/>
		</g>
		<path fill="#431A1A" d="M1506.5,1739c-2.2,0.2,0.3,24.9,0.7,58.2c0,0,1.2,112.2,16.7,127.6c1.7,1.7,3.6,3,3.6,3
			c3.8,2.4,7.5,2.6,21.3,11c15.2,9.3,35.3,21.7,48.3,43.2c10.7,17.7,9.3,29.7,15.4,30.4c8.9,0.9,8.6-25.4,32.8-47.5
			c9.8-8.9,27.9-25.5,47.9-30.9c2.6-0.7,9.3-2.3,13.8-8.1c5-6.6,4.2-15,4-17.9c-2.2-28.3,13-46.9,11.8-119.6c0-3-0.6-39.6-3.8-39.7
			c-5.1-0.2,5.9,94.7-47.9,145.4c-6.3,5.9-28.3,26.7-57.2,25c-8.3-0.5-23.9-3.2-43-19.8C1510,1846.6,1511,1738.5,1506.5,1739z"/>
		<path fill="#431A1A" d="M1311.1,1667.2c-4.7-0.1-5.2,98.7,0.3,182.4c0,0,4.4,66.1,39.7,110.9c1.6,2,5.2,6.1,10.5,6.7
			c10.3,1.1,22.4-12.1,20.9-21.8c-1-6.4-7.8-10.1-9-10.8c-12.5-7.6-30.6-57-57.2-204.2C1314.7,1678.6,1312.7,1667.2,1311.1,1667.2z"
			/>
		<path fill="#431A1A" d="M1923.3,1658.6c4.7-0.1,5.2,98.7-0.3,182.4c0,0-4.4,66.1-39.7,110.9c-1.6,2-5.2,6.1-10.5,6.7
			c-10.3,1.1-22.4-12.1-20.9-21.8c1-6.4,7.8-10.1,9-10.8c12.5-7.6,30.6-57,57.2-204.2C1919.7,1670,1921.7,1658.6,1923.3,1658.6z"/>
		<path fill="#431A1A" d="M1823,2023.8c-2.1-1.7-31.3,21.2-49.2,57.9c0,0-15,30.7-7.5,55.8c0.7,2.4,2.5,8.4,7.5,10.3
			c3.3,1.2,6.9,0.4,8.6-0.5c9.3-4.8,0.3-29.7,1.2-51.5C1785.3,2052.9,1825.3,2025.7,1823,2023.8z"/>
		<path fill="#431A1A" d="M1212.1,2025.2c-1.6-1.4-24.4,17.2-38.3,46.8c0,0-11.7,24.8-5.9,45.2c0.6,2,2,6.8,5.9,8.4
			c2.5,1,5.4,0.3,6.7-0.4c7.3-3.9,0.2-24.1,0.9-41.7C1182.8,2048.8,1214,2026.8,1212.1,2025.2z"/>
		<path fill="#431A1A" d="M1290.3,2015.7c-1.9-1.8-28.2,21.9-44.3,59.6c0,0-13.5,31.6-6.8,57.5c0.7,2.5,2.3,8.7,6.8,10.7
			c2.9,1.3,6.2,0.4,7.7-0.5c8.4-5,0.3-30.6,1.1-53.1C1256.4,2045.8,1292.4,2017.7,1290.3,2015.7z"/>
		<path fill="#431A1A" d="M1414.6,2027.8c1.9-1.7,28.8,20.9,45.3,57.1c0,0,13.8,30.2,6.9,55c-0.7,2.4-2.3,8.3-6.9,10.2
			c-3,1.2-6.3,0.4-7.9-0.5c-8.6-4.8-0.3-29.3-1.1-50.8C1449.2,2056.6,1412.4,2029.8,1414.6,2027.8z"/>
		<path fill="#431A1A" d="M1531.5,1992.4c1.6-2.1,24.1,25.4,37.9,69.2c0,0,11.5,36.7,5.8,66.8c-0.6,2.9-1.9,10.1-5.8,12.4
			c-2.5,1.5-5.3,0.5-6.6-0.6c-7.2-5.8-0.2-35.6-0.9-61.6C1560.5,2027.2,1529.7,1994.7,1531.5,1992.4z"/>
		<path fill="#431A1A" d="M1709.4,1989.5c-1.6-2.1-24.4,25.4-38.4,69.2c0,0-11.7,36.7-5.9,66.8c0.6,2.9,2,10.1,5.9,12.4
			c2.5,1.5,5.4,0.5,6.7-0.6c7.3-5.8,0.2-35.6,0.9-61.6C1680,2024.4,1711.2,1991.8,1709.4,1989.5z"/>
		<path fill="#431A1A" d="M1946.4,2020.2c1.8-1.8,27.3,22,43,59.8c0,0,13.1,31.7,6.6,57.7c-0.6,2.5-2.2,8.7-6.6,10.7
			c-2.8,1.3-6,0.4-7.5-0.5c-8.1-5-0.3-30.8-1-53.3C1979.2,2050.3,1944.3,2022.2,1946.4,2020.2z"/>
		<path fill="#431A1A" d="M2019.2,2020.1c1.8-1.5,27.3,18.9,43,51.6c0,0,13.1,27.4,6.6,49.8c-0.6,2.2-2.2,7.5-6.6,9.2
			c-2.8,1.1-6,0.3-7.5-0.5c-8.1-4.3-0.3-26.5-1-46C2052.1,2046.1,2017.1,2021.9,2019.2,2020.1z"/>
		<g>
			<g>
				<path fill="#431A1A" d="M1151.1,2026.7c-10.2-2.8-19.7-6.2-29.1-10.2c-9.3-4-18.3-8.6-27-13.8c-17.3-10.4-33.3-23.5-45.8-39.4
					c-3.1-4-6.1-8.1-8.7-12.4c-1.4-2.1-2.6-4.3-3.8-6.5c-1.3-2.2-2.3-4.4-3.4-6.6c-4.2-8.9-7.5-18.2-10-27.5
					c-2.5-9.3-4.3-18.7-5.3-28.2c-0.2-2.4-0.5-4.7-0.6-7.1c-0.1-2.4-0.2-4.7-0.2-7.1c0-4.7,0.2-9.4,0.6-14.1
					c0.4,4.7,1.1,9.3,1.9,13.9c0.4,2.3,0.9,4.6,1.4,6.8c0.5,2.2,1.2,4.5,1.8,6.7c2.7,8.9,6,17.5,9.9,25.7
					c3.9,8.3,8.4,16.1,13.6,23.3c5.2,7.2,11,13.7,17.5,19.4c13,11.4,28.3,19.9,44.5,26.1c8.1,3,16.4,5.5,24.8,7.5
					c8.4,1.9,17,3.3,25.1,4L1151.1,2026.7z"/>
			</g>
			<path fill="none" stroke="#431A1A" stroke-width="66.9368" stroke-miterlimit="10" d="M1375.2,1414.8
				c52.4,21.7,151.7,54.4,278,45.7c90-6.1,161.2-31.1,207.2-51.5"/>
			<g>
				<g>
					<path fill="#431A1A" d="M1214.2,853.4c-6.5,11.5-13.5,22.7-20.5,33.9l-10.5,16.7c-3.5,5.5-6.9,11-10.2,16.6
						c-3.3,5.5-6.5,11-9.4,16.6c-2.9,5.5-5.6,11.1-8,16.6c-0.6,1.4-1.1,2.8-1.7,4.2c-0.5,1.4-1.1,2.8-1.6,4.2l-1.5,4.2l-1.6,4.6
						l-6.4,18.3c-8.3,24.5-16.3,49.2-24,73.9c-1.9,6.2-3.8,12.3-5.6,18.5l-2.7,9.2c-0.9,3-1.8,6.1-2.5,9l-0.5,2.1l-0.2,0.9
						c-0.1,0.3-0.1,0.4-0.1,0.7c0,0.1,0,0.1,0,0l0.1-0.2l0.1-0.2c0-0.1,0,0,0,0.1l-0.2,1.2l-0.3,2.4l-1.5,9.8
						c-1,6.5-2,13.1-3.1,19.7c-1.2,6.7-2.4,13.5-4,20.6c-1.6,7.1-3.7,14.3-5.9,21.1c-2.2,6.7-4.4,13-6.6,19.3l-1.6,4.6l-1.5,4.3
						l-3,9c-4.2,12.4-9.1,26.8-16.9,40.9c-3.9,7.1-8.5,14.1-13.8,20.7c-5.3,6.6-11.3,12.7-17.7,18.1c-3.3,2.8-6.4,5.2-9.6,7.6
						c-3.3,2.4-6.6,4.6-10.1,6.7c-6.9,4.2-14.1,8-21.5,11.2c-7.4,3.2-15,5.8-22.8,7.9c-7.7,2.1-15.6,3.6-23.4,4.7l-2.9,0.4l-2.8,0.3
						c-2.2,0.2-4.3,0.4-6.4,0.5c-4.1,0.2-8.1,0.3-12,0.3c-7.9-0.1-15.7-0.7-23.4-1.7c-15.5-2-30.8-6-45.6-11.8
						c-7.4-2.9-14.6-6.4-21.6-10.3c-7-3.9-13.7-8.3-20-13c-12.7-9.6-24-20.6-33.8-32.5c-9.8-11.9-18.1-24.6-25.1-37.6
						c-7-13-12.9-26.3-17.8-39.7c-2.5-6.7-4.7-13.4-6.8-20c-2.1-6.6-3.9-13.2-5.7-19.5c-1.9-6.6-3.7-13.6-5.3-20.5
						c-1.6-6.9-2.9-13.9-4.1-20.9c-1.2-7-2.1-14.1-2.8-21.2c-0.7-7.1-1.2-14.2-1.4-21.3c-0.2-7.1-0.3-14.2,0-21.4
						c0.2-7.1,0.8-14.2,1.5-21.3c1.5-14.2,3.9-28.3,7.5-42.1c3.6-13.8,8.1-27.3,13.7-40.3c11.1-26.1,26.3-50.1,44.3-71.1
						c9-10.5,18.6-20.3,28.7-29.3c5-4.5,10.1-8.9,15.2-13.1c5.2-4.3,10.5-8.5,15.9-12.4c21.7-15.9,45.2-29.1,69.8-38.5
						c-21,16-40.2,33.4-57.4,52.4c-4.3,4.7-8.4,9.6-12.4,14.5c-4.1,5-8.1,10-12,15c-7.7,10-14.9,20.3-21.3,30.9
						c-12.9,21.1-22.8,43.5-29.4,66.6c-6.6,23.1-9.9,46.8-10,70.6c-0.1,23.8,2.7,47.5,8.1,70.7c1.4,5.8,2.9,11.5,4.6,17.3
						c1.7,5.7,3.5,11.3,5.5,17.2c2.1,6.1,4.2,12,6.3,17.7c2.1,5.7,4.3,11.3,6.6,16.8c9.2,21.8,20.5,41.9,34.5,58.1
						c7,8.1,14.6,15.3,22.9,21.3c4.1,3,8.4,5.8,12.8,8.2c4.4,2.4,9,4.6,13.8,6.5c9.5,3.8,19.6,6.4,30,7.9c5.2,0.8,10.4,1.2,15.6,1.4
						c2.6,0.1,5.1,0.1,7.5,0c1.2,0,2.4-0.1,3.4-0.2l2-0.2l2-0.2c5.2-0.5,10.1-1.4,15.1-2.6c4.9-1.2,9.7-2.7,14.4-4.5
						c4.7-1.8,9.2-3.9,13.5-6.4c2.2-1.2,4.3-2.5,6.4-3.9c2-1.4,4.2-2.9,6-4.2c3.7-2.8,7-5.9,10.1-9.4c3.1-3.4,5.9-7.2,8.6-11.4
						c2.6-4.2,5.1-8.8,7.6-13.9c2.4-5.1,4.8-10.6,7.2-16.7c1.2-3,2.5-6.1,3.9-9.3l2.1-4.9l2-4.5c2.6-5.9,5.3-11.7,7.6-17.2
						c2.4-5.5,4.4-10.7,6.2-16.2c1.9-5.5,3.6-11.4,5.3-17.5c1.7-6.1,3.4-12.3,5.1-18.6l2.5-9.4l1.7-6.2l0.5-1.7l0.5-1.4l0.9-2.6
						c1.2-3.3,2.5-6.4,3.7-9.6l3.8-9.3c2.5-6.1,5.1-12.2,7.7-18.3c10.4-24.3,21.4-48.3,33.1-72c2.9-5.9,5.9-11.9,8.9-17.7l2.3-4.4
						l2.7-4.7c0.9-1.6,1.8-3.1,2.8-4.6c1-1.5,1.9-3,2.9-4.5c3.9-5.9,8.2-11.4,12.6-16.7c2.2-2.6,4.4-5.2,6.7-7.7l3.4-3.8l3.5-3.7
						c4.6-4.9,9.3-9.5,14-14.2c4.7-4.6,9.5-9.2,14.3-13.7C1194.8,871.2,1204.4,862.2,1214.2,853.4z"/>
				</g>
				<g>
					<path fill="#431A1A" d="M2013.3,853.4c9.8,8.8,19.4,17.8,29,26.8c4.8,4.5,9.6,9.1,14.3,13.7c4.7,4.7,9.4,9.3,14,14.2l3.5,3.7
						l3.4,3.8c2.3,2.5,4.5,5.1,6.7,7.7c4.3,5.3,8.7,10.8,12.6,16.7c1,1.4,1.9,3,2.9,4.5c1,1.5,1.9,3,2.8,4.6l2.7,4.7l2.3,4.4
						c3,5.9,6,11.8,8.9,17.7c11.7,23.7,22.6,47.7,33.1,72c2.6,6.1,5.2,12.2,7.7,18.3l3.8,9.3c1.2,3.1,2.5,6.2,3.7,9.6l0.9,2.6
						l0.5,1.4l0.5,1.7l1.7,6.2l2.5,9.4c1.7,6.3,3.4,12.5,5.1,18.6c1.7,6.1,3.5,12,5.3,17.5c1.9,5.5,3.9,10.7,6.2,16.2
						c2.4,5.5,5,11.3,7.6,17.2l2,4.5l2.1,4.9c1.4,3.2,2.7,6.3,3.9,9.3c2.5,6,4.8,11.6,7.2,16.7c2.4,5.1,4.9,9.7,7.6,13.9
						c2.7,4.2,5.5,8,8.6,11.4c3.1,3.4,6.4,6.5,10.1,9.4c1.8,1.4,3.9,2.9,6,4.2c2.1,1.3,4.2,2.7,6.4,3.9c4.3,2.4,8.8,4.6,13.5,6.4
						c4.7,1.8,9.5,3.3,14.4,4.5c4.9,1.2,9.9,2,15.1,2.6l2,0.2l2,0.2c1,0.1,2.2,0.2,3.4,0.2c2.4,0.1,5,0.1,7.5,0
						c5.2-0.1,10.4-0.6,15.6-1.4c10.4-1.5,20.5-4.1,30-7.9c4.7-1.9,9.3-4,13.8-6.5c4.4-2.5,8.7-5.2,12.8-8.2
						c8.3-6,15.9-13.2,22.9-21.3c14-16.3,25.3-36.3,34.5-58.1c2.3-5.5,4.5-11.1,6.6-16.8c2.1-5.7,4.2-11.6,6.3-17.7
						c2-5.8,3.8-11.4,5.5-17.2c1.7-5.7,3.2-11.5,4.6-17.3c5.4-23.2,8.3-46.9,8.1-70.7c-0.2-23.8-3.5-47.5-10-70.6
						c-6.6-23.1-16.5-45.5-29.4-66.6c-6.4-10.6-13.6-20.8-21.3-30.9c-3.9-5-7.9-10-12-15c-4.1-4.9-8.1-9.8-12.4-14.5
						c-17.1-19-36.4-36.4-57.4-52.4c24.6,9.4,48.1,22.6,69.8,38.5c5.4,4,10.8,8.2,15.9,12.4c5.1,4.2,10.2,8.6,15.2,13.1
						c10.1,9.1,19.7,18.8,28.7,29.3c18,21,33.1,45,44.3,71.1c5.6,13,10.1,26.5,13.7,40.3c3.6,13.8,6,27.9,7.5,42.1
						c0.7,7.1,1.3,14.2,1.5,21.3c0.3,7.1,0.2,14.3,0,21.4c-0.2,7.1-0.7,14.2-1.4,21.3c-0.7,7.1-1.6,14.2-2.8,21.2
						c-1.2,7-2.5,14-4.1,20.9c-1.5,6.9-3.4,13.9-5.3,20.5c-1.8,6.4-3.7,12.9-5.7,19.5c-2.1,6.6-4.4,13.3-6.8,20
						c-4.9,13.4-10.8,26.7-17.8,39.7c-7,13-15.3,25.7-25.1,37.6c-9.8,11.9-21.1,22.9-33.8,32.5c-6.4,4.8-13.1,9.1-20,13
						c-7,3.9-14.2,7.3-21.6,10.3c-14.8,5.8-30.2,9.7-45.6,11.8c-7.8,1-15.5,1.6-23.4,1.7c-4,0-7.9,0-12-0.3
						c-2.1-0.1-4.2-0.3-6.4-0.5l-2.8-0.3l-2.9-0.4c-7.8-1-15.7-2.6-23.4-4.7c-7.7-2.1-15.4-4.7-22.8-7.9
						c-7.4-3.2-14.6-6.9-21.5-11.2c-3.5-2.1-6.8-4.4-10.1-6.7c-3.3-2.4-6.4-4.8-9.6-7.6c-6.4-5.5-12.4-11.6-17.7-18.1
						c-5.3-6.6-9.9-13.6-13.8-20.7c-7.9-14.2-12.7-28.5-16.9-40.9l-3-9l-1.5-4.3l-1.6-4.6c-2.2-6.2-4.4-12.5-6.6-19.3
						c-2.2-6.7-4.3-14-5.9-21.1c-1.6-7.1-2.9-13.9-4-20.6c-1.1-6.6-2.1-13.2-3.1-19.7l-1.5-9.8l-0.3-2.4l-0.2-1.2c0-0.1,0-0.2,0-0.1
						l0.1,0.2l0.1,0.2c0,0.1,0,0,0,0c0-0.2-0.1-0.4-0.1-0.7l-0.2-0.9l-0.5-2.1c-0.8-2.9-1.7-6-2.5-9l-2.7-9.2
						c-1.8-6.2-3.7-12.3-5.6-18.5c-7.7-24.7-15.6-49.4-24-73.9l-6.4-18.3l-1.6-4.6l-1.5-4.2c-0.5-1.4-1-2.8-1.6-4.2
						c-0.6-1.4-1-2.8-1.7-4.2c-2.3-5.6-5.1-11.1-8-16.6c-3-5.5-6.1-11-9.4-16.6c-3.3-5.5-6.7-11-10.2-16.6l-10.5-16.7
						C2026.8,876.1,2019.8,864.9,2013.3,853.4z"/>
				</g>
				<g>
					<path fill="#431A1A" d="M1173.8,1025.4c-3.5,14-5.8,28.1-6.6,42.2c-0.4,7-0.5,14-0.2,20.9l0.1,2.6l0.2,2.6
						c0.1,1.7,0.2,3.4,0.4,5.1c0.3,3.4,0.8,6.7,1.3,10.1c1.1,6.7,2.7,13.4,4.4,20c0.9,3.3,1.8,6.6,2.9,9.8c1,3.3,2.2,6.5,3.3,9.7
						c4.6,12.8,10.4,25.2,16.8,37.2l2.5,4.5c0.8,1.5,1.7,3,2.6,4.4l5.3,8.7l1.3,2.2l1.4,2.1l2.8,4.2l2.8,4.2l1.4,2.1
						c0.5,0.7,1,1.3,1.5,2l6.1,8.1l1.5,2l1.6,1.9l3.2,3.9c4.2,5.2,8.8,10.1,13.3,15.1c9.3,9.7,19,18.9,29.3,27.5
						c10.3,8.6,21.1,16.6,32.3,24.2c11.2,7.6,22.7,14.7,34.9,21.9c3,1.8,5.7,3.4,8.7,5c1.4,0.8,2.9,1.6,4.4,2.4
						c1.5,0.8,2.9,1.6,4.4,2.4c5.9,3.2,12,6.1,18,9c24.4,11.5,49.7,21.3,75.6,29l4.8,1.5l4.9,1.3l4.9,1.3c1.6,0.5,3.2,0.9,4.9,1.3
						c6.5,1.6,13,3.3,19.6,4.6c3.3,0.7,6.6,1.5,9.9,2.1l9.9,1.9l2.5,0.5l2.5,0.4l5,0.8c3.3,0.5,6.6,1.1,10,1.5
						c13.3,1.9,26.6,3.1,40,3.9c13.4,0.8,26.8,1.1,40.3,0.8c13.5-0.2,27.1-0.9,41-1.9c13.5-0.9,27-2.3,40.4-4.1
						c26.9-3.6,53.5-9.1,79.6-16.2c3.3-0.9,6.5-1.8,9.8-2.8l4.9-1.4l4.9-1.5c3.2-1,6.5-2,9.7-3.1l4.8-1.6c1.6-0.5,3.2-1.1,4.9-1.7
						c6.7-2.3,13.3-4.6,19.8-6.9c6.4-2.4,12.9-4.7,19.1-7.2c3.2-1.2,6.2-2.6,9.3-3.8c3.1-1.3,6.1-2.7,9.2-4
						c6.1-2.8,12.1-5.6,17.9-8.7c11.8-6.1,23.3-12.8,34.4-20.1c22.2-14.8,43.3-31.9,62.3-51.1c9.5-9.6,18.6-19.7,26.9-30.3
						c2.1-2.6,4.1-5.3,6.1-8c1-1.3,2-2.7,2.9-4.1c1-1.4,1.9-2.7,2.9-4.2c4-5.9,7.8-11.6,11.3-17.3c7.1-11.5,13.2-23.4,18.1-35.9
						c4.9-12.6,8.4-25.8,10.9-39.3c4.8-27.1,4.5-55.7-0.4-84.2c12,26.3,18.7,55.6,19,85.7c0,3.7,0,7.5-0.2,11.3
						c-0.1,1.9-0.2,3.8-0.3,5.7l-0.5,5.6c-0.7,7.5-1.8,15.1-3.4,22.6c-3.1,15-8,29.7-14,43.7c-3,7-6.3,13.8-9.5,20.3
						c-0.8,1.6-1.6,3.4-2.5,5.1c-0.9,1.7-1.8,3.4-2.7,5.1c-1.8,3.4-3.7,6.7-5.7,10c-3.9,6.6-8,13-12.3,19.2
						c-2.1,3.2-4.4,6.2-6.6,9.3c-2.2,3.1-4.6,6-6.9,9.1c-9.4,12-19.5,23.3-30.2,34.1c-10.8,10.7-22.1,21-34.2,30.5
						c-12,9.6-24.7,18.4-37.8,26.5c-13.1,8.1-26.7,15.3-40.5,21.8c-6.9,3.3-13.8,6.3-20.6,9.3c-6.8,2.9-13.7,5.7-20.4,8.4
						c-1.6,0.7-3.4,1.4-5.2,2l-5.3,2.1c-3.5,1.4-7.1,2.7-10.6,4l-5.3,1.9l-5.4,1.8c-3.6,1.2-7.1,2.4-10.8,3.5
						c-28.8,9.2-58.3,16.1-88.2,20.8c-14.9,2.3-30,4-45.1,5.3c-14.7,1.1-29.7,2-44.9,2.2c-30.3,0.4-60.9-1.6-91.1-6.3
						c-15-2.5-30-5.3-44.8-9.1c-7.4-1.7-14.7-3.9-22-6c-3.7-1-7.3-2.2-10.9-3.4l-5.4-1.7l-5.4-1.9c-7.2-2.4-14.3-5.1-21.4-7.8
						l-10.5-4.3c-3.5-1.5-7-3-10.4-4.5c-13.9-6.1-27.4-12.9-40.7-20.2c-6.6-3.7-13.2-7.5-19.7-11.6c-1.6-1-3.2-2-4.9-3.1
						c-1.6-1-3.2-2.1-4.8-3.1c-3.2-2.1-6.5-4.3-9.5-6.5c-3-2.1-6-4.2-9-6.4l-4.5-3.3l-4.5-3.3l-4.5-3.4l-4.5-3.5l-4.5-3.5l-4.4-3.6
						c-11.8-9.6-23.1-19.9-33.8-30.8c-10.6-11-20.6-22.6-29.9-34.8c-4.5-6.2-9-12.4-13-18.9l-3.1-4.8l-1.5-2.4l-1.4-2.5l-5.7-10
						c-0.5-0.8-1-1.6-1.4-2.5l-1.3-2.6l-2.6-5.1l-2.5-5.1l-1.3-2.6l-1.1-2.6c-3-7-6.1-13.9-8.6-21.1c-5.2-14.2-9.3-28.8-12.1-43.7
						c-1.4-7.4-2.4-14.9-3.1-22.4c-0.7-7.5-0.9-15.1-0.8-22.6c0.1-3.8,0.3-7.6,0.6-11.4c0.2-1.9,0.4-3.8,0.6-5.6l0.4-2.8l0.4-2.8
						c1.2-7.4,2.8-14.6,4.7-21.7C1161.3,1051.7,1166.8,1038,1173.8,1025.4z"/>
				</g>
			</g>
		</g>
	</g>
</g>
</svg>
